<svg width="512" height="512" viewBox="0 0 512 512" fill="none" xmlns="http://www.w3.org/2000/svg">
<rect width="512" height="512" fill="url(#paint0_linear_3016_104530)"/>
<g clip-path="url(#clip0_3016_104530)">
<g clip-path="url(#clip1_3016_104530)">
<path d="M408.069 284.459H407.309C400.469 283.699 395.908 278.379 395.908 271.538V267.738C395.908 261.657 396.668 255.577 396.668 249.496V241.135C396.668 238.095 396.668 234.295 395.908 231.254C395.908 224.414 400.469 219.093 407.309 218.333C414.15 217.573 419.47 222.894 420.231 229.734C420.231 233.535 420.23 236.575 420.991 240.375V244.176C420.991 245.696 420.991 247.976 420.991 249.496C420.991 256.337 420.991 262.417 420.231 269.258V273.818C419.47 279.899 414.15 284.459 408.069 284.459Z" fill="url(#paint1_linear_3016_104530)"/>
<path d="M257.575 431.153C227.172 431.153 200.57 403.791 184.608 355.146C182.328 349.065 186.128 342.225 192.209 339.945C198.29 337.664 205.13 341.465 207.41 347.545C219.572 384.029 238.573 406.831 257.575 406.831C287.978 406.831 321.421 344.505 321.421 255.577C321.421 166.648 287.978 104.322 257.575 104.322C238.573 104.322 219.572 127.124 207.41 164.368C205.13 170.449 198.29 174.249 192.209 171.969C186.128 169.688 182.328 162.848 184.608 156.767C200.57 108.123 227.172 80 257.575 80C306.98 80 345.744 156.767 345.744 255.577C345.744 354.386 306.98 431.153 257.575 431.153Z" fill="url(#paint2_linear_3016_104530)"/>
<path d="M366.265 333.864C365.505 333.864 364.745 333.864 363.225 333.864C356.384 332.344 352.584 326.263 354.104 319.423C358.665 298.141 361.705 274.578 361.705 251.016C361.705 230.494 360.185 209.972 356.384 190.97C354.864 184.13 359.425 178.049 366.265 176.529C373.106 175.009 379.187 179.569 380.707 186.41C384.507 206.932 386.787 228.214 386.787 251.016C386.787 276.859 384.507 301.941 379.187 324.743C376.906 330.064 371.586 333.864 366.265 333.864Z" fill="url(#paint3_linear_3016_104530)"/>
<path d="M272.777 366.547C271.257 366.547 269.737 366.547 268.217 365.787C262.136 363.507 259.096 356.666 261.376 349.826C272.017 322.463 277.338 289.78 277.338 254.817C277.338 219.853 272.017 187.17 261.376 159.808C259.096 153.727 262.136 146.886 268.217 143.846C274.297 141.566 281.138 144.606 284.178 150.687C295.579 181.09 301.66 216.813 301.66 254.056C301.66 292.06 295.579 327.783 284.178 357.426C281.898 363.507 277.338 366.547 272.777 366.547Z" fill="url(#paint4_linear_3016_104530)"/>
<path d="M143.564 379.468C132.923 379.468 126.082 377.948 125.322 377.948C121.522 377.188 117.722 374.148 116.201 370.348C114.681 366.547 115.441 361.987 116.962 358.946C128.363 342.225 130.643 330.824 131.403 325.503C112.401 306.501 101 280.659 101 255.577C101 215.293 127.603 178.809 170.167 159.808C189.168 151.447 210.45 146.886 231.732 146.886C238.573 146.886 243.894 152.207 243.894 159.047C243.894 165.888 238.573 171.209 232.492 171.209C214.251 171.209 196.009 175.009 180.808 181.85C146.604 197.051 126.082 224.414 126.082 254.817C126.082 275.339 135.203 295.86 151.925 310.302C153.445 311.822 154.965 314.102 155.725 316.382C156.485 319.423 158.765 332.344 148.124 355.146C160.286 354.386 175.487 351.346 183.848 339.185C186.888 335.384 191.449 333.104 196.009 334.624C203.61 336.144 224.892 340.705 233.253 340.705C240.093 340.705 245.414 346.025 245.414 352.866C245.414 359.706 240.093 365.027 233.253 365.027C224.132 365.027 208.17 361.987 198.289 360.467C181.568 376.428 158.765 379.468 143.564 379.468Z" fill="white"/>
</g>
</g>
<defs>
<linearGradient id="paint0_linear_3016_104530" x1="256" y1="0" x2="256" y2="611.5" gradientUnits="userSpaceOnUse">
<stop offset="0.229167" stop-color="#0036A3"/>
<stop offset="1" stop-color="#C60077"/>
</linearGradient>
<linearGradient id="paint1_linear_3016_104530" x1="408.449" y1="218.261" x2="408.449" y2="284.459" gradientUnits="userSpaceOnUse">
<stop stop-color="#29B2FF"/>
<stop offset="1" stop-color="#FF0099"/>
</linearGradient>
<linearGradient id="paint2_linear_3016_104530" x1="264.842" y1="80" x2="264.842" y2="431.153" gradientUnits="userSpaceOnUse">
<stop stop-color="#29B2FF"/>
<stop offset="1" stop-color="#FF0099"/>
</linearGradient>
<linearGradient id="paint3_linear_3016_104530" x1="370.279" y1="176.236" x2="370.279" y2="333.864" gradientUnits="userSpaceOnUse">
<stop stop-color="#29B2FF"/>
<stop offset="1" stop-color="#FF0099"/>
</linearGradient>
<linearGradient id="paint4_linear_3016_104530" x1="281.14" y1="143.089" x2="281.14" y2="366.547" gradientUnits="userSpaceOnUse">
<stop stop-color="#29B2FF"/>
<stop offset="1" stop-color="#FF0099"/>
</linearGradient>
<clipPath id="clip0_3016_104530">
<rect width="320" height="351.164" fill="white" transform="translate(101 80)"/>
</clipPath>
<clipPath id="clip1_3016_104530">
<rect width="319.99" height="351.153" fill="white" transform="translate(101 80)"/>
</clipPath>
</defs>
</svg>
