<svg width="512" height="512" viewBox="0 0 512 512" fill="none" xmlns="http://www.w3.org/2000/svg">
<rect width="512" height="512" fill="url(#paint0_linear_3016_104530)"/>
<g clip-path="url(#clip0_3016_104530)">
<g clip-path="url(#clip1_3016_104530)">
<path d="M368.14 277.9H367.561C362.345 277.321 358.867 273.264 358.867 268.048V265.15C358.867 260.514 359.447 255.877 359.447 251.241V244.866C359.447 242.547 359.447 239.65 358.867 237.331C358.867 232.115 362.345 228.059 367.561 227.479C372.777 226.899 376.833 230.956 377.413 236.172C377.413 239.07 377.413 241.388 377.992 244.286V247.184C377.992 248.343 377.992 250.082 377.992 251.241C377.992 256.457 377.993 261.093 377.413 266.309V269.787C376.833 274.423 372.777 277.9 368.14 277.9Z" fill="url(#paint1_linear_3016_104530)"/>
<path d="M253.388 389.754C230.205 389.754 209.921 368.89 197.75 331.799C196.012 327.162 198.909 321.946 203.546 320.208C208.182 318.469 213.398 321.367 215.137 326.003C224.41 353.822 238.899 371.209 253.388 371.209C276.57 371.209 302.07 323.685 302.07 255.877C302.07 188.069 276.57 140.546 253.388 140.546C238.899 140.546 224.41 157.932 215.137 186.331C213.398 190.967 208.182 193.865 203.546 192.126C198.909 190.387 196.012 185.171 197.75 180.535C209.921 143.444 230.205 122 253.388 122C291.059 122 320.616 180.535 320.616 255.877C320.616 331.219 291.059 389.754 253.388 389.754Z" fill="url(#paint2_linear_3016_104530)"/>
<path d="M336.263 315.571C335.683 315.571 335.104 315.571 333.945 315.571C328.729 314.412 325.831 309.776 326.99 304.56C330.467 288.332 332.786 270.366 332.786 252.4C332.786 236.752 331.626 221.104 328.729 206.615C327.57 201.399 331.047 196.763 336.263 195.603C341.479 194.444 346.115 197.922 347.274 203.138C350.172 218.786 351.911 235.013 351.911 252.4C351.911 272.105 350.172 291.23 346.115 308.617C344.377 312.674 340.32 315.571 336.263 315.571Z" fill="url(#paint3_linear_3016_104530)"/>
<path d="M264.978 340.492C263.819 340.492 262.659 340.492 261.5 339.913C256.864 338.174 254.546 332.958 256.284 327.742C264.398 306.878 268.455 281.957 268.455 255.298C268.455 228.638 264.398 203.717 256.284 182.853C254.546 178.217 256.864 173.001 261.5 170.683C266.137 168.944 271.353 171.262 273.671 175.899C282.364 199.081 287.001 226.32 287.001 254.718C287.001 283.696 282.364 310.935 273.671 333.538C271.932 338.174 268.455 340.492 264.978 340.492Z" fill="url(#paint4_linear_3016_104530)"/>
<path d="M166.455 350.345C158.341 350.345 153.125 349.186 152.546 349.186C149.648 348.606 146.75 346.288 145.591 343.39C144.432 340.492 145.012 337.015 146.171 334.697C154.864 321.946 156.603 313.253 157.182 309.196C142.693 294.707 134 275.002 134 255.877C134 225.161 154.284 197.342 186.739 182.853C201.228 176.478 217.456 173.001 233.683 173.001C238.899 173.001 242.956 177.058 242.956 182.274C242.956 187.49 238.899 191.547 234.263 191.547C220.354 191.547 206.444 194.444 194.853 199.66C168.773 211.251 153.125 232.115 153.125 255.298C153.125 270.946 160.08 286.594 172.83 297.605C173.989 298.764 175.148 300.503 175.728 302.242C176.308 304.56 178.046 314.412 169.932 331.799C179.205 331.219 190.796 328.901 197.171 319.628C199.49 316.73 202.967 314.992 206.444 316.151C212.24 317.31 228.467 320.787 234.843 320.787C240.059 320.787 244.115 324.844 244.115 330.06C244.115 335.276 240.059 339.333 234.843 339.333C227.888 339.333 215.717 337.015 208.183 335.856C195.433 348.026 178.046 350.345 166.455 350.345Z" fill="white"/>
</g>
</g>
<defs>
<linearGradient id="paint0_linear_3016_104530" x1="256" y1="0" x2="256" y2="611.5" gradientUnits="userSpaceOnUse">
<stop offset="0.229167" stop-color="#0036A3"/>
<stop offset="1" stop-color="#C60077"/>
</linearGradient>
<linearGradient id="paint1_linear_3016_104530" x1="368.43" y1="227.424" x2="368.43" y2="277.9" gradientUnits="userSpaceOnUse">
<stop stop-color="#29B2FF"/>
<stop offset="1" stop-color="#FF0099"/>
</linearGradient>
<linearGradient id="paint2_linear_3016_104530" x1="258.928" y1="122" x2="258.928" y2="389.754" gradientUnits="userSpaceOnUse">
<stop stop-color="#29B2FF"/>
<stop offset="1" stop-color="#FF0099"/>
</linearGradient>
<linearGradient id="paint3_linear_3016_104530" x1="339.324" y1="195.38" x2="339.324" y2="315.571" gradientUnits="userSpaceOnUse">
<stop stop-color="#29B2FF"/>
<stop offset="1" stop-color="#FF0099"/>
</linearGradient>
<linearGradient id="paint4_linear_3016_104530" x1="271.354" y1="170.105" x2="271.354" y2="340.492" gradientUnits="userSpaceOnUse">
<stop stop-color="#29B2FF"/>
<stop offset="1" stop-color="#FF0099"/>
</linearGradient>
<clipPath id="clip0_3016_104530">
<rect width="244" height="267.762" fill="white" transform="translate(134 122)"/>
</clipPath>
<clipPath id="clip1_3016_104530">
<rect width="243.993" height="267.754" fill="white" transform="translate(134 122)"/>
</clipPath>
</defs>
</svg>
