<svg width="244" height="268" viewBox="0 0 244 268" fill="none" xmlns="http://www.w3.org/2000/svg">
<g clip-path="url(#clip0_3016_104571)">
<g clip-path="url(#clip1_3016_104571)">
<path d="M234.14 155.9H233.561C228.345 155.321 224.867 151.264 224.867 146.048V143.15C224.867 138.514 225.447 133.877 225.447 129.241V122.866C225.447 120.547 225.447 117.65 224.867 115.331C224.867 110.115 228.345 106.059 233.561 105.479C238.777 104.899 242.833 108.956 243.413 114.172C243.413 117.07 243.413 119.388 243.992 122.286V125.184C243.992 126.343 243.992 128.082 243.992 129.241C243.992 134.457 243.993 139.093 243.413 144.309V147.787C242.833 152.423 238.777 155.9 234.14 155.9Z" fill="url(#paint0_linear_3016_104571)"/>
<path d="M119.388 267.754C96.2053 267.754 75.9209 246.89 63.7502 209.799C62.0116 205.162 64.9094 199.946 69.5458 198.208C74.1822 196.469 79.3982 199.367 81.1369 204.003C90.4098 231.822 104.899 249.209 119.388 249.209C142.57 249.209 168.07 201.685 168.07 133.877C168.07 66.0693 142.57 18.5458 119.388 18.5458C104.899 18.5458 90.4098 35.9324 81.1369 64.3306C79.3982 68.967 74.1822 71.8648 69.5458 70.1261C64.9094 68.3875 62.0116 63.1715 63.7502 58.535C75.9209 21.4435 96.2053 0 119.388 0C157.059 0 186.616 58.535 186.616 133.877C186.616 209.219 157.059 267.754 119.388 267.754Z" fill="url(#paint1_linear_3016_104571)"/>
<path d="M202.263 193.571C201.683 193.571 201.104 193.571 199.945 193.571C194.729 192.412 191.831 187.776 192.99 182.56C196.467 166.332 198.786 148.366 198.786 130.4C198.786 114.752 197.626 99.1039 194.729 84.615C193.57 79.399 197.047 74.7626 202.263 73.6035C207.479 72.4444 212.115 75.9217 213.274 81.1377C216.172 96.7857 217.911 113.013 217.911 130.4C217.911 150.105 216.172 169.23 212.115 186.617C210.377 190.674 206.32 193.571 202.263 193.571Z" fill="url(#paint2_linear_3016_104571)"/>
<path d="M130.978 218.492C129.819 218.492 128.659 218.492 127.5 217.913C122.864 216.174 120.546 210.958 122.284 205.742C130.398 184.878 134.455 159.957 134.455 133.298C134.455 106.638 130.398 81.7172 122.284 60.8533C120.546 56.2168 122.864 51.0008 127.5 48.6826C132.137 46.9439 137.353 49.2622 139.671 53.8986C148.364 77.0808 153.001 104.32 153.001 132.718C153.001 161.696 148.364 188.935 139.671 211.538C137.932 216.174 134.455 218.492 130.978 218.492Z" fill="url(#paint3_linear_3016_104571)"/>
<path d="M32.4551 228.345C24.3413 228.345 19.1253 227.186 18.5458 227.186C15.648 226.606 12.7502 224.288 11.5911 221.39C10.432 218.492 11.0115 215.015 12.1707 212.697C20.864 199.946 22.6026 191.253 23.1822 187.196C8.69332 172.707 0 153.003 0 133.877C0 103.161 20.2844 75.3422 52.7395 60.8533C67.2284 54.4782 83.4559 51.0009 99.6834 51.0009C104.899 51.0009 108.956 55.0577 108.956 60.2737C108.956 65.4897 104.899 69.5466 100.263 69.5466C86.3537 69.5466 72.4444 72.4444 60.8533 77.6604C34.7733 89.2515 19.1253 110.115 19.1253 133.298C19.1253 148.946 26.08 164.594 38.8302 175.605C39.9893 176.764 41.1484 178.503 41.728 180.242C42.3075 182.56 44.0462 192.412 35.9324 209.799C45.2053 209.219 56.7964 206.901 63.1715 197.628C65.4897 194.73 68.967 192.992 72.4444 194.151C78.2399 195.31 94.4674 198.787 100.843 198.787C106.059 198.787 110.115 202.844 110.115 208.06C110.115 213.276 106.059 217.333 100.843 217.333C93.8879 217.333 81.7172 215.015 74.183 213.856C61.4328 226.026 44.0462 228.345 32.4551 228.345Z" fill="white"/>
</g>
</g>
<defs>
<linearGradient id="paint0_linear_3016_104571" x1="234.43" y1="105.424" x2="234.43" y2="155.9" gradientUnits="userSpaceOnUse">
<stop stop-color="#29B2FF"/>
<stop offset="1" stop-color="#FF0099"/>
</linearGradient>
<linearGradient id="paint1_linear_3016_104571" x1="124.928" y1="0" x2="124.928" y2="267.754" gradientUnits="userSpaceOnUse">
<stop stop-color="#29B2FF"/>
<stop offset="1" stop-color="#FF0099"/>
</linearGradient>
<linearGradient id="paint2_linear_3016_104571" x1="205.324" y1="73.3801" x2="205.324" y2="193.571" gradientUnits="userSpaceOnUse">
<stop stop-color="#29B2FF"/>
<stop offset="1" stop-color="#FF0099"/>
</linearGradient>
<linearGradient id="paint3_linear_3016_104571" x1="137.354" y1="48.1053" x2="137.354" y2="218.492" gradientUnits="userSpaceOnUse">
<stop stop-color="#29B2FF"/>
<stop offset="1" stop-color="#FF0099"/>
</linearGradient>
<clipPath id="clip0_3016_104571">
<rect width="244" height="267.762" fill="white"/>
</clipPath>
<clipPath id="clip1_3016_104571">
<rect width="243.993" height="267.754" fill="white"/>
</clipPath>
</defs>
</svg>
