<svg width="24" height="24" viewBox="0 0 24 24" fill="none" xmlns="http://www.w3.org/2000/svg">
    <path fill-rule="evenodd" clip-rule="evenodd" d="M14.329 20.0007C14.262 20.0007 14.193 19.9977 14.124 19.9907C13.244 19.9037 12.554 19.2827 12.364 18.4077L9.681 6.01567L6.918 12.3977C6.759 12.7637 6.398 13.0007 6 13.0007H3C2.447 13.0007 2 12.5527 2 12.0007C2 11.4477 2.447 11.0007 3 11.0007H5.344L7.85 5.21167C8.205 4.39567 8.987 3.92067 9.876 4.00967C10.756 4.09667 11.446 4.71767 11.636 5.59267L14.319 17.9847L17.082 11.6027C17.241 11.2367 17.601 11.0007 18 11.0007H21C21.553 11.0007 22 11.4477 22 12.0007C22 12.5527 21.553 13.0007 21 13.0007H18.656L16.15 18.7887C15.823 19.5417 15.122 20.0007 14.329 20.0007Z" fill="#757D8A"/>
</svg>
