<svg width="24" height="24" viewBox="0 0 24 24" fill="none" xmlns="http://www.w3.org/2000/svg">
<path d="M12 11C14.2 11 16 9.2 16 7C16 4.8 14.2 3 12 3C9.8 3 8 4.8 8 7C8 9.2 9.8 11 12 11ZM12 5C13.1 5 14 5.9 14 7C14 8.1 13.1 9 12 9C10.9 9 10 8.1 10 7C10 5.9 10.9 5 12 5Z" fill="#898989"/>
<path d="M14.6 13.5C13.8 13.2 12.9 13 12 13C8.1 13 5 16.1 5 20C5 20.6 5.4 21 6 21C6.6 21 7 20.6 7 20C7 17.3 9.2 15 12 15L14.6 13.5Z" fill="#898989"/>
<path d="M16.2 15.2999L18.5 16.5999V19.2999L16.2 20.5999L13.9 19.2999V16.5999L16.2 15.2999ZM16.2 13.3999L12.2 15.6999V20.2999L16.2 22.5999L20.2 20.2999V15.6999L16.2 13.3999Z" fill="#898989"/>
<path d="M16.2 15.2999L18.5 16.5999V19.2999L16.2 20.5999L13.9 19.2999V16.5999L16.2 15.2999ZM16.2 13.3999L12.2 15.6999V20.2999L16.2 22.5999L20.2 20.2999V15.6999L16.2 13.3999Z" stroke="white"/>
<path d="M16.2 19C16.7522 19 17.2 18.5523 17.2 18C17.2 17.4477 16.7522 17 16.2 17C15.6477 17 15.2 17.4477 15.2 18C15.2 18.5523 15.6477 19 16.2 19Z" fill="#898989"/>
<path d="M16.2 19C16.7522 19 17.2 18.5523 17.2 18C17.2 17.4477 16.7522 17 16.2 17C15.6477 17 15.2 17.4477 15.2 18C15.2 18.5523 15.6477 19 16.2 19Z" stroke="white"/>
</svg>
