<svg width="24" height="24" viewBox="0 0 24 24" fill="none" xmlns="http://www.w3.org/2000/svg">
    <path d="M11.5 4C7.089 4 3.5 7.589 3.5 12C3.5 16.411 7.089 20 11.5 20C13.346 20 15.043 19.365 16.397 18.312L19.793 21.707C19.988 21.902 20.244 22 20.5 22C20.756 22 21.012 21.902 21.207 21.707C21.598 21.316 21.598 20.684 21.207 20.293L17.812 16.897C18.865 15.543 19.5 13.846 19.5 12H17.5C17.5 15.309 14.809 18 11.5 18C8.191 18 5.5 15.309 5.5 12C5.5 8.691 8.191 6 11.5 6V4Z" fill="white"/>
    <path d="M16.5 3C16.5 5.20914 18.2909 7 20.5 7C18.2909 7 16.5 8.79086 16.5 11C16.5 8.79086 14.7091 7 12.5 7C14.7091 7 16.5 5.20914 16.5 3Z" fill="white"/>
    <path d="M12.5 9C12.5 10.1046 13.3954 11 14.5 11C13.3954 11 12.5 11.8954 12.5 13C12.5 11.8954 11.6046 11 10.5 11C11.6046 11 12.5 10.1046 12.5 9Z" fill="white"/>
</svg>
