<svg width="24" height="24" viewBox="0 0 24 24" fill="none" xmlns="http://www.w3.org/2000/svg">
    <path fill-rule="evenodd" clip-rule="evenodd" d="M12 5C12.5523 5 13 5.44772 13 6L13 18C13 18.5523 12.5523 19 12 19C11.4477 19 11 18.5523 11 18L11 6C11 5.44772 11.4477 5 12 5Z" fill="#898989"/>
    <path fill-rule="evenodd" clip-rule="evenodd" d="M9 9C9.55228 9 10 9.44772 10 10L10 14C10 14.5523 9.55229 15 9 15C8.44772 15 8 14.5523 8 14L8 10C8 9.44772 8.44772 9 9 9Z" fill="#898989"/>
    <path fill-rule="evenodd" clip-rule="evenodd" d="M6.10561 8.55301C6.3526 8.05903 6.95327 7.8588 7.44725 8.10579L9.44725 9.10579C9.94123 9.35278 10.1415 9.95345 9.89446 10.4474C9.64747 10.9414 9.0468 11.1416 8.55282 10.8946L6.55282 9.89465C6.05884 9.64766 5.85862 9.04698 6.10561 8.55301Z" fill="#898989"/>
    <path fill-rule="evenodd" clip-rule="evenodd" d="M9.89445 13.553C9.64746 13.059 9.04679 12.8588 8.55281 13.1058L6.55281 14.1058C6.05883 14.3528 5.85861 14.9535 6.1056 15.4474C6.35259 15.9414 6.95326 16.1416 7.44724 15.8946L9.44724 14.8946C9.94122 14.6477 10.1414 14.047 9.89445 13.553Z" fill="#898989"/>
    <path fill-rule="evenodd" clip-rule="evenodd" d="M15 9C15.5523 9 16 9.44772 16 10L16 14C16 14.5523 15.5523 15 15 15C14.4477 15 14 14.5523 14 14L14 10C14 9.44772 14.4477 9 15 9Z" fill="#898989"/>
    <path fill-rule="evenodd" clip-rule="evenodd" d="M14.1056 13.553C14.3526 13.059 14.9533 12.8588 15.4472 13.1058L17.4472 14.1058C17.9412 14.3528 18.1415 14.9535 17.8945 15.4474C17.6475 15.9414 17.0468 16.1416 16.5528 15.8946L14.5528 14.8946C14.0588 14.6477 13.8586 14.047 14.1056 13.553Z" fill="#898989"/>
    <path fill-rule="evenodd" clip-rule="evenodd" d="M17.8945 8.55301C17.6475 8.05903 17.0468 7.8588 16.5528 8.10579L14.5528 9.10579C14.0588 9.35278 13.8586 9.95345 14.1056 10.4474C14.3526 10.9414 14.9533 11.1416 15.4472 10.8946L17.4472 9.89465C17.9412 9.64766 18.1414 9.04698 17.8945 8.55301Z" fill="#898989"/>
    <path fill-rule="evenodd" clip-rule="evenodd" d="M5 9C4.448 9 4 8.552 4 8C4 7.448 4.448 7 5 7C5.552 7 6 7.448 6 8C6 8.552 5.552 9 5 9Z" fill="white"/>
    <path fill-rule="evenodd" clip-rule="evenodd" d="M6 8C6 7.44743 5.55257 7 5 7C4.44743 7 4 7.44743 4 8C4 8.55257 4.44743 9 5 9C5.55257 9 6 8.55257 6 8ZM5 11C3.34343 11 2 9.65657 2 8C2 6.34343 3.34343 5 5 5C6.65657 5 8 6.34343 8 8C8 9.65657 6.65657 11 5 11Z" fill="#898989"/>
    <path fill-rule="evenodd" clip-rule="evenodd" d="M19 9C18.448 9 18 8.552 18 8C18 7.448 18.448 7 19 7C19.552 7 20 7.448 20 8C20 8.552 19.552 9 19 9Z" fill="white"/>
    <path fill-rule="evenodd" clip-rule="evenodd" d="M20 8C20 7.44743 19.5526 7 19 7C18.4474 7 18 7.44743 18 8C18 8.55257 18.4474 9 19 9C19.5526 9 20 8.55257 20 8ZM19 11C17.3434 11 16 9.65657 16 8C16 6.34343 17.3434 5 19 5C20.6566 5 22 6.34343 22 8C22 9.65657 20.6566 11 19 11Z" fill="#898989"/>
    <path fill-rule="evenodd" clip-rule="evenodd" d="M5 17C4.448 17 4 16.552 4 16C4 15.448 4.448 15 5 15C5.552 15 6 15.448 6 16C6 16.552 5.552 17 5 17Z" fill="white"/>
    <path fill-rule="evenodd" clip-rule="evenodd" d="M6 16C6 15.4474 5.55257 15 5 15C4.44743 15 4 15.4474 4 16C4 16.5526 4.44743 17 5 17C5.55257 17 6 16.5526 6 16ZM5 19C3.34343 19 2 17.6566 2 16C2 14.3434 3.34343 13 5 13C6.65657 13 8 14.3434 8 16C8 17.6566 6.65657 19 5 19Z" fill="#898989"/>
    <path fill-rule="evenodd" clip-rule="evenodd" d="M19 17C18.448 17 18 16.552 18 16C18 15.448 18.448 15 19 15C19.552 15 20 15.448 20 16C20 16.552 19.552 17 19 17Z" fill="white"/>
    <path fill-rule="evenodd" clip-rule="evenodd" d="M20 16C20 15.4474 19.5526 15 19 15C18.4474 15 18 15.4474 18 16C18 16.5526 18.4474 17 19 17C19.5526 17 20 16.5526 20 16ZM19 19C17.3434 19 16 17.6566 16 16C16 14.3434 17.3434 13 19 13C20.6566 13 22 14.3434 22 16C22 17.6566 20.6566 19 19 19Z" fill="#898989"/>
    <path fill-rule="evenodd" clip-rule="evenodd" d="M12 5C11.448 5 11 4.552 11 4C11 3.448 11.448 3 12 3C12.552 3 13 3.448 13 4C13 4.552 12.552 5 12 5Z" fill="white"/>
    <path fill-rule="evenodd" clip-rule="evenodd" d="M13 4C13 3.44743 12.5526 3 12 3C11.4474 3 11 3.44743 11 4C11 4.55257 11.4474 5 12 5C12.5526 5 13 4.55257 13 4ZM12 7C10.3434 7 9 5.65657 9 4C9 2.34343 10.3434 1 12 1C13.6566 1 15 2.34343 15 4C15 5.65657 13.6566 7 12 7Z" fill="#898989"/>
    <path fill-rule="evenodd" clip-rule="evenodd" d="M12 21C11.448 21 11 20.552 11 20C11 19.448 11.448 19 12 19C12.552 19 13 19.448 13 20C13 20.552 12.552 21 12 21Z" fill="white"/>
    <path fill-rule="evenodd" clip-rule="evenodd" d="M13 20C13 19.4474 12.5526 19 12 19C11.4474 19 11 19.4474 11 20C11 20.5526 11.4474 21 12 21C12.5526 21 13 20.5526 13 20ZM12 23C10.3434 23 9 21.6566 9 20C9 18.3434 10.3434 17 12 17C13.6566 17 15 18.3434 15 20C15 21.6566 13.6566 23 12 23Z" fill="#898989"/>
</svg>
