<svg width="24" height="24" viewBox="0 0 24 24" fill="none" xmlns="http://www.w3.org/2000/svg">
<path fill-rule="evenodd" clip-rule="evenodd" d="M15.7479 3.01593C16.2578 2.9267 16.7573 3.21968 16.9283 3.70826L19.5377 11.1637C20.528 11.3343 21.5384 11.5446 22.5633 11.8008C23.1299 11.9425 23.4744 12.5166 23.3327 13.0832C23.1911 13.6498 22.6169 13.9943 22.0503 13.8527C16.6159 12.4941 11.5929 12.4926 7.92379 12.8335C6.09115 13.0038 4.60216 13.259 3.5762 13.4702C3.06341 13.5758 2.66684 13.6703 2.40147 13.7375C2.26881 13.7711 2.16898 13.7978 2.10388 13.8157L2.03253 13.8357L2.01683 13.8402L2.01422 13.841C1.4543 14.0063 0.86629 13.6866 0.700686 13.1267C0.535035 12.5666 0.854765 11.9783 1.41482 11.8127L1.41482 11.8127C1.41465 11.8127 1.41512 11.8143 1.45216 11.9394L1.71476 12.8267L1.41482 11.8127L1.41891 11.8115L1.42645 11.8093L1.45179 11.802C1.47322 11.7959 1.50369 11.7873 1.54295 11.7765C1.62147 11.7549 1.7352 11.7244 1.88225 11.6872C2.17631 11.6127 2.60384 11.511 3.14971 11.3986C4.24108 11.1739 5.80768 10.906 7.72811 10.7276C10.3229 10.4865 13.5743 10.4077 17.1782 10.8246L15.2285 5.25397L10.7984 6.02924C10.6204 6.06039 10.4373 6.0454 10.2667 5.9857L8.64215 5.41709L7.6399 8.62429C7.4657 9.18175 6.87257 9.49244 6.31511 9.31823C5.75766 9.14403 5.44697 8.5509 5.62117 7.99344L6.94969 3.74218C7.0352 3.46856 7.22812 3.24139 7.48427 3.11268C7.74041 2.98398 8.03783 2.96477 8.3084 3.05947L10.7053 3.89839L15.7479 3.01593ZM7.82647 19.9996C9.29391 19.9996 10.4835 18.81 10.4835 17.3426C10.4835 17.0946 10.4495 16.8545 10.386 16.6268C11.3918 16.5949 12.4808 16.6018 13.6303 16.6483C13.5706 16.8696 13.5387 17.1024 13.5387 17.3426C13.5387 18.8101 14.7283 19.9997 16.1957 19.9997C17.6632 19.9997 18.8528 18.8101 18.8528 17.3426C18.8528 15.8752 17.6632 14.6856 16.1957 14.6856C16.1869 14.6856 16.178 14.6856 16.1692 14.6857C13.032 14.4299 10.1216 14.4255 7.81642 14.6856C6.3536 14.691 5.16943 15.8785 5.16943 17.3426C5.16943 18.81 6.35903 19.9996 7.82647 19.9996Z" fill="#898989"/>
</svg>
