<svg width="24" height="24" viewBox="0 0 24 24" fill="none" xmlns="http://www.w3.org/2000/svg">
<path fill-rule="evenodd" clip-rule="evenodd" d="M1.71476 12.8267L1.41482 11.8127C0.854765 11.9783 0.535035 12.5666 0.700686 13.1267C0.86629 13.6866 1.4543 14.0063 2.01422 13.841L2.01683 13.8402L2.03253 13.8357L2.10388 13.8157C2.16898 13.7978 2.2688 13.7711 2.40147 13.7375C2.66684 13.6703 3.06341 13.5758 3.5762 13.4702C4.60216 13.259 6.09115 13.0038 7.92379 12.8335C11.5929 12.4926 16.6159 12.4941 22.0503 13.8527C22.6169 13.9943 23.1911 13.6498 23.3327 13.0832C23.4744 12.5166 23.1299 11.9425 22.5633 11.8008C16.8381 10.3695 11.5651 10.371 7.72811 10.7276C5.80768 10.906 4.24108 11.1739 3.14971 11.3986C2.60384 11.511 2.17631 11.6127 1.88225 11.6872C1.7352 11.7244 1.62147 11.7549 1.54295 11.7765C1.50369 11.7873 1.47322 11.7959 1.45179 11.802L1.42645 11.8093L1.41891 11.8115L1.41482 11.8127C1.41446 11.8128 1.41482 11.8127 1.71476 12.8267Z" fill="#898989"/>
<path d="M7.82647 19.9996C9.29392 19.9996 10.4835 18.81 10.4835 17.3426C10.4835 15.8751 9.29392 14.6855 7.82647 14.6855C6.35903 14.6855 5.16943 15.8751 5.16943 17.3426C5.16943 18.81 6.35903 19.9996 7.82647 19.9996Z" fill="#898989"/>
<path d="M16.1956 19.9996C17.6631 19.9996 18.8527 18.81 18.8527 17.3426C18.8527 15.8751 17.6631 14.6855 16.1956 14.6855C14.7282 14.6855 13.5386 15.8751 13.5386 17.3426C13.5386 18.81 14.7282 19.9996 16.1956 19.9996Z" fill="#898989"/>
<path fill-rule="evenodd" clip-rule="evenodd" d="M15.7479 3.01593C16.2578 2.9267 16.7573 3.21968 16.9283 3.70826L19.7182 11.6794C19.9111 12.2306 19.6207 12.8339 19.0694 13.0269C18.5182 13.2198 17.9149 12.9293 17.7219 12.3781L15.2285 5.25397L10.7984 6.02924C10.6204 6.06039 10.4373 6.0454 10.2667 5.9857L8.64215 5.41709L7.6399 8.62429C7.4657 9.18175 6.87257 9.49244 6.31511 9.31823C5.75766 9.14403 5.44697 8.5509 5.62117 7.99344L6.94969 3.74218C7.0352 3.46856 7.22812 3.24139 7.48427 3.11268C7.74041 2.98398 8.03783 2.96477 8.3084 3.05947L10.7053 3.89839L15.7479 3.01593Z" fill="#898989"/>
<path fill-rule="evenodd" clip-rule="evenodd" d="M16.1078 16.8028C12.9637 16.5408 10.1159 16.5444 7.94947 16.7992C7.36943 16.8675 6.8439 16.4526 6.77566 15.8725C6.70742 15.2925 7.12231 14.7669 7.70235 14.6987C10.0529 14.4222 13.0506 14.4257 16.2834 14.6951C16.8654 14.7436 17.2979 15.2548 17.2494 15.8368C17.2009 16.4188 16.6898 16.8513 16.1078 16.8028Z" fill="#898989"/>
</svg>
