<svg width="24" height="24" viewBox="0 0 24 24" fill="none" xmlns="http://www.w3.org/2000/svg">
<path fill-rule="evenodd" clip-rule="evenodd" d="M13.0001 5L13.0001 16.865L17.3601 13.232C17.7841 12.878 18.4151 12.936 18.7681 13.36C19.1221 13.785 19.0641 14.415 18.6401 14.768L12.6401 19.768C12.5931 19.807 12.5381 19.827 12.4861 19.856C12.4441 19.88 12.4081 19.909 12.3621 19.927C12.2471 19.972 12.1261 19.999 12.0041 19.999C12.0031 19.999 12.0011 20 12.0001 20C11.9991 20 11.9971 19.999 11.9961 19.999C11.8741 19.999 11.7531 19.972 11.6381 19.927C11.5921 19.909 11.5561 19.88 11.5141 19.856C11.4621 19.827 11.4071 19.807 11.3601 19.768L5.36009 14.768C5.12309 14.57 5.00009 14.286 5.00009 14C5.00009 13.774 5.07609 13.547 5.23209 13.36C5.58509 12.936 6.21609 12.878 6.64009 13.232L11.0001 16.865L11.0001 5C11.0001 4.448 11.4481 4 12.0001 4C12.5521 4 13.0001 4.448 13.0001 5Z" fill="#898989"/>
</svg>
