<svg width="24" height="24" viewBox="0 0 24 24" fill="none" xmlns="http://www.w3.org/2000/svg">
<path fill-rule="evenodd" clip-rule="evenodd" d="M5 10.9999H16.865L13.232 6.63991C12.878 6.21591 12.936 5.58491 13.36 5.23191C13.785 4.87791 14.415 4.93591 14.768 5.35991L19.768 11.3599C19.807 11.4069 19.827 11.4619 19.856 11.5139C19.88 11.5559 19.909 11.5919 19.927 11.6379C19.972 11.7529 19.999 11.8739 19.999 11.9959C19.999 11.9969 20 11.9989 20 11.9999C20 12.0009 19.999 12.0029 19.999 12.0039C19.999 12.1259 19.972 12.2469 19.927 12.3619C19.909 12.4079 19.88 12.4439 19.856 12.4859C19.827 12.5379 19.807 12.5929 19.768 12.6399L14.768 18.6399C14.57 18.8769 14.286 18.9999 14 18.9999C13.774 18.9999 13.547 18.9239 13.36 18.7679C12.936 18.4149 12.878 17.7839 13.232 17.3599L16.865 12.9999H5C4.448 12.9999 4 12.5519 4 11.9999C4 11.4479 4.448 10.9999 5 10.9999Z" fill="#898989"/>
</svg>
