<svg width="24" height="24" viewBox="0 0 24 24" fill="none" xmlns="http://www.w3.org/2000/svg">
<path fill-rule="evenodd" clip-rule="evenodd" d="M11.1817 15.0907C9.47772 15.0907 8.09072 13.7037 8.09072 11.9997C8.09072 10.2957 9.47772 8.9087 11.1817 8.9087C12.8857 8.9087 14.2727 10.2957 14.2727 11.9997C14.2727 13.7037 12.8857 15.0907 11.1817 15.0907ZM12.9547 2.0437C9.95372 1.7617 7.01872 2.8247 4.90572 4.9527C2.79172 7.0797 1.75072 10.0227 2.05072 13.0257C2.40872 16.5977 4.65972 19.7077 7.92672 21.1407C9.23372 21.7137 10.6197 21.9947 11.9957 21.9947C14.1637 21.9947 16.3087 21.2957 18.0797 19.9397C18.5187 19.6037 18.6017 18.9757 18.2657 18.5367C17.9297 18.0997 17.3027 18.0167 16.8637 18.3517C14.5457 20.1267 11.4297 20.4907 8.72972 19.3087C6.16172 18.1827 4.32272 15.6387 4.04072 12.8257C3.80072 10.4207 4.63272 8.0647 6.32472 6.3617C8.01472 4.6597 10.3667 3.8077 12.7697 4.0357C16.8247 4.4127 19.9997 8.0097 19.9997 12.2247V12.8997C19.9997 13.3677 19.8137 13.8037 19.4747 14.1277C19.1367 14.4517 18.6887 14.6177 18.2217 14.5977C17.3277 14.5587 16.5997 13.7177 16.5997 12.7237V8.3997C16.5997 7.8467 16.1527 7.3997 15.5997 7.3997C15.0907 7.3997 14.6887 7.7827 14.6247 8.2747C13.7167 7.4347 12.5127 6.9087 11.1817 6.9087C8.37472 6.9087 6.09072 9.1937 6.09072 11.9997C6.09072 14.8067 8.37472 17.0907 11.1817 17.0907C12.8817 17.0907 14.3807 16.2447 15.3057 14.9607C15.9507 15.9007 16.9737 16.5447 18.1337 16.5957C19.1467 16.6497 20.1207 16.2777 20.8577 15.5727C21.5947 14.8677 21.9997 13.9187 21.9997 12.8997V12.2247C21.9997 6.9877 18.0277 2.5167 12.9547 2.0437Z" fill="#898989"/>
</svg>
