<svg width="24" height="24" viewBox="0 0 24 24" fill="none" xmlns="http://www.w3.org/2000/svg">
<path fill-rule="evenodd" clip-rule="evenodd" d="M14.0001 18.3413C14.0001 19.2403 13.0841 20.0003 12.0001 20.0003C10.9161 20.0003 10.0001 19.2403 10.0001 18.3413V18.0003H14.0001V18.3413ZM20.5211 15.2073L18.7201 13.4043V8.93626C18.7201 5.45526 16.2181 2.49926 12.8991 2.05926C10.9781 1.80426 9.03809 2.39026 7.58309 3.66626C6.11909 4.94826 5.28009 6.79326 5.28009 8.72726L5.27909 13.4043L3.47909 15.2083C3.01009 15.6773 2.87109 16.3773 3.12509 16.9903C3.38009 17.6033 3.97309 18.0003 4.63709 18.0003H8.00009V18.3413C8.00009 20.3593 9.79409 22.0003 12.0001 22.0003C14.2061 22.0003 16.0001 20.3593 16.0001 18.3413V18.0003H19.3621C20.0261 18.0003 20.6191 17.6043 20.8731 16.9903C21.1281 16.3773 20.9891 15.6773 20.5211 15.2073Z" fill="#898989"/>
</svg>
