<svg width="24" height="24" viewBox="0 0 24 24" fill="none" xmlns="http://www.w3.org/2000/svg">
<path fill-rule="evenodd" clip-rule="evenodd" d="M5.5146 16.0001L6.6946 14.8181C7.0726 14.4401 7.2806 13.9381 7.2806 13.4041V8.72708C7.2806 7.37008 7.8706 6.07308 8.9006 5.17108C9.9386 4.26108 11.2606 3.86108 12.6376 4.04208C14.9646 4.35108 16.7196 6.45508 16.7196 8.93708V13.4041C16.7196 13.9381 16.9276 14.4401 17.3046 14.8171L18.4856 16.0001H5.5146ZM13.9996 18.3411C13.9996 19.2401 13.0836 20.0001 11.9996 20.0001C10.9156 20.0001 9.9996 19.2401 9.9996 18.3411V18.0001H13.9996V18.3411ZM20.5206 15.2081L18.7196 13.4041V8.93708C18.7196 5.45608 16.2176 2.49908 12.8996 2.06008C10.9776 1.80408 9.0376 2.39108 7.5826 3.66708C6.1186 4.94908 5.2806 6.79308 5.2806 8.72708L5.2796 13.4041L3.4786 15.2081C3.0096 15.6781 2.8706 16.3771 3.1246 16.9901C3.3796 17.6041 3.9726 18.0001 4.6366 18.0001H7.9996V18.3411C7.9996 20.3591 9.7936 22.0001 11.9996 22.0001C14.2056 22.0001 15.9996 20.3591 15.9996 18.3411V18.0001H19.3626C20.0266 18.0001 20.6186 17.6041 20.8726 16.9911C21.1276 16.3771 20.9896 15.6771 20.5206 15.2081Z" fill="#898989"/>
</svg>
