<svg width="24" height="24" viewBox="0 0 24 24" fill="none" xmlns="http://www.w3.org/2000/svg">
<path fill-rule="evenodd" clip-rule="evenodd" d="M11.8212 15.506C11.9902 15.506 12.1602 15.549 12.3132 15.635L17.0002 18.286V5.334C17.0002 5.133 16.8792 5 16.8002 5H7.20024C7.12024 5 7.00024 5.133 7.00024 5.334V18.234L11.3062 15.649C11.4652 15.554 11.6432 15.506 11.8212 15.506ZM6.00024 21C5.83024 21 5.66024 20.957 5.50724 20.87C5.19424 20.693 5.00024 20.36 5.00024 20V5.334C5.00024 4.047 5.98724 3 7.20024 3H16.8002C18.0132 3 19.0002 4.047 19.0002 5.334V20C19.0002 20.356 18.8112 20.685 18.5042 20.864C18.1962 21.044 17.8182 21.047 17.5082 20.871L11.8362 17.663L6.51424 20.858C6.35624 20.952 6.17824 21 6.00024 21Z" fill="#898989"/>
</svg>
