<svg width="24" height="24" viewBox="0 0 16 16" fill="none" xmlns="http://www.w3.org/2000/svg">
    <path fill-rule="evenodd" clip-rule="evenodd" d="M4.66667 10.6667C4.66667 10.3 4.96667 10 5.33333 10C5.7 10 6 10.3 6 10.6667C6 11.0333 5.7 11.3333 5.33333 11.3333C4.96667 11.3333 4.66667 11.0333 4.66667 10.6667ZM8 10H10.6667C11.0333 10 11.3333 10.3 11.3333 10.6667C11.3333 11.0333 11.0333 11.3333 10.6667 11.3333H8C7.63333 11.3333 7.33333 11.0333 7.33333 10.6667C7.33333 10.3 7.63333 10 8 10ZM12 13.3333H4C3.63267 13.3333 3.33333 13.034 3.33333 12.6667V8.66668H12.6667V12.6667C12.6667 13.034 12.3673 13.3333 12 13.3333ZM4 4.00001H4.66667V4.66668C4.66667 5.03334 4.96667 5.33334 5.33333 5.33334C5.7 5.33334 6 5.03334 6 4.66668V4.00001H10V4.66668C10 5.03334 10.3 5.33334 10.6667 5.33334C11.0333 5.33334 11.3333 5.03334 11.3333 4.66668V4.00001H12C12.3673 4.00001 12.6667 4.29934 12.6667 4.66668V7.33334H3.33333V4.66668C3.33333 4.29934 3.63267 4.00001 4 4.00001ZM12 2.66668H11.3333V2.00001C11.3333 1.63334 11.0333 1.33334 10.6667 1.33334C10.3 1.33334 10 1.63334 10 2.00001V2.66668H6V2.00001C6 1.63334 5.7 1.33334 5.33333 1.33334C4.96667 1.33334 4.66667 1.63334 4.66667 2.00001V2.66668H4C2.89733 2.66668 2 3.56401 2 4.66668V12.6667C2 13.7693 2.89733 14.6667 4 14.6667H12C13.1027 14.6667 14 13.7693 14 12.6667V4.66668C14 3.56401 13.1027 2.66668 12 2.66668Z" fill="#535353"/>
</svg>
