<svg width="24" height="24" viewBox="0 0 24 24" fill="none" xmlns="http://www.w3.org/2000/svg">
<path d="M5.24638 21C4.43478 21 3.91304 20.8824 3.85507 20.8824C3.56522 20.8235 3.27536 20.5882 3.15942 20.2941C3.04348 20 3.10145 19.6471 3.21739 19.4118C4.08696 18.0588 4.26087 17.1765 4.31884 16.7647C2.86957 15.2941 2 13.2941 2 11.3529C2 8.29412 4.02899 5.47059 7.27536 4C8.72464 3.35294 10.3478 3 12.029 3C17.5362 3 22.058 6.76471 22.058 11.4118C22.058 16.0588 17.5942 19.8235 12.029 19.8235C11.3333 19.8235 10.1159 19.5882 9.36232 19.4706C8.14493 20.7647 6.4058 21 5.24638 21ZM12.029 4.88235C10.6377 4.88235 9.24638 5.17647 8.08696 5.70588C5.47826 6.88235 3.91304 9 3.91304 11.3529C3.91304 12.9412 4.6087 14.5294 5.88406 15.6471C5.94203 15.8235 6.05797 15.9412 6.11594 16.1176C6.17391 16.3529 6.34783 17.3529 5.53623 19.1176C6.46377 19.0588 7.62319 18.8235 8.26087 17.8824C8.49275 17.5882 8.84058 17.4118 9.18841 17.5294C9.76812 17.6471 11.3913 18 12.029 18C16.5507 18 20.2029 15.0588 20.2029 11.4706C20.2029 7.88235 16.4928 4.88235 12.029 4.88235Z" fill="#888989"/>
<rect x="8" y="10" width="8" height="2" rx="1" fill="#898989"/>
<rect x="13" y="7" width="8" height="2" rx="1" transform="rotate(90 13 7)" fill="#898989"/>
</svg>
