<svg width="20" height="20" viewBox="0 0 20 20" fill="none" xmlns="http://www.w3.org/2000/svg">
    <path fill-rule="evenodd" clip-rule="evenodd" d="M12.7046 6.3945L8.9206 11.3635L7.2876 9.2775C6.9476 8.8415 6.3176 8.7655 5.8836 9.1065C5.4486 9.4465 5.3716 10.0755 5.7126 10.5095L8.1436 13.6165C8.3336 13.8585 8.6236 13.9995 8.9316 13.9995H8.9386C9.2476 13.9985 9.5396 13.8525 9.7266 13.6055L14.2956 7.6055C14.6306 7.1655 14.5456 6.5395 14.1056 6.2045C13.6646 5.8695 13.0386 5.9555 12.7046 6.3945ZM10 18C5.589 18 2 14.411 2 10C2 5.589 5.589 2 10 2C14.411 2 18 5.589 18 10C18 14.411 14.411 18 10 18ZM10 0C4.477 0 0 4.478 0 10C0 15.522 4.477 20 10 20C15.523 20 20 15.522 20 10C20 4.478 15.523 0 10 0Z" fill="#2FCB80"/>
</svg>
