<svg width="20" height="20" viewBox="0 0 20 20" fill="none" xmlns="http://www.w3.org/2000/svg">
    <path fill-rule="evenodd" clip-rule="evenodd"
          d="M18.997 8.974H19C19.551 8.974 19.999 9.42 20 9.971C20.008 12.642 18.975 15.157 17.091 17.051C15.208 18.945 12.7 19.992 10.029 20H10C7.33905 20 4.83605 18.968 2.94905 17.091C1.05505 15.208 0.00804612 12.7 4.61203e-05 10.029C-0.00795388 7.357 1.02505 4.843 2.90905 2.949C4.79205 1.055 7.30005 0.008 9.97105 0C10.766 0.012 11.576 0.092 12.352 0.278C12.888 0.408 13.219 0.948 13.089 1.485C12.96 2.021 12.417 2.351 11.883 2.223C11.262 2.073 10.603 2.01 9.97705 2C7.84005 2.006 5.83305 2.844 4.32705 4.359C2.82005 5.874 1.99405 7.886 2.00005 10.023C2.00605 12.16 2.84405 14.166 4.35905 15.673C5.86905 17.174 7.87105 18 10 18H10.023C12.16 17.994 14.167 17.156 15.673 15.641C17.18 14.125 18.006 12.114 18 9.977C17.999 9.425 18.445 8.975 18.997 8.974ZM6.29305 9.2929C6.68405 8.9019 7.31605 8.9019 7.70705 9.2929L9.95105 11.5369L16.248 4.3409C16.612 3.9279 17.243 3.8839 17.659 4.2479C18.074 4.6109 18.116 5.2429 17.752 5.6589L10.752 13.6589C10.57 13.8669 10.31 13.9899 10.033 13.9999H10C9.73505 13.9999 9.48105 13.8949 9.29305 13.7069L6.29305 10.7069C5.90205 10.3159 5.90205 9.6839 6.29305 9.2929Z"
          fill="#2FCB5B"/>
</svg>
