<svg width="24" height="24" viewBox="0 0 24 24" fill="none" xmlns="http://www.w3.org/2000/svg">
<path d="M17.9 19.7H7.7C4.5 19.7 2 17.2 2 14C2 11.1 4.3 8.6 7.1 8.4C8 6.4 10.1 5 12.3 5C15.3 5 17.7 7.3 17.9 10.2C20.5 10.2 22.6 12.4 22.6 15C22.6 17.6 20.5 19.7 17.9 19.7ZM7.6 10.4C5.6 10.4 4 12 4 14C4 16 5.6 17.7 7.7 17.7H17.9C19.4 17.7 20.7 16.5 20.7 14.9C20.7 13.3 19.5 12.1 17.9 12.1C17.7 12.1 17.5 12.1 17.2 12.2C16.9 12.3 16.5 12.2 16.3 12C16.1 11.8 15.9 11.4 16 11.1C16 11 16 10.8 16 10.7C16 8.7 14.4 7 12.3 7C10.7 7 9.2 8.1 8.8 9.7C8.7 10.1 8.3 10.5 7.8 10.4C7.8 10.4 7.7 10.4 7.6 10.4Z" fill="#898989"/>
</svg>
