<svg width="24" height="24" viewBox="0 0 24 24" fill="none" xmlns="http://www.w3.org/2000/svg">
<path fill-rule="evenodd" clip-rule="evenodd" d="M12 3C14.581 3 16.855 4.661 17.675 7.045C20.114 7.376 22 9.472 22 12C22 13.221 21.556 14.396 20.75 15.309C20.552 15.532 20.277 15.647 20 15.647C19.765 15.647 19.529 15.565 19.338 15.397C18.925 15.03 18.885 14.399 19.251 13.984C19.734 13.438 20 12.732 20 12C20 10.346 18.654 9 17 9H16.9C16.424 9 16.014 8.664 15.92 8.197C15.546 6.345 13.898 5 12 5C10.103 5 8.454 6.345 8.081 8.197C7.987 8.664 7.576 9 7.1 9H7C5.346 9 4 10.346 4 12C4 12.732 4.266 13.438 4.75 13.984C5.115 14.399 5.076 15.03 4.662 15.397C4.248 15.763 3.616 15.722 3.251 15.309C2.444 14.396 2 13.221 2 12C2 9.472 3.886 7.376 6.325 7.045C7.146 4.661 9.42 3 12 3ZM11.3052 11.2801C11.6992 10.9041 12.3222 10.9071 12.7072 11.2931L15.7072 14.2931C16.0982 14.6841 16.0982 15.3161 15.7072 15.7071C15.5122 15.9021 15.2562 16.0001 15.0002 16.0001C14.7442 16.0001 14.4882 15.9021 14.2932 15.7071L13.0002 14.4141V20.0001C13.0002 20.5531 12.5522 21.0001 12.0002 21.0001C11.4482 21.0001 11.0002 20.5531 11.0002 20.0001V14.3561L9.6952 15.6161C9.2982 16.0011 8.6652 15.9881 8.2812 15.5911C7.8972 15.1931 7.9082 14.5611 8.3052 14.1771L11.3052 11.2801Z" fill="#777777"/>
</svg>
