<svg width="24" height="24" viewBox="0 0 24 24" fill="none" xmlns="http://www.w3.org/2000/svg">
<path fill-rule="evenodd" clip-rule="evenodd" d="M3.29301 4.29301C3.68401 3.90201 4.31601 3.90201 4.70701 4.29301L7.73931 7.32531L9.18432 8.77031L18.1064 17.6924L19.7411 19.3271L20.707 20.293C21.098 20.684 21.098 21.316 20.707 21.707C20.512 21.902 20.256 22 20 22C19.744 22 19.488 21.902 19.293 21.707L17.286 19.7L15.286 17.7L8.00018 10.4142L6.14614 8.56014L3.29301 5.70701C2.90201 5.31601 2.90201 4.68401 3.29301 4.29301ZM2 14C2 11.8246 3.29421 9.8743 5.12285 8.95107L6.68684 10.5151C5.13442 10.9155 4 12.3159 4 14C4 16 5.6 17.7 7.7 17.7H13.8718L15.8718 19.7H7.7C4.5 19.7 2 17.2 2 14ZM20.7 14.9C20.7 16.0036 20.0815 16.9169 19.2056 17.3773L20.6457 18.8175C21.8302 17.965 22.6 16.5742 22.6 15C22.6 12.4 20.5 10.2 17.9 10.2C17.7 7.3 15.3 5 12.3 5C10.8567 5 9.45652 5.60252 8.4099 6.58169L9.81681 7.98859C10.4819 7.36827 11.3742 7 12.3 7C14.4 7 16 8.7 16 10.7V11.1C15.9 11.4 16.1 11.8 16.3 12C16.5 12.2 16.9 12.3 17.2 12.2C17.5 12.1 17.7 12.1 17.9 12.1C19.5 12.1 20.7 13.3 20.7 14.9Z" fill="#898989"/>
</svg>
