<svg width="24" height="24" viewBox="0 0 24 24" fill="none" xmlns="http://www.w3.org/2000/svg">
    <path d="M18 9H15V5.7C15 4.2 13.8 3 12.3 3H5.7C4.2 3 3 4.2 3 5.7V12.4C3 13.8 4.2 15 5.7 15H9V18C9 19.7 10.3 21 12 21H18C19.7 21 21 19.7 21 18V12C21 10.3 19.7 9 18 9ZM9 12V13H5.7C5.3 13 5 12.7 5 12.3V5.7C5 5.3 5.3 5 5.7 5H12.4C12.7 5 13 5.3 13 5.7V9H12C10.3 9 9 10.3 9 12ZM19 18C19 18.6 18.6 19 18 19H12C11.4 19 11 18.6 11 18V12C11 11.4 11.4 11 12 11H18C18.6 11 19 11.4 19 12V18Z" fill="#898989"/>
</svg>
