<svg width="24" height="24" viewBox="0 0 24 24" fill="none" xmlns="http://www.w3.org/2000/svg">
    <path fill-rule="evenodd" clip-rule="evenodd" d="M12 3C10.3509 3.01757 8.75969 3.37174 7.33459 4.008C4.05993 5.4914 2 8.34657 2 11.4523C2 13.4065 2.8677 15.4145 4.31274 16.8986C4.24951 17.3169 4.06044 18.1688 3.23272 19.4567L3.22769 19.4669C3.10287 19.7202 3.03747 20.1031 3.16639 20.4301C3.29484 20.756 3.61238 21.0142 3.93518 21.0797L3.94503 21.0817H3.95507C3.95439 21.0817 3.95473 21.0817 3.95658 21.0819C3.95986 21.0823 3.96791 21.0833 3.98335 21.0856L4.03574 21.0938L4.06717 21.0988C4.13746 21.1099 4.23473 21.1248 4.35591 21.1397C4.59826 21.1695 4.93574 21.1993 5.34638 21.1993C6.50307 21.1993 8.25442 20.9677 9.49857 19.6768C9.64318 19.6998 9.80574 19.727 9.97799 19.7558L9.97819 19.7558L9.97865 19.7559C10.2406 19.7998 10.5248 19.8473 10.8024 19.8894C11.2879 19.9629 11.7728 20.0228 12.129 20.0228C17.1291 20.0228 21.2709 17.002 22.1049 12.9993H20.0008C19.1848 15.8402 15.9911 17.9993 12.129 17.9993C11.8209 17.9993 11.2649 17.9131 10.7051 17.8098C10.2773 17.7309 9.85424 17.6434 9.54909 17.5803L9.54903 17.5803C9.45974 17.5618 9.38054 17.5454 9.31428 17.5319C8.91358 17.3999 8.52759 17.6083 8.28214 17.9196L8.27808 17.9256C7.70489 18.7716 6.68416 19.0285 5.79629 19.1048C6.53788 17.4154 6.37506 16.4436 6.31332 16.193L6.31095 16.1857C6.27855 16.0871 6.23038 16.0057 6.18795 15.9339L6.18608 15.9308C6.142 15.8562 6.10416 15.7916 6.07906 15.7152L6.07053 15.6892L6.04997 15.6712C4.79627 14.5725 4.11304 13.0117 4.11304 11.4523C4.11304 9.14813 5.6461 7.06077 8.22849 5.89616C9.33821 5.38945 10.6653 5.10008 12 5.08252V3Z" fill="#898989"/>
    <path fill-rule="evenodd" clip-rule="evenodd" d="M15.4079 11.8205C15.2082 12.3354 14.6289 12.591 14.114 12.3913C13.5991 12.1917 13.3435 11.6124 13.5432 11.0975L13.8501 10.3057H13C12.4477 10.3057 12 9.85799 12 9.30571C12 8.75343 12.4477 8.30571 13 8.30571H14.6256L15.0134 7.30547H14C13.4477 7.30547 13 6.85775 13 6.30547C13 5.75318 13.4477 5.30547 14 5.30547H15.7889L16.4352 3.63852C16.6349 3.12358 17.2142 2.868 17.7291 3.06766C18.244 3.26731 18.4996 3.8466 18.3 4.36153L17.934 5.30547H19.0061L19.5934 3.79061C19.7931 3.27568 20.3724 3.0201 20.8873 3.21976C21.4022 3.41941 21.6578 3.9987 21.4582 4.51363L21.1511 5.30547H22C22.5523 5.30547 23 5.75318 23 6.30547C23 6.85775 22.5523 7.30547 22 7.30547H20.3757L19.9879 8.30571H21C21.5523 8.30571 22 8.75343 22 9.30571C22 9.85799 21.5523 10.3057 21 10.3057H19.2124L18.5661 11.9726C18.3664 12.4875 17.7871 12.7431 17.2722 12.5434C16.7573 12.3438 16.5017 11.7645 16.7014 11.2496L17.0673 10.3057H15.9952L15.4079 11.8205ZM16.7707 8.30571H17.8428L18.2306 7.30547H17.1585L16.7707 8.30571Z" fill="#898989"/>
</svg>
