<svg width="24" height="24" viewBox="0 0 24 24" fill="none" xmlns="http://www.w3.org/2000/svg">
<path fill-rule="evenodd" clip-rule="evenodd" d="M4.15266 6.98087C2.80599 8.7545 2 10.9877 2 13.4V18C2 20.2 3.8 22 6 22C6.7 22 7.3 21.8 7.8 21.5C7.85 21.5 7.875 21.475 7.9 21.45C7.925 21.425 7.95 21.4 8 21.4C8.3 21.2 8.5 20.9 8.5 20.5V15.3C8.5 14.9 8.3 14.6 8 14.5C7.95 14.5 7.925 14.475 7.9 14.45C7.875 14.425 7.85 14.4 7.8 14.4C7.3 14.2 6.6 14 6 14C5.3 14 4.6 14.2 4 14.6V13.4C4 11.5395 4.58889 9.80991 5.58143 8.40964L4.15266 6.98087ZM15.5 18.3282V20.5C15.5 20.9 15.7 21.2 16 21.4C16.05 21.4 16.075 21.425 16.1 21.45C16.125 21.475 16.15 21.5 16.2 21.5C16.7 21.8 17.4 22 18 22C18.4088 22 18.8038 21.9379 19.176 21.8225C18.9619 21.7258 18.7613 21.5895 18.5859 21.4141L15.5 18.3282ZM21.8227 19.1754C21.9379 18.8033 22 18.4086 22 18V13.4C22 7.7 17.5 3 12 3C10.2423 3 8.58672 3.48003 7.14752 4.31931L8.62191 5.79369C9.64955 5.28512 10.7948 5 12 5C16.4 5 20 8.8 20 13.4V14.6C19.4 14.3 18.7 14 18 14C17.6719 14 17.3138 14.0598 16.975 14.1467L18.9951 16.1669C19.301 16.3437 19.5563 16.599 19.7331 16.9049L21.4141 18.5859C21.5898 18.7616 21.726 18.9618 21.8227 19.1754ZM17.6 16.186L15.9494 14.5354C15.6777 14.7344 15.5 15.0172 15.5 15.3V16.914L17.6 19.014V16.186ZM18.5122 19.9262C19.177 19.7313 19.7084 19.1713 19.9112 18.4972L20.707 19.293C21.098 19.684 21.098 20.316 20.707 20.707C20.512 20.902 20.256 21 20 21C19.744 21 19.488 20.902 19.293 20.707L18.5122 19.9262ZM7.72659 6.31259C7.17168 6.68443 6.66265 7.12595 6.21091 7.62491L4.79735 6.21135C5.25232 5.71851 5.75313 5.27162 6.29244 4.87844L7.72659 6.31259ZM6.4 16.1C6.3 16 6.2 16 6 16C4.9 16 4 16.9 4 18C4 19.1 4.9 20 6 20H6.4V16.1Z" fill="#898989"/>
<path fill-rule="evenodd" clip-rule="evenodd" d="M20.707 19.293L4.70701 3.29301C4.31601 2.90201 3.68401 2.90201 3.29301 3.29301C2.90201 3.68401 2.90201 4.31601 3.29301 4.70701L19.293 20.707C19.488 20.902 19.744 21 20 21C20.256 21 20.512 20.902 20.707 20.707C21.098 20.316 21.098 19.684 20.707 19.293Z" fill="#FF7070"/>
</svg>
