<svg width="24" height="24" viewBox="0 0 24 24" fill="none" xmlns="http://www.w3.org/2000/svg">
    <path d="M7 9.4C7 8.6272 7.6272 8 8.4 8C9.1728 8 9.8 8.6272 9.8 9.4C9.8 10.1728 9.1728 10.8 8.4 10.8C7.6272 10.8 7 10.1728 7 9.4Z" fill="#A0A0A0"/>
    <path d="M14.3333 9.4C14.3333 8.6272 14.9605 8 15.7333 8C16.5061 8 17.1333 8.6272 17.1333 9.4C17.1333 10.1728 16.5061 10.8 15.7333 10.8C14.9605 10.8 14.3333 10.1728 14.3333 9.4Z" fill="#A0A0A0"/>
    <path d="M16.1859 13.1999H7.80019V13.2027C7.46339 13.2315 7.20019 13.4797 7.20019 13.7817C7.20019 16.1114 9.3607 17.9999 12.0258 17.9999C14.6909 17.9999 16.8515 16.1114 16.8515 13.7817C16.8515 13.4646 16.5612 13.2067 16.2002 13.2L16.1859 13.1999Z" fill="#A0A0A0"/>
    <path fill-rule="evenodd" clip-rule="evenodd" d="M12 2C6.477 2 2 6.477 2 12C2 17.523 6.477 22 12 22C17.522 22 22 17.523 22 12C22 6.477 17.522 2 12 2ZM12 20C7.589 20 4 16.411 4 12C4 7.589 7.589 4 12 4C16.411 4 20 7.589 20 12C20 16.411 16.411 20 12 20Z" fill="#A0A0A0"/>
</svg>
