<svg width="24" height="24" viewBox="0 0 24 24" fill="none" xmlns="http://www.w3.org/2000/svg">
    <path d="M3.42255 6.85631C2.51938 8.35918 2 10.1189 2 12C2 17.5228 6.47715 22 12 22C17.5228 22 22 17.5228 22 12C22 6.47715 17.5228 2 12 2C10.4354 2 8.95464 2.35934 7.63587 3C8.25725 4.9042 10.8 8.34135 16 6.85631" stroke="#898989" stroke-width="2" stroke-linecap="round" stroke-linejoin="round"/>
    <path d="M5 11C5.97222 10.2454 7.91667 9.18907 10 11" stroke="#898989" stroke-width="2" stroke-linecap="round"/>
    <path d="M14 11C14.9722 10.2453 16.9167 9.18894 19 11" stroke="#898989" stroke-width="2" stroke-linecap="round"/>
    <path d="M8 17.5C7 16.5 6.7602 16.2357 6 15.0003L9 15.0003L18 15.0003C17.046 17.5441 14.0695 19.4816 11 18.8827" stroke="#898989" stroke-width="2" stroke-linecap="round" stroke-linejoin="round"/>
</svg>
