<svg width="24" height="24" viewBox="0 0 24 24" fill="none" xmlns="http://www.w3.org/2000/svg">
<path fill-rule="evenodd" clip-rule="evenodd" d="M5.04191 7.87013C3.51904 9.25902 2.54748 10.7795 2.13275 11.5026C1.95575 11.8106 1.95575 12.1896 2.13275 12.4976C2.76175 13.5946 6.16175 18.9996 12.0247 18.9996C12.1067 18.9996 12.1888 18.9986 12.2708 18.9966C13.4555 18.9664 14.534 18.7189 15.5059 18.3341L13.9245 16.7527C13.3884 16.8952 12.82 16.9823 12.2197 16.9976C7.91375 17.0976 5.10475 13.4146 4.17275 11.9956C4.62928 11.2815 5.39428 10.2345 6.45506 9.28327L5.04191 7.87013ZM8.55454 11.3828C8.51874 11.5832 8.50005 11.7895 8.50005 12C8.50005 13.93 10.0701 15.5 12 15.5C12.2106 15.5 12.4169 15.4813 12.6173 15.4455L8.55454 11.3828ZM14.9755 16.3895L16.4752 17.8892C17.0988 17.5626 17.671 17.1831 18.1914 16.7774L16.7666 15.3526C16.2284 15.7506 15.631 16.1092 14.9755 16.3895ZM15.0784 13.6644C14.7543 14.2615 14.2615 14.7543 13.6644 15.0784L12.0837 13.4977C12.8442 13.4557 13.4557 12.8443 13.4977 12.0837L15.0784 13.6644ZM17.5451 14.7169L18.9581 16.1299C20.4812 14.7411 21.453 13.2208 21.8678 12.4976C22.0438 12.1896 22.0438 11.8106 21.8678 11.5026C21.2297 10.3906 17.7057 4.81662 11.7297 5.00362C10.5447 5.03363 9.46601 5.281 8.49404 5.66583L10.0757 7.24751C10.6119 7.10506 11.1804 7.01794 11.7807 7.00262C16.0697 6.89362 18.8948 10.5856 19.8267 12.0046C19.3707 12.7188 18.6058 13.7657 17.5451 14.7169ZM11.3827 8.55452C11.5832 8.51871 11.7895 8.50002 12 8.50002C13.93 8.50002 15.5 10.07 15.5 12C15.5 12.2106 15.4814 12.4169 15.4455 12.6173L11.3827 8.55452ZM10.3357 8.92165C9.73855 9.24577 9.24577 9.73856 8.92166 10.3357L10.5024 11.9164C10.5444 11.1558 11.1558 10.5444 11.9163 10.5023L10.3357 8.92165ZM9.02471 7.61071C8.36914 7.89096 7.77169 8.24958 7.23353 8.64753L5.80856 7.22256C6.32894 6.81681 6.90104 6.43727 7.5247 6.1107L9.02471 7.61071Z" fill="#898989"/>
<path fill-rule="evenodd" clip-rule="evenodd" d="M20.7073 19.2932L4.70725 3.29325C4.31625 2.90225 3.68425 2.90225 3.29325 3.29325C2.90225 3.68425 2.90225 4.31625 3.29325 4.70725L19.2932 20.7073C19.4882 20.9023 19.7442 21.0002 20.0002 21.0002C20.2563 21.0002 20.5123 20.9023 20.7073 20.7073C21.0983 20.3162 21.0983 19.6842 20.7073 19.2932Z" fill="#898989"/>
</svg>
