<svg width="24" height="24" viewBox="0 0 24 24" fill="none" xmlns="http://www.w3.org/2000/svg">
<path fill-rule="evenodd" clip-rule="evenodd" d="M17.4442 20H6.55524C6.24924 20 6.00024 19.776 6.00024 19.5V4.5C6.00024 4.224 6.24924 4 6.55524 4H11.0002V8.15C11.0002 9.722 12.2172 11 13.7142 11H18.0002V19.5C18.0002 19.776 17.7502 20 17.4442 20ZM17.6492 9H13.7142C13.3202 9 13.0002 8.619 13.0002 8.15V4H13.1122L17.6492 9ZM19.7402 8.328L14.2962 2.328C14.1072 2.119 13.8382 2 13.5552 2H6.55524C5.14624 2 4.00024 3.122 4.00024 4.5V19.5C4.00024 20.878 5.14624 22 6.55524 22H17.4442C18.8532 22 20.0002 20.878 20.0002 19.5V9C20.0002 8.751 19.9072 8.512 19.7402 8.328Z" fill="#757D8A"/>
</svg>
