<svg width="24" height="24" viewBox="0 0 24 24" fill="none" xmlns="http://www.w3.org/2000/svg">
<path fill-rule="evenodd" clip-rule="evenodd" d="M4 13.7555V18.0685C4 18.3065 4.224 18.5005 4.5 18.5005H19.5C19.776 18.5005 20 18.3065 20 18.0685V9.47849C20 9.23949 19.776 9.04649 19.5 9.04649H12C11.7 9.04649 11.416 8.91149 11.226 8.67849L8.626 5.50049H4.5C4.224 5.50049 4 5.69349 4 5.93149V13.7555ZM19.5 20.5005H4.5C3.122 20.5005 2 19.4095 2 18.0685V5.93149C2 4.59049 3.122 3.50049 4.5 3.50049H9.101C9.4 3.50049 9.685 3.63449 9.875 3.86749L12.474 7.04649H19.5C20.878 7.04649 22 8.13649 22 9.47849V18.0685C22 19.4095 20.878 20.5005 19.5 20.5005Z" fill="#898989"/>
</svg>
