<svg width="16" height="16" viewBox="0 0 16 16" fill="none" xmlns="http://www.w3.org/2000/svg">
    <path fill-rule="evenodd" clip-rule="evenodd" d="M11.2593 12.2107C11.1446 11.922 10.9819 11.67 10.8393 11.4547C10.7673 11.3467 10.6933 11.2367 10.6286 11.1234C10.3693 10.6727 10.4586 10.49 10.8793 9.78536L10.9473 9.67003C11.2879 9.09603 11.3066 8.54536 11.3239 8.06003C11.3319 7.82136 11.3399 7.5967 11.3859 7.38536C11.4933 6.89736 12.5246 6.76736 13.1639 6.6907C13.2713 7.11003 13.3333 7.5467 13.3333 7.9987C13.3333 9.71136 12.5186 11.234 11.2593 12.2107ZM3.30792 10.5314C3.73192 10.6394 4.19125 10.714 4.65859 10.714C5.37859 10.714 6.11392 10.538 6.74992 10.04C7.89392 9.14536 7.89392 8.00136 7.89392 7.08136C7.89392 6.4867 7.89392 5.97403 8.14192 5.5187C8.27525 5.2747 8.55925 5.10536 8.88792 4.9087C9.08925 4.78803 9.29792 4.66403 9.49792 4.5067C9.92658 4.17136 10.2453 3.74003 10.4426 3.2627C11.3759 3.74603 12.1493 4.4947 12.6599 5.41136C11.7079 5.54336 10.3566 5.85536 10.0839 7.10003C10.0119 7.42936 10.0006 7.73936 9.99192 8.01336C9.97792 8.40203 9.96725 8.70936 9.80058 8.9907L9.73392 9.1027C9.30258 9.8247 8.81458 10.6434 9.47258 11.788C9.55192 11.9267 9.64058 12.06 9.72792 12.1927C9.95725 12.5367 10.0699 12.7267 10.0706 12.9134C9.43392 13.1827 8.73392 13.332 7.99992 13.332C5.97525 13.332 4.21125 12.1974 3.30792 10.5314ZM7.99992 2.66536C8.41058 2.66536 8.80725 2.71603 9.19125 2.80403C9.07858 3.05203 8.90458 3.27803 8.67525 3.45736C8.52992 3.57203 8.36658 3.66736 8.20458 3.76403C7.77058 4.0227 7.27925 4.31603 6.97125 4.88003C6.56058 5.63336 6.56059 6.4027 6.56059 7.08136C6.56059 7.9847 6.53125 8.5187 5.92859 8.99003C5.01592 9.70536 3.61925 9.30603 2.75525 8.9427C2.70059 8.63536 2.66659 8.3207 2.66659 7.9987C2.66659 5.05803 5.05925 2.66536 7.99992 2.66536ZM7.99992 1.33203C4.32392 1.33203 1.33325 4.3227 1.33325 7.9987C1.33325 11.674 4.32392 14.6654 7.99992 14.6654C11.6759 14.6654 14.6666 11.674 14.6666 7.9987C14.6666 4.3227 11.6759 1.33203 7.99992 1.33203Z" fill="#777777"/>
</svg>
