<svg width="25" height="25" viewBox="0 0 25 25" fill="none" xmlns="http://www.w3.org/2000/svg">
<path fill-rule="evenodd" clip-rule="evenodd" d="M15 7.5C15 6.397 14.103 5.5 13 5.5C11.897 5.5 11 6.397 11 7.5C11 8.603 11.897 9.5 13 9.5C14.103 9.5 15 8.603 15 7.5ZM17 7.5C17 9.706 15.206 11.5 13 11.5C10.794 11.5 9 9.706 9 7.5C9 5.294 10.794 3.5 13 3.5C15.206 3.5 17 5.294 17 7.5ZM6 20.5C6 16.64 9.141 13.5 13 13.5C16.859 13.5 20 16.64 20 20.5C20 21.052 19.553 21.5 19 21.5C18.447 21.5 18 21.052 18 20.5C18 17.743 15.757 15.5 13 15.5C10.243 15.5 8 17.743 8 20.5C8 21.052 7.553 21.5 7 21.5C6.447 21.5 6 21.052 6 20.5Z" fill="#898989"/>
<mask id="path-2-outside-1_7770_283699" maskUnits="userSpaceOnUse" x="-1.74846e-07" y="9.5" width="14" height="13" fill="black">
<rect fill="white" x="-1.74846e-07" y="9.5" width="14" height="13"/>
<path fill-rule="evenodd" clip-rule="evenodd" d="M2.001 16.4944C2.001 16.4964 2 16.4974 2 16.4994C2 16.5324 2.016 16.5594 2.019 16.5914C2.027 16.6874 2.039 16.7834 2.076 16.8734C2.103 16.9414 2.149 16.9954 2.19 17.0554C2.221 17.0994 2.238 17.1504 2.276 17.1904L5.139 20.1904C5.521 20.5904 6.153 20.6044 6.553 20.2234C6.952 19.8424 6.967 19.2094 6.586 18.8094L5.336 17.4994L11 17.4994C11.552 17.4994 12 17.0524 12 16.4994C12 15.9474 11.552 15.4994 11 15.4994L5.414 15.4994L6.707 14.2064C7.098 13.8164 7.098 13.1834 6.707 12.7924C6.512 12.5974 6.256 12.4994 6 12.4994C5.744 12.4994 5.488 12.5974 5.293 12.7924L2.293 15.7924C2.202 15.8834 2.128 15.9934 2.078 16.1144C2.027 16.2354 2.002 16.3644 2.001 16.4944Z"/>
</mask>
<path fill-rule="evenodd" clip-rule="evenodd" d="M2.001 16.4944C2.001 16.4964 2 16.4974 2 16.4994C2 16.5324 2.016 16.5594 2.019 16.5914C2.027 16.6874 2.039 16.7834 2.076 16.8734C2.103 16.9414 2.149 16.9954 2.19 17.0554C2.221 17.0994 2.238 17.1504 2.276 17.1904L5.139 20.1904C5.521 20.5904 6.153 20.6044 6.553 20.2234C6.952 19.8424 6.967 19.2094 6.586 18.8094L5.336 17.4994L11 17.4994C11.552 17.4994 12 17.0524 12 16.4994C12 15.9474 11.552 15.4994 11 15.4994L5.414 15.4994L6.707 14.2064C7.098 13.8164 7.098 13.1834 6.707 12.7924C6.512 12.5974 6.256 12.4994 6 12.4994C5.744 12.4994 5.488 12.5974 5.293 12.7924L2.293 15.7924C2.202 15.8834 2.128 15.9934 2.078 16.1144C2.027 16.2354 2.002 16.3644 2.001 16.4944Z" fill="#898989"/>
<path d="M2.019 16.5914L4.01209 16.4253L4.01123 16.415L4.01027 16.4047L2.019 16.5914ZM2.076 16.8734L3.93483 16.1353L3.93038 16.1241L3.92578 16.1129L2.076 16.8734ZM2.19 17.0554L0.538711 18.1837L0.546788 18.1956L0.555035 18.2073L2.19 17.0554ZM2.276 17.1904L0.825998 18.5679L0.829136 18.5711L2.276 17.1904ZM5.139 20.1904L3.69214 21.5712L3.69262 21.5717L5.139 20.1904ZM6.553 20.2234L7.9324 21.6716L7.93421 21.6698L6.553 20.2234ZM6.586 18.8094L8.03419 17.43L8.03296 17.4287L6.586 18.8094ZM5.336 17.4994L5.336 15.4994L0.66319 15.4994L3.88904 18.88L5.336 17.4994ZM5.414 15.4994L3.99979 14.0851L0.585574 17.4994L5.414 17.4994L5.414 15.4994ZM6.707 14.2064L5.2946 12.7903L5.29279 12.7921L6.707 14.2064ZM2.078 16.1144L3.92103 16.8912L3.92641 16.8782L2.078 16.1144ZM0.00100075 16.4944C0.00100076 16.4527 0.0023073 16.4114 0.00485552 16.3704C0.00740278 16.3295 0.0111469 16.2897 0.0158829 16.2512C0.0254129 16.1736 0.0385145 16.1047 0.0520996 16.0458C0.0654654 15.9879 0.0790133 15.9411 0.088345 15.9107C0.0929922 15.8955 0.0969395 15.8833 0.0993904 15.8757C0.100636 15.8719 0.101652 15.8689 0.102265 15.867C0.102823 15.8653 0.103301 15.8639 0.103203 15.8642C0.103203 15.8642 0.103193 15.8642 0.103182 15.8643C0.103171 15.8643 0.103152 15.8643 0.10313 15.8644C0.103087 15.8645 0.103017 15.8648 0.102933 15.865C0.102767 15.8655 0.102499 15.8663 0.102171 15.8673C0.101527 15.8692 0.10048 15.8724 0.0992045 15.8763C0.0966915 15.884 0.0926842 15.8964 0.0879778 15.9118C0.0785278 15.9427 0.0648712 15.9898 0.051412 16.0481C0.0377335 16.1074 0.0245537 16.1768 0.0149683 16.2548C0.0102047 16.2935 0.00643957 16.3335 0.00387705 16.3747C0.00131452 16.4159 3.53412e-07 16.4574 3.49747e-07 16.4994L4 16.4994C4 16.541 3.99869 16.5824 3.99615 16.6233C3.9936 16.6642 3.98985 16.704 3.98512 16.7425C3.97559 16.8201 3.96249 16.8891 3.9489 16.9479C3.93554 17.0058 3.92199 17.0526 3.91266 17.0831C3.90801 17.0982 3.90406 17.1105 3.90161 17.118C3.90037 17.1218 3.89935 17.1249 3.89874 17.1267C3.89818 17.1284 3.8977 17.1298 3.8978 17.1295C3.8978 17.1295 3.89781 17.1295 3.89782 17.1295C3.89783 17.1294 3.89785 17.1294 3.89787 17.1293C3.89791 17.1292 3.89798 17.129 3.89807 17.1287C3.89823 17.1282 3.8985 17.1274 3.89883 17.1264C3.89947 17.1245 3.90052 17.1213 3.9018 17.1174C3.90431 17.1097 3.90832 17.0973 3.91302 17.0819C3.92247 17.0511 3.93613 17.0039 3.94959 16.9456C3.96327 16.8863 3.97645 16.817 3.98603 16.7389C3.9908 16.7002 3.99456 16.6602 3.99712 16.619C3.99969 16.5779 4.001 16.5363 4.001 16.4944L0.00100075 16.4944ZM3.49747e-07 16.4994C3.34769e-07 16.6707 0.0209812 16.8142 0.042003 16.9185C0.0616744 17.016 0.084596 17.0929 0.0896457 17.1101C0.0904973 17.113 0.0912316 17.1154 0.0917218 17.1171C0.0919688 17.1179 0.0921929 17.1187 0.0923484 17.1192C0.0925363 17.1198 0.092603 17.1201 0.0926984 17.1204C0.0931151 17.1218 0.0923846 17.1193 0.0913442 17.1158C0.0893167 17.1088 0.0834783 17.0886 0.0766242 17.0617C0.0628789 17.0077 0.0398486 16.9073 0.0277322 16.778L4.01027 16.4047C3.99665 16.2594 3.9705 16.1436 3.95291 16.0746C3.94413 16.0401 3.93619 16.0124 3.932 15.998C3.92987 15.9907 3.92804 15.9845 3.92735 15.9822C3.92624 15.9785 3.92674 15.9802 3.92711 15.9814C3.92801 15.9845 3.93305 16.0016 3.93913 16.0247C3.94543 16.0485 3.95427 16.0841 3.96309 16.1279C3.98102 16.2168 4 16.3445 4 16.4994L3.49747e-07 16.4994ZM0.0259088 16.7574C0.0361074 16.8798 0.0642131 17.2398 0.226218 17.6338L3.92578 16.1129C3.97333 16.2286 3.99456 16.3231 4.00411 16.3755C4.01293 16.4238 4.01427 16.4515 4.01209 16.4253L0.0259088 16.7574ZM0.217168 17.6114C0.306469 17.8363 0.41329 18.0026 0.472329 18.0897C0.500976 18.1319 0.527864 18.169 0.536409 18.1809C0.5502 18.2 0.545336 18.1934 0.538711 18.1837L3.84129 15.927C3.81416 15.8873 3.78818 15.8515 3.78097 15.8415C3.76851 15.8242 3.77452 15.8323 3.78317 15.845C3.80221 15.8731 3.87253 15.9784 3.93483 16.1353L0.217168 17.6114ZM0.555035 18.2073C0.509197 18.1422 0.479446 18.0902 0.469655 18.0728C0.464692 18.064 0.461543 18.0582 0.464062 18.0628C0.464466 18.0635 0.472855 18.079 0.480734 18.0933C0.510146 18.1464 0.623865 18.3551 0.826001 18.5679L3.726 15.8129C3.81164 15.903 3.87287 15.9862 3.91319 16.0465C3.95153 16.1038 3.97616 16.1485 3.98002 16.1555C3.98146 16.1581 3.98352 16.1619 3.97757 16.1509C3.97373 16.1439 3.9642 16.1264 3.95269 16.106C3.9298 16.0654 3.8863 15.9905 3.82496 15.9035L0.555035 18.2073ZM0.829136 18.5711L3.69214 21.5712L6.58586 18.8096L3.72286 15.8096L0.829136 18.5711ZM3.69262 21.5717C4.8386 22.7716 6.73524 22.8118 7.9324 21.6715L5.1736 18.7752C5.57076 18.3969 6.2034 18.4091 6.58538 18.8091L3.69262 21.5717ZM7.93421 21.6698C9.13205 20.526 9.17568 18.6284 8.03419 17.43L5.13781 20.1888C4.75832 19.7903 4.77195 19.1587 5.17179 18.7769L7.93421 21.6698ZM8.03296 17.4287L6.78296 16.1187L3.88904 18.88L5.13904 20.19L8.03296 17.4287ZM5.336 19.4994L11 19.4994L11 15.4994L5.336 15.4994L5.336 19.4994ZM11 19.4994C12.6553 19.4994 14 18.1582 14 16.4994L10 16.4994C10 15.9465 10.4487 15.4994 11 15.4994L11 19.4994ZM14 16.4994C14 14.8428 12.6566 13.4994 11 13.4994L11 17.4994C10.4474 17.4994 10 17.0519 10 16.4994L14 16.4994ZM11 13.4994L5.414 13.4994L5.414 17.4994L11 17.4994L11 13.4994ZM6.82821 16.9136L8.12121 15.6206L5.29279 12.7921L3.99979 14.0851L6.82821 16.9136ZM8.1194 15.6224C9.29487 14.4499 9.29226 12.5492 8.12121 11.3781L5.29279 14.2066C4.90374 13.8175 4.90113 13.1828 5.2946 12.7903L8.1194 15.6224ZM8.12121 11.3781C7.53695 10.7939 6.76602 10.4994 6 10.4994L6 14.4994C5.74598 14.4994 5.48705 14.4008 5.29279 14.2066L8.12121 11.3781ZM6 10.4994C5.23398 10.4994 4.46305 10.7939 3.87879 11.3781L6.70721 14.2066C6.51295 14.4008 6.25402 14.4994 6 14.4994L6 10.4994ZM3.87879 11.3781L0.878788 14.3781L3.70721 17.2066L6.70721 14.2066L3.87879 11.3781ZM0.878788 14.3781C0.603552 14.6534 0.38113 14.9838 0.229595 15.3506L3.92641 16.8782C3.87487 17.0029 3.80045 17.1133 3.70721 17.2066L0.878788 14.3781ZM0.235016 15.3376C0.076651 15.7133 0.00395527 16.1026 0.00105988 16.479L4.00094 16.5097C4.00005 16.6262 3.97735 16.7574 3.92098 16.8912L0.235016 15.3376Z" fill="white" mask="url(#path-2-outside-1_7770_283699)"/>
</svg>
