<svg width="24" height="24" viewBox="0 0 24 24" fill="none" xmlns="http://www.w3.org/2000/svg">
<path fill-rule="evenodd" clip-rule="evenodd" d="M14 7C14 5.897 13.103 5 12 5C10.897 5 9.99999 5.897 9.99999 7C9.99999 8.103 10.897 9 12 9C13.103 9 14 8.103 14 7ZM16 7C16 9.206 14.206 11 12 11C9.79399 11 7.99999 9.206 7.99999 7C7.99999 4.794 9.79399 3 12 3C14.206 3 16 4.794 16 7ZM9.99901 15H7.10593H4.414L5.707 13.707C6.098 13.317 6.098 12.684 5.707 12.293C5.512 12.098 5.256 12 5 12C4.744 12 4.488 12.098 4.293 12.293L1.293 15.293C1.202 15.384 1.128 15.494 1.078 15.615C1.027 15.736 1.002 15.865 1.001 15.995C1.001 15.996 1.00075 15.9967 1.0005 15.9975C1.00025 15.9982 1 15.999 1 16C1 16.0182 1.00486 16.0345 1.00972 16.0509C1.01369 16.0643 1.01765 16.0776 1.019 16.092C1.027 16.188 1.039 16.284 1.076 16.374C1.09645 16.4255 1.12779 16.469 1.1596 16.5131C1.1698 16.5272 1.18005 16.5414 1.19 16.556C1.20232 16.5735 1.21244 16.5921 1.22254 16.6107C1.23784 16.6388 1.25311 16.6669 1.276 16.691L4.139 19.691C4.37008 19.933 4.69265 20.0337 5 19.9912C5.20073 19.9634 5.39497 19.8745 5.55299 19.724C5.553 19.724 5.55301 19.724 5.55301 19.724C5.75877 19.5275 5.8624 19.264 5.86227 19C5.86216 18.7831 5.79199 18.5658 5.65084 18.3851C5.63067 18.3593 5.60906 18.3342 5.58599 18.31L5.29087 18.0007L4.336 17H5.67603H8.00236H10C10.552 17 11 16.553 11 16C11 15.448 10.552 15 10 15H9.99901ZM12.854 15.073C12.5433 14.1163 11.765 13.3703 10.789 13.1049C11.1824 13.0359 11.5871 13 12 13C15.859 13 19 16.14 19 20C19 20.552 18.553 21 18 21C17.447 21 17 20.552 17 20C17 17.5341 15.2056 15.4793 12.854 15.073Z" fill="#898989"/>
</svg>
