<svg width="24" height="24" viewBox="0 0 24 24" fill="none" xmlns="http://www.w3.org/2000/svg">
<path fill-rule="evenodd" clip-rule="evenodd" d="M12.8743 10.1687C13.0743 10.4688 13.3743 10.6687 13.7743 10.6687C13.9743 10.6687 14.1743 10.5688 14.3743 10.4688C14.8743 10.1687 14.9743 9.46875 14.6743 8.96875L10.1743 2.46875C9.87432 1.96875 9.17432 1.86875 8.67432 2.16875C8.17432 2.46875 8.07432 3.16875 8.37432 3.66875L12.8743 10.1687ZM10.8745 11.6688C10.4745 11.6688 10.1745 11.4688 9.97451 11.1688L5.57451 4.76885C5.27451 4.26885 5.37451 3.56885 5.87451 3.26885C6.37451 2.96885 6.97451 3.06885 7.37451 3.56885L11.7745 9.96885C12.0745 10.4688 11.9745 11.1688 11.4745 11.4688C11.2745 11.5688 11.0745 11.6688 10.8745 11.6688ZM19.8744 11.2687C19.8744 11.2687 19.8744 11.3687 19.9744 11.3687C20.8744 12.5687 21.3744 14.0687 21.3744 15.5687C21.3744 19.4687 18.1744 22.6687 14.2744 22.6687C11.9744 22.6687 9.77443 21.5687 8.47443 19.6687L3.17443 11.9687C2.87443 11.4687 2.97443 10.8687 3.37443 10.4687C3.87443 10.1687 4.57443 10.2687 4.87443 10.7687L10.0744 18.5687C11.0744 19.8687 12.5744 20.6687 14.1744 20.6687C16.9744 20.6687 19.1744 18.3687 19.1744 15.6687C19.1744 14.5687 18.7744 13.5687 18.1744 12.6687C18.0744 12.5687 17.9994 12.4437 17.9244 12.3187C17.8494 12.1937 17.7744 12.0687 17.6744 11.9687C16.4744 12.8687 15.6744 14.3687 15.6744 15.9687C15.6744 16.2687 15.6744 16.6687 15.7744 16.9687C15.8744 17.5687 15.5744 18.1687 14.9744 18.2687H14.7744C14.2744 18.2687 13.8744 17.8687 13.7744 17.3687C13.6744 16.9687 13.6744 16.4687 13.6744 15.9687C13.6744 13.5687 14.7744 11.3687 16.7744 10.0687C16.7744 9.96865 16.8744 9.96865 16.8744 9.96865C16.0744 7.76865 15.8744 5.36865 15.8744 4.96865C15.8744 4.46865 16.2744 3.86865 16.8744 3.86865C17.3744 3.86865 17.9744 4.26865 17.9744 4.86865C18.0744 6.16865 18.5744 9.86865 19.8744 11.2687ZM8.87431 14.0688C8.47431 14.0688 8.17431 13.8688 7.97431 13.5688L3.77431 7.4688C3.37431 6.9688 3.57431 6.2688 4.07431 5.9688C4.47431 5.6688 5.17431 5.7688 5.47431 6.2688L9.77431 12.3688C10.0743 12.8688 9.97431 13.5688 9.47431 13.8688C9.27431 13.9688 9.07431 14.0688 8.87431 14.0688Z" fill="#898989"/>
</svg>
