<svg width="24" height="24" viewBox="0 0 24 24" fill="none" xmlns="http://www.w3.org/2000/svg">
<path fill-rule="evenodd" clip-rule="evenodd" d="M12 2C6.486 2 2 6.65 2 12.366V17C2 19.206 3.794 21 6 21C8.206 21 10 19.206 10 17C10 14.794 8.206 13 6 13C5.268 13 4.591 13.212 4 13.557V12.366C4 7.753 7.589 4 12 4C16.411 4 20 7.753 20 12.366V13.557C19.409 13.212 18.732 13 18 13C15.794 13 14 14.794 14 17C14 19.206 15.794 21 18 21C20.206 21 22 19.206 22 17V12.366C22 6.65 17.514 2 12 2Z" fill="#898989"/>
</svg>
