<svg width="24" height="24" viewBox="0 0 24 24" fill="none" xmlns="http://www.w3.org/2000/svg">
    <path fill-rule="evenodd" clip-rule="evenodd" d="M6.30068 18.2033C6.61491 17.7496 7.23757 17.6364 7.69204 17.95C10.2343 19.7089 13.6262 19.5886 16.1335 17.6523C19.2692 15.2306 19.9 10.7761 17.5407 7.72104C15.182 4.66681 10.712 4.15023 7.57629 6.57191C6.20866 7.62811 5.28655 9.10087 4.92074 10.7328L6.41682 9.12633C6.791 8.71101 7.42629 8.69924 7.83003 9.07478C8.23438 9.45111 8.25712 10.0843 7.88017 10.4878L4.94874 13.6387C4.91071 13.6794 4.86883 13.7168 4.82689 13.7492C4.7327 13.822 4.62806 13.8762 4.51813 13.9106C4.48029 13.9221 4.44066 13.9199 4.40055 13.9269C4.32753 13.9403 4.25459 13.9587 4.18013 13.9556C4.13392 13.9546 4.09004 13.9354 4.04472 13.9275C3.97757 13.9174 3.90927 13.9108 3.8449 13.8847C3.79883 13.8659 3.75974 13.8317 3.71537 13.8053C3.66031 13.7733 3.60137 13.7493 3.55214 13.7052L0.510472 11.0002C0.0978473 10.6328 0.0601136 9.9999 0.428139 9.58807C0.796416 9.17983 1.42769 9.13832 1.83971 9.50494L2.93576 10.4792C3.37196 8.32161 4.56198 6.37282 6.35384 4.989C10.3618 1.89375 16.0901 2.57059 19.1236 6.49858C22.1571 10.4266 21.3639 16.1399 17.3559 19.2352C14.1569 21.7058 9.81588 21.8502 6.55393 19.5946C6.10026 19.2804 5.98706 18.6577 6.30068 18.2033Z" fill="#777777"/>
    <path fill-rule="evenodd" clip-rule="evenodd" d="M16 11H13V8C13 7.447 12.552 7 12 7C11.448 7 11 7.447 11 8V12C11 12.553 11.448 13 12 13H16C16.553 13 17 12.553 17 12C17 11.447 16.553 11 16 11Z" fill="#777777"/>
</svg>
