<svg width="24" height="24" viewBox="0 0 24 24" fill="none" xmlns="http://www.w3.org/2000/svg">
<path fill-rule="evenodd" clip-rule="evenodd" d="M14 3H6C4.346 3 3 4.346 3 6V18C3 19.654 4.346 21 6 21H18C19.654 21 21 19.654 21 18V10H19V14.364L15.797 11.632C14.807 10.79 13.258 10.79 12.277 11.626L5 17.698V6C5 5.448 5.448 5 6 5H14V3ZM9.5 8.5C9.5 9.328 8.828 10 8 10C7.172 10 6.5 9.328 6.5 8.5C6.5 7.672 7.172 7 8 7C8.828 7 9.5 7.672 9.5 8.5ZM6.561 19H18C18.552 19 19 18.552 19 18V16.994L14.499 13.154C14.258 12.947 13.812 12.946 13.566 13.155L6.561 19Z" fill="#898989"/>
<rect x="16" y="3" width="8" height="2" rx="1" fill="#898989"/>
<rect x="21" width="8" height="2" rx="1" transform="rotate(90 21 0)" fill="#898989"/>
</svg>
