<svg width="24" height="24" viewBox="0 0 24 24" fill="none" xmlns="http://www.w3.org/2000/svg">
    <path fill-rule="evenodd" clip-rule="evenodd" d="M5.80984 16.7758C5.42022 17.1654 5.41951 17.7997 5.80984 18.19C5.99863 18.3788 6.24541 18.4814 6.53038 18.4778C6.78847 18.48 7.03525 18.3788 7.22405 18.19L13.2627 12.1514C13.5159 11.8982 13.885 11.7992 14.2308 11.8933C15.2596 12.1711 16.3684 11.8742 17.1235 11.119C18.2931 9.94942 18.2931 8.04589 17.1235 6.87633C15.954 5.70678 14.0505 5.70678 12.8809 6.87633C12.1257 7.63152 11.8287 8.74027 12.1066 9.76911C12.2007 10.1149 12.1017 10.484 11.8485 10.7371L5.80984 16.7758ZM11.4667 5.46212C13.4162 3.51263 16.5883 3.51263 18.5378 5.46212C20.4873 7.41161 20.4873 10.5837 18.5378 12.5332C17.4205 13.6504 15.8394 14.1652 14.2972 13.9453L12.9808 15.2618L13.9088 16.1898C14.2993 16.5803 14.2993 17.2135 13.9088 17.604C13.5183 17.9945 12.8851 17.9945 12.4946 17.604L11.5666 16.676L10.9809 17.2616L11.9086 18.1894C12.2991 18.5799 12.2991 19.2131 11.9086 19.6036C11.5181 19.9941 10.8849 19.9941 10.4944 19.6036L9.56667 18.6758L8.63826 19.6043C8.0648 20.1777 7.30749 20.4881 6.53038 20.4775C5.72711 20.4874 4.96979 20.1784 4.39562 19.6043C3.22607 18.4347 3.22607 16.5312 4.39562 15.3616L10.0546 9.70264C9.83469 8.16044 10.3495 6.57935 11.4667 5.46212ZM14.2951 9.70476C13.9046 9.31424 13.9046 8.68107 14.2951 8.29055C14.6856 7.90002 15.3188 7.90002 15.7093 8.29055C16.0999 8.68107 16.0999 9.31424 15.7093 9.70476C15.3188 10.0953 14.6856 10.0953 14.2951 9.70476Z" fill="#777777"/>
</svg>
