<svg width="24" height="24" viewBox="0 0 24 24" fill="none" xmlns="http://www.w3.org/2000/svg">
    <path fill-rule="evenodd" clip-rule="evenodd" d="M12.707 12.2923C12.322 11.9063 11.699 11.9033 11.305 12.2793L8.30502 15.1763C7.90802 15.5603 7.89702 16.1923 8.28102 16.5903C8.66502 16.9873 9.29802 17.0003 9.69502 16.6153L11 15.3553V20.9993C11 21.5523 11.448 21.9993 12 21.9993C12.552 21.9993 13 21.5523 13 20.9993V15.4133L14.293 16.7063C14.488 16.9013 14.744 16.9993 15 16.9993C15.256 16.9993 15.512 16.9013 15.707 16.7063C16.098 16.3153 16.098 15.6833 15.707 15.2923L12.707 12.2923Z" fill="#007AFF"/>
    <path fill-rule="evenodd" clip-rule="evenodd" d="M18 11C18 7.68629 15.3137 5 12 5C8.68629 5 6 7.68629 6 11L6 19C6 19.5523 5.55228 20 5 20C2.65179 20 1 17.8351 1 15.5C1 13.5128 2.19628 11.6488 4 11.1376L4 11C4 6.58172 7.58172 3 12 3C16.4183 3 20 6.58172 20 11V11.1376C21.8037 11.6488 23 13.5128 23 15.5C23 17.8351 21.3482 20 19 20C18.4477 20 18 19.5523 18 19V11ZM20 17.6554C20.5671 17.2456 21 16.4903 21 15.5C21 14.5097 20.5671 13.7544 20 13.3446V17.6554ZM4 13.3446V17.6554C3.43291 17.2456 3 16.4903 3 15.5C3 14.5097 3.43291 13.7544 4 13.3446Z" fill="#898989"/>
</svg>
