<svg width="24" height="24" viewBox="0 0 24 24" fill="none" xmlns="http://www.w3.org/2000/svg">
<path d="M18.5505 1.27441C18.209 1.15887 17.8226 1.2624 17.5846 1.53323L11.5358 6.77747L4.00158 8.79626C1.77995 9.39154 0.436446 11.7186 1.03173 13.9402C1.62701 16.1618 3.92815 17.4087 6.14978 16.8134L7.1157 16.5546L11.4629 21.1873C11.7596 21.522 12.1977 21.6116 12.4875 21.534C12.6807 21.4822 12.7773 21.4563 12.9446 21.308C13.3499 20.8888 13.3878 20.2575 12.9686 19.8521L11.5368 18.3723C12.4958 17.7012 13.0804 16.4058 12.8405 15.1242L13.7099 14.8912L21.4997 16.531C21.7188 16.5758 21.8154 16.5499 22.0085 16.4981C22.2017 16.4464 22.369 16.298 22.5363 16.1497C22.7744 15.8788 22.8899 15.5373 22.7864 15.1509L19.2664 2.01433C19.1629 1.62796 18.8921 1.38995 18.5505 1.27441ZM3.06017 13.3967C2.77547 12.3341 3.41187 11.2319 4.47439 10.9472L7.46876 10.1448L8.50403 14.0085L5.60626 14.785C4.44714 15.0956 3.34487 14.4592 3.06017 13.3967ZM10.0532 16.6993L9.43392 15.9335L10.7862 15.5711C10.819 16.08 10.5103 16.4733 10.0532 16.6993ZM20.292 13.9558L13.9391 12.6557C13.8166 12.585 13.6234 12.6368 13.4303 12.6886L10.5325 13.465L9.4972 9.60131L12.395 8.82486C12.5882 8.77309 12.6848 8.74721 12.8521 8.59886L17.7039 4.29652L20.292 13.9558Z" fill="#898989"/>
</svg>
