<svg width="24" height="24" viewBox="0 0 24 24" fill="none" xmlns="http://www.w3.org/2000/svg">
<path fill-rule="evenodd" clip-rule="evenodd" d="M20 11C19.447 11 19 11.448 19 12V18C19 18.551 18.552 19 18 19H6C5.448 19 5 18.551 5 18V6C5 5.449 5.448 5 6 5H12C12.553 5 13 4.552 13 4C13 3.448 12.553 3 12 3H6C4.346 3 3 4.346 3 6V18C3 19.654 4.346 21 6 21H18C19.654 21 21 19.654 21 18V12C21 11.448 20.553 11 20 11Z" fill="#898989"/>
<path fill-rule="evenodd" clip-rule="evenodd" d="M14.4999 8.5L15.4218 7.99198L21.7068 1.70698C22.0978 1.31598 22.0978 0.68398 21.7068 0.29298C21.5118 0.0979805 21.2558 -2.00922e-05 20.9998 -2.01146e-05C20.7438 -2.0137e-05 20.4878 0.0979804 20.2928 0.29298L14.0008 6.58498L13.9999 7.49998C13.9999 6.94798 13.5519 7.99998 12.9999 7.99998C12.4999 8.49998 11.9999 8.44698 11.9999 8.99998L12.0028 8.98098C12.0028 9.53098 12.4478 9.97698 12.9978 9.97998L12.9425 9.97818L12.9999 9.5C13.5499 9.5 13.499 9.65419 13.4999 9.5C13.5029 8.948 13.4999 9 14.4999 8.5Z" fill="#898989"/>
<path fill-rule="evenodd" clip-rule="evenodd" d="M17.5001 3.47998L16.5782 3.988L10.2932 10.273C9.90225 10.664 9.90225 11.296 10.2932 11.687C10.4882 11.882 10.7442 11.98 11.0002 11.98C11.2563 11.98 11.5122 11.882 11.7072 11.687L17.9992 5.395L18.0001 4.48C18.0001 5.032 18.4481 3.98 19.0001 3.98C19.5001 3.48 20.0001 3.533 20.0001 2.98L19.9972 2.999C19.9972 2.449 19.5522 2.003 19.0022 2L19.0575 2.0018L19.0001 2.47998C18.4501 2.47998 18.501 2.32579 18.5001 2.47998C18.4971 3.03198 18.5001 2.97998 17.5001 3.47998Z" fill="#898989"/>
<path fill-rule="evenodd" clip-rule="evenodd" d="M16.4999 10.5L17.4218 9.99198L23.7068 3.70698C24.0978 3.31598 24.0978 2.68398 23.7068 2.29298C23.5118 2.09798 23.2558 1.99998 22.9998 1.99998C22.7438 1.99998 22.4878 2.09798 22.2928 2.29298L16.0008 8.58498L15.9999 9.49998C15.9999 8.94798 15.5519 9.99998 14.9999 9.99998C14.4999 10.5 13.9999 10.447 13.9999 11L14.0028 10.981C14.0028 11.531 14.4478 11.977 14.9978 11.98L14.9425 11.9782L14.9999 11.5C15.5499 11.5 15.499 11.6542 15.4999 11.5C15.5029 10.948 15.4999 11 16.4999 10.5Z" fill="#898989"/>
<path fill-rule="evenodd" clip-rule="evenodd" d="M19.5001 5.47998L18.5782 5.988L12.2932 12.273C11.9022 12.664 11.9022 13.296 12.2932 13.687C12.4882 13.882 12.7442 13.98 13.0002 13.98C13.2563 13.98 13.5122 13.882 13.7072 13.687L19.9992 7.395L20.0001 6.48C20.0001 7.032 20.4481 5.98 21.0001 5.98C21.5001 5.48 22.0001 5.533 22.0001 4.98L21.9972 4.999C21.9972 4.449 21.5522 4.003 21.0022 4L21.0575 4.0018L21.0001 4.47998C20.4501 4.47998 20.501 4.32579 20.5001 4.47998C20.4971 5.03198 20.5001 4.97998 19.5001 5.47998Z" fill="#898989"/>
<path d="M10.5 13.5L9.51942 13.3039C9.45385 13.6317 9.55647 13.9707 9.79289 14.2071C10.0293 14.4435 10.3683 14.5462 10.6961 14.4806L10.5 13.5ZM13.1961 13.9806C13.7377 13.8723 14.0889 13.3454 13.9806 12.8039C13.8723 12.2623 13.3454 11.9111 12.8039 12.0194L13.1961 13.9806ZM10.0194 10.8039L9.51942 13.3039L11.4806 13.6961L11.9806 11.1961L10.0194 10.8039ZM10.6961 14.4806L13.1961 13.9806L12.8039 12.0194L10.3039 12.5194L10.6961 14.4806Z" fill="#898989"/>
<path d="M21 1L23 3" stroke="#898989" stroke-width="2"/>
</svg>
