<svg width="24" height="24" viewBox="0 0 24 24" fill="none" xmlns="http://www.w3.org/2000/svg">
    <path d="M12 3.00046C10.3372 3.01578 8.77055 3.41178 7.3 4C4.1 5.5 2 8.3 2 11.5C2 13.5 2.9 15.5 4.3 16.9C4.29549 16.918 4.29078 16.9371 4.28581 16.9572C4.18074 17.382 3.96392 18.2586 3.2 19.5C3.1 19.8 3 20.1 3.1 20.5C3.2 20.8 3.5 21.1 3.9 21.1H4.3C4.38284 21.1 4.5 21.1172 4.63726 21.1373C4.83137 21.1657 5.06569 21.2 5.3 21.2C6.5 21.2 8.2 21 9.5 19.7C9.54142 19.7 9.6 19.7172 9.66863 19.7373C9.76569 19.7657 9.88284 19.8 10 19.8C10.15 19.8 10.275 19.825 10.4 19.85C10.525 19.875 10.65 19.9 10.8 19.9C11.3 20 11.8 20 12.1 20C17.5 20 21.8772 16.4666 22.1829 12H20.1843C19.9225 15.3182 16.4274 18 12.1 18C11.8 18 11.2 17.9 10.7 17.8C10.3 17.7 9.8 17.6 9.5 17.6H9.3C8.9 17.5 8.5 17.7 8.3 18C7.7 18.8 6.7 19.1 5.8 19.2C6.5 17.5 6.4 16.5 6.3 16.3C6.3 16.25 6.275 16.2 6.25 16.15C6.225 16.1 6.2 16.05 6.2 16C6.2 15.95 6.175 15.925 6.15 15.9C6.125 15.875 6.1 15.85 6.1 15.8C4.8 14.6 4.1 13 4.1 11.5C4.1 9.2 5.6 7.1 8.2 5.9C9.27381 5.41191 10.6335 5.1144 12 5.10051V3.00046Z" fill="#777777"/>
    <path d="M19.2 1C19.2 3.65097 21.349 5.8 24 5.8C21.349 5.8 19.2 7.94903 19.2 10.6C19.2 7.94903 17.051 5.8 14.4 5.8C17.051 5.8 19.2 3.65097 19.2 1Z" fill="#777777"/>
    <path d="M14.4 8.2C14.4 9.52548 15.4745 10.6 16.8 10.6C15.4745 10.6 14.4 11.6745 14.4 13C14.4 11.6745 13.3255 10.6 12 10.6C13.3255 10.6 14.4 9.52548 14.4 8.2Z" fill="#777777"/>
</svg>
