<svg width="24" height="24" viewBox="0 0 24 24" fill="none" xmlns="http://www.w3.org/2000/svg">
<path fill-rule="evenodd" clip-rule="evenodd" d="M12 10C11.448 10 11 10.448 11 11C11 11.552 11.448 12 12 12C12.552 12 13 11.552 13 11C13 10.448 12.552 10 12 10ZM20 16C20 16.551 19.551 17 19 17H8.554C8.011 17 7.477 17.148 7.01 17.428L4 19.234V6C4 5.449 4.449 5 5 5H19C19.551 5 20 5.449 20 6V16ZM19 3H5C3.346 3 2 4.346 2 6V21C2 21.36 2.194 21.693 2.507 21.87C2.66 21.957 2.83 22 3 22C3.178 22 3.356 21.953 3.515 21.857L8.039 19.143C8.195 19.049 8.373 19 8.554 19H19C20.654 19 22 17.654 22 16V6C22 4.346 20.654 3 19 3Z" fill="#898989"/>
<rect x="8" y="10" width="8" height="2" rx="1" fill="#898989"/>
<rect x="13" y="7" width="8" height="2" rx="1" transform="rotate(90 13 7)" fill="#898989"/>
</svg>
