<svg width="24" height="24" viewBox="0 0 24 24" fill="none" xmlns="http://www.w3.org/2000/svg">
<path d="M19.7 12.6001C19.7 12.0001 19.2 11.6001 18.7 11.6001C18.2 11.6001 17.7 12.1001 17.7 12.6001C17.7 15.7001 15.2 18.2001 12 18.2001H11.7C8.6 18.2001 6 15.7001 6 12.6001C6 12.0001 5.5 11.6001 5 11.6001C4.5 11.6001 4 12.0001 4 12.6001C4 16.5001 7 19.8001 10.8 20.2001V21.9001C10.8 22.5001 11.3 22.9001 11.8 22.9001C12.3 22.9001 12.8 22.4001 12.8 21.9001V20.2001C16.7 19.7001 19.7 16.5001 19.7 12.6001Z" fill="#898989"/>
<path d="M11.7001 17.1H12.0001C14.5001 17.1 16.6001 15.1 16.6001 12.5V7.5C16.6001 5 14.5001 3 12.0001 3H11.7001C9.2001 3 7.1001 5 7.1001 7.6V12.6C7.1001 15.1 9.2001 17.1 11.7001 17.1ZM9.2001 7.6C9.2001 6.2 10.3001 5.1 11.7001 5.1H12.0001C13.4001 5.1 14.5001 6.2 14.5001 7.6V12.6C14.5001 14 13.4001 15.1 12.0001 15.1H11.7001C10.3001 15.1 9.2001 14 9.2001 12.6V7.6Z" fill="#898989"/>
</svg>
