<svg width="24" height="24" viewBox="0 0 24 24" fill="none" xmlns="http://www.w3.org/2000/svg">
    <path d="M20 12.6191C20 12.0076 19.4904 11.6 18.9809 11.6C18.4713 11.6 17.9618 12.1095 17.9618 12.6191C17.9618 15.7783 15.414 18.3261 12.1529 18.3261H11.8471C8.6879 18.3261 6.03822 15.7783 6.03822 12.6191C6.03822 12.0076 5.52866 11.6 5.01911 11.6C4.50955 11.6 4 12.0076 4 12.6191C4 16.5936 7.05733 19.9567 10.9299 20.3643V22.0968C10.9299 22.7083 11.4395 23.1159 11.949 23.1159C12.4586 23.1159 12.9682 22.6063 12.9682 22.0968V20.3643C16.9427 19.8548 20 16.5936 20 12.6191Z" fill="#898989"/>
    <path d="M11.8737 16H12.1263C14.2316 16 16 14.2979 16 12.0851V7.82979C16 5.70213 14.2316 4 12.1263 4H11.8737C9.76842 4 8 5.70213 8 7.91489V12.1702C8 14.2979 9.76842 16 11.8737 16Z" fill="#898989"/>
</svg>
