<svg width="39" height="32" viewBox="0 0 39 32" fill="none" xmlns="http://www.w3.org/2000/svg">
    <path fill="#FFFFFF" fill-rule="evenodd" clip-rule="evenodd" d="M23.5222 6.49542C23.5222 5.16304 24.7917 3.77707 26.7768 3.77707C28.7619 3.77707 30.0314 5.16304 30.0314 6.49542V14.1696C30.0314 15.3884 28.7858 16.7955 26.7768 16.7955C24.7917 16.7955 23.5222 15.4096 23.5222 14.0772V6.49542ZM26.7768 0.522461C23.3606 0.522461 20.2676 3.01984 20.2676 6.49542V14.0772C20.2676 17.5528 23.3606 20.0501 26.7768 20.0501C30.1691 20.0501 33.286 17.5739 33.286 14.1696V6.49542C33.286 3.01985 30.193 0.522461 26.7768 0.522461ZM15.8506 16.9482C16.669 16.5767 17.6335 16.939 18.005 17.7573C19.5184 21.0913 22.877 23.4084 26.7589 23.4084C30.6089 23.4084 33.9441 21.1294 35.4751 17.8392C35.8543 17.0244 36.8222 16.6712 37.6371 17.0504C38.4519 17.4295 38.8051 18.3975 38.4259 19.2123C36.5574 23.2276 32.671 26.1291 28.07 26.5968V29.7565C28.07 30.7124 27.2951 31.4873 26.3392 31.4873C25.3833 31.4873 24.6084 30.7124 24.6084 29.7565V26.4834C20.3361 25.7616 16.7774 22.927 15.0414 19.1026C14.6699 18.2842 15.0322 17.3196 15.8506 16.9482Z"/>
    <path fill="#FFFFFF99" d="M18.1103 3.25461C15.4668 3.25461 12.9734 3.74551 10.9097 4.68357L10.9028 4.68668C6.16061 6.81583 3.25461 10.6358 3.25461 14.8557C3.25461 17.71 4.59994 20.5437 6.82143 22.5801C6.95216 22.7106 7.22849 23.0449 7.28801 23.3379L7.28955 23.3434L7.29276 23.355L7.2996 23.381C7.30434 23.3994 7.30941 23.4201 7.31467 23.4432C7.3252 23.4893 7.33649 23.5445 7.34747 23.6089C7.36944 23.7376 7.39005 23.9021 7.40087 24.1017C7.42257 24.5018 7.40453 25.0365 7.28319 25.6998C7.13163 26.5284 6.82172 27.543 6.24088 28.7363C6.43928 28.7285 6.64392 28.7153 6.85259 28.6953C8.57086 28.5305 10.238 27.9457 11.203 26.5353C11.5765 25.9894 12.2433 25.7239 12.8898 25.8637L12.9295 25.8722L13.0506 25.8978C13.1565 25.9201 13.3105 25.9521 13.5006 25.9905C13.8813 26.0677 14.4039 26.1702 14.9731 26.2726C16.1659 26.487 17.3875 26.6668 18.0054 26.6668C18.9041 26.6668 19.6327 27.3954 19.6327 28.2941C19.6327 29.1929 18.9041 29.9214 18.0054 29.9214C17.0484 29.9214 15.5403 29.6813 14.3972 29.4758C13.9529 29.3959 13.5372 29.3162 13.1902 29.2476C11.4332 31.1359 9.01635 31.7573 7.16325 31.935C6.08043 32.0389 5.10409 32.0014 4.40121 31.9395C4.04765 31.9083 3.75776 31.8705 3.55151 31.8395C3.16648 31.8166 2.31951 31.577 2.01186 30.8023C1.80492 30.2986 1.86363 29.7248 2.16829 29.2735C3.47958 27.3308 3.93118 25.937 4.0817 25.1142C4.12581 24.8731 4.14471 24.6776 4.15125 24.5279C1.60484 21.9773 0 18.5008 0 14.8557C0 8.99812 4.02152 4.20985 9.56632 1.71912C12.1213 0.558475 15.0859 0 18.1103 0C19.0091 0 19.7377 0.72857 19.7377 1.62731C19.7377 2.52604 19.0091 3.25461 18.1103 3.25461Z"/>
</svg>
