<svg width="24" height="24" viewBox="0 0 24 24" fill="none" xmlns="http://www.w3.org/2000/svg">
    <path fill-rule="evenodd" clip-rule="evenodd" d="M4.7 3.3L20.7 19.3C21.1 19.7 21.1 20.3 20.7 20.7C20.5 20.9 20.2 21 20 21C19.8 21 19.5 20.9 19.3 20.7L3.3 4.7C2.9 4.3 2.9 3.7 3.3 3.3C3.7 2.9 4.3 2.9 4.7 3.3ZM7.1 12.6V9.9L9.2 12V12.6C9.2 14 10.3 15.1 11.7 15.1H12H12.3L13.9 16.7C13.3 17 12.7 17.1 12 17.1H11.7C9.2 17.1 7.1 15.1 7.1 12.6ZM14.5 7.6V11.7L16.5 13.6C16.6 13.3 16.6 12.9 16.6 12.5V7.5C16.6 5 14.5 3 12 3H11.7C10.2 3 8.7 3.8 7.9 5L9.4 6.6C9.8 5.7 10.7 5.1 11.7 5.1H12C13.4 5.1 14.5 6.2 14.5 7.6ZM17.4 14.5L18.9 16C19.4 15 19.7 13.8 19.7 12.6C19.7 12 19.2 11.6 18.7 11.6C18.2 11.6 17.7 12.1 17.7 12.6C17.7 13.2 17.6 13.9 17.4 14.5ZM14.8 17.6L16.2 19C15.2 19.6 14 20 12.8 20.2V21.9C12.8 22.4 12.3 22.9 11.8 22.9C11.3 22.9 10.8 22.5 10.8 21.9V20.2C7 19.8 4 16.5 4 12.6C4 12 4.5 11.6 5 11.6C5.5 11.6 6 12 6 12.6C6 15.7 8.6 18.2 11.7 18.2H12C13 18.2 13.9 18 14.8 17.6Z" fill="#898989"/>
</svg>
