<svg width="24" height="24" viewBox="0 0 24 24" fill="none" xmlns="http://www.w3.org/2000/svg">
<path fill-rule="evenodd" clip-rule="evenodd" d="M12.4 15.9C14.4 15.9 16.1 14.3 16.1 12.2V7.7C16.1 5.7 14.5 4 12.4 4C10.3 4 8.69995 5.7 8.69995 7.7V12.3C8.69995 14.3 10.4 15.9 12.4 15.9ZM10.6 7.7C10.6 6.7 11.4 5.9 12.4 5.9C13.4 5.9 14.2 6.7 14.2 7.7V12.3C14.2 13.3 13.4 14.1 12.4 14.1C11.4 14.1 10.6 13.3 10.6 12.3V7.7ZM18.8 12.2999C18.8 11.7999 18.4 11.3999 17.9 11.3999C17.4 11.3999 17 11.7999 17 12.2999C17 14.7999 14.9 16.8999 12.4 16.8999C9.9 16.8999 7.8 14.7999 7.8 12.2999C7.8 11.7999 7.4 11.3999 6.9 11.3999C6.4 11.3999 6 11.7999 6 12.2999C6 15.4999 8.4 18.1999 11.5 18.5999V20.4999V20.8999C11.5 21.3999 11.9 21.6999 12.3 21.6999H12.5C13 21.6999 13.3 21.2999 13.3 20.8999V20.4999V18.9999V18.5999C16.4 18.1999 18.8 15.4999 18.8 12.2999Z" fill="#898989"/>
</svg>
