<svg width="25" height="24" viewBox="0 0 25 24" fill="none" xmlns="http://www.w3.org/2000/svg">
    <path fill-rule="evenodd" clip-rule="evenodd" d="M20.1016 14C20.1016 14.551 19.6536 15 19.1016 15H12.1886H12.0146H5.10156C4.54956 15 4.10156 14.551 4.10156 14V6C4.10156 5.449 4.54956 5 5.10156 5H19.1016C19.6536 5 20.1016 5.449 20.1016 6V14ZM19.1016 3H5.10156C3.44756 3 2.10156 4.346 2.10156 6V14C2.10156 15.654 3.44756 17 5.10156 17H11.1016V19H7.10156C6.55156 19 6.10156 19.45 6.10156 20C6.10156 20.55 6.55156 21 7.10156 21H17.1016C17.6516 21 18.1016 20.55 18.1016 20C18.1016 19.45 17.6516 19 17.1016 19H13.1016V17H19.1016C20.7556 17 22.1016 15.654 22.1016 14V6C22.1016 4.346 20.7556 3 19.1016 3Z" fill="white"/>
</svg>
