<svg width="24" height="24" viewBox="0 0 24 24" fill="none" xmlns="http://www.w3.org/2000/svg">
<g id=" Fill / moon">
<path id="Verctor" fill-rule="evenodd" clip-rule="evenodd" d="M12.2958 22.0001C12.2638 22.0001 12.2328 22.0001 12.1998 21.9991C9.40579 21.9751 6.79779 20.8541 4.85579 18.8461C1.17879 15.0411 1.06379 8.74407 4.59879 4.80907C5.69979 3.58207 7.04379 2.65907 8.59179 2.06607C8.95679 1.92407 9.37179 2.01207 9.65079 2.28807C9.93079 2.56307 10.0238 2.97607 9.88879 3.34407C8.77079 6.39907 9.53179 9.85507 11.8298 12.1481C14.1268 14.4411 17.5928 15.2021 20.6578 14.0861C21.0258 13.9501 21.4388 14.0461 21.7128 14.3241C21.9878 14.6041 22.0738 15.0191 21.9338 15.3841C21.4098 16.7471 20.6238 17.9571 19.5978 18.9801C17.6448 20.9301 15.0538 22.0001 12.2958 22.0001" fill="#898989"/>
</g>
</svg>
