<svg width="10" height="17" viewBox="0 0 10 17" fill="none" xmlns="http://www.w3.org/2000/svg">
    <path fill-rule="evenodd" clip-rule="evenodd" d="M1.5 3C2.328 3 3 2.328 3 1.5C3 0.672 2.328 0 1.5 0C0.672 0 0 0.672 0 1.5C0 2.328 0.672 3 1.5 3ZM1.5 7C0.672 7 0 7.672 0 8.5C0 9.328 0.672 10 1.5 10C2.328 10 3 9.328 3 8.5C3 7.672 2.328 7 1.5 7ZM0 15.5C0 14.672 0.672 14 1.5 14C2.328 14 3 14.672 3 15.5C3 16.328 2.328 17 1.5 17C0.672 17 0 16.328 0 15.5Z" fill="#777777"/>
    <path fill-rule="evenodd" clip-rule="evenodd" d="M8.5 3C9.328 3 10 2.328 10 1.5C10 0.672 9.328 0 8.5 0C7.672 0 7 0.672 7 1.5C7 2.328 7.672 3 8.5 3ZM8.5 7C7.672 7 7 7.672 7 8.5C7 9.328 7.672 10 8.5 10C9.328 10 10 9.328 10 8.5C10 7.672 9.328 7 8.5 7ZM7 15.5C7 14.672 7.672 14 8.5 14C9.328 14 10 14.672 10 15.5C10 16.328 9.328 17 8.5 17C7.672 17 7 16.328 7 15.5Z" fill="#777777"/>
</svg>
