<svg width="24" height="24" viewBox="0 0 24 24" fill="none" xmlns="http://www.w3.org/2000/svg">
    <path fill-rule="evenodd" clip-rule="evenodd" d="M8 21.4C8.3 21.2 8.5 20.9 8.5 20.5V15.3C8.5 14.7 8.1 14.5 7.8 14.3C7.4 14.1 6.6 14 6 14C5.3 14 4.6 14.2 4 14.6V13.4C4 11.5 4.6 9.8 5.6 8.4L4.2 7C2.8 8.8 2 11 2 13.4V18C2 20.2 3.8 22 6 22C7.3 22 8 21.4 8 21.4ZM6.4 20H6C4.9 20 4 19.1 4 18C4 16.9 4.9 16 6 16C6.2 16 6.3 16 6.4 16.1V20Z" fill="#777777"/>
    <path d="M17 14.1C17.3 14 17.7 14 18 14C18.7 14 19.4 14.3 20 14.6V13.4C20 8.8 16.4 5 12 5C10.8 5 9.59998 5.3 8.59998 5.8L7.09998 4.3C8.59998 3.5 10.2 3 12 3C17.5 3 22 7.7 22 13.4V18C22 18.4 21.9 18.8 21.8 19.2C21.7 19 21.6 18.8 21.4 18.6" fill="#777777"/>
    <path d="M16.2 21.5C16.7 21.8 17.4 22 18 22C18.4 22 18.8 21.9 19.2 21.8C19 21.7 18.8 21.6 18.6 21.4L15.5 18.3V20.5C15.5 21.1 16.2 21.5 16.2 21.5Z" fill="#777777"/>
    <path d="M5.7 4.3L20.7 19.3L21.7 20.3C22.1 20.7 22.1 21.3 21.7 21.7C21.5 21.9 21.3 22 21 22C20.7 22 20.5 21.9 20.3 21.7L19.3 20.7L4.3 5.7L3.3 4.7C2.9 4.3 2.9 3.7 3.3 3.3C3.7 2.9 4.3 2.9 4.7 3.3L5.7 4.3Z" fill="#777777"/>
</svg>
