<?xml version="1.0" encoding="utf-8"?>
<!-- Generator: Adobe Illustrator 28.4.1, SVG Export Plug-In . SVG Version: 6.00 Build 0)  -->
<svg version="1.1" id="Layer_1" xmlns="http://www.w3.org/2000/svg" xmlns:xlink="http://www.w3.org/1999/xlink" x="0px" y="0px"
     viewBox="0 0 24 24" style="enable-background:new 0 0 24 24;" xml:space="preserve">
<style type="text/css">
	.st0{fill-rule:evenodd;clip-rule:evenodd;fill:#777777;}
	.st1{fill:#777777;}
</style>
    <path class="st0" d="M4.2,7C2.8,8.8,2,11,2,13.4V18c0,2.2,1.8,4,4,4c0.7,0,1.3-0.2,1.8-0.5c0,0,0.1,0,0.1-0.1c0,0,0,0,0.1,0
	c0.3-0.2,0.5-0.5,0.5-0.9v-5.2c0-0.4-0.2-0.7-0.5-0.8c-0.1,0-0.1,0-0.1-0.1s-0.1-0.1-0.1-0.1C7.3,14.2,6.6,14,6,14
	c-0.7,0-1.4,0.2-2,0.6v-1.2c0-1.9,0.6-3.6,1.6-5L4.2,7z M6.4,16.1C6.3,16,6.2,16,6,16c-1.1,0-2,0.9-2,2s0.9,2,2,2h0.4V16.1z"/>
    <path class="st1" d="M17,14.1c0.3-0.1,0.7-0.1,1-0.1c0.7,0,1.4,0.3,2,0.6v-1.2C20,8.8,16.4,5,12,5c-1.2,0-2.4,0.3-3.4,0.8L7.1,4.3
	C8.6,3.5,10.2,3,12,3c5.5,0,10,4.7,10,10.4V18c0,0.4-0.1,0.8-0.2,1.2c-0.1-0.2-0.2-0.4-0.4-0.6l-1.7-1.7c-0.2-0.3-0.4-0.6-0.7-0.7
	L17,14.1z"/>
    <path class="st1" d="M15.5,18.3v2.2c0,0.4,0.2,0.7,0.5,0.9c0,0,0.1,0,0.1,0c0,0,0,0.1,0.1,0.1c0.5,0.3,1.2,0.5,1.8,0.5
	c0.4,0,0.8-0.1,1.2-0.2c-0.2-0.1-0.4-0.2-0.6-0.4L15.5,18.3z"/>
    <path class="st1" d="M5.7,4.3l15,15l0,0l1,1c0.4,0.4,0.4,1,0,1.4C21.5,21.9,21.3,22,21,22c-0.3,0-0.5-0.1-0.7-0.3l-1-1l0,0l-15-15
	l0,0l-1-1c-0.4-0.4-0.4-1,0-1.4s1-0.4,1.4,0L5.7,4.3L5.7,4.3z"/>
</svg>
