<svg width="24" height="24" viewBox="0 0 24 24" fill="none" xmlns="http://www.w3.org/2000/svg">
    <path fill-rule="evenodd" clip-rule="evenodd" d="M13 6C14.654 6 16 7.346 16 9C16 9.553 16.447 10 17 10C17.553 10 18 9.553 18 9C18 6.243 15.757 4 13 4C12.448 4 12 4.447 12 5C12 5.553 12.448 6 13 6" fill="#777777"/>
    <path fill-rule="evenodd" clip-rule="evenodd" d="M13 2C16.859 2 20 5.141 20 9C20 9.553 20.447 10 21 10C21.553 10 22 9.553 22 9C22 4.037 17.963 0 13 0C12.448 0 12 0.447 12 1C12 1.553 12.448 2 13 2" fill="#777777"/>
    <path fill-rule="evenodd" clip-rule="evenodd" d="M8 7C7.44772 7 7 7.44772 7 8V21C7 21.5523 7.44772 22 8 22H14C14.5523 22 15 21.5523 15 21V13.5C15 12.9477 15.4477 12.5 16 12.5C16.5523 12.5 17 12.9477 17 13.5V21C17 22.6569 15.6569 24 14 24H8C6.34315 24 5 22.6569 5 21V8C5 6.34315 6.34315 5 8 5H8.5C9.05228 5 9.5 5.44772 9.5 6C9.5 6.55228 9.05228 7 8.5 7H8Z" fill="#777777"/>
    <circle cx="11" cy="19" r="1" fill="#777777"/>
</svg>
