<svg width="24" height="24" viewBox="0 0 24 24" fill="none" xmlns="http://www.w3.org/2000/svg">
<path fill-rule="evenodd" clip-rule="evenodd" d="M14 18.835L12.144 13.268L17.712 7.699L14 18.835ZM16.298 6.285L10.73 11.853L5.162 9.997L16.298 6.285ZM20.99 3.945C20.985 3.852 20.968 3.762 20.937 3.675C20.927 3.644 20.916 3.614 20.902 3.584C20.854 3.477 20.793 3.376 20.707 3.29C20.621 3.204 20.52 3.143 20.412 3.095C20.383 3.081 20.354 3.07 20.323 3.06C20.234 3.029 20.143 3.011 20.048 3.006C20.026 3.005 20.006 3 19.983 3C19.883 3.002 19.782 3.016 19.684 3.048L1.684 9.048C1.275 9.185 1 9.566 1 9.997C1 10.428 1.275 10.81 1.684 10.946L10.209 13.788L13.052 22.314C13.188 22.722 13.569 22.997 14 22.997C14.431 22.997 14.812 22.722 14.948 22.314L20.948 4.314C20.98 4.215 20.995 4.115 20.996 4.015C20.997 3.991 20.991 3.969 20.99 3.945Z" fill="#898989"/>
</svg>
