<svg width="24" height="24" viewBox="0 0 24 24" fill="none" xmlns="http://www.w3.org/2000/svg">
<path fill-rule="evenodd" clip-rule="evenodd" d="M9 5C10.103 5 11 5.897 11 7C11 8.103 10.103 9 9 9C7.897 9 7 8.103 7 7C7 5.897 7.897 5 9 5ZM9 11C11.206 11 13 9.206 13 7C13 4.794 11.206 3 9 3C6.794 3 5 4.794 5 7C5 9.206 6.794 11 9 11ZM9 13C5.141 13 2 16.14 2 20C2 20.552 2.447 21 3 21C3.553 21 4 20.552 4 20C4 17.243 6.243 15 9 15C11.757 15 14 17.243 14 20C14 20.552 14.447 21 15 21C15.553 21 16 20.552 16 20C16 16.14 12.859 13 9 13ZM19 6H20C20.55 6 21 6.45 21 7C21 7.55 20.55 8 20 8H19V9C19 9.55 18.55 10 18 10C17.45 10 17 9.55 17 9V8H16C15.45 8 15 7.55 15 7C15 6.45 15.45 6 16 6H17V5C17 4.45 17.45 4 18 4C18.55 4 19 4.45 19 5V6Z" fill="#898989"/>
</svg>
