<svg width="24" height="24" viewBox="0 0 24 24" fill="none" xmlns="http://www.w3.org/2000/svg">
    <path fill-rule="evenodd" clip-rule="evenodd" d="M2 12C2 6.486 6.486 2 12 2V4C7.589 4 4 7.589 4 12C4 14.4873 5.14114 16.7131 6.92734 18.1816C8.20368 16.8385 10.0061 16 12.0003 16C13.9944 16 15.7967 16.8384 17.073 18.1813C18.859 16.7129 20 14.4871 20 12C20 11.6614 19.9789 11.3277 19.9378 11H21.9504C21.9832 11.329 22 11.6626 22 12C22 17.514 17.514 22 12 22C6.486 22 2 17.514 2 12ZM15.3304 19.2734C14.4455 18.4818 13.2781 18 12.0003 18C10.7224 18 9.55489 18.4819 8.67002 19.2736C9.68443 19.7399 10.8124 20 12 20C13.1877 20 14.3159 19.7398 15.3304 19.2734ZM12 9C13.103 9 14 9.897 14 11C14 12.103 13.103 13 12 13C10.897 13 10 12.103 10 11C10 9.897 10.897 9 12 9ZM12 15C14.206 15 16 13.206 16 11C16 8.794 14.206 7 12 7C9.794 7 8 8.794 8 11C8 13.206 9.794 15 12 15Z" fill="#898989"/>
    <rect x="15" y="3" width="8" height="2" rx="1" fill="#898989"/>
    <rect x="20" width="8" height="2" rx="1" transform="rotate(90 20 0)" fill="#898989"/>
</svg>
