<svg width="24" height="24" viewBox="0 0 24 24" fill="none" xmlns="http://www.w3.org/2000/svg">
<path fill-rule="evenodd" clip-rule="evenodd" d="M12 5C13.103 5 14 5.897 14 7C14 8.103 13.103 9 12 9C10.897 9 10 8.103 10 7C10 5.897 10.897 5 12 5ZM12 11C14.206 11 16 9.206 16 7C16 4.794 14.206 3 12 3C9.794 3 8 4.794 8 7C8 9.206 9.794 11 12 11ZM12 13C8.141 13 5 16.14 5 20C5 20.552 5.447 21 6 21C6.553 21 7 20.552 7 20C7 17.243 9.243 15 12 15C14.757 15 17 17.243 17 20C17 20.552 17.447 21 18 21C18.553 21 19 20.552 19 20C19 16.14 15.859 13 12 13ZM22 6H23C23.55 6 24 6.45 24 7C24 7.55 23.55 8 23 8H22V9C22 9.55 21.55 10 21 10C20.45 10 20 9.55 20 9V8H19C18.45 8 18 7.55 18 7C18 6.45 18.45 6 19 6H20V5C20 4.45 20.45 4 21 4C21.55 4 22 4.45 22 5V6Z" fill="#898989"/>
</svg>
