<svg width="24" height="24" viewBox="0 0 24 24" fill="none" xmlns="http://www.w3.org/2000/svg">
<path fill-rule="evenodd" clip-rule="evenodd" d="M6.69824 14.63C5.01224 12.389 4.00024 9.613 4.00024 6.6C4.00024 5.166 5.16624 4 6.59924 4C6.70924 4 6.81724 4.007 6.92724 4.022L7.98824 8.642L7.81804 8.7308L7.81765 8.731C7.69274 8.79612 7.56495 8.86273 7.44324 8.927C6.57224 9.382 5.94324 9.711 6.26524 10.514C6.64124 11.584 7.18624 12.576 7.84424 13.484L9.27324 12.055C8.97124 11.609 8.70124 11.139 8.47424 10.645C9.71424 9.995 9.71824 9.992 9.85424 9.85C10.0882 9.607 10.1822 9.262 10.1072 8.934L8.73824 2.97C8.66124 2.634 8.41724 2.361 8.09224 2.249C7.85424 2.166 7.60824 2.105 7.36524 2.066C7.11624 2.023 6.86024 2 6.59924 2C4.06324 2 2.00024 4.064 2.00024 6.6C2.00024 10.166 3.22924 13.443 5.27124 16.057L6.69824 14.63ZM19.7393 4.2608C19.3923 3.9128 18.8303 3.9128 18.4823 4.2608L4.26034 18.4828C4.08734 18.6568 4.00034 18.8838 4.00034 19.1118C4.00034 19.3388 4.08734 19.5668 4.26034 19.7398C4.60734 20.0868 5.17034 20.0868 5.51734 19.7398L19.7393 5.5178C20.0873 5.1698 20.0873 4.6078 19.7393 4.2608ZM21.7505 15.9088C21.8325 16.1438 21.8955 16.3888 21.9355 16.6388C21.9775 16.8868 21.9995 17.1418 21.9995 17.4008C21.9995 19.9368 19.9365 21.9998 17.4005 21.9998C13.8335 21.9998 10.5565 20.7708 7.94354 18.7288L9.37054 17.3018C11.6115 18.9878 14.3865 19.9998 17.4005 19.9998C18.8335 19.9998 19.9995 18.8338 19.9995 17.4008C19.9995 17.2888 19.9935 17.1798 19.9785 17.0728L15.3585 16.0118L15.0735 16.5568L15.0689 16.5657C14.6163 17.4311 14.2886 18.0576 13.4465 17.7198C12.3935 17.3508 11.4135 16.8108 10.5125 16.1588L11.9425 14.7288C12.3895 15.0328 12.8605 15.3028 13.3545 15.5278C14.0036 14.2865 14.0075 14.2828 14.1499 14.1464L14.1505 14.1458C14.3935 13.9118 14.7375 13.8198 15.0665 13.8928L21.0305 15.2618C21.3665 15.3388 21.6385 15.5828 21.7505 15.9088Z" fill="#898989"/>
</svg>
