<svg width="24" height="24" viewBox="0 0 24 24" fill="none" xmlns="http://www.w3.org/2000/svg">
    <path fill-rule="evenodd" clip-rule="evenodd" d="M3.5 8C4.328 8 5 7.328 5 6.5C5 5.672 4.328 5 3.5 5C2.672 5 2 5.672 2 6.5C2 7.328 2.672 8 3.5 8ZM3.5 10.25C2.672 10.25 2 10.922 2 11.75C2 12.578 2.672 13.25 3.5 13.25C4.328 13.25 5 12.578 5 11.75C5 10.922 4.328 10.25 3.5 10.25ZM2 17C2 16.172 2.672 15.5 3.5 15.5C4.328 15.5 5 16.172 5 17C5 17.828 4.328 18.5 3.5 18.5C2.672 18.5 2 17.828 2 17Z" fill="#777777"/>
    <path fill-rule="evenodd" clip-rule="evenodd" d="M19.1155 4.4788L16.5552 7.03914C16.4358 7.1585 16.2858 7.24133 16.1259 7.2788L11.2171 8.39825L17.8269 15.008L18.9463 10.0992C18.9838 9.9393 19.0666 9.78931 19.186 9.66995L21.7463 7.10961L19.1155 4.4788ZM9.05588 7.41935C9.17288 7.30235 9.32129 7.21677 9.48452 7.18028L15.6544 5.77258L18.6225 2.80452C18.9487 2.47835 19.4555 2.45574 19.755 2.75528L23.4691 6.46939C23.7687 6.76892 23.7461 7.27576 23.4199 7.60193L20.4518 10.57L19.0447 16.7404C18.9782 17.0344 18.7561 17.2815 18.4674 17.3816C18.1805 17.4823 17.874 17.4193 17.6731 17.2183L9.00664 8.55189C8.80568 8.35094 8.7427 8.04451 8.84281 7.75699C8.88738 7.62902 8.96134 7.51389 9.05588 7.41935V7.41935Z" fill="#777777"/>
    <rect x="8.02051" y="17.0214" width="7.52084" height="1.6713" transform="rotate(-45 8.02051 17.0214)" fill="#777777"/>
</svg>
