<svg width="24" height="24" viewBox="0 0 24 24" fill="none" xmlns="http://www.w3.org/2000/svg">
<path fill-rule="evenodd" clip-rule="evenodd" d="M16.4013 4.6733L13.3374 7.73719C13.1945 7.88003 13.015 7.97914 12.8237 8.02398L6.94943 9.3636L14.8592 17.2734L16.1988 11.3991C16.2436 11.2077 16.3428 11.0282 16.4856 10.8854L19.5495 7.82151L16.4013 4.6733ZM4.36389 8.19227C4.5039 8.05226 4.6815 7.94985 4.87684 7.90619L12.2602 6.22162L15.812 2.66983C16.2023 2.2795 16.8089 2.25246 17.1673 2.6109L21.6119 7.05548C21.9703 7.41392 21.9433 8.02044 21.553 8.41077L18.0012 11.9626L16.3172 19.3466C16.2377 19.6984 15.9719 19.994 15.6265 20.1139C15.283 20.2343 14.9163 20.1589 14.6759 19.9185L4.30497 9.54756C4.06449 9.30708 3.98913 8.94039 4.10892 8.59632C4.16225 8.44318 4.25075 8.30541 4.36389 8.19227Z" fill="#898989"/>
<rect x="3.12622" y="19.6824" width="9" height="2" transform="rotate(-45 3.12622 19.6824)" fill="#898989"/>
</svg>
