<svg width="12" height="12" viewBox="0 0 12 12" fill="none" xmlns="http://www.w3.org/2000/svg">
    <path fill-rule="evenodd" clip-rule="evenodd" d="M6.00009 4.01441C5.81074 4.01441 5.65723 4.16791 5.65723 4.35727C5.65723 4.54662 5.81074 4.70013 6.00009 4.70013C6.18945 4.70013 6.34295 4.54662 6.34295 4.35727C6.34295 4.16791 6.18945 4.01441 6.00009 4.01441ZM4.62866 4.35727C4.62866 3.59985 5.24267 2.98584 6.00009 2.98584C6.75751 2.98584 7.37152 3.59985 7.37152 4.35727C7.37152 5.11469 6.75751 5.7287 6.00009 5.7287C5.24267 5.7287 4.62866 5.11469 4.62866 4.35727Z" fill="#777777"/>
    <path fill-rule="evenodd" clip-rule="evenodd" d="M9.42856 5.30006C9.2392 5.30006 9.0857 5.45356 9.0857 5.64291C9.0857 5.83227 9.2392 5.98577 9.42856 5.98577C9.61791 5.98577 9.77141 5.83227 9.77141 5.64291C9.77141 5.45356 9.61791 5.30006 9.42856 5.30006ZM8.05713 5.64291C8.05713 4.88549 8.67114 4.27148 9.42856 4.27148C10.186 4.27148 10.8 4.88549 10.8 5.64291C10.8 6.40033 10.186 7.01434 9.42856 7.01434C8.67114 7.01434 8.05713 6.40033 8.05713 5.64291Z" fill="#777777"/>
    <path fill-rule="evenodd" clip-rule="evenodd" d="M2.57138 5.30006C2.38203 5.30006 2.22852 5.45356 2.22852 5.64291C2.22852 5.83227 2.38203 5.98577 2.57138 5.98577C2.76073 5.98577 2.91424 5.83227 2.91424 5.64291C2.91424 5.45356 2.76073 5.30006 2.57138 5.30006ZM1.19995 5.64291C1.19995 4.88549 1.81396 4.27148 2.57138 4.27148C3.3288 4.27148 3.94281 4.88549 3.94281 5.64291C3.94281 6.40033 3.3288 7.01434 2.57138 7.01434C1.81396 7.01434 1.19995 6.40033 1.19995 5.64291Z" fill="#777777"/>
    <path d="M7.02852 8.21445C7.02852 7.64639 6.56802 7.18588 5.99995 7.18588C5.43189 7.18588 4.97138 7.64639 4.97138 8.21445L4.97148 9.5001C4.97148 9.87881 4.66448 10.1858 4.28577 10.1858C3.90706 10.1858 3.60006 9.87881 3.60006 9.5001C3.60006 8.93203 3.13955 8.47153 2.57148 8.47153C2.00342 8.47153 1.54291 8.93203 1.54291 9.5001C1.54291 9.87881 1.23591 10.1858 0.857199 10.1858C0.47849 10.1858 0.171485 9.87881 0.171485 9.5001C0.171485 8.17461 1.246 7.1001 2.57148 7.1001C2.99586 7.1001 3.39452 7.21025 3.74041 7.40351C4.07295 6.47708 4.95907 5.81445 5.99995 5.81445C7.04088 5.81445 7.92702 6.47713 8.25953 7.40362C8.60548 7.21029 9.0042 7.1001 9.42866 7.1001C10.7541 7.1001 11.8287 8.17461 11.8287 9.5001C11.8287 9.87881 11.5217 10.1858 11.1429 10.1858C10.7642 10.1858 10.4572 9.87881 10.4572 9.5001C10.4572 8.93203 9.99673 8.47153 9.42866 8.47153C8.8606 8.47153 8.40009 8.93203 8.40009 9.5001C8.40009 9.87881 8.09309 10.1858 7.71438 10.1858C7.33567 10.1858 7.02866 9.87881 7.02866 9.5001L7.02852 8.21445Z" fill="#777777"/>
</svg>
