<svg width="24" height="24" viewBox="0 0 24 24" fill="none" xmlns="http://www.w3.org/2000/svg">
    <path fill-rule="evenodd" clip-rule="evenodd" d="M12 7C11.4477 7 11 7.44772 11 8C11 8.55228 11.4477 9 12 9C12.5523 9 13 8.55228 13 8C13 7.44772 12.5523 7 12 7ZM15 8C15 9.65685 13.6569 11 12 11C10.3431 11 9 9.65685 9 8C9 6.34315 10.3431 5 12 5C13.6569 5 15 6.34315 15 8ZM18 11C18 10.4477 18.4477 10 19 10C19.5523 10 20 10.4477 20 11C20 11.5523 19.5523 12 19 12C18.4477 12 18 11.5523 18 11ZM19 14C20.6569 14 22 12.6569 22 11C22 9.34315 20.6569 8 19 8C17.3431 8 16 9.34315 16 11C16 12.6569 17.3431 14 19 14ZM21.2503 18.0159C21.7176 18.5454 22 19.2385 22 20C22 20.5523 22.4477 21 23 21C23.5523 21 24 20.5523 24 20C24 18.7326 23.5272 17.5733 22.7497 16.6924C21.835 15.6561 20.4935 15 19 15C18.2016 15 17.4469 15.1871 16.7773 15.52C16.1464 13.4811 14.2462 12 12 12C9.75384 12 7.85362 13.4811 7.22268 15.52C6.55314 15.1871 5.79843 15 5 15C3.59623 15 2.32611 15.5798 1.41911 16.5104C0.54199 17.4104 0 18.6429 0 20C0 20.5523 0.447715 21 1 21C1.55228 21 2 20.5523 2 20C2 19.1852 2.32354 18.4479 2.85138 17.9063C3.39746 17.346 4.15743 17 5 17C6.65685 17 8 18.3431 8 20C8 20.5523 8.44771 21 9 21C9.55228 21 10 20.5523 10 20C10 18.8742 9.62791 17.8353 9 16.9995C9.00026 15.3429 10.3433 14 12 14C13.6567 14 14.9997 15.3429 15 16.9995C14.3721 17.8353 14 18.8742 14 20C14 20.5523 14.4477 21 15 21C15.5523 21 16 20.5523 16 20C16 18.3431 17.3431 17 19 17C19.8959 17 20.6991 17.3914 21.2503 18.0159ZM5 10C4.44772 10 4 10.4477 4 11C4 11.5523 4.44772 12 5 12C5.55228 12 6 11.5523 6 11C6 10.4477 5.55228 10 5 10ZM8 11C8 12.6569 6.65685 14 5 14C3.34315 14 2 12.6569 2 11C2 9.34315 3.34315 8 5 8C6.65685 8 8 9.34315 8 11Z" fill="#777777"/>
</svg>
