<svg width="25" height="24" viewBox="0 0 25 24" fill="none" xmlns="http://www.w3.org/2000/svg">
<path fill-rule="evenodd" clip-rule="evenodd" d="M16.5 18V16H18.4995L18.5 18H16.5ZM18.5 20V18H20.4995L20.5 20H18.5ZM14.5 18V16H16.4995L16.5 18H14.5ZM14.5 20V18H16.4995L16.5 20H14.5ZM18.5 16V14H20.4995L20.5 16H18.5ZM16.5 8V6H18.4995L18.5 8H16.5ZM6.5 8V6H8.4995L8.5 8H6.5ZM6.5 18V16H8.4995L8.5 18H6.5ZM14.5 16V14H16.4995L16.5 16H14.5ZM5.5 19V15H9.5L9.501 19H5.5ZM9.5 13H5.5C4.397 13 3.5 13.897 3.5 15V19C3.5 20.103 4.397 21 5.5 21H9.5C10.603 21 11.5 20.103 11.5 19V15C11.5 13.897 10.603 13 9.5 13ZM15.5 9V5H19.5L19.501 9H15.5ZM19.5 3H15.5C14.397 3 13.5 3.897 13.5 5V9C13.5 10.103 14.397 11 15.5 11H19.5C20.603 11 21.5 10.103 21.5 9V5C21.5 3.897 20.603 3 19.5 3ZM5.5 9V5H9.5L9.501 9H5.5ZM9.5 3H5.5C4.397 3 3.5 3.897 3.5 5V9C3.5 10.103 4.397 11 5.5 11H9.5C10.603 11 11.5 10.103 11.5 9V5C11.5 3.897 10.603 3 9.5 3Z" fill="#007AFF"/>
</svg>
