<svg width="24" height="24" viewBox="0 0 24 24" fill="none" xmlns="http://www.w3.org/2000/svg">
<path d="M12.1 3C10.4 3 8.8 3.4 7.3 4C4.1 5.5 2 8.3 2 11.5C2 13.5 2.9 15.5 4.3 16.9C4.2 17.3 4 18.2 3.2 19.5C3.1 19.8 3 20.1 3.1 20.5C3.2 20.8 3.5 21.1 3.9 21.1C3.9 21.1 3.9 21.1 4 21.1C4.1 21.1 4.2 21.1 4.3 21.1C4.5 21.1 4.9 21.2 5.3 21.2C6.5 21.2 8.2 21 9.5 19.7C9.6 19.7 9.8 19.8 10 19.8C10.3 19.8 10.5 19.9 10.8 19.9C11.3 20 11.8 20 12.1 20C17.7 20 22.2 16.2 22.2 11.5C22.3 6.8 17.7 3 12.1 3ZM12.1 18C11.8 18 11.2 17.9 10.7 17.8C10.3 17.7 9.8 17.6 9.5 17.6C9.4 17.6 9.3 17.6 9.3 17.6C8.9 17.5 8.5 17.7 8.3 18C7.7 18.8 6.7 19.1 5.8 19.2C6.5 17.5 6.4 16.5 6.3 16.3C6.3 16.2 6.2 16.1 6.2 16C6.2 15.9 6.1 15.9 6.1 15.8C4.8 14.6 4.1 13 4.1 11.5C4.1 9.2 5.6 7.1 8.2 5.9C9.3 5.4 10.7 5.1 12.1 5.1C16.5 5.1 20.2 8.1 20.2 11.6C20.2 15.1 16.6 18 12.1 18Z" fill="#777777"/>
<path fill-rule="evenodd" clip-rule="evenodd" d="M9 9.5C9 7.57 10.57 6 12.5 6C14.43 6 16 7.57 16 9.5C16 11.08 14.94 12.403 13.5 12.837V13.5C13.5 14.053 13.053 14.5 12.5 14.5C11.947 14.5 11.5 14.053 11.5 13.5V12C11.5 11.447 11.947 11 12.5 11C13.327 11 14 10.327 14 9.5C14 8.673 13.327 8 12.5 8C11.673 8 11 8.673 11 9.5C11 10.053 10.553 10.5 10 10.5C9.447 10.5 9 10.053 9 9.5ZM11.5 16C11.5 15.447 11.947 15 12.5 15C13.053 15 13.5 15.447 13.5 16C13.5 16.553 13.053 17 12.5 17C11.947 17 11.5 16.553 11.5 16Z" fill="#777777"/>
</svg>
