<svg width="16" height="16" viewBox="0 0 16 16" fill="none" xmlns="http://www.w3.org/2000/svg">
    <path fill-rule="evenodd" clip-rule="evenodd" d="M5.66683 6.33398C5.66683 5.04732 6.7135 4.00065 8.00016 4.00065C9.28683 4.00065 10.3335 5.04732 10.3335 6.33398C10.3335 7.38732 9.62683 8.26932 8.66683 8.55865V9.33398C8.66683 9.70265 8.36883 10.0007 8.00016 10.0007C7.6315 10.0007 7.3335 9.70265 7.3335 9.33398V8.00065C7.3335 7.63198 7.6315 7.33398 8.00016 7.33398C8.5515 7.33398 9.00016 6.88532 9.00016 6.33398C9.00016 5.78265 8.5515 5.33398 8.00016 5.33398C7.44883 5.33398 7.00016 5.78265 7.00016 6.33398C7.00016 6.70265 6.70216 7.00065 6.3335 7.00065C5.96483 7.00065 5.66683 6.70265 5.66683 6.33398ZM7.3335 11.334C7.3335 10.9653 7.6315 10.6673 8.00016 10.6673C8.36883 10.6673 8.66683 10.9653 8.66683 11.334C8.66683 11.7027 8.36883 12.0007 8.00016 12.0007C7.6315 12.0007 7.3335 11.7027 7.3335 11.334ZM8.00016 13.334C5.0595 13.334 2.66683 10.9413 2.66683 8.00065C2.66683 5.05998 5.0595 2.66732 8.00016 2.66732C10.9408 2.66732 13.3335 5.05998 13.3335 8.00065C13.3335 10.9413 10.9408 13.334 8.00016 13.334ZM8.00016 1.33398C4.32416 1.33398 1.3335 4.32465 1.3335 8.00065C1.3335 11.6767 4.32416 14.6673 8.00016 14.6673C11.6762 14.6673 14.6668 11.6767 14.6668 8.00065C14.6668 4.32465 11.6762 1.33398 8.00016 1.33398Z" fill="#898989"/>
</svg>
