<svg width="24" height="24" viewBox="0 0 24 24" fill="none" xmlns="http://www.w3.org/2000/svg">
    <path fill-rule="evenodd" clip-rule="evenodd" d="M9.70276 4.33473C6.71274 5.22954 4.45768 7.82607 4.06189 11H7.3077C7.33169 10.7553 7.36235 10.513 7.39923 10.2731C7.75357 7.96844 8.67546 5.92237 9.70276 4.33473ZM9.61007 19.6369C6.66621 18.7166 4.45358 16.1411 4.06189 13H7.26719C7.39305 15.145 8.08017 17.4061 9.61007 19.6369ZM12.4337 4.01155C11.193 5.44445 9.80129 7.8109 9.376 10.5771C8.93945 13.4165 9.50925 16.7272 12.4285 19.9887C16.3133 19.7837 19.4633 16.8073 19.9381 13H19C18.4477 13 18 12.5523 18 12C18 11.4477 18.4477 11 19 11H19.9381C19.4636 7.19443 16.3161 4.21895 12.4337 4.01155ZM2 12C2 6.47715 6.47715 2 12 2C17.5228 2 22 6.47715 22 12C22 17.5228 17.5228 22 12 22C6.47715 22 2 17.5228 2 12ZM16 11H13V8C13 7.447 12.552 7 12 7C11.448 7 11 7.447 11 8V12C11 12.553 11.448 13 12 13H16C16.553 13 17 12.553 17 12C17 11.447 16.553 11 16 11Z" fill="#898989"/>
</svg>
