<svg width="21" height="32" viewBox="0 0 21 32" fill="none" xmlns="http://www.w3.org/2000/svg">
    <path opacity="0.6" d="M18.8213 3.25461C16.1777 3.25461 13.6843 3.74551 11.6206 4.68357L11.6138 4.68668C6.87155 6.81583 3.96555 10.6358 3.96555 14.8557C3.96555 17.71 5.31088 20.5437 7.53237 22.5801C7.66309 22.7106 7.93942 23.0449 7.99895 23.3379L8.00049 23.3434L8.00369 23.355L8.01054 23.381C8.01528 23.3994 8.02034 23.4201 8.02561 23.4432C8.03613 23.4893 8.04742 23.5445 8.0584 23.6089C8.08038 23.7376 8.10099 23.9021 8.11181 24.1017C8.13351 24.5018 8.11546 25.0365 7.99413 25.6998C7.84257 26.5284 7.53266 27.543 6.95181 28.7363C7.15021 28.7285 7.35486 28.7153 7.56352 28.6953C9.28179 28.5305 10.949 27.9457 11.9139 26.5353C12.2874 25.9894 12.9542 25.7239 13.6008 25.8637L13.6405 25.8722L13.7616 25.8978C13.8675 25.9201 14.0215 25.9521 14.2115 25.9905C14.5923 26.0677 15.1149 26.1702 15.684 26.2726C16.8768 26.487 18.0984 26.6668 18.7163 26.6668C19.615 26.6668 20.3436 27.3954 20.3436 28.2941C20.3436 29.1929 19.615 29.9214 18.7163 29.9214C17.7594 29.9214 16.2513 29.6813 15.1081 29.4758C14.6639 29.3959 14.2481 29.3162 13.9011 29.2476C12.1441 31.1359 9.72728 31.7573 7.87419 31.935C6.79137 32.0389 5.81503 32.0014 5.11214 31.9395C4.75859 31.9083 4.4687 31.8705 4.26244 31.8395C3.87742 31.8166 3.03045 31.577 2.7228 30.8023C2.51586 30.2986 2.57457 29.7248 2.87923 29.2735C4.19052 27.3308 4.64211 25.937 4.79264 25.1142C4.83675 24.8731 4.85565 24.6776 4.86219 24.5279C2.31578 21.9773 0.710938 18.5008 0.710938 14.8557C0.710938 8.99812 4.73246 4.20985 10.2773 1.71912C12.8322 0.558475 15.7969 0 18.8213 0C19.72 0 20.4486 0.72857 20.4486 1.62731C20.4486 2.52604 19.72 3.25461 18.8213 3.25461Z" fill="white"/>
</svg>
