<svg width="16" height="16" viewBox="0 0 16 16" fill="none" xmlns="http://www.w3.org/2000/svg">
    <path fill-rule="evenodd" clip-rule="evenodd" d="M13.9977 7.31607H13.9997C14.367 7.31607 14.6657 7.6134 14.6664 7.98074C14.6717 9.7614 13.983 11.4381 12.727 12.7007C11.4717 13.9634 9.7997 14.6614 8.01904 14.6667H7.9997C6.2257 14.6667 4.55704 13.9787 3.29904 12.7274C2.03637 11.4721 1.33837 9.80007 1.33304 8.0194C1.32771 6.23807 2.01637 4.56207 3.27237 3.2994C4.52771 2.03674 6.19971 1.33874 7.98037 1.3334C8.51037 1.3414 9.05037 1.39474 9.5677 1.51874C9.92504 1.6054 10.1457 1.9654 10.059 2.3234C9.97304 2.68074 9.61104 2.90074 9.25504 2.8154C8.84104 2.7154 8.4017 2.6734 7.98437 2.66674C6.5597 2.67074 5.2217 3.2294 4.21771 4.2394C3.21304 5.2494 2.66237 6.59074 2.66637 8.0154C2.67037 9.44007 3.22904 10.7774 4.23904 11.7821C5.2457 12.7827 6.58037 13.3334 7.9997 13.3334H8.01504C9.4397 13.3294 10.7777 12.7707 11.7817 11.7607C12.7864 10.7501 13.337 9.4094 13.333 7.98474C13.3324 7.61674 13.6297 7.31674 13.9977 7.31607ZM5.52837 7.52867C5.78904 7.268 6.21037 7.268 6.47104 7.52867L7.96704 9.02467L12.165 4.22734C12.4077 3.952 12.8284 3.92267 13.1057 4.16534C13.3824 4.40734 13.4104 4.82867 13.1677 5.106L8.50104 10.4393C8.37971 10.578 8.20637 10.66 8.02171 10.6667H7.99971C7.82304 10.6667 7.65371 10.5967 7.52837 10.4713L5.52837 8.47134C5.26771 8.21067 5.26771 7.78934 5.52837 7.52867Z" fill="#898989"/>
</svg>
