<svg width="25" height="24" viewBox="0 0 25 24" fill="none" xmlns="http://www.w3.org/2000/svg">
<path fill-rule="evenodd" clip-rule="evenodd" d="M18.5 19C17.948 19 17.5 18.552 17.5 18C17.5 17.448 17.948 17 18.5 17C19.052 17 19.5 17.448 19.5 18C19.5 18.552 19.052 19 18.5 19ZM5.5 13C4.948 13 4.5 12.552 4.5 12C4.5 11.448 4.948 11 5.5 11C6.052 11 6.5 11.448 6.5 12C6.5 12.552 6.052 13 5.5 13ZM18.5 5C19.052 5 19.5 5.448 19.5 6C19.5 6.552 19.052 7 18.5 7C17.948 7 17.5 6.552 17.5 6C17.5 5.448 17.948 5 18.5 5ZM18.5 15C17.683 15 16.943 15.33 16.401 15.861L8.466 12.335C8.479 12.224 8.5 12.114 8.5 12C8.5 11.886 8.479 11.776 8.466 11.665L16.401 8.139C16.943 8.67 17.683 9 18.5 9C20.154 9 21.5 7.654 21.5 6C21.5 4.346 20.154 3 18.5 3C16.846 3 15.5 4.346 15.5 6C15.5 6.114 15.521 6.224 15.534 6.335L7.599 9.861C7.057 9.33 6.317 9 5.5 9C3.846 9 2.5 10.346 2.5 12C2.5 13.654 3.846 15 5.5 15C6.317 15 7.057 14.67 7.599 14.139L15.534 17.665C15.521 17.776 15.5 17.886 15.5 18C15.5 19.654 16.846 21 18.5 21C20.154 21 21.5 19.654 21.5 18C21.5 16.346 20.154 15 18.5 15Z" fill="#007AFF"/>
</svg>
