<svg width="24" height="24" viewBox="0 0 24 24" fill="none" xmlns="http://www.w3.org/2000/svg">
<path fill-rule="evenodd" clip-rule="evenodd" d="M3.77876 21C4.23976 21 4.64076 20.685 4.75076 20.237C5.63976 16.588 8.77076 13.952 12.5458 13.553V14.674C12.5458 15.38 12.9648 16.009 13.6378 16.314C14.3698 16.647 15.2218 16.527 15.8148 16.01L20.8818 11.586C21.2738 11.242 21.4998 10.755 21.4998 10.25C21.4998 9.74498 21.2738 9.25798 20.8818 8.91398L15.8148 4.48998C15.2218 3.97298 14.3698 3.85298 13.6378 4.18598C12.9648 4.49098 12.5458 5.11998 12.5458 5.82598V7.04398C6.92176 7.53698 2.49976 12.15 2.49976 17.75C2.49976 18.56 2.60276 19.396 2.80676 20.236C2.91576 20.685 3.31676 21 3.77876 21" fill="#898989"/>
</svg>
