<svg width="24" height="24" viewBox="0 0 24 24" fill="none" xmlns="http://www.w3.org/2000/svg">
<g id=" Fill / skip-back">
<path id="Verctor" fill-rule="evenodd" clip-rule="evenodd" d="M17.0228 5.23612C16.1666 4.8337 15.1541 4.95268 14.4461 5.53939L8.49733 10.4536C8.43551 10.5049 8.38768 10.5644 8.33286 10.6215V6.1681C8.33286 5.52306 7.8103 5.00167 7.16643 5.00167C6.52256 5.00167 6 5.52306 6 6.1681V17.8324C6 18.4774 6.52256 18.9988 7.16643 18.9988C7.8103 18.9988 8.33286 18.4774 8.33286 17.8324V13.3778C8.38768 13.435 8.43551 13.4956 8.49733 13.5469L14.4461 18.4623C14.8754 18.8169 15.4166 19 15.966 19C16.3241 19 16.6857 18.9218 17.0228 18.7644C17.7774 18.4075 18.2475 17.6994 18.2475 16.9144V7.08608C18.2475 6.30107 17.7774 5.59305 17.0228 5.23612" fill="#898989"/>
</g>
</svg>
