<svg width="24" height="24" viewBox="0 0 24 24" fill="none" xmlns="http://www.w3.org/2000/svg">
<g id=" Fill / skip-forward">
<path id="Verctor" fill-rule="evenodd" clip-rule="evenodd" d="M17.081 5.00174C16.4372 5.00174 15.9146 5.52313 15.9146 6.16817V10.6216C15.8598 10.5656 15.812 10.5049 15.749 10.4536L9.80138 5.5383C9.09102 4.95275 8.07857 4.83378 7.22475 5.23619C6.4689 5.59312 6 6.30114 6 7.08614V16.9144C6 17.6994 6.4689 18.4075 7.22475 18.7644C7.56184 18.923 7.92343 19 8.28153 19C8.83091 19 9.37213 18.8169 9.80138 18.4611L15.7501 13.547C15.812 13.4956 15.8598 13.435 15.9146 13.379V17.8324C15.9146 18.4774 16.4372 18.9988 17.081 18.9988C17.7249 18.9988 18.2475 18.4774 18.2475 17.8324V6.16817C18.2475 5.52313 17.7249 5.00174 17.081 5.00174Z" fill="#898989"/>
</g>
</svg>
