<svg width="24" height="24" viewBox="0 0 24 24" fill="none" xmlns="http://www.w3.org/2000/svg">
    <path d="M12.5 18L7.97567 6H6.0416L1.5 18H3.53768L4.52198 15.3086H9.40895L10.3932 18H12.5ZM8.75275 13.4743H5.17818L6.9741 8.55429L8.75275 13.4743Z" fill="#898989"/>
    <path fill-rule="evenodd" clip-rule="evenodd" d="M19.5 7.00049L19.5002 15.6434L20.8053 14.3834C21.2032 14.0004 21.8363 14.0114 22.2193 14.4084C22.6033 14.8064 22.5922 15.4394 22.1953 15.8224L19.1953 18.7194C19.0002 18.9054 18.7502 18.9994 18.5002 18.9994C18.2442 18.9994 17.9883 18.9024 17.7933 18.7064L14.7932 15.7064C14.4022 15.3164 14.4022 14.6834 14.7932 14.2924C15.1832 13.9024 15.8162 13.9024 16.2072 14.2924L17.5 15.5852L17.5 6.00049C17.5 5.40049 17.9 5.00049 18.5 5.00049C19.1 5.00049 19.5 5.50049 19.5 6.00049L19.5 7.00049Z" fill="#898989"/>
</svg>
