<svg width="24" height="24" viewBox="0 0 24 24" fill="none" xmlns="http://www.w3.org/2000/svg">
    <path fill-rule="evenodd" clip-rule="evenodd" d="M10.6429 7.14286C10.6429 8.87614 9.23336 10.2857 7.50008 10.2857C5.76679 10.2857 4.35722 8.87614 4.35722 7.14286C4.35722 5.40957 5.76679 4 7.50008 4C9.23336 4 10.6429 5.40957 10.6429 7.14286ZM9.07138 7.14284C9.07138 6.27619 8.36659 5.57141 7.49995 5.57141C6.63331 5.57141 5.92852 6.27619 5.92852 7.14284C5.92852 8.00948 6.63331 8.71427 7.49995 8.71427C8.36659 8.71427 9.07138 8.00948 9.07138 7.14284Z" fill="#626262"/>
    <path d="M2 17.357C2 14.3241 4.46793 11.857 7.5 11.857C10.5321 11.857 13 14.3241 13 17.357C13 17.7907 12.6488 18.1427 12.2143 18.1427C11.7798 18.1427 11.4286 17.7907 11.4286 17.357C11.4286 15.1907 9.66621 13.4284 7.5 13.4284C5.33379 13.4284 3.57143 15.1907 3.57143 17.357C3.57143 17.7907 3.22021 18.1427 2.78571 18.1427C2.35121 18.1427 2 17.7907 2 17.357Z" fill="#626262"/>
    <path fill-rule="evenodd" clip-rule="evenodd" d="M10.6429 7.14286C10.6429 8.87614 9.23336 10.2857 7.50008 10.2857C5.76679 10.2857 4.35722 8.87614 4.35722 7.14286C4.35722 5.40957 5.76679 4 7.50008 4C9.23336 4 10.6429 5.40957 10.6429 7.14286ZM9.07138 7.14284C9.07138 6.27619 8.36659 5.57141 7.49995 5.57141C6.63331 5.57141 5.92852 6.27619 5.92852 7.14284C5.92852 8.00948 6.63331 8.71427 7.49995 8.71427C8.36659 8.71427 9.07138 8.00948 9.07138 7.14284Z" stroke="#626262" stroke-width="0.5"/>
    <path d="M2 17.357C2 14.3241 4.46793 11.857 7.5 11.857C10.5321 11.857 13 14.3241 13 17.357C13 17.7907 12.6488 18.1427 12.2143 18.1427C11.7798 18.1427 11.4286 17.7907 11.4286 17.357C11.4286 15.1907 9.66621 13.4284 7.5 13.4284C5.33379 13.4284 3.57143 15.1907 3.57143 17.357C3.57143 17.7907 3.22021 18.1427 2.78571 18.1427C2.35121 18.1427 2 17.7907 2 17.357Z" stroke="#626262" stroke-width="0.5"/>
    <path fill-rule="evenodd" clip-rule="evenodd" d="M20 6.07031L20.0002 14.7133L21.3053 13.4533C21.7032 13.0703 22.3363 13.0813 22.7193 13.4783C23.1033 13.8763 23.0922 14.5093 22.6953 14.8923L19.6953 17.7893C19.5002 17.9753 19.2502 18.0693 19.0002 18.0693C18.7442 18.0693 18.4883 17.9723 18.2933 17.7763L15.2932 14.7763C14.9022 14.3863 14.9022 13.7533 15.2932 13.3623C15.6832 12.9723 16.3162 12.9723 16.7072 13.3623L18 14.655L18 5.07031C18 4.47031 18.4 4.07031 19 4.07031C19.6 4.07031 20 4.57031 20 5.07031L20 6.07031Z" fill="#626262"/>
</svg>
