<svg xmlns="http://www.w3.org/2000/svg" xmlns:xlink="http://www.w3.org/1999/xlink" version="1.1" id="Слой_1" x="0px" y="0px" viewBox="0 0 24 24" style="enable-background:new 0 0 24 24;" xml:space="preserve">
<style type="text/css">
	.st0{fill:#898989;}
</style>
    <path class="st0" d="M20.5,15.6l1.3-1.3c0.4-0.4,1-0.4,1.4,0c0.4,0.4,0.4,1,0,1.4l-3,2.9C20,18.9,19.8,19,19.5,19  c-0.3,0-0.5-0.1-0.7-0.3l-3-3c-0.4-0.4-0.4-1,0-1.4c0.4-0.4,1-0.4,1.4,0l1.3,1.3V6c0-0.6,0.4-1,1-1s1,0.5,1,1L20.5,15.6z"/>
    <g>
	<path class="st0" d="M7.5,5C6.3,5,5,5.2,4,5.7l0,0c-2.2,1-4,3-4,5.5c0,1.6,0.6,2.9,1.6,4c0,0,0,0,0,0.1c-0.1,0.3-0.2,0.8-0.7,1.5   c-0.2,0.3-0.2,0.6-0.1,0.9c0.1,0.3,0.4,0.5,0.7,0.6l0,0l0,0l0,0l0,0c0,0,0.1,0,0.1,0c0.1,0,0.2,0,0.4,0c0.3,0,0.7,0,1.2,0   c0.7-0.1,1.7-0.3,2.5-1.1c0.1,0,0.2,0,0.3,0.1c0.5,0.1,1.1,0.2,1.5,0.2c3.9,0,7.5-2.5,7.5-6.2C15,7.7,11.5,5,7.5,5z M7.5,15.5   c-0.2,0-0.7-0.1-1.2-0.1c-0.2,0-0.4-0.1-0.6-0.1c-0.1,0-0.1,0-0.2,0l0,0l0,0c-0.4-0.1-0.8,0.1-1,0.4c-0.2,0.4-0.6,0.6-1.1,0.7   c0.1-0.2,0.1-0.5,0.2-0.6c0.1-0.3,0.1-0.5,0.1-0.7c0-0.1,0-0.2,0-0.2c0,0,0-0.1,0-0.1c0,0,0,0,0,0l0,0l0,0l0,0l0,0l0,0   c0-0.2-0.1-0.4-0.3-0.5C2.5,13.2,2,12.3,2,11.2c0-1.5,1.1-2.9,2.8-3.7C5.6,7.2,6.5,7,7.5,7c3.2,0,5.5,2.1,5.5,4.3   C13,13.4,10.8,15.5,7.5,15.5z"/>
</g>
</svg>
