<svg xmlns="http://www.w3.org/2000/svg" width="24" height="24" viewBox="0 0 24 24" fill="none">
    <path fill-rule="evenodd" clip-rule="evenodd" d="M20.5002 15.643L21.8053 14.383C22.2032 14 22.8363 14.011 23.2193 14.408C23.6033 14.806 23.5922 15.439 23.1953 15.822L20.1953 18.719C20.0002 18.905 19.7502 18.999 19.5002 18.999C19.2442 18.999 18.9883 18.902 18.7933 18.706L15.7932 15.706C15.4022 15.316 15.4022 14.683 15.7932 14.292C16.1832 13.902 16.8162 13.902 17.2072 14.292L18.5 15.5847V6C18.5 5.4 18.9 5 19.5 5C20.1 5 20.5 5.5 20.5 6L20.5002 15.643Z" fill="#898989"/>
    <path fill-rule="evenodd" clip-rule="evenodd" d="M4.80822 7.51289C3.05017 8.30476 2 9.70912 2 11.2C2 12.2837 2.45514 13.2409 3.30711 14.0929C3.44159 14.2274 3.53493 14.3974 3.57619 14.5831L3.57651 14.5845L3.57685 14.5861L3.57751 14.5891L3.57888 14.5955L3.58171 14.6095C3.58363 14.6192 3.58562 14.63 3.58762 14.6416C3.59162 14.665 3.59566 14.6921 3.59935 14.7229C3.60674 14.7846 3.61267 14.861 3.61396 14.9513C3.61655 15.1326 3.60045 15.3675 3.54196 15.6517C3.50172 15.8471 3.44195 16.0633 3.35595 16.2993C3.83285 16.1986 4.23033 15.9907 4.47596 15.6335C4.7001 15.3074 5.09538 15.1442 5.48424 15.2171L5.50021 15.2201L5.54956 15.2292C5.59278 15.237 5.65565 15.2484 5.73316 15.2621C5.88848 15.2895 6.10104 15.3259 6.33096 15.3622C6.82293 15.4399 7.2928 15.5 7.5 15.5C10.7702 15.5 13 13.4489 13 11.3C13 9.12957 10.7435 7 7.5 7C6.51096 7 5.55532 7.1813 4.80822 7.51289ZM5.68691 17.2836C5.79006 17.3009 5.90226 17.3193 6.01904 17.3378C6.47707 17.4101 7.1072 17.5 7.5 17.5C11.4298 17.5 15 14.9511 15 11.3C15 7.67043 11.4565 5 7.5 5C6.28996 5 5.04646 5.21837 3.99386 5.68619L3.98964 5.68808C1.74897 6.69638 0 8.69148 0 11.2C0 12.7623 0.617225 14.098 1.59393 15.1911C1.59079 15.2091 1.58719 15.2282 1.58304 15.2483C1.52549 15.5279 1.35929 16.0304 0.875958 16.7335C0.685523 17.0105 0.646996 17.3646 0.773411 17.6761C0.899826 17.9875 1.17427 18.2147 1.50388 18.2806L1.50704 18.2812L1.51114 18.282L1.52212 18.2841L1.55493 18.2901C1.58149 18.2948 1.61739 18.3007 1.66163 18.3074C1.74995 18.3206 1.87248 18.3364 2.02118 18.3494C2.31602 18.375 2.72701 18.3903 3.18539 18.3452C3.92291 18.2727 4.91662 18.0276 5.68691 17.2836Z" fill="#898989"/>
</svg>
