<svg width="25" height="24" viewBox="0 0 25 24" fill="none" xmlns="http://www.w3.org/2000/svg">
    <path d="M3.2659 18.4995C2.69942 18.4995 2.33526 18.4145 2.2948 18.4145C2.09249 18.3721 1.89017 18.2021 1.80925 17.9897C1.72832 17.7773 1.76879 17.5224 1.84971 17.3525C2.45665 16.3753 2.57803 15.7381 2.6185 15.4407C1.60694 14.3786 1 12.9342 1 11.5322C1 9.32304 2.41619 7.28383 4.68208 6.22173C5.69364 5.75441 6.82659 5.49951 8 5.49951C11.8439 5.49951 15 8.21847 15 11.5747C15 14.9309 11.8844 17.6498 8 17.6498C7.51445 17.6498 6.66474 17.4799 6.13873 17.3949C5.28902 18.3296 4.07514 18.4995 3.2659 18.4995ZM8 6.85899C7.0289 6.85899 6.0578 7.07141 5.24856 7.45376C3.42775 8.30343 2.33526 9.83285 2.33526 11.5322C2.33526 12.6793 2.82081 13.8263 3.71098 14.6335C3.75145 14.761 3.83237 14.8459 3.87283 14.9734C3.91329 15.1433 4.03468 15.8655 3.46821 17.14C4.11561 17.0976 4.92486 16.9276 5.36994 16.2479C5.53179 16.0355 5.77457 15.908 6.01734 15.993C6.42197 16.0779 7.55491 16.3328 8 16.3328C11.1561 16.3328 13.7052 14.2087 13.7052 11.6172C13.7052 9.02566 11.1156 6.85899 8 6.85899Z" fill="#898989" stroke="#898989" stroke-width="0.5"/>
    <path fill-rule="evenodd" clip-rule="evenodd" d="M22 7L22.0002 15.643L23.3053 14.383C23.7032 14 24.3363 14.011 24.7193 14.408C25.1033 14.806 25.0922 15.439 24.6953 15.822L21.6953 18.719C21.5002 18.905 21.2502 18.999 21.0002 18.999C20.7442 18.999 20.4883 18.902 20.2933 18.706L17.2932 15.706C16.9022 15.316 16.9022 14.683 17.2932 14.292C17.6832 13.902 18.3162 13.902 18.7072 14.292L20 15.5847L20 6C20 5.4 20.4 5 21 5C21.6 5 22 5.5 22 6L22 7Z" fill="#898989"/>
</svg>
