<svg xmlns="http://www.w3.org/2000/svg" width="24" height="24" viewBox="0 0 24 24" fill="none">
    <path d="M13 18L8.47567 6H6.5416L2 18H4.03768L5.02198 15.3086H9.90895L10.8932 18H13ZM9.25275 13.4743H5.67818L7.4741 8.55429L9.25275 13.4743Z" fill="#898989"/>
    <path fill-rule="evenodd" clip-rule="evenodd" d="M20.5 7.00049L20.5002 15.6434L21.8053 14.3834C22.2032 14.0004 22.8363 14.0114 23.2193 14.4084C23.6033 14.8064 23.5922 15.4394 23.1953 15.8224L20.1953 18.7194C20.0002 18.9054 19.7502 18.9994 19.5002 18.9994C19.2442 18.9994 18.9883 18.9024 18.7933 18.7064L15.7932 15.7064C15.4022 15.3164 15.4022 14.6834 15.7932 14.2924C16.1832 13.9024 16.8162 13.9024 17.2072 14.2924L18.5 15.5852L18.5 6.00049C18.5 5.40049 18.9 5.00049 19.5 5.00049C20.1 5.00049 20.5 5.50049 20.5 6.00049L20.5 7.00049Z" fill="#898989"/>
</svg>
