<svg xmlns="http://www.w3.org/2000/svg" width="24" height="24" viewBox="0 0 24 24" fill="none">
    <path d="M7 5C3.1 5 0 8.1 0 12C0 15.9 3.1 19 7 19C10.9 19 14 15.9 14 12C14 8.1 10.9 5 7 5ZM7 17.1C4.2 17.1 1.9 14.8 1.9 12C1.9 9.2 4.2 6.9 7 6.9C9.8 6.9 12.1 9.2 12.1 12C12.1 14.8 9.8 17.1 7 17.1Z" fill="#898989"/>
    <path d="M10.3 11.2H7.8V8.7C7.8 8.2 7.4 7.9 7 7.9C6.6 7.9 6.2 8.3 6.2 8.7V12C6.2 12.5 6.6 12.8 7 12.8H10.3C10.8 12.8 11.1 12.4 11.1 12C11.1 11.6 10.7 11.2 10.3 11.2Z" fill="#898989"/>
    <path d="M20 5.5V16.1L21.3 14.8C21.7 14.4 22.3 14.4 22.7 14.8C23.1 15.2 23.1 15.8 22.7 16.2L19.7 19.1C19.5 19.4 19.3 19.5 19 19.5C18.7 19.5 18.5 19.4 18.3 19.2L15.3 16.2C14.9 15.8 14.9 15.2 15.3 14.8C15.7 14.4 16.3 14.4 16.7 14.8L18 16.1V5.5C18 4.9 18.4 4.5 19 4.5C19.6 4.5 20 5 20 5.5Z" fill="#898989"/>
</svg>
