<svg width="23" height="23" viewBox="0 0 23 23" fill="none" xmlns="http://www.w3.org/2000/svg">
    <path fill-rule="evenodd" clip-rule="evenodd" d="M10.2667 10.6829H7.81668V8.23293C7.81668 7.78131 7.45082 7.41626 7.00002 7.41626C6.54922 7.41626 6.18335 7.78131 6.18335 8.23293V11.4996C6.18335 11.9512 6.54922 12.3163 7.00002 12.3163H10.2667C10.7183 12.3163 11.0833 11.9512 11.0833 11.4996C11.0833 11.048 10.7183 10.6829 10.2667 10.6829" fill="#898989"/>
    <path fill-rule="evenodd" clip-rule="evenodd" d="M7 16.6328C9.83506 16.6328 12.1333 14.3346 12.1333 11.4995C12.1333 8.66445 9.83506 6.36618 7 6.36618C4.16494 6.36618 1.86667 8.66445 1.86667 11.4995C1.86667 14.3346 4.16494 16.6328 7 16.6328ZM7 18.4995C10.866 18.4995 14 15.3655 14 11.4995C14 7.63352 10.866 4.49951 7 4.49951C3.13401 4.49951 0 7.63352 0 11.4995C0 15.3655 3.13401 18.4995 7 18.4995Z" fill="#898989"/>
    <path fill-rule="evenodd" clip-rule="evenodd" d="M20 5L20.0002 15.643L21.3053 14.383C21.7032 14 22.3363 14.011 22.7192 14.408C23.1033 14.806 23.0922 15.439 22.6952 15.822L19.6952 18.719C19.5002 18.905 19.2502 18.999 19.0002 18.999C18.7442 18.999 18.4882 18.902 18.2932 18.706L15.2932 15.706C14.9022 15.316 14.9022 14.683 15.2932 14.292C15.6832 13.902 16.3162 13.902 16.7072 14.292L18.0002 15.585V15.4993C18.0001 15.4996 18 15.4998 18 15.5L18 5C18 4.4 18.4 4 19 4C19.6 4 20 4.5 20 5Z" fill="#898989"/>
</svg>
