<svg width="24" height="24" viewBox="0 0 24 24" fill="none" xmlns="http://www.w3.org/2000/svg">
<path fill-rule="evenodd" clip-rule="evenodd" d="M12 20C7.589 20 4 16.411 4 12C4 7.589 7.589 4 12 4C16.411 4 20 7.589 20 12C20 16.411 16.411 20 12 20ZM12 2C6.477 2 2 6.477 2 12C2 17.523 6.477 22 12 22C17.522 22 22 17.523 22 12C22 6.477 17.522 2 12 2ZM7 9.4C7 8.6272 7.6272 8 8.4 8C9.1728 8 9.8 8.6272 9.8 9.4C9.8 10.1728 9.1728 10.8 8.4 10.8C7.6272 10.8 7 10.1728 7 9.4ZM14.3333 9.4C14.3333 8.6272 14.9605 8 15.7333 8C16.5061 8 17.1333 8.6272 17.1333 9.4C17.1333 10.1728 16.5061 10.8 15.7333 10.8C14.9605 10.8 14.3333 10.1728 14.3333 9.4ZM6.19995 13C6.19995 12.5581 6.55812 12.2 6.99995 12.2H17C17.4418 12.2 17.8 12.5581 17.8 13C17.8 16.2032 15.2032 18.8 12 18.8C8.7967 18.8 6.19995 16.2032 6.19995 13ZM12 17.2C9.95392 17.2 8.24959 15.7369 7.87605 13.8H16.1239C15.7503 15.7369 14.046 17.2 12 17.2Z" fill="#898989"/>
</svg>
