<svg width="24" height="24" viewBox="0 0 24 24" fill="none" xmlns="http://www.w3.org/2000/svg">
<path fill-rule="evenodd" clip-rule="evenodd" d="M18 19C18 19.551 17.552 20 17 20H7C6.448 20 6 19.551 6 19V8H18V19ZM10 4.328C10 4.173 10.214 4 10.5 4H13.5C13.786 4 14 4.173 14 4.328V6H10V4.328ZM21 6H20H16V4.328C16 3.044 14.879 2 13.5 2H10.5C9.121 2 8 3.044 8 4.328V6H4H3C2.45 6 2 6.45 2 7C2 7.55 2.45 8 3 8H4V19C4 20.654 5.346 22 7 22H17C18.654 22 20 20.654 20 19V8H21C21.55 8 22 7.55 22 7C22 6.45 21.55 6 21 6Z" fill="#898989"/>
</svg>
