<svg width="24" height="24" viewBox="0 0 24 24" fill="none" xmlns="http://www.w3.org/2000/svg">
<path d="M19.2 8.29992C18.7 8.19992 18.1 8.49992 18 8.99992L15 19.9999H11.9H8.80002L5.80002 8.99992C5.70002 8.49992 5.10002 8.19992 4.60002 8.29992C4.10002 8.49992 3.80002 8.99992 3.90002 9.49992L7.00002 21.1999C7.10002 21.5999 7.50002 21.8999 8.00002 21.8999H11.9H15.8C16.2 21.8999 16.6 21.5999 16.8 21.1999L20 9.49992C20 8.99992 19.7 8.49992 19.2 8.29992Z" fill="#898989"/>
<path d="M19.8 5.8H16.4C16.3 3.7 15 2 13.3 2H10.5C8.8 2 7.4 3.7 7.4 5.8H4C3.5 5.8 3 6.2 3 6.8C3 7.4 3.4 7.8 4 7.8H19.8C20.3 7.8 20.8 7.4 20.8 6.8C20.8 6.2 20.3 5.8 19.8 5.8ZM9.4 5.8C9.4 4.8 10 4 10.5 4H13.3C13.8 4 14.4 4.8 14.4 5.9H9.4V5.8Z" fill="#898989"/>
<path d="M13.5999 18.5001C14.0999 18.5001 14.4999 18.1001 14.5999 17.6001L15.1999 10.2001C15.1999 9.7001 14.7999 9.2001 14.2999 9.1001C13.7999 9.1001 13.2999 9.5001 13.1999 10.0001L12.5999 17.4001C12.4999 17.9001 12.8999 18.4001 13.5999 18.5001C13.4999 18.5001 13.4999 18.5001 13.5999 18.5001Z" fill="#898989"/>
<path d="M10.2999 18.5C10.3999 18.5 10.3999 18.5 10.2999 18.5C10.8999 18.5 11.2999 18 11.2999 17.4L10.6999 10C10.6999 9.50003 10.1999 9.00003 9.59988 9.10003C9.09988 9.10003 8.59988 9.60003 8.69988 10.2L9.29988 17.6C9.39988 18.1 9.79988 18.5 10.2999 18.5Z" fill="#898989"/>
</svg>
