<svg width="24" height="24" viewBox="0 0 24 24" fill="none" xmlns="http://www.w3.org/2000/svg">
<path d="M19.2 8.29992C18.7 8.19992 18.1 8.49992 18 8.99992L15 19.9999H11.9H8.80002L5.80002 8.99992C5.70002 8.49992 5.10002 8.19992 4.60002 8.29992C4.10002 8.49992 3.80002 8.99992 3.90002 9.49992L7.00002 21.1999C7.10002 21.5999 7.50002 21.8999 8.00002 21.8999H11.9H15.8C16.2 21.8999 16.6 21.5999 16.8 21.1999L20 9.49992C20 8.99992 19.7 8.49992 19.2 8.29992Z" fill="#898989"/>
<path d="M19.8 5.8H16.4C16.3 3.7 15 2 13.3 2H10.5C8.8 2 7.4 3.7 7.4 5.8H4C3.5 5.8 3 6.2 3 6.8C3 7.4 3.4 7.8 4 7.8H19.8C20.3 7.8 20.8 7.4 20.8 6.8C20.8 6.2 20.3 5.8 19.8 5.8ZM9.4 5.8C9.4 4.8 10 4 10.5 4H13.3C13.8 4 14.4 4.8 14.4 5.9H9.4V5.8Z" fill="#898989"/>
</svg>
