<svg width="24" height="24" viewBox="0 0 24 24" fill="none" xmlns="http://www.w3.org/2000/svg">
<g id=" Fill / trash">
<path id="Union" fill-rule="evenodd" clip-rule="evenodd" d="M10 4.32751C10 4.17251 10.214 3.99951 10.5 3.99951H13.5C13.786 3.99951 14 4.17251 14 4.32751V5.99951H10V4.32751ZM21 5.99951H20H16V4.32751C16 3.04351 14.879 1.99951 13.5 1.99951H10.5C9.121 1.99951 8 3.04351 8 4.32751V5.99951H4H3C2.45 5.99951 2 6.45051 2 6.99951C2 7.54951 2.45 7.99951 3 7.99951H4V18.9995C4 20.6545 5.346 21.9995 7 21.9995H17C18.654 21.9995 20 20.6545 20 18.9995V7.99951H21C21.55 7.99951 22 7.54951 22 6.99951C22 6.45051 21.55 5.99951 21 5.99951Z" fill="#898989"/>
</g>
</svg>
