<svg width="24" height="24" viewBox="0 0 24 24" fill="none" xmlns="http://www.w3.org/2000/svg">
<path fill-rule="evenodd" clip-rule="evenodd" d="M5.0406 7.86882L4.87684 7.90618C4.6815 7.94984 4.5039 8.05226 4.36389 8.19226C4.25075 8.3054 4.16225 8.44317 4.10892 8.59632C3.98913 8.94038 4.06449 9.30708 4.30497 9.54755L8.78312 14.0257L3.12622 19.6826L4.54043 21.0968L10.1973 15.4399L14.6759 19.9185C14.9163 20.1589 15.283 20.2343 15.6265 20.1138C15.9719 19.994 16.2377 19.6984 16.3172 19.3466L16.3546 19.1828L5.0406 7.86882ZM17.1424 15.7284L16.6172 18.0312L15.0449 16.4589L15.5701 14.1561L17.1424 15.7284ZM17.405 14.5768L18.0012 11.9626L21.5529 8.41076C21.9433 8.02044 21.9703 7.41392 21.6119 7.05547L17.1673 2.61089C16.8089 2.25245 16.2023 2.2795 15.812 2.66982L12.2602 6.22162L9.64623 6.81801L11.2183 8.39008L12.8237 8.02397C13.015 7.97913 13.1945 7.88002 13.3374 7.73718L16.4013 4.67329L19.5495 7.8215L16.4856 10.8854C16.3428 11.0282 16.2436 11.2077 16.1988 11.3991L15.8327 13.0045L17.405 14.5768ZM10.0667 8.6527L8.49473 7.08073L6.19209 7.6061L7.76386 9.17786L10.0667 8.6527Z" fill="#898989"/>
<path fill-rule="evenodd" clip-rule="evenodd" d="M20.7073 19.2932L4.70725 3.29325C4.31625 2.90225 3.68425 2.90225 3.29325 3.29325C2.90225 3.68425 2.90225 4.31625 3.29325 4.70725L19.2932 20.7073C19.4882 20.9023 19.7442 21.0002 20.0002 21.0002C20.2563 21.0002 20.5123 20.9023 20.7073 20.7073C21.0983 20.3162 21.0983 19.6842 20.7073 19.2932Z" fill="#898989"/>
</svg>
