<svg width="24" height="24" viewBox="0 0 24 24" fill="none" xmlns="http://www.w3.org/2000/svg">
    <path d="M6.77516 9.88623L4.16042 14.0468C4.05317 14.2158 4 14.4138 4 14.6118C4 14.7718 4.03483 14.9318 4.10542 15.0778C4.264 15.4058 4.57658 15.6118 4.91667 15.6118H11.25L11.25 22.6118H13.25V16.3611L10.5007 13.6118H6.6565L8.14028 11.2514L6.77516 9.88623Z" fill="#777777"/>
    <path d="M17.8426 13.6118L14.6361 8.51082C14.5325 8.34382 14.4757 8.14682 14.4757 7.94482V3.61182L10.0234 3.61182V6.91253L8.19008 5.07918V2.61182C8.19008 2.05982 8.59983 1.61182 9.10675 1.61182H15.3923C15.8993 1.61182 16.309 2.05982 16.309 2.61182V7.63482L20.3396 14.0468C20.5321 14.3518 20.5532 14.7488 20.3937 15.0778C20.236 15.4058 19.9234 15.6118 19.5833 15.6118L19 15.5L17.8426 13.6118Z" fill="#777777"/>
    <path fill-rule="evenodd" clip-rule="evenodd" d="M20.7073 19.2932L4.70725 3.29325C4.31625 2.90225 3.68425 2.90225 3.29325 3.29325C2.90225 3.68425 2.90225 4.31625 3.29325 4.70725L19.2932 20.7073C19.4882 20.9023 19.7442 21.0002 20.0002 21.0002C20.2562 21.0002 20.5123 20.9023 20.7073 20.7073C21.0983 20.3163 21.0983 19.6842 20.7073 19.2932Z" fill="#777777"/>
</svg>
