<svg width="24" height="24" viewBox="0 0 24 24" fill="none" xmlns="http://www.w3.org/2000/svg">
    <path fill-rule="evenodd" clip-rule="evenodd" d="M3.5 8C4.328 8 5 7.328 5 6.5C5 5.672 4.328 5 3.5 5C2.672 5 2 5.672 2 6.5C2 7.328 2.672 8 3.5 8ZM3.5 10.25C2.672 10.25 2 10.922 2 11.75C2 12.578 2.672 13.25 3.5 13.25C4.328 13.25 5 12.578 5 11.75C5 10.922 4.328 10.25 3.5 10.25ZM2 17C2 16.172 2.672 15.5 3.5 15.5C4.328 15.5 5 16.172 5 17C5 17.828 4.328 18.5 3.5 18.5C2.672 18.5 2 17.828 2 17Z" fill="#777777"/>
    <path d="M9.22299 9.33407L7.35182 12.3115C7.2622 12.4527 7.21777 12.6181 7.21777 12.7836C7.21777 12.9173 7.24688 13.051 7.30586 13.173C7.43838 13.4471 7.69959 13.6193 7.98379 13.6193H13.2753L13.2753 20.3054H14.9466V15.0578L11.8365 11.9476H9.43818L10.3639 10.475L9.22299 9.33407Z" fill="#777777"/>
    <path d="M18.7858 11.9476L16.1063 7.68493C16.0197 7.54538 15.9723 7.38075 15.9723 7.21195V3.59108L12.2517 3.59108V6.14086L10.7192 4.60831V2.75582C10.7192 2.29454 11.0616 1.92017 11.4852 1.92017H16.7378C17.1614 1.92017 17.5038 2.29454 17.5038 2.75582V6.95328L20.8719 12.3115C21.0328 12.5663 21.0504 12.8981 20.9171 13.173C20.7854 13.4471 20.5242 13.6193 20.24 13.6193L19.5 13.5L18.7858 11.9476Z" fill="#777777"/>
    <path fill-rule="evenodd" clip-rule="evenodd" d="M22.7073 18.2932L6.70725 2.29325C6.31625 1.90225 5.68425 1.90225 5.29325 2.29325C4.90225 2.68425 4.90225 3.31625 5.29325 3.70725L21.2932 19.7073C21.4882 19.9023 21.7442 20.0002 22.0002 20.0002C22.2562 20.0002 22.5123 19.9023 22.7073 19.7073C23.0983 19.3163 23.0983 18.6842 22.7073 18.2932Z" fill="#777777"/>
</svg>
