<svg width="24" height="24" viewBox="0 0 24 24" fill="none" xmlns="http://www.w3.org/2000/svg">
<path fill-rule="evenodd" clip-rule="evenodd" d="M5 3H16.5351C16.1948 3.58835 16 4.27143 16 5H5C4.449 5 4 5.449 4 6V19.234L7.01 17.428C7.477 17.148 8.011 17 8.554 17H19C19.551 17 20 16.551 20 16V9C20.7286 9 21.4117 8.80521 22 8.46487V16C22 17.654 20.654 19 19 19H8.554C8.373 19 8.195 19.049 8.039 19.143L3.515 21.857C3.356 21.953 3.178 22 3 22C2.83 22 2.66 21.957 2.507 21.87C2.194 21.693 2 21.36 2 21V6C2 4.346 3.346 3 5 3ZM20 7C21.1046 7 22 6.10457 22 5C22 3.89543 21.1046 3 20 3C18.8954 3 18 3.89543 18 5C18 6.10457 18.8954 7 20 7Z" fill="#898989"/>
</svg>
