<svg width="25" height="24" viewBox="0 0 25 24" fill="none" xmlns="http://www.w3.org/2000/svg">
    <path fill-rule="evenodd" clip-rule="evenodd" d="M18.5 12.0297C18.5 15.6777 17.105 19.1307 14.571 21.7547C14.188 22.1517 13.554 22.1627 13.157 21.7797C12.954 21.5837 12.852 21.3217 12.852 21.0607C12.852 20.8107 12.945 20.5597 13.133 20.3657C15.304 18.1157 16.5 15.1557 16.5 12.0297C16.5 8.90366 15.304 5.94366 13.133 3.69366C12.748 3.29866 12.759 2.66466 13.157 2.27966C13.554 1.89766 14.188 1.90766 14.571 2.30566C17.105 4.92966 18.5 8.38266 18.5 12.0297ZM13.5002 12.0301C13.5002 9.60206 12.4992 7.24206 10.7522 5.55506C10.3542 5.17306 9.7212 5.18306 9.3382 5.58106C8.9542 5.97706 8.9652 6.61206 9.3622 6.99506C10.7212 8.30606 11.5002 10.1411 11.5002 12.0301C11.5002 13.9191 10.7212 15.7541 9.3622 17.0651C9.1592 17.2611 9.0572 17.5231 9.0572 17.7851C9.0572 18.0351 9.1502 18.2861 9.3382 18.4791C9.7212 18.8771 10.3542 18.8871 10.7522 18.5051C12.4992 16.8181 13.5002 14.4581 13.5002 12.0301ZM8.5002 12.0301C8.5002 10.7271 8.0012 9.49406 7.0972 8.55706C6.7132 8.16006 6.0802 8.14906 5.6832 8.53206C5.2852 8.91706 5.2742 9.55106 5.6582 9.94606C6.7442 11.0711 6.7442 12.9891 5.6582 14.1141C5.4712 14.3071 5.3772 14.5581 5.3772 14.8081C5.3772 15.0701 5.4792 15.3321 5.6832 15.5281C6.0802 15.9111 6.7132 15.9001 7.0972 15.5031C8.0012 14.5661 8.5002 13.3331 8.5002 12.0301Z" fill="#898989"/>
</svg>
