<svg width="24" height="24" viewBox="0 0 24 24" fill="none" xmlns="http://www.w3.org/2000/svg">
<path fill-rule="evenodd" clip-rule="evenodd" d="M14.9999 3.99982V12.1718L9.0259 6.19782L13.4349 3.17482C13.7399 2.96482 14.1369 2.94182 14.4659 3.11482C14.7939 3.28782 14.9999 3.62882 14.9999 3.99982ZM20.9999 12C20.9999 13.599 20.3699 15.121 19.2219 16.394L20.6369 17.809C22.1629 16.155 22.9999 14.137 22.9999 12C22.9999 9.43102 21.8059 7.02502 19.6379 5.22902C19.2119 4.87802 18.5819 4.93702 18.2299 5.36202C17.8769 5.78702 17.9369 6.41802 18.3619 6.77102C20.0629 8.18002 20.9999 10.036 20.9999 12ZM16.9105 14.082L18.3485 15.521C19.9065 13.483 19.8885 10.374 18.2795 8.37302C17.9325 7.94302 17.3035 7.87602 16.8725 8.22102C16.4425 8.56702 16.3745 9.19602 16.7205 9.62702C17.6835 10.823 17.7385 12.778 16.9105 14.082ZM4.743 7.57132H2C1.448 7.57132 1 8.01832 1 8.57132V15.4283C1 15.9813 1.448 16.4283 2 16.4283H7.023L13.434 20.8253C13.604 20.9413 13.802 21.0003 14 21.0003C14.16 21.0003 14.32 20.9623 14.466 20.8843C14.794 20.7123 15 20.3713 15 20.0003V17.8283L4.743 7.57132ZM3.2929 3.29292C3.6839 2.90192 4.3159 2.90192 4.7069 3.29292L20.7069 19.2929C21.0979 19.6839 21.0979 20.3159 20.7069 20.7069C20.5119 20.9019 20.2559 20.9999 19.9999 20.9999C19.7439 20.9999 19.4879 20.9019 19.2929 20.7069L3.2929 4.70692C2.9019 4.31592 2.9019 3.68392 3.2929 3.29292Z" fill="#898989"/>
</svg>
