<svg width="24" height="24" viewBox="0 0 24 24" fill="none" xmlns="http://www.w3.org/2000/svg">
    <path fill-rule="evenodd" clip-rule="evenodd" d="M12.7494 5C12.7494 4.66067 12.5773 4.3445 12.2924 4.16025C12.0074 3.97601 11.6485 3.94883 11.339 4.08808L2.58964 8.02532C2.23078 8.1868 2 8.54373 2 8.93724V15.0618C2 15.4553 2.23078 15.8123 2.58964 15.9737L11.339 19.911C11.6485 20.0502 12.0074 20.0231 12.2924 19.8388C12.5773 19.6546 12.7494 19.3384 12.7494 18.9991V5ZM4 14.4152V9.58382L10.7494 6.54659V17.4525L4 14.4152Z" fill="#898989"/>
    <path d="M19.1442 5.10588C18.7536 4.71536 18.1205 4.71536 17.7299 5.10588C17.3394 5.49641 17.3394 6.12957 17.7299 6.5201C20.7563 9.54643 20.7563 14.4531 17.7299 17.4794C17.3394 17.8699 17.3394 18.5031 17.7299 18.8936C18.1205 19.2842 18.7536 19.2842 19.1442 18.8936C22.9515 15.0862 22.9515 8.91326 19.1442 5.10588Z" fill="#898989"/>
    <path d="M16.3282 7.58059C15.9377 7.19006 15.3045 7.19006 14.914 7.58059C14.5235 7.97111 14.5235 8.60428 14.914 8.9948C16.5736 10.6544 16.5736 13.3451 14.914 15.0047C14.5235 15.3952 14.5235 16.0284 14.914 16.4189C15.3045 16.8094 15.9377 16.8094 16.3282 16.4189C18.7688 13.9783 18.7688 10.0212 16.3282 7.58059Z" fill="#898989"/>
</svg>
