<svg width="24" height="24" viewBox="0 0 24 24" fill="none" xmlns="http://www.w3.org/2000/svg">
<g id=" Fill / volume-up">
<path id="Union" fill-rule="evenodd" clip-rule="evenodd" d="M13.4342 3.17523C13.7402 2.96523 14.1372 2.94123 14.4662 3.11523C14.7942 3.28823 15.0002 3.62923 15.0002 4.00023V20.0002C15.0002 20.3712 14.7942 20.7122 14.4662 20.8852C14.3202 20.9622 14.1592 21.0002 14.0002 21.0002C13.8012 21.0002 13.6042 20.9412 13.4342 20.8252L7.02324 16.4282H2.00024C1.44724 16.4282 1.00024 15.9812 1.00024 15.4282V8.57123C1.00024 8.01823 1.44724 7.57123 2.00024 7.57123H7.02324L13.4342 3.17523ZM19.6376 5.22953C19.2126 4.87753 18.5816 4.93653 18.2296 5.36253C17.8776 5.78753 17.9366 6.41753 18.3626 6.77053C20.0626 8.17953 20.9996 10.0365 20.9996 12.0005C20.9996 13.9635 20.0626 15.8205 18.3626 17.2295C17.9366 17.5825 17.8776 18.2125 18.2296 18.6375C18.4276 18.8765 18.7126 19.0005 19.0006 19.0005C19.2246 19.0005 19.4506 18.9245 19.6376 18.7705C21.8056 16.9745 22.9996 14.5695 22.9996 12.0005C22.9996 9.43053 21.8056 7.02553 19.6376 5.22953ZM18.2792 8.37303C17.9322 7.94303 17.3032 7.87603 16.8732 8.22103C16.4432 8.56703 16.3742 9.19603 16.7202 9.62703C17.7562 10.913 17.7562 13.087 16.7202 14.373C16.3742 14.804 16.4432 15.433 16.8732 15.779C17.0582 15.928 17.2792 16 17.4992 16C17.7912 16 18.0812 15.872 18.2792 15.627C19.9152 13.593 19.9152 10.407 18.2792 8.37303Z" fill="#898989"/>
</g>
</svg>
