<svg width="24" height="24" viewBox="0 0 24 24" fill="none" xmlns="http://www.w3.org/2000/svg">
    <path fill-rule="evenodd" clip-rule="evenodd" d="M10.002 0.00157877L8.66158 0H8.65758C7.40458 0 6.37958 1.042 6.37458 2.326L6.37358 2.567C6.37158 3.164 6.09658 3.729 5.64058 4.077L5.51158 4.175C4.99858 4.565 4.33358 4.676 3.73458 4.472C3.17658 4.281 2.57958 4.322 2.05158 4.588C1.51158 4.861 1.11258 5.335 0.927577 5.922L0.111577 8.517C-0.275423 9.749 0.374577 11.04 1.59258 11.457L1.75558 11.514H1.75658C2.27358 11.691 2.69158 12.143 2.87458 12.725L2.92958 12.893C3.14958 13.539 3.07258 14.22 2.69858 14.75C1.97858 15.773 2.19758 17.216 3.18758 17.966L5.25958 19.539C5.65758 19.842 6.12958 20 6.61558 20C6.73058 20 6.84658 19.992 6.96358 19.974C7.57458 19.878 8.11158 19.543 8.47358 19.03L8.70458 18.702C9.03658 18.23 9.54458 17.951 10.1326 17.935C10.7196 17.902 11.2796 18.208 11.6296 18.712L11.7476 18.884C12.1066 19.402 12.6426 19.742 13.2566 19.841C13.8656 19.938 14.4726 19.787 14.9676 19.413L17.0286 17.857C18.0226 17.108 18.2506 15.66 17.5366 14.628L17.2766 14.253C16.9476 13.779 16.8516 13.162 17.0176 12.601C17.1986 11.989 17.6516 11.509 18.2276 11.315L18.4286 11.248C19.0558 11.0382 19.5353 10.5724 19.792 10H16.4965C15.8396 10.4998 15.3445 11.2091 15.1006 12.033C14.7636 13.168 14.9626 14.424 15.6326 15.392L15.8926 15.767C15.9996 15.922 15.9676 16.153 15.8236 16.261L13.7626 17.816C13.6906 17.872 13.6186 17.875 13.5746 17.866C13.5236 17.858 13.4516 17.83 13.3926 17.746L13.2746 17.575C12.5386 16.512 11.3566 15.909 10.0406 15.936C8.86858 15.97 7.75858 16.573 7.06958 17.55L6.83858 17.878C6.77958 17.962 6.70658 17.989 6.65658 17.997C6.61258 18.002 6.54158 18.002 6.46858 17.947L4.39658 16.373C4.25958 16.269 4.23058 16.049 4.36058 15.865C5.07458 14.851 5.24758 13.499 4.82158 12.243L4.78158 12.123C4.40958 10.939 3.52058 10.005 2.40458 9.622L2.24058 9.566C2.05758 9.503 1.96058 9.306 2.01958 9.117L2.83658 6.521C2.86458 6.43 2.92258 6.389 2.95458 6.373C2.99658 6.351 3.04058 6.348 3.08758 6.364C4.31958 6.784 5.67958 6.56 6.72258 5.767L6.85158 5.669C7.79958 4.946 8.36858 3.79 8.37358 2.575L8.37458 2.333C8.37558 2.149 8.50258 2 8.65858 2L10.002 2.00158V0.00157877ZM10.002 6.4999C10.0019 6.4999 10.0018 6.4999 10.0018 6.4999C8.07178 6.4999 6.50178 8.0699 6.50178 9.9999C6.50178 11.9299 8.07178 13.4999 10.0018 13.4999C11.9317 13.4999 13.5017 11.93 13.5018 10H11.5018C11.5017 10.827 10.8287 11.4999 10.0018 11.4999C9.17478 11.4999 8.50178 10.8269 8.50178 9.9999C8.50178 9.1729 9.17478 8.4999 10.0018 8.4999C10.0018 8.4999 10.0019 8.4999 10.002 8.4999V6.4999Z" fill="#A0A0A0"/>
</svg>
