<svg width="328" height="147" viewBox="0 0 328 147" fill="none" xmlns="http://www.w3.org/2000/svg">
    <rect width="328" height="147" rx="8" fill="url(#paint0_linear_6719_442060)"/>
    <path d="M176.192 75.9505C176.192 75.0005 175.4 74.3672 174.608 74.3672C173.817 74.3672 173.025 75.1589 173.025 75.9505C173.025 80.8589 169.067 84.8172 164 84.8172H163.525C158.617 84.8172 154.5 80.8589 154.5 75.9505C154.5 75.0005 153.708 74.3672 152.917 74.3672C152.125 74.3672 151.333 75.0005 151.333 75.9505C151.333 82.1255 156.083 87.3505 162.1 87.9839V90.6755C162.1 91.6255 162.892 92.2589 163.683 92.2589C164.475 92.2589 165.267 91.4672 165.267 90.6755V87.9839C171.442 87.1922 176.192 82.1255 176.192 75.9505Z" fill="white"/>
    <path d="M163.525 83.075H164C167.958 83.075 171.283 79.9083 171.283 75.7917V67.875C171.283 63.9167 167.958 60.75 164 60.75H163.525C159.567 60.75 156.242 63.9167 156.242 68.0333V75.95C156.242 79.9083 159.567 83.075 163.525 83.075ZM159.567 68.0333C159.567 65.8167 161.308 64.075 163.525 64.075H164C166.217 64.075 167.958 65.8167 167.958 68.0333V75.95C167.958 78.1667 166.217 79.9083 164 79.9083H163.525C161.308 79.9083 159.567 78.1667 159.567 75.95V68.0333Z" fill="white"/>
    <circle cx="164" cy="74" r="40.5" stroke="white"/>
    <circle cx="164" cy="74" r="66.5" stroke="white"/>
    <mask id="mask0_6719_442060" style="mask-type:alpha" maskUnits="userSpaceOnUse" x="25" y="0" width="279" height="147">
        <rect x="25" width="279" height="147" rx="8" fill="url(#paint1_linear_6719_442060)"/>
    </mask>
    <g mask="url(#mask0_6719_442060)">
        <circle cx="165" cy="73" r="104.5" stroke="white"/>
    </g>
    <defs>
        <linearGradient id="paint0_linear_6719_442060" x1="164" y1="2.59328e-08" x2="164.39" y2="146.999" gradientUnits="userSpaceOnUse">
            <stop stop-color="#2970FF"/>
            <stop offset="1" stop-color="#C60077"/>
        </linearGradient>
        <linearGradient id="paint1_linear_6719_442060" x1="164.5" y1="2.59328e-08" x2="164.958" y2="146.999" gradientUnits="userSpaceOnUse">
            <stop stop-color="#2970FF"/>
            <stop offset="1" stop-color="#C60077"/>
        </linearGradient>
    </defs>
</svg>
