<svg width="221" height="226" viewBox="0 0 221 226" fill="none"
     xmlns="http://www.w3.org/2000/svg">
    <path fill-rule="evenodd" clip-rule="evenodd"
          d="M220.26 83H220.559C220.61 60.6849 220.674 40.0792 220.731 24.486C211.839 16.324 182.955 0 138.556 0C94.1575 0 73.8591 16.324 69.2597 24.486V50V83V95V139V166.54C69.3619 173.273 73.0619 187.659 87.0438 191.332C101.026 195.004 162.78 214.491 191.909 223.775C201.721 228.265 221.222 228.979 220.731 195.923C220.476 178.698 220.431 137.956 220.476 95H220.26V83Z"
          fill="url(#paint0_linear_14352_55905)"/>
    <path
        d="M164.42 196.738L131.304 187.882L93.8952 176.584L88.0692 170.783L84.083 157.347L81.3233 42.5353L89.6023 28.1838L202.136 33.0695V182.997L193.244 196.738L183.125 199.18L164.42 196.738Z"
        fill="url(#paint1_linear_14352_55905)"/>
    <path
        d="M194.174 64.6334L203.066 74.6999V113.441L195.707 122.897L176.083 137.845H161.979L144.502 131.439L131.318 129.608L123.652 120.762L121.199 103.374L126.412 83.8513L112.921 66.7687L142.662 63.4132L167.192 57.9224L194.174 64.6334Z"
        fill="#D0D2FF"/>
    <path
        d="M120.355 170.95L198.436 193.604L201.522 186.563L203.065 115.541L195.35 123.5L178.993 135.745L162.945 137.888L167.266 148.909L146.588 150.44L121.281 146.766C126.96 157.542 123.03 167.379 120.355 170.95Z"
        fill="#D0D2FF"/>
    <path d="M186.306 184.801C186.306 184.801 200.999 174.514 197.671 146.353" stroke="#ADA6D7"
          stroke-width="5" stroke-miterlimit="10" stroke-linecap="round"
          stroke-linejoin="round"/>
    <path d="M176.658 182.138C176.658 182.138 183.355 169.227 181.557 157.814" stroke="#ADA6D7"
          stroke-width="5" stroke-miterlimit="10" stroke-linecap="round"
          stroke-linejoin="round"/>
    <path d="M161.66 178.811C161.66 178.811 168.493 168.517 166.89 158.741" stroke="#ADA6D7"
          stroke-width="5" stroke-miterlimit="10" stroke-linecap="round"
          stroke-linejoin="round"/>
    <path d="M136.106 171.988C136.106 171.988 141.419 164.032 138.495 156.761" stroke="#ADA6D7"
          stroke-width="5" stroke-miterlimit="10" stroke-linecap="round"
          stroke-linejoin="round"/>
    <path d="M148.962 174.437C148.962 174.437 154.275 166.48 151.351 159.209" stroke="#ADA6D7"
          stroke-width="5" stroke-miterlimit="10" stroke-linecap="round"
          stroke-linejoin="round"/>
    <path d="M157.478 96.6727C157.478 96.6727 157.098 87.1129 163.388 82.4373" stroke="#ADA6D7"
          stroke-width="5" stroke-miterlimit="10" stroke-linecap="round"
          stroke-linejoin="round"/>
    <path d="M178.96 113.229C178.96 113.229 188.075 110.323 194.253 115.144" stroke="#ADA6D7"
          stroke-width="5" stroke-miterlimit="10" stroke-linecap="round"
          stroke-linejoin="round"/>
    <path d="M183.245 102.822C183.245 102.822 192.36 99.916 198.539 104.737" stroke="#ADA6D7"
          stroke-width="5" stroke-miterlimit="10" stroke-linecap="round"
          stroke-linejoin="round"/>
    <path d="M183.245 91.1904C183.245 91.1904 192.36 88.2842 198.539 93.1054" stroke="#ADA6D7"
          stroke-width="5" stroke-miterlimit="10" stroke-linecap="round"
          stroke-linejoin="round"/>
    <path d="M145.713 96.9927C145.713 96.9927 145.333 87.4329 151.623 82.7574" stroke="#ADA6D7"
          stroke-width="5" stroke-miterlimit="10" stroke-linecap="round"
          stroke-linejoin="round"/>
    <path d="M124.913 169.375C124.913 169.375 129.711 161.098 126.33 154.027" stroke="#ADA6D7"
          stroke-width="5" stroke-miterlimit="10" stroke-linecap="round"
          stroke-linejoin="round"/>
    <path
        d="M119.592 145.12L122.608 147.527C122.608 147.527 127.131 147.527 125.623 159.865C124.116 172.203 120.497 170.097 120.497 170.097L108.132 171.3L99.0852 165.884L91.5459 155.351L94.5616 146.323L108.132 139.703L119.592 145.12Z"
        fill="white"/>
    <path d="M164.048 137.844C163.945 140.116 164.356 145.155 166.822 147.138" stroke="#6D6D80"
          stroke-width="5"/>
    <path
        d="M135.224 75.2696C134.493 79.7304 129.435 82.2912 126.998 83.014L116.638 70.0034L135.224 75.2696Z"
        fill="white"/>
    <path d="M143.588 131.444C158.377 140.727 182.778 143.063 200.277 116.47" stroke="#6D6D80"
          stroke-width="5" stroke-linejoin="round"/>
    <path
        d="M184.479 141.856C162.641 153.885 133.872 149.792 122.217 146.242C119.354 143.527 111.85 138.473 104.734 139.977C95.8396 141.856 91.5459 150.198 91.5459 154.072C91.5459 154.684 91.615 155.316 91.745 155.952M98.2932 163.783C98.3489 163.978 98.2052 163.561 98.2932 163.783ZM98.2932 163.783C99.338 166.411 102.934 171.3 109.949 171.3M98.2932 163.783C101.655 164.284 108.149 160.859 110.869 159.397M98.2932 163.783C95.1652 163.25 92.4805 159.55 91.745 155.952M91.745 155.952C94.848 154.595 102.035 151.692 105.961 150.94"
        stroke="#6D6D80" stroke-width="5" stroke-linejoin="round"/>
    <path
        d="M147.809 116.896C155.348 111.237 168.582 117.409 174.256 121.203L166.353 127.969L153.585 133.198L141.73 127.969L147.809 116.896Z"
        fill="white"/>
    <path d="M109.203 171.3H120.008L197.489 191.746" stroke="#6D6D80" stroke-width="5"
          stroke-linejoin="round"/>
    <path
        d="M134.624 121.242L141.73 130.824C140.597 132.101 136.725 133.698 130.299 129.866C123.872 126.033 122.884 119.539 123.193 116.771C131.596 113.194 134.315 118.261 134.624 121.242Z"
        fill="white"/>
    <path
        d="M111.991 66.6728L142.757 63.6387C155.371 58.5819 184.907 53.2015 202.136 72.1341M111.991 66.6728L132.604 75.4716C134.45 75.1682 138.819 73.2871 141.527 68.1898M111.991 66.6728L126.451 83.0568C123.785 88.8216 119.252 103.203 122.452 114.611"
        stroke="#6D6D80" stroke-width="5" stroke-linejoin="round"/>
    <path
        d="M170.505 64.4277C187.164 71.8624 184.387 81.1556 180.917 84.873C175.946 82.4617 173.666 80.7093 172.136 75.5797C172.136 75.5797 170.648 76.8188 167.079 75.8895C163.509 74.9601 162.175 73.4112 162.175 73.4112L170.505 64.4277Z"
        fill="white"/>
    <path
        d="M202.079 31.9011V177.633C202.796 187.43 197.041 205.065 168.286 197.227C139.532 189.389 110.224 180.899 99.1645 177.633C94.1468 177.021 84.1113 171.51 84.1113 154.365C84.1113 137.22 84.1113 135.995 84.1113 137.526"
        stroke="#9B9BB3" stroke-width="5" stroke-linejoin="round"/>
    <path
        d="M177.044 114.447C165.422 137.613 144.929 133.244 141.565 128.469L135.142 121.458C136.467 116.683 137.038 106.583 128.719 104.389"
        stroke="#6D6D80" stroke-width="5" stroke-linecap="round" stroke-linejoin="round"/>
    <path
        d="M123.163 114.021C123.163 116.722 122.542 120.602 128.255 126.326C133.968 132.05 140.537 132.128 143.532 130.227L140.836 126.926L145.03 120.924C146.428 118.123 148.984 111.08 148.025 105.318"
        stroke="#6D6D80" stroke-width="5" stroke-linejoin="round"/>
    <path d="M181.557 84.8726C184.496 81.5137 186.405 72.5364 170.539 63.498" stroke="#6D6D80"
          stroke-width="5"/>
    <path
        d="M202.136 31.5416L88.9771 27.2544C73.3373 42.77 36.5377 78.5782 14.4579 97.6869C-13.1419 121.573 13.5379 119.735 58.9241 131.984C95.2331 141.784 103.697 131.372 112.284 124.329L202.136 31.5416Z"
        fill="#FFEF9A" stroke="#C5BD93" stroke-width="5" stroke-linejoin="round"/>
    <path d="M89.6874 28.1838V77.4383L200.277 32.7444" stroke="#C5BD93" stroke-width="6"
          stroke-linejoin="round"/>
    <path fill-rule="evenodd" clip-rule="evenodd"
          d="M149.971 104.418C149.762 105.005 149.65 105.621 149.65 106.255C149.65 110.312 154.206 113.601 159.826 113.601C165.445 113.601 170.001 110.312 170.001 106.255C170.001 105.621 169.89 105.005 169.68 104.418H149.971Z"
          fill="white"/>
    <path fill-rule="evenodd" clip-rule="evenodd"
          d="M157.204 104.418C157.069 104.966 156.997 105.54 156.997 106.132C156.997 109.919 159.939 112.989 163.568 112.989C167.197 112.989 170.139 109.919 170.139 106.132C170.139 105.54 170.067 104.966 169.932 104.418H157.204Z"
          fill="#6D6D80"/>
    <path d="M146 100L163 100" stroke="#6D6D80" stroke-width="5" stroke-linecap="round"/>
    <defs>
        <linearGradient id="paint0_linear_14352_55905" x1="114.809" y1="262.411" x2="250.916"
                        y2="203.827" gradientUnits="userSpaceOnUse">
            <stop stop-color="#E5E5FA"/>
            <stop offset="1" stop-color="#F6EEF5"/>
        </linearGradient>
        <linearGradient id="paint1_linear_14352_55905" x1="225.44" y1="64.8259" x2="48.4986"
                        y2="64.4508" gradientUnits="userSpaceOnUse">
            <stop stop-color="#6363C8"/>
            <stop offset="1" stop-color="#FFD4FB"/>
        </linearGradient>
    </defs>
</svg>
