<svg width="136" height="40" viewBox="0 0 136 40" fill="none" xmlns="http://www.w3.org/2000/svg">
    <g clip-path="url(#clip0_14515_105475)">
        <path d="M130.963 40H5.03704C2.2163 40 0 37.8 0 35V5C0 2.2 2.2163 0 5.03704 0H130.963C133.784 0 136 2.2 136 5V35C136 37.8 133.784 40 130.963 40Z" fill="#1C1C1C"/>
        <path d="M31.1399 19.7868C31.1183 16.5682 33.7758 14.9913 33.9054 14.9265C32.393 12.7232 30.0596 12.4208 29.217 12.3992C27.2509 12.1831 25.3496 13.5872 24.3341 13.5872C23.3187 13.5872 21.7631 12.4208 20.0994 12.464C17.9605 12.5072 15.9511 13.7384 14.8493 15.661C12.5807 19.5924 14.2659 25.3599 16.4481 28.5137C17.5284 30.069 18.8031 31.7971 20.4667 31.7323C22.0871 31.6675 22.6921 30.6955 24.6582 30.6955C26.6027 30.6955 27.1645 31.7323 28.8713 31.6891C30.6214 31.6675 31.7232 30.1338 32.7603 28.5569C34.0134 26.7856 34.5104 25.0143 34.532 24.9279C34.532 24.9279 31.1831 23.6534 31.1399 19.7868ZM27.9423 10.3038C28.8065 9.20217 29.4114 7.73328 29.2386 6.22119C27.9639 6.286 26.3867 7.10684 25.4792 8.16531C24.6798 9.11576 23.9452 10.6495 24.1397 12.0967C25.5656 12.2048 27.0348 11.3839 27.9423 10.3038Z" fill="white"/>
        <path d="M54.69 31.5165H52.4214L51.1683 27.6067H46.8472L45.6589 31.5165H43.4551L47.733 18.2101H50.3905L54.69 31.5165ZM50.801 25.965L49.6775 22.4872C49.5479 22.1415 49.3318 21.2991 49.0077 19.9814H48.9645C48.8349 20.543 48.6188 21.3855 48.3379 22.4872L47.2361 25.965H50.801ZM65.6873 26.5914C65.6873 28.2331 65.2335 29.5076 64.3477 30.458C63.5483 31.3005 62.576 31.7325 61.3877 31.7325C60.113 31.7325 59.2056 31.2789 58.6438 30.3716V35.4047H56.5265V25.0577C56.5265 24.0424 56.5049 22.984 56.4401 21.9039H58.3197L58.4494 23.416H58.4926C59.2056 22.2711 60.2859 21.6879 61.7334 21.6879C62.8569 21.6879 63.8076 22.1415 64.5638 23.0272C65.32 23.956 65.6873 25.1441 65.6873 26.5914ZM63.5267 26.6778C63.5267 25.7489 63.3106 24.9713 62.9001 24.3665C62.4464 23.74 61.8199 23.416 61.0421 23.416C60.5235 23.416 60.0482 23.5888 59.6161 23.9344C59.184 24.2801 58.9031 24.7337 58.7735 25.3169C58.7086 25.5329 58.687 25.7489 58.6654 25.965V27.5634C58.6654 28.2547 58.8815 28.8595 59.3136 29.3348C59.7457 29.81 60.3075 30.0476 60.9772 30.0476C61.7766 30.0476 62.4032 29.7452 62.8569 29.1187C63.3106 28.5139 63.5267 27.6931 63.5267 26.6778ZM76.7493 26.5914C76.7493 28.2331 76.2956 29.5076 75.4098 30.458C74.6104 31.3005 73.6381 31.7325 72.4498 31.7325C71.1751 31.7325 70.2676 31.2789 69.7059 30.3716V35.4047H67.5669V25.0577C67.5669 24.0424 67.5453 22.984 67.4805 21.9039H69.3602L69.4898 23.416H69.5331C70.246 22.2711 71.3263 21.6879 72.7739 21.6879C73.8974 21.6879 74.848 22.1415 75.6042 23.0272C76.3604 23.956 76.7493 25.1441 76.7493 26.5914ZM74.5672 26.6778C74.5672 25.7489 74.3511 24.9713 73.9406 24.3665C73.4869 23.74 72.8603 23.416 72.0825 23.416C71.564 23.416 71.0887 23.5888 70.6565 23.9344C70.2244 24.2801 69.9436 24.7337 69.8139 25.3169C69.7491 25.5761 69.7059 25.7921 69.7059 25.965V27.5634C69.7059 28.2547 69.922 28.8595 70.3541 29.3348C70.7862 29.81 71.3479 30.0476 72.0177 30.0476C72.8171 30.0476 73.4437 29.7452 73.8974 29.1187C74.3511 28.5139 74.5672 27.6931 74.5672 26.6778ZM89.0861 27.7795C89.0861 28.9027 88.6972 29.8316 87.8978 30.5444C87.0336 31.3221 85.8237 31.7109 84.2681 31.7109C82.8421 31.7109 81.697 31.4301 80.8112 30.89L81.3081 29.1187C82.2372 29.6804 83.2742 29.9396 84.3977 29.9396C85.1971 29.9396 85.8237 29.7668 86.2774 29.3996C86.7311 29.0323 86.9472 28.5571 86.9472 27.9523C86.9472 27.4122 86.7527 26.9586 86.3854 26.5914C86.0181 26.2242 85.4132 25.8785 84.549 25.5545C82.2156 24.6905 81.0489 23.416 81.0489 21.7311C81.0489 20.6294 81.4594 19.7438 82.2804 19.0525C83.1014 18.3613 84.2033 18.0157 85.5428 18.0157C86.7527 18.0157 87.7682 18.2317 88.5676 18.6421L88.0275 20.3702C87.2713 19.9598 86.4287 19.7654 85.478 19.7654C84.7218 19.7654 84.1385 19.9598 83.7063 20.327C83.3607 20.651 83.1662 21.0615 83.1662 21.5367C83.1662 22.0551 83.3607 22.5087 83.7712 22.8328C84.1169 23.1568 84.765 23.4808 85.7157 23.8696C86.8608 24.3233 87.7034 24.8633 88.2435 25.4897C88.8269 26.0946 89.0861 26.8506 89.0861 27.7795ZM96.1512 23.524H93.7962V28.1899C93.7962 29.378 94.2067 29.9612 95.0493 29.9612C95.4382 29.9612 95.7407 29.9396 95.9999 29.8532L96.0648 31.4733C95.6542 31.6245 95.0925 31.7109 94.4011 31.7109C93.5585 31.7109 92.9103 31.4517 92.435 30.9332C91.9597 30.4148 91.722 29.5508 91.722 28.3411V23.5024H90.3177V21.9039H91.722V20.1542L93.8178 19.5278V21.9255H96.1728L96.1512 23.524ZM106.738 26.6346C106.738 28.1035 106.306 29.3132 105.463 30.2636C104.577 31.2357 103.411 31.7325 101.941 31.7325C100.537 31.7325 99.4136 31.2573 98.571 30.3284C97.7284 29.3996 97.3179 28.2115 97.3179 26.7858C97.3179 25.2953 97.75 24.0856 98.6142 23.1352C99.4784 22.1847 100.645 21.7095 102.093 21.7095C103.497 21.7095 104.642 22.1847 105.485 23.1136C106.327 24.0208 106.738 25.2089 106.738 26.6346ZM104.534 26.6778C104.534 25.7921 104.34 25.0361 103.972 24.4097C103.519 23.6536 102.892 23.2648 102.05 23.2648C101.185 23.2648 100.537 23.6536 100.083 24.4097C99.6945 25.0361 99.5217 25.8137 99.5217 26.721C99.5217 27.6066 99.7161 28.3627 100.083 28.9891C100.537 29.7452 101.185 30.134 102.028 30.134C102.849 30.134 103.475 29.7452 103.951 28.9675C104.34 28.3195 104.534 27.5634 104.534 26.6778ZM113.673 23.7832C113.457 23.74 113.22 23.7184 113.004 23.7184C112.247 23.7184 111.664 23.9992 111.275 24.5609C110.929 25.0577 110.735 25.6841 110.735 26.4618V31.4949H108.596V24.9281C108.596 23.9128 108.574 22.9192 108.531 21.9039H110.389L110.476 23.74H110.541C110.757 23.1136 111.124 22.5952 111.599 22.2279C112.053 21.9039 112.593 21.7095 113.133 21.7095C113.328 21.7095 113.5 21.7311 113.673 21.7527V23.7832ZM123.223 26.2674C123.223 26.5914 123.201 26.9154 123.137 27.2394H116.741C116.763 28.1899 117.065 28.9243 117.67 29.4212C118.211 29.8748 118.902 30.0908 119.766 30.0908C120.717 30.0908 121.581 29.9396 122.359 29.6372L122.683 31.1061C121.775 31.4949 120.695 31.6893 119.464 31.6893C117.973 31.6893 116.806 31.2573 115.964 30.3716C115.121 29.486 114.689 28.3195 114.689 26.8506C114.689 25.4033 115.078 24.1937 115.877 23.2432C116.698 22.2063 117.822 21.7095 119.226 21.7095C120.609 21.7095 121.667 22.2279 122.359 23.2432C122.942 24.064 123.223 25.0577 123.223 26.2674ZM121.192 25.7057C121.214 25.0793 121.062 24.5177 120.782 24.064C120.414 23.4592 119.853 23.1784 119.075 23.1784C118.383 23.1784 117.8 23.4592 117.368 24.0424C117.022 24.4961 116.806 25.0577 116.741 25.7057H121.192ZM46.2422 13.501C45.6588 13.501 45.1403 13.4794 44.7082 13.4146V6.97744C45.3132 6.89103 45.9181 6.84783 46.5231 6.84783C48.9645 6.84783 50.088 8.0575 50.088 10.0232C50.088 12.2697 48.7485 13.501 46.2422 13.501ZM46.5879 7.66868C46.2638 7.66868 45.9829 7.69028 45.7453 7.73348V12.6154C45.8749 12.637 46.1126 12.637 46.4583 12.637C48.0571 12.637 48.9645 11.7297 48.9645 10.0232C48.9645 8.51113 48.1435 7.66868 46.5879 7.66868ZM53.5881 13.5442C52.2054 13.5442 51.3195 12.5074 51.3195 11.1249C51.3195 9.67759 52.227 8.64073 53.6745 8.64073C55.0357 8.64073 55.9431 9.61279 55.9431 11.0601C55.9431 12.5074 54.9925 13.5442 53.5881 13.5442ZM53.6313 9.39678C52.8751 9.39678 52.3782 10.1096 52.3782 11.1033C52.3782 12.0753 52.8751 12.7882 53.6097 12.7882C54.3443 12.7882 54.8412 12.0321 54.8412 11.0817C54.8628 10.1096 54.3659 9.39678 53.6313 9.39678ZM63.8076 8.72714L62.3384 13.4362H61.3661L60.7612 11.3841C60.6099 10.8873 60.4803 10.3688 60.3723 9.8504H60.3507C60.2643 10.3688 60.1346 10.8873 59.9618 11.3841L59.3136 13.4362H58.3413L56.9586 8.72714H58.0389L58.579 10.9737C58.7086 11.5137 58.8167 12.0105 58.9031 12.4858H58.9247C59.0111 12.0969 59.1192 11.6001 59.3136 10.9737L59.9834 8.72714H60.8476L61.4958 10.9305C61.647 11.4705 61.7766 11.9889 61.8847 12.4858H61.9063C61.9711 12.0105 62.0791 11.4921 62.2304 10.9305L62.8137 8.72714H63.8076ZM69.2306 13.4362H68.1935V10.7361C68.1935 9.89361 67.8694 9.48318 67.2429 9.48318C66.6163 9.48318 66.1842 10.0232 66.1842 10.6281V13.4362H65.1255V10.0664C65.1255 9.65599 65.1255 9.20237 65.0823 8.72714H66.0113L66.0546 9.46158H66.0762C66.357 8.96475 66.9404 8.64073 67.5669 8.64073C68.5608 8.64073 69.209 9.39678 69.209 10.6281L69.2306 13.4362ZM72.1257 13.4362H71.0671V6.54541H72.1257V13.4362ZM75.9499 13.5442C74.5672 13.5442 73.6813 12.5074 73.6813 11.1249C73.6813 9.67759 74.5888 8.64073 76.0363 8.64073C77.3975 8.64073 78.3049 9.61279 78.3049 11.0601C78.3049 12.5074 77.3543 13.5442 75.9499 13.5442ZM75.9931 9.39678C75.2369 9.39678 74.74 10.1096 74.74 11.1033C74.74 12.0753 75.2369 12.7882 75.9715 12.7882C76.7061 12.7882 77.2031 12.0321 77.2031 11.0817C77.2031 10.1096 76.7277 9.39678 75.9931 9.39678ZM82.4316 13.4362L82.3452 12.8962H82.3236C81.9995 13.3282 81.5458 13.5442 80.9408 13.5442C80.0982 13.5442 79.4932 12.961 79.4932 12.1617C79.4932 10.9953 80.5087 10.3904 82.2588 10.3904V10.304C82.2588 9.67759 81.9347 9.37518 81.2865 9.37518C80.8112 9.37518 80.4223 9.48318 80.055 9.7208L79.8389 9.02956C80.271 8.74874 80.8112 8.61913 81.4594 8.61913C82.6909 8.61913 83.3174 9.26717 83.3174 10.5632V12.2913C83.3174 12.7666 83.339 13.1338 83.3823 13.4146L82.4316 13.4362ZM82.2804 11.0817C81.1137 11.0817 80.5303 11.3625 80.5303 12.0321C80.5303 12.529 80.8328 12.7666 81.2433 12.7666C81.7834 12.7666 82.2804 12.3562 82.2804 11.8161V11.0817ZM88.3948 13.4362L88.3515 12.6802H88.3299C88.0275 13.2418 87.5305 13.5442 86.8176 13.5442C85.6725 13.5442 84.8298 12.5506 84.8298 11.1465C84.8298 9.67759 85.6941 8.64073 86.904 8.64073C87.5305 8.64073 87.9843 8.85675 88.2435 9.28877H88.2651V6.54541H89.3238V12.1617C89.3238 12.6154 89.3454 13.0474 89.367 13.4362H88.3948ZM88.2435 10.6713C88.2435 10.0016 87.8114 9.43998 87.1416 9.43998C86.3638 9.43998 85.8885 10.1312 85.8885 11.1033C85.8885 12.0537 86.3854 12.7018 87.12 12.7018C87.7898 12.7018 88.2435 12.1185 88.2435 11.4489V10.6713ZM95.9567 13.5442C94.574 13.5442 93.6881 12.5074 93.6881 11.1249C93.6881 9.67759 94.5956 8.64073 96.0431 8.64073C97.4043 8.64073 98.3117 9.61279 98.3117 11.0601C98.3117 12.5074 97.3611 13.5442 95.9567 13.5442ZM95.9999 9.39678C95.2437 9.39678 94.7684 10.1096 94.7684 11.1033C94.7684 12.0753 95.2654 12.7882 95.9999 12.7882C96.7345 12.7882 97.2315 12.0321 97.2315 11.0817C97.2099 10.1096 96.7345 9.39678 95.9999 9.39678ZM103.951 13.4362H102.892V10.7361C102.892 9.89361 102.568 9.48318 101.941 9.48318C101.315 9.48318 100.904 10.0232 100.904 10.6281V13.4362H99.8457V10.0664C99.8457 9.65599 99.8457 9.20237 99.8025 8.72714H100.732L100.775 9.46158H100.796C101.077 8.96475 101.661 8.64073 102.287 8.64073C103.281 8.64073 103.929 9.39678 103.929 10.6281V13.4362H103.951ZM110.994 9.50478H109.849V11.7945C109.849 12.3778 110.044 12.6586 110.454 12.6586C110.649 12.6586 110.8 12.637 110.929 12.6154L110.951 13.4146C110.757 13.501 110.476 13.5226 110.13 13.5226C109.309 13.5226 108.812 13.069 108.812 11.8809V9.50478H108.121V8.72714H108.812V7.86309L109.849 7.56067V8.72714H110.994V9.50478ZM116.547 13.4362H115.51V10.7577C115.51 9.91521 115.186 9.48318 114.559 9.48318C114.019 9.48318 113.5 9.8504 113.5 10.6064V13.4578H112.463V6.54541H113.5V9.37518H113.522C113.846 8.85675 114.322 8.59753 114.948 8.59753C115.942 8.59753 116.547 9.37518 116.547 10.6064V13.4362ZM122.229 11.3409H119.075C119.096 12.2265 119.68 12.745 120.566 12.745C121.041 12.745 121.451 12.6586 121.84 12.529L122.013 13.2634C121.559 13.4578 121.041 13.5442 120.436 13.5442C118.967 13.5442 118.081 12.6154 118.081 11.1681C118.081 9.7208 118.967 8.64073 120.306 8.64073C121.516 8.64073 122.272 9.52639 122.272 10.8873C122.272 11.0169 122.272 11.1681 122.229 11.3409ZM121.279 10.5848C121.279 9.85041 120.911 9.33197 120.241 9.33197C119.636 9.33197 119.161 9.85041 119.096 10.5848H121.279Z" fill="white"/>
    </g>
    <defs>
        <clipPath id="clip0_14515_105475">
            <rect width="136" height="40" fill="white"/>
        </clipPath>
    </defs>
</svg>
