<svg width="136" height="40" viewBox="0 0 136 40" fill="none" xmlns="http://www.w3.org/2000/svg">
    <g clip-path="url(#clip0_14515_105479)">
        <path d="M130.963 40H5.03704C2.2163 40 0 37.8 0 35V5C0 2.2 2.2163 0 5.03704 0H130.963C133.784 0 136 2.2 136 5V35C136 37.8 133.784 40 130.963 40Z" fill="#1C1C1C"/>
        <path d="M47.6084 10.2034C47.6084 11.0031 47.4075 11.7029 46.9053 12.2027C46.3027 12.8025 45.5996 13.1024 44.6957 13.1024C43.7917 13.1024 43.0886 12.8025 42.486 12.2027C41.8833 11.6029 41.582 10.9031 41.582 10.0035C41.582 9.10377 41.8833 8.40402 42.486 7.80423C43.0886 7.20444 43.7917 6.90454 44.6957 6.90454C45.0974 6.90454 45.4992 7.00451 45.9009 7.20444C46.3027 7.40437 46.604 7.6043 46.8049 7.90419L46.3027 8.40402C45.9009 7.90419 45.3987 7.70426 44.6957 7.70426C44.093 7.70426 43.4904 7.90419 43.0886 8.40402C42.5864 8.80388 42.3855 9.40367 42.3855 10.1034C42.3855 10.8032 42.5864 11.403 43.0886 11.8028C43.5908 12.2027 44.093 12.5026 44.6957 12.5026C45.3987 12.5026 45.9009 12.3026 46.4031 11.8028C46.7044 11.5029 46.9053 11.1031 46.9053 10.6032H44.6957V9.80353H47.6084V10.2034ZM52.2286 7.70426H49.5167V9.6036H52.0277V10.3034H49.5167V12.2027H52.2286V13.0024H48.7132V7.00451H52.2286V7.70426ZM55.5431 13.0024H54.7396V7.70426H53.0321V7.00451H57.2506V7.70426H55.5431V13.0024ZM60.1633 13.0024V7.00451H60.9668V13.0024H60.1633ZM64.3818 13.0024H63.5783V7.70426H61.8708V7.00451H65.9888V7.70426H64.2813V13.0024H64.3818ZM73.9235 12.2027C73.3209 12.8025 72.6178 13.1024 71.7139 13.1024C70.8099 13.1024 70.1068 12.8025 69.5042 12.2027C68.9015 11.6029 68.6002 10.9031 68.6002 10.0035C68.6002 9.10377 68.9015 8.40402 69.5042 7.80423C70.1068 7.20444 70.8099 6.90454 71.7139 6.90454C72.6178 6.90454 73.3209 7.20444 73.9235 7.80423C74.5261 8.40402 74.8275 9.10377 74.8275 10.0035C74.8275 10.9031 74.5261 11.6029 73.9235 12.2027ZM70.1068 11.7029C70.5086 12.1027 71.1112 12.4026 71.7139 12.4026C72.3165 12.4026 72.9191 12.2027 73.3209 11.7029C73.7226 11.303 74.024 10.7032 74.024 10.0035C74.024 9.3037 73.8231 8.70391 73.3209 8.30405C72.9191 7.90419 72.3165 7.6043 71.7139 7.6043C71.1112 7.6043 70.5086 7.80423 70.1068 8.30405C69.7051 8.70391 69.4037 9.3037 69.4037 10.0035C69.4037 10.7032 69.6046 11.303 70.1068 11.7029ZM75.9323 13.0024V7.00451H76.8363L79.749 11.7029V7.00451H80.5525V13.0024H79.749L76.6354 8.10412V13.0024H75.9323Z" fill="white"/>
        <path d="M68.3991 21.7994C65.9886 21.7994 64.0803 23.5988 64.0803 26.0979C64.0803 28.4971 65.9886 30.3964 68.3991 30.3964C70.8097 30.3964 72.718 28.5971 72.718 26.0979C72.718 23.4988 70.8097 21.7994 68.3991 21.7994ZM68.3991 28.5971C67.0934 28.5971 65.9886 27.4974 65.9886 25.998C65.9886 24.4985 67.0934 23.3989 68.3991 23.3989C69.7049 23.3989 70.8097 24.3985 70.8097 25.998C70.8097 27.4974 69.7049 28.5971 68.3991 28.5971ZM59.0583 21.7994C56.6477 21.7994 54.7394 23.5988 54.7394 26.0979C54.7394 28.4971 56.6477 30.3964 59.0583 30.3964C61.4688 30.3964 63.3772 28.5971 63.3772 26.0979C63.3772 23.4988 61.4688 21.7994 59.0583 21.7994ZM59.0583 28.5971C57.7526 28.5971 56.6477 27.4974 56.6477 25.998C56.6477 24.4985 57.7526 23.3989 59.0583 23.3989C60.364 23.3989 61.4688 24.3985 61.4688 25.998C61.4688 27.4974 60.364 28.5971 59.0583 28.5971ZM47.9095 23.099V24.8983H52.2284C52.128 25.898 51.7262 26.6977 51.224 27.1975C50.6214 27.7973 49.617 28.4971 47.9095 28.4971C45.1977 28.4971 43.1889 26.3978 43.1889 23.6988C43.1889 20.9997 45.2981 18.9004 47.9095 18.9004C49.3157 18.9004 50.4205 19.5002 51.224 20.2L52.5297 18.9004C51.4249 17.9008 50.0187 17.1011 48.01 17.1011C44.3941 17.1011 41.2805 20.1 41.2805 23.6988C41.2805 27.2975 44.3941 30.2965 48.01 30.2965C50.0187 30.2965 51.4249 29.6967 52.6302 28.3971C53.8354 27.1975 54.2372 25.4981 54.2372 24.1986C54.2372 23.7987 54.2372 23.3989 54.1368 23.099H47.9095ZM93.509 24.4985C93.1072 23.4988 92.1028 21.7994 89.8932 21.7994C87.6835 21.7994 85.8756 23.4988 85.8756 26.0979C85.8756 28.4971 87.6835 30.3964 90.0941 30.3964C92.0024 30.3964 93.2077 29.1968 93.6094 28.4971L92.2033 27.4974C91.7011 28.1972 91.0984 28.697 90.0941 28.697C89.0897 28.697 88.487 28.2972 87.9848 27.3975L93.7099 24.9983L93.509 24.4985ZM87.6835 25.898C87.6835 24.2986 88.9892 23.3989 89.8932 23.3989C90.5962 23.3989 91.2993 23.7987 91.5002 24.2986L87.6835 25.898ZM82.9629 29.9966H84.8712V17.5009H82.9629V29.9966ZM79.9497 22.6991C79.4475 22.1993 78.644 21.6995 77.6396 21.6995C75.5303 21.6995 73.5216 23.5988 73.5216 25.998C73.5216 28.3971 75.4299 30.1965 77.6396 30.1965C78.644 30.1965 79.4475 29.6967 79.8492 29.1968H79.9497V29.7966C79.9497 31.3961 79.0457 32.2958 77.6396 32.2958C76.5347 32.2958 75.7312 31.496 75.5303 30.7963L73.9233 31.496C74.4255 32.5957 75.6308 33.9952 77.74 33.9952C79.9497 33.9952 81.7576 32.6956 81.7576 29.5967V21.9994H79.9497V22.6991ZM77.74 28.5971C76.4343 28.5971 75.3295 27.4974 75.3295 25.998C75.3295 24.4985 76.4343 23.3989 77.74 23.3989C79.0457 23.3989 80.0501 24.4985 80.0501 25.998C80.0501 27.4974 79.0457 28.5971 77.74 28.5971ZM102.247 17.5009H97.7274V29.9966H99.6358V25.2982H102.247C104.356 25.2982 106.365 23.7987 106.365 21.3996C106.365 19.0004 104.356 17.5009 102.247 17.5009ZM102.348 23.4988H99.6358V19.2003H102.348C103.754 19.2003 104.557 20.3999 104.557 21.2996C104.457 22.3992 103.653 23.4988 102.348 23.4988ZM113.898 21.6995C112.492 21.6995 111.086 22.2993 110.584 23.5988L112.291 24.2986C112.693 23.5988 113.296 23.3989 113.999 23.3989C115.003 23.3989 115.907 23.9987 116.007 24.9983V25.0983C115.706 24.8983 114.903 24.5985 114.099 24.5985C112.291 24.5985 110.483 25.5981 110.483 27.3975C110.483 29.0969 111.99 30.1965 113.597 30.1965C114.903 30.1965 115.505 29.5967 116.007 28.9969H116.108V29.9966H117.916V25.1982C117.715 22.999 116.007 21.6995 113.898 21.6995ZM113.697 28.5971C113.095 28.5971 112.191 28.2972 112.191 27.4974C112.191 26.4978 113.296 26.1979 114.2 26.1979C115.003 26.1979 115.405 26.3978 115.907 26.5978C115.706 27.7973 114.702 28.5971 113.697 28.5971ZM124.243 21.9994L122.134 27.3975H122.034L119.824 21.9994H117.815L121.13 29.5967L119.221 33.7952H121.13L126.252 21.9994H124.243ZM107.37 29.9966H109.278V17.5009H107.37V29.9966Z" fill="white"/>
        <path d="M10.4455 7.50415C10.1441 7.80405 10.0437 8.30387 10.0437 8.90366V30.9959C10.0437 31.5957 10.2446 32.0955 10.5459 32.3954L10.6463 32.4954L23.1008 20.0997V19.8998L10.4455 7.50415Z" fill="url(#paint0_linear_14515_105479)"/>
        <path d="M27.1185 24.2984L23.0005 20.1999V19.9L27.1185 15.8014L27.2189 15.9014L32.1405 18.7004C33.5466 19.5001 33.5466 20.7996 32.1405 21.5994L27.1185 24.2984Z" fill="url(#paint1_linear_14515_105479)"/>
        <path d="M27.2189 24.1985L23.0005 20L10.4456 32.4956C10.9478 32.9955 11.6508 32.9955 12.5548 32.5956L27.2189 24.1985Z" fill="url(#paint2_linear_14515_105479)"/>
        <path d="M27.2189 15.8014L12.5548 7.50427C11.6508 7.00444 10.9478 7.10441 10.4456 7.60423L23.0005 19.9999L27.2189 15.8014Z" fill="url(#paint3_linear_14515_105479)"/>
        <path opacity="0.2" d="M27.1185 24.0985L12.5548 32.2956C11.7513 32.7955 11.0482 32.6955 10.546 32.2956L10.4456 32.3956L10.546 32.4956C11.0482 32.8954 11.7513 32.9954 12.5548 32.4956L27.1185 24.0985Z" fill="#1C1C1C"/>
        <path opacity="0.2" d="M10.4455 32.2957C10.1441 31.9958 10.0437 31.496 10.0437 30.8962V30.9962C10.0437 31.5959 10.2446 32.0958 10.5459 32.3957V32.2957H10.4455ZM32.1404 21.2995L27.1184 24.0986L27.2188 24.1985L32.1404 21.3995C32.8435 20.9996 33.1448 20.4998 33.1448 20C33.1448 20.4998 32.743 20.8997 32.1404 21.2995Z" fill="#1C1C1C"/>
        <path opacity="0.2" d="M12.5547 7.60414L32.1404 18.7003C32.743 19.1001 33.1448 19.5 33.1448 19.9998C33.1448 19.5 32.8435 19.0002 32.1404 18.6003L12.5547 7.50418C11.1485 6.70446 10.0437 7.30424 10.0437 8.90369V9.00365C10.0437 7.50418 11.1485 6.80442 12.5547 7.60414Z" fill="white"/>
    </g>
    <defs>
        <linearGradient id="paint0_linear_14515_105479" x1="21.8956" y1="8.71373" x2="5.1186" y2="25.5693" gradientUnits="userSpaceOnUse">
            <stop stop-color="#00A0FF"/>
            <stop offset="0.007" stop-color="#00A1FF"/>
            <stop offset="0.26" stop-color="#00BEFF"/>
            <stop offset="0.512" stop-color="#00D2FF"/>
            <stop offset="0.76" stop-color="#00DFFF"/>
            <stop offset="1" stop-color="#00E3FF"/>
        </linearGradient>
        <linearGradient id="paint1_linear_14515_105479" x1="33.9825" y1="20.0009" x2="9.67921" y2="20.0009" gradientUnits="userSpaceOnUse">
            <stop stop-color="#FFE000"/>
            <stop offset="0.409" stop-color="#FFBD00"/>
            <stop offset="0.775" stop-color="#FFA500"/>
            <stop offset="1" stop-color="#FF9C00"/>
        </linearGradient>
        <linearGradient id="paint2_linear_14515_105479" x1="24.936" y1="22.2952" x2="2.18616" y2="45.153" gradientUnits="userSpaceOnUse">
            <stop stop-color="#FF3A44"/>
            <stop offset="1" stop-color="#C31162"/>
        </linearGradient>
        <linearGradient id="paint3_linear_14515_105479" x1="7.32892" y1="0.182831" x2="17.4883" y2="10.3904" gradientUnits="userSpaceOnUse">
            <stop stop-color="#32A071"/>
            <stop offset="0.069" stop-color="#2DA771"/>
            <stop offset="0.476" stop-color="#15CF74"/>
            <stop offset="0.801" stop-color="#06E775"/>
            <stop offset="1" stop-color="#00F076"/>
        </linearGradient>
        <clipPath id="clip0_14515_105479">
            <rect width="136" height="40" fill="white"/>
        </clipPath>
    </defs>
</svg>
