<svg width="30" height="28" viewBox="0 0 30 28" fill="none"
     xmlns="http://www.w3.org/2000/svg">
    <g clip-path="url(#clip0_14537_816287)">
        <path fill-rule="evenodd" clip-rule="evenodd"
              d="M14.72 0C6.97191 0 0.708374 6.30972 0.708374 14.1157C0.708374 20.3554 4.72164 25.6372 10.2891 27.5066C10.9852 27.6472 11.2402 27.2029 11.2402 26.8292C11.2402 26.502 11.2172 25.3803 11.2172 24.2115C7.31952 25.053 6.50786 22.5288 6.50786 22.5288C5.88148 20.8929 4.95338 20.4724 4.95338 20.4724C3.67767 19.6077 5.0463 19.6077 5.0463 19.6077C6.4614 19.7012 7.20394 21.0567 7.20394 21.0567C8.45642 23.2066 10.4747 22.5991 11.2866 22.2251C11.4025 21.3136 11.7739 20.6827 12.1683 20.3322C9.05957 20.005 5.78884 18.7898 5.78884 13.3677C5.78884 11.8253 6.34524 10.5633 7.22688 9.58188C7.08778 9.2314 6.6005 7.78217 7.36627 5.84251C7.36627 5.84251 8.54934 5.46852 11.2169 7.29145C12.359 6.98246 13.5368 6.82528 14.72 6.82396C15.903 6.82396 17.109 6.98772 18.2227 7.29145C20.8906 5.46852 22.0736 5.84251 22.0736 5.84251C22.8394 7.78217 22.3518 9.2314 22.2127 9.58188C23.1176 10.5633 23.6511 11.8253 23.6511 13.3677C23.6511 18.7898 20.3803 19.9814 17.2484 20.3322C17.7589 20.7762 18.1995 21.6174 18.1995 22.9496C18.1995 24.8425 18.1765 26.3617 18.1765 26.8289C18.1765 27.2029 18.4318 27.6472 19.1276 27.5069C24.695 25.6369 28.7083 20.3554 28.7083 14.1157C28.7313 6.30972 22.4448 0 14.72 0Z"
              fill="black" fill-opacity="0.32"/>
    </g>
    <defs>
        <clipPath id="clip0_14537_816287">
            <rect width="28.5833" height="28" fill="white" transform="translate(0.708374)"/>
        </clipPath>
    </defs>
</svg>
