<svg width="295" height="168" viewBox="0 0 295 168" fill="none" xmlns="http://www.w3.org/2000/svg">
<rect width="144" height="80" rx="8" fill="#F5F5F5"/>
<path d="M27.8474 43.5L25.1594 38.956C26.6154 38.46 27.5754 37.26 27.5754 35.788C27.5754 33.788 26.0234 32.3 23.8954 32.3H19.5914V43.5H21.4474V39.212H23.3034L25.7034 43.5H27.8474ZM23.8634 34.06C24.9514 34.06 25.7194 34.796 25.7194 35.804C25.7194 36.78 24.9514 37.516 23.8634 37.516H21.4474V34.06H23.8634ZM32.7791 43.692C34.9711 43.692 36.7951 41.804 36.7951 39.452C36.7951 37.084 34.9711 35.212 32.7791 35.212C30.5871 35.212 28.7631 37.084 28.7631 39.452C28.7631 41.804 30.5871 43.692 32.7791 43.692ZM32.7791 42.06C31.5311 42.06 30.5071 40.988 30.5071 39.452C30.5071 37.916 31.5311 36.844 32.7791 36.844C34.0271 36.844 35.0511 37.916 35.0511 39.452C35.0511 40.988 34.0271 42.06 32.7791 42.06ZM46.7194 35.212C45.5194 35.212 44.7034 35.964 44.3354 36.508C44.0474 35.996 43.3434 35.212 42.0634 35.212C40.9914 35.212 40.3034 35.98 40.0954 36.3H40.0154L39.6954 35.404H38.3834V43.5H40.1434V38.652C40.1434 37.532 40.7994 36.844 41.6314 36.844C42.4474 36.844 43.0874 37.5 43.0874 38.652V43.5H44.8474V38.652C44.8474 37.532 45.5034 36.844 46.3354 36.844C47.1674 36.844 47.7914 37.5 47.7914 38.652V43.5H49.5514V38.604C49.5514 36.444 48.3674 35.212 46.7194 35.212ZM58.9004 39.276C58.9004 36.972 57.2044 35.212 55.0444 35.212C52.8684 35.212 51.0444 37.084 51.0444 39.452C51.0444 41.852 52.8204 43.692 55.0604 43.692C56.8364 43.692 58.1644 42.428 58.6124 41.26H56.7884C56.5004 41.676 55.9564 42.108 55.0444 42.108C53.8924 42.108 53.0284 41.372 52.8044 40.14H58.8044C58.8524 39.964 58.9004 39.66 58.9004 39.276ZM55.0444 36.796C56.1324 36.796 56.9964 37.612 57.1884 38.812H52.8044C53.0284 37.58 53.9404 36.796 55.0444 36.796ZM64.0135 43.692C66.2055 43.692 68.0295 41.804 68.0295 39.452C68.0295 37.084 66.2055 35.212 64.0135 35.212C61.8215 35.212 59.9975 37.084 59.9975 39.452C59.9975 41.804 61.8215 43.692 64.0135 43.692ZM64.0135 42.06C62.7655 42.06 61.7415 40.988 61.7415 39.452C61.7415 37.916 62.7655 36.844 64.0135 36.844C65.2615 36.844 66.2855 37.916 66.2855 39.452C66.2855 40.988 65.2615 42.06 64.0135 42.06ZM80.4349 41.004L82.3709 38.204H80.5149L79.3629 39.852L77.5069 37.804L77.9389 37.42C78.8989 36.604 79.4109 35.708 79.4109 34.796C79.4109 33.324 78.2429 32.108 76.6269 32.108C74.9629 32.108 73.8269 33.308 73.8269 34.812C73.8269 35.756 74.2749 36.54 75.1389 37.5L75.2509 37.628L75.0909 37.756C74.0989 38.588 73.1549 39.58 73.1549 41.02C73.1549 42.54 74.4029 43.692 76.2589 43.692C77.6349 43.692 78.6109 43.02 79.4109 42.204L80.5949 43.5H82.7069L80.4349 41.004ZM76.6269 33.676C77.2669 33.676 77.7469 34.172 77.7469 34.844C77.7469 35.436 77.3629 35.996 76.8189 36.476L76.5309 36.732C75.7789 35.884 75.4749 35.404 75.4749 34.844C75.4749 34.172 75.9549 33.676 76.6269 33.676ZM76.3069 42.076C75.4589 42.076 74.8669 41.628 74.8669 40.844C74.8669 39.98 75.4109 39.372 76.0669 38.844L76.2269 38.7L78.3709 41.052C77.7469 41.676 77.1389 42.076 76.3069 42.076ZM89.4643 43.692C91.7043 43.692 93.1123 42.188 93.1123 40.108V32.3H91.2563V40.108C91.2563 41.164 90.5683 41.916 89.4643 41.916C88.3763 41.916 87.6883 41.116 87.6562 40.22H85.8163C85.8163 42.156 87.2403 43.692 89.4643 43.692ZM98.4576 43.692C99.6576 43.692 100.474 42.94 100.73 42.588H100.81L101.13 43.5H102.442V35.404H100.698V40.028C100.698 41.228 99.9136 42.06 98.8096 42.06C97.7376 42.06 96.9696 41.228 96.9696 40.028V35.404H95.2096V40.156C95.2096 42.3 96.5536 43.692 98.4576 43.692ZM106.333 43.5V32.3H104.573V43.5H106.333ZM109.326 34.268C109.902 34.268 110.35 33.82 110.35 33.244C110.35 32.652 109.902 32.204 109.326 32.204C108.75 32.204 108.286 32.652 108.286 33.244C108.286 33.82 108.75 34.268 109.326 34.268ZM110.206 43.5V35.404H108.446V43.5H110.206ZM119.635 39.276C119.635 36.972 117.939 35.212 115.779 35.212C113.603 35.212 111.779 37.084 111.779 39.452C111.779 41.852 113.555 43.692 115.795 43.692C117.571 43.692 118.899 42.428 119.347 41.26H117.523C117.235 41.676 116.691 42.108 115.779 42.108C114.627 42.108 113.763 41.372 113.539 40.14H119.539C119.587 39.964 119.635 39.66 119.635 39.276ZM115.779 36.796C116.867 36.796 117.731 37.612 117.923 38.812H113.539C113.763 37.58 114.675 36.796 115.779 36.796ZM124.128 43.692C124.56 43.692 124.88 43.612 125.088 43.532V41.932C124.928 42.012 124.736 42.044 124.528 42.044C123.808 42.044 123.328 41.628 123.328 40.732V36.988H125.088V35.404H123.328V33.324H121.808V34.54C121.808 35.164 121.472 35.5 120.832 35.5H120.256V36.988H121.584V40.876C121.584 42.652 122.656 43.692 124.128 43.692Z" fill="black"/>
<rect x="151" width="144" height="80" rx="8" fill="#F5F5F5"/>
<path d="M176.586 37.2812C177.315 37.2812 177.922 37.1354 178.406 36.8438C178.896 36.5521 179.221 36.026 179.383 35.2656C179.555 34.4479 179.375 33.8906 178.844 33.5938C178.557 33.4375 178.148 33.3594 177.617 33.3594H173.82L172.992 37.2812H176.586ZM172.555 32.0234H177.867C178.742 32.0234 179.435 32.151 179.945 32.4062C180.919 32.8958 181.268 33.7995 180.992 35.1172C180.846 35.8047 180.583 36.3672 180.203 36.8047C179.828 37.2422 179.357 37.5938 178.789 37.8594C179.201 38.0417 179.487 38.2812 179.648 38.5781C179.81 38.875 179.833 39.3568 179.719 40.0234L179.445 41.5625C179.367 42 179.336 42.3255 179.352 42.5391C179.367 42.9036 179.484 43.138 179.703 43.2422L179.648 43.5H177.742C177.711 43.401 177.695 43.2734 177.695 43.1172C177.695 42.9609 177.734 42.6589 177.812 42.2109L178.125 40.2969C178.245 39.5469 178.073 39.0443 177.609 38.7891C177.339 38.6484 176.885 38.5781 176.25 38.5781H172.711L171.672 43.5H170.117L172.555 32.0234ZM187.977 39.1797C188.143 38.3984 188.154 37.763 188.008 37.2734C187.773 36.5026 187.172 36.1172 186.203 36.1172C185.344 36.1172 184.648 36.4453 184.117 37.1016C183.591 37.7578 183.229 38.5495 183.031 39.4766C182.844 40.3672 182.88 41.1094 183.141 41.7031C183.406 42.2969 183.964 42.5938 184.812 42.5938C185.745 42.5938 186.458 42.2422 186.953 41.5391C187.453 40.8307 187.794 40.0443 187.977 39.1797ZM189.453 39.1406C189.167 40.4896 188.602 41.6042 187.758 42.4844C186.914 43.3646 185.802 43.8047 184.422 43.8047C183.271 43.8047 182.44 43.4167 181.93 42.6406C181.419 41.8594 181.302 40.8125 181.578 39.5C181.88 38.0938 182.477 36.974 183.367 36.1406C184.258 35.3073 185.305 34.8906 186.508 34.8906C187.586 34.8906 188.419 35.25 189.008 35.9688C189.602 36.6875 189.75 37.7448 189.453 39.1406ZM191.984 35.1328H193.375L193.125 36.3203C193.547 35.9089 193.911 35.6094 194.219 35.4219C194.75 35.1042 195.31 34.9453 195.898 34.9453C196.565 34.9453 197.068 35.1094 197.406 35.4375C197.594 35.625 197.742 35.901 197.852 36.2656C198.263 35.8177 198.701 35.487 199.164 35.2734C199.633 35.0547 200.13 34.9453 200.656 34.9453C201.781 34.9453 202.461 35.3516 202.695 36.1641C202.82 36.6016 202.805 37.1901 202.648 37.9297L201.469 43.5H200.008L201.242 37.6875C201.357 37.1302 201.297 36.7474 201.062 36.5391C200.828 36.3307 200.51 36.2266 200.109 36.2266C199.557 36.2266 199.042 36.4115 198.562 36.7812C198.089 37.151 197.76 37.7682 197.578 38.6328L196.547 43.5H195.117L196.273 38.0391C196.393 37.4714 196.414 37.0573 196.336 36.7969C196.206 36.4062 195.849 36.2109 195.266 36.2109C194.734 36.2109 194.206 36.4167 193.68 36.8281C193.159 37.2396 192.784 37.9844 192.555 39.0625L191.617 43.5H190.211L191.984 35.1328ZM211.516 36.4453C211.708 36.8672 211.792 37.3594 211.766 37.9219C211.771 38.3073 211.682 38.9219 211.5 39.7656H205.367C205.211 40.6146 205.266 41.2969 205.531 41.8125C205.802 42.3229 206.331 42.5781 207.117 42.5781C207.852 42.5781 208.487 42.3359 209.023 41.8516C209.336 41.5703 209.583 41.2448 209.766 40.875H211.148C211.044 41.1823 210.849 41.526 210.562 41.9062C210.281 42.2812 209.987 42.5885 209.68 42.8281C209.164 43.2448 208.576 43.526 207.914 43.6719C207.555 43.7552 207.161 43.7969 206.734 43.7969C205.693 43.7969 204.891 43.4193 204.328 42.6641C203.766 41.9036 203.63 40.8411 203.922 39.4766C204.208 38.1328 204.805 37.0417 205.711 36.2031C206.617 35.3646 207.659 34.9453 208.836 34.9453C209.43 34.9453 209.977 35.0859 210.477 35.3672C210.977 35.6432 211.323 36.0026 211.516 36.4453ZM210.289 38.6484C210.362 38.0391 210.333 37.5521 210.203 37.1875C209.964 36.5104 209.393 36.1719 208.492 36.1719C207.846 36.1719 207.255 36.4062 206.719 36.875C206.182 37.3385 205.823 37.9297 205.641 38.6484H210.289ZM219.117 39.1797C219.284 38.3984 219.294 37.763 219.148 37.2734C218.914 36.5026 218.312 36.1172 217.344 36.1172C216.484 36.1172 215.789 36.4453 215.258 37.1016C214.732 37.7578 214.37 38.5495 214.172 39.4766C213.984 40.3672 214.021 41.1094 214.281 41.7031C214.547 42.2969 215.104 42.5938 215.953 42.5938C216.885 42.5938 217.599 42.2422 218.094 41.5391C218.594 40.8307 218.935 40.0443 219.117 39.1797ZM220.594 39.1406C220.307 40.4896 219.742 41.6042 218.898 42.4844C218.055 43.3646 216.943 43.8047 215.562 43.8047C214.411 43.8047 213.581 43.4167 213.07 42.6406C212.56 41.8594 212.443 40.8125 212.719 39.5C213.021 38.0938 213.617 36.974 214.508 36.1406C215.398 35.3073 216.445 34.8906 217.648 34.8906C218.727 34.8906 219.56 35.25 220.148 35.9688C220.742 36.6875 220.891 37.7448 220.594 39.1406ZM232.039 35.6328C232.419 35.2786 232.656 34.8854 232.75 34.4531C232.818 34.1146 232.766 33.8229 232.594 33.5781C232.422 33.3333 232.146 33.2109 231.766 33.2109C231.188 33.2109 230.747 33.4036 230.445 33.7891C230.289 33.987 230.185 34.2031 230.133 34.4375C230.065 34.7552 230.086 35.0599 230.195 35.3516C230.31 35.6432 230.521 36.0208 230.828 36.4844C231.401 36.1354 231.805 35.8516 232.039 35.6328ZM231.914 41.2422L229.992 38.0781C229.154 38.5677 228.594 38.9427 228.312 39.2031C227.885 39.5938 227.615 40.0703 227.5 40.6328C227.37 41.2422 227.492 41.7109 227.867 42.0391C228.242 42.3672 228.682 42.5312 229.188 42.5312C229.766 42.5312 230.292 42.3984 230.766 42.1328C231.24 41.8672 231.622 41.5703 231.914 41.2422ZM228.727 34.6094C228.888 33.8698 229.268 33.2578 229.867 32.7734C230.471 32.2839 231.193 32.0391 232.031 32.0391C232.828 32.0391 233.401 32.2656 233.75 32.7188C234.104 33.1719 234.216 33.7135 234.086 34.3438C233.93 35.0781 233.56 35.7214 232.977 36.2734C232.638 36.5964 232.107 36.9688 231.383 37.3906L232.945 39.8906C233.174 39.474 233.336 39.1641 233.43 38.9609C233.529 38.7526 233.648 38.4635 233.789 38.0938H235.125C234.88 38.8281 234.552 39.5339 234.141 40.2109C233.734 40.8828 233.544 41.1536 233.57 41.0234L235.086 43.5H233.273L232.469 42.1875C231.943 42.651 231.482 42.9896 231.086 43.2031C230.383 43.5781 229.628 43.7656 228.82 43.7656C227.628 43.7656 226.828 43.4453 226.422 42.8047C226.021 42.1589 225.906 41.4323 226.078 40.625C226.26 39.7552 226.677 39.0286 227.328 38.4453C227.724 38.0911 228.419 37.6484 229.414 37.1172C229.049 36.5599 228.826 36.0911 228.742 35.7109C228.659 35.3307 228.654 34.9635 228.727 34.6094ZM247.477 40.0781C247.268 41.0469 246.964 41.7995 246.562 42.3359C245.823 43.3151 244.708 43.8047 243.219 43.8047C242.359 43.8047 241.674 43.5729 241.164 43.1094C240.654 42.6406 240.526 41.8099 240.781 40.6172L240.953 39.7969H242.414L242.242 40.6172C242.107 41.2422 242.146 41.7135 242.359 42.0312C242.573 42.3438 242.974 42.5 243.562 42.5C244.391 42.5 244.992 42.2161 245.367 41.6484C245.596 41.2995 245.815 40.6406 246.023 39.6719L247.648 32.0234H249.188L247.477 40.0781ZM252.109 35.1328L250.93 40.6875C250.841 41.1146 250.836 41.4635 250.914 41.7344C251.055 42.2344 251.466 42.4844 252.148 42.4844C253.128 42.4844 253.888 42.0469 254.43 41.1719C254.721 40.7031 254.953 40.0599 255.125 39.2422L256 35.1328H257.406L255.633 43.5H254.305L254.578 42.2656C254.328 42.5833 254.044 42.8516 253.727 43.0703C253.096 43.5078 252.398 43.7266 251.633 43.7266C250.44 43.7266 249.714 43.3281 249.453 42.5312C249.307 42.1042 249.31 41.5339 249.461 40.8203L250.672 35.1328H252.109ZM260.312 32.0234H261.719L259.281 43.5H257.875L260.312 32.0234ZM263.164 35.1719H264.594L262.828 43.5H261.398L263.164 35.1719ZM263.836 32.0234H265.266L264.922 33.6172H263.492L263.836 32.0234ZM272.938 36.4453C273.13 36.8672 273.214 37.3594 273.188 37.9219C273.193 38.3073 273.104 38.9219 272.922 39.7656H266.789C266.633 40.6146 266.688 41.2969 266.953 41.8125C267.224 42.3229 267.753 42.5781 268.539 42.5781C269.273 42.5781 269.909 42.3359 270.445 41.8516C270.758 41.5703 271.005 41.2448 271.188 40.875H272.57C272.466 41.1823 272.271 41.526 271.984 41.9062C271.703 42.2812 271.409 42.5885 271.102 42.8281C270.586 43.2448 269.997 43.526 269.336 43.6719C268.977 43.7552 268.583 43.7969 268.156 43.7969C267.115 43.7969 266.312 43.4193 265.75 42.6641C265.188 41.9036 265.052 40.8411 265.344 39.4766C265.63 38.1328 266.227 37.0417 267.133 36.2031C268.039 35.3646 269.081 34.9453 270.258 34.9453C270.852 34.9453 271.398 35.0859 271.898 35.3672C272.398 35.6432 272.745 36.0026 272.938 36.4453ZM271.711 38.6484C271.784 38.0391 271.755 37.5521 271.625 37.1875C271.385 36.5104 270.815 36.1719 269.914 36.1719C269.268 36.1719 268.677 36.4062 268.141 36.875C267.604 37.3385 267.245 37.9297 267.062 38.6484H271.711ZM276.422 32.7969H277.844L277.344 35.1328H278.68L278.438 36.2812H277.102L275.938 41.7422C275.875 42.0339 275.932 42.2292 276.109 42.3281C276.208 42.3854 276.385 42.4141 276.641 42.4141C276.708 42.4141 276.781 42.4141 276.859 42.4141C276.938 42.4089 277.031 42.401 277.141 42.3906L276.906 43.5C276.734 43.5469 276.557 43.5807 276.375 43.6016C276.198 43.6224 276.008 43.6328 275.805 43.6328C275.148 43.6328 274.737 43.4661 274.57 43.1328C274.409 42.7943 274.385 42.3568 274.5 41.8203L275.68 36.2812H274.547L274.789 35.1328H275.922L276.422 32.7969Z" fill="black"/>
<rect y="88" width="144" height="80" rx="8" fill="#F5F5F5"/>
<path d="M27.8474 131.5L25.1594 126.956C26.6154 126.46 27.5754 125.26 27.5754 123.788C27.5754 121.788 26.0234 120.3 23.8954 120.3H19.5914V131.5H21.4474V127.212H23.3034L25.7034 131.5H27.8474ZM23.8634 122.06C24.9514 122.06 25.7194 122.796 25.7194 123.804C25.7194 124.78 24.9514 125.516 23.8634 125.516H21.4474V122.06H23.8634ZM32.7791 131.692C34.9711 131.692 36.7951 129.804 36.7951 127.452C36.7951 125.084 34.9711 123.212 32.7791 123.212C30.5871 123.212 28.7631 125.084 28.7631 127.452C28.7631 129.804 30.5871 131.692 32.7791 131.692ZM32.7791 130.06C31.5311 130.06 30.5071 128.988 30.5071 127.452C30.5071 125.916 31.5311 124.844 32.7791 124.844C34.0271 124.844 35.0511 125.916 35.0511 127.452C35.0511 128.988 34.0271 130.06 32.7791 130.06ZM46.7194 123.212C45.5194 123.212 44.7034 123.964 44.3354 124.508C44.0474 123.996 43.3434 123.212 42.0634 123.212C40.9914 123.212 40.3034 123.98 40.0954 124.3H40.0154L39.6954 123.404H38.3834V131.5H40.1434V126.652C40.1434 125.532 40.7994 124.844 41.6314 124.844C42.4474 124.844 43.0874 125.5 43.0874 126.652V131.5H44.8474V126.652C44.8474 125.532 45.5034 124.844 46.3354 124.844C47.1674 124.844 47.7914 125.5 47.7914 126.652V131.5H49.5514V126.604C49.5514 124.444 48.3674 123.212 46.7194 123.212ZM58.9004 127.276C58.9004 124.972 57.2044 123.212 55.0444 123.212C52.8684 123.212 51.0444 125.084 51.0444 127.452C51.0444 129.852 52.8204 131.692 55.0604 131.692C56.8364 131.692 58.1644 130.428 58.6124 129.26H56.7884C56.5004 129.676 55.9564 130.108 55.0444 130.108C53.8924 130.108 53.0284 129.372 52.8044 128.14H58.8044C58.8524 127.964 58.9004 127.66 58.9004 127.276ZM55.0444 124.796C56.1324 124.796 56.9964 125.612 57.1884 126.812H52.8044C53.0284 125.58 53.9404 124.796 55.0444 124.796ZM64.0135 131.692C66.2055 131.692 68.0295 129.804 68.0295 127.452C68.0295 125.084 66.2055 123.212 64.0135 123.212C61.8215 123.212 59.9975 125.084 59.9975 127.452C59.9975 129.804 61.8215 131.692 64.0135 131.692ZM64.0135 130.06C62.7655 130.06 61.7415 128.988 61.7415 127.452C61.7415 125.916 62.7655 124.844 64.0135 124.844C65.2615 124.844 66.2855 125.916 66.2855 127.452C66.2855 128.988 65.2615 130.06 64.0135 130.06ZM80.4349 129.004L82.3709 126.204H80.5149L79.3629 127.852L77.5069 125.804L77.9389 125.42C78.8989 124.604 79.4109 123.708 79.4109 122.796C79.4109 121.324 78.2429 120.108 76.6269 120.108C74.9629 120.108 73.8269 121.308 73.8269 122.812C73.8269 123.756 74.2749 124.54 75.1389 125.5L75.2509 125.628L75.0909 125.756C74.0989 126.588 73.1549 127.58 73.1549 129.02C73.1549 130.54 74.4029 131.692 76.2589 131.692C77.6349 131.692 78.6109 131.02 79.4109 130.204L80.5949 131.5H82.7069L80.4349 129.004ZM76.6269 121.676C77.2669 121.676 77.7469 122.172 77.7469 122.844C77.7469 123.436 77.3629 123.996 76.8189 124.476L76.5309 124.732C75.7789 123.884 75.4749 123.404 75.4749 122.844C75.4749 122.172 75.9549 121.676 76.6269 121.676ZM76.3069 130.076C75.4589 130.076 74.8669 129.628 74.8669 128.844C74.8669 127.98 75.4109 127.372 76.0669 126.844L76.2269 126.7L78.3709 129.052C77.7469 129.676 77.1389 130.076 76.3069 130.076ZM89.4643 131.692C91.7043 131.692 93.1123 130.188 93.1123 128.108V120.3H91.2563V128.108C91.2563 129.164 90.5683 129.916 89.4643 129.916C88.3763 129.916 87.6883 129.116 87.6562 128.22H85.8163C85.8163 130.156 87.2403 131.692 89.4643 131.692ZM98.4576 131.692C99.6576 131.692 100.474 130.94 100.73 130.588H100.81L101.13 131.5H102.442V123.404H100.698V128.028C100.698 129.228 99.9136 130.06 98.8096 130.06C97.7376 130.06 96.9696 129.228 96.9696 128.028V123.404H95.2096V128.156C95.2096 130.3 96.5536 131.692 98.4576 131.692ZM106.333 131.5V120.3H104.573V131.5H106.333ZM109.326 122.268C109.902 122.268 110.35 121.82 110.35 121.244C110.35 120.652 109.902 120.204 109.326 120.204C108.75 120.204 108.286 120.652 108.286 121.244C108.286 121.82 108.75 122.268 109.326 122.268ZM110.206 131.5V123.404H108.446V131.5H110.206ZM119.635 127.276C119.635 124.972 117.939 123.212 115.779 123.212C113.603 123.212 111.779 125.084 111.779 127.452C111.779 129.852 113.555 131.692 115.795 131.692C117.571 131.692 118.899 130.428 119.347 129.26H117.523C117.235 129.676 116.691 130.108 115.779 130.108C114.627 130.108 113.763 129.372 113.539 128.14H119.539C119.587 127.964 119.635 127.66 119.635 127.276ZM115.779 124.796C116.867 124.796 117.731 125.612 117.923 126.812H113.539C113.763 125.58 114.675 124.796 115.779 124.796ZM124.128 131.692C124.56 131.692 124.88 131.612 125.088 131.532V129.932C124.928 130.012 124.736 130.044 124.528 130.044C123.808 130.044 123.328 129.628 123.328 128.732V124.988H125.088V123.404H123.328V121.324H121.808V122.54C121.808 123.164 121.472 123.5 120.832 123.5H120.256V124.988H121.584V128.876C121.584 130.652 122.656 131.692 124.128 131.692Z" fill="#2970FF"/>
<rect x="151" y="88" width="144" height="80" rx="8" fill="#F5F5F5"/>
<path d="M182.512 110.546C182.913 110.313 183.366 110.145 183.87 110.042C184.374 109.939 184.869 109.888 185.354 109.888C185.83 109.888 186.217 109.963 186.516 110.112C186.824 110.261 187.062 110.457 187.23 110.7C187.407 110.933 187.524 111.204 187.58 111.512C187.645 111.811 187.678 112.114 187.678 112.422C187.678 112.777 187.669 113.155 187.65 113.556C187.631 113.957 187.617 114.359 187.608 114.76C187.608 115.227 187.636 115.67 187.692 116.09H188.63V117H186.768L186.642 115.95H186.572C186.516 116.034 186.432 116.141 186.32 116.272C186.208 116.403 186.059 116.533 185.872 116.664C185.695 116.785 185.475 116.893 185.214 116.986C184.953 117.079 184.645 117.126 184.29 117.126C183.599 117.126 183.053 116.949 182.652 116.594C182.251 116.239 182.05 115.754 182.05 115.138C182.05 114.662 182.153 114.265 182.358 113.948C182.573 113.631 182.876 113.388 183.268 113.22C183.66 113.052 184.131 112.954 184.682 112.926C185.242 112.898 185.867 112.935 186.558 113.038C186.605 112.609 186.609 112.254 186.572 111.974C186.544 111.685 186.469 111.456 186.348 111.288C186.236 111.12 186.073 111.003 185.858 110.938C185.653 110.863 185.396 110.826 185.088 110.826C184.668 110.826 184.267 110.887 183.884 111.008C183.501 111.12 183.161 111.237 182.862 111.358L182.512 110.546ZM184.57 116.188C184.831 116.188 185.074 116.146 185.298 116.062C185.522 115.978 185.718 115.871 185.886 115.74C186.054 115.609 186.194 115.469 186.306 115.32C186.418 115.161 186.502 115.012 186.558 114.872V113.892C186.073 113.808 185.625 113.766 185.214 113.766C184.803 113.766 184.449 113.813 184.15 113.906C183.851 113.99 183.618 114.125 183.45 114.312C183.282 114.499 183.198 114.741 183.198 115.04C183.198 115.348 183.301 115.619 183.506 115.852C183.721 116.076 184.075 116.188 184.57 116.188ZM182.512 142.546C182.913 142.313 183.366 142.145 183.87 142.042C184.374 141.939 184.869 141.888 185.354 141.888C185.83 141.888 186.217 141.963 186.516 142.112C186.824 142.261 187.062 142.457 187.23 142.7C187.407 142.933 187.524 143.204 187.58 143.512C187.645 143.811 187.678 144.114 187.678 144.422C187.678 144.777 187.669 145.155 187.65 145.556C187.631 145.957 187.617 146.359 187.608 146.76C187.608 147.227 187.636 147.67 187.692 148.09H188.63V149H186.768L186.642 147.95H186.572C186.516 148.034 186.432 148.141 186.32 148.272C186.208 148.403 186.059 148.533 185.872 148.664C185.695 148.785 185.475 148.893 185.214 148.986C184.953 149.079 184.645 149.126 184.29 149.126C183.599 149.126 183.053 148.949 182.652 148.594C182.251 148.239 182.05 147.754 182.05 147.138C182.05 146.662 182.153 146.265 182.358 145.948C182.573 145.631 182.876 145.388 183.268 145.22C183.66 145.052 184.131 144.954 184.682 144.926C185.242 144.898 185.867 144.935 186.558 145.038C186.605 144.609 186.609 144.254 186.572 143.974C186.544 143.685 186.469 143.456 186.348 143.288C186.236 143.12 186.073 143.003 185.858 142.938C185.653 142.863 185.396 142.826 185.088 142.826C184.668 142.826 184.267 142.887 183.884 143.008C183.501 143.12 183.161 143.237 182.862 143.358L182.512 142.546ZM184.57 148.188C184.831 148.188 185.074 148.146 185.298 148.062C185.522 147.978 185.718 147.871 185.886 147.74C186.054 147.609 186.194 147.469 186.306 147.32C186.418 147.161 186.502 147.012 186.558 146.872V145.892C186.073 145.808 185.625 145.766 185.214 145.766C184.803 145.766 184.449 145.813 184.15 145.906C183.851 145.99 183.618 146.125 183.45 146.312C183.282 146.499 183.198 146.741 183.198 147.04C183.198 147.348 183.301 147.619 183.506 147.852C183.721 148.076 184.075 148.188 184.57 148.188Z" fill="#2970FF"/>
<path d="M198.741 110.602H205.237V111.61H198.741V110.602ZM198.741 112.898H205.237V113.906H198.741V112.898ZM215.978 107.298C216.333 107.233 216.739 107.181 217.196 107.144C217.663 107.107 218.087 107.088 218.47 107.088C218.899 107.088 219.305 107.135 219.688 107.228C220.08 107.321 220.421 107.475 220.71 107.69C221.009 107.905 221.247 108.185 221.424 108.53C221.601 108.875 221.69 109.295 221.69 109.79C221.69 110.173 221.625 110.513 221.494 110.812C221.373 111.101 221.219 111.353 221.032 111.568C220.855 111.773 220.668 111.941 220.472 112.072C220.276 112.203 220.108 112.296 219.968 112.352L222.558 117H221.2L218.89 112.688H217.14V117H215.978V107.298ZM218.498 108.096C218.377 108.096 218.251 108.096 218.12 108.096C217.989 108.096 217.863 108.101 217.742 108.11C217.621 108.119 217.504 108.129 217.392 108.138C217.289 108.147 217.205 108.161 217.14 108.18V111.792H218.232C218.876 111.792 219.408 111.633 219.828 111.316C220.248 110.999 220.458 110.504 220.458 109.832C220.458 109.328 220.285 108.913 219.94 108.586C219.595 108.259 219.114 108.096 218.498 108.096ZM223.771 113.5C223.771 112.371 224.065 111.479 224.653 110.826C225.241 110.163 226.081 109.832 227.173 109.832C227.761 109.832 228.265 109.93 228.685 110.126C229.114 110.313 229.469 110.569 229.749 110.896C230.029 111.223 230.234 111.61 230.365 112.058C230.505 112.506 230.575 112.987 230.575 113.5C230.575 114.06 230.5 114.569 230.351 115.026C230.201 115.474 229.982 115.857 229.693 116.174C229.403 116.491 229.044 116.739 228.615 116.916C228.195 117.084 227.714 117.168 227.173 117.168C226.594 117.168 226.09 117.075 225.661 116.888C225.231 116.692 224.877 116.431 224.597 116.104C224.317 115.777 224.107 115.39 223.967 114.942C223.836 114.494 223.771 114.013 223.771 113.5ZM224.933 113.5C224.933 113.827 224.97 114.153 225.045 114.48C225.129 114.807 225.259 115.101 225.437 115.362C225.614 115.623 225.843 115.833 226.123 115.992C226.412 116.151 226.762 116.23 227.173 116.23C227.919 116.23 228.479 116.001 228.853 115.544C229.235 115.077 229.427 114.396 229.427 113.5C229.427 113.164 229.385 112.837 229.301 112.52C229.226 112.193 229.095 111.899 228.909 111.638C228.731 111.377 228.498 111.167 228.209 111.008C227.929 110.849 227.583 110.77 227.173 110.77C226.426 110.77 225.866 110.999 225.493 111.456C225.119 111.913 224.933 112.595 224.933 113.5ZM235.035 117V112.338C235.035 112.142 235.026 111.955 235.007 111.778C234.998 111.591 234.965 111.428 234.909 111.288C234.863 111.139 234.788 111.022 234.685 110.938C234.592 110.854 234.466 110.812 234.307 110.812C233.99 110.812 233.719 110.943 233.495 111.204C233.281 111.465 233.117 111.792 233.005 112.184V117H231.941V110H232.669L232.879 110.854H232.935C233.029 110.714 233.117 110.583 233.201 110.462C233.295 110.331 233.397 110.219 233.509 110.126C233.631 110.033 233.771 109.963 233.929 109.916C234.088 109.86 234.289 109.832 234.531 109.832C234.671 109.832 234.816 109.855 234.965 109.902C235.115 109.939 235.25 110.005 235.371 110.098C235.502 110.182 235.614 110.299 235.707 110.448C235.801 110.597 235.861 110.779 235.889 110.994C236.104 110.63 236.342 110.345 236.603 110.14C236.874 109.935 237.243 109.832 237.709 109.832C238.017 109.832 238.265 109.883 238.451 109.986C238.647 110.089 238.797 110.238 238.899 110.434C239.011 110.621 239.086 110.849 239.123 111.12C239.17 111.381 239.193 111.675 239.193 112.002V117H238.129V112.24C238.129 112.044 238.12 111.862 238.101 111.694C238.083 111.517 238.045 111.363 237.989 111.232C237.943 111.101 237.873 110.999 237.779 110.924C237.695 110.849 237.579 110.812 237.429 110.812C237.103 110.812 236.827 110.943 236.603 111.204C236.379 111.465 236.211 111.839 236.099 112.324V117H235.035ZM247.168 116.118C247 116.267 246.799 116.407 246.566 116.538C246.342 116.669 246.094 116.781 245.824 116.874C245.553 116.967 245.268 117.037 244.97 117.084C244.68 117.14 244.386 117.168 244.088 117.168C243.528 117.168 243.033 117.084 242.604 116.916C242.174 116.739 241.815 116.491 241.526 116.174C241.236 115.847 241.017 115.46 240.868 115.012C240.718 114.564 240.644 114.06 240.644 113.5C240.644 112.912 240.723 112.389 240.882 111.932C241.05 111.475 241.288 111.092 241.596 110.784C241.904 110.476 242.277 110.243 242.716 110.084C243.154 109.916 243.644 109.832 244.186 109.832C244.578 109.832 244.965 109.883 245.348 109.986C245.73 110.089 246.066 110.285 246.356 110.574C246.654 110.854 246.883 111.246 247.042 111.75C247.2 112.245 247.256 112.889 247.21 113.682H241.792C241.792 114.522 242.016 115.152 242.464 115.572C242.921 115.983 243.528 116.188 244.284 116.188C244.536 116.188 244.783 116.16 245.026 116.104C245.278 116.039 245.516 115.964 245.74 115.88C245.964 115.796 246.16 115.703 246.328 115.6C246.505 115.497 246.64 115.404 246.734 115.32L247.168 116.118ZM244.214 110.756C243.906 110.756 243.612 110.789 243.332 110.854C243.061 110.919 242.818 111.031 242.604 111.19C242.398 111.339 242.226 111.54 242.086 111.792C241.955 112.035 241.871 112.338 241.834 112.702H246.188C246.141 112.086 245.94 111.61 245.586 111.274C245.24 110.929 244.783 110.756 244.214 110.756ZM248.954 113.5C248.954 112.371 249.248 111.479 249.836 110.826C250.424 110.163 251.264 109.832 252.356 109.832C252.944 109.832 253.448 109.93 253.868 110.126C254.298 110.313 254.652 110.569 254.932 110.896C255.212 111.223 255.418 111.61 255.548 112.058C255.688 112.506 255.758 112.987 255.758 113.5C255.758 114.06 255.684 114.569 255.534 115.026C255.385 115.474 255.166 115.857 254.876 116.174C254.587 116.491 254.228 116.739 253.798 116.916C253.378 117.084 252.898 117.168 252.356 117.168C251.778 117.168 251.274 117.075 250.844 116.888C250.415 116.692 250.06 116.431 249.78 116.104C249.5 115.777 249.29 115.39 249.15 114.942C249.02 114.494 248.954 114.013 248.954 113.5ZM250.116 113.5C250.116 113.827 250.154 114.153 250.228 114.48C250.312 114.807 250.443 115.101 250.62 115.362C250.798 115.623 251.026 115.833 251.306 115.992C251.596 116.151 251.946 116.23 252.356 116.23C253.103 116.23 253.663 116.001 254.036 115.544C254.419 115.077 254.61 114.396 254.61 113.5C254.61 113.164 254.568 112.837 254.484 112.52C254.41 112.193 254.279 111.899 254.092 111.638C253.915 111.377 253.682 111.167 253.392 111.008C253.112 110.849 252.767 110.77 252.356 110.77C251.61 110.77 251.05 110.999 250.676 111.456C250.303 111.913 250.116 112.595 250.116 113.5ZM198.741 126.602H205.237V127.61H198.741V126.602ZM198.741 128.898H205.237V129.906H198.741V128.898ZM215.936 123.2H221.48V129.528C221.48 130.704 221.2 131.6 220.64 132.216C220.08 132.832 219.273 133.14 218.218 133.14C217.947 133.14 217.681 133.117 217.42 133.07C217.159 133.023 216.916 132.963 216.692 132.888C216.468 132.804 216.272 132.715 216.104 132.622C215.945 132.529 215.829 132.44 215.754 132.356L216.258 131.432C216.361 131.497 216.473 131.567 216.594 131.642C216.725 131.717 216.865 131.791 217.014 131.866C217.173 131.931 217.345 131.987 217.532 132.034C217.728 132.081 217.947 132.104 218.19 132.104C218.89 132.104 219.417 131.885 219.772 131.446C220.136 131.007 220.318 130.298 220.318 129.318V124.236H215.936V123.2ZM228.055 126H230.043V130.774C230.043 131.231 230.071 131.67 230.127 132.09H231.065V133H229.203L229.161 131.81H229.105C228.862 132.211 228.54 132.538 228.139 132.79C227.737 133.042 227.252 133.168 226.683 133.168C226.253 133.168 225.885 133.117 225.577 133.014C225.278 132.921 225.031 132.753 224.835 132.51C224.639 132.267 224.494 131.945 224.401 131.544C224.307 131.133 224.261 130.625 224.261 130.018V126.938H223.323V126H225.353V129.794C225.353 130.177 225.367 130.522 225.395 130.83C225.432 131.129 225.502 131.385 225.605 131.6C225.707 131.805 225.857 131.964 226.053 132.076C226.258 132.179 226.529 132.23 226.865 132.23C227.35 132.23 227.77 132.071 228.125 131.754C228.489 131.437 228.764 131.04 228.951 130.564V126.938H228.055V126ZM233.033 123.2H235.357V130.648C235.357 131.217 235.451 131.619 235.637 131.852C235.833 132.085 236.118 132.202 236.491 132.202C236.753 132.202 237 132.155 237.233 132.062C237.476 131.969 237.742 131.81 238.031 131.586L238.535 132.356C238.386 132.487 238.223 132.603 238.045 132.706C237.868 132.809 237.686 132.897 237.499 132.972C237.313 133.037 237.126 133.089 236.939 133.126C236.753 133.163 236.58 133.182 236.421 133.182C236.076 133.182 235.768 133.135 235.497 133.042C235.227 132.958 234.998 132.818 234.811 132.622C234.634 132.426 234.499 132.169 234.405 131.852C234.312 131.525 234.265 131.124 234.265 130.648V124.138H233.033V123.2ZM241.232 133V132.062H243.668V126.938H241.232V126H244.788V132.062H247.168V133H241.232ZM243.29 124.012C243.29 123.76 243.374 123.545 243.542 123.368C243.71 123.181 243.924 123.088 244.186 123.088C244.456 123.088 244.68 123.181 244.858 123.368C245.044 123.545 245.138 123.76 245.138 124.012C245.138 124.255 245.044 124.46 244.858 124.628C244.68 124.796 244.456 124.88 244.186 124.88C243.924 124.88 243.71 124.796 243.542 124.628C243.374 124.46 243.29 124.255 243.29 124.012ZM255.562 132.118C255.394 132.267 255.194 132.407 254.96 132.538C254.736 132.669 254.489 132.781 254.218 132.874C253.948 132.967 253.663 133.037 253.364 133.084C253.075 133.14 252.781 133.168 252.482 133.168C251.922 133.168 251.428 133.084 250.998 132.916C250.569 132.739 250.21 132.491 249.92 132.174C249.631 131.847 249.412 131.46 249.262 131.012C249.113 130.564 249.038 130.06 249.038 129.5C249.038 128.912 249.118 128.389 249.276 127.932C249.444 127.475 249.682 127.092 249.99 126.784C250.298 126.476 250.672 126.243 251.11 126.084C251.549 125.916 252.039 125.832 252.58 125.832C252.972 125.832 253.36 125.883 253.742 125.986C254.125 126.089 254.461 126.285 254.75 126.574C255.049 126.854 255.278 127.246 255.436 127.75C255.595 128.245 255.651 128.889 255.604 129.682H250.186C250.186 130.522 250.41 131.152 250.858 131.572C251.316 131.983 251.922 132.188 252.678 132.188C252.93 132.188 253.178 132.16 253.42 132.104C253.672 132.039 253.91 131.964 254.134 131.88C254.358 131.796 254.554 131.703 254.722 131.6C254.9 131.497 255.035 131.404 255.128 131.32L255.562 132.118ZM252.608 126.756C252.3 126.756 252.006 126.789 251.726 126.854C251.456 126.919 251.213 127.031 250.998 127.19C250.793 127.339 250.62 127.54 250.48 127.792C250.35 128.035 250.266 128.338 250.228 128.702H254.582C254.536 128.086 254.335 127.61 253.98 127.274C253.635 126.929 253.178 126.756 252.608 126.756ZM256.985 126H258.651V124.614L259.743 124.306V126H263.481V126.938H259.743V130.242C259.743 130.923 259.906 131.427 260.233 131.754C260.569 132.081 261.045 132.244 261.661 132.244C262.081 132.244 262.445 132.165 262.753 132.006C263.07 131.847 263.355 131.675 263.607 131.488L263.971 132.314C263.644 132.575 263.252 132.785 262.795 132.944C262.347 133.103 261.885 133.182 261.409 133.182C261.035 133.182 260.681 133.126 260.345 133.014C260.018 132.911 259.729 132.748 259.477 132.524C259.225 132.3 259.024 132.015 258.875 131.67C258.725 131.315 258.651 130.895 258.651 130.41V126.938H256.985V126ZM198.209 146.102C198.209 145.486 198.382 144.898 198.727 144.338C199.072 143.778 199.553 143.307 200.169 142.924C199.945 142.588 199.749 142.252 199.581 141.916C199.422 141.58 199.343 141.216 199.343 140.824C199.343 140.6 199.38 140.381 199.455 140.166C199.53 139.951 199.646 139.76 199.805 139.592C199.973 139.424 200.183 139.289 200.435 139.186C200.696 139.083 201.009 139.032 201.373 139.032C201.756 139.032 202.078 139.083 202.339 139.186C202.6 139.279 202.81 139.405 202.969 139.564C203.128 139.723 203.24 139.9 203.305 140.096C203.38 140.292 203.417 140.493 203.417 140.698C203.417 141.09 203.263 141.496 202.955 141.916C202.656 142.327 202.18 142.723 201.527 143.106C201.676 143.377 201.849 143.657 202.045 143.946C202.25 144.226 202.465 144.506 202.689 144.786C202.913 145.066 203.142 145.346 203.375 145.626C203.608 145.897 203.842 146.149 204.075 146.382C204.178 146.233 204.266 146.051 204.341 145.836C204.425 145.621 204.49 145.397 204.537 145.164C204.593 144.931 204.63 144.697 204.649 144.464C204.677 144.231 204.691 144.016 204.691 143.82H205.685C205.657 144.408 205.564 144.996 205.405 145.584C205.246 146.163 205.013 146.653 204.705 147.054C204.836 147.213 204.985 147.371 205.153 147.53C205.321 147.679 205.522 147.829 205.755 147.978V149.168C205.26 148.925 204.696 148.491 204.061 147.866C203.893 148.034 203.72 148.197 203.543 148.356C203.375 148.505 203.184 148.641 202.969 148.762C202.754 148.883 202.507 148.981 202.227 149.056C201.956 149.131 201.639 149.168 201.275 149.168C200.892 149.168 200.519 149.107 200.155 148.986C199.791 148.855 199.464 148.664 199.175 148.412C198.886 148.16 198.652 147.843 198.475 147.46C198.298 147.077 198.209 146.625 198.209 146.102ZM203.403 147.166C203.132 146.895 202.866 146.601 202.605 146.284C202.344 145.967 202.092 145.649 201.849 145.332C201.616 145.015 201.396 144.711 201.191 144.422C200.995 144.123 200.827 143.862 200.687 143.638C200.183 144.021 199.828 144.408 199.623 144.8C199.427 145.192 199.329 145.612 199.329 146.06C199.329 146.424 199.394 146.741 199.525 147.012C199.665 147.273 199.838 147.493 200.043 147.67C200.248 147.847 200.472 147.978 200.715 148.062C200.967 148.146 201.21 148.188 201.443 148.188C201.91 148.188 202.297 148.085 202.605 147.88C202.922 147.665 203.188 147.427 203.403 147.166ZM200.435 140.824C200.435 141.104 200.491 141.384 200.603 141.664C200.724 141.935 200.878 142.205 201.065 142.476C201.56 142.159 201.9 141.869 202.087 141.608C202.283 141.347 202.381 141.118 202.381 140.922C202.381 140.623 202.306 140.381 202.157 140.194C202.017 140.007 201.77 139.914 201.415 139.914C201.079 139.914 200.832 139.998 200.673 140.166C200.514 140.334 200.435 140.553 200.435 140.824ZM206.604 146.102C206.604 145.486 206.776 144.898 207.122 144.338C207.467 143.778 207.948 143.307 208.564 142.924C208.34 142.588 208.144 142.252 207.976 141.916C207.817 141.58 207.738 141.216 207.738 140.824C207.738 140.6 207.775 140.381 207.85 140.166C207.924 139.951 208.041 139.76 208.2 139.592C208.368 139.424 208.578 139.289 208.83 139.186C209.091 139.083 209.404 139.032 209.768 139.032C210.15 139.032 210.472 139.083 210.734 139.186C210.995 139.279 211.205 139.405 211.364 139.564C211.522 139.723 211.634 139.9 211.7 140.096C211.774 140.292 211.812 140.493 211.812 140.698C211.812 141.09 211.658 141.496 211.35 141.916C211.051 142.327 210.575 142.723 209.922 143.106C210.071 143.377 210.244 143.657 210.44 143.946C210.645 144.226 210.86 144.506 211.084 144.786C211.308 145.066 211.536 145.346 211.77 145.626C212.003 145.897 212.236 146.149 212.47 146.382C212.572 146.233 212.661 146.051 212.736 145.836C212.82 145.621 212.885 145.397 212.932 145.164C212.988 144.931 213.025 144.697 213.044 144.464C213.072 144.231 213.086 144.016 213.086 143.82H214.08C214.052 144.408 213.958 144.996 213.8 145.584C213.641 146.163 213.408 146.653 213.1 147.054C213.23 147.213 213.38 147.371 213.548 147.53C213.716 147.679 213.916 147.829 214.15 147.978V149.168C213.655 148.925 213.09 148.491 212.456 147.866C212.288 148.034 212.115 148.197 211.938 148.356C211.77 148.505 211.578 148.641 211.364 148.762C211.149 148.883 210.902 148.981 210.622 149.056C210.351 149.131 210.034 149.168 209.67 149.168C209.287 149.168 208.914 149.107 208.55 148.986C208.186 148.855 207.859 148.664 207.57 148.412C207.28 148.16 207.047 147.843 206.87 147.46C206.692 147.077 206.604 146.625 206.604 146.102ZM211.798 147.166C211.527 146.895 211.261 146.601 211 146.284C210.738 145.967 210.486 145.649 210.244 145.332C210.01 145.015 209.791 144.711 209.586 144.422C209.39 144.123 209.222 143.862 209.082 143.638C208.578 144.021 208.223 144.408 208.018 144.8C207.822 145.192 207.724 145.612 207.724 146.06C207.724 146.424 207.789 146.741 207.92 147.012C208.06 147.273 208.232 147.493 208.438 147.67C208.643 147.847 208.867 147.978 209.11 148.062C209.362 148.146 209.604 148.188 209.838 148.188C210.304 148.188 210.692 148.085 211 147.88C211.317 147.665 211.583 147.427 211.798 147.166ZM208.83 140.824C208.83 141.104 208.886 141.384 208.998 141.664C209.119 141.935 209.273 142.205 209.46 142.476C209.954 142.159 210.295 141.869 210.482 141.608C210.678 141.347 210.776 141.118 210.776 140.922C210.776 140.623 210.701 140.381 210.552 140.194C210.412 140.007 210.164 139.914 209.81 139.914C209.474 139.914 209.226 139.998 209.068 140.166C208.909 140.334 208.83 140.553 208.83 140.824Z" fill="black"/>
<path d="M181.028 123.2H183.268V126.798H183.338C183.581 126.49 183.893 126.252 184.276 126.084C184.659 125.916 185.074 125.832 185.522 125.832C187.575 125.832 188.602 127.017 188.602 129.388C188.602 130.592 188.271 131.516 187.608 132.16C186.945 132.795 186.003 133.112 184.78 133.112C184.201 133.112 183.679 133.056 183.212 132.944C182.745 132.832 182.405 132.701 182.19 132.552V124.138H181.028V123.2ZM185.382 126.77C184.822 126.77 184.369 126.929 184.024 127.246C183.679 127.563 183.427 128.011 183.268 128.59V131.81C183.483 131.922 183.739 132.011 184.038 132.076C184.337 132.141 184.649 132.174 184.976 132.174C185.349 132.174 185.685 132.123 185.984 132.02C186.292 131.908 186.553 131.74 186.768 131.516C186.983 131.283 187.146 130.989 187.258 130.634C187.379 130.279 187.44 129.859 187.44 129.374C187.44 129.019 187.403 128.683 187.328 128.366C187.253 128.049 187.132 127.773 186.964 127.54C186.805 127.297 186.595 127.111 186.334 126.98C186.073 126.84 185.755 126.77 185.382 126.77ZM223.001 139.2H225.241V142.798H225.311C225.553 142.49 225.866 142.252 226.249 142.084C226.631 141.916 227.047 141.832 227.495 141.832C229.548 141.832 230.575 143.017 230.575 145.388C230.575 146.592 230.243 147.516 229.581 148.16C228.918 148.795 227.975 149.112 226.753 149.112C226.174 149.112 225.651 149.056 225.185 148.944C224.718 148.832 224.377 148.701 224.163 148.552V140.138H223.001V139.2ZM227.355 142.77C226.795 142.77 226.342 142.929 225.997 143.246C225.651 143.563 225.399 144.011 225.241 144.59V147.81C225.455 147.922 225.712 148.011 226.011 148.076C226.309 148.141 226.622 148.174 226.949 148.174C227.322 148.174 227.658 148.123 227.957 148.02C228.265 147.908 228.526 147.74 228.741 147.516C228.955 147.283 229.119 146.989 229.231 146.634C229.352 146.279 229.413 145.859 229.413 145.374C229.413 145.019 229.375 144.683 229.301 144.366C229.226 144.049 229.105 143.773 228.937 143.54C228.778 143.297 228.568 143.111 228.307 142.98C228.045 142.84 227.728 142.77 227.355 142.77Z" fill="#FF3880"/>
</svg>
