<svg width="32" height="32" viewBox="0 0 32 32" fill="none" xmlns="http://www.w3.org/2000/svg">
<path d="M32 16C32 7.15852 24.8415 0 16 0C7.15852 0 0 7.15852 0 16C0 23.9881 5.85482 30.6015 13.5111 31.8104V20.6222H9.43407V16H13.5111V12.4681C13.5111 8.46222 15.8815 6.25778 19.5319 6.25778C21.2859 6.25778 23.1111 6.56593 23.1111 6.56593V10.5007H21.0963C19.1052 10.5007 18.4889 11.7333 18.4889 12.9896V16H22.9215L22.2104 20.6222H18.4889V31.8104C26.1452 30.6015 32 23.9881 32 16Z" fill="#2970FF"/>
<path d="M22.2336 20.6222L22.9447 16H18.4884V12.9896C18.4884 11.7333 19.1047 10.5007 21.0958 10.5007H23.1106V6.56592C23.1106 6.56592 21.2854 6.25777 19.5314 6.25777C15.881 6.25777 13.5106 8.46222 13.5106 12.4681V16H9.43359V20.6222H13.5106V31.8104C14.3166 31.9289 15.1699 32 15.9995 32C16.8529 32 17.6825 31.9289 18.4884 31.8104V20.6222H22.2336Z" fill="white"/>
</svg>
