<svg width="32" height="32" viewBox="0 0 32 32" fill="none" xmlns="http://www.w3.org/2000/svg">
<rect width="32" height="32" rx="16" fill="#2970FF"/>
<g clip-path="url(#clip0_3118_101144)">
<path d="M9.81395 16C9.81395 15.2364 9.92093 14.4727 10.1884 13.7636L6.23023 10.6545C5.42791 12.2909 5 14.0909 5 16C5 17.9091 5.42791 19.7091 6.23023 21.2909L10.1884 18.1818C9.92093 17.5273 9.81395 16.7636 9.81395 16Z" fill="white"/>
<path d="M16.7677 8.90909C18.4258 8.90909 19.9235 9.50909 21.1002 10.4909L24.5235 7C22.4374 5.14545 19.763 4 16.7677 4C12.1142 4 8.10256 6.72727 6.23047 10.7091L10.1886 13.8182C11.0979 10.9273 13.6654 8.90909 16.7677 8.90909Z" fill="white"/>
<path d="M16.7677 23.0909C13.6654 23.0909 11.0979 21.0727 10.1886 18.2364L6.23047 21.3455C8.10256 25.2727 12.1142 28 16.7677 28C19.6561 28 22.384 26.9636 24.4165 25L20.6723 22.0545C19.6026 22.7091 18.2654 23.0909 16.7677 23.0909Z" fill="white"/>
<path d="M10.1886 18.2364L6.23047 21.3455L10.1886 18.2364Z" fill="white"/>
<path d="M27.7307 13.8182H16.7656V18.4545H23.0773C22.7563 20.0364 21.9005 21.2364 20.6703 22.0545L24.4145 25C26.554 22.9273 27.9982 19.9273 27.9982 16C27.9982 15.2909 27.8912 14.5273 27.7307 13.8182Z" fill="white"/>
</g>
<defs>
<clipPath id="clip0_3118_101144">
<rect width="23" height="24" fill="white" transform="translate(5 4)"/>
</clipPath>
</defs>
</svg>
