<svg width="257" height="267" viewBox="0 0 257 267" fill="none" xmlns="http://www.w3.org/2000/svg">
<g clip-path="url(#clip0_3193_103482)">
<path d="M87.0093 72.5094C84.2616 69.0216 86.185 65.1667 83.071 62.7803C83.8037 61.4036 79.499 60.6693 79.9569 59.2007L74.4616 50.2059L80.8728 43.1385C80.0485 38.9164 78.3083 34.8779 75.8354 31.4819C72.813 34.7862 68.9662 36.8972 64.5699 36.8972C60.54 36.8972 56.8764 35.1533 54.0371 32.2162C48.5418 37.7233 43.0464 40.8439 33.2463 43.1385C28.5753 44.2399 23.9958 41.8535 20.2406 39.6507C19.2331 42.6796 18.6836 45.9838 18.6836 49.3798C18.6836 66.4517 32.3304 80.4029 49.2745 80.77C50.8315 85.6346 53.396 90.6827 57.0596 95.4555C67.5924 109.223 82.8878 115.189 91.1308 108.856C99.4655 102.523 97.5421 86.2771 87.0093 72.5094Z" fill="#FFD0B0"/>
<path d="M207.633 154.748L190.048 145.57L163.212 142.082L134.819 145.294L105.786 150.802L87.7424 154.656L62.7385 165.212L52.4805 179.805L61.9142 192.38L108.625 225.606L114.12 230.103H150.848L129.232 199.722L106.793 195.776L128.5 198.713L129.232 199.722L141.414 201.833L172.279 200.09L189.407 195.776L206.168 183.936L210.93 172.004L207.633 154.748Z" fill="#BBBEFF"/>
<path d="M204.61 256.078L228.881 254.518L246.924 239.557L232.911 232.581L215.692 213.949L205.8 192.196L203.328 185.679L209.098 175.216V160.714L203.328 149.425L183.636 143.734L172.187 142.082L159.914 146.121L149.198 155.024L142.695 172.004L146.725 194.583L155.793 214.775L169.714 232.581L189.406 247.083L204.61 256.078Z" fill="#BBBEFF"/>
<path d="M60.0819 94.813C80.14 118.402 91.5887 110.049 95.985 105.46C102.305 98.8515 94.7027 84.5332 94.7027 84.5332L74.4614 49.3798C74.4614 49.3798 83.8951 46.0756 80.4147 37.2643C76.11 26.2502 68.3249 35.3369 68.3249 35.3369C53.6706 38.3658 47.4425 21.3857 52.8463 20.4678C58.708 19.4582 60.1735 30.4723 40.7565 39.1918C21.3395 47.9113 15.3862 36.7136 11.7227 30.4723C11.7227 30.4723 14.8367 1.37675 43.8706 2.20281C52.2052 2.38638 62.6464 3.76314 75.1941 13.2169C87.7419 22.6707 119.89 25.7913 126.942 5.32347C126.942 5.32347 164.585 18.724 155.976 54.0608" stroke="black" stroke-width="4.8543" stroke-miterlimit="10" stroke-linejoin="round"/>
<path d="M27.1991 21.0186C21.5206 26.1585 14.8345 35.4287 18.0402 49.3798C23.6271 73.978 40.4796 82.2386 52.3862 79.5768C59.4386 78.0165 64.3844 74.9876 67.5901 70.582" stroke="black" stroke-width="4.8543" stroke-miterlimit="10" stroke-linejoin="round"/>
<path d="M13.0977 49.2883C13.0977 49.2883 24.9127 41.4866 31.1408 50.2061C37.3689 58.9256 31.0492 66.7273 31.0492 66.7273L42.7726 69.2054" stroke="black" stroke-width="4.8543" stroke-miterlimit="10" stroke-linejoin="round"/>
<path d="M43.7773 51.2153C43.7773 51.2153 54.127 54.6113 59.8971 47.7275" stroke="black" stroke-width="4.8543" stroke-miterlimit="10"/>
<path d="M83.1637 134.28H66.6776C64.113 134.28 61.3654 132.169 60.7242 129.599L50.4662 91.0496C49.7335 88.4797 51.2905 86.3687 53.9466 86.3687H70.4327C72.9972 86.3687 75.7449 88.4797 76.386 91.0496L86.6441 129.599C87.3768 132.169 85.8198 134.28 83.1637 134.28Z" fill="#FF3880"/>
<path d="M11.7209 30.564C11.7209 30.564 -10.3521 72.9682 33.6108 92.61C33.6108 92.61 29.1229 153.922 88.6561 153.922" stroke="black" stroke-width="4.8543" stroke-miterlimit="10" stroke-linejoin="round"/>
<path d="M163.854 248.184C163.854 248.184 115.22 171.177 96.4441 180.631C77.6682 190.085 123.921 206.606 160.007 201.833C160.007 201.833 207.817 202.659 211.755 172.738C215.694 142.908 182.721 141.348 152.13 142.908C104.321 145.294 56.4195 159.429 50.1914 183.018L116.869 231.755C116.869 231.755 83.8963 234.876 86.2776 264.797L163.854 248.184Z" stroke="black" stroke-width="4.8543" stroke-miterlimit="10" stroke-linejoin="round"/>
<path d="M39.1094 222.301C39.1094 240.842 54.3132 256.078 72.8143 256.078H86.1863" stroke="black" stroke-width="4.8543" stroke-miterlimit="10" stroke-linejoin="round"/>
<path d="M233.37 167.873C244.269 173.472 251.688 184.853 251.688 197.886V222.209C251.688 240.75 236.484 255.986 217.983 255.986H203.054H125.844" stroke="black" stroke-width="4.8543" stroke-miterlimit="10" stroke-linejoin="round"/>
<path d="M211.111 161.356C211.111 161.356 184.184 94.9048 130.879 94.9048" stroke="black" stroke-width="4.8543" stroke-miterlimit="10" stroke-linejoin="round"/>
<path d="M116.775 73.7944C115.218 87.1949 130.88 94.9965 130.88 94.9965C130.88 94.9965 139.49 93.4362 166.966 89.4895C194.443 85.5428 200.671 138.961 200.671 138.961L224.943 135.84L216.333 94.9965C197.557 46.2592 114.394 70.6737 114.394 70.6737C114.394 70.6737 57.1506 83.5235 52.4796 84.8085C43.8702 87.1949 28.3 88.7552 21.2476 113.078C14.1952 137.401 9.34095 151.627 9.34095 151.627L2.28856 176.409C1.73903 201.741 9.70731 205.321 18.7747 208.166C48.7244 217.62 76.8424 134.28 76.8424 134.28L54.0366 124.459L49.3655 122.44C49.3655 122.44 30.0402 158.97 27.9336 162.274C24.27 167.965 25.0027 172.187 28.9411 173.472C33.6122 175.032 39.1075 153.83 44.6029 133.362" stroke="black" stroke-width="4.8543" stroke-miterlimit="10" stroke-linecap="round" stroke-linejoin="round"/>
<path d="M54.8596 123.266L53.2109 102.798C53.2109 102.798 71.9868 103.257 79.1308 101.421C79.1308 101.421 82.2448 103.532 81.5121 107.479C81.5121 107.479 85.4504 112.16 83.0691 114.547C83.0691 114.547 85.0841 119.228 84.6261 121.614C84.6261 121.706 72.0784 137.401 54.8596 123.266Z" fill="#FFD0B0" stroke="black" stroke-width="4.8543" stroke-miterlimit="10" stroke-linecap="round" stroke-linejoin="round"/>
<path d="M198.93 138.961L201.494 164.11L223.476 166.496C223.476 166.496 239.137 152.361 225.033 135.84L198.93 138.961Z" stroke="black" stroke-width="4.8543" stroke-miterlimit="10" stroke-linecap="round" stroke-linejoin="round"/>
<path d="M210.929 155.482C213.964 155.482 216.424 153.017 216.424 149.975C216.424 146.934 213.964 144.468 210.929 144.468C207.894 144.468 205.434 146.934 205.434 149.975C205.434 153.017 207.894 155.482 210.929 155.482Z" stroke="black" stroke-width="4.8543" stroke-miterlimit="10" stroke-linecap="round" stroke-linejoin="round"/>
<path d="M175.667 142.816C175.667 142.816 142.695 144.468 143.153 176.776C143.428 194.949 154.419 231.02 203.053 256.169" stroke="black" stroke-width="4.8543" stroke-miterlimit="10" stroke-linecap="round" stroke-linejoin="round"/>
<path d="M205.434 186.597C205.434 186.597 213.31 224.688 254.8 244.329" stroke="black" stroke-width="4.8543" stroke-miterlimit="10" stroke-linecap="round" stroke-linejoin="round"/>
</g>
<defs>
<clipPath id="clip0_3193_103482">
<rect width="257" height="267" fill="white"/>
</clipPath>
</defs>
</svg>
