<svg width="300" height="262" viewBox="0 0 300 262" fill="none" xmlns="http://www.w3.org/2000/svg">
<g clip-path="url(#clip0_3193_103449)">
<path d="M138.101 104.126C138.101 104.126 110.368 103.845 105.309 104.126C95.5648 104.688 84.4155 106.56 77.2013 131.375C69.987 156.189 65.0214 170.703 65.0214 170.703C65.0214 170.703 65.0214 174.729 69.7997 174.729C74.5779 174.729 73.8284 170.703 73.8284 170.703V116.112H46.6579L32.9789 167.425C32.9789 167.425 24.1719 193.082 42.6291 199.45L78.7003 207.503L79.5436 239.527L137.257 248.329L187.008 241.119V148.042C187.008 148.042 187.851 144.016 182.979 144.016C178.107 144.016 178.201 148.042 178.201 148.042C178.201 148.042 183.166 162.463 190.381 187.37C197.595 212.184 207.713 212.372 217.551 212.372C249.594 212.372 251.28 107.31 251.28 107.31H222.423C222.423 107.31 212.492 161.994 211.18 165.833C209.587 170.609 208.744 174.635 214.366 174.635C223.173 174.635 214.366 160.215 214.366 160.215C214.366 160.215 212.773 156.189 205.559 131.375C198.344 106.56 187.289 104.688 177.451 104.126C172.485 103.845 157.401 104.126 157.401 104.126H138.101Z" fill="#BBBEFF"/>
<path d="M112.054 66.4832C116.245 66.4832 119.643 62.8778 119.643 58.4303C119.643 53.9828 116.245 50.3774 112.054 50.3774C107.863 50.3774 104.465 53.9828 104.465 58.4303C104.465 62.8778 107.863 66.4832 112.054 66.4832Z" fill="#FFDBA0"/>
<path d="M145.314 47.9428C138.756 47.9428 132.759 46.351 127.981 43.7291C125.545 47.1937 121.704 49.9092 117.113 51.1265C116.738 53.4675 116.457 55.8084 116.457 58.3367C116.457 76.0343 127.794 90.361 141.754 90.361C155.714 90.361 167.05 76.0343 167.05 58.3367C167.05 52.812 165.926 47.5683 163.959 42.98C158.899 46.1637 152.435 47.9428 145.314 47.9428Z" fill="#FFDBA0"/>
<path d="M156.294 105.427C161.95 88.6674 158.386 72.3342 148.334 68.9459C138.282 65.5577 125.549 76.3974 119.893 93.1572C114.237 109.917 117.801 126.25 127.853 129.638C137.904 133.027 150.638 122.187 156.294 105.427Z" fill="#FFDBA0"/>
<path d="M90.3518 108.309H73.4873C70.864 108.309 68.0532 106.156 67.3974 103.534L56.904 64.2057C56.1544 61.5839 57.7472 59.4302 60.4642 59.4302H77.3287C79.9521 59.4302 82.7628 61.5839 83.4186 64.2057L93.9121 103.534C94.5679 106.156 92.9752 108.309 90.3518 108.309Z" fill="#FF3880"/>
<path d="M118.053 193.457C116.179 198.794 114.024 205.161 111.588 212.372C103.343 237.186 90.7883 239.059 79.6391 239.62C79.6391 239.62 46.6597 239.808 40.9445 239.527C29.7952 238.965 17.2406 237.092 8.99573 212.278C6.46606 204.506 4.12377 197.764 2.15625 192.146H88.2587L106.716 192.333V179.505C106.716 179.505 105.123 172.294 98.6584 172.294V154.69H89.1956V172.294C89.1956 172.294 81.1381 173.137 81.1381 178.662C81.1381 184.187 81.1381 233.159 81.1381 233.159H96.4098V205.911H28.4835V233.159H69.0519" stroke="black" stroke-width="4.8543" stroke-miterlimit="10" stroke-linecap="round" stroke-linejoin="round"/>
<path d="M39.8203 239.433C47.9715 257.692 59.1207 259.284 69.052 259.753H77.859H186.166V148.136C186.166 148.136 187.01 144.109 182.138 144.109C177.266 144.109 177.359 148.136 177.359 148.136C177.359 148.136 182.325 162.556 189.539 187.464C196.753 212.278 206.872 212.465 216.71 212.465C248.752 212.465 250.439 107.403 250.439 107.403H221.582C221.582 107.403 211.65 162.088 210.339 165.927C208.746 170.702 207.903 174.729 213.524 174.729C222.331 174.729 213.524 160.309 213.524 160.309C213.524 160.309 211.931 156.282 204.717 131.468C197.503 106.654 186.447 104.781 176.61 104.219C171.644 103.938 156.56 104.219 156.56 104.219C143.724 133.06 130.045 128.284 124.517 125.101C116.366 120.419 119.739 104.219 119.739 104.219L124.517 85.0234" stroke="black" stroke-width="4.8543" stroke-miterlimit="10" stroke-linecap="round" stroke-linejoin="round"/>
<path d="M297.751 153.848C297.751 153.848 267.676 206.753 257.651 224.357C248.001 241.212 233.104 240.65 223.173 241.212H214.366H205.559" stroke="black" stroke-width="4.8543" stroke-miterlimit="10" stroke-linecap="round"/>
<path d="M150.748 25.8442C157.869 29.0279 167.332 36.0508 168.55 50.5648C170.705 76.2217 156.932 89.4247 144.471 90.642C128.45 92.2338 119.643 83.4318 116.364 67.4197C116.364 67.4197 103.247 67.7942 103.903 58.2431C104.746 46.2574 115.146 52.6248 115.146 52.6248C130.417 51.0329 131.167 32.5862 125.545 33.4289C119.455 34.2717 121.517 45.4146 143.159 47.8492C164.802 50.2838 175.202 33.4289 176.888 26.2188" stroke="black" stroke-width="4.8543" stroke-miterlimit="10" stroke-linejoin="round"/>
<path d="M166.863 43.167C166.863 43.167 152.528 40.9197 150.467 51.6881C148.312 62.3629 157.588 66.9512 157.588 66.9512L147.656 74.1613" stroke="black" stroke-width="4.8543" stroke-miterlimit="10" stroke-linejoin="round"/>
<path d="M108.494 51.0327C108.494 51.0327 96.4077 22.3794 118.894 16.7611C118.894 16.7611 122.922 2.34082 140.536 2.34082C154.965 2.34082 167.051 11.1428 167.051 23.9713" stroke="black" stroke-width="4.8543" stroke-miterlimit="10" stroke-linejoin="round"/>
<path d="M126.859 56.8384C126.859 56.8384 136.51 62.4567 143.724 56.8384" stroke="black" stroke-width="4.8543" stroke-miterlimit="10"/>
<path d="M249.596 80.0609C254.374 55.9959 263.275 60.8651 263.275 60.8651L256.904 89.7057L245.005 101.972C245.005 101.972 238.728 106.186 230.67 102.534C222.613 98.8822 221.582 91.3911 221.582 91.3911L226.173 89.0502C226.173 89.0502 237.229 94.3876 240.789 87.1774C247.16 74.349 231.982 72.7571 231.982 72.7571L229.546 67.1388C229.546 67.1388 235.542 62.3633 243.974 67.1388C249.596 70.3225 250.345 75.9408 250.345 75.9408" fill="#FFDBA0"/>
<path d="M249.596 80.0609C254.374 55.9959 263.275 60.8651 263.275 60.8651L256.904 89.7057L245.005 101.972C245.005 101.972 238.728 106.186 230.67 102.534C222.613 98.8822 221.582 91.3911 221.582 91.3911L226.173 89.0502C226.173 89.0502 237.229 94.3876 240.789 87.1774C247.16 74.349 231.982 72.7571 231.982 72.7571L229.546 67.1388C229.546 67.1388 235.542 62.3633 243.974 67.1388C249.596 70.3225 250.345 75.9408 250.345 75.9408" stroke="black" stroke-width="4.8543" stroke-miterlimit="10" stroke-linejoin="round"/>
<path d="M41.8791 199.543C23.4219 193.176 32.2289 167.519 32.2289 167.519L45.9079 116.111H73.1721V170.609C73.1721 170.609 74.0153 174.635 69.1433 174.635C64.2714 174.635 64.3651 170.609 64.3651 170.609C64.3651 170.609 69.3307 156.189 76.545 131.281C83.7592 106.373 94.8148 104.594 104.652 104.032C109.618 103.751 137.444 104.032 137.444 104.032" stroke="black" stroke-width="4.8543" stroke-miterlimit="10" stroke-linecap="round" stroke-linejoin="round"/>
<path d="M48.8798 233.692C56.0516 231.671 54.7502 204.813 45.9731 173.703C37.1959 142.593 24.2668 119.012 17.095 121.033C9.92324 123.054 11.2246 149.912 20.0018 181.022C28.7789 212.132 41.7081 235.713 48.8798 233.692Z" stroke="black" stroke-width="4.8543" stroke-miterlimit="10" stroke-linejoin="round"/>
<path d="M100.812 242.055C100.812 242.055 147.377 257.412 186.259 239.901" stroke="black" stroke-width="4.8543" stroke-miterlimit="10" stroke-linejoin="round"/>
<path d="M229.546 241.213C237.101 241.213 243.225 235.092 243.225 227.541C243.225 219.991 237.101 213.87 229.546 213.87C221.991 213.87 215.867 219.991 215.867 227.541C215.867 235.092 221.991 241.213 229.546 241.213Z" stroke="black" stroke-width="4.8543" stroke-miterlimit="10" stroke-linecap="round" stroke-linejoin="round"/>
<path d="M202.281 241.213C209.835 241.213 215.959 235.092 215.959 227.541C215.959 219.991 209.835 213.87 202.281 213.87C194.726 213.87 188.602 219.991 188.602 227.541C188.602 235.092 194.726 241.213 202.281 241.213Z" stroke="black" stroke-width="4.8543" stroke-miterlimit="10" stroke-linecap="round" stroke-linejoin="round"/>
<path d="M248.843 221.174C256.398 221.174 262.522 215.053 262.522 207.503C262.522 199.952 256.398 193.832 248.843 193.832C241.288 193.832 235.164 199.952 235.164 207.503C235.164 215.053 241.288 221.174 248.843 221.174Z" stroke="black" stroke-width="4.8543" stroke-miterlimit="10" stroke-linecap="round" stroke-linejoin="round"/>
<path d="M264.116 198.7C271.671 198.7 277.795 192.58 277.795 185.029C277.795 177.479 271.671 171.358 264.116 171.358C256.562 171.358 250.438 177.479 250.438 185.029C250.438 192.58 256.562 198.7 264.116 198.7Z" stroke="black" stroke-width="4.8543" stroke-miterlimit="10" stroke-linecap="round" stroke-linejoin="round"/>
<path d="M277.702 174.729C285.257 174.729 291.381 168.608 291.381 161.058C291.381 153.508 285.257 147.387 277.702 147.387C270.148 147.387 264.023 153.508 264.023 161.058C264.023 168.608 270.148 174.729 277.702 174.729Z" stroke="black" stroke-width="4.8543" stroke-miterlimit="10" stroke-linecap="round" stroke-linejoin="round"/>
<path d="M219.144 89.7057C226.698 89.7057 232.823 83.5849 232.823 76.0345C232.823 68.4841 226.698 62.3633 219.144 62.3633C211.589 62.3633 205.465 68.4841 205.465 76.0345C205.465 83.5849 211.589 89.7057 219.144 89.7057Z" stroke="black" stroke-width="4.8543" stroke-miterlimit="10" stroke-linecap="round" stroke-linejoin="round"/>
<path d="M81.6055 239.339V259.752" stroke="black" stroke-width="4.8543" stroke-miterlimit="10" stroke-linejoin="round"/>
<path d="M19.1133 191.49C21.0808 185.872 23.4231 179.13 25.9528 171.358C34.1976 146.544 46.7523 144.671 57.9015 144.109H58.4637C69.613 144.671 82.1676 146.544 90.4125 171.358C92.9421 179.13 95.2844 185.872 97.2519 191.49" stroke="black" stroke-width="4.8543" stroke-miterlimit="10" stroke-linecap="round" stroke-linejoin="round"/>
<path d="M54.7146 80.8101H77.2006L84.4148 107.31H60.3361C60.3361 107.31 49.0932 100.1 54.7146 80.8101Z" fill="#FFDBA0" stroke="black" stroke-width="4.8543" stroke-miterlimit="10" stroke-linecap="round" stroke-linejoin="round"/>
<path d="M53.125 116.111L57.06 103.938" stroke="black" stroke-width="4.8543" stroke-miterlimit="10" stroke-linecap="round" stroke-linejoin="round"/>
<path d="M54.7148 80.8098C54.7148 80.8098 57.1508 71.1651 54.7148 66.3895C54.7148 66.3895 62.7723 64.7977 61.9291 74.4424" stroke="black" stroke-width="4.8543" stroke-miterlimit="10" stroke-linecap="round" stroke-linejoin="round"/>
</g>
<defs>
<clipPath id="clip0_3193_103449">
<rect width="300" height="262" fill="white"/>
</clipPath>
</defs>
</svg>
