<svg width="328" height="252" viewBox="0 0 328 252" fill="none" xmlns="http://www.w3.org/2000/svg">
<rect width="328" height="200" rx="24" fill="#9294E1"/>
<g clip-path="url(#clip0_4687_162464)">
<path d="M204.9 235H121.4C110.2 235 101 225.8 101 214.6V36.0001C101 24.8001 110.2 15.6001 121.4 15.6001H204.9C216.1 15.6001 225.3 24.8001 225.3 36.0001V214.6C225.3 225.8 216.1 235 204.9 235Z" stroke="black" stroke-width="3.1992" stroke-miterlimit="10" stroke-linecap="round" stroke-linejoin="round"/>
<rect x="147.6" y="25.6" width="31.8" height="9.8" rx="4.9" stroke="black" stroke-width="3.2"/>
<path d="M44.1996 191.6C44.0996 191.6 43.9996 191.6 43.7996 191.5C43.4996 191.3 35.8996 186.2 36.6996 176.1C37.4996 166 42.4996 163.1 42.6996 163C42.9996 162.8 43.3996 162.9 43.5996 163.3C43.7996 163.6 43.6996 164 43.2996 164.2C43.1996 164.2 38.6996 166.9 37.8996 176.2C37.1996 185.6 44.3996 190.4 44.3996 190.4C44.6996 190.6 44.7996 191 44.5996 191.3C44.5996 191.5 44.3996 191.6 44.1996 191.6Z" fill="white"/>
<path d="M71.5009 191.6C71.3009 191.6 71.1009 191.5 70.9009 191.3C70.7009 191 70.8009 190.6 71.1009 190.4C71.2009 190.4 78.4009 185.5 77.6009 176.2C76.9009 166.8 72.3009 164.2 72.2009 164.2C71.9009 164 71.8009 163.6 71.9009 163.3C72.1009 163 72.5009 162.9 72.8009 163C73.0009 163.1 78.1009 165.9 78.8009 176.1C79.6009 186.3 72.0009 191.3 71.7009 191.5C71.8009 191.6 71.6009 191.6 71.5009 191.6Z" fill="white"/>
<path d="M96.3988 191.6C96.2988 191.6 96.1988 191.6 95.9988 191.5C95.6988 191.3 88.0988 186.2 88.8988 176.1C89.6988 166 94.6988 163.1 94.8988 163C95.1988 162.8 95.5988 162.9 95.7988 163.3C95.9988 163.6 95.8988 164 95.4988 164.2C95.3988 164.2 90.8988 166.9 90.0988 176.2C89.3988 185.6 96.5988 190.4 96.5988 190.4C96.8988 190.6 96.9988 191 96.7988 191.3C96.7988 191.5 96.5988 191.6 96.3988 191.6Z" fill="white"/>
<path d="M122.2 191.6C122 191.6 121.8 191.5 121.6 191.3C121.4 191 121.5 190.6 121.8 190.4C121.9 190.4 129.1 185.5 128.3 176.2C127.6 166.8 123 164.2 122.9 164.2C122.6 164 122.5 163.6 122.6 163.3C122.8 163 123.2 162.9 123.5 163C123.7 163.1 128.8 165.9 129.5 176.1C130.3 186.3 122.7 191.3 122.4 191.5C122.5 191.6 122.4 191.6 122.2 191.6Z" fill="white"/>
<path d="M53.5 181.3H51.8L49.7 177L47.6 181.3H46L48.9 175.7L46.2 170.3H47.8L49.8 174.4L51.8 170.3H53.4L50.7 175.7L53.5 181.3Z" fill="white"/>
<path d="M57.7984 178.3V174.3H54.8984V172.6H57.7984V168.6H59.1984V172.6H62.0984V174.3H59.1984V178.3H57.7984Z" fill="white"/>
<path d="M70 170.3H71.5L67.9 182.2C67.1 184.7 66.4 185.4 65.5 185.4C65.2 185.4 64.9 185.3 64.7 185.2V183.5C64.9 183.6 65 183.6 65.2 183.6C65.8 183.6 66.2 183.2 66.5 182.2L66.8 181.1L63.5 170.4H65L67.5 178.8L70 170.3Z" fill="white"/>
<path d="M81.5 176.3V174.5H86.8V176.3H81.5Z" fill="white"/>
<path d="M104.199 181.3H102.499L100.399 177L98.2992 181.3H96.6992L99.5992 175.7L96.8992 170.3H98.4992L100.499 174.4L102.499 170.3H104.099L101.399 175.7L104.199 181.3Z" fill="white"/>
<path d="M105.098 176.3V174.5H110.398V176.3H105.098Z" fill="white"/>
<path d="M117.801 170.3H119.301L115.701 182.2C114.901 184.7 114.201 185.4 113.301 185.4C113.001 185.4 112.701 185.3 112.501 185.2V183.5C112.701 183.6 112.801 183.6 113.001 183.6C113.601 183.6 114.001 183.2 114.301 182.2L114.601 181.1L111.301 170.4H112.801L115.301 178.8L117.801 170.3Z" fill="white"/>
<path d="M79.3 162.9H82.2V164H78V163L80.4 159.8C80.9 159.1 81.3 158.5 81.3 157.7C81.3 156.9 80.8 156.3 80.1 156.3C79.3 156.3 78.8 157 78.8 157.9H78C78 156.4 78.9 155.3 80.1 155.3C81.4 155.3 82.2 156.4 82.2 157.8C82.2 158.9 81.7 159.8 81 160.6L79.3 162.9Z" fill="white"/>
<path d="M152.298 118.2H13.0984C12.6984 118.2 12.3984 117.9 12.3984 117.5C12.3984 117.1 12.6984 116.8 13.0984 116.8H152.298C152.698 116.8 152.998 117.1 152.998 117.5C152.998 117.9 152.598 118.2 152.298 118.2Z" fill="white"/>
<path d="M59.1008 148.2C46.4008 148.2 44.9008 131.8 43.5008 117.3C42.6008 107.5 41.7008 98.2 37.3008 97.7C36.3008 97.6 35.6008 97.8 34.9008 98.4C32.2008 100.7 32.1008 108.4 31.9008 115.9C31.6008 126.7 31.4008 137.9 24.0008 137.9C23.6008 137.9 23.3008 137.6 23.3008 137.2C23.3008 136.8 23.6008 136.5 24.0008 136.5C30.0008 136.5 30.3008 126 30.5008 115.8C30.7008 107.7 30.9008 100.1 34.0008 97.4C34.9008 96.6 36.1008 96.2 37.4008 96.4C42.9008 97 43.8008 106.3 44.8008 117.2C46.1008 131.1 47.6008 146.9 59.0008 146.9C68.7008 146.9 69.2008 128.9 69.7008 111.4C70.2008 92.3 70.8008 72.5 83.0008 72.5C97.3008 72.5 97.8008 96.2 98.2008 115.3C98.4008 125 98.6008 134.1 100.901 135.9C101.201 136.1 101.501 136.2 102.001 136.1C106.901 135.1 108.801 124.8 110.601 115.8C112.201 107.2 113.601 99.7 117.501 99.7C117.601 99.7 117.601 99.7 117.701 99.7C125.401 100.1 125.801 125.1 125.801 128C125.801 128.4 125.501 128.7 125.101 128.7C124.701 128.7 124.401 128.4 124.401 128C124.401 127.9 124.401 121.1 123.401 114.4C122.201 105.9 120.101 101.2 117.501 101H117.401C114.601 101 113.201 108.6 111.801 116C109.901 125.9 108.001 136.2 102.201 137.4C101.401 137.6 100.701 137.4 100.101 136.9C97.4008 134.7 97.2008 126.1 97.0008 115.3C96.6008 96.9 96.0008 73.9 83.1008 73.9C72.2008 73.9 71.6008 93 71.1008 111.5C70.6008 130.4 70.1008 148.2 59.1008 148.2Z" fill="white"/>
<path d="M82.7 164C82.3 164 82 163.7 82 163.3V48.8001C82 48.4001 82.3 48.1001 82.7 48.1001C83.1 48.1001 83.4 48.4001 83.4 48.8001V163.3C83.3 163.7 83 164 82.7 164Z" fill="white"/>
<path d="M11 121.8H9.2L6.9 117.3L4.6 121.8H3L6 115.9L3.2 110.2H4.9L7 114.5L9.1 110.2H10.8L8 115.9L11 121.8Z" fill="white"/>
<path d="M83.8 31.3999H85.4L81.6 43.8999C80.8 46.5999 80 47.2999 79 47.2999C78.6 47.2999 78.4 47.1999 78.2 47.0999V45.2999C78.4 45.3999 78.6 45.3999 78.8 45.3999C79.4 45.3999 79.8 44.9999 80.2 43.8999L80.5 42.6999L77 31.3999H78.6L81.2 40.1999L83.8 31.3999Z" fill="white"/>
<path d="M139.299 142.5H144.099H149.799L154.099 140.6L155.999 137.4L157.099 133.6L159.499 131.7H164.399L168.499 133.4L169.599 137.4L171.799 140.7L174.499 142.2L181.399 142.5H188.499L188.099 133.5V120.1H180.599L174.799 114.1H150.299L144.299 120.1H137.199V142.5H139.299Z" fill="#FCA56B"/>
<path d="M152.299 174.4L147.799 170.2L148.899 160.2V156.9L145.499 149.7L139.499 147.2L137.499 144.6L137.199 142.5H147.799L152.499 151.3H174.899L178.699 142.5H188.499V146.9L185.099 148.6L181.499 149.3L179.399 155.4L177.899 160.3L179.499 170.8L174.899 174.4L167.399 176.3L158.599 176L152.299 174.4Z" fill="#FCA56B"/>
<path d="M204.301 250.1V192.2" stroke="black" stroke-width="3.1992" stroke-miterlimit="10" stroke-linecap="round" stroke-linejoin="round"/>
<path d="M121.402 192.2V250.1" stroke="black" stroke-width="3.1992" stroke-miterlimit="10" stroke-linecap="round" stroke-linejoin="round"/>
<path d="M121.402 193.3V250.1H204.302V193.3" fill="#BBBEFF"/>
<path d="M121.201 193.5L105.201 163.9L98.2008 147.6L97.8008 137.4L104.201 126.8L114.601 121.7L128.401 120.1L137.201 119.7L137.501 132.3L137.201 142.5L128.401 145.2L124.701 147.3V151.6L131.901 159.6L140.001 168.6L142.701 170.3H146.101L149.801 173.4L156.001 175.8L162.801 176.3L169.601 175.9L175.601 174.1L178.701 171.8L182.301 169.8L184.301 170.2L189.801 164.5L197.101 156.3L201.101 151.6V147.3L197.401 145.2H193.401H188.301L188.501 120.1L201.801 120.2L212.001 121.8L218.701 124.6L224.601 129.8L227.301 135.3L227.801 145.2L226.001 152.6L222.101 161.3L210.901 180.8L203.401 194.2L121.201 193.5Z" fill="#BBBEFF"/>
<path d="M204.301 250.1V192.2" stroke="black" stroke-width="2.912" stroke-miterlimit="10" stroke-linecap="round" stroke-linejoin="round"/>
<path d="M121.402 192.2V250.1" stroke="black" stroke-width="2.912" stroke-miterlimit="10" stroke-linecap="round" stroke-linejoin="round"/>
<path d="M257.602 44.2998V101.3" stroke="white" stroke-width="1.3181" stroke-miterlimit="10" stroke-linecap="round" stroke-linejoin="round"/>
<path d="M308.5 95.5H251.5" stroke="white" stroke-width="1.3181" stroke-miterlimit="10" stroke-linecap="round" stroke-linejoin="round"/>
<path d="M257.199 84.9998L263.799 84.7998L264.299 95.1998" stroke="white" stroke-width="1.3181" stroke-miterlimit="10" stroke-linecap="round" stroke-linejoin="round"/>
<path d="M270.638 72.5959C268.374 72.5959 266.639 74.331 266.639 76.5619C266.639 78.8589 268.357 80.561 270.555 80.561C270.886 80.561 271.167 80.5114 271.381 80.4453L268.721 84.3452H270.357L273.53 79.619C273.976 78.9745 274.637 77.9335 274.637 76.5619C274.637 74.331 272.902 72.5959 270.638 72.5959ZM270.638 79.1729C269.25 79.1729 268.159 78.1483 268.159 76.5949C268.159 75.0416 269.25 74.0005 270.638 74.0005C272.042 74.0005 273.117 75.0416 273.117 76.5949C273.117 78.1483 272.042 79.1729 270.638 79.1729ZM280.265 84.527C282.595 84.527 284.594 82.5109 284.594 78.5614C284.594 74.6119 282.595 72.5959 280.265 72.5959C277.951 72.5959 275.952 74.6119 275.952 78.5614C275.952 82.5109 277.951 84.527 280.265 84.527ZM280.265 83.0893C278.794 83.0893 277.472 81.7508 277.472 78.5614C277.472 75.3721 278.794 74.0335 280.265 74.0335C281.752 74.0335 283.074 75.3721 283.074 78.5614C283.074 81.7508 281.752 83.0893 280.265 83.0893ZM288.238 77.5038C289.56 77.5038 290.667 76.4958 290.667 75.0581C290.667 73.6039 289.56 72.5959 288.238 72.5959C286.916 72.5959 285.809 73.6039 285.809 75.0581C285.809 76.4958 286.916 77.5038 288.238 77.5038ZM288.238 76.4627C287.56 76.4627 286.932 75.9505 286.932 75.0581C286.932 74.1657 287.56 73.6369 288.238 73.6369C288.915 73.6369 289.543 74.1657 289.543 75.0581C289.543 75.9505 288.915 76.4627 288.238 76.4627Z" fill="white"/>
<path d="M263.5 171.2V169.7H269.7V171.2H263.5ZM263.5 175.3V173.8H269.7V175.3H263.5Z" fill="white"/>
<path d="M271.301 172.7C271.301 168.8 273.501 165.9 276.101 165.9C278.301 165.9 279.901 168.1 280.401 170.6H279.001C278.601 168.9 277.601 167.5 276.001 167.5C274.201 167.5 272.601 169.6 272.601 172.7C272.601 175.8 274.201 177.9 276.001 177.9C277.601 177.9 278.601 176.5 279.001 174.8H280.401C279.901 177.3 278.301 179.5 276.001 179.5C273.501 179.6 271.301 176.6 271.301 172.7Z" fill="white"/>
<path d="M257.1 165.3H255.6L253.1 159.9L250.5 165.3H249L252.3 158.6L249.2 152.1H250.7L253.1 157.3L255.5 152.1H257L253.9 158.6L257.1 165.3Z" fill="white"/>
<path d="M257.1 189H255.6L253.1 183.6L250.5 189H249L252.3 182.3L249.2 175.8H250.7L253.1 181L255.5 175.8H257L253.9 182.3L257.1 189Z" fill="white"/>
<path d="M239.3 200.9C239 200.9 238.7 200.7 238.7 200.4L232.4 176.4L231.7 178.7C231.6 179.1 231.2 179.2 230.9 179.2C230.5 179.1 230.3 178.7 230.4 178.4L231.7 173.8C231.8 173.5 232 173.3 232.3 173.3C232.6 173.3 232.9 173.5 232.9 173.8L238.6 195.6L239.5 146C239.5 145.6 239.8 145.4 240.2 145.4H273.201C273.601 145.4 273.9 145.7 273.9 146.1C273.9 146.5 273.601 146.8 273.201 146.8H241L240 200.5C240 200.5 239.8 200.8 239.3 200.9C239.4 200.9 239.4 200.9 239.3 200.9Z" fill="white"/>
<path d="M260.299 174.7H245.399C244.999 174.7 244.699 174.4 244.699 174C244.699 173.6 244.999 173.3 245.399 173.3H260.299C260.699 173.3 260.999 173.6 260.999 174C260.899 174.4 260.599 174.7 260.299 174.7Z" fill="white"/>
<path d="M45.6998 77.3001C45.6998 77.3001 44.5998 72.0001 48.2998 72.0001C51.9998 72.0001 64.2998 74.4001 69.1998 71.6001" stroke="white" stroke-width="1.3181" stroke-miterlimit="10" stroke-linecap="round" stroke-linejoin="round"/>
<path d="M53.5984 75.7002C53.5984 75.7002 53.8984 93.2002 50.9984 93.5002C47.9984 93.8002 47.3984 91.2002 47.3984 91.2002" stroke="white" stroke-width="1.3181" stroke-miterlimit="10" stroke-linecap="round" stroke-linejoin="round"/>
<path d="M60.3984 76C60.3984 76 60.5984 91.8 62.9984 92.8" stroke="white" stroke-width="1.3181" stroke-miterlimit="10" stroke-linecap="round" stroke-linejoin="round"/>
<path d="M127.4 62.2004V68.3004H126.5L126.2 67.1004H126.1C125.8 67.7004 125.1 68.5004 123.9 68.5004C122.4 68.5004 121.5 67.2004 121.5 65.6004C121.5 63.8004 122.8 62.6004 124.8 62.6004H126.2V62.2004C126.2 60.9004 125.6 60.1004 124.7 60.1004C123.8 60.1004 123.3 60.8004 123.2 61.7004H121.9C122 60.1004 123.1 58.6004 124.7 58.6004C126.3 58.5004 127.4 60.0004 127.4 62.2004ZM126.2 64.6004V63.9004H124.9C123.5 63.9004 122.8 64.5004 122.8 65.6004C122.8 66.5004 123.3 67.1004 124.2 67.1004C125.4 67.0004 126.2 65.9004 126.2 64.6004Z" fill="white"/>
<path d="M130.301 92.4004C127.801 92.4004 119.601 91.0004 114.701 86.5004L114.501 86.3004C104.501 77.0004 102.401 62.0004 109.301 50.5004C112.301 45.6004 116.301 41.9004 121.101 39.7004C129.001 36.1004 138.601 36.8004 146.201 41.4004C154.201 46.3004 159.901 55.6004 160.301 64.6004C160.601 72.4004 157.201 80.1004 151.201 85.2004C145.901 89.7004 138.701 92.1004 130.501 92.3004C130.401 92.4004 130.401 92.4004 130.301 92.4004ZM115.401 85.3004L115.601 85.5004C120.001 89.6004 127.901 91.1004 130.501 91.0004C136.001 90.9004 144.001 89.6004 150.401 84.2004C156.101 79.4004 159.401 72.1004 159.101 64.7004C158.701 56.1004 153.301 47.2004 145.601 42.6004C138.301 38.2004 129.201 37.6004 121.701 41.0004C117.201 43.1004 113.301 46.6004 110.401 51.2004C103.801 62.1004 105.901 76.5004 115.401 85.3004Z" fill="white"/>
<path d="M155.602 100C153.602 100 147.002 98.9003 143.002 95.3003L142.802 95.1003C134.702 87.6003 133.002 75.4003 138.802 66.1003C141.202 62.3003 144.402 59.4003 148.202 57.7003C154.502 54.8003 162.302 55.4003 168.402 59.1003C174.802 63.0003 179.402 70.5003 179.702 77.7003C180.002 84.0003 177.202 90.2003 172.402 94.3003C168.102 97.9003 162.402 99.9003 155.702 100C155.602 100 155.602 100 155.602 100ZM143.702 94.1003L143.902 94.3003C147.402 97.5003 153.602 98.7003 155.702 98.7003C160.102 98.6003 166.402 97.6003 171.502 93.3003C176.102 89.5003 178.602 83.7003 178.402 77.8003C178.102 71.0003 173.802 63.9003 167.702 60.2003C161.902 56.7003 154.702 56.2003 148.702 58.9003C145.202 60.5003 142.102 63.2003 139.902 66.8003C134.502 75.6003 136.102 87.1003 143.702 94.1003Z" fill="white"/>
<path d="M159.299 63.1002C155.499 63.1002 151.799 62.1002 148.799 60.2002C144.199 57.3002 141.199 52.3002 140.699 46.8002C140.299 42.0002 141.699 36.9002 144.899 32.2002C145.799 30.8002 149.899 26.6002 154.499 25.5002C161.599 23.9002 166.599 25.7002 166.799 25.8002C166.799 25.8002 166.799 25.8002 166.899 25.8002C175.199 30.1002 180.199 39.3002 178.599 47.7002C177.499 53.6002 173.299 58.8002 167.699 61.4002C164.999 62.5002 162.099 63.1002 159.299 63.1002ZM160.199 26.2002C158.599 26.2002 156.699 26.4002 154.699 26.8002C150.699 27.7002 146.799 31.5002 145.899 32.9002C143.799 36.0002 141.399 41.0002 141.999 46.7002C142.499 51.8002 145.299 56.4002 149.499 59.1002C154.399 62.2002 161.499 62.7002 167.099 60.2002C172.399 57.9002 176.299 53.0002 177.299 47.5002C178.699 39.7002 174.099 31.1002 166.299 27.1002C165.899 26.9002 163.599 26.2002 160.199 26.2002Z" fill="white"/>
<path d="M163.403 84.3002L163.103 85.5002H162.203V72.2002H163.403V77.1002H163.503C163.703 76.7002 164.503 75.7002 165.703 75.7002C167.503 75.7002 169.003 77.7002 169.003 80.7002C169.003 83.6002 167.503 85.7002 165.703 85.7002C164.403 85.7002 163.603 84.7002 163.403 84.3002ZM167.703 80.7002C167.703 78.7002 166.703 77.3002 165.503 77.3002C164.303 77.3002 163.303 78.7002 163.303 80.7002C163.303 82.8002 164.303 84.2002 165.503 84.2002C166.703 84.2002 167.703 82.8002 167.703 80.7002Z" fill="white"/>
<path d="M160.602 42.1001C160.602 39.3001 162.202 37.1001 164.102 37.1001C165.802 37.1001 167.102 38.9001 167.302 40.8001H166.102C165.902 39.7001 165.202 38.7001 164.102 38.7001C162.902 38.7001 161.802 40.1001 161.802 42.1001C161.802 44.2001 162.802 45.6001 164.102 45.6001C165.202 45.6001 165.902 44.6001 166.102 43.5001H167.302C167.002 45.4001 165.802 47.2001 164.102 47.2001C162.202 47.1001 160.602 44.9001 160.602 42.1001Z" fill="white"/>
<path d="M189.801 108.9L213.901 38.1001L210.901 117.8L189.801 108.9Z" stroke="white" stroke-width="1.3181" stroke-miterlimit="10" stroke-linecap="round" stroke-linejoin="round"/>
<path d="M213.902 38.1001L239.602 110.9L210.902 117.8" stroke="white" stroke-width="1.3181" stroke-miterlimit="10" stroke-linecap="round" stroke-linejoin="round"/>
<path d="M189.801 108.9L190.801 108.8" stroke="white" stroke-width="1.3181" stroke-linecap="round" stroke-linejoin="round"/>
<path d="M193.5 108.3L220.8 103.4" stroke="white" stroke-width="1.3181" stroke-linecap="round" stroke-linejoin="round" stroke-dasharray="2.08 2.08"/>
<path d="M222.102 103.2L223.102 103L223.002 102" stroke="white" stroke-width="1.3181" stroke-linecap="round" stroke-linejoin="round"/>
<path d="M222.599 99.3999L214.199 40.3999" stroke="white" stroke-width="1.3181" stroke-linecap="round" stroke-linejoin="round" stroke-dasharray="2.01 2.01"/>
<path d="M214.002 39.1001L213.902 38.1001" stroke="white" stroke-width="1.3181" stroke-linecap="round" stroke-linejoin="round"/>
<path d="M239.603 110.9L238.703 110.5" stroke="white" stroke-width="1.3181" stroke-linecap="round" stroke-linejoin="round"/>
<path d="M236.303 109.3L225.203 104" stroke="white" stroke-width="1.3181" stroke-linecap="round" stroke-linejoin="round" stroke-dasharray="1.96 1.96"/>
<path d="M224.002 103.4L223.102 103" stroke="white" stroke-width="1.3181" stroke-linecap="round" stroke-linejoin="round"/>
<path d="M241.398 135.3L240.498 132.1H236.198L235.298 135.3H233.898L237.698 122H238.998L242.798 135.3H241.398ZM238.298 124.4L236.598 130.5H239.998L238.298 124.4Z" fill="white"/>
<path d="M243.797 127.2V125.7H249.997V127.2H243.797ZM243.797 131.2V129.7H249.997V131.2H243.797Z" fill="white"/>
<path d="M299.697 130.4H252.497C252.097 130.4 251.797 130.1 251.797 129.7C251.797 129.3 252.097 129 252.497 129H299.697C300.097 129 300.397 129.3 300.397 129.7C300.397 130.1 299.997 130.4 299.697 130.4Z" fill="white"/>
<path d="M263.9 120.6V126.6H263L262.7 125.4H262.6C262.3 125.9 261.6 126.8 260.4 126.8C258.9 126.8 258 125.5 258 123.9C258 122.1 259.3 120.9 261.3 120.9H262.7V120.5C262.7 119.2 262.1 118.4 261.2 118.4C260.3 118.4 259.8 119.1 259.7 120H258.4C258.5 118.4 259.6 116.9 261.2 116.9C262.8 116.9 263.9 118.4 263.9 120.6ZM262.7 123V122.3H261.4C260 122.3 259.3 122.9 259.3 124C259.3 124.9 259.8 125.5 260.7 125.5C261.9 125.4 262.7 124.3 262.7 123Z" fill="white"/>
<path d="M267.2 125.4L266.9 126.6H266V113.3H267.2V118.2H267.3C267.5 117.8 268.3 116.8 269.5 116.8C271.3 116.8 272.8 118.8 272.8 121.8C272.8 124.8 271.3 126.8 269.5 126.8C268.2 126.8 267.4 125.8 267.2 125.4ZM271.5 121.8C271.5 119.8 270.5 118.4 269.3 118.4C268.1 118.4 267.1 119.8 267.1 121.8C267.1 123.9 268.1 125.3 269.3 125.3C270.5 125.3 271.5 123.9 271.5 121.8Z" fill="white"/>
<path d="M277.398 124V120.5H274.898V119H277.398V115.5H278.598V119H281.098V120.5H278.598V124H277.398Z" fill="white"/>
<path d="M283.199 121.8C283.199 119 284.799 116.8 286.699 116.8C288.399 116.8 289.699 118.6 289.899 120.5H288.699C288.499 119.4 287.799 118.4 286.699 118.4C285.499 118.4 284.399 119.8 284.399 121.8C284.399 123.9 285.399 125.3 286.699 125.3C287.799 125.3 288.499 124.3 288.699 123.2H289.899C289.599 125.1 288.399 126.9 286.699 126.9C284.799 126.8 283.199 124.7 283.199 121.8Z" fill="white"/>
<path d="M273.098 138.5C273.098 135.6 274.598 133.5 276.398 133.5C277.598 133.5 278.398 134.5 278.598 134.9H278.698V130H279.898V143.3H278.998L278.698 142.1H278.598C278.398 142.5 277.498 143.5 276.398 143.5C274.698 143.5 273.098 141.5 273.098 138.5ZM278.698 138.5C278.698 136.5 277.698 135.1 276.498 135.1C275.298 135.1 274.298 136.5 274.298 138.5C274.298 140.6 275.298 142 276.498 142C277.698 142 278.698 140.6 278.698 138.5Z" fill="white"/>
<path d="M177.898 158.8C179.598 156.3 180.798 153.1 181.498 149.3C181.498 149.3 185.798 149.5 188.098 146.4" stroke="black" stroke-width="3.1992" stroke-miterlimit="10" stroke-linecap="round" stroke-linejoin="round"/>
<path d="M138.5 145.9C140.7 149.4 145.3 149.2 145.3 149.2C146.2 153.1 147.8 156.2 149.8 158.7" stroke="black" stroke-width="3.1992" stroke-miterlimit="10" stroke-linecap="round" stroke-linejoin="round"/>
<path d="M186.498 116.4C185.198 113.4 182.698 110.9 178.098 109.8C178.098 109.8 175.298 99.6001 162.898 99.6001C152.698 99.6001 144.398 103.7 144.398 112.7C144.398 112.7 137.198 111.7 135.398 120.1" stroke="black" stroke-width="3.1992" stroke-miterlimit="10" stroke-linecap="round" stroke-linejoin="round"/>
<path d="M121.401 192L104.201 162.1C88.9008 135.4 101.101 120.1 128.501 120.1H144.301L150.301 114.1H174.801L180.601 120.1H197.401C229.801 120.1 234.101 139.5 221.701 162.1L204.401 192" stroke="black" stroke-width="3.1992" stroke-miterlimit="10" stroke-linecap="round" stroke-linejoin="round"/>
<path d="M188.3 145.2H197.3C198.9 145.2 200.2 145.9 201 147.4C201.8 148.8 201.8 150.3 201 151.7L185 170.3" stroke="black" stroke-width="3.1992" stroke-miterlimit="10" stroke-linecap="round" stroke-linejoin="round"/>
<path d="M141.502 170.2L124.702 151.6C123.902 150.2 123.902 148.7 124.702 147.3C125.502 145.9 126.802 145.1 128.402 145.1H137.702" stroke="black" stroke-width="3.1992" stroke-miterlimit="10" stroke-linecap="round" stroke-linejoin="round"/>
<path d="M141.5 170.2H147.8" stroke="black" stroke-width="3.1992" stroke-miterlimit="10" stroke-linecap="round" stroke-linejoin="round"/>
<path d="M179.398 170.2H185.098" stroke="black" stroke-width="3.1319" stroke-miterlimit="10" stroke-linecap="round" stroke-linejoin="round"/>
<path d="M177.698 143.8L174.898 151.3H152.498L148.898 143.8" stroke="black" stroke-width="3.1992" stroke-miterlimit="10" stroke-linecap="round" stroke-linejoin="round"/>
<path d="M178 158.7L179.4 170.2" stroke="black" stroke-width="3.1992" stroke-miterlimit="10" stroke-linecap="round" stroke-linejoin="round"/>
<path d="M149.201 158.7L147.801 170.2" stroke="black" stroke-width="3.1992" stroke-miterlimit="10" stroke-linecap="round" stroke-linejoin="round"/>
<path d="M137.5 124.6V143.8" stroke="black" stroke-width="2.8831" stroke-miterlimit="10" stroke-linecap="round" stroke-linejoin="round"/>
<path d="M188.5 143.8V125.5" stroke="black" stroke-width="2.8149" stroke-miterlimit="10" stroke-linecap="round" stroke-linejoin="round"/>
<path d="M188.102 125.5V143.8" stroke="black" stroke-width="2.8149" stroke-miterlimit="10" stroke-linecap="round" stroke-linejoin="round"/>
<path d="M138.5 142.5H149.1C153.4 142.5 156.8 139 156.8 134.8C156.8 133.5 157.9 132.4 159.2 132.4H166.5C167.8 132.4 168.9 133.5 168.9 134.8C168.9 139.1 172.4 142.5 176.6 142.5H187.1" stroke="black" stroke-width="3.1992" stroke-miterlimit="10" stroke-linecap="round" stroke-linejoin="round"/>
<path d="M167.098 127.7C168.498 127.7 169.698 128.7 169.698 130C169.698 131.3 168.598 132.3 167.098 132.3" stroke="black" stroke-width="3.1992" stroke-miterlimit="10" stroke-linecap="round" stroke-linejoin="round"/>
<path d="M167.098 118.6C168.498 118.6 169.698 119.6 169.698 120.9C169.698 122.2 168.598 123.2 167.098 123.2" stroke="black" stroke-width="3.1992" stroke-miterlimit="10" stroke-linecap="round" stroke-linejoin="round"/>
<path d="M158.498 118.7C157.098 118.7 155.898 117.7 155.898 116.4C155.898 115.1 156.998 114.1 158.498 114.1" stroke="black" stroke-width="3.1992" stroke-miterlimit="10" stroke-linecap="round" stroke-linejoin="round"/>
<path d="M158.5 118.6H167.2" stroke="black" stroke-width="3.1992" stroke-miterlimit="10" stroke-linecap="round" stroke-linejoin="round"/>
<path d="M158.5 123.2H167.2" stroke="black" stroke-width="3.1992" stroke-miterlimit="10" stroke-linecap="round" stroke-linejoin="round"/>
<path d="M158.498 127.7C157.098 127.7 155.898 126.7 155.898 125.4C155.898 124.1 156.998 123.1 158.498 123.1" stroke="black" stroke-width="3.1992" stroke-miterlimit="10" stroke-linecap="round" stroke-linejoin="round"/>
<path d="M158.5 127.7H167.2" stroke="black" stroke-width="3.1992" stroke-miterlimit="10" stroke-linecap="round" stroke-linejoin="round"/>
<path d="M179.499 169.7C179.499 173.4 172.399 176.4 163.599 176.4C154.799 176.4 147.699 173.4 147.699 169.7" stroke="black" stroke-width="3.2328" stroke-miterlimit="10" stroke-linecap="round" stroke-linejoin="round"/>
</g>
<defs>
<clipPath id="clip0_4687_162464">
<rect width="306.1" height="237.7" fill="white" transform="translate(3 14)"/>
</clipPath>
</defs>
</svg>
