<svg width="520" height="379" viewBox="0 0 520 379" fill="none" xmlns="http://www.w3.org/2000/svg">
<path d="M477.305 320H42.6954C19.2374 320 0 300.767 0 277.314V42.6863C0 19.2334 19.2374 0 42.6954 0H477.305C500.763 0 520 19.2334 520 42.6863V277.314C520 300.767 500.763 320 477.305 320Z" fill="#9294E1"/>
<g clip-path="url(#clip0_4689_164699)">
<path d="M256.102 89.3C261.302 86.9 267.102 85.5 273.302 85.5H384.302C407.002 85.5 425.602 104.1 425.602 126.8V219.3" stroke="black" stroke-width="7.9" stroke-miterlimit="10" stroke-linejoin="round"/>
<path d="M499.499 337V219.3H351.099C320.099 219.3 294.699 244.7 294.699 275.7V370.2L499.599 374.3V337H499.499Z" stroke="black" stroke-width="7.2" stroke-miterlimit="10" stroke-linejoin="round"/>
<path d="M353.599 272.9L361.999 244.8C363.299 240.4 368.299 236.9 373.099 237L443.999 239C448.799 239.1 451.599 242.9 450.299 247.3L441.899 275.4C440.599 279.8 435.599 283.3 430.799 283.2L359.899 281.1C355.099 281 352.199 277.3 353.599 272.9Z" fill="#FF3880"/>
<path d="M171.665 191.886C175.109 183.868 172.266 174.948 165.314 171.961C158.362 168.975 149.934 173.053 146.49 181.071C143.046 189.088 145.89 198.009 152.841 200.995C159.793 203.982 168.221 199.903 171.665 191.886Z" fill="#FCA56B"/>
<path d="M221.901 191.6C211.201 187 202.301 180.2 196.201 172.4C189.701 176.4 181.401 178.1 173.001 176.9C170.701 180.4 168.601 184.2 166.801 188.3C154.201 217.5 162.701 249.2 185.701 259.1C208.701 269 237.601 253.3 250.101 224.1C254.001 214.9 255.901 205.5 255.901 196.6C245.601 198.1 233.601 196.6 221.901 191.6Z" fill="#FCA56B"/>
<path d="M260.898 198.9C260.898 198.9 238.098 193.1 230.198 204.2C221.298 216.6 221.398 235.1 221.398 235.1L210.898 236.2" stroke="black" stroke-width="7.2" stroke-miterlimit="10" stroke-linejoin="round"/>
<path d="M183.602 194.7C183.602 194.7 195.502 210.8 211.402 206.6" stroke="black" stroke-width="7.2" stroke-miterlimit="10"/>
<path d="M287.699 151.9C300.199 183.5 320.099 213.7 358.599 219.6" stroke="black" stroke-width="7.2" stroke-miterlimit="10" stroke-linejoin="round"/>
<path d="M146.998 176.6C146.398 167 134.698 128.9 162.798 114.5" stroke="black" stroke-width="7.2" stroke-miterlimit="10" stroke-linejoin="round"/>
<path d="M414.3 217.2C409.5 206.2 398.4 195.7 373.3 195.7C336.1 195.7 325.6 166 317.3 151.4C304.6 129.2 280.5 85.5 227.5 85.5C204.6 85.5 164.6 99.7 172.2 143.5" stroke="black" stroke-width="7.2" stroke-miterlimit="10" stroke-linejoin="round"/>
<path d="M192.298 172.4C192.298 172.4 181.498 181.4 168.998 177.9C168.998 177.9 168.698 168.5 158.098 167.7C152.798 167.3 147.098 172.1 146.498 179.2C144.698 203 160.498 203.2 160.498 203.2C154.398 231.9 179.798 257.5 196.898 264.8C206.198 268.8 256.098 249.7 259.998 195.3" stroke="black" stroke-width="7.2" stroke-miterlimit="10" stroke-linejoin="round"/>
<path d="M231.299 273.5H252.599L264.499 279.6H291.199V320.3L275.199 324.8L246.699 329L199.699 321.7L157.699 301.1L136.699 282.6L89.5992 284.4V271L88.1992 244.4L83.5992 221.5L77.5992 208L69.1992 194.5H109.499H131.499L153.299 200.5L171.299 219L186.499 244.2L231.299 273.5Z" fill="#FCA56B"/>
<path d="M251.502 272.9C235.702 272.9 220.402 268.8 207.502 261.5C193.502 253.6 182.202 241.8 175.902 227.1C161.602 194.1 135.002 193.8 135.002 193.8H68.6016" stroke="black" stroke-width="7.2" stroke-miterlimit="10" stroke-linejoin="round"/>
<path d="M94.6992 281.9H140.099C165.699 309.5 202.199 326.7 242.699 326.7C242.699 326.7 272.499 328.6 294.599 317.7" stroke="black" stroke-width="7.2" stroke-miterlimit="10" stroke-linejoin="round"/>
<path d="M0 183.8H35.7C35.7 183.8 92.6 180.1 92.6 260.7C92.6 346.9 111.5 350.1 149.3 350.1C166.9 350.1 231 350.1 294.7 350.1" stroke="black" stroke-width="7.2" stroke-miterlimit="10" stroke-linejoin="round"/>
<path d="M291.2 279H273.2C255.1 279 239.5 267.1 234 250.8" stroke="black" stroke-width="7.2" stroke-miterlimit="10" stroke-linejoin="round"/>
<path d="M263.699 195.3C251.199 199.2 238.099 198.4 220.299 190.8C203.399 183.6 189.999 171.4 180.199 159.5" stroke="black" stroke-width="7.2" stroke-miterlimit="10" stroke-linejoin="round"/>
<path d="M231.898 192.7L248.498 215.8L267.598 225.9L284.198 228.2L287.898 216.5L263.998 189.8L231.898 192.7Z" fill="#9294E1"/>
<path d="M206.199 142.6C206.199 142.6 244.999 245.6 302.699 247.7" stroke="black" stroke-width="7.2" stroke-miterlimit="10" stroke-linejoin="round"/>
<path d="M221.898 114.5C221.898 114.5 265.198 232.5 313.898 233.3" stroke="black" stroke-width="7.2" stroke-miterlimit="10" stroke-linejoin="round"/>
<path d="M399.1 224.3C374.7 223.7 355 203.7 355 179.2C355 154.3 375.3 134 400.2 134H436.2C461.1 134 481.4 154.3 481.4 179.2C481.4 203.8 461.7 223.8 437.3 224.3L418.3 247.9L399.1 224.3Z" fill="white"/>
<g clip-path="url(#clip1_4689_164699)">
<path d="M451.092 188.005H450.921C449.382 187.834 448.355 186.636 448.355 185.097V184.242C448.355 182.874 448.526 181.506 448.526 180.138V178.256C448.526 177.572 448.526 176.717 448.355 176.033C448.355 174.494 449.382 173.297 450.921 173.126C452.46 172.955 453.657 174.152 453.828 175.691C453.828 176.546 453.828 177.23 453.999 178.085V178.94C453.999 179.282 453.999 179.795 453.999 180.138C453.999 181.677 453.999 183.045 453.828 184.584V185.61C453.657 186.978 452.46 188.005 451.092 188.005Z" fill="url(#paint0_linear_4689_164699)"/>
<path d="M417.229 221.012C410.388 221.012 404.402 214.855 400.811 203.91C400.298 202.542 401.153 201.002 402.521 200.489C403.889 199.976 405.428 200.831 405.941 202.2C408.678 210.409 412.953 215.539 417.229 215.539C424.07 215.539 431.595 201.515 431.595 181.506C431.595 161.496 424.07 147.473 417.229 147.473C412.953 147.473 408.678 152.603 405.941 160.983C405.428 162.352 403.889 163.207 402.521 162.694C401.153 162.181 400.298 160.641 400.811 159.273C404.402 148.328 410.388 142 417.229 142C428.345 142 437.067 159.273 437.067 181.506C437.067 203.739 428.345 221.012 417.229 221.012Z" fill="url(#paint1_linear_4689_164699)"/>
<path d="M441.686 199.121C441.515 199.121 441.344 199.121 441.002 199.121C439.463 198.779 438.608 197.411 438.95 195.872C439.976 191.083 440.66 185.781 440.66 180.48C440.66 175.862 440.318 171.245 439.463 166.969C439.121 165.43 440.147 164.062 441.686 163.72C443.225 163.378 444.594 164.404 444.936 165.943C445.791 170.561 446.304 175.349 446.304 180.48C446.304 186.295 445.791 191.938 444.594 197.069C444.081 198.266 442.883 199.121 441.686 199.121Z" fill="url(#paint2_linear_4689_164699)"/>
<path d="M420.65 206.475C420.308 206.475 419.966 206.475 419.624 206.304C418.255 205.791 417.571 204.252 418.084 202.712C420.479 196.556 421.676 189.202 421.676 181.335C421.676 173.468 420.479 166.114 418.084 159.957C417.571 158.589 418.255 157.05 419.624 156.366C420.992 155.853 422.531 156.537 423.215 157.905C425.78 164.746 427.149 172.784 427.149 181.164C427.149 189.715 425.78 197.753 423.215 204.423C422.702 205.791 421.676 206.475 420.65 206.475Z" fill="url(#paint3_linear_4689_164699)"/>
<path d="M391.577 209.382C389.183 209.382 387.644 209.04 387.473 209.04C386.618 208.869 385.762 208.185 385.42 207.33C385.078 206.475 385.249 205.449 385.591 204.765C388.157 201.002 388.67 198.437 388.841 197.24C384.565 192.964 382 187.15 382 181.506C382 172.442 387.986 164.233 397.563 159.957C401.838 158.076 406.627 157.05 411.416 157.05C412.955 157.05 414.152 158.247 414.152 159.786C414.152 161.325 412.955 162.522 411.587 162.522C407.482 162.522 403.378 163.378 399.957 164.917C392.261 168.337 387.644 174.494 387.644 181.335C387.644 185.952 389.696 190.57 393.458 193.819C393.8 194.161 394.143 194.674 394.314 195.188C394.485 195.872 394.998 198.779 392.603 203.91C395.34 203.739 398.76 203.055 400.641 200.318C401.325 199.463 402.352 198.95 403.378 199.292C405.088 199.634 409.876 200.66 411.758 200.66C413.297 200.66 414.494 201.857 414.494 203.397C414.494 204.936 413.297 206.133 411.758 206.133C409.705 206.133 406.114 205.449 403.891 205.107C400.128 208.698 394.998 209.382 391.577 209.382Z" fill="black"/>
</g>
<path d="M460.8 163.5C472.84 163.5 482.6 153.74 482.6 141.7C482.6 129.66 472.84 119.9 460.8 119.9C448.76 119.9 439 129.66 439 141.7C439 153.74 448.76 163.5 460.8 163.5Z" fill="#FF3880"/>
<path d="M453.401 131.8H455.901V151.7H452.601V135.9L449.801 137.8L448.301 135.3L453.401 131.8Z" fill="white"/>
<path d="M473.702 146.2C473.702 149.3 471.002 152 466.902 152C462.602 152 460.202 149.2 459.902 146.2H463.202C463.402 147.4 464.602 149 466.902 149C469.102 149 470.402 147.7 470.402 146C470.402 144.2 469.102 143 466.702 143H465.302V140.2H466.602C468.702 140.2 469.902 139 469.902 137.4C469.902 135.8 468.702 134.5 466.702 134.5C464.702 134.5 463.502 135.8 463.402 137.1H460.102C460.302 134.1 462.902 131.4 466.702 131.4C470.602 131.4 473.202 134 473.202 137.1C473.202 139.1 471.802 140.5 470.402 141.3C472.102 142 473.702 143.5 473.702 146.2Z" fill="white"/>
</g>
<defs>
<linearGradient id="paint0_linear_4689_164699" x1="451.177" y1="173.109" x2="451.177" y2="188.005" gradientUnits="userSpaceOnUse">
<stop stop-color="#2970FF"/>
<stop offset="0.510417" stop-color="#C60077"/>
</linearGradient>
<linearGradient id="paint1_linear_4689_164699" x1="418.864" y1="142" x2="418.864" y2="221.012" gradientUnits="userSpaceOnUse">
<stop stop-color="#2970FF"/>
<stop offset="0.510417" stop-color="#C60077"/>
</linearGradient>
<linearGradient id="paint2_linear_4689_164699" x1="442.589" y1="163.654" x2="442.589" y2="199.121" gradientUnits="userSpaceOnUse">
<stop stop-color="#2970FF"/>
<stop offset="0.510417" stop-color="#C60077"/>
</linearGradient>
<linearGradient id="paint3_linear_4689_164699" x1="422.531" y1="156.195" x2="422.531" y2="206.475" gradientUnits="userSpaceOnUse">
<stop stop-color="#2970FF"/>
<stop offset="0.510417" stop-color="#C60077"/>
</linearGradient>
<clipPath id="clip0_4689_164699">
<rect width="503.6" height="297.4" fill="white" transform="translate(0 81)"/>
</clipPath>
<clipPath id="clip1_4689_164699">
<rect width="72" height="79.0119" fill="white" transform="translate(382 142)"/>
</clipPath>
</defs>
</svg>
