<svg width="640" height="347" viewBox="0 0 640 347" fill="none" xmlns="http://www.w3.org/2000/svg">
<path d="M70 159.7L29.8 167L3 124.5" stroke="#FF3880" stroke-width="5.9747" stroke-miterlimit="10" stroke-linecap="round" stroke-linejoin="round"/>
<path d="M507.999 330.8H65.1992C41.2992 330.8 21.6992 311.2 21.6992 287.3V48.2002C21.6992 24.3002 41.2992 4.7002 65.1992 4.7002H507.999C531.899 4.7002 551.499 24.3002 551.499 48.2002V287.3C551.499 311.2 531.899 330.8 507.999 330.8Z" fill="white"/>
<path d="M535.998 69.7004L526.498 81.5004L516.098 71.0004L507.598 69.7004L512.498 63.1004L524.498 54.9004L535.998 69.7004Z" fill="#FFE2D6" stroke="black" stroke-width="5.8458" stroke-miterlimit="10" stroke-linecap="round" stroke-linejoin="round"/>
<path d="M524.498 51.7002C524.498 51.7002 520.698 62.5002 505.398 68.0002L524.498 51.7002Z" fill="#FFE2D6"/>
<path d="M524.498 51.7002C524.498 51.7002 520.698 62.5002 505.398 68.0002" stroke="black" stroke-width="5.8458" stroke-miterlimit="10" stroke-linecap="round" stroke-linejoin="round"/>
<path d="M526.398 82.4C526.398 82.4 531.998 72.4 535.998 70.5L526.398 82.4Z" fill="#FFE2D6"/>
<path d="M526.398 82.4C526.398 82.4 531.998 72.4 535.998 70.5" stroke="black" stroke-width="5.8458" stroke-miterlimit="10" stroke-linecap="round" stroke-linejoin="round"/>
<path d="M468.099 301.5C482.403 301.5 493.999 289.904 493.999 275.6C493.999 261.296 482.403 249.7 468.099 249.7C453.795 249.7 442.199 261.296 442.199 275.6C442.199 289.904 453.795 301.5 468.099 301.5Z" stroke="black" stroke-width="6.9657" stroke-miterlimit="10" stroke-linecap="round" stroke-linejoin="round"/>
<path d="M257.798 301.5C272.103 301.5 283.698 289.904 283.698 275.6C283.698 261.296 272.103 249.7 257.798 249.7C243.494 249.7 231.898 261.296 231.898 275.6C231.898 289.904 243.494 301.5 257.798 301.5Z" stroke="black" stroke-width="6.9657" stroke-miterlimit="10" stroke-linecap="round" stroke-linejoin="round"/>
<path d="M569.201 343.3C606.149 343.3 636.101 313.348 636.101 276.4C636.101 239.452 606.149 209.5 569.201 209.5C532.253 209.5 502.301 239.452 502.301 276.4C502.301 313.348 532.253 343.3 569.201 343.3Z" stroke="black" stroke-width="6.9657" stroke-miterlimit="10" stroke-linecap="round" stroke-linejoin="round"/>
<path d="M159.099 343.3C196.047 343.3 225.999 313.348 225.999 276.4C225.999 239.452 196.047 209.5 159.099 209.5C122.151 209.5 92.1992 239.452 92.1992 276.4C92.1992 313.348 122.151 343.3 159.099 343.3Z" stroke="black" stroke-width="6.9657" stroke-miterlimit="10" stroke-linecap="round" stroke-linejoin="round"/>
<path d="M534.499 182.1H432.199L363.699 276.4H465.999L534.499 182.1Z" stroke="black" stroke-width="6.9657" stroke-miterlimit="10" stroke-linecap="round" stroke-linejoin="round"/>
<path d="M430.601 182.8H328.201L259.801 277H362.101L430.601 182.8Z" stroke="black" stroke-width="6.9657" stroke-miterlimit="10" stroke-linecap="round" stroke-linejoin="round"/>
<path d="M554.098 151C563.098 151 570.498 158.3 570.498 167.4C570.498 176.5 563.198 183.8 554.098 183.8" stroke="black" stroke-width="6.9657" stroke-miterlimit="10" stroke-linecap="round" stroke-linejoin="round"/>
<path d="M569.199 276.4L524.199 151H555.699" stroke="black" stroke-width="6.9657" stroke-miterlimit="10" stroke-linecap="round" stroke-linejoin="round"/>
<path d="M345.699 151C354.699 151 362.099 158.3 362.099 167.4C362.099 176.5 354.799 183.8 345.699 183.8" stroke="black" stroke-width="6.9657" stroke-miterlimit="10" stroke-linecap="round" stroke-linejoin="round"/>
<path d="M360.801 276.4L315.801 151H347.301" stroke="black" stroke-width="6.9657" stroke-miterlimit="10" stroke-linecap="round" stroke-linejoin="round"/>
<path d="M475.4 302.5L421 151" stroke="black" stroke-width="6.9657" stroke-miterlimit="10" stroke-linecap="round" stroke-linejoin="round"/>
<path d="M327.8 182.8H225.5L157 277H259.3L327.8 182.8Z" stroke="black" stroke-width="6.9657" stroke-miterlimit="10" stroke-linecap="round" stroke-linejoin="round"/>
<path d="M268.9 302.5L214.5 151" stroke="black" stroke-width="6.9657" stroke-miterlimit="10" stroke-linecap="round" stroke-linejoin="round"/>
<path d="M214.499 198.8H97.6992" stroke="black" stroke-width="5.9747" stroke-miterlimit="10" stroke-linecap="round" stroke-linejoin="round"/>
<path d="M533.398 144.6H574.198L602.298 99" stroke="#FF3880" stroke-width="5.9747" stroke-miterlimit="10" stroke-linecap="round" stroke-linejoin="round"/>
<path d="M417.6 89.2997C433.4 91.3997 461.8 86.1997 475.4 76.3997C505.4 54.8997 528 72.0997 528 80.6997C528 97.0997 529 122.9 505.4 125.2C477.3 127.9 418.2 120.7 462.9 150.9C485.9 166.5 408.8 138.8 408.8 138.8C408.8 138.8 391.9 123.2 408.8 105.6C408.8 105.6 414.1 125.7 430.6 120" fill="white"/>
<path d="M417.6 89.2997C433.4 91.3997 461.8 86.1997 475.4 76.3997C505.4 54.8997 528 72.0997 528 80.6997C528 97.0997 529 122.9 505.4 125.2C477.3 127.9 418.2 120.7 462.9 150.9C485.9 166.5 408.8 138.8 408.8 138.8C408.8 138.8 391.9 123.2 408.8 105.6C408.8 105.6 414.1 125.7 430.6 120" stroke="black" stroke-width="5.9747" stroke-miterlimit="10" stroke-linecap="round" stroke-linejoin="round"/>
<path d="M398.2 151L477.6 207.9C477.6 207.9 464.3 223.8 462.7 230.8C459.6 244 463.6 272.5 463.3 291.5L458.1 309.9L502.3 307.6L479.1 292.4L506 201.4L452.8 131.2C452.8 131.2 424.7 90.3999 398.1 110.7C375.3 128.1 398.2 151 398.2 151Z" fill="#FFE2D6" stroke="black" stroke-width="5.8458" stroke-miterlimit="10" stroke-linecap="round" stroke-linejoin="round"/>
<path d="M493.5 81.4996C484.1 80.0996 480 91.0996 480 91.0996L499.8 153.5L561.8 173.1C567.9 180.4 576.5 178.4 576.5 178.4C584.5 168 578.9 159.2 578.9 159.2H566L517.1 137.4C517.2 137.3 513.6 84.5996 493.5 81.4996Z" fill="#FFE2D6" stroke="black" stroke-width="5.8458" stroke-miterlimit="10" stroke-linecap="round" stroke-linejoin="round"/>
<path d="M493.898 39.7998C493.898 39.7998 454.098 38.5998 454.598 52.3998C455.098 66.1998 475.798 82.0998 491.998 73.3998C508.198 64.6998 523.398 63.0998 523.398 63.0998L525.798 53.1998C525.798 53.0998 518.398 42.5998 493.898 39.7998Z" fill="white" stroke="black" stroke-width="5.9747" stroke-miterlimit="10" stroke-linecap="round" stroke-linejoin="round"/>
<path d="M504.399 64.9C504.399 64.9 506.299 73.4 503.199 77.8L508.699 79.6C510.199 84 511.199 87 513.799 88.6C519.099 91.8 527.299 89 535.199 82.2C543.599 74.9 547.499 61.4 542.799 49.9C538.899 40.5 528.099 34.3 515.099 41C506.699 45.4 502.499 53.6 504.399 64.9Z" fill="#FFE2D6" stroke="black" stroke-width="5.8458" stroke-miterlimit="10" stroke-linecap="round" stroke-linejoin="round"/>
<path d="M550.797 45.4998C550.797 45.4998 526.697 17.2998 507.597 46.5998C503.997 52.1998 522.697 48.0998 529.297 54.0998C537.697 61.6998 544.297 68.2998 544.297 68.2998C544.297 68.2998 554.997 62.4998 550.797 45.4998Z" fill="white" stroke="black" stroke-width="5.9747" stroke-miterlimit="10" stroke-linecap="round" stroke-linejoin="round"/>
<path d="M537.598 73.8998C542.098 73.8998 545.698 70.2998 545.698 65.8998C545.698 61.4998 542.098 57.7998 537.698 57.7998" fill="#FFE2D6"/>
<path d="M537.598 73.8998C542.098 73.8998 545.698 70.2998 545.698 65.8998C545.698 61.4998 542.098 57.7998 537.698 57.7998" stroke="black" stroke-width="5.8458" stroke-miterlimit="10" stroke-linecap="round" stroke-linejoin="round"/>
<path d="M523.699 67.0997C521.399 67.7997 517.899 68.2997 515.199 66.6997L523.699 67.0997Z" fill="white"/>
<path d="M523.699 67.0997C521.399 67.7997 517.899 68.2997 515.199 66.6997" stroke="black" stroke-width="5.9747" stroke-miterlimit="10" stroke-linecap="round" stroke-linejoin="round"/>
<path d="M315.898 144.6H356.698L384.798 99" stroke="#FF3880" stroke-width="5.9747" stroke-miterlimit="10" stroke-linecap="round" stroke-linejoin="round"/>
<path d="M324.698 70.9004L315.798 82.0004L305.898 72.1004L297.898 70.9004L302.498 64.7004L313.898 56.9004L324.698 70.9004Z" fill="#FFD1A6"/>
<path d="M314.799 52.2002C314.799 52.2002 310.999 63.0002 295.699 68.5002L314.799 52.2002Z" fill="#FFD1A6"/>
<path d="M314.799 52.2002C314.799 52.2002 310.999 63.0002 295.699 68.5002" stroke="black" stroke-width="5.9747" stroke-miterlimit="10" stroke-linecap="round" stroke-linejoin="round"/>
<path d="M316.699 82.9C316.699 82.9 322.299 72.9 326.299 71L316.699 82.9Z" fill="#FFD1A6"/>
<path d="M316.699 82.9C316.699 82.9 322.299 72.9 326.299 71" stroke="black" stroke-width="5.9747" stroke-miterlimit="10" stroke-linecap="round" stroke-linejoin="round"/>
<path d="M211.301 97.4003C228.901 88.6003 250.501 78.1003 259.701 74.6003C280.101 66.9003 303.001 62.6003 314.801 80.7003C320.801 89.9003 319.901 116.8 295.701 125.9C275.501 133.4 240.801 119.5 229.201 142.1" fill="#BBBEFF"/>
<path d="M211.301 97.4003C228.901 88.6003 250.501 78.1003 259.701 74.6003C280.101 66.9003 303.001 62.6003 314.801 80.7003C320.801 89.9003 319.901 116.8 295.701 125.9C275.501 133.4 240.801 119.5 229.201 142.1" stroke="black" stroke-width="5.9747" stroke-miterlimit="10" stroke-linecap="round" stroke-linejoin="round"/>
<path d="M348.502 173.1L282.102 162.7C282.102 162.7 277.102 139.2 277.102 114C277.102 100.5 279.002 92.4001 279.002 92.4001C279.002 92.4001 281.802 76.6001 292.902 76.6001C304.002 76.6001 306.302 85.8001 307.502 90.7001C308.802 95.7001 308.902 138.1 308.902 138.1L352.402 156L354.602 152.5H366.402C366.402 152.5 374.902 168.9 363.102 178.7C363.202 178.4 354.702 180.3 348.502 173.1Z" fill="#FFD1A6" stroke="black" stroke-width="5.8458" stroke-miterlimit="10" stroke-linecap="round" stroke-linejoin="round"/>
<path d="M237.9 235.2L244.4 207.5L185.1 151C185.1 151 162.2 128.1 185.1 110.7L209.1 98.6001L239.8 131.2L243.2 135.7L293 201.4L269 282.4H245.8H226.9L231.9 261.2" fill="#CCCCCC"/>
<path d="M264.602 119.1C276.302 122.1 302.202 120.7 309.002 119.3C309.302 116.6 308.902 95.5 307.402 90.5C305.902 85.6 303.302 76.1 290.702 76.4C268.802 77 274.302 110.8 274.302 110.8" fill="#BBBEFF"/>
<path d="M264.602 119.1C276.302 122.1 302.202 120.7 309.002 119.3C309.302 116.6 308.902 95.5 307.402 90.5C305.902 85.6 303.302 76.1 290.702 76.4C268.802 77 274.302 110.8 274.302 110.8" stroke="black" stroke-width="6.3717" stroke-miterlimit="10" stroke-linecap="round" stroke-linejoin="round"/>
<path d="M245.801 282.3H268.901" stroke="black" stroke-width="5.9747" stroke-miterlimit="10" stroke-linecap="round" stroke-linejoin="round"/>
<path d="M266.002 292.4L269.002 282.3H245.802L243.002 290.4L235.102 302.5L236.302 317.9H306.902V309.9L266.002 292.4Z" fill="white" stroke="black" stroke-width="5.9747" stroke-miterlimit="10" stroke-linecap="round" stroke-linejoin="round"/>
<path d="M237.9 235.2L244.4 207.5L185.1 151C185.1 151 162.2 128.1 185.1 110.7L198.6 103.9" stroke="black" stroke-width="5.9747" stroke-miterlimit="10" stroke-linecap="round" stroke-linejoin="round"/>
<path d="M242.699 290.4C242.699 290.4 245.099 295.7 252.999 295.7C260.899 295.7 266.599 292 266.599 292L268.999 282.3H245.799C245.799 282.3 242.699 290.9 242.699 290.4Z" fill="#FFD1A6" stroke="black" stroke-width="5.8458" stroke-miterlimit="10" stroke-linecap="round" stroke-linejoin="round"/>
<path d="M200.801 88.9004L293.001 201.4L269.001 282.3H245.801H226.901L231.901 261.1" stroke="black" stroke-width="5.9747" stroke-miterlimit="10" stroke-linecap="round" stroke-linejoin="round"/>
<path d="M166.599 152.3L164.299 147.6H115.099C37.6992 162.2 33.1992 195.3 33.1992 195.3L62.6992 277L109.299 261.3L80.4992 206.8L142.199 200.8C142.199 200.8 182.599 198.8 166.599 152.3Z" fill="#BBBEFF" stroke="black" stroke-width="5.9747" stroke-miterlimit="10" stroke-linecap="round" stroke-linejoin="round"/>
<path d="M148.398 63.4002L170.398 58.2002C170.398 58.2002 181.398 72.2002 177.698 87.7002C173.998 103.2 166.498 103.8 166.498 103.8L148.398 63.4002Z" fill="#CCCCCC" stroke="black" stroke-width="5.9747" stroke-miterlimit="10" stroke-linecap="round" stroke-linejoin="round"/>
<path d="M170.3 162C171.9 144.9 163.5 123.6 163.3 112.7C163 90.8999 162.4 62.2999 141.2 63.3999C113.9 64.8999 89.2999 109 90.5999 134.9C90.9999 142.5 92.4999 149.8 94.4999 157.3C94.5999 157.8 88.5999 160.4 90.5999 164C94.6999 171.3 116 177.2 126.9 178.6C135.4 179.7 146.9 179.9 157 175C167.5 170 170.1 164.9 170.3 162Z" fill="#CCCCCC" stroke="black" stroke-width="5.9747" stroke-miterlimit="10" stroke-linecap="round" stroke-linejoin="round"/>
<path d="M424.301 169.7L464.001 145.8" stroke="black" stroke-width="6.9657" stroke-miterlimit="10" stroke-linecap="round" stroke-linejoin="round"/>
<path d="M49.5992 139.7C49.5992 139.7 38.7992 146.1 40.2992 159.2C40.2992 159.2 59.1992 157.7 68.1992 154.7L63.9992 142.7L49.5992 139.7Z" fill="#D89C7D" stroke="black" stroke-width="5.8458" stroke-miterlimit="10" stroke-linecap="round" stroke-linejoin="round"/>
<path d="M359.799 52.7999C359.799 52.7999 360.999 66.3999 360.999 70.2999L352.199 70.3999C347.399 72.7999 345.799 88.0999 342.599 87.6999C323.299 85.4999 315.499 66.8999 315.299 55.4999C315.199 44.3999 318.699 37.7999 327.699 29.1999C334.999 22.0999 343.699 25.2999 356.599 31.9999C362.699 35.1999 362.999 45.4999 359.799 52.7999Z" fill="#FFD1A6" stroke="black" stroke-width="5.8458" stroke-miterlimit="10" stroke-linecap="round" stroke-linejoin="round"/>
<path d="M343.699 53.7002C345.899 54.9002 349.099 56.1002 352.099 55.0002L343.699 53.7002Z" fill="#FFD1A6"/>
<path d="M343.699 53.7002C345.899 54.9002 349.099 56.1002 352.099 55.0002" stroke="black" stroke-width="5.9747" stroke-miterlimit="10" stroke-linecap="round" stroke-linejoin="round"/>
<path d="M350.802 71.6C350.802 71.6 342.502 68.1 338.902 72.1L350.802 71.6Z" fill="#FFD1A6"/>
<path d="M350.802 71.6C350.802 71.6 342.502 68.1 338.902 72.1" stroke="black" stroke-width="5.8458" stroke-miterlimit="10" stroke-linecap="round" stroke-linejoin="round"/>
<path d="M305.301 21.7C305.301 21.7 326.201 11.1 340.701 14C356.101 17.1 368.501 24.7 359.701 36.8C359.701 36.8 345.101 24.5 336.201 30.1L332.901 51L313.301 49.3L312.501 44.2L310.201 29.4" fill="white"/>
<path d="M305.301 21.7C305.301 21.7 326.201 11.1 340.701 14C356.101 17.1 368.501 24.7 359.701 36.8C359.701 36.8 345.101 24.5 336.201 30.1L332.901 51L313.301 49.3L312.501 44.2L310.201 29.4" stroke="black" stroke-width="5.8458" stroke-miterlimit="10" stroke-linecap="round" stroke-linejoin="round"/>
<path d="M328.301 60.9999C323.901 60.2999 320.901 56.1999 321.601 51.7999C322.301 47.3999 326.401 44.3999 330.801 45.0999" fill="#FFD1A6"/>
<path d="M328.301 60.9999C323.901 60.2999 320.901 56.1999 321.601 51.7999C322.301 47.3999 326.401 44.3999 330.801 45.0999" stroke="black" stroke-width="5.8458" stroke-miterlimit="10" stroke-linecap="round" stroke-linejoin="round"/>
<path d="M294.301 142.4C294.301 142.4 298.301 137.8 305.301 137.8L294.301 142.4Z" fill="white"/>
<path d="M294.301 142.4C294.301 142.4 298.301 137.8 305.301 137.8" stroke="black" stroke-width="5.9747" stroke-miterlimit="10" stroke-linecap="round" stroke-linejoin="round"/>
<path d="M121.5 71.7L131.2 65.4L140.8 63.4H144.7L137.9 49.5L127.8 57.6L115.5 61.1L119.5 72.1L121.8 72.2" fill="#D89C7D"/>
<path d="M98.4992 33.7L95.6992 45.7L102.099 46.9C106.399 50.1 103.999 60.8 107.199 61C126.599 62.2 133.999 54.7 139.999 45C145.999 35.1 147.799 20 140.599 9.99997C134.599 1.69997 124.499 1.39997 110.599 5.69997C103.999 7.69997 93.4992 16.6 98.4992 33.7Z" fill="#D89C7D" stroke="black" stroke-width="5.8458" stroke-miterlimit="10" stroke-linecap="round" stroke-linejoin="round"/>
<path d="M116.199 34.8001C113.899 35.6001 110.399 36.2001 107.699 34.6001L116.199 34.8001Z" fill="#D89C7D"/>
<path d="M116.199 34.8001C113.899 35.6001 110.399 36.2001 107.699 34.6001" stroke="black" stroke-width="5.9747" stroke-miterlimit="10" stroke-linecap="round" stroke-linejoin="round"/>
<path d="M104.698 12.6L123.498 16.1L125.198 25L132.498 25.9L136.598 31.1L137.698 33.2L142.698 33.7L144.698 27.7V16.6L136.598 6L124.698 3.5L108.998 6.3L100.898 11.1L104.698 12.6Z" fill="#666666"/>
<path d="M140 45C140 45 138.5 59.3 146.6 63.4L140 45Z" fill="white"/>
<path d="M140 45C140 45 138.5 59.3 146.6 63.4" stroke="black" stroke-width="5.8458" stroke-miterlimit="10" stroke-linecap="round" stroke-linejoin="round"/>
<path d="M116.801 60.7998L120.501 72.4998" stroke="black" stroke-width="5.6525" stroke-miterlimit="10" stroke-linecap="round" stroke-linejoin="round"/>
<path d="M100.898 12.8998C100.898 12.8998 119.598 10.8998 122.698 15.2998L124.798 31.0998L144.198 34.3998" stroke="black" stroke-width="5.8458" stroke-miterlimit="10" stroke-linecap="round" stroke-linejoin="round"/>
<path d="M128.101 39.4C132.501 39 135.901 35.4 135.501 31.2C135.201 27.1 131.301 24 126.801 24.4" fill="#D89C7D"/>
<path d="M128.101 39.4C132.501 39 135.901 35.4 135.501 31.2C135.201 27.1 131.301 24 126.801 24.4" stroke="black" stroke-width="5.6525" stroke-miterlimit="10" stroke-linecap="round" stroke-linejoin="round"/>
<path d="M98.4992 33.7L95.6992 45.7L102.099 46.9C106.399 50.1 103.999 60.8 107.199 61C126.599 62.2 133.999 54.7 139.999 45C145.999 35.1 147.799 20 140.599 9.99997C134.599 1.69997 124.499 1.39997 110.599 5.69997C103.999 7.69997 93.4992 16.6 98.4992 33.7Z" stroke="black" stroke-width="5.8458" stroke-miterlimit="10" stroke-linecap="round" stroke-linejoin="round"/>
<path d="M66.3008 144.6L75.1008 162" stroke="black" stroke-width="5.9747" stroke-miterlimit="10" stroke-linecap="round" stroke-linejoin="round"/>
<path d="M147.5 65.4001C138 59.7001 125.1 67.4001 121.7 72.1001C113.7 83.2001 106.1 121.1 106.1 121.1L70.3 139.5L64.2 142.6H64L68.2 154.6L75.1 162L131.2 145.7L153.2 81.2001C153.2 81.3001 157 71.1001 147.5 65.4001Z" fill="#CCCCCC" stroke="black" stroke-width="5.9747" stroke-miterlimit="10" stroke-linecap="round" stroke-linejoin="round"/>
<path d="M76 272.6L83.3 290.4L104.6 282.5L98.8 264.9L76 272.6Z" fill="#D89C7D" stroke="black" stroke-width="5.8458" stroke-miterlimit="10" stroke-linecap="round" stroke-linejoin="round"/>
<path d="M79.6 283.6L80.5 285.1L56.5 315L62.6 323.9L119.9 295.4L110.7 280.8L102.5 277.8C94.5 288.9 84.3 285.9 79.6 283.6Z" fill="#232323" stroke="black" stroke-width="5.9747" stroke-miterlimit="10" stroke-linecap="round" stroke-linejoin="round"/>
<path d="M422.802 165.6L461.902 144.6L452.902 131.1L438.202 115.4L422.802 106.5L408.802 105.7L393.202 115.4L388.102 130.8L393.202 144.6L401.302 153.2L422.802 165.6Z" fill="#BBBEFF"/>
<path d="M398.2 151L477.6 207.9C477.6 207.9 464.3 223.8 462.7 230.8C459.6 244 463.6 272.5 463.3 291.5L458.1 309.9H508.9L479.1 292.3L506 201.3L452.8 131.1C452.8 131.1 424.7 90.2998 398.1 110.6C375.3 128.1 398.2 151 398.2 151Z" stroke="black" stroke-width="5.9747" stroke-miterlimit="10" stroke-linecap="round" stroke-linejoin="round"/>
<path d="M460.799 290.4L454.199 300.4L455.199 313.3H514.099V306.7L479.899 292C479.899 292 478.999 294.3 473.499 295.9C473.599 295.9 465.899 298.4 460.799 290.4Z" fill="#232323" stroke="black" stroke-width="4.9888" stroke-miterlimit="10" stroke-linecap="round" stroke-linejoin="round"/>
</svg>
