<svg width="74" height="76" viewBox="0 0 74 76" fill="none" xmlns="http://www.w3.org/2000/svg">
<circle cx="37" cy="39" r="37" fill="#C6D2FF"/>
<g clip-path="url(#clip0_3532_116320)">
<path d="M7.39844 70V38L20.0984 8.50002L34.2984 1.40002H57.6984L64.9984 10.4V70H7.39844Z" fill="white"/>
<path d="M65 71.4H7.4C6.6 71.4 6 70.8 6 70V38C6 37.8 6 37.6 6.1 37.4L18.8 7.9C18.9 7.6 19.2 7.3 19.5 7.2L33.6 0.2C33.8 0.1 34.1 0 34.3 0H57.7C58.1 0 58.5 0.2 58.8 0.5L66.1 9.4C66.3 9.7 66.4 10 66.4 10.3V70C66.4 70.8 65.8 71.4 65 71.4ZM8.8 68.6H63.6V10.9L57 2.9H34.6L21.2 9.5L8.8 38.3V68.6Z" fill="black"/>
<path d="M15.3984 61.8V39.4L25.1984 14.2L36.1984 9.5H53.8984L55.4984 17.4V61L15.3984 61.8Z" fill="white"/>
<path d="M15.4 63.2C15 63.2 14.7 63.1 14.4 62.8C14.1 62.5 14 62.2 14 61.8V39.4C14 39.2 14 39.1 14.1 38.9L23.9 13.7C24 13.3 24.3 13.1 24.7 12.9L35.7 8.30001C35.9 8.20001 36.1 8.20001 36.2 8.20001H53.9C54.6 8.20001 55.2 8.70001 55.3 9.30001L56.9 17.2C56.9 17.3 56.9 17.4 56.9 17.5V61C56.9 61.8 56.3 62.4 55.5 62.4L15.4 63.2C15.5 63.2 15.4 63.2 15.4 63.2ZM16.8 39.6V60.3L54.1 59.5V17.5L52.8 11H36.5L26.3 15.3L16.8 39.6Z" fill="black"/>
<path d="M14.4064 60.8682L6.42188 69.0055L8.42052 70.9666L16.4051 62.8293L14.4064 60.8682Z" fill="black"/>
<path d="M7.63473 36.6415L7.16797 39.4023L15.1546 40.7526L15.6213 37.9918L7.63473 36.6415Z" fill="black"/>
<path d="M21.1379 7.5714L19.043 9.4292L24.0856 15.1155L26.1805 13.2577L21.1379 7.5714Z" fill="black"/>
<path d="M35.6223 1.0983L32.8945 1.72998L34.767 9.81584L37.4948 9.18416L35.6223 1.0983Z" fill="black"/>
<path d="M56.4563 0.827217L52.6484 8.98212L55.1855 10.1668L58.9934 2.0119L56.4563 0.827217Z" fill="black"/>
<path d="M64.2086 9.24526L54.7344 16.2792L56.4035 18.5274L65.8777 11.4934L64.2086 9.24526Z" fill="black"/>
<path d="M56.4998 59.9141L54.5703 61.9432L64.0639 70.9704L65.9934 68.9413L56.4998 59.9141Z" fill="black"/>
<path d="M29.7984 23.7L27.8984 18H31.5984L29.7984 23.7Z" fill="#FF008A"/>
<path d="M33.7984 23.7L31.8984 18H35.6984L33.7984 23.7Z" fill="#FF008A"/>
<path d="M37.8 23.7L36 18H39.7L37.8 23.7Z" fill="#FF008A"/>
<path d="M25.1984 32.4L23.3984 26.6H27.0984L25.1984 32.4Z" fill="#FF008A"/>
<path d="M29.2984 32.4L27.3984 26.6H31.0984L29.2984 32.4Z" fill="#FF008A"/>
<path d="M40.9 32.4L39 26.7H42.8L40.9 32.4Z" fill="#FF008A"/>
<path d="M27.8 57L26 51.3H29.7L27.8 57Z" fill="#FF008A"/>
<path d="M46.2008 32.3L44.3008 26.6H48.1008L46.2008 32.3Z" fill="#FF008A"/>
<path d="M50.0992 32.3L48.1992 26.6H51.9992L50.0992 32.3Z" fill="#FF008A"/>
<path d="M47.1008 19.4L42.3008 20.8V18L47.1008 19.4Z" fill="#FF008A"/>
<path d="M47.1008 22.3L42.3008 23.7V20.9L47.1008 22.3Z" fill="#FF008A"/>
<path d="M52.0016 19.5L47.1016 20.9V18.1L52.0016 19.5Z" fill="#FF008A"/>
<path d="M52.0016 22.4L47.1016 23.8V21L52.0016 22.4Z" fill="#FF008A"/>
<path d="M38.9992 28L34.1992 29.4V26.6L38.9992 28Z" fill="#FF008A"/>
<path d="M38.9992 30.9L34.1992 32.3V29.5L38.9992 30.9Z" fill="#FF008A"/>
<path d="M22.6984 48.9L20.8984 43.2H24.5984L22.6984 48.9Z" fill="#FF008A"/>
<path d="M26.7984 48.9L24.8984 43.2H28.5984L26.7984 48.9Z" fill="#FF008A"/>
<path d="M30.7984 48.9L28.8984 43.2H32.6984L30.7984 48.9Z" fill="#FF008A"/>
<path d="M41.9977 49L40.0977 43.3H43.8977L41.9977 49Z" fill="#FF008A"/>
<path d="M46.0992 49L44.1992 43.3H47.8992L46.0992 49Z" fill="#FF008A"/>
<path d="M50.0992 49L48.1992 43.3H51.9992L50.0992 49Z" fill="#FF008A"/>
<path d="M39.4 44.6L34.5 46V43.2L39.4 44.6Z" fill="#FF008A"/>
<path d="M39.4 47.5L34.5 48.9V46.1L39.4 47.5Z" fill="#FF008A"/>
<path d="M39.2008 40.6L37.3008 34.9H41.1008L39.2008 40.6Z" fill="#FF008A"/>
<path d="M50.0992 40.4L48.1992 34.7H51.9992L50.0992 40.4Z" fill="#FF008A"/>
<path d="M26.6008 36.2L21.8008 37.7V34.8L26.6008 36.2Z" fill="#FF008A"/>
<path d="M26.6008 39.1L21.8008 40.5V37.7L26.6008 39.1Z" fill="#FF008A"/>
<path d="M31.5016 36.3L26.6016 37.7V34.9L31.5016 36.3Z" fill="#FF008A"/>
<path d="M31.5016 39.2L26.6016 40.6V37.8L31.5016 39.2Z" fill="#FF008A"/>
<path d="M48.2023 36.2L43.4023 37.6V34.8L48.2023 36.2Z" fill="#FF008A"/>
<path d="M48.2023 39.1L43.4023 40.5V37.7L48.2023 39.1Z" fill="#FF008A"/>
<path d="M36.3 36.2L31.5 37.6V34.8L36.3 36.2Z" fill="#FF008A"/>
<path d="M36.3 39.1L31.5 40.5V37.7L36.3 39.1Z" fill="#FF008A"/>
<path d="M25.4016 52.7L20.6016 54.1V51.3L25.4016 52.7Z" fill="#FF008A"/>
<path d="M25.4016 55.6L20.6016 57V54.2L25.4016 55.6Z" fill="#FF008A"/>
<path d="M38.7984 57L36.8984 51.3H40.6984L38.7984 57Z" fill="#FF008A"/>
<path d="M36.4016 52.6L31.6016 54.1V51.2L36.4016 52.6Z" fill="#FF008A"/>
<path d="M36.4016 55.5L31.6016 56.9V54.1L36.4016 55.5Z" fill="#FF008A"/>
<path d="M50.0992 56.9L48.1992 51.2H51.9992L50.0992 56.9Z" fill="#FF008A"/>
<path d="M47.4016 52.6L42.6016 54V51.2L47.4016 52.6Z" fill="#FF008A"/>
<path d="M47.4016 55.5L42.6016 56.9V54.1L47.4016 55.5Z" fill="#FF008A"/>
</g>
<defs>
<clipPath id="clip0_3532_116320">
<rect width="60.4" height="71.4" fill="white" transform="translate(6)"/>
</clipPath>
</defs>
</svg>
