<svg width="80" height="74" viewBox="0 0 80 74" fill="none" xmlns="http://www.w3.org/2000/svg">
<circle cx="37" cy="37" r="37" fill="#C6D2FF"/>
<g clip-path="url(#clip0_3532_116552)">
<path d="M36.7984 32.6C35.9984 32.6 35.3984 32 35.3984 31.2V23.4C35.3984 22.6 35.9984 22 36.7984 22C37.5984 22 38.1984 22.6 38.1984 23.4V31.2C38.1984 32 37.5984 32.6 36.7984 32.6Z" fill="black"/>
<path d="M49.3008 24.6H24.2008C20.9008 24.6 18.3008 22 18.3008 18.7V12.9C18.3008 9.7 21.0008 7 24.2008 7H49.3008C52.6008 7 55.2008 9.6 55.2008 12.9V18.7C55.2008 21.9 52.6008 24.6 49.3008 24.6ZM24.2008 9.8C22.5008 9.8 21.1008 11.2 21.1008 12.9V18.7C21.1008 20.4 22.5008 21.8 24.2008 21.8H49.3008C51.0008 21.8 52.4008 20.4 52.4008 18.7V12.9C52.4008 11.2 51.0008 9.8 49.3008 9.8H24.2008Z" fill="black"/>
<path d="M67.6984 23.9H64.8984V17.3C64.8984 13.7 62.4984 10.8 59.5984 10.8H13.9984C11.0984 10.8 8.69844 13.7 8.69844 17.3V23.9H5.89844V17.3C5.89844 12.2 9.49844 8 13.9984 8H59.5984C64.0984 8 67.6984 12.2 67.6984 17.4V23.9Z" fill="black"/>
<path d="M61.2992 67.7001H12.1992C11.0992 67.7001 10.1992 66.8001 10.1992 65.7001V59.2001C10.1992 58.1001 11.0992 57.2001 12.1992 57.2001H61.2992C62.3992 57.2001 63.2992 58.1001 63.2992 59.2001V65.7001C63.2992 66.8001 62.3992 67.7001 61.2992 67.7001Z" fill="white"/>
<path d="M61.3008 69.1H12.2008C10.3008 69.1 8.80078 67.6 8.80078 65.7001V59.2001C8.80078 57.3001 10.3008 55.8 12.2008 55.8H61.3008C63.2008 55.8 64.7008 57.3001 64.7008 59.2001V65.7001C64.8008 67.5001 63.2008 69.1 61.3008 69.1ZM12.2008 58.6C11.9008 58.6 11.6008 58.9001 11.6008 59.2001V65.7001C11.6008 66.0001 11.9008 66.3 12.2008 66.3H61.3008C61.6008 66.3 61.9008 66.0001 61.9008 65.7001V59.2001C61.9008 58.9001 61.6008 58.6 61.3008 58.6H12.2008Z" fill="black"/>
<path d="M36.7984 33.2001C30.4984 33.2001 25.3984 36.8001 25.3984 41.3001H48.2984C48.1984 36.8001 43.0984 33.2001 36.7984 33.2001Z" fill="white"/>
<path d="M48.2 42.7001H25.4C24.6 42.7001 24 42.1 24 41.3C24 36.1 29.8 31.8 36.8 31.8C43.9 31.8 49.6 36.1 49.6 41.3C49.6 42.1 49 42.7001 48.2 42.7001ZM27 39.9001H46.5C45.5 36.9001 41.4 34.6 36.7 34.6C32.1 34.6 28 36.9001 27 39.9001Z" fill="black"/>
<path d="M11.3984 25.2H2.99844C2.09844 25.2 1.39844 24.5 1.39844 23.6V21.6C1.39844 20.7 2.09844 20 2.99844 20H11.3984C12.2984 20 12.9984 20.7 12.9984 21.6V23.6C12.9984 24.4 12.2984 25.2 11.3984 25.2Z" fill="white"/>
<path d="M11.4 26.6H3C1.3 26.6 0 25.2 0 23.6V21.6C0 19.9 1.4 18.6 3 18.6H11.4C13.1 18.6 14.4 20 14.4 21.6V23.6C14.4 25.2 13.1 26.6 11.4 26.6ZM3 21.4C2.9 21.4 2.8 21.5 2.8 21.6V23.6C2.8 23.7 2.9 23.8 3 23.8H11.4C11.5 23.8 11.6 23.7 11.6 23.6V21.6C11.6 21.5 11.5 21.4 11.4 21.4H3Z" fill="black"/>
<path d="M70.2969 25.2H61.8969C60.9969 25.2 60.2969 24.5 60.2969 23.6V21.6C60.2969 20.7 60.9969 20 61.8969 20H70.2969C71.1969 20 71.8969 20.7 71.8969 21.6V23.6C71.8969 24.4 71.1969 25.2 70.2969 25.2Z" fill="white"/>
<path d="M70.2984 26.6H61.8984C60.1984 26.6 58.8984 25.2 58.8984 23.6V21.6C58.8984 19.9 60.2984 18.6 61.8984 18.6H70.2984C71.9984 18.6 73.2984 20 73.2984 21.6V23.6C73.3984 25.2 71.9984 26.6 70.2984 26.6ZM61.8984 21.4C61.7984 21.4 61.6984 21.5 61.6984 21.6V23.6C61.6984 23.7 61.7984 23.8 61.8984 23.8H70.2984C70.3984 23.8 70.4984 23.7 70.4984 23.6V21.6C70.4984 21.5 70.3984 21.4 70.2984 21.4H61.8984Z" fill="black"/>
<path d="M55.2969 36.6001C61.5969 36.6001 66.6969 31.5001 66.6969 25.2001H55.2969V36.6001Z" fill="white"/>
<path d="M55.2984 38C54.4984 38 53.8984 37.4001 53.8984 36.6V25.2001C53.8984 24.4001 54.4984 23.8 55.2984 23.8H66.6984C67.4984 23.8 68.0984 24.4001 68.0984 25.2001C68.0984 32.3001 62.2984 38 55.2984 38ZM56.6984 26.6V35C61.0984 34.4 64.4984 30.9001 65.0984 26.6H56.6984Z" fill="black"/>
<path d="M60.4984 45.4C59.8984 45.4 59.2984 45.4 58.6984 45.3L58.9984 42.5C59.4984 42.5 59.9984 42.6 60.5984 42.6C69.3984 42.6 76.4984 35.5 76.4984 26.7C76.4984 17.9 69.3984 10.8 60.5984 10.8H51.3984V8H60.5984C70.8984 8 79.2984 16.4 79.2984 26.7C79.1984 37 70.7984 45.4 60.4984 45.4Z" fill="black"/>
<path d="M49.5992 12.3H23.8992C22.3992 12.3 21.1992 11.1 21.1992 9.60002V9.10002C21.1992 7.60002 22.3992 6.40002 23.8992 6.40002H49.5992C51.0992 6.40002 52.2992 7.60002 52.2992 9.10002V9.60002C52.2992 11.1 51.0992 12.3 49.5992 12.3Z" fill="white"/>
<path d="M49.6008 13.8H23.9008C21.6008 13.8 19.8008 11.9 19.8008 9.7V9.1C19.8008 6.8 21.7008 5 23.9008 5H49.6008C51.9008 5 53.7008 6.9 53.7008 9.1V9.6C53.8008 11.9 51.9008 13.8 49.6008 13.8ZM23.9008 7.8C23.2008 7.8 22.6008 8.4 22.6008 9.1V9.6C22.6008 10.3 23.2008 10.9 23.9008 10.9H49.6008C50.3008 10.9 50.9008 10.3 50.9008 9.6V9.1C50.9008 8.4 50.3008 7.8 49.6008 7.8H23.9008Z" fill="black"/>
<path d="M53.8992 57.2001H19.5992C16.6992 57.2001 14.1992 54.8001 14.1992 51.8001V46.6001C14.1992 43.7001 16.5992 41.2001 19.5992 41.2001H53.8992C56.7992 41.2001 59.2992 43.6001 59.2992 46.6001V51.8001C59.2992 54.7001 56.8992 57.2001 53.8992 57.2001Z" fill="white"/>
<path d="M53.9008 58.6H19.6008C15.9008 58.6 12.8008 55.6 12.8008 51.8V46.6C12.8008 42.9 15.8008 39.8 19.6008 39.8H53.9008C57.6008 39.8 60.7008 42.8 60.7008 46.6V51.8C60.7008 55.5 57.7008 58.6 53.9008 58.6ZM19.6008 42.7001C17.4008 42.7001 15.7008 44.5 15.7008 46.6V51.8C15.7008 54 17.5008 55.7001 19.6008 55.7001H53.9008C56.1008 55.7001 57.8008 53.9 57.8008 51.8V46.6C57.8008 44.4 56.0008 42.7001 53.9008 42.7001H19.6008Z" fill="black"/>
<path d="M36.7984 60.8C43.0945 60.8 48.1984 55.696 48.1984 49.4C48.1984 43.104 43.0945 38 36.7984 38C30.5024 38 25.3984 43.104 25.3984 49.4C25.3984 55.696 30.5024 60.8 36.7984 60.8Z" fill="white"/>
<path d="M36.8 62.2999C29.7 62.2999 24 56.5 24 49.5C24 42.4 29.8 36.7 36.8 36.7C43.9 36.7 49.6 42.5 49.6 49.5C49.6 56.5 43.9 62.2999 36.8 62.2999ZM36.8 39.4C31.3 39.4 26.8 43.9 26.8 49.4C26.8 54.9 31.3 59.4 36.8 59.4C42.3 59.4 46.8 54.9 46.8 49.4C46.8 43.9 42.3 39.4 36.8 39.4Z" fill="black"/>
<path d="M36.7969 56.9C40.939 56.9 44.2969 53.5422 44.2969 49.4C44.2969 45.2579 40.939 41.9 36.7969 41.9C32.6547 41.9 29.2969 45.2579 29.2969 49.4C29.2969 53.5422 32.6547 56.9 36.7969 56.9Z" fill="white"/>
<path d="M35.4984 58.2C34.6984 58.1 33.7984 57.8 33.0984 57.5L34.2984 54.9C34.7984 55.1 35.3984 55.3 35.8984 55.4L35.4984 58.2ZM38.0984 58.2L37.6984 55.4C38.2984 55.3 38.7984 55.2 39.2984 54.9L40.4984 57.5C39.6984 57.8 38.8984 58.1 38.0984 58.2ZM30.9984 56.1C30.3984 55.6 29.7984 54.9 29.2984 54.2L31.6984 52.7C31.9984 53.2 32.3984 53.6 32.7984 54L30.9984 56.1ZM42.5984 56.1L40.6984 54C41.0984 53.6 41.4984 53.2 41.7984 52.7L44.1984 54.2C43.7984 54.9 43.1984 55.6 42.5984 56.1ZM28.2984 52C28.0984 51.2 27.8984 50.4 27.8984 49.5H30.6984C30.6984 50.1 30.7984 50.6 30.8984 51.2L28.2984 52ZM45.2984 51.9L42.5984 51.1C42.7984 50.6 42.7984 50 42.7984 49.4L45.0984 49.3H45.6984C45.6984 50.3 45.4984 51.1 45.2984 51.9ZM30.9984 47.7L28.2984 47C28.4984 46.2 28.8984 45.4 29.2984 44.7L31.6984 46.2C31.3984 46.7 31.0984 47.2 30.9984 47.7ZM42.5984 47.7C42.3984 47.2 42.1984 46.6 41.8984 46.1L44.2984 44.5C44.7984 45.2 45.0984 46 45.3984 46.8L42.5984 47.7ZM32.7984 44.9L30.8984 42.8C31.4984 42.2 32.1984 41.8 32.9984 41.4L34.1984 44C33.6984 44.2 33.1984 44.5 32.7984 44.9ZM40.6984 44.8C40.2984 44.4 39.7984 44.1 39.1984 43.9L40.3984 41.3C41.1984 41.6 41.8984 42.1 42.4984 42.6L40.6984 44.8ZM35.8984 43.4L35.4984 40.6C35.8984 40.5 36.3984 40.5 36.7984 40.5C37.1984 40.5 37.5984 40.5 37.9984 40.6L37.5984 43.4C37.2984 43.4 37.0984 43.4 36.7984 43.3C36.4984 43.4 36.1984 43.4 35.8984 43.4Z" fill="#FF008A"/>
</g>
<defs>
<clipPath id="clip0_3532_116552">
<rect width="79.2" height="64.1" fill="white" transform="translate(0 5)"/>
</clipPath>
</defs>
</svg>
