<svg width="76" height="74" viewBox="0 0 76 74" fill="none" xmlns="http://www.w3.org/2000/svg">
<circle cx="37" cy="37" r="37" fill="#C6D2FF"/>
<g clip-path="url(#clip0_3534_116896)">
<path d="M4.39844 23.7001V53.9001C4.39844 60.6001 12.4984 65.9001 22.3984 65.9001C32.2984 65.9001 40.3984 60.5001 40.3984 53.9001V23.7001H4.39844Z" fill="white"/>
<path d="M22.4 67.3C11.7 67.3 3 61.3001 3 53.9001V23.7001C3 22.9001 3.6 22.3 4.4 22.3H40.4C41.2 22.3 41.8 22.9001 41.8 23.7001V53.9001C41.8 61.3001 33.1 67.3 22.4 67.3ZM5.8 25.1V53.9001C5.8 59.8001 13.2 64.5 22.4 64.5C31.6 64.5 39 59.7001 39 53.9001V25.1H5.8Z" fill="black"/>
<path d="M22.3984 35.7C32.3396 35.7 40.3984 30.3274 40.3984 23.7C40.3984 17.0725 32.3396 11.7 22.3984 11.7C12.4573 11.7 4.39844 17.0725 4.39844 23.7C4.39844 30.3274 12.4573 35.7 22.3984 35.7Z" fill="white"/>
<path d="M22.4 37.0999C11.7 37.0999 3 31.1 3 23.7C3 16.3 11.7 10.2 22.4 10.2C33.1 10.2 41.8 16.2 41.8 23.7C41.8 31.2 33.1 37.0999 22.4 37.0999ZM22.4 13C13.3 13 5.8 17.8 5.8 23.7C5.8 29.6 13.2 34.2999 22.4 34.2999C31.6 34.2999 39 29.5 39 23.7C39 17.8 31.6 13 22.4 13Z" fill="black"/>
<path d="M40.3984 46.8C40.3984 53.7 32.2984 59.4001 22.3984 59.4001C12.4984 59.4001 4.39844 53.8 4.39844 46.8" fill="white"/>
<path d="M22.4 60.8C11.7 60.8 3 54.5 3 46.8C3 46 3.6 45.4 4.4 45.4C5.2 45.4 5.8 46 5.8 46.8C5.8 53 13.2 58 22.4 58C31.6 58 39 52.9 39 46.8C39 46 39.6 45.4 40.4 45.4C41.2 45.4 41.8 46 41.8 46.8C41.8 54.5 33.1 60.8 22.4 60.8Z" fill="black"/>
<path d="M22.3984 27.3C28.4736 27.3 33.3984 24.0316 33.3984 20C33.3984 15.9683 28.4736 12.7 22.3984 12.7C16.3233 12.7 11.3984 15.9683 11.3984 20C11.3984 24.0316 16.3233 27.3 22.3984 27.3Z" fill="white"/>
<path d="M22.4 28.7C15.5 28.7 10 24.9 10 20C10 15.1 15.4 11.2 22.4 11.2C29.3 11.2 34.8 15 34.8 20C34.8 24.9 29.4 28.7 22.4 28.7ZM22.4 14C17.2 14 12.9 16.7 12.9 19.9C12.9 23.1 17.3 25.8 22.4 25.8C27.5 25.8 32 23.2 32 20C32 16.7 27.6 14 22.4 14Z" fill="black"/>
<path d="M22.3984 20.1C28.4736 20.1 33.3984 16.8317 33.3984 12.8C33.3984 8.76832 28.4736 5.5 22.3984 5.5C16.3233 5.5 11.3984 8.76832 11.3984 12.8C11.3984 16.8317 16.3233 20.1 22.3984 20.1Z" fill="white"/>
<path d="M22.4 21.5C15.5 21.5 10 17.7 10 12.8C10 7.8 15.5 4 22.4 4C29.3 4 34.8 7.8 34.8 12.8C34.8 17.7 29.4 21.5 22.4 21.5ZM22.4 6.8C17.2 6.8 12.9 9.5 12.9 12.7C12.9 15.9 17.3 18.6 22.4 18.6C27.5 18.6 32 16 32 12.8C32 9.5 27.6 6.8 22.4 6.8Z" fill="black"/>
<path d="M48.4 71.1C51.6585 71.1 54.3 69.354 54.3 67.2001C54.3 65.0461 51.6585 63.3 48.4 63.3C45.1415 63.3 42.5 65.0461 42.5 67.2001C42.5 69.354 45.1415 71.1 48.4 71.1Z" fill="white"/>
<path d="M48.4016 72.5C44.3016 72.5 41.1016 70.2 41.1016 67.2C41.1016 64.2 44.3016 61.9 48.4016 61.9C52.5016 61.9 55.7016 64.2 55.7016 67.2C55.7016 70.2 52.5016 72.5 48.4016 72.5ZM48.4016 64.7C45.8016 64.7 44.0016 66 44.0016 67.2C44.0016 68.4 45.8016 69.7 48.4016 69.7C51.0016 69.7 52.8016 68.4 52.8016 67.2C52.8016 66 51.0016 64.7 48.4016 64.7Z" fill="#FF008A"/>
<path d="M56.0992 55.5001C59.3577 55.5001 61.9992 53.754 61.9992 51.6001C61.9992 49.4462 59.3577 47.7001 56.0992 47.7001C52.8407 47.7001 50.1992 49.4462 50.1992 51.6001C50.1992 53.754 52.8407 55.5001 56.0992 55.5001Z" fill="white"/>
<path d="M56.1008 56.9001C52.0008 56.9001 48.8008 54.6 48.8008 51.6C48.8008 48.6 52.0008 46.3 56.1008 46.3C60.2008 46.3 63.4008 48.6 63.4008 51.6C63.4008 54.6 60.2008 56.9001 56.1008 56.9001ZM56.1008 49.1C53.5008 49.1 51.7008 50.4 51.7008 51.6C51.7008 52.8 53.5008 54.1 56.1008 54.1C58.7008 54.1 60.5008 52.8 60.5008 51.6C60.5008 50.4 58.8008 49.1 56.1008 49.1Z" fill="#FF008A"/>
<path d="M67.9 67.2C71.1585 67.2 73.8 65.4539 73.8 63.3C73.8 61.1461 71.1585 59.4 67.9 59.4C64.6415 59.4 62 61.1461 62 63.3C62 65.4539 64.6415 67.2 67.9 67.2Z" fill="white"/>
<path d="M67.9016 68.6C63.8016 68.6 60.6016 66.3 60.6016 63.3C60.6016 60.3 63.8016 58 67.9016 58C72.0016 58 75.2016 60.3 75.2016 63.3C75.2016 66.3 71.9016 68.6 67.9016 68.6ZM67.9016 60.8C65.3016 60.8 63.5016 62.1 63.5016 63.3C63.5016 64.5 65.3016 65.8 67.9016 65.8C70.5016 65.8 72.3016 64.5 72.3016 63.3C72.3016 62.1 70.5016 60.8 67.9016 60.8Z" fill="#FF008A"/>
<path d="M29.4 46.6C27.4 47.2 25.1 47.6 22.7 47.6C20.3 47.6 18 47.2 16 46.6" fill="white"/>
<path d="M22.599 49C20.099 49 17.699 48.6 15.399 47.9C14.699 47.7 14.199 46.9 14.499 46.1C14.699 45.4 15.499 44.9 16.299 45.2C20.299 46.4 24.999 46.4 28.899 45.2C29.599 45 30.399 45.4 30.699 46.1C30.899 46.8 30.499 47.6 29.799 47.9C27.499 48.6 25.099 49 22.599 49Z" fill="#FF008A"/>
<path d="M22.5992 55.2C21.7992 55.2 21.1992 54.6 21.1992 53.8V40.3C21.1992 39.5 21.7992 38.9 22.5992 38.9C23.3992 38.9 23.9992 39.5 23.9992 40.3V53.8C23.9992 54.6 23.3992 55.2 22.5992 55.2Z" fill="#FF008A"/>
</g>
<defs>
<clipPath id="clip0_3534_116896">
<rect width="72.1" height="68.5" fill="white" transform="translate(3 4)"/>
</clipPath>
</defs>
</svg>
