<svg width="621" height="371" viewBox="0 0 621 371" fill="none" xmlns="http://www.w3.org/2000/svg">
<g clip-path="url(#clip0_4510_153243)">
<path d="M525.544 207.55L510.939 214.2L486.052 196.35L438.499 203.467L406.368 190.75L403.097 182.817C373.303 199.267 352.973 231 352.973 267.4C352.973 320.717 396.203 363.883 449.599 363.883C502.994 363.883 546.225 320.717 546.225 267.4C546.458 244.883 538.63 224 525.544 207.55Z" fill="#BBBEFF"/>
<path d="M103.52 66.0334C88.5647 66.0334 74.4272 69.4168 61.6917 75.4834L66.2485 130.9L51.0594 137.083L39.9597 131.6L26.1726 120.75L25.3548 105.7C13.6709 121.683 6.77734 141.283 6.77734 162.517C6.77734 215.833 50.0078 259 103.403 259C156.799 259 200.029 215.833 200.029 162.517C200.146 109.317 156.916 66.0334 103.52 66.0334Z" fill="#BBBEFF"/>
<path d="M44.4007 120.75C47.2048 139.65 41.7134 136.967 33.0673 136.967C24.4212 136.967 17.6445 129.733 17.6445 120.75C17.6445 111.767 24.538 104.533 33.1841 104.533C41.8302 104.533 43.1155 111.883 44.4007 120.75Z" fill="#F2B073"/>
<path d="M100.015 59.2666C86.8119 59.2666 67.6503 66.1499 57.8358 73.8499C54.4474 78.6333 61.9252 110.6 56.4337 118.417C53.7464 122.267 46.3855 121.8 43.3477 122.733C42.5299 127.4 42.0625 115.733 42.0625 120.75C42.0625 156.683 65.0798 187.6 93.3549 185.733C150.022 182 147.919 158.433 147.919 122.5C147.919 111.3 147.451 100.45 146.634 91.9333C144.414 66.8499 114.386 59.2666 100.015 59.2666Z" fill="#F2B073"/>
<path d="M123.032 216.179C134.519 182.17 127.275 149.025 106.852 142.147C86.4284 135.269 60.56 157.262 49.0728 191.271C37.5856 225.28 44.8297 258.425 65.2529 265.303C85.676 272.181 111.544 250.187 123.032 216.179Z" fill="#F2B073"/>
<path d="M164.158 213.617C153.993 213.033 123.498 213.617 123.498 213.617C97.443 272.183 69.7522 262.383 58.4188 255.85C41.8276 246.4 48.6043 213.617 48.6043 213.617L58.4188 174.65" stroke="black" stroke-width="7.9001" stroke-miterlimit="10" stroke-linecap="round" stroke-linejoin="round"/>
<path d="M130.16 67.1999C101.651 46.3166 55.9673 72.9166 55.9673 72.9166L57.8367 124.133L42.1802 125.067L39.4929 108.967C39.4929 108.967 18.3451 96.0166 16.7093 120.4C15.4241 139.883 41.9466 139.067 41.9466 139.067C48.4896 171.617 66.2491 187.133 98.9641 186.2C147.219 184.917 152.243 156.8 147.803 104.883L146.518 89.7166C146.518 89.7166 124.902 85.2833 120.579 106.983C116.256 128.683 129.225 151.317 129.225 151.317L107.26 141.167" stroke="black" stroke-width="7.9001" stroke-miterlimit="10" stroke-linejoin="round"/>
<path d="M76.4141 101.15C83.3076 103.25 94.2904 105.233 104.572 101.617" stroke="black" stroke-width="7.9001" stroke-miterlimit="10" stroke-linejoin="round"/>
<path d="M17.875 213.383C28.04 212.8 84.3565 213.383 84.3565 213.383" stroke="black" stroke-width="7.9001" stroke-miterlimit="10" stroke-linecap="round" stroke-linejoin="round"/>
<path d="M325.164 87.2666C325.281 89.1333 325.281 90.9999 325.397 92.8666C325.397 93.4499 325.397 94.1499 325.397 94.8499C325.397 95.7833 325.397 96.7166 325.397 97.6499C325.397 101.267 325.281 104.767 325.164 108.15C325.164 108.967 325.047 109.667 325.047 110.367" stroke="#2970FF" stroke-width="7.9001" stroke-miterlimit="10" stroke-linecap="round" stroke-linejoin="round"/>
<path d="M303.782 64.2834C305.768 74.7834 306.937 86.3335 306.937 98.3501C306.937 112.35 305.418 125.65 302.73 137.433" stroke="#2970FF" stroke-width="7.9001" stroke-miterlimit="10" stroke-linecap="round" stroke-linejoin="round"/>
<path d="M251.32 46.4333C257.162 61.4833 260.667 80.3834 260.667 100.8C260.667 121.217 257.162 140.117 251.32 155.167" stroke="#2970FF" stroke-width="7.9001" stroke-miterlimit="10" stroke-linecap="round" stroke-linejoin="round"/>
<path d="M228.187 192.15C228.07 194.017 228.07 195.883 227.953 197.75C227.953 198.333 227.953 199.033 227.953 199.733C227.953 200.667 227.953 201.6 227.953 202.533C227.953 206.15 228.07 209.65 228.187 213.033C228.187 213.85 228.304 214.55 228.304 215.25" stroke="#2970FF" stroke-width="7.9001" stroke-miterlimit="10" stroke-linecap="round" stroke-linejoin="round"/>
<path d="M273.987 250.833C270.482 237.65 268.379 222.367 268.379 206.033C268.379 165.9 284.736 139.417 284.736 101.15C284.736 84.35 282.633 68.7167 278.894 55.3" stroke="#2970FF" stroke-width="7.9001" stroke-miterlimit="10" stroke-linecap="round" stroke-linejoin="round"/>
<path d="M249.569 169.167C247.582 179.667 246.414 191.217 246.414 203.233C246.414 217.233 247.933 230.533 250.62 242.317" stroke="#2970FF" stroke-width="7.9001" stroke-miterlimit="10" stroke-linecap="round" stroke-linejoin="round"/>
<path d="M301.914 151.433C296.072 166.483 292.566 185.383 292.566 205.8C292.566 226.217 296.072 245.117 301.914 260.167" stroke="#2970FF" stroke-width="7.9001" stroke-miterlimit="10" stroke-linecap="round" stroke-linejoin="round"/>
<path d="M519.934 244.65C528.452 244.65 535.357 236.658 535.357 226.8C535.357 216.942 528.452 208.95 519.934 208.95C511.417 208.95 504.512 216.942 504.512 226.8C504.512 236.658 511.417 244.65 519.934 244.65Z" fill="#FFDBA0"/>
<path d="M452.4 204.05C465.603 204.05 477.871 200.9 487.686 195.533C492.71 202.65 500.538 208.017 509.768 210.583C510.586 215.25 511.053 220.15 511.053 225.167C511.053 261.1 488.036 290.15 459.761 290.15C431.486 290.15 408.469 260.983 408.469 225.167C408.469 213.967 410.689 203.35 414.661 194.133C424.826 200.317 438.029 204.05 452.4 204.05Z" fill="#FFDBA0"/>
<path d="M487.828 369.717C508.251 362.839 515.495 329.694 504.008 295.685C492.521 261.676 466.653 239.682 446.229 246.56C425.806 253.438 418.562 286.584 430.049 320.592C441.537 354.601 467.405 376.595 487.828 369.717Z" fill="#FFDBA0"/>
<path d="M388.84 318.033C399.005 317.45 429.5 318.033 429.5 318.033C455.555 376.6 483.246 366.8 494.579 360.267C511.17 350.817 504.394 318.033 504.394 318.033L494.579 279.067" stroke="black" stroke-width="7.9001" stroke-miterlimit="10" stroke-linecap="round" stroke-linejoin="round"/>
<path d="M441.302 159.25C426.931 165.783 407.069 179.783 405.199 209.417C402.044 262.733 434.292 291.317 445.742 291.317C466.773 291.317 504.512 276.15 511.055 243.6C511.055 243.6 527.53 250.483 536.293 224.933C538.98 217.233 535.124 209.65 529.399 207.783C517.949 203.933 513.509 213.5 513.509 213.5C482.547 210.233 480.911 172.9 492.361 174.533C504.629 176.283 500.54 198.917 456.492 203.817C412.443 208.717 391.412 174.417 388.141 159.833" stroke="black" stroke-width="7.9001" stroke-miterlimit="10" stroke-linejoin="round"/>
<path d="M408.586 194.25C408.586 194.25 433.823 191.683 438.146 213.383C442.469 235.083 427.514 242.433 427.514 242.433L443.871 255.15" stroke="black" stroke-width="7.9001" stroke-miterlimit="10" stroke-linejoin="round"/>
<path d="M489.789 221.9C489.789 221.9 470.276 233.333 455.555 221.9" stroke="black" stroke-width="7.9001" stroke-miterlimit="10"/>
<path d="M535.122 317.917C524.957 317.333 468.641 317.917 468.641 317.917" stroke="black" stroke-width="7.9001" stroke-miterlimit="10" stroke-linecap="round" stroke-linejoin="round"/>
<path d="M402.16 184.567C404.731 147.583 435.576 118.417 473.315 118.417C512.69 118.417 544.587 150.267 544.587 189.583C544.587 201.25 541.783 212.217 536.876 221.9" stroke="black" stroke-width="8.7133" stroke-miterlimit="10" stroke-linejoin="round"/>
<path d="M504.512 125.533C504.512 125.533 519.818 86.9167 565.619 93.6834C616.911 101.267 630.231 175.35 599.852 241.733C599.852 241.733 571.344 310.1 605.578 313.833" stroke="black" stroke-width="8.7133" stroke-miterlimit="10" stroke-linejoin="round"/>
<path d="M24.885 106.05L4.67188 59.6166C4.67188 59.6166 21.7304 19.7166 48.3697 27.2999C75.009 34.8832 75.5932 64.2832 75.5932 64.2832" stroke="black" stroke-width="7.9001" stroke-miterlimit="10" stroke-linejoin="round"/>
<path d="M56.4336 30.6833C56.4336 30.6833 86.4612 -16.3334 147.218 15.9833C147.218 15.9833 158.668 44.45 179.582 44.45" stroke="black" stroke-width="7.9001" stroke-miterlimit="10" stroke-linejoin="round"/>
<path d="M224.099 48.4167L198.044 54.7167L175.728 70.7001L164.277 92.9834V114.917L174.91 130.9L180.167 141.517L173.04 159.25L175.961 162.633L190.8 161.583L203.769 155.283L209.611 151.433L224.099 155.283H227.02C227.02 155.283 240.573 146.067 240.573 100.917C240.573 55.7667 224.099 48.4167 224.099 48.4167Z" fill="white"/>
<path d="M229.239 48.3C217.905 48.3 207.273 50.6334 198.042 54.7167C177.596 63.7 163.809 80.85 163.809 100.917C163.809 114.333 170.001 127.05 180.166 136.5C180.166 136.5 182.503 145.367 171.403 161.933C171.403 161.933 196.524 166.833 207.39 151.2C207.39 151.2 222.812 154.467 229.239 154.467" stroke="black" stroke-width="7.9001" stroke-miterlimit="10" stroke-linecap="round" stroke-linejoin="round"/>
<path d="M327.849 152.483L353.904 158.783L376.221 174.767L387.671 197.05V218.983L377.039 234.967L371.781 245.583L378.908 263.317L375.987 266.7L361.148 265.65L348.179 259.35L342.337 255.5L327.849 259.35H324.928C324.928 259.35 311.375 250.133 311.375 204.983C311.375 159.833 327.849 152.483 327.849 152.483Z" fill="white"/>
<path d="M324.113 153.183C335.447 153.183 346.079 155.517 355.309 159.6C375.756 168.583 389.543 185.733 389.543 205.8C389.543 219.217 383.351 231.933 373.186 241.383C373.186 241.383 370.849 250.25 381.949 266.817C381.949 266.817 356.828 271.717 345.962 256.083C345.962 256.083 330.539 259.35 324.113 259.35" stroke="black" stroke-width="7.9001" stroke-miterlimit="10" stroke-linecap="round" stroke-linejoin="round"/>
</g>
<defs>
<clipPath id="clip0_4510_153243">
<rect width="621" height="371" fill="white"/>
</clipPath>
</defs>
</svg>
