<svg width="49" height="48" viewBox="0 0 49 48" fill="none" xmlns="http://www.w3.org/2000/svg">
<path fill-rule="evenodd" clip-rule="evenodd" d="M29.734 39.104C31.832 36.108 34.014 31.702 34.45 26H40.36C39.594 32.104 35.382 37.14 29.734 39.104ZM8.638 26H14.622C15.034 31.724 17.188 36.112 19.314 39.122C13.64 37.168 9.408 32.122 8.638 26ZM19.376 8.858C17.272 11.854 15.07 16.274 14.63 22H8.638C9.41 15.856 13.672 10.794 19.376 8.858ZM18.658 22C19.27 15.456 22.618 10.9 24.552 8.794C26.552 10.936 29.848 15.45 30.418 22H18.658ZM18.66 26H30.424C29.812 32.554 26.456 37.11 24.524 39.216C22.43 36.996 19.218 32.544 18.66 26ZM40.36 22H34.456C34.046 16.302 31.916 11.928 29.8 8.922C35.416 10.902 39.598 15.92 40.36 22ZM44.5 24C44.5 12.992 35.558 4.036 24.556 4.004C24.548 4.004 24.54 4.002 24.53 4.002C24.522 4.002 24.51 4 24.5 4C13.472 4 4.5 12.974 4.5 24C4.5 35.028 13.472 44 24.5 44C24.512 44 24.522 43.998 24.53 43.998C24.534 43.998 24.536 44 24.54 44C24.546 44 24.552 43.996 24.556 43.996C35.558 43.966 44.5 35.008 44.5 24Z" fill="white"/>
</svg>
