<?xml version="1.0" encoding="UTF-8" standalone="no"?>
<svg
   width="512"
   height="512"
   viewBox="0 0 512 512"
   fill="none"
   version="1.1"
   id="svg51"
   xmlns="http://www.w3.org/2000/svg"
   xmlns:svg="http://www.w3.org/2000/svg">
  <rect
     width="512"
     height="512"
     fill="url(#paint0_linear_3016_104530)"
     id="rect2" />
  <g
     clip-path="url(#clip0_3016_104530)"
     id="g16"
     transform="matrix(1.4754582,0,0,1.4939086,-121.7114,-126.25685)">
    <g
       clip-path="url(#clip1_3016_104530)"
       id="g14">
      <path
         d="m 368.14,277.9 h -0.579 c -5.216,-0.579 -8.694,-4.636 -8.694,-9.852 v -2.898 c 0,-4.636 0.58,-9.273 0.58,-13.909 v -6.375 c 0,-2.319 0,-5.216 -0.58,-7.535 0,-5.216 3.478,-9.272 8.694,-9.852 5.216,-0.58 9.272,3.477 9.852,8.693 0,2.898 0,5.216 0.579,8.114 v 2.898 c 0,1.159 0,2.898 0,4.057 0,5.216 10e-4,9.852 -0.579,15.068 v 3.478 c -0.58,4.636 -4.636,8.113 -9.273,8.113 z"
         fill="url(#paint1_linear_3016_104530)"
         id="path4"
         style="fill:url(#paint1_linear_3016_104530)" />
      <path
         d="m 253.388,389.754 c -23.183,0 -43.467,-20.864 -55.638,-57.955 -1.738,-4.637 1.159,-9.853 5.796,-11.591 4.636,-1.739 9.852,1.159 11.591,5.795 9.273,27.819 23.762,45.206 38.251,45.206 23.182,0 48.682,-47.524 48.682,-115.332 0,-67.808 -25.5,-115.331 -48.682,-115.331 -14.489,0 -28.978,17.386 -38.251,45.785 -1.739,4.636 -6.955,7.534 -11.591,5.795 -4.637,-1.739 -7.534,-6.955 -5.796,-11.591 C 209.921,143.444 230.205,122 253.388,122 c 37.671,0 67.228,58.535 67.228,133.877 0,75.342 -29.557,133.877 -67.228,133.877 z"
         fill="url(#paint2_linear_3016_104530)"
         id="path6"
         style="fill:url(#paint2_linear_3016_104530)" />
      <path
         d="m 336.263,315.571 c -0.58,0 -1.159,0 -2.318,0 -5.216,-1.159 -8.114,-5.795 -6.955,-11.011 3.477,-16.228 5.796,-34.194 5.796,-52.16 0,-15.648 -1.16,-31.296 -4.057,-45.785 -1.159,-5.216 2.318,-9.852 7.534,-11.012 5.216,-1.159 9.852,2.319 11.011,7.535 2.898,15.648 4.637,31.875 4.637,49.262 0,19.705 -1.739,38.83 -5.796,56.217 -1.738,4.057 -5.795,6.954 -9.852,6.954 z"
         fill="url(#paint3_linear_3016_104530)"
         id="path8"
         style="fill:url(#paint3_linear_3016_104530)" />
      <path
         d="m 264.978,340.492 c -1.159,0 -2.319,0 -3.478,-0.579 -4.636,-1.739 -6.954,-6.955 -5.216,-12.171 8.114,-20.864 12.171,-45.785 12.171,-72.444 0,-26.66 -4.057,-51.581 -12.171,-72.445 -1.738,-4.636 0.58,-9.852 5.216,-12.17 4.637,-1.739 9.853,0.579 12.171,5.216 8.693,23.182 13.33,50.421 13.33,78.819 0,28.978 -4.637,56.217 -13.33,78.82 -1.739,4.636 -5.216,6.954 -8.693,6.954 z"
         fill="url(#paint4_linear_3016_104530)"
         id="path10"
         style="fill:url(#paint4_linear_3016_104530)" />
      <path
         d="m 166.455,350.345 c -8.114,0 -13.33,-1.159 -13.909,-1.159 -2.898,-0.58 -5.796,-2.898 -6.955,-5.796 -1.159,-2.898 -0.579,-6.375 0.58,-8.693 8.693,-12.751 10.432,-21.444 11.011,-25.501 C 142.693,294.707 134,275.002 134,255.877 c 0,-30.716 20.284,-58.535 52.739,-73.024 14.489,-6.375 30.717,-9.852 46.944,-9.852 5.216,0 9.273,4.057 9.273,9.273 0,5.216 -4.057,9.273 -8.693,9.273 -13.909,0 -27.819,2.897 -39.41,8.113 -26.08,11.591 -41.728,32.455 -41.728,55.638 0,15.648 6.955,31.296 19.705,42.307 1.159,1.159 2.318,2.898 2.898,4.637 0.58,2.318 2.318,12.17 -5.796,29.557 9.273,-0.58 20.864,-2.898 27.239,-12.171 2.319,-2.898 5.796,-4.636 9.273,-3.477 5.796,1.159 22.023,4.636 28.399,4.636 5.216,0 9.272,4.057 9.272,9.273 0,5.216 -4.056,9.273 -9.272,9.273 -6.955,0 -19.126,-2.318 -26.66,-3.477 -12.75,12.17 -30.137,14.489 -41.728,14.489 z"
         fill="#ffffff"
         id="path12" />
    </g>
  </g>
  <defs
     id="defs49">
    <linearGradient
       id="paint0_linear_3016_104530"
       x1="256"
       y1="0"
       x2="256"
       y2="611.5"
       gradientUnits="userSpaceOnUse">
      <stop
         offset="0.229167"
         stop-color="#0036A3"
         id="stop18" />
      <stop
         offset="1"
         stop-color="#C60077"
         id="stop20" />
    </linearGradient>
    <linearGradient
       id="paint1_linear_3016_104530"
       x1="368.43"
       y1="227.424"
       x2="368.43"
       y2="277.9"
       gradientUnits="userSpaceOnUse">
      <stop
         stop-color="#29B2FF"
         id="stop23" />
      <stop
         offset="1"
         stop-color="#FF0099"
         id="stop25" />
    </linearGradient>
    <linearGradient
       id="paint2_linear_3016_104530"
       x1="258.928"
       y1="122"
       x2="258.928"
       y2="389.754"
       gradientUnits="userSpaceOnUse">
      <stop
         stop-color="#29B2FF"
         id="stop28" />
      <stop
         offset="1"
         stop-color="#FF0099"
         id="stop30" />
    </linearGradient>
    <linearGradient
       id="paint3_linear_3016_104530"
       x1="339.324"
       y1="195.38"
       x2="339.324"
       y2="315.571"
       gradientUnits="userSpaceOnUse">
      <stop
         stop-color="#29B2FF"
         id="stop33" />
      <stop
         offset="1"
         stop-color="#FF0099"
         id="stop35" />
    </linearGradient>
    <linearGradient
       id="paint4_linear_3016_104530"
       x1="271.354"
       y1="170.105"
       x2="271.354"
       y2="340.492"
       gradientUnits="userSpaceOnUse">
      <stop
         stop-color="#29B2FF"
         id="stop38" />
      <stop
         offset="1"
         stop-color="#FF0099"
         id="stop40" />
    </linearGradient>
    <clipPath
       id="clip0_3016_104530">
      <rect
         width="244"
         height="267.762"
         fill="white"
         transform="translate(134 122)"
         id="rect43" />
    </clipPath>
    <clipPath
       id="clip1_3016_104530">
      <rect
         width="243.993"
         height="267.754"
         fill="white"
         transform="translate(134 122)"
         id="rect46" />
    </clipPath>
  </defs>
</svg>
