<svg width="38" height="40" viewBox="0 0 38 40" fill="none" xmlns="http://www.w3.org/2000/svg">
<g clip-path="url(#clip0_4758_152499)">
<path d="M35.7544 23.2902H35.6678C34.8886 23.2036 34.3691 22.5976 34.3691 21.8184V21.3855C34.3691 20.6928 34.4557 20.0002 34.4557 19.3075V18.3552C34.4557 18.0088 34.4557 17.5759 34.3691 17.2296C34.3691 16.4504 34.8886 15.8443 35.6678 15.7578C36.4471 15.6712 37.0531 16.2772 37.1397 17.0565C37.1397 17.4894 37.1397 17.8357 37.2263 18.2686V18.7015C37.2263 18.8746 37.2263 19.1344 37.2263 19.3075C37.2263 20.0868 37.2263 20.7794 37.1397 21.5586V22.0781C37.0531 22.7707 36.4471 23.2902 35.7544 23.2902Z" fill="white"/>
<path d="M18.6105 40C15.1473 40 12.117 36.8831 10.2988 31.342C10.0391 30.6494 10.472 29.8701 11.1646 29.6104C11.8573 29.3506 12.6365 29.7836 12.8962 30.4762C14.2815 34.632 16.446 37.2294 18.6105 37.2294C22.0737 37.2294 25.8833 30.1299 25.8833 20C25.8833 9.87013 22.0737 2.77056 18.6105 2.77056C16.446 2.77056 14.2815 5.36797 12.8962 9.61039C12.6365 10.303 11.8573 10.7359 11.1646 10.4762C10.472 10.2165 10.0391 9.43723 10.2988 8.74459C12.117 3.20346 15.1473 0 18.6105 0C24.2382 0 28.6538 8.74459 28.6538 20C28.6538 31.2554 24.2382 40 18.6105 40Z" fill="white"/>
<path d="M30.9915 28.9178C30.905 28.9178 30.8184 28.9178 30.6452 28.9178C29.866 28.7447 29.4331 28.052 29.6063 27.2728C30.1257 24.8486 30.4721 22.1646 30.4721 19.4806C30.4721 17.143 30.2989 14.8053 29.866 12.6408C29.6928 11.8616 30.2123 11.1689 30.9915 10.9958C31.7708 10.8226 32.4634 11.3421 32.6366 12.1213C33.0695 14.459 33.3292 16.8832 33.3292 19.4806C33.3292 22.4243 33.0695 25.2815 32.4634 27.8789C32.2037 28.4849 31.5976 28.9178 30.9915 28.9178Z" fill="white"/>
<path d="M20.342 32.6407C20.1688 32.6407 19.9956 32.6407 19.8225 32.5541C19.1298 32.2944 18.7835 31.5152 19.0433 30.736C20.2554 27.6191 20.8615 23.8961 20.8615 19.9135C20.8615 15.9308 20.2554 12.2078 19.0433 9.09094C18.7835 8.3983 19.1298 7.61908 19.8225 7.27276C20.5151 7.01302 21.2944 7.35934 21.6407 8.05198C22.9394 11.5152 23.632 15.5844 23.632 19.8269C23.632 24.1559 22.9394 28.2251 21.6407 31.6018C21.3809 32.2944 20.8615 32.6407 20.342 32.6407Z" fill="white"/>
<path d="M5.62388 34.1126C4.41175 34.1126 3.63253 33.9395 3.54595 33.9395C3.11305 33.8529 2.68015 33.5066 2.50699 33.0737C2.33383 32.6408 2.42041 32.1213 2.59357 31.775C3.89227 29.8702 4.15201 28.5715 4.23859 27.9655C2.07409 25.801 0.775391 22.8572 0.775391 20.0001C0.775391 15.4113 3.80569 11.2555 8.65418 9.091C10.8187 8.13862 13.2429 7.61914 15.6672 7.61914C16.4464 7.61914 17.0524 8.2252 17.0524 9.00442C17.0524 9.78364 16.4464 10.3897 15.7537 10.3897C13.6758 10.3897 11.5979 10.8226 9.8663 11.6018C5.9702 13.3334 3.63253 16.4503 3.63253 19.9135C3.63253 22.2512 4.67149 24.5888 6.57626 26.2339C6.74942 26.407 6.92258 26.6668 7.00916 26.9265C7.09574 27.2728 7.35548 28.7447 6.14336 31.3421C7.52864 31.2555 9.26024 30.9092 10.2126 29.5239C10.5589 29.091 11.0784 28.8313 11.5979 29.0044C12.4637 29.1776 14.8879 29.6971 15.8403 29.6971C16.6195 29.6971 17.2256 30.3031 17.2256 31.0823C17.2256 31.8616 16.6195 32.4676 15.8403 32.4676C14.8014 32.4676 12.9832 32.1213 11.8576 31.9481C9.95288 33.7663 7.35548 34.1126 5.62388 34.1126Z" fill="white"/>
</g>
<defs>
<clipPath id="clip0_4758_152499">
<rect width="36.4502" height="40" fill="white" transform="translate(0.775391)"/>
</clipPath>
</defs>
</svg>
