<?xml version="1.0" standalone="no"?>
<!DOCTYPE svg PUBLIC "-//W3C//DTD SVG 20010904//EN"
 "http://www.w3.org/TR/2001/REC-SVG-20010904/DTD/svg10.dtd">
<svg version="1.0" xmlns="http://www.w3.org/2000/svg"
 width="700.000000pt" height="700.000000pt" viewBox="0 0 700.000000 700.000000"
 preserveAspectRatio="xMidYMid meet">
<metadata>
Created by potrace 1.14, written by Peter Selinger 2001-2017
</metadata>
<g transform="translate(0.000000,700.000000) scale(0.100000,-0.100000)"
fill="#ffffff" stroke="none">
<path d="M3365 6230 c-397 -39 -763 -424 -991 -1044 l-38 -103 -86 -28 c-110
-38 -341 -154 -452 -228 -401 -269 -672 -666 -742 -1086 -31 -182 -18 -437 31
-616 26 -94 99 -272 150 -363 52 -92 164 -245 225 -309 l41 -42 -13 -63 c-21
-111 -94 -276 -184 -417 -36 -58 -41 -74 -44 -136 -3 -63 -1 -74 26 -116 53
-83 152 -109 410 -109 231 0 424 41 598 126 50 24 93 44 96 44 3 0 18 -30 33
-67 108 -259 253 -481 416 -639 167 -161 323 -241 519 -265 593 -72 1124 590
1345 1675 142 697 134 1517 -20 2206 -181 806 -548 1381 -984 1540 -104 38
-218 52 -336 40z m197 -400 c291 -90 578 -553 732 -1180 173 -704 173 -1595 1
-2295 -179 -725 -517 -1205 -850 -1205 -169 0 -353 132 -507 365 -68 104 -166
291 -156 300 3 4 42 1 85 -5 129 -20 251 -18 297 4 117 58 131 242 25 325 -32
25 -84 37 -216 50 -57 6 -198 29 -313 52 -252 50 -265 48 -339 -34 -144 -159
-262 -220 -479 -245 -51 -6 -71 -5 -68 2 32 72 73 189 93 266 30 118 35 283
10 343 -9 20 -58 81 -110 135 -52 54 -113 127 -137 161 -63 94 -135 253 -166
366 -24 89 -27 119 -28 265 -1 106 4 185 12 220 74 305 236 542 511 746 103
77 339 198 473 242 180 59 431 102 602 102 114 0 190 63 203 167 7 59 -8 111
-44 154 -52 62 -111 74 -288 60 -66 -5 -122 -8 -124 -6 -7 8 112 233 166 313
190 282 404 397 615 332z"/>
<path d="M3665 5254 c-6 -1 -22 -5 -37 -8 -63 -14 -137 -112 -138 -181 0 -17
20 -91 45 -165 119 -354 181 -692 206 -1130 32 -566 -40 -1146 -201 -1631 -39
-115 -50 -164 -47 -194 15 -146 160 -222 279 -146 55 35 86 94 143 271 287
895 285 2014 -7 2920 -49 152 -70 192 -120 226 -34 24 -99 44 -123 38z"/>
<path d="M5073 4716 c-57 -27 -100 -81 -109 -137 -3 -19 4 -91 15 -159 52
-312 75 -696 60 -1034 -12 -286 -34 -475 -90 -772 -26 -136 -29 -167 -20 -202
23 -84 90 -132 183 -132 113 0 194 74 222 202 80 367 119 889 98 1317 -20 391
-72 770 -117 847 -51 86 -148 115 -242 70z"/>
<path d="M5685 4063 c-46 -24 -83 -63 -95 -99 -7 -20 -12 -174 -13 -405 -2
-358 -1 -375 18 -408 36 -61 88 -94 154 -99 85 -6 145 27 183 103 19 36 21 63
25 315 6 349 -4 474 -41 530 -38 58 -79 80 -146 80 -30 -1 -68 -8 -85 -17z"/>
</g>
</svg>
