<svg width="37" height="14" viewBox="0 0 37 14" fill="none" xmlns="http://www.w3.org/2000/svg">
<path d="M3.8679 11.1591C3.23153 11.1525 2.67306 10.9801 2.19247 10.642C1.71188 10.304 1.33736 9.83665 1.06889 9.24006C0.800426 8.64347 0.666193 7.95739 0.666193 7.18182C0.666193 6.41288 0.807055 5.73509 1.08878 5.14844C1.3705 4.55848 1.75663 4.09777 2.24716 3.76633C2.741 3.43158 3.30279 3.2642 3.93253 3.2642C4.37997 3.2642 4.77273 3.34872 5.1108 3.51776C5.44886 3.68347 5.73722 3.91548 5.97585 4.21378C6.2178 4.51207 6.41667 4.85843 6.57244 5.25284H7.08949L7.38281 7.16193L8.35724 11H7.08452L6.16974 7.16193C6.12003 6.91667 6.04545 6.64323 5.94602 6.34162C5.84659 6.04001 5.71567 5.75166 5.55327 5.47656C5.39086 5.20147 5.18537 4.97443 4.93679 4.79545C4.69152 4.61648 4.39489 4.52699 4.04688 4.52699C3.66572 4.52699 3.33097 4.64134 3.04261 4.87003C2.75426 5.09541 2.53054 5.40862 2.37145 5.80966C2.21236 6.2107 2.13281 6.6714 2.13281 7.19176C2.13281 7.70218 2.20904 8.16122 2.36151 8.56889C2.51728 8.97656 2.73272 9.29806 3.00781 9.53338C3.28291 9.76539 3.6044 9.88139 3.9723 9.88139C4.30706 9.88139 4.60038 9.79025 4.85227 9.60795C5.10417 9.42566 5.31795 9.19366 5.49361 8.91193C5.66927 8.63021 5.81179 8.33688 5.92116 8.03196C6.03385 7.72372 6.11671 7.44697 6.16974 7.2017L6.99006 3.36364H8.25781L7.38281 7.2017L7.08949 9.13565H6.61719C6.4581 9.53007 6.2526 9.88139 6.00071 10.1896C5.75213 10.4946 5.45052 10.7332 5.09588 10.9055C4.74456 11.0779 4.33523 11.1624 3.8679 11.1591ZM11.5092 0.818182V11H10.0227V0.818182H11.5092ZM13.5091 13.8636V3.36364H14.9608V4.60156H15.085C15.1712 4.44247 15.2955 4.25852 15.4579 4.04972C15.6203 3.84091 15.8457 3.65862 16.1341 3.50284C16.4224 3.34375 16.8036 3.2642 17.2775 3.2642C17.894 3.2642 18.4442 3.41998 18.9281 3.73153C19.412 4.04309 19.7915 4.49219 20.0666 5.07884C20.345 5.66548 20.4842 6.37145 20.4842 7.19673C20.4842 8.02202 20.3467 8.72964 20.0716 9.3196C19.7965 9.90625 19.4186 10.3587 18.938 10.6768C18.4574 10.9917 17.9089 11.1491 17.2924 11.1491C16.8284 11.1491 16.4489 11.0713 16.1539 10.9155C15.8623 10.7597 15.6336 10.5774 15.4679 10.3686C15.3021 10.1598 15.1745 9.9742 15.085 9.81179H14.9956V13.8636H13.5091ZM14.9657 7.18182C14.9657 7.71875 15.0436 8.18939 15.1994 8.59375C15.3552 8.99811 15.5806 9.31463 15.8755 9.54332C16.1705 9.7687 16.5318 9.88139 16.9593 9.88139C17.4035 9.88139 17.7747 9.76373 18.073 9.52841C18.3713 9.28977 18.5967 8.96662 18.7491 8.55895C18.9049 8.15128 18.9828 7.69223 18.9828 7.18182C18.9828 6.67803 18.9065 6.22562 18.7541 5.82457C18.6049 5.42353 18.3796 5.10701 18.0779 4.875C17.7797 4.64299 17.4068 4.52699 16.9593 4.52699C16.5285 4.52699 16.1639 4.63802 15.8656 4.86009C15.5706 5.08215 15.3469 5.39205 15.1944 5.78977C15.042 6.1875 14.9657 6.65151 14.9657 7.18182ZM23.6362 6.46591V11H22.1497V0.818182H23.6163V4.60653H23.7108C23.8897 4.19555 24.1632 3.86908 24.5311 3.62713C24.899 3.38518 25.3796 3.2642 25.9728 3.2642C26.4965 3.2642 26.9539 3.37192 27.345 3.58736C27.7394 3.80279 28.0443 4.12429 28.2598 4.55185C28.4785 4.97609 28.5879 5.50639 28.5879 6.14276V11H27.1014V6.32173C27.1014 5.7616 26.9572 5.32741 26.6689 5.01918C26.3805 4.70762 25.9795 4.55185 25.4657 4.55185C25.1144 4.55185 24.7995 4.62642 24.5211 4.77557C24.246 4.92472 24.0289 5.14347 23.8699 5.43182C23.7141 5.71686 23.6362 6.06155 23.6362 6.46591ZM32.7939 11.169C32.31 11.169 31.8725 11.0795 31.4814 10.9006C31.0903 10.7183 30.7804 10.4548 30.5517 10.1101C30.3263 9.76539 30.2136 9.3428 30.2136 8.84233C30.2136 8.41146 30.2965 8.05682 30.4622 7.77841C30.6279 7.5 30.8516 7.27959 31.1333 7.11719C31.4151 6.95478 31.7299 6.83215 32.0779 6.74929C32.426 6.66643 32.7806 6.60346 33.1419 6.56037C33.5993 6.50734 33.9705 6.46425 34.2555 6.43111C34.5405 6.39465 34.7477 6.33665 34.877 6.2571C35.0062 6.17756 35.0708 6.0483 35.0708 5.86932V5.83452C35.0708 5.40033 34.9482 5.06392 34.7029 4.82528C34.461 4.58665 34.0997 4.46733 33.6191 4.46733C33.1187 4.46733 32.7243 4.57836 32.4359 4.80043C32.1509 5.01918 31.9537 5.26278 31.8443 5.53125L30.4473 5.21307C30.613 4.74905 30.8549 4.37453 31.1731 4.08949C31.4946 3.80114 31.8642 3.59233 32.2818 3.46307C32.6994 3.33049 33.1386 3.2642 33.5993 3.2642C33.9042 3.2642 34.2273 3.30066 34.5687 3.37358C34.9134 3.44318 35.2349 3.57244 35.5332 3.76136C35.8348 3.95028 36.0817 4.22041 36.274 4.57173C36.4662 4.91974 36.5623 5.37216 36.5623 5.92898V11H35.1106V9.95597H35.051C34.9548 10.1482 34.8107 10.3371 34.6184 10.5227C34.4262 10.7083 34.1793 10.8625 33.8777 10.9851C33.5761 11.1077 33.2148 11.169 32.7939 11.169ZM33.117 9.97585C33.528 9.97585 33.8793 9.89465 34.171 9.73224C34.466 9.56984 34.6897 9.35772 34.8422 9.09588C34.9979 8.83073 35.0758 8.54735 35.0758 8.24574V7.26136C35.0228 7.31439 34.92 7.36411 34.7676 7.41051C34.6184 7.4536 34.4477 7.49171 34.2555 7.52486C34.0633 7.55469 33.876 7.58286 33.6937 7.60938C33.5114 7.63258 33.359 7.65246 33.2363 7.66903C32.948 7.70549 32.6845 7.76681 32.4458 7.85298C32.2105 7.93916 32.0216 8.06345 31.8791 8.22585C31.7399 8.38494 31.6703 8.59706 31.6703 8.86222C31.6703 9.23011 31.8062 9.50852 32.0779 9.69744C32.3497 9.88305 32.6961 9.97585 33.117 9.97585Z" fill="white"/>
</svg>
