<svg width="37" height="40" viewBox="0 0 37 40" fill="none" xmlns="http://www.w3.org/2000/svg">
    <g clip-path="url(#clip0_6711_346646)">
        <path d="M34.9785 23.2907H34.892C34.1127 23.2041 33.5933 22.5981 33.5933 21.8189V21.386C33.5933 20.6933 33.6798 20.0007 33.6798 19.308V18.3557C33.6798 18.0093 33.6798 17.5764 33.5933 17.2301C33.5933 16.4509 34.1127 15.8448 34.892 15.7582C35.6712 15.6717 36.2772 16.2777 36.3638 17.0569C36.3638 17.4898 36.3638 17.8362 36.4504 18.2691V18.702C36.4504 18.8751 36.4504 19.1349 36.4504 19.308C36.4504 20.0873 36.4504 20.7799 36.3638 21.5591V22.0786C36.2772 22.7712 35.6712 23.2907 34.9785 23.2907Z" fill="url(#paint0_linear_6711_346646)"/>
        <path d="M17.8356 40C14.3724 40 11.3421 36.8831 9.52394 31.342C9.2642 30.6494 9.6971 29.8701 10.3897 29.6104C11.0824 29.3506 11.8616 29.7836 12.1213 30.4762C13.5066 34.632 15.6711 37.2294 17.8356 37.2294C21.2988 37.2294 25.1084 30.1299 25.1084 20C25.1084 9.87013 21.2988 2.77056 17.8356 2.77056C15.6711 2.77056 13.5066 5.36797 12.1213 9.61039C11.8616 10.303 11.0824 10.7359 10.3897 10.4762C9.6971 10.2165 9.2642 9.43723 9.52394 8.74459C11.3421 3.20346 14.3724 0 17.8356 0C23.4633 0 27.8789 8.74459 27.8789 20C27.8789 31.2554 23.4633 40 17.8356 40Z" fill="url(#paint1_linear_6711_346646)"/>
        <path d="M30.2166 28.9164C30.1301 28.9164 30.0435 28.9164 29.8703 28.9164C29.0911 28.7432 28.6582 28.0506 28.8314 27.2714C29.3508 24.8471 29.6972 22.1631 29.6972 19.4792C29.6972 17.1415 29.524 14.8038 29.0911 12.6393C28.9179 11.8601 29.4374 11.1675 30.2166 10.9943C30.9959 10.8211 31.6885 11.3406 31.8617 12.1198C32.2946 14.4575 32.5543 16.8818 32.5543 19.4792C32.5543 22.4229 32.2946 25.28 31.6885 27.8774C31.4288 28.4835 30.8227 28.9164 30.2166 28.9164Z" fill="url(#paint2_linear_6711_346646)"/>
        <path d="M19.5671 32.6417C19.3939 32.6417 19.2207 32.6417 19.0476 32.5551C18.3549 32.2954 18.0086 31.5162 18.2684 30.7369C19.4805 27.6201 20.0865 23.8971 20.0865 19.9144C20.0865 15.9317 19.4805 12.2088 18.2684 9.09192C18.0086 8.39928 18.3549 7.62006 19.0476 7.27374C19.7402 7.014 20.5194 7.36032 20.8658 8.05296C22.1645 11.5162 22.8571 15.5854 22.8571 19.8278C22.8571 24.1569 22.1645 28.2261 20.8658 31.6027C20.606 32.2954 20.0865 32.6417 19.5671 32.6417Z" fill="url(#paint3_linear_6711_346646)"/>
        <path d="M4.84848 34.1107C3.63636 34.1107 2.85714 33.9375 2.77056 33.9375C2.33766 33.851 1.90476 33.5046 1.7316 33.0717C1.55844 32.6388 1.64502 32.1194 1.81818 31.773C3.11688 29.8683 3.37662 28.5696 3.4632 27.9635C1.2987 25.799 0 22.8553 0 19.9981C0 15.4094 3.0303 11.2536 7.87879 9.08905C10.0433 8.13667 12.4675 7.61719 14.8918 7.61719C15.671 7.61719 16.2771 8.22325 16.2771 9.00247C16.2771 9.78169 15.671 10.3878 14.9784 10.3878C12.9004 10.3878 10.8225 10.8207 9.09091 11.5999C5.19481 13.3315 2.85714 16.4484 2.85714 19.9116C2.85714 22.2492 3.8961 24.5869 5.80087 26.2319C5.97403 26.4051 6.14719 26.6648 6.23377 26.9245C6.32035 27.2709 6.58009 28.7427 5.36797 31.3401C6.75325 31.2536 8.48485 30.9072 9.43723 29.5219C9.78355 29.089 10.303 28.8293 10.8225 29.0025C11.6883 29.1756 14.1126 29.6951 15.0649 29.6951C15.8442 29.6951 16.4502 30.3012 16.4502 31.0804C16.4502 31.8596 15.8442 32.4657 15.0649 32.4657C14.026 32.4657 12.2078 32.1194 11.0823 31.9462C9.17749 33.7644 6.58009 34.1107 4.84848 34.1107Z" fill="white"/>
    </g>
    <defs>
        <linearGradient id="paint0_linear_6711_346646" x1="35.0218" y1="15.75" x2="35.0218" y2="23.2907" gradientUnits="userSpaceOnUse">
            <stop stop-color="#2970FF"/>
            <stop offset="0.510417" stop-color="#C60077"/>
        </linearGradient>
        <linearGradient id="paint1_linear_6711_346646" x1="18.6633" y1="0" x2="18.6633" y2="40" gradientUnits="userSpaceOnUse">
            <stop stop-color="#2970FF"/>
            <stop offset="0.510417" stop-color="#C60077"/>
        </linearGradient>
        <linearGradient id="paint2_linear_6711_346646" x1="30.6739" y1="10.9609" x2="30.6739" y2="28.9164" gradientUnits="userSpaceOnUse">
            <stop stop-color="#2970FF"/>
            <stop offset="0.510417" stop-color="#C60077"/>
        </linearGradient>
        <linearGradient id="paint3_linear_6711_346646" x1="20.5196" y1="7.1875" x2="20.5196" y2="32.6417" gradientUnits="userSpaceOnUse">
            <stop stop-color="#2970FF"/>
            <stop offset="0.510417" stop-color="#C60077"/>
        </linearGradient>
        <clipPath id="clip0_6711_346646">
            <rect width="36.4502" height="40" fill="white"/>
        </clipPath>
    </defs>
</svg>
