<svg width="173" height="23" viewBox="0 0 173 23" fill="none" xmlns="http://www.w3.org/2000/svg">
<path d="M98.3248 0.498077C97.6836 5.72631 97.7823 16.4294 98.1769 21.8056H93.5898C93.9844 16.6267 93.9844 6.26886 93.5898 1.38589C95.1682 1.33657 96.7465 1.08995 98.3248 0.498077Z" fill="white"/>
<path d="M100.836 14.5058C100.836 9.77079 104.19 6.95938 110.454 6.95938C113.216 6.95938 115.83 7.50193 118.099 8.63636C117.754 9.62282 117.754 11.793 118.099 12.7795C116.422 11.1518 113.956 9.96808 111.144 9.96808C107.199 9.96808 105.028 11.5464 105.028 14.5058C105.028 17.4652 107.199 19.0435 111.144 19.0435C113.956 19.0435 116.373 18.1557 118.099 16.676C117.754 17.7118 117.754 19.4381 118.099 20.4245C115.83 21.559 113.216 22.1508 110.454 22.1508C104.19 22.1015 100.836 19.2408 100.836 14.5058ZM120.417 21.8056C121.009 17.5638 121.009 6.95938 120.417 1.43521C122.193 1.33657 124.264 0.991307 125.399 0.498077C124.906 2.56964 124.659 10.6093 124.56 12.6315H124.906C125.991 9.3762 128.605 6.95938 132.008 6.95938C136.151 6.95938 137.582 9.77079 137.582 13.1247C137.582 15.8375 137.434 19.3394 137.976 21.8549H133.389V15.4922C133.389 12.6315 132.304 10.264 129.493 10.264C126.435 10.264 125.103 12.9768 125.103 15.9855V21.7563H120.417V21.8056ZM153.365 21.8056C152.97 20.6712 152.822 19.586 152.773 18.5009C151.293 20.7205 149.37 22.2002 145.67 22.2002C141.774 22.2002 139.9 20.4739 139.9 18.205C139.9 15.5909 142.563 13.9139 148.038 13.9139H152.674C152.526 11.4971 151.737 9.91876 147.89 9.91876C144.783 9.91876 141.922 11.0532 140.344 12.5329C140.541 11.4971 140.541 9.62282 140.344 8.73501C142.366 7.79787 144.98 6.95938 148.482 6.95938C153.71 6.95938 156.768 8.68568 156.768 13.5193C156.817 16.9226 156.965 19.4381 157.656 21.7563H153.365V21.8056ZM152.724 17.8597C152.674 17.0213 152.724 16.2321 152.724 15.4922V15.0483H150.455C146.509 15.0483 144.437 15.6895 144.437 17.3172C144.437 18.5996 145.572 19.3394 147.791 19.3394C149.715 19.3394 151.392 18.7476 152.724 17.8597ZM165.153 14.9004C165.104 18.057 166.633 18.9449 168.556 18.9449C169.888 18.9942 171.368 18.5503 172.601 18.205C172.403 19.1915 172.354 20.2272 172.551 21.2137C171.121 21.6576 169.247 22.0522 167.373 22.0522C164.265 22.0029 161.355 20.8684 161.355 16.7746C161.355 15.7882 161.355 12.9768 161.257 9.96808C159.875 10.0174 158.593 10.116 157.36 10.2147C157.459 9.42553 157.459 8.09381 157.36 7.35396C158.544 7.45261 159.826 7.55125 161.158 7.60058C161.059 5.97292 161.01 4.44391 160.862 3.26016C162.638 3.06287 164.117 2.81625 165.449 2.17506C165.4 3.95068 165.35 5.82495 165.301 7.6499C167.816 7.6499 170.332 7.55125 172.551 7.35396C172.453 8.43907 172.453 9.12959 172.551 10.2147C170.332 10.0174 167.767 9.91876 165.252 9.91876C165.252 11.7437 165.202 13.47 165.153 14.9004Z" fill="white"/>
<path d="M13.9808 21.8056C13.5862 20.6711 13.4382 19.586 13.3889 18.5009C11.8599 20.7204 9.9363 22.2001 6.28641 22.2001C2.3899 22.2001 0.515625 20.4738 0.515625 18.205C0.515625 15.5909 3.17906 13.9139 8.65391 13.9139H13.2903C13.1423 11.4971 12.3531 9.91873 8.50594 9.91873C5.39859 9.91873 2.53786 11.0532 0.959531 12.5328C1.15682 11.4971 1.15682 9.62279 0.959531 8.73498C2.98177 7.79784 5.59589 6.95935 9.09781 6.95935C14.326 6.95935 17.3841 8.68565 17.3841 13.5193C17.4334 16.9226 17.5814 19.438 18.2719 21.7562H13.9808V21.8056ZM13.3396 17.8597C13.2903 17.0212 13.3396 16.2321 13.3396 15.4922V15.0483H11.0707C7.1249 15.0483 5.05333 15.6895 5.05333 17.3172C5.05333 18.5996 6.18776 19.3394 8.40729 19.3394C10.2816 19.3394 11.9585 18.7475 13.3396 17.8597Z" fill="white"/>
<path d="M86.4886 21.8056C86.094 20.6711 85.946 19.586 85.8967 18.5009C84.417 20.7204 82.4934 22.2001 78.7942 22.2001C74.8977 22.2001 73.0234 20.4738 73.0234 18.205C73.0234 15.5909 75.6869 13.9139 81.1617 13.9139H85.7981C85.6501 11.4971 84.8609 9.91873 81.0137 9.91873C77.9064 9.91873 75.0457 11.0532 73.4673 12.5328C73.6646 11.4971 73.6646 9.62279 73.4673 8.73498C75.4896 7.79784 78.1037 6.95935 81.6056 6.95935C86.8339 6.95935 89.8919 8.68565 89.8919 13.5193C89.9412 16.9226 90.0892 19.438 90.7797 21.7562H86.4886V21.8056ZM85.8474 17.8597C85.7981 17.0212 85.8474 16.2321 85.8474 15.4922V15.0483H83.5785C79.6327 15.0483 77.5611 15.6895 77.5611 17.3172C77.5611 18.5996 78.6956 19.3394 80.9151 19.3394C82.7894 19.3394 84.4664 18.7475 85.8474 17.8597Z" fill="white"/>
<path d="M19.6055 14.5058C19.6055 9.77076 22.9594 6.95935 29.2234 6.95935C31.9855 6.95935 34.5996 7.5019 36.8685 8.63633C36.5232 9.62279 36.5232 11.793 36.8685 12.7795C35.1915 11.1518 32.7254 9.96805 29.914 9.96805C25.9681 9.96805 23.7979 11.5464 23.7979 14.5058C23.7979 17.4651 25.9681 19.0435 29.914 19.0435C32.7254 19.0435 35.1422 18.1557 36.8685 16.676C36.5232 17.7117 36.5232 19.4381 36.8685 20.4245C34.5996 21.5589 31.9855 22.1508 29.2234 22.1508C22.9101 22.1015 19.6055 19.2408 19.6055 14.5058Z" fill="white"/>
<path d="M45.1055 14.9005C45.0562 18.0571 46.5852 18.9449 48.5088 18.9449C49.8405 18.9943 51.3202 18.5504 52.5533 18.2051C52.356 19.1916 52.3067 20.2273 52.504 21.2138C51.0736 21.6577 49.1993 22.0523 47.3251 22.0523C44.2177 22.003 41.3077 20.8685 41.3077 16.7747C41.3077 15.7883 41.3077 12.9769 41.209 9.96816C39.828 10.0175 38.5456 10.1161 37.3125 10.2148C37.4111 9.42561 37.4111 8.09389 37.3125 7.35405C38.4963 7.45269 39.7786 7.55134 41.1104 7.60066C41.0117 5.97301 40.9624 4.44399 40.8144 3.26024C42.5901 3.06295 44.0697 2.81634 45.4015 2.17514C45.3521 3.95077 45.3028 5.82504 45.2535 7.64999C47.769 7.64999 50.2844 7.55134 52.504 7.35405C52.4053 8.43915 52.4053 9.12967 52.504 10.2148C50.2844 10.0175 47.7196 9.91884 45.2042 9.91884C45.2042 11.7438 45.1548 13.4701 45.1055 14.9005Z" fill="white"/>
<path d="M70.8001 21.8056H65.8678C66.3117 19.9807 66.6077 18.1557 66.657 16.824H66.3117C65.2759 20.1286 62.8098 22.1016 59.3572 22.1016C55.362 22.1016 54.129 19.2902 54.129 15.9362C54.129 13.1741 54.2276 10.0668 53.7344 7.69927C55.2141 7.74859 56.5951 7.5513 58.0748 7.10739V13.9633C58.0748 16.824 59.1599 18.6983 61.6754 18.6983C64.98 18.6983 66.1638 16.4787 66.1638 13.4207V7.69927C67.6928 7.74859 69.2711 7.5513 70.8001 7.10739C70.1589 11.2998 70.1589 16.2815 70.8001 21.8056Z" fill="white"/>
</svg>
