<svg width="28" height="32" viewBox="0 0 28 32" fill="none" xmlns="http://www.w3.org/2000/svg">
<path d="M21.5021 9.87988H6.4973C5.93589 9.87988 5.47656 10.3467 5.47656 10.9172V24.5314C5.47656 25.1019 5.93589 25.5687 6.4973 25.5687H8.66635V30.1846C8.66635 31.1959 9.48294 32.0258 10.4782 32.0258C11.4734 32.0258 12.29 31.1959 12.29 30.1846V25.5428H15.6584V30.1587C15.6584 31.17 16.475 31.9998 17.4702 31.9998C18.4654 31.9998 19.282 31.17 19.282 30.1587V25.5428H21.451C22.0124 25.5428 22.4718 25.076 22.4718 24.5055V10.9172C22.5228 10.3207 22.0635 9.87988 21.5021 9.87988Z" fill="white"/>
<path d="M25.2532 9.28369C24.258 9.28369 23.4414 10.1135 23.4414 11.1249V19.4231C23.4414 20.4344 24.258 21.2642 25.2532 21.2642C26.2484 21.2642 27.065 20.4344 27.065 19.4231V11.1249C27.0905 10.1135 26.2739 9.28369 25.2532 9.28369Z" fill="white"/>
<path d="M2.72196 9.28369C1.72674 9.28369 0.910156 10.1135 0.910156 11.1249V19.4231C0.910156 20.4344 1.72674 21.2642 2.72196 21.2642C3.71717 21.2642 4.53376 20.4344 4.53376 19.4231V11.1249C4.53376 10.1135 3.74269 9.28369 2.72196 9.28369Z" fill="white"/>
<path d="M18.1079 2.33382L19.5624 0.233337C19.588 0.181473 19.5369 0.103678 19.4604 0.0518138C19.3838 -5.00996e-05 19.3073 -0.025982 19.2817 0.0258818L17.7506 2.17823C16.7299 1.76332 15.4795 1.52993 13.9739 1.504C12.4683 1.504 11.2179 1.73739 10.1972 2.1523L8.71714 -5.00996e-05C8.69162 -0.051914 8.58955 -0.025982 8.51299 0.0258818C8.43643 0.0777457 8.3854 0.181473 8.41092 0.207405L9.86546 2.28196C5.65493 4.17499 5.52734 8.81681 5.52734 8.81681H22.4715C22.4715 8.84274 22.2929 4.25279 18.1079 2.33382ZM10.2738 6.11989C9.71235 6.11989 9.25302 5.65311 9.25302 5.08261C9.25302 4.51211 9.71235 4.04533 10.2738 4.04533C10.8352 4.04533 11.2945 4.51211 11.2945 5.08261C11.2945 5.65311 10.8352 6.11989 10.2738 6.11989ZM17.6996 6.11989C17.1382 6.11989 16.6789 5.65311 16.6789 5.08261C16.6789 4.51211 17.1382 4.04533 17.6996 4.04533C18.261 4.04533 18.7203 4.51211 18.7203 5.08261C18.7203 5.65311 18.2865 6.11989 17.6996 6.11989Z" fill="white"/>
</svg>
