<svg width="20" height="24" viewBox="0 0 20 24" fill="none" xmlns="http://www.w3.org/2000/svg">
    <g clip-path="url(#clip0_5683_196465)">
        <path d="M15.73 7.41003H4.26801C3.83916 7.41003 3.48828 7.76012 3.48828 8.18799V18.3987C3.48828 18.8266 3.83916 19.1766 4.26801 19.1766H5.92493V22.6386C5.92493 23.3971 6.54871 24.0194 7.30894 24.0194C8.06918 24.0194 8.69296 23.3971 8.69296 22.6386V19.1572H11.2661V22.6191C11.2661 23.3776 11.8898 24 12.6501 24C13.4103 24 14.0341 23.3776 14.0341 22.6191V19.1572H15.691C16.1199 19.1572 16.4707 18.8071 16.4707 18.3792V8.18799C16.5097 7.74067 16.1588 7.41003 15.73 7.41003Z" fill="white"/>
        <path d="M18.595 6.96265C17.8347 6.96265 17.2109 7.58501 17.2109 8.34352V14.5672C17.2109 15.3257 17.8347 15.9481 18.595 15.9481C19.3552 15.9481 19.979 15.3257 19.979 14.5672V8.34352C19.9985 7.58501 19.3747 6.96265 18.595 6.96265Z" fill="white"/>
        <path d="M1.38402 6.96265C0.623782 6.96265 0 7.58501 0 8.34352V14.5672C0 15.3257 0.623782 15.9481 1.38402 15.9481C2.14425 15.9481 2.76803 15.3257 2.76803 14.5672V8.34352C2.76803 7.58501 2.16374 6.96265 1.38402 6.96265Z" fill="white"/>
        <path d="M13.1375 1.75037L14.2486 0.175003C14.2681 0.136105 14.2291 0.0777582 14.1706 0.0388603C14.1121 -3.7577e-05 14.0537 -0.0194865 14.0342 0.0194114L12.8646 1.63367C12.0848 1.32249 11.1297 1.14745 9.97959 1.128C8.82949 1.128 7.87432 1.30304 7.0946 1.61423L5.96399 -3.7577e-05C5.9445 -0.0389355 5.86652 -0.0194865 5.80805 0.0194114C5.74957 0.0583093 5.71058 0.136105 5.73007 0.155554L6.84118 1.71147C3.62481 3.13124 3.52734 6.6126 3.52734 6.6126H16.4708C16.4708 6.63205 16.3344 3.18959 13.1375 1.75037ZM7.15307 4.58991C6.72423 4.58991 6.37335 4.23983 6.37335 3.81196C6.37335 3.38408 6.72423 3.034 7.15307 3.034C7.58192 3.034 7.9328 3.38408 7.9328 3.81196C7.9328 4.23983 7.58192 4.58991 7.15307 4.58991ZM12.8256 4.58991C12.3967 4.58991 12.0459 4.23983 12.0459 3.81196C12.0459 3.38408 12.3967 3.034 12.8256 3.034C13.2544 3.034 13.6053 3.38408 13.6053 3.81196C13.6053 4.23983 13.2739 4.58991 12.8256 4.58991Z" fill="white"/>
    </g>
    <defs>
        <clipPath id="clip0_5683_196465">
            <rect width="20" height="24" fill="white"/>
        </clipPath>
    </defs>
</svg>
