<svg width="120" height="40" viewBox="0 0 120 40" fill="none" xmlns="http://www.w3.org/2000/svg">
    <g clip-path="url(#clip0_8688_346364)">
        <path d="M110.135 0.00013H9.53468C9.16798 0.00013 8.80568 0.00013 8.43995 0.00213C8.1338 0.00413 7.83009 0.00994 7.521 0.01483C6.84951 0.0227318 6.17961 0.0818063 5.5171 0.19154C4.85552 0.303663 4.21467 0.515046 3.61622 0.81854C3.0185 1.1246 2.47234 1.5223 1.99757 1.9972C1.5203 2.47077 1.12246 3.01815 0.81935 3.61829C0.5154 4.21724 0.30464 4.85907 0.19435 5.52161C0.0830109 6.18332 0.0230984 6.85265 0.01515 7.52361C0.00587 7.83021 0.00489 8.13783 0 8.44447V31.5587C0.00489 31.8692 0.00587 32.17 0.01515 32.4806C0.0231008 33.1516 0.0830134 33.8209 0.19435 34.4825C0.304336 35.1455 0.515108 35.7877 0.81935 36.3868C1.12233 36.985 1.52022 37.5302 1.99757 38.0011C2.47054 38.4781 3.01705 38.8761 3.61622 39.1798C4.21467 39.4841 4.85545 39.6968 5.5171 39.8106C6.17972 39.9195 6.84956 39.9786 7.521 39.9874C7.83009 39.9942 8.1338 39.9981 8.43995 39.9981C8.80567 40.0001 9.168 40.0001 9.53468 40.0001H110.135C110.494 40.0001 110.859 40.0001 111.219 39.9981C111.523 39.9981 111.836 39.9942 112.141 39.9874C112.811 39.9791 113.479 39.92 114.141 39.8106C114.804 39.696 115.448 39.4834 116.049 39.1798C116.647 38.8759 117.193 38.478 117.666 38.0011C118.142 37.5284 118.541 36.9836 118.848 36.3868C119.15 35.7872 119.358 35.1451 119.467 34.4825C119.578 33.8208 119.64 33.1516 119.652 32.4806C119.656 32.17 119.656 31.8692 119.656 31.5587C119.664 31.1954 119.664 30.8341 119.664 30.4649V9.53626C119.664 9.17005 119.664 8.80677 119.656 8.44447C119.656 8.13783 119.656 7.83021 119.652 7.52357C119.64 6.85255 119.578 6.18337 119.467 5.52157C119.358 4.85941 119.149 4.21763 118.848 3.61825C118.23 2.41533 117.252 1.43616 116.049 0.81845C115.448 0.515697 114.804 0.30437 114.141 0.19145C113.48 0.0812328 112.811 0.0221378 112.141 0.01469C111.836 0.00981 111.523 0.00395 111.219 0.002C110.859 0 110.494 0.00013 110.135 0.00013Z" fill="#A6A6A6"/>
        <path d="M8.44291 39.125C8.13823 39.125 7.84091 39.1211 7.53862 39.1143C6.91241 39.1061 6.28765 39.0516 5.66948 38.9512C5.09307 38.8519 4.53469 38.6673 4.01274 38.4033C3.49559 38.1415 3.0239 37.7983 2.61574 37.3867C2.20168 36.98 1.85696 36.5082 1.59523 35.9902C1.33062 35.4688 1.1475 34.9099 1.05223 34.333C0.949358 33.7131 0.893698 33.0863 0.885734 32.458C0.879394 32.2471 0.871094 31.5449 0.871094 31.5449V8.44434C0.871094 8.44434 0.879934 7.75293 0.885784 7.5498C0.89341 6.92248 0.948746 6.29665 1.05131 5.67773C1.14675 5.09925 1.33002 4.53875 1.59477 4.01563C1.85554 3.49794 2.19835 3.02586 2.60991 2.61768C3.02102 2.20562 3.49422 1.8606 4.01225 1.59521C4.533 1.33209 5.09033 1.14873 5.66557 1.05127C6.28577 0.949836 6.91269 0.894996 7.54108 0.88721L8.4434 0.875H111.212L112.125 0.8877C112.748 0.895099 113.369 0.94945 113.983 1.05029C114.565 1.14898 115.128 1.33362 115.654 1.59814C116.692 2.13299 117.537 2.97916 118.069 4.01807C118.33 4.53758 118.51 5.09351 118.605 5.66699C118.708 6.29099 118.766 6.92174 118.778 7.5542C118.781 7.8374 118.781 8.1416 118.781 8.44434C118.789 8.81934 118.789 9.17627 118.789 9.53613V30.4648C118.789 30.8281 118.789 31.1826 118.781 31.54C118.781 31.8652 118.781 32.1631 118.777 32.4697C118.766 33.0909 118.709 33.7104 118.606 34.3232C118.513 34.9043 118.331 35.4675 118.066 35.9932C117.803 36.5056 117.46 36.9733 117.051 37.3789C116.642 37.7927 116.17 38.1379 115.651 38.4014C115.126 38.6674 114.564 38.8527 113.983 38.9512C113.365 39.0522 112.741 39.1067 112.114 39.1143C111.821 39.1211 111.515 39.125 111.217 39.125L110.133 39.127L8.44291 39.125Z" fill="black"/>
        <path d="M24.77 20.3013C24.7807 19.4666 25.0024 18.6483 25.4144 17.9223C25.8265 17.1964 26.4154 16.5864 27.1265 16.1492C26.6748 15.5041 26.0788 14.9731 25.386 14.5986C24.6932 14.224 23.9226 14.0162 23.1354 13.9916C21.4561 13.8153 19.8282 14.9964 18.9725 14.9964C18.1002 14.9964 16.7827 14.0091 15.364 14.0383C14.4463 14.0679 13.5519 14.3348 12.7681 14.8128C11.9842 15.2909 11.3375 15.9638 10.891 16.7661C8.95705 20.1145 10.3996 25.0356 12.2522 27.7422C13.1791 29.0676 14.2624 30.548 15.6799 30.4955C17.0669 30.438 17.585 29.611 19.2593 29.611C20.918 29.611 21.4041 30.4955 22.8503 30.4621C24.3387 30.438 25.2764 29.1309 26.1708 27.793C26.8368 26.8486 27.3492 25.8049 27.6892 24.7005C26.8245 24.3347 26.0866 23.7226 25.5675 22.9403C25.0483 22.158 24.771 21.2402 24.77 20.3013Z" fill="white"/>
        <path d="M22.0395 12.2113C22.8511 11.2371 23.2509 9.98494 23.154 8.7207C21.9142 8.85092 20.769 9.44348 19.9465 10.3803C19.5443 10.838 19.2363 11.3704 19.0401 11.9472C18.8438 12.524 18.7632 13.1337 18.8028 13.7417C19.4229 13.7481 20.0364 13.6137 20.5971 13.3486C21.1577 13.0835 21.6509 12.6946 22.0395 12.2113Z" fill="white"/>
        <path d="M42.3047 27.1397H37.5713L36.4346 30.4961H34.4297L38.9131 18.0781H40.9961L45.4795 30.4961H43.4404L42.3047 27.1397ZM38.0615 25.5908H41.8135L39.9639 20.1436H39.9121L38.0615 25.5908Z" fill="white"/>
        <path d="M55.1612 25.9695C55.1612 28.7829 53.6553 30.5905 51.3828 30.5905C50.8072 30.6207 50.2347 30.4881 49.7309 30.2079C49.2271 29.9278 48.8124 29.5114 48.5342 29.0065H48.4912V33.4909H46.6328V21.4421H48.4317V22.948H48.4659C48.7568 22.4455 49.1785 22.0313 49.6862 21.7495C50.1938 21.4676 50.7683 21.3287 51.3487 21.3474C53.6465 21.3474 55.1612 23.1638 55.1612 25.9695ZM53.251 25.9695C53.251 24.1365 52.3037 22.9314 50.8584 22.9314C49.4385 22.9314 48.4834 24.1618 48.4834 25.9695C48.4834 27.7937 49.4385 29.0154 50.8584 29.0154C52.3037 29.0154 53.251 27.8191 53.251 25.9695Z" fill="white"/>
        <path d="M65.126 25.9694C65.126 28.7829 63.6201 30.5905 61.3477 30.5905C60.772 30.6206 60.1995 30.488 59.6957 30.2079C59.1919 29.9278 58.7772 29.5114 58.4991 29.0065H58.4561V33.4909H56.5977V21.4421H58.3965V22.948H58.4307C58.7216 22.4455 59.1433 22.0313 59.651 21.7495C60.1586 21.4676 60.7332 21.3287 61.3135 21.3474C63.6114 21.3474 65.126 23.1638 65.126 25.9694ZM63.2158 25.9694C63.2158 24.1364 62.2686 22.9314 60.8233 22.9314C59.4033 22.9314 58.4483 24.1618 58.4483 25.9694C58.4483 27.7937 59.4033 29.0153 60.8233 29.0153C62.2686 29.0153 63.2158 27.8191 63.2158 25.9694Z" fill="white"/>
        <path d="M71.711 27.0362C71.8487 28.2676 73.045 29.0762 74.6797 29.0762C76.2461 29.0762 77.3731 28.2676 77.3731 27.1572C77.3731 26.1934 76.6934 25.6162 75.084 25.2207L73.4746 24.833C71.1944 24.2822 70.1358 23.2158 70.1358 21.4854C70.1358 19.3428 72.003 17.8711 74.6543 17.8711C77.2783 17.8711 79.0772 19.3428 79.1377 21.4854H77.2617C77.1494 20.2461 76.125 19.4981 74.6279 19.4981C73.1309 19.4981 72.1065 20.2549 72.1065 21.3565C72.1065 22.2344 72.7608 22.751 74.3613 23.1465L75.7295 23.4824C78.2773 24.0849 79.3359 25.1084 79.3359 26.9248C79.3359 29.248 77.4854 30.7031 74.542 30.7031C71.7881 30.7031 69.9287 29.2822 69.8086 27.0361L71.711 27.0362Z" fill="white"/>
        <path d="M83.3476 19.2998V21.4424H85.0693V22.9141H83.3476V27.9053C83.3476 28.6807 83.6924 29.042 84.4492 29.042C84.6536 29.0384 84.8577 29.0241 85.0605 28.999V30.4619C84.7203 30.5255 84.3744 30.5543 84.0283 30.5478C82.1953 30.5478 81.4805 29.8593 81.4805 28.1035V22.9141H80.1641V21.4424H81.4804V19.2998H83.3476Z" fill="white"/>
        <path d="M86.0664 25.9697C86.0664 23.1211 87.7441 21.3311 90.3604 21.3311C92.9854 21.3311 94.6553 23.1211 94.6553 25.9697C94.6553 28.8262 92.9941 30.6084 90.3604 30.6084C87.7275 30.6084 86.0664 28.8262 86.0664 25.9697ZM92.7617 25.9697C92.7617 24.0156 91.8662 22.8623 90.3603 22.8623C88.8545 22.8623 87.96 24.0244 87.96 25.9697C87.96 27.9316 88.8545 29.0762 90.3603 29.0762C91.8662 29.0762 92.7617 27.9316 92.7617 25.9697Z" fill="white"/>
        <path d="M96.1875 21.442H97.96V22.983H98.003C98.1229 22.5017 98.4048 22.0764 98.8014 21.7785C99.198 21.4806 99.6851 21.3284 100.181 21.3473C100.395 21.3465 100.608 21.3698 100.817 21.4166V23.1549C100.547 23.0723 100.265 23.0343 99.9824 23.0426C99.7124 23.0316 99.4433 23.0792 99.1935 23.1821C98.9436 23.285 98.719 23.4408 98.535 23.6386C98.351 23.8365 98.2121 24.0719 98.1276 24.3286C98.0432 24.5852 98.0153 24.8571 98.0459 25.1256V30.4957H96.1875L96.1875 21.442Z" fill="white"/>
        <path d="M109.386 27.8369C109.136 29.4805 107.535 30.6084 105.487 30.6084C102.854 30.6084 101.219 28.8437 101.219 26.0127C101.219 23.1729 102.862 21.3311 105.409 21.3311C107.914 21.3311 109.489 23.0518 109.489 25.7969V26.4336H103.095V26.5459C103.065 26.8791 103.107 27.2148 103.217 27.5306C103.327 27.8464 103.503 28.1352 103.734 28.3778C103.964 28.6203 104.243 28.8111 104.553 28.9374C104.863 29.0637 105.196 29.1226 105.53 29.1103C105.969 29.1515 106.41 29.0498 106.787 28.8203C107.164 28.5909 107.456 28.246 107.621 27.8369L109.386 27.8369ZM103.104 25.1348H107.63C107.647 24.8352 107.601 24.5354 107.496 24.2541C107.392 23.9729 107.23 23.7164 107.022 23.5006C106.813 23.2849 106.562 23.1145 106.285 23.0003C106.007 22.8861 105.709 22.8305 105.409 22.8369C105.107 22.8351 104.807 22.8933 104.527 23.008C104.246 23.1227 103.992 23.2918 103.778 23.5054C103.563 23.7191 103.393 23.973 103.278 24.2527C103.162 24.5323 103.103 24.8321 103.104 25.1348Z" fill="white"/>
        <path d="M37.8271 8.7304C38.2168 8.70244 38.6077 8.7613 38.9718 8.90274C39.3359 9.04417 39.6641 9.26465 39.9327 9.54828C40.2013 9.8319 40.4036 10.1716 40.525 10.5429C40.6464 10.9141 40.6839 11.3077 40.6348 11.6952C40.6348 13.6015 39.6045 14.6972 37.8271 14.6972H35.6719V8.7304H37.8271ZM36.5986 13.8534H37.7236C38.002 13.87 38.2806 13.8244 38.5392 13.7198C38.7977 13.6152 39.0297 13.4542 39.2182 13.2487C39.4067 13.0431 39.5469 12.7981 39.6288 12.5315C39.7107 12.2648 39.7321 11.9833 39.6914 11.7074C39.7291 11.4326 39.7056 11.1528 39.6224 10.8881C39.5393 10.6235 39.3987 10.3805 39.2106 10.1765C39.0226 9.97261 38.7917 9.8128 38.5346 9.70856C38.2776 9.60433 38.0006 9.55824 37.7236 9.57361H36.5986V13.8534Z" fill="white"/>
        <path d="M41.6819 12.4438C41.6536 12.1479 41.6875 11.8493 41.7813 11.5672C41.8751 11.2852 42.0269 11.0258 42.2268 10.8059C42.4268 10.5859 42.6705 10.4101 42.9423 10.2898C43.2142 10.1696 43.5082 10.1074 43.8055 10.1074C44.1027 10.1074 44.3967 10.1696 44.6686 10.2898C44.9404 10.4101 45.1841 10.5859 45.3841 10.8059C45.584 11.0258 45.7358 11.2852 45.8296 11.5672C45.9234 11.8493 45.9573 12.1479 45.929 12.4438C45.9578 12.74 45.9244 13.039 45.8308 13.3215C45.7372 13.6041 45.5855 13.8639 45.3855 14.0843C45.1856 14.3047 44.9417 14.4808 44.6695 14.6014C44.3974 14.7219 44.1031 14.7842 43.8055 14.7842C43.5078 14.7842 43.2135 14.7219 42.9414 14.6014C42.6693 14.4808 42.4254 14.3047 42.2254 14.0843C42.0254 13.8639 41.8737 13.6041 41.7801 13.3215C41.6865 13.039 41.6531 12.74 41.6819 12.4438ZM45.0149 12.4438C45.0149 11.4677 44.5764 10.8969 43.8069 10.8969C43.0345 10.8969 42.5999 11.4677 42.5999 12.4438C42.5999 13.4277 43.0345 13.9941 43.8069 13.9941C44.5765 13.9941 45.0149 13.4238 45.0149 12.4438Z" fill="white"/>
        <path d="M51.5742 14.6973H50.6523L49.7217 11.3809H49.6514L48.7246 14.6973H47.8115L46.5703 10.1943H47.4717L48.2783 13.6303H48.3447L49.2705 10.1943H50.1231L51.0488 13.6303H51.1191L51.9219 10.1943H52.8105L51.5742 14.6973Z" fill="white"/>
        <path d="M53.8555 10.1939H54.7109V10.9092H54.7773C54.89 10.6523 55.08 10.4369 55.3209 10.2931C55.5617 10.1493 55.8415 10.0842 56.1211 10.107C56.3402 10.0905 56.5602 10.1235 56.7648 10.2036C56.9694 10.2837 57.1533 10.4088 57.303 10.5697C57.4527 10.7305 57.5643 10.923 57.6295 11.1328C57.6947 11.3426 57.7118 11.5644 57.6797 11.7818V14.6968H56.791V12.0049C56.791 11.2813 56.4766 10.9214 55.8193 10.9214C55.6706 10.9145 55.5221 10.9398 55.384 10.9957C55.246 11.0515 55.1216 11.1365 55.0195 11.2449C54.9174 11.3533 54.8399 11.4825 54.7924 11.6236C54.7448 11.7647 54.7284 11.9145 54.7441 12.0625V14.6968H53.8555L53.8555 10.1939Z" fill="white"/>
        <path d="M59.0938 8.43652H59.9824V14.6973H59.0938V8.43652Z" fill="white"/>
        <path d="M61.2171 12.4439C61.1888 12.1479 61.2226 11.8494 61.3165 11.5673C61.4104 11.2852 61.5621 11.0259 61.7621 10.8059C61.9621 10.5859 62.2058 10.4101 62.4777 10.2898C62.7495 10.1696 63.0435 10.1074 63.3408 10.1074C63.6381 10.1074 63.9321 10.1696 64.204 10.2898C64.4759 10.4101 64.7196 10.5859 64.9196 10.8059C65.1195 11.0259 65.2713 11.2852 65.3652 11.5673C65.459 11.8494 65.4929 12.1479 65.4646 12.4439C65.4934 12.7401 65.4599 13.0391 65.3663 13.3216C65.2727 13.6042 65.121 13.864 64.921 14.0844C64.721 14.3048 64.4771 14.4809 64.2049 14.6014C63.9328 14.722 63.6385 14.7842 63.3408 14.7842C63.0432 14.7842 62.7489 14.722 62.4767 14.6014C62.2046 14.4809 61.9607 14.3048 61.7607 14.0844C61.5607 13.864 61.409 13.6042 61.3153 13.3216C61.2217 13.0391 61.1882 12.7401 61.2171 12.4439ZM64.5501 12.4439C64.5501 11.4678 64.1116 10.897 63.3421 10.897C62.5696 10.897 62.1351 11.4678 62.1351 12.4439C62.1351 13.4278 62.5696 13.9942 63.3421 13.9942C64.1116 13.9942 64.5501 13.4239 64.5501 12.4439Z" fill="white"/>
        <path d="M66.4023 13.4238C66.4023 12.6133 67.0059 12.146 68.0771 12.0796L69.2969 12.0093V11.6206C69.2969 11.145 68.9824 10.8765 68.375 10.8765C67.8789 10.8765 67.5352 11.0586 67.4365 11.377H66.5762C66.667 10.6035 67.3945 10.1074 68.416 10.1074C69.5449 10.1074 70.1816 10.6694 70.1816 11.6206V14.6973H69.3262V14.0645H69.2559C69.1131 14.2914 68.9127 14.4765 68.6751 14.6007C68.4375 14.7249 68.1712 14.7838 67.9033 14.7715C67.7143 14.7911 67.5232 14.7709 67.3425 14.7122C67.1617 14.6536 66.9953 14.5576 66.8538 14.4307C66.7124 14.3037 66.5992 14.1485 66.5214 13.9751C66.4437 13.8017 66.4031 13.6139 66.4023 13.4238ZM69.2969 13.0391V12.6626L68.1973 12.7329C67.5771 12.7744 67.2959 12.9853 67.2959 13.3823C67.2959 13.7876 67.6474 14.0234 68.1309 14.0234C68.2725 14.0378 68.4156 14.0235 68.5516 13.9814C68.6876 13.9393 68.8138 13.8703 68.9226 13.7784C69.0313 13.6866 69.1205 13.5738 69.1849 13.4468C69.2492 13.3198 69.2873 13.1811 69.2969 13.0391Z" fill="white"/>
        <path d="M71.3477 12.4439C71.3477 11.021 72.0791 10.1196 73.2168 10.1196C73.4982 10.1067 73.7775 10.1741 74.022 10.314C74.2666 10.4539 74.4662 10.6605 74.5977 10.9096H74.6641V8.43652H75.5527V14.6973H74.7012V13.9858H74.6309C74.4893 14.2333 74.2826 14.4374 74.0334 14.5758C73.7841 14.7143 73.5017 14.782 73.2168 14.7715C72.0713 14.7715 71.3477 13.8701 71.3477 12.4439ZM72.2657 12.4439C72.2657 13.3989 72.7159 13.9737 73.4688 13.9737C74.2178 13.9737 74.6807 13.3907 74.6807 12.4478C74.6807 11.5093 74.2129 10.918 73.4688 10.918C72.7207 10.918 72.2657 11.4966 72.2657 12.4439Z" fill="white"/>
        <path d="M79.2327 12.4438C79.2044 12.1479 79.2382 11.8493 79.3321 11.5672C79.4259 11.2852 79.5777 11.0258 79.7776 10.8059C79.9776 10.5859 80.2213 10.4101 80.4931 10.2898C80.765 10.1696 81.059 10.1074 81.3562 10.1074C81.6535 10.1074 81.9475 10.1696 82.2193 10.2898C82.4912 10.4101 82.7349 10.5859 82.9348 10.8059C83.1348 11.0258 83.2865 11.2852 83.3804 11.5672C83.4742 11.8493 83.5081 12.1479 83.4798 12.4438C83.5086 12.74 83.4752 13.039 83.3816 13.3215C83.288 13.6041 83.1363 13.8639 82.9363 14.0843C82.7363 14.3047 82.4924 14.4808 82.2203 14.6014C81.9482 14.7219 81.6539 14.7842 81.3562 14.7842C81.0586 14.7842 80.7643 14.7219 80.4922 14.6014C80.22 14.4808 79.9761 14.3047 79.7761 14.0843C79.5762 13.8639 79.4245 13.6041 79.3309 13.3215C79.2373 13.039 79.2039 12.74 79.2327 12.4438ZM82.5657 12.4438C82.5657 11.4677 82.1272 10.8969 81.3577 10.8969C80.5852 10.8969 80.1507 11.4677 80.1507 12.4438C80.1507 13.4277 80.5853 13.9941 81.3577 13.9941C82.1272 13.9941 82.5657 13.4238 82.5657 12.4438Z" fill="white"/>
        <path d="M84.6719 10.1939H85.5273V10.9092H85.5938C85.7064 10.6523 85.8964 10.4369 86.1373 10.2931C86.3782 10.1493 86.6579 10.0842 86.9375 10.107C87.1566 10.0905 87.3766 10.1235 87.5812 10.2036C87.7858 10.2837 87.9698 10.4088 88.1194 10.5697C88.2691 10.7305 88.3807 10.923 88.4459 11.1328C88.5111 11.3426 88.5283 11.5644 88.4961 11.7818V14.6968H87.6074V12.0049C87.6074 11.2813 87.293 10.9214 86.6357 10.9214C86.487 10.9145 86.3385 10.9398 86.2004 10.9957C86.0624 11.0515 85.938 11.1365 85.8359 11.2449C85.7338 11.3533 85.6563 11.4825 85.6088 11.6236C85.5612 11.7647 85.5448 11.9145 85.5605 12.0625V14.6968H84.6719V10.1939Z" fill="white"/>
        <path d="M93.5146 9.07324V10.2148H94.4902V10.9634H93.5146V13.2788C93.5146 13.7505 93.709 13.957 94.1514 13.957C94.2646 13.9567 94.3778 13.9498 94.4902 13.9365V14.6768C94.3307 14.7053 94.169 14.7205 94.0068 14.7222C93.0186 14.7222 92.625 14.3745 92.625 13.5063V10.9633H91.9102V10.2148H92.625V9.07324H93.5146Z" fill="white"/>
        <path d="M95.707 8.43652H96.5879V10.918H96.6582C96.7763 10.6587 96.9716 10.4421 97.2172 10.2977C97.4629 10.1534 97.7472 10.0883 98.0312 10.1113C98.2492 10.0995 98.467 10.1359 98.6693 10.2179C98.8716 10.2999 99.0533 10.4256 99.2014 10.586C99.3495 10.7463 99.4604 10.9373 99.5262 11.1455C99.592 11.3536 99.611 11.5737 99.582 11.79V14.6973H98.6924V12.0093C98.6924 11.29 98.3574 10.9258 97.7295 10.9258C97.5768 10.9132 97.4232 10.9342 97.2794 10.9873C97.1356 11.0404 97.0052 11.1242 96.8972 11.2329C96.7892 11.3417 96.7062 11.4727 96.6542 11.6168C96.6021 11.761 96.5822 11.9147 96.5957 12.0674V14.6973H95.7071L95.707 8.43652Z" fill="white"/>
        <path d="M104.761 13.4815C104.641 13.8931 104.379 14.249 104.022 14.4872C103.666 14.7253 103.237 14.8305 102.81 14.7842C102.514 14.7921 102.219 14.7353 101.946 14.6177C101.674 14.5002 101.43 14.3248 101.232 14.1036C101.034 13.8825 100.887 13.6209 100.8 13.3371C100.713 13.0533 100.69 12.754 100.73 12.46C100.691 12.1652 100.715 11.8652 100.801 11.5805C100.888 11.2959 101.035 11.0331 101.231 10.81C101.428 10.587 101.671 10.4088 101.943 10.2876C102.214 10.1664 102.509 10.105 102.806 10.1075C104.059 10.1075 104.815 10.9635 104.815 12.3775V12.6876H101.635V12.7374C101.621 12.9026 101.642 13.069 101.696 13.2257C101.751 13.3825 101.837 13.5262 101.95 13.6476C102.063 13.7691 102.2 13.8656 102.352 13.931C102.504 13.9964 102.669 14.0292 102.835 14.0274C103.047 14.0529 103.263 14.0146 103.453 13.9174C103.644 13.8202 103.802 13.6685 103.906 13.4815L104.761 13.4815ZM101.635 12.0303H103.91C103.921 11.8792 103.9 11.7274 103.85 11.5847C103.799 11.442 103.718 11.3115 103.614 11.2016C103.51 11.0918 103.383 11.005 103.243 10.9468C103.103 10.8886 102.953 10.8604 102.801 10.8638C102.648 10.8619 102.495 10.8908 102.353 10.9487C102.21 11.0067 102.081 11.0925 101.972 11.2012C101.864 11.3099 101.778 11.4393 101.72 11.5817C101.662 11.7241 101.633 11.8766 101.635 12.0303Z" fill="white"/>
    </g>
    <defs>
        <clipPath id="clip0_8688_346364">
            <rect width="119.664" height="40" fill="white"/>
        </clipPath>
    </defs>
</svg>
