<svg xmlns="http://www.w3.org/2000/svg" width="80" height="80" viewBox="0 0 80 80" fill="none">
    <g clip-path="url(#clip0_11914_377740)">
        <path d="M80 0H0V80H80V0Z" fill="white"/>
        <path d="M23.7837 4.32433H21.6216V6.48649H23.7837V4.32433Z" fill="black"/>
        <path d="M25.9459 4.32433H23.7837V6.48649H25.9459V4.32433Z" fill="black"/>
        <path d="M32.4324 4.32433H30.2703V6.48649H32.4324V4.32433Z" fill="black"/>
        <path d="M36.7566 4.32433H34.5945V6.48649H36.7566V4.32433Z" fill="black"/>
        <path d="M41.0809 4.32433H38.9187V6.48649H41.0809V4.32433Z" fill="black"/>
        <path d="M43.2432 4.32433H41.0811V6.48649H43.2432V4.32433Z" fill="black"/>
        <path d="M45.4053 4.32433H43.2432V6.48649H45.4053V4.32433Z" fill="black"/>
        <path d="M51.8919 4.32433H49.7297V6.48649H51.8919V4.32433Z" fill="black"/>
        <path d="M54.054 4.32433H51.8918V6.48649H54.054V4.32433Z" fill="black"/>
        <path d="M23.7837 6.48649H21.6216V8.64865H23.7837V6.48649Z" fill="black"/>
        <path d="M25.9459 6.48649H23.7837V8.64865H25.9459V6.48649Z" fill="black"/>
        <path d="M28.108 6.48649H25.9458V8.64865H28.108V6.48649Z" fill="black"/>
        <path d="M30.2701 6.48649H28.1079V8.64865H30.2701V6.48649Z" fill="black"/>
        <path d="M47.5674 6.48649H45.4053V8.64865H47.5674V6.48649Z" fill="black"/>
        <path d="M51.8919 6.48649H49.7297V8.64865H51.8919V6.48649Z" fill="black"/>
        <path d="M54.054 6.48649H51.8918V8.64865H54.054V6.48649Z" fill="black"/>
        <path d="M58.3782 6.48649H56.2161V8.64865H58.3782V6.48649Z" fill="black"/>
        <path d="M23.7837 8.64865H21.6216V10.8108H23.7837V8.64865Z" fill="black"/>
        <path d="M28.108 8.64865H25.9458V10.8108H28.108V8.64865Z" fill="black"/>
        <path d="M38.9188 8.64865H36.7566V10.8108H38.9188V8.64865Z" fill="black"/>
        <path d="M41.0809 8.64865H38.9187V10.8108H41.0809V8.64865Z" fill="black"/>
        <path d="M49.7295 8.64865H47.5674V10.8108H49.7295V8.64865Z" fill="black"/>
        <path d="M51.8919 8.64865H49.7297V10.8108H51.8919V8.64865Z" fill="black"/>
        <path d="M54.054 8.64865H51.8918V10.8108H54.054V8.64865Z" fill="black"/>
        <path d="M56.2161 8.64865H54.054V10.8108H56.2161V8.64865Z" fill="black"/>
        <path d="M25.9459 10.8108H23.7837V12.973H25.9459V10.8108Z" fill="black"/>
        <path d="M30.2701 10.8108H28.1079V12.973H30.2701V10.8108Z" fill="black"/>
        <path d="M32.4324 10.8108H30.2703V12.973H32.4324V10.8108Z" fill="black"/>
        <path d="M43.2432 10.8108H41.0811V12.973H43.2432V10.8108Z" fill="black"/>
        <path d="M45.4053 10.8108H43.2432V12.973H45.4053V10.8108Z" fill="black"/>
        <path d="M47.5674 10.8108H45.4053V12.973H47.5674V10.8108Z" fill="black"/>
        <path d="M51.8919 10.8108H49.7297V12.973H51.8919V10.8108Z" fill="black"/>
        <path d="M54.054 10.8108H51.8918V12.973H54.054V10.8108Z" fill="black"/>
        <path d="M56.2161 10.8108H54.054V12.973H56.2161V10.8108Z" fill="black"/>
        <path d="M23.7837 12.973H21.6216V15.1351H23.7837V12.973Z" fill="black"/>
        <path d="M25.9459 12.973H23.7837V15.1351H25.9459V12.973Z" fill="black"/>
        <path d="M32.4324 12.973H30.2703V15.1351H32.4324V12.973Z" fill="black"/>
        <path d="M34.5945 12.973H32.4324V15.1351H34.5945V12.973Z" fill="black"/>
        <path d="M36.7566 12.973H34.5945V15.1351H36.7566V12.973Z" fill="black"/>
        <path d="M38.9188 12.973H36.7566V15.1351H38.9188V12.973Z" fill="black"/>
        <path d="M47.5674 12.973H45.4053V15.1351H47.5674V12.973Z" fill="black"/>
        <path d="M49.7295 12.973H47.5674V15.1351H49.7295V12.973Z" fill="black"/>
        <path d="M51.8919 12.973H49.7297V15.1351H51.8919V12.973Z" fill="black"/>
        <path d="M54.054 12.973H51.8918V15.1351H54.054V12.973Z" fill="black"/>
        <path d="M58.3782 12.973H56.2161V15.1351H58.3782V12.973Z" fill="black"/>
        <path d="M25.9459 15.1351H23.7837V17.2973H25.9459V15.1351Z" fill="black"/>
        <path d="M28.108 15.1351H25.9458V17.2973H28.108V15.1351Z" fill="black"/>
        <path d="M32.4324 15.1351H30.2703V17.2973H32.4324V15.1351Z" fill="black"/>
        <path d="M34.5945 15.1351H32.4324V17.2973H34.5945V15.1351Z" fill="black"/>
        <path d="M36.7566 15.1351H34.5945V17.2973H36.7566V15.1351Z" fill="black"/>
        <path d="M43.2432 15.1351H41.0811V17.2973H43.2432V15.1351Z" fill="black"/>
        <path d="M49.7295 15.1351H47.5674V17.2973H49.7295V15.1351Z" fill="black"/>
        <path d="M54.054 15.1351H51.8918V17.2973H54.054V15.1351Z" fill="black"/>
        <path d="M56.2161 15.1351H54.054V17.2973H56.2161V15.1351Z" fill="black"/>
        <path d="M58.3782 15.1351H56.2161V17.2973H58.3782V15.1351Z" fill="black"/>
        <path d="M23.7837 17.2973H21.6216V19.4595H23.7837V17.2973Z" fill="black"/>
        <path d="M28.108 17.2973H25.9458V19.4595H28.108V17.2973Z" fill="black"/>
        <path d="M32.4324 17.2973H30.2703V19.4595H32.4324V17.2973Z" fill="black"/>
        <path d="M36.7566 17.2973H34.5945V19.4595H36.7566V17.2973Z" fill="black"/>
        <path d="M41.0809 17.2973H38.9187V19.4595H41.0809V17.2973Z" fill="black"/>
        <path d="M45.4053 17.2973H43.2432V19.4595H45.4053V17.2973Z" fill="black"/>
        <path d="M49.7295 17.2973H47.5674V19.4595H49.7295V17.2973Z" fill="black"/>
        <path d="M54.054 17.2973H51.8918V19.4595H54.054V17.2973Z" fill="black"/>
        <path d="M58.3782 17.2973H56.2161V19.4595H58.3782V17.2973Z" fill="black"/>
        <path d="M30.2701 19.4595H28.1079V21.6216H30.2701V19.4595Z" fill="black"/>
        <path d="M34.5945 19.4595H32.4324V21.6216H34.5945V19.4595Z" fill="black"/>
        <path d="M47.5674 19.4595H45.4053V21.6216H47.5674V19.4595Z" fill="black"/>
        <path d="M54.054 19.4595H51.8918V21.6216H54.054V19.4595Z" fill="black"/>
        <path d="M6.48638 21.6216H4.32422V23.7838H6.48638V21.6216Z" fill="black"/>
        <path d="M12.973 21.6216H10.8108V23.7838H12.973V21.6216Z" fill="black"/>
        <path d="M15.1351 21.6216H12.9729V23.7838H15.1351V21.6216Z" fill="black"/>
        <path d="M17.2972 21.6216H15.135V23.7838H17.2972V21.6216Z" fill="black"/>
        <path d="M19.4593 21.6216H17.2971V23.7838H19.4593V21.6216Z" fill="black"/>
        <path d="M21.6216 21.6216H19.4595V23.7838H21.6216V21.6216Z" fill="black"/>
        <path d="M23.7837 21.6216H21.6216V23.7838H23.7837V21.6216Z" fill="black"/>
        <path d="M25.9459 21.6216H23.7837V23.7838H25.9459V21.6216Z" fill="black"/>
        <path d="M32.4324 21.6216H30.2703V23.7838H32.4324V21.6216Z" fill="black"/>
        <path d="M36.7566 21.6216H34.5945V23.7838H36.7566V21.6216Z" fill="black"/>
        <path d="M38.9188 21.6216H36.7566V23.7838H38.9188V21.6216Z" fill="black"/>
        <path d="M43.2432 21.6216H41.0811V23.7838H43.2432V21.6216Z" fill="black"/>
        <path d="M45.4053 21.6216H43.2432V23.7838H45.4053V21.6216Z" fill="black"/>
        <path d="M47.5674 21.6216H45.4053V23.7838H47.5674V21.6216Z" fill="black"/>
        <path d="M58.3782 21.6216H56.2161V23.7838H58.3782V21.6216Z" fill="black"/>
        <path d="M60.5403 21.6216H58.3782V23.7838H60.5403V21.6216Z" fill="black"/>
        <path d="M67.0269 21.6216H64.8647V23.7838H67.0269V21.6216Z" fill="black"/>
        <path d="M71.3511 21.6216H69.189V23.7838H71.3511V21.6216Z" fill="black"/>
        <path d="M73.5135 21.6216H71.3513V23.7838H73.5135V21.6216Z" fill="black"/>
        <path d="M75.6756 21.6216H73.5134V23.7838H75.6756V21.6216Z" fill="black"/>
        <path d="M10.8106 23.7838H8.64844V25.9459H10.8106V23.7838Z" fill="black"/>
        <path d="M23.7837 23.7838H21.6216V25.9459H23.7837V23.7838Z" fill="black"/>
        <path d="M25.9459 23.7838H23.7837V25.9459H25.9459V23.7838Z" fill="black"/>
        <path d="M28.108 23.7838H25.9458V25.9459H28.108V23.7838Z" fill="black"/>
        <path d="M30.2701 23.7838H28.1079V25.9459H30.2701V23.7838Z" fill="black"/>
        <path d="M36.7566 23.7838H34.5945V25.9459H36.7566V23.7838Z" fill="black"/>
        <path d="M38.9188 23.7838H36.7566V25.9459H38.9188V23.7838Z" fill="black"/>
        <path d="M45.4053 23.7838H43.2432V25.9459H45.4053V23.7838Z" fill="black"/>
        <path d="M47.5674 23.7838H45.4053V25.9459H47.5674V23.7838Z" fill="black"/>
        <path d="M56.2161 23.7838H54.054V25.9459H56.2161V23.7838Z" fill="black"/>
        <path d="M58.3782 23.7838H56.2161V25.9459H58.3782V23.7838Z" fill="black"/>
        <path d="M67.0269 23.7838H64.8647V25.9459H67.0269V23.7838Z" fill="black"/>
        <path d="M69.189 23.7838H67.0269V25.9459H69.189V23.7838Z" fill="black"/>
        <path d="M71.3511 23.7838H69.189V25.9459H71.3511V23.7838Z" fill="black"/>
        <path d="M73.5135 23.7838H71.3513V25.9459H73.5135V23.7838Z" fill="black"/>
        <path d="M6.48638 25.9459H4.32422V28.1081H6.48638V25.9459Z" fill="black"/>
        <path d="M10.8106 25.9459H8.64844V28.1081H10.8106V25.9459Z" fill="black"/>
        <path d="M12.973 25.9459H10.8108V28.1081H12.973V25.9459Z" fill="black"/>
        <path d="M17.2972 25.9459H15.135V28.1081H17.2972V25.9459Z" fill="black"/>
        <path d="M19.4593 25.9459H17.2971V28.1081H19.4593V25.9459Z" fill="black"/>
        <path d="M21.6216 25.9459H19.4595V28.1081H21.6216V25.9459Z" fill="black"/>
        <path d="M25.9459 25.9459H23.7837V28.1081H25.9459V25.9459Z" fill="black"/>
        <path d="M32.4324 25.9459H30.2703V28.1081H32.4324V25.9459Z" fill="black"/>
        <path d="M36.7566 25.9459H34.5945V28.1081H36.7566V25.9459Z" fill="black"/>
        <path d="M38.9188 25.9459H36.7566V28.1081H38.9188V25.9459Z" fill="black"/>
        <path d="M43.2432 25.9459H41.0811V28.1081H43.2432V25.9459Z" fill="black"/>
        <path d="M45.4053 25.9459H43.2432V28.1081H45.4053V25.9459Z" fill="black"/>
        <path d="M51.8919 25.9459H49.7297V28.1081H51.8919V25.9459Z" fill="black"/>
        <path d="M54.054 25.9459H51.8918V28.1081H54.054V25.9459Z" fill="black"/>
        <path d="M56.2161 25.9459H54.054V28.1081H56.2161V25.9459Z" fill="black"/>
        <path d="M67.0269 25.9459H64.8647V28.1081H67.0269V25.9459Z" fill="black"/>
        <path d="M69.189 25.9459H67.0269V28.1081H69.189V25.9459Z" fill="black"/>
        <path d="M71.3511 25.9459H69.189V28.1081H71.3511V25.9459Z" fill="black"/>
        <path d="M73.5135 25.9459H71.3513V28.1081H73.5135V25.9459Z" fill="black"/>
        <path d="M75.6756 25.9459H73.5134V28.1081H75.6756V25.9459Z" fill="black"/>
        <path d="M8.64849 28.1081H6.48633V30.2703H8.64849V28.1081Z" fill="black"/>
        <path d="M12.973 28.1081H10.8108V30.2703H12.973V28.1081Z" fill="black"/>
        <path d="M17.2972 28.1081H15.135V30.2703H17.2972V28.1081Z" fill="black"/>
        <path d="M21.6216 28.1081H19.4595V30.2703H21.6216V28.1081Z" fill="black"/>
        <path d="M23.7837 28.1081H21.6216V30.2703H23.7837V28.1081Z" fill="black"/>
        <path d="M25.9459 28.1081H23.7837V30.2703H25.9459V28.1081Z" fill="black"/>
        <path d="M30.2701 28.1081H28.1079V30.2703H30.2701V28.1081Z" fill="black"/>
        <path d="M36.7566 28.1081H34.5945V30.2703H36.7566V28.1081Z" fill="black"/>
        <path d="M41.0809 28.1081H38.9187V30.2703H41.0809V28.1081Z" fill="black"/>
        <path d="M43.2432 28.1081H41.0811V30.2703H43.2432V28.1081Z" fill="black"/>
        <path d="M47.5674 28.1081H45.4053V30.2703H47.5674V28.1081Z" fill="black"/>
        <path d="M54.054 28.1081H51.8918V30.2703H54.054V28.1081Z" fill="black"/>
        <path d="M58.3782 28.1081H56.2161V30.2703H58.3782V28.1081Z" fill="black"/>
        <path d="M64.8648 28.1081H62.7026V30.2703H64.8648V28.1081Z" fill="black"/>
        <path d="M71.3511 28.1081H69.189V30.2703H71.3511V28.1081Z" fill="black"/>
        <path d="M10.8106 30.2703H8.64844V32.4324H10.8106V30.2703Z" fill="black"/>
        <path d="M19.4593 30.2703H17.2971V32.4324H19.4593V30.2703Z" fill="black"/>
        <path d="M21.6216 30.2703H19.4595V32.4324H21.6216V30.2703Z" fill="black"/>
        <path d="M25.9459 30.2703H23.7837V32.4324H25.9459V30.2703Z" fill="black"/>
        <path d="M28.108 30.2703H25.9458V32.4324H28.108V30.2703Z" fill="black"/>
        <path d="M34.5945 30.2703H32.4324V32.4324H34.5945V30.2703Z" fill="black"/>
        <path d="M36.7566 30.2703H34.5945V32.4324H36.7566V30.2703Z" fill="black"/>
        <path d="M38.9188 30.2703H36.7566V32.4324H38.9188V30.2703Z" fill="black"/>
        <path d="M41.0809 30.2703H38.9187V32.4324H41.0809V30.2703Z" fill="black"/>
        <path d="M43.2432 30.2703H41.0811V32.4324H43.2432V30.2703Z" fill="black"/>
        <path d="M45.4053 30.2703H43.2432V32.4324H45.4053V30.2703Z" fill="black"/>
        <path d="M47.5674 30.2703H45.4053V32.4324H47.5674V30.2703Z" fill="black"/>
        <path d="M54.054 30.2703H51.8918V32.4324H54.054V30.2703Z" fill="black"/>
        <path d="M56.2161 30.2703H54.054V32.4324H56.2161V30.2703Z" fill="black"/>
        <path d="M58.3782 30.2703H56.2161V32.4324H58.3782V30.2703Z" fill="black"/>
        <path d="M62.7027 30.2703H60.5405V32.4324H62.7027V30.2703Z" fill="black"/>
        <path d="M64.8648 30.2703H62.7026V32.4324H64.8648V30.2703Z" fill="black"/>
        <path d="M75.6756 30.2703H73.5134V32.4324H75.6756V30.2703Z" fill="black"/>
        <path d="M6.48638 32.4324H4.32422V34.5946H6.48638V32.4324Z" fill="black"/>
        <path d="M8.64849 32.4324H6.48633V34.5946H8.64849V32.4324Z" fill="black"/>
        <path d="M17.2972 32.4324H15.135V34.5946H17.2972V32.4324Z" fill="black"/>
        <path d="M25.9459 32.4324H23.7837V34.5946H25.9459V32.4324Z" fill="black"/>
        <path d="M28.108 32.4324H25.9458V34.5946H28.108V32.4324Z" fill="black"/>
        <path d="M30.2701 32.4324H28.1079V34.5946H30.2701V32.4324Z" fill="black"/>
        <path d="M32.4324 32.4324H30.2703V34.5946H32.4324V32.4324Z" fill="black"/>
        <path d="M41.0809 32.4324H38.9187V34.5946H41.0809V32.4324Z" fill="black"/>
        <path d="M43.2432 32.4324H41.0811V34.5946H43.2432V32.4324Z" fill="black"/>
        <path d="M45.4053 32.4324H43.2432V34.5946H45.4053V32.4324Z" fill="black"/>
        <path d="M49.7295 32.4324H47.5674V34.5946H49.7295V32.4324Z" fill="black"/>
        <path d="M54.054 32.4324H51.8918V34.5946H54.054V32.4324Z" fill="black"/>
        <path d="M56.2161 32.4324H54.054V34.5946H56.2161V32.4324Z" fill="black"/>
        <path d="M60.5403 32.4324H58.3782V34.5946H60.5403V32.4324Z" fill="black"/>
        <path d="M64.8648 32.4324H62.7026V34.5946H64.8648V32.4324Z" fill="black"/>
        <path d="M69.189 32.4324H67.0269V34.5946H69.189V32.4324Z" fill="black"/>
        <path d="M71.3511 32.4324H69.189V34.5946H71.3511V32.4324Z" fill="black"/>
        <path d="M12.973 34.5946H10.8108V36.7568H12.973V34.5946Z" fill="black"/>
        <path d="M15.1351 34.5946H12.9729V36.7568H15.1351V34.5946Z" fill="black"/>
        <path d="M19.4593 34.5946H17.2971V36.7568H19.4593V34.5946Z" fill="black"/>
        <path d="M25.9459 34.5946H23.7837V36.7568H25.9459V34.5946Z" fill="black"/>
        <path d="M28.108 34.5946H25.9458V36.7568H28.108V34.5946Z" fill="black"/>
        <path d="M34.5945 34.5946H32.4324V36.7568H34.5945V34.5946Z" fill="black"/>
        <path d="M41.0809 34.5946H38.9187V36.7568H41.0809V34.5946Z" fill="black"/>
        <path d="M43.2432 34.5946H41.0811V36.7568H43.2432V34.5946Z" fill="black"/>
        <path d="M47.5674 34.5946H45.4053V36.7568H47.5674V34.5946Z" fill="black"/>
        <path d="M51.8919 34.5946H49.7297V36.7568H51.8919V34.5946Z" fill="black"/>
        <path d="M54.054 34.5946H51.8918V36.7568H54.054V34.5946Z" fill="black"/>
        <path d="M62.7027 34.5946H60.5405V36.7568H62.7027V34.5946Z" fill="black"/>
        <path d="M69.189 34.5946H67.0269V36.7568H69.189V34.5946Z" fill="black"/>
        <path d="M71.3511 34.5946H69.189V36.7568H71.3511V34.5946Z" fill="black"/>
        <path d="M8.64849 36.7568H6.48633V38.9189H8.64849V36.7568Z" fill="black"/>
        <path d="M10.8106 36.7568H8.64844V38.9189H10.8106V36.7568Z" fill="black"/>
        <path d="M12.973 36.7568H10.8108V38.9189H12.973V36.7568Z" fill="black"/>
        <path d="M17.2972 36.7568H15.135V38.9189H17.2972V36.7568Z" fill="black"/>
        <path d="M30.2701 36.7568H28.1079V38.9189H30.2701V36.7568Z" fill="black"/>
        <path d="M38.9188 36.7568H36.7566V38.9189H38.9188V36.7568Z" fill="black"/>
        <path d="M54.054 36.7568H51.8918V38.9189H54.054V36.7568Z" fill="black"/>
        <path d="M58.3782 36.7568H56.2161V38.9189H58.3782V36.7568Z" fill="black"/>
        <path d="M60.5403 36.7568H58.3782V38.9189H60.5403V36.7568Z" fill="black"/>
        <path d="M67.0269 36.7568H64.8647V38.9189H67.0269V36.7568Z" fill="black"/>
        <path d="M69.189 36.7568H67.0269V38.9189H69.189V36.7568Z" fill="black"/>
        <path d="M71.3511 36.7568H69.189V38.9189H71.3511V36.7568Z" fill="black"/>
        <path d="M75.6756 36.7568H73.5134V38.9189H75.6756V36.7568Z" fill="black"/>
        <path d="M8.64849 38.9189H6.48633V41.0811H8.64849V38.9189Z" fill="black"/>
        <path d="M10.8106 38.9189H8.64844V41.0811H10.8106V38.9189Z" fill="black"/>
        <path d="M15.1351 38.9189H12.9729V41.0811H15.1351V38.9189Z" fill="black"/>
        <path d="M19.4593 38.9189H17.2971V41.0811H19.4593V38.9189Z" fill="black"/>
        <path d="M23.7837 38.9189H21.6216V41.0811H23.7837V38.9189Z" fill="black"/>
        <path d="M25.9459 38.9189H23.7837V41.0811H25.9459V38.9189Z" fill="black"/>
        <path d="M32.4324 38.9189H30.2703V41.0811H32.4324V38.9189Z" fill="black"/>
        <path d="M34.5945 38.9189H32.4324V41.0811H34.5945V38.9189Z" fill="black"/>
        <path d="M36.7566 38.9189H34.5945V41.0811H36.7566V38.9189Z" fill="black"/>
        <path d="M41.0809 38.9189H38.9187V41.0811H41.0809V38.9189Z" fill="black"/>
        <path d="M49.7295 38.9189H47.5674V41.0811H49.7295V38.9189Z" fill="black"/>
        <path d="M54.054 38.9189H51.8918V41.0811H54.054V38.9189Z" fill="black"/>
        <path d="M60.5403 38.9189H58.3782V41.0811H60.5403V38.9189Z" fill="black"/>
        <path d="M62.7027 38.9189H60.5405V41.0811H62.7027V38.9189Z" fill="black"/>
        <path d="M64.8648 38.9189H62.7026V41.0811H64.8648V38.9189Z" fill="black"/>
        <path d="M67.0269 38.9189H64.8647V41.0811H67.0269V38.9189Z" fill="black"/>
        <path d="M69.189 38.9189H67.0269V41.0811H69.189V38.9189Z" fill="black"/>
        <path d="M6.48638 41.0811H4.32422V43.2432H6.48638V41.0811Z" fill="black"/>
        <path d="M10.8106 41.0811H8.64844V43.2432H10.8106V41.0811Z" fill="black"/>
        <path d="M12.973 41.0811H10.8108V43.2432H12.973V41.0811Z" fill="black"/>
        <path d="M15.1351 41.0811H12.9729V43.2432H15.1351V41.0811Z" fill="black"/>
        <path d="M17.2972 41.0811H15.135V43.2432H17.2972V41.0811Z" fill="black"/>
        <path d="M21.6216 41.0811H19.4595V43.2432H21.6216V41.0811Z" fill="black"/>
        <path d="M23.7837 41.0811H21.6216V43.2432H23.7837V41.0811Z" fill="black"/>
        <path d="M25.9459 41.0811H23.7837V43.2432H25.9459V41.0811Z" fill="black"/>
        <path d="M30.2701 41.0811H28.1079V43.2432H30.2701V41.0811Z" fill="black"/>
        <path d="M38.9188 41.0811H36.7566V43.2432H38.9188V41.0811Z" fill="black"/>
        <path d="M47.5674 41.0811H45.4053V43.2432H47.5674V41.0811Z" fill="black"/>
        <path d="M49.7295 41.0811H47.5674V43.2432H49.7295V41.0811Z" fill="black"/>
        <path d="M62.7027 41.0811H60.5405V43.2432H62.7027V41.0811Z" fill="black"/>
        <path d="M67.0269 41.0811H64.8647V43.2432H67.0269V41.0811Z" fill="black"/>
        <path d="M71.3511 41.0811H69.189V43.2432H71.3511V41.0811Z" fill="black"/>
        <path d="M73.5135 41.0811H71.3513V43.2432H73.5135V41.0811Z" fill="black"/>
        <path d="M75.6756 41.0811H73.5134V43.2432H75.6756V41.0811Z" fill="black"/>
        <path d="M6.48638 43.2432H4.32422V45.4054H6.48638V43.2432Z" fill="black"/>
        <path d="M8.64849 43.2432H6.48633V45.4054H8.64849V43.2432Z" fill="black"/>
        <path d="M10.8106 43.2432H8.64844V45.4054H10.8106V43.2432Z" fill="black"/>
        <path d="M12.973 43.2432H10.8108V45.4054H12.973V43.2432Z" fill="black"/>
        <path d="M15.1351 43.2432H12.9729V45.4054H15.1351V43.2432Z" fill="black"/>
        <path d="M17.2972 43.2432H15.135V45.4054H17.2972V43.2432Z" fill="black"/>
        <path d="M19.4593 43.2432H17.2971V45.4054H19.4593V43.2432Z" fill="black"/>
        <path d="M23.7837 43.2432H21.6216V45.4054H23.7837V43.2432Z" fill="black"/>
        <path d="M28.108 43.2432H25.9458V45.4054H28.108V43.2432Z" fill="black"/>
        <path d="M32.4324 43.2432H30.2703V45.4054H32.4324V43.2432Z" fill="black"/>
        <path d="M36.7566 43.2432H34.5945V45.4054H36.7566V43.2432Z" fill="black"/>
        <path d="M38.9188 43.2432H36.7566V45.4054H38.9188V43.2432Z" fill="black"/>
        <path d="M47.5674 43.2432H45.4053V45.4054H47.5674V43.2432Z" fill="black"/>
        <path d="M49.7295 43.2432H47.5674V45.4054H49.7295V43.2432Z" fill="black"/>
        <path d="M51.8919 43.2432H49.7297V45.4054H51.8919V43.2432Z" fill="black"/>
        <path d="M56.2161 43.2432H54.054V45.4054H56.2161V43.2432Z" fill="black"/>
        <path d="M58.3782 43.2432H56.2161V45.4054H58.3782V43.2432Z" fill="black"/>
        <path d="M60.5403 43.2432H58.3782V45.4054H60.5403V43.2432Z" fill="black"/>
        <path d="M62.7027 43.2432H60.5405V45.4054H62.7027V43.2432Z" fill="black"/>
        <path d="M64.8648 43.2432H62.7026V45.4054H64.8648V43.2432Z" fill="black"/>
        <path d="M69.189 43.2432H67.0269V45.4054H69.189V43.2432Z" fill="black"/>
        <path d="M71.3511 43.2432H69.189V45.4054H71.3511V43.2432Z" fill="black"/>
        <path d="M75.6756 43.2432H73.5134V45.4054H75.6756V43.2432Z" fill="black"/>
        <path d="M6.48638 45.4054H4.32422V47.5676H6.48638V45.4054Z" fill="black"/>
        <path d="M10.8106 45.4054H8.64844V47.5676H10.8106V45.4054Z" fill="black"/>
        <path d="M15.1351 45.4054H12.9729V47.5676H15.1351V45.4054Z" fill="black"/>
        <path d="M17.2972 45.4054H15.135V47.5676H17.2972V45.4054Z" fill="black"/>
        <path d="M23.7837 45.4054H21.6216V47.5676H23.7837V45.4054Z" fill="black"/>
        <path d="M25.9459 45.4054H23.7837V47.5676H25.9459V45.4054Z" fill="black"/>
        <path d="M28.108 45.4054H25.9458V47.5676H28.108V45.4054Z" fill="black"/>
        <path d="M30.2701 45.4054H28.1079V47.5676H30.2701V45.4054Z" fill="black"/>
        <path d="M36.7566 45.4054H34.5945V47.5676H36.7566V45.4054Z" fill="black"/>
        <path d="M43.2432 45.4054H41.0811V47.5676H43.2432V45.4054Z" fill="black"/>
        <path d="M45.4053 45.4054H43.2432V47.5676H45.4053V45.4054Z" fill="black"/>
        <path d="M54.054 45.4054H51.8918V47.5676H54.054V45.4054Z" fill="black"/>
        <path d="M58.3782 45.4054H56.2161V47.5676H58.3782V45.4054Z" fill="black"/>
        <path d="M62.7027 45.4054H60.5405V47.5676H62.7027V45.4054Z" fill="black"/>
        <path d="M67.0269 45.4054H64.8647V47.5676H67.0269V45.4054Z" fill="black"/>
        <path d="M69.189 45.4054H67.0269V47.5676H69.189V45.4054Z" fill="black"/>
        <path d="M71.3511 45.4054H69.189V47.5676H71.3511V45.4054Z" fill="black"/>
        <path d="M19.4593 47.5676H17.2971V49.7297H19.4593V47.5676Z" fill="black"/>
        <path d="M25.9459 47.5676H23.7837V49.7297H25.9459V47.5676Z" fill="black"/>
        <path d="M28.108 47.5676H25.9458V49.7297H28.108V47.5676Z" fill="black"/>
        <path d="M32.4324 47.5676H30.2703V49.7297H32.4324V47.5676Z" fill="black"/>
        <path d="M34.5945 47.5676H32.4324V49.7297H34.5945V47.5676Z" fill="black"/>
        <path d="M38.9188 47.5676H36.7566V49.7297H38.9188V47.5676Z" fill="black"/>
        <path d="M49.7295 47.5676H47.5674V49.7297H49.7295V47.5676Z" fill="black"/>
        <path d="M54.054 47.5676H51.8918V49.7297H54.054V47.5676Z" fill="black"/>
        <path d="M58.3782 47.5676H56.2161V49.7297H58.3782V47.5676Z" fill="black"/>
        <path d="M64.8648 47.5676H62.7026V49.7297H64.8648V47.5676Z" fill="black"/>
        <path d="M69.189 47.5676H67.0269V49.7297H69.189V47.5676Z" fill="black"/>
        <path d="M73.5135 47.5676H71.3513V49.7297H73.5135V47.5676Z" fill="black"/>
        <path d="M6.48638 49.7297H4.32422V51.8919H6.48638V49.7297Z" fill="black"/>
        <path d="M8.64849 49.7297H6.48633V51.8919H8.64849V49.7297Z" fill="black"/>
        <path d="M15.1351 49.7297H12.9729V51.8919H15.1351V49.7297Z" fill="black"/>
        <path d="M25.9459 49.7297H23.7837V51.8919H25.9459V49.7297Z" fill="black"/>
        <path d="M28.108 49.7297H25.9458V51.8919H28.108V49.7297Z" fill="black"/>
        <path d="M30.2701 49.7297H28.1079V51.8919H30.2701V49.7297Z" fill="black"/>
        <path d="M32.4324 49.7297H30.2703V51.8919H32.4324V49.7297Z" fill="black"/>
        <path d="M36.7566 49.7297H34.5945V51.8919H36.7566V49.7297Z" fill="black"/>
        <path d="M41.0809 49.7297H38.9187V51.8919H41.0809V49.7297Z" fill="black"/>
        <path d="M45.4053 49.7297H43.2432V51.8919H45.4053V49.7297Z" fill="black"/>
        <path d="M47.5674 49.7297H45.4053V51.8919H47.5674V49.7297Z" fill="black"/>
        <path d="M49.7295 49.7297H47.5674V51.8919H49.7295V49.7297Z" fill="black"/>
        <path d="M56.2161 49.7297H54.054V51.8919H56.2161V49.7297Z" fill="black"/>
        <path d="M60.5403 49.7297H58.3782V51.8919H60.5403V49.7297Z" fill="black"/>
        <path d="M64.8648 49.7297H62.7026V51.8919H64.8648V49.7297Z" fill="black"/>
        <path d="M67.0269 49.7297H64.8647V51.8919H67.0269V49.7297Z" fill="black"/>
        <path d="M71.3511 49.7297H69.189V51.8919H71.3511V49.7297Z" fill="black"/>
        <path d="M6.48638 51.8919H4.32422V54.0541H6.48638V51.8919Z" fill="black"/>
        <path d="M10.8106 51.8919H8.64844V54.0541H10.8106V51.8919Z" fill="black"/>
        <path d="M15.1351 51.8919H12.9729V54.0541H15.1351V51.8919Z" fill="black"/>
        <path d="M17.2972 51.8919H15.135V54.0541H17.2972V51.8919Z" fill="black"/>
        <path d="M19.4593 51.8919H17.2971V54.0541H19.4593V51.8919Z" fill="black"/>
        <path d="M21.6216 51.8919H19.4595V54.0541H21.6216V51.8919Z" fill="black"/>
        <path d="M23.7837 51.8919H21.6216V54.0541H23.7837V51.8919Z" fill="black"/>
        <path d="M25.9459 51.8919H23.7837V54.0541H25.9459V51.8919Z" fill="black"/>
        <path d="M28.108 51.8919H25.9458V54.0541H28.108V51.8919Z" fill="black"/>
        <path d="M38.9188 51.8919H36.7566V54.0541H38.9188V51.8919Z" fill="black"/>
        <path d="M41.0809 51.8919H38.9187V54.0541H41.0809V51.8919Z" fill="black"/>
        <path d="M43.2432 51.8919H41.0811V54.0541H43.2432V51.8919Z" fill="black"/>
        <path d="M51.8919 51.8919H49.7297V54.0541H51.8919V51.8919Z" fill="black"/>
        <path d="M56.2161 51.8919H54.054V54.0541H56.2161V51.8919Z" fill="black"/>
        <path d="M62.7027 51.8919H60.5405V54.0541H62.7027V51.8919Z" fill="black"/>
        <path d="M71.3511 51.8919H69.189V54.0541H71.3511V51.8919Z" fill="black"/>
        <path d="M73.5135 51.8919H71.3513V54.0541H73.5135V51.8919Z" fill="black"/>
        <path d="M75.6756 51.8919H73.5134V54.0541H75.6756V51.8919Z" fill="black"/>
        <path d="M6.48638 54.054H4.32422V56.2162H6.48638V54.054Z" fill="black"/>
        <path d="M10.8106 54.054H8.64844V56.2162H10.8106V54.054Z" fill="black"/>
        <path d="M15.1351 54.054H12.9729V56.2162H15.1351V54.054Z" fill="black"/>
        <path d="M17.2972 54.054H15.135V56.2162H17.2972V54.054Z" fill="black"/>
        <path d="M21.6216 54.054H19.4595V56.2162H21.6216V54.054Z" fill="black"/>
        <path d="M28.108 54.054H25.9458V56.2162H28.108V54.054Z" fill="black"/>
        <path d="M32.4324 54.054H30.2703V56.2162H32.4324V54.054Z" fill="black"/>
        <path d="M34.5945 54.054H32.4324V56.2162H34.5945V54.054Z" fill="black"/>
        <path d="M41.0809 54.054H38.9187V56.2162H41.0809V54.054Z" fill="black"/>
        <path d="M43.2432 54.054H41.0811V56.2162H43.2432V54.054Z" fill="black"/>
        <path d="M47.5674 54.054H45.4053V56.2162H47.5674V54.054Z" fill="black"/>
        <path d="M49.7295 54.054H47.5674V56.2162H49.7295V54.054Z" fill="black"/>
        <path d="M54.054 54.054H51.8918V56.2162H54.054V54.054Z" fill="black"/>
        <path d="M60.5403 54.054H58.3782V56.2162H60.5403V54.054Z" fill="black"/>
        <path d="M64.8648 54.054H62.7026V56.2162H64.8648V54.054Z" fill="black"/>
        <path d="M71.3511 54.054H69.189V56.2162H71.3511V54.054Z" fill="black"/>
        <path d="M75.6756 54.054H73.5134V56.2162H75.6756V54.054Z" fill="black"/>
        <path d="M6.48638 56.2162H4.32422V58.3784H6.48638V56.2162Z" fill="black"/>
        <path d="M8.64849 56.2162H6.48633V58.3784H8.64849V56.2162Z" fill="black"/>
        <path d="M19.4593 56.2162H17.2971V58.3784H19.4593V56.2162Z" fill="black"/>
        <path d="M21.6216 56.2162H19.4595V58.3784H21.6216V56.2162Z" fill="black"/>
        <path d="M30.2701 56.2162H28.1079V58.3784H30.2701V56.2162Z" fill="black"/>
        <path d="M32.4324 56.2162H30.2703V58.3784H32.4324V56.2162Z" fill="black"/>
        <path d="M38.9188 56.2162H36.7566V58.3784H38.9188V56.2162Z" fill="black"/>
        <path d="M41.0809 56.2162H38.9187V58.3784H41.0809V56.2162Z" fill="black"/>
        <path d="M47.5674 56.2162H45.4053V58.3784H47.5674V56.2162Z" fill="black"/>
        <path d="M49.7295 56.2162H47.5674V58.3784H49.7295V56.2162Z" fill="black"/>
        <path d="M58.3782 56.2162H56.2161V58.3784H58.3782V56.2162Z" fill="black"/>
        <path d="M60.5403 56.2162H58.3782V58.3784H60.5403V56.2162Z" fill="black"/>
        <path d="M62.7027 56.2162H60.5405V58.3784H62.7027V56.2162Z" fill="black"/>
        <path d="M64.8648 56.2162H62.7026V58.3784H64.8648V56.2162Z" fill="black"/>
        <path d="M67.0269 56.2162H64.8647V58.3784H67.0269V56.2162Z" fill="black"/>
        <path d="M69.189 56.2162H67.0269V58.3784H69.189V56.2162Z" fill="black"/>
        <path d="M75.6756 56.2162H73.5134V58.3784H75.6756V56.2162Z" fill="black"/>
        <path d="M23.7837 58.3784H21.6216V60.5405H23.7837V58.3784Z" fill="black"/>
        <path d="M25.9459 58.3784H23.7837V60.5405H25.9459V58.3784Z" fill="black"/>
        <path d="M28.108 58.3784H25.9458V60.5405H28.108V58.3784Z" fill="black"/>
        <path d="M30.2701 58.3784H28.1079V60.5405H30.2701V58.3784Z" fill="black"/>
        <path d="M38.9188 58.3784H36.7566V60.5405H38.9188V58.3784Z" fill="black"/>
        <path d="M41.0809 58.3784H38.9187V60.5405H41.0809V58.3784Z" fill="black"/>
        <path d="M49.7295 58.3784H47.5674V60.5405H49.7295V58.3784Z" fill="black"/>
        <path d="M56.2161 58.3784H54.054V60.5405H56.2161V58.3784Z" fill="black"/>
        <path d="M58.3782 58.3784H56.2161V60.5405H58.3782V58.3784Z" fill="black"/>
        <path d="M67.0269 58.3784H64.8647V60.5405H67.0269V58.3784Z" fill="black"/>
        <path d="M71.3511 58.3784H69.189V60.5405H71.3511V58.3784Z" fill="black"/>
        <path d="M73.5135 58.3784H71.3513V60.5405H73.5135V58.3784Z" fill="black"/>
        <path d="M23.7837 60.5405H21.6216V62.7027H23.7837V60.5405Z" fill="black"/>
        <path d="M25.9459 60.5405H23.7837V62.7027H25.9459V60.5405Z" fill="black"/>
        <path d="M30.2701 60.5405H28.1079V62.7027H30.2701V60.5405Z" fill="black"/>
        <path d="M34.5945 60.5405H32.4324V62.7027H34.5945V60.5405Z" fill="black"/>
        <path d="M36.7566 60.5405H34.5945V62.7027H36.7566V60.5405Z" fill="black"/>
        <path d="M38.9188 60.5405H36.7566V62.7027H38.9188V60.5405Z" fill="black"/>
        <path d="M45.4053 60.5405H43.2432V62.7027H45.4053V60.5405Z" fill="black"/>
        <path d="M47.5674 60.5405H45.4053V62.7027H47.5674V60.5405Z" fill="black"/>
        <path d="M49.7295 60.5405H47.5674V62.7027H49.7295V60.5405Z" fill="black"/>
        <path d="M51.8919 60.5405H49.7297V62.7027H51.8919V60.5405Z" fill="black"/>
        <path d="M54.054 60.5405H51.8918V62.7027H54.054V60.5405Z" fill="black"/>
        <path d="M56.2161 60.5405H54.054V62.7027H56.2161V60.5405Z" fill="black"/>
        <path d="M58.3782 60.5405H56.2161V62.7027H58.3782V60.5405Z" fill="black"/>
        <path d="M62.7027 60.5405H60.5405V62.7027H62.7027V60.5405Z" fill="black"/>
        <path d="M67.0269 60.5405H64.8647V62.7027H67.0269V60.5405Z" fill="black"/>
        <path d="M71.3511 60.5405H69.189V62.7027H71.3511V60.5405Z" fill="black"/>
        <path d="M23.7837 62.7027H21.6216V64.8649H23.7837V62.7027Z" fill="black"/>
        <path d="M25.9459 62.7027H23.7837V64.8649H25.9459V62.7027Z" fill="black"/>
        <path d="M28.108 62.7027H25.9458V64.8649H28.108V62.7027Z" fill="black"/>
        <path d="M32.4324 62.7027H30.2703V64.8649H32.4324V62.7027Z" fill="black"/>
        <path d="M38.9188 62.7027H36.7566V64.8649H38.9188V62.7027Z" fill="black"/>
        <path d="M54.054 62.7027H51.8918V64.8649H54.054V62.7027Z" fill="black"/>
        <path d="M56.2161 62.7027H54.054V64.8649H56.2161V62.7027Z" fill="black"/>
        <path d="M58.3782 62.7027H56.2161V64.8649H58.3782V62.7027Z" fill="black"/>
        <path d="M67.0269 62.7027H64.8647V64.8649H67.0269V62.7027Z" fill="black"/>
        <path d="M69.189 62.7027H67.0269V64.8649H69.189V62.7027Z" fill="black"/>
        <path d="M71.3511 62.7027H69.189V64.8649H71.3511V62.7027Z" fill="black"/>
        <path d="M73.5135 62.7027H71.3513V64.8649H73.5135V62.7027Z" fill="black"/>
        <path d="M75.6756 62.7027H73.5134V64.8649H75.6756V62.7027Z" fill="black"/>
        <path d="M23.7837 64.8649H21.6216V67.027H23.7837V64.8649Z" fill="black"/>
        <path d="M28.108 64.8649H25.9458V67.027H28.108V64.8649Z" fill="black"/>
        <path d="M30.2701 64.8649H28.1079V67.027H30.2701V64.8649Z" fill="black"/>
        <path d="M32.4324 64.8649H30.2703V67.027H32.4324V64.8649Z" fill="black"/>
        <path d="M36.7566 64.8649H34.5945V67.027H36.7566V64.8649Z" fill="black"/>
        <path d="M43.2432 64.8649H41.0811V67.027H43.2432V64.8649Z" fill="black"/>
        <path d="M45.4053 64.8649H43.2432V67.027H45.4053V64.8649Z" fill="black"/>
        <path d="M56.2161 64.8649H54.054V67.027H56.2161V64.8649Z" fill="black"/>
        <path d="M58.3782 64.8649H56.2161V67.027H58.3782V64.8649Z" fill="black"/>
        <path d="M60.5403 64.8649H58.3782V67.027H60.5403V64.8649Z" fill="black"/>
        <path d="M62.7027 64.8649H60.5405V67.027H62.7027V64.8649Z" fill="black"/>
        <path d="M64.8648 64.8649H62.7026V67.027H64.8648V64.8649Z" fill="black"/>
        <path d="M67.0269 64.8649H64.8647V67.027H67.0269V64.8649Z" fill="black"/>
        <path d="M75.6756 64.8649H73.5134V67.027H75.6756V64.8649Z" fill="black"/>
        <path d="M23.7837 67.027H21.6216V69.1892H23.7837V67.027Z" fill="black"/>
        <path d="M25.9459 67.027H23.7837V69.1892H25.9459V67.027Z" fill="black"/>
        <path d="M28.108 67.027H25.9458V69.1892H28.108V67.027Z" fill="black"/>
        <path d="M32.4324 67.027H30.2703V69.1892H32.4324V67.027Z" fill="black"/>
        <path d="M34.5945 67.027H32.4324V69.1892H34.5945V67.027Z" fill="black"/>
        <path d="M43.2432 67.027H41.0811V69.1892H43.2432V67.027Z" fill="black"/>
        <path d="M47.5674 67.027H45.4053V69.1892H47.5674V67.027Z" fill="black"/>
        <path d="M51.8919 67.027H49.7297V69.1892H51.8919V67.027Z" fill="black"/>
        <path d="M56.2161 67.027H54.054V69.1892H56.2161V67.027Z" fill="black"/>
        <path d="M58.3782 67.027H56.2161V69.1892H58.3782V67.027Z" fill="black"/>
        <path d="M60.5403 67.027H58.3782V69.1892H60.5403V67.027Z" fill="black"/>
        <path d="M64.8648 67.027H62.7026V69.1892H64.8648V67.027Z" fill="black"/>
        <path d="M73.5135 67.027H71.3513V69.1892H73.5135V67.027Z" fill="black"/>
        <path d="M75.6756 67.027H73.5134V69.1892H75.6756V67.027Z" fill="black"/>
        <path d="M30.2701 69.1892H28.1079V71.3514H30.2701V69.1892Z" fill="black"/>
        <path d="M41.0809 69.1892H38.9187V71.3514H41.0809V69.1892Z" fill="black"/>
        <path d="M45.4053 69.1892H43.2432V71.3514H45.4053V69.1892Z" fill="black"/>
        <path d="M47.5674 69.1892H45.4053V71.3514H47.5674V69.1892Z" fill="black"/>
        <path d="M49.7295 69.1892H47.5674V71.3514H49.7295V69.1892Z" fill="black"/>
        <path d="M51.8919 69.1892H49.7297V71.3514H51.8919V69.1892Z" fill="black"/>
        <path d="M56.2161 69.1892H54.054V71.3514H56.2161V69.1892Z" fill="black"/>
        <path d="M58.3782 69.1892H56.2161V71.3514H58.3782V69.1892Z" fill="black"/>
        <path d="M64.8648 69.1892H62.7026V71.3514H64.8648V69.1892Z" fill="black"/>
        <path d="M67.0269 69.1892H64.8647V71.3514H67.0269V69.1892Z" fill="black"/>
        <path d="M69.189 69.1892H67.0269V71.3514H69.189V69.1892Z" fill="black"/>
        <path d="M71.3511 69.1892H69.189V71.3514H71.3511V69.1892Z" fill="black"/>
        <path d="M73.5135 69.1892H71.3513V71.3514H73.5135V69.1892Z" fill="black"/>
        <path d="M75.6756 69.1892H73.5134V71.3514H75.6756V69.1892Z" fill="black"/>
        <path d="M25.9459 71.3513H23.7837V73.5135H25.9459V71.3513Z" fill="black"/>
        <path d="M30.2701 71.3513H28.1079V73.5135H30.2701V71.3513Z" fill="black"/>
        <path d="M34.5945 71.3513H32.4324V73.5135H34.5945V71.3513Z" fill="black"/>
        <path d="M38.9188 71.3513H36.7566V73.5135H38.9188V71.3513Z" fill="black"/>
        <path d="M41.0809 71.3513H38.9187V73.5135H41.0809V71.3513Z" fill="black"/>
        <path d="M47.5674 71.3513H45.4053V73.5135H47.5674V71.3513Z" fill="black"/>
        <path d="M49.7295 71.3513H47.5674V73.5135H49.7295V71.3513Z" fill="black"/>
        <path d="M62.7027 71.3513H60.5405V73.5135H62.7027V71.3513Z" fill="black"/>
        <path d="M64.8648 71.3513H62.7026V73.5135H64.8648V71.3513Z" fill="black"/>
        <path d="M67.0269 71.3513H64.8647V73.5135H67.0269V71.3513Z" fill="black"/>
        <path d="M71.3511 71.3513H69.189V73.5135H71.3511V71.3513Z" fill="black"/>
        <path d="M73.5135 71.3513H71.3513V73.5135H73.5135V71.3513Z" fill="black"/>
        <path d="M75.6756 71.3513H73.5134V73.5135H75.6756V71.3513Z" fill="black"/>
        <path d="M23.7837 73.5135H21.6216V75.6757H23.7837V73.5135Z" fill="black"/>
        <path d="M25.9459 73.5135H23.7837V75.6757H25.9459V73.5135Z" fill="black"/>
        <path d="M28.108 73.5135H25.9458V75.6757H28.108V73.5135Z" fill="black"/>
        <path d="M32.4324 73.5135H30.2703V75.6757H32.4324V73.5135Z" fill="black"/>
        <path d="M41.0809 73.5135H38.9187V75.6757H41.0809V73.5135Z" fill="black"/>
        <path d="M43.2432 73.5135H41.0811V75.6757H43.2432V73.5135Z" fill="black"/>
        <path d="M45.4053 73.5135H43.2432V75.6757H45.4053V73.5135Z" fill="black"/>
        <path d="M58.3782 73.5135H56.2161V75.6757H58.3782V73.5135Z" fill="black"/>
        <path d="M60.5403 73.5135H58.3782V75.6757H60.5403V73.5135Z" fill="black"/>
        <path d="M64.8648 73.5135H62.7026V75.6757H64.8648V73.5135Z" fill="black"/>
        <path d="M67.0269 73.5135H64.8647V75.6757H67.0269V73.5135Z" fill="black"/>
        <path d="M17.1891 4.32433H6.59449H4.32422V6.5946V17.1892V19.4595H6.59449H17.1891H19.4594V17.1892V6.5946V4.32433H17.1891ZM17.1891 17.1892H6.59449V6.5946H17.1891V17.1892Z" fill="black"/>
        <path d="M73.4054 4.32433H62.8108H60.5405V6.5946V17.1892V19.4595H62.8108H73.4054H75.6757V17.1892V6.5946V4.32433H73.4054ZM73.4054 17.1892H62.8108V6.5946H73.4054V17.1892Z" fill="black"/>
        <path d="M17.1891 60.5405H6.59449H4.32422V62.8108V73.4054V75.6757H6.59449H17.1891H19.4594V73.4054V62.8108V60.5405H17.1891ZM17.1891 73.4054H6.59449V62.8108H17.1891V73.4054Z" fill="black"/>
        <path d="M15.1349 8.64865H8.64844V15.1351H15.1349V8.64865Z" fill="black"/>
        <path d="M71.3512 8.64865H64.8647V15.1351H71.3512V8.64865Z" fill="black"/>
        <path d="M15.1349 64.8649H8.64844V71.3514H15.1349V64.8649Z" fill="black"/>
    </g>
    <defs>
        <clipPath id="clip0_11914_377740">
            <rect width="80" height="80" fill="white"/>
        </clipPath>
    </defs>
</svg>
