<?xml version="1.0" standalone="no"?>
<svg xmlns="http://www.w3.org/2000/svg" version="1.1" width="264" height="264">
	<!-- Created with https://api.qrserver.com (QR Code API, see goQR.me/api for information) -->
	<title>QR Code</title>
	<desc>https://testflight.apple.com/join/5JP64q4v</desc>
	<rect style="fill:rgb(255, 255, 255);fill-opacity:1" x="0" y="0" width="264" height="264" />
	<g id="elements">
		<path style="fill:rgb(0, 0, 0)" d="M 16,16 l 8,0 0,8 -8,0 z M 24,16 l 8,0 0,8 -8,0 z M 32,16 l 8,0 0,8 -8,0 z M 40,16 l 8,0 0,8 -8,0 z M 48,16 l 8,0 0,8 -8,0 z M 56,16 l 8,0 0,8 -8,0 z M 64,16 l 8,0 0,8 -8,0 z M 96,16 l 8,0 0,8 -8,0 z M 112,16 l 8,0 0,8 -8,0 z M 120,16 l 8,0 0,8 -8,0 z M 144,16 l 8,0 0,8 -8,0 z M 152,16 l 8,0 0,8 -8,0 z M 160,16 l 8,0 0,8 -8,0 z M 168,16 l 8,0 0,8 -8,0 z M 176,16 l 8,0 0,8 -8,0 z M 192,16 l 8,0 0,8 -8,0 z M 200,16 l 8,0 0,8 -8,0 z M 208,16 l 8,0 0,8 -8,0 z M 216,16 l 8,0 0,8 -8,0 z M 224,16 l 8,0 0,8 -8,0 z M 232,16 l 8,0 0,8 -8,0 z M 240,16 l 8,0 0,8 -8,0 z M 16,24 l 8,0 0,8 -8,0 z M 64,24 l 8,0 0,8 -8,0 z M 80,24 l 8,0 0,8 -8,0 z M 96,24 l 8,0 0,8 -8,0 z M 120,24 l 8,0 0,8 -8,0 z M 128,24 l 8,0 0,8 -8,0 z M 136,24 l 8,0 0,8 -8,0 z M 192,24 l 8,0 0,8 -8,0 z M 240,24 l 8,0 0,8 -8,0 z M 16,32 l 8,0 0,8 -8,0 z M 32,32 l 8,0 0,8 -8,0 z M 40,32 l 8,0 0,8 -8,0 z M 48,32 l 8,0 0,8 -8,0 z M 64,32 l 8,0 0,8 -8,0 z M 112,32 l 8,0 0,8 -8,0 z M 136,32 l 8,0 0,8 -8,0 z M 144,32 l 8,0 0,8 -8,0 z M 160,32 l 8,0 0,8 -8,0 z M 192,32 l 8,0 0,8 -8,0 z M 208,32 l 8,0 0,8 -8,0 z M 216,32 l 8,0 0,8 -8,0 z M 224,32 l 8,0 0,8 -8,0 z M 240,32 l 8,0 0,8 -8,0 z M 16,40 l 8,0 0,8 -8,0 z M 32,40 l 8,0 0,8 -8,0 z M 40,40 l 8,0 0,8 -8,0 z M 48,40 l 8,0 0,8 -8,0 z M 64,40 l 8,0 0,8 -8,0 z M 80,40 l 8,0 0,8 -8,0 z M 88,40 l 8,0 0,8 -8,0 z M 96,40 l 8,0 0,8 -8,0 z M 112,40 l 8,0 0,8 -8,0 z M 136,40 l 8,0 0,8 -8,0 z M 144,40 l 8,0 0,8 -8,0 z M 152,40 l 8,0 0,8 -8,0 z M 176,40 l 8,0 0,8 -8,0 z M 192,40 l 8,0 0,8 -8,0 z M 208,40 l 8,0 0,8 -8,0 z M 216,40 l 8,0 0,8 -8,0 z M 224,40 l 8,0 0,8 -8,0 z M 240,40 l 8,0 0,8 -8,0 z M 16,48 l 8,0 0,8 -8,0 z M 32,48 l 8,0 0,8 -8,0 z M 40,48 l 8,0 0,8 -8,0 z M 48,48 l 8,0 0,8 -8,0 z M 64,48 l 8,0 0,8 -8,0 z M 88,48 l 8,0 0,8 -8,0 z M 136,48 l 8,0 0,8 -8,0 z M 160,48 l 8,0 0,8 -8,0 z M 168,48 l 8,0 0,8 -8,0 z M 176,48 l 8,0 0,8 -8,0 z M 192,48 l 8,0 0,8 -8,0 z M 208,48 l 8,0 0,8 -8,0 z M 216,48 l 8,0 0,8 -8,0 z M 224,48 l 8,0 0,8 -8,0 z M 240,48 l 8,0 0,8 -8,0 z M 16,56 l 8,0 0,8 -8,0 z M 64,56 l 8,0 0,8 -8,0 z M 80,56 l 8,0 0,8 -8,0 z M 88,56 l 8,0 0,8 -8,0 z M 104,56 l 8,0 0,8 -8,0 z M 112,56 l 8,0 0,8 -8,0 z M 128,56 l 8,0 0,8 -8,0 z M 144,56 l 8,0 0,8 -8,0 z M 192,56 l 8,0 0,8 -8,0 z M 240,56 l 8,0 0,8 -8,0 z M 16,64 l 8,0 0,8 -8,0 z M 24,64 l 8,0 0,8 -8,0 z M 32,64 l 8,0 0,8 -8,0 z M 40,64 l 8,0 0,8 -8,0 z M 48,64 l 8,0 0,8 -8,0 z M 56,64 l 8,0 0,8 -8,0 z M 64,64 l 8,0 0,8 -8,0 z M 80,64 l 8,0 0,8 -8,0 z M 96,64 l 8,0 0,8 -8,0 z M 112,64 l 8,0 0,8 -8,0 z M 128,64 l 8,0 0,8 -8,0 z M 144,64 l 8,0 0,8 -8,0 z M 160,64 l 8,0 0,8 -8,0 z M 176,64 l 8,0 0,8 -8,0 z M 192,64 l 8,0 0,8 -8,0 z M 200,64 l 8,0 0,8 -8,0 z M 208,64 l 8,0 0,8 -8,0 z M 216,64 l 8,0 0,8 -8,0 z M 224,64 l 8,0 0,8 -8,0 z M 232,64 l 8,0 0,8 -8,0 z M 240,64 l 8,0 0,8 -8,0 z M 88,72 l 8,0 0,8 -8,0 z M 96,72 l 8,0 0,8 -8,0 z M 104,72 l 8,0 0,8 -8,0 z M 144,72 l 8,0 0,8 -8,0 z M 16,80 l 8,0 0,8 -8,0 z M 24,80 l 8,0 0,8 -8,0 z M 32,80 l 8,0 0,8 -8,0 z M 40,80 l 8,0 0,8 -8,0 z M 48,80 l 8,0 0,8 -8,0 z M 64,80 l 8,0 0,8 -8,0 z M 72,80 l 8,0 0,8 -8,0 z M 80,80 l 8,0 0,8 -8,0 z M 88,80 l 8,0 0,8 -8,0 z M 104,80 l 8,0 0,8 -8,0 z M 128,80 l 8,0 0,8 -8,0 z M 136,80 l 8,0 0,8 -8,0 z M 144,80 l 8,0 0,8 -8,0 z M 152,80 l 8,0 0,8 -8,0 z M 160,80 l 8,0 0,8 -8,0 z M 176,80 l 8,0 0,8 -8,0 z M 184,80 l 8,0 0,8 -8,0 z M 200,80 l 8,0 0,8 -8,0 z M 216,80 l 8,0 0,8 -8,0 z M 232,80 l 8,0 0,8 -8,0 z M 24,88 l 8,0 0,8 -8,0 z M 40,88 l 8,0 0,8 -8,0 z M 56,88 l 8,0 0,8 -8,0 z M 72,88 l 8,0 0,8 -8,0 z M 80,88 l 8,0 0,8 -8,0 z M 96,88 l 8,0 0,8 -8,0 z M 112,88 l 8,0 0,8 -8,0 z M 120,88 l 8,0 0,8 -8,0 z M 152,88 l 8,0 0,8 -8,0 z M 160,88 l 8,0 0,8 -8,0 z M 168,88 l 8,0 0,8 -8,0 z M 176,88 l 8,0 0,8 -8,0 z M 184,88 l 8,0 0,8 -8,0 z M 192,88 l 8,0 0,8 -8,0 z M 200,88 l 8,0 0,8 -8,0 z M 208,88 l 8,0 0,8 -8,0 z M 240,88 l 8,0 0,8 -8,0 z M 16,96 l 8,0 0,8 -8,0 z M 24,96 l 8,0 0,8 -8,0 z M 40,96 l 8,0 0,8 -8,0 z M 48,96 l 8,0 0,8 -8,0 z M 56,96 l 8,0 0,8 -8,0 z M 64,96 l 8,0 0,8 -8,0 z M 72,96 l 8,0 0,8 -8,0 z M 96,96 l 8,0 0,8 -8,0 z M 136,96 l 8,0 0,8 -8,0 z M 152,96 l 8,0 0,8 -8,0 z M 176,96 l 8,0 0,8 -8,0 z M 208,96 l 8,0 0,8 -8,0 z M 16,104 l 8,0 0,8 -8,0 z M 24,104 l 8,0 0,8 -8,0 z M 32,104 l 8,0 0,8 -8,0 z M 72,104 l 8,0 0,8 -8,0 z M 80,104 l 8,0 0,8 -8,0 z M 112,104 l 8,0 0,8 -8,0 z M 128,104 l 8,0 0,8 -8,0 z M 136,104 l 8,0 0,8 -8,0 z M 160,104 l 8,0 0,8 -8,0 z M 184,104 l 8,0 0,8 -8,0 z M 192,104 l 8,0 0,8 -8,0 z M 200,104 l 8,0 0,8 -8,0 z M 208,104 l 8,0 0,8 -8,0 z M 216,104 l 8,0 0,8 -8,0 z M 232,104 l 8,0 0,8 -8,0 z M 24,112 l 8,0 0,8 -8,0 z M 32,112 l 8,0 0,8 -8,0 z M 48,112 l 8,0 0,8 -8,0 z M 64,112 l 8,0 0,8 -8,0 z M 72,112 l 8,0 0,8 -8,0 z M 88,112 l 8,0 0,8 -8,0 z M 96,112 l 8,0 0,8 -8,0 z M 112,112 l 8,0 0,8 -8,0 z M 136,112 l 8,0 0,8 -8,0 z M 152,112 l 8,0 0,8 -8,0 z M 200,112 l 8,0 0,8 -8,0 z M 216,112 l 8,0 0,8 -8,0 z M 224,112 l 8,0 0,8 -8,0 z M 160,120 l 8,0 0,8 -8,0 z M 168,120 l 8,0 0,8 -8,0 z M 176,120 l 8,0 0,8 -8,0 z M 184,120 l 8,0 0,8 -8,0 z M 192,120 l 8,0 0,8 -8,0 z M 200,120 l 8,0 0,8 -8,0 z M 208,120 l 8,0 0,8 -8,0 z M 240,120 l 8,0 0,8 -8,0 z M 16,128 l 8,0 0,8 -8,0 z M 24,128 l 8,0 0,8 -8,0 z M 32,128 l 8,0 0,8 -8,0 z M 40,128 l 8,0 0,8 -8,0 z M 56,128 l 8,0 0,8 -8,0 z M 64,128 l 8,0 0,8 -8,0 z M 80,128 l 8,0 0,8 -8,0 z M 96,128 l 8,0 0,8 -8,0 z M 104,128 l 8,0 0,8 -8,0 z M 112,128 l 8,0 0,8 -8,0 z M 136,128 l 8,0 0,8 -8,0 z M 152,128 l 8,0 0,8 -8,0 z M 160,128 l 8,0 0,8 -8,0 z M 192,128 l 8,0 0,8 -8,0 z M 200,128 l 8,0 0,8 -8,0 z M 216,128 l 8,0 0,8 -8,0 z M 224,128 l 8,0 0,8 -8,0 z M 40,136 l 8,0 0,8 -8,0 z M 48,136 l 8,0 0,8 -8,0 z M 80,136 l 8,0 0,8 -8,0 z M 88,136 l 8,0 0,8 -8,0 z M 104,136 l 8,0 0,8 -8,0 z M 120,136 l 8,0 0,8 -8,0 z M 144,136 l 8,0 0,8 -8,0 z M 168,136 l 8,0 0,8 -8,0 z M 176,136 l 8,0 0,8 -8,0 z M 184,136 l 8,0 0,8 -8,0 z M 208,136 l 8,0 0,8 -8,0 z M 232,136 l 8,0 0,8 -8,0 z M 24,144 l 8,0 0,8 -8,0 z M 32,144 l 8,0 0,8 -8,0 z M 40,144 l 8,0 0,8 -8,0 z M 64,144 l 8,0 0,8 -8,0 z M 88,144 l 8,0 0,8 -8,0 z M 96,144 l 8,0 0,8 -8,0 z M 104,144 l 8,0 0,8 -8,0 z M 128,144 l 8,0 0,8 -8,0 z M 152,144 l 8,0 0,8 -8,0 z M 168,144 l 8,0 0,8 -8,0 z M 200,144 l 8,0 0,8 -8,0 z M 216,144 l 8,0 0,8 -8,0 z M 224,144 l 8,0 0,8 -8,0 z M 16,152 l 8,0 0,8 -8,0 z M 32,152 l 8,0 0,8 -8,0 z M 40,152 l 8,0 0,8 -8,0 z M 48,152 l 8,0 0,8 -8,0 z M 72,152 l 8,0 0,8 -8,0 z M 88,152 l 8,0 0,8 -8,0 z M 112,152 l 8,0 0,8 -8,0 z M 120,152 l 8,0 0,8 -8,0 z M 128,152 l 8,0 0,8 -8,0 z M 144,152 l 8,0 0,8 -8,0 z M 152,152 l 8,0 0,8 -8,0 z M 160,152 l 8,0 0,8 -8,0 z M 168,152 l 8,0 0,8 -8,0 z M 184,152 l 8,0 0,8 -8,0 z M 192,152 l 8,0 0,8 -8,0 z M 200,152 l 8,0 0,8 -8,0 z M 208,152 l 8,0 0,8 -8,0 z M 224,152 l 8,0 0,8 -8,0 z M 240,152 l 8,0 0,8 -8,0 z M 16,160 l 8,0 0,8 -8,0 z M 32,160 l 8,0 0,8 -8,0 z M 40,160 l 8,0 0,8 -8,0 z M 48,160 l 8,0 0,8 -8,0 z M 64,160 l 8,0 0,8 -8,0 z M 72,160 l 8,0 0,8 -8,0 z M 96,160 l 8,0 0,8 -8,0 z M 128,160 l 8,0 0,8 -8,0 z M 136,160 l 8,0 0,8 -8,0 z M 144,160 l 8,0 0,8 -8,0 z M 152,160 l 8,0 0,8 -8,0 z M 184,160 l 8,0 0,8 -8,0 z M 192,160 l 8,0 0,8 -8,0 z M 200,160 l 8,0 0,8 -8,0 z M 208,160 l 8,0 0,8 -8,0 z M 224,160 l 8,0 0,8 -8,0 z M 16,168 l 8,0 0,8 -8,0 z M 40,168 l 8,0 0,8 -8,0 z M 48,168 l 8,0 0,8 -8,0 z M 96,168 l 8,0 0,8 -8,0 z M 112,168 l 8,0 0,8 -8,0 z M 136,168 l 8,0 0,8 -8,0 z M 176,168 l 8,0 0,8 -8,0 z M 200,168 l 8,0 0,8 -8,0 z M 208,168 l 8,0 0,8 -8,0 z M 232,168 l 8,0 0,8 -8,0 z M 16,176 l 8,0 0,8 -8,0 z M 40,176 l 8,0 0,8 -8,0 z M 48,176 l 8,0 0,8 -8,0 z M 64,176 l 8,0 0,8 -8,0 z M 72,176 l 8,0 0,8 -8,0 z M 96,176 l 8,0 0,8 -8,0 z M 112,176 l 8,0 0,8 -8,0 z M 128,176 l 8,0 0,8 -8,0 z M 152,176 l 8,0 0,8 -8,0 z M 176,176 l 8,0 0,8 -8,0 z M 184,176 l 8,0 0,8 -8,0 z M 192,176 l 8,0 0,8 -8,0 z M 200,176 l 8,0 0,8 -8,0 z M 208,176 l 8,0 0,8 -8,0 z M 224,176 l 8,0 0,8 -8,0 z M 232,176 l 8,0 0,8 -8,0 z M 240,176 l 8,0 0,8 -8,0 z M 80,184 l 8,0 0,8 -8,0 z M 88,184 l 8,0 0,8 -8,0 z M 96,184 l 8,0 0,8 -8,0 z M 120,184 l 8,0 0,8 -8,0 z M 144,184 l 8,0 0,8 -8,0 z M 152,184 l 8,0 0,8 -8,0 z M 160,184 l 8,0 0,8 -8,0 z M 168,184 l 8,0 0,8 -8,0 z M 176,184 l 8,0 0,8 -8,0 z M 208,184 l 8,0 0,8 -8,0 z M 216,184 l 8,0 0,8 -8,0 z M 224,184 l 8,0 0,8 -8,0 z M 232,184 l 8,0 0,8 -8,0 z M 240,184 l 8,0 0,8 -8,0 z M 16,192 l 8,0 0,8 -8,0 z M 24,192 l 8,0 0,8 -8,0 z M 32,192 l 8,0 0,8 -8,0 z M 40,192 l 8,0 0,8 -8,0 z M 48,192 l 8,0 0,8 -8,0 z M 56,192 l 8,0 0,8 -8,0 z M 64,192 l 8,0 0,8 -8,0 z M 80,192 l 8,0 0,8 -8,0 z M 96,192 l 8,0 0,8 -8,0 z M 104,192 l 8,0 0,8 -8,0 z M 112,192 l 8,0 0,8 -8,0 z M 128,192 l 8,0 0,8 -8,0 z M 136,192 l 8,0 0,8 -8,0 z M 144,192 l 8,0 0,8 -8,0 z M 168,192 l 8,0 0,8 -8,0 z M 176,192 l 8,0 0,8 -8,0 z M 192,192 l 8,0 0,8 -8,0 z M 208,192 l 8,0 0,8 -8,0 z M 216,192 l 8,0 0,8 -8,0 z M 224,192 l 8,0 0,8 -8,0 z M 16,200 l 8,0 0,8 -8,0 z M 64,200 l 8,0 0,8 -8,0 z M 96,200 l 8,0 0,8 -8,0 z M 104,200 l 8,0 0,8 -8,0 z M 128,200 l 8,0 0,8 -8,0 z M 144,200 l 8,0 0,8 -8,0 z M 168,200 l 8,0 0,8 -8,0 z M 176,200 l 8,0 0,8 -8,0 z M 208,200 l 8,0 0,8 -8,0 z M 16,208 l 8,0 0,8 -8,0 z M 32,208 l 8,0 0,8 -8,0 z M 40,208 l 8,0 0,8 -8,0 z M 48,208 l 8,0 0,8 -8,0 z M 64,208 l 8,0 0,8 -8,0 z M 80,208 l 8,0 0,8 -8,0 z M 104,208 l 8,0 0,8 -8,0 z M 112,208 l 8,0 0,8 -8,0 z M 152,208 l 8,0 0,8 -8,0 z M 160,208 l 8,0 0,8 -8,0 z M 176,208 l 8,0 0,8 -8,0 z M 184,208 l 8,0 0,8 -8,0 z M 192,208 l 8,0 0,8 -8,0 z M 200,208 l 8,0 0,8 -8,0 z M 208,208 l 8,0 0,8 -8,0 z M 224,208 l 8,0 0,8 -8,0 z M 232,208 l 8,0 0,8 -8,0 z M 16,216 l 8,0 0,8 -8,0 z M 32,216 l 8,0 0,8 -8,0 z M 40,216 l 8,0 0,8 -8,0 z M 48,216 l 8,0 0,8 -8,0 z M 64,216 l 8,0 0,8 -8,0 z M 80,216 l 8,0 0,8 -8,0 z M 96,216 l 8,0 0,8 -8,0 z M 112,216 l 8,0 0,8 -8,0 z M 120,216 l 8,0 0,8 -8,0 z M 128,216 l 8,0 0,8 -8,0 z M 144,216 l 8,0 0,8 -8,0 z M 152,216 l 8,0 0,8 -8,0 z M 160,216 l 8,0 0,8 -8,0 z M 216,216 l 8,0 0,8 -8,0 z M 224,216 l 8,0 0,8 -8,0 z M 232,216 l 8,0 0,8 -8,0 z M 240,216 l 8,0 0,8 -8,0 z M 16,224 l 8,0 0,8 -8,0 z M 32,224 l 8,0 0,8 -8,0 z M 40,224 l 8,0 0,8 -8,0 z M 48,224 l 8,0 0,8 -8,0 z M 64,224 l 8,0 0,8 -8,0 z M 80,224 l 8,0 0,8 -8,0 z M 96,224 l 8,0 0,8 -8,0 z M 112,224 l 8,0 0,8 -8,0 z M 128,224 l 8,0 0,8 -8,0 z M 136,224 l 8,0 0,8 -8,0 z M 152,224 l 8,0 0,8 -8,0 z M 176,224 l 8,0 0,8 -8,0 z M 184,224 l 8,0 0,8 -8,0 z M 192,224 l 8,0 0,8 -8,0 z M 200,224 l 8,0 0,8 -8,0 z M 208,224 l 8,0 0,8 -8,0 z M 216,224 l 8,0 0,8 -8,0 z M 224,224 l 8,0 0,8 -8,0 z M 232,224 l 8,0 0,8 -8,0 z M 16,232 l 8,0 0,8 -8,0 z M 64,232 l 8,0 0,8 -8,0 z M 80,232 l 8,0 0,8 -8,0 z M 112,232 l 8,0 0,8 -8,0 z M 120,232 l 8,0 0,8 -8,0 z M 128,232 l 8,0 0,8 -8,0 z M 176,232 l 8,0 0,8 -8,0 z M 208,232 l 8,0 0,8 -8,0 z M 216,232 l 8,0 0,8 -8,0 z M 232,232 l 8,0 0,8 -8,0 z M 16,240 l 8,0 0,8 -8,0 z M 24,240 l 8,0 0,8 -8,0 z M 32,240 l 8,0 0,8 -8,0 z M 40,240 l 8,0 0,8 -8,0 z M 48,240 l 8,0 0,8 -8,0 z M 56,240 l 8,0 0,8 -8,0 z M 64,240 l 8,0 0,8 -8,0 z M 80,240 l 8,0 0,8 -8,0 z M 88,240 l 8,0 0,8 -8,0 z M 112,240 l 8,0 0,8 -8,0 z M 152,240 l 8,0 0,8 -8,0 z M 168,240 l 8,0 0,8 -8,0 z M 192,240 l 8,0 0,8 -8,0 z M 200,240 l 8,0 0,8 -8,0 z M 208,240 l 8,0 0,8 -8,0 z M 216,240 l 8,0 0,8 -8,0 z M 224,240 l 8,0 0,8 -8,0 z " />
	</g>
</svg>
