<svg width="32" height="32" viewBox="0 0 32 32" fill="none" xmlns="http://www.w3.org/2000/svg">
<circle cx="16" cy="16" r="16" fill="#2970FF"/>
<g clip-path="url(#clip0_3118_101148)">
<path d="M23.4909 10.818C23.3769 10.908 21.3641 12.062 21.3641 14.628C21.3641 17.596 23.9253 18.646 24.002 18.672C23.9902 18.736 23.5951 20.11 22.6516 21.51C21.8103 22.742 20.9317 23.972 19.5951 23.972C18.2585 23.972 17.9145 23.182 16.3715 23.182C14.8678 23.182 14.3332 23.998 13.1106 23.998C11.888 23.998 11.0349 22.858 10.0541 21.458C8.91794 19.814 8 17.26 8 14.836C8 10.948 10.4845 8.886 12.9297 8.886C14.229 8.886 15.312 9.754 16.1278 9.754C16.9042 9.754 18.115 8.834 19.5931 8.834C20.1533 8.834 22.1661 8.886 23.4909 10.818ZM18.8914 7.188C19.5027 6.45 19.9351 5.426 19.9351 4.402C19.9351 4.26 19.9233 4.116 19.8978 4C18.9032 4.038 17.7199 4.674 17.0064 5.516C16.4462 6.164 15.9233 7.188 15.9233 8.226C15.9233 8.382 15.9489 8.538 15.9607 8.588C16.0236 8.6 16.1258 8.614 16.228 8.614C17.1204 8.614 18.2428 8.006 18.8914 7.188Z" fill="white"/>
</g>
<defs>
<clipPath id="clip0_3118_101148">
<rect width="16" height="20" fill="white" transform="translate(8 4)"/>
</clipPath>
</defs>
</svg>
