<svg width="23" height="28" viewBox="0 0 23 28" fill="none" xmlns="http://www.w3.org/2000/svg">
<g clip-path="url(#clip0_4689_164485)">
<path d="M22.05 9.5452C21.8894 9.6712 19.0543 11.2868 19.0543 14.8792C19.0543 19.0344 22.6618 20.5044 22.7698 20.5408C22.7532 20.6304 22.1967 22.554 20.8678 24.514C19.6828 26.2388 18.4452 27.9608 16.5626 27.9608C14.6799 27.9608 14.1954 26.8548 12.022 26.8548C9.90403 26.8548 9.15097 27.9972 7.42889 27.9972C5.7068 27.9972 4.50522 26.4012 3.12368 24.4412C1.52342 22.1396 0.230469 18.564 0.230469 15.1704C0.230469 9.7272 3.73001 6.8404 7.17417 6.8404C9.00423 6.8404 10.5297 8.0556 11.6787 8.0556C12.7723 8.0556 14.4778 6.7676 16.5598 6.7676C17.3489 6.7676 20.1839 6.8404 22.05 9.5452ZM15.5714 4.4632C16.4324 3.43 17.0415 1.9964 17.0415 0.5628C17.0415 0.364 17.0249 0.1624 16.9889 0C15.588 0.0532 13.9213 0.9436 12.9163 2.1224C12.1272 3.0296 11.3908 4.4632 11.3908 5.9164C11.3908 6.1348 11.4268 6.3532 11.4434 6.4232C11.532 6.44 11.676 6.4596 11.8199 6.4596C13.0769 6.4596 14.6578 5.6084 15.5714 4.4632Z" fill="white"/>
</g>
<defs>
<clipPath id="clip0_4689_164485">
<rect width="22.5366" height="28" fill="white" transform="translate(0.230469)"/>
</clipPath>
</defs>
</svg>
