<svg width="20" height="20" viewBox="0 0 20 20" fill="none" xmlns="http://www.w3.org/2000/svg">
<path d="M16.7406 7.1362C16.638 7.2172 14.8265 8.2558 14.8265 10.5652C14.8265 13.2364 17.1316 14.1814 17.2006 14.2048C17.19 14.2624 16.8344 15.499 15.9853 16.759C15.2281 17.8678 14.4374 18.9748 13.2344 18.9748C12.0315 18.9748 11.7219 18.2638 10.3332 18.2638C8.97986 18.2638 8.49868 18.9982 7.39834 18.9982C6.29799 18.9982 5.53023 17.9722 4.64748 16.7122C3.62497 15.2326 2.79883 12.934 2.79883 10.7524C2.79883 7.2532 5.0349 5.3974 7.23558 5.3974C8.40492 5.3974 9.37966 6.1786 10.1138 6.1786C10.8126 6.1786 11.9023 5.3506 13.2326 5.3506C13.7368 5.3506 15.5483 5.3974 16.7406 7.1362ZM12.6011 3.8692C13.1513 3.205 13.5404 2.2834 13.5404 1.3618C13.5404 1.234 13.5298 1.1044 13.5068 1C12.6117 1.0342 11.5467 1.6066 10.9046 2.3644C10.4004 2.9476 9.92984 3.8692 9.92984 4.8034C9.92984 4.9438 9.95283 5.0842 9.96345 5.1292C10.0201 5.14 10.112 5.1526 10.204 5.1526C11.0072 5.1526 12.0173 4.6054 12.6011 3.8692Z" fill="#444444"/>
</svg>
