<svg width="19" height="24" viewBox="0 0 19 24" fill="none" xmlns="http://www.w3.org/2000/svg">
    <g clip-path="url(#clip0_7634_285369)">
        <path d="M18.3847 8.1816C18.2494 8.2896 15.8622 9.6744 15.8622 12.7536C15.8622 16.3152 18.8999 17.5752 18.9908 17.6064C18.9768 17.6832 18.5082 19.332 17.3892 21.012C16.3914 22.4904 15.3493 23.9664 13.764 23.9664C12.1787 23.9664 11.7708 23.0184 9.9407 23.0184C8.15726 23.0184 7.52315 23.9976 6.07309 23.9976C4.62302 23.9976 3.61124 22.6296 2.44792 20.9496C1.10043 18.9768 0.0117188 15.912 0.0117188 13.0032C0.0117188 8.3376 2.95848 5.8632 5.85861 5.8632C7.39959 5.8632 8.68414 6.9048 9.65162 6.9048C10.5725 6.9048 12.0086 5.8008 13.7617 5.8008C14.4261 5.8008 16.8134 5.8632 18.3847 8.1816ZM12.9294 3.8256C13.6545 2.94 14.1673 1.7112 14.1673 0.4824C14.1673 0.312 14.1534 0.1392 14.123 0C12.9434 0.0456 11.54 0.8088 10.6937 1.8192C10.0293 2.5968 9.40917 3.8256 9.40917 5.0712C9.40917 5.2584 9.43948 5.4456 9.45346 5.5056C9.52806 5.52 9.64929 5.5368 9.77052 5.5368C10.8289 5.5368 12.1601 4.8072 12.9294 3.8256Z" fill="black"/>
    </g>
    <defs>
        <clipPath id="clip0_7634_285369">
            <rect width="18.9767" height="24" fill="white" transform="translate(0.0117188)"/>
        </clipPath>
    </defs>
</svg>
