<svg width="328" height="203" viewBox="0 0 328 203" fill="none" xmlns="http://www.w3.org/2000/svg">
    <rect x="15.999" y="15.6046" width="296" height="160" rx="8" fill="#F7EFF6"/>
    <path d="M232.155 138.053C240.07 136.572 248.241 127.048 232.155 104.614C224.345 93.7225 211.062 91.4831 199.085 92.974L193.076 95.1062L190.764 87.2476L184.292 95.5685L174.122 98.8044C172.736 96.0308 173.829 96.9323 170.874 92.3391C168.831 89.1645 165.512 90.4343 164.746 92.974V128.741C195.897 147.154 224.239 139.535 232.155 138.053Z" fill="#CACCFF"/>
    <path d="M172.705 34.5482C170.672 32.2962 168.639 26.9203 176.771 23.4332C186.937 19.0744 193.053 23.7792 194.307 24.523C196.939 26.0833 207.014 32.8047 208.793 26.7024" stroke="black" stroke-width="2.8" stroke-linecap="round" stroke-linejoin="round"/>
    <path d="M147.297 77.4351C142.094 76.7499 138.078 72.2977 138.078 66.9075C138.078 61.5172 142.094 57.065 147.297 56.3798V77.4351Z" fill="#FF3880" stroke="#FF3880" stroke-width="2.8" stroke-linejoin="round"/>
    <path d="M169.962 40.4139L171.979 35.2477C176.417 33.5639 179.88 35.3115 181.057 36.3958V41.9446L169.962 40.4139Z" fill="#444444" stroke="black" stroke-width="2.8" stroke-linecap="round" stroke-linejoin="round"/>
    <path d="M196.774 57.6619C196.774 43.8753 185.805 32.6991 172.274 32.6991C158.742 32.6991 147.773 43.8753 147.773 57.6619" stroke="#FF3880" stroke-width="2.8" stroke-linecap="round"/>
    <path d="M197.144 78.0021C201.024 78.0021 204.17 74.6907 204.17 70.6057C204.17 66.5208 201.024 63.2094 197.144 63.2094C193.263 63.2094 190.117 66.5208 190.117 70.6057C190.117 74.6907 193.263 78.0021 197.144 78.0021Z" fill="#CACCFF"/>
    <path d="M173.922 41.0405C179.247 41.2489 183.556 42.6554 190.334 47.2395C194.594 50.0003 194.207 59.7415 193.19 66.2009C193.384 68.2325 194.643 69.7953 194.497 71.931C193.432 87.4544 189.995 98.3416 171.985 98.3416C152.91 98.3416 150.489 98.8625 151.748 68.7534C151.942 63.9089 152.523 56.4077 154.362 52.5528C158.429 46.6665 163.9 40.6238 173.922 41.0405Z" fill="#CACCFF"/>
    <path d="M194.975 102.779L190.583 87.2035" stroke="black" stroke-width="2.8" stroke-miterlimit="10" stroke-linecap="round" stroke-linejoin="round"/>
    <path d="M149.656 56.0331C149.656 56.0331 158.695 53.3265 161.503 62.2633C162.627 65.8381 158.337 74.3664 158.337 74.3664L166.61 77.1751" stroke="black" stroke-width="2.8" stroke-miterlimit="10" stroke-linejoin="round"/>
    <path d="M180.297 62.5188C180.297 62.5188 174.832 66.7574 169.215 61.2421" stroke="black" stroke-width="2.8" stroke-miterlimit="10"/>
    <path d="M171.014 80.9626C171.014 80.9626 164.003 83.998 156.538 80.359" stroke="black" stroke-width="2.8" stroke-miterlimit="10"/>
    <path d="M191.174 59.0461L191.48 49.905C191.48 49.905 182.186 36.1168 163.546 41.1725C157.112 42.9088 149.298 49.905 148.277 62.4677C147.358 73.294 145.315 88.2057 150.932 94.487C155.018 99.0831 165.793 98.9299 172.738 98.266C186.527 96.9383 190.357 90.708 193.114 76.9198C193.114 76.9198 204.349 77.2772 203.787 69.0043C203.072 58.6376 194.136 64.1529 194.136 64.1529L193.063 69.1575" stroke="black" stroke-width="2.8" stroke-miterlimit="10" stroke-linejoin="round"/>
    <path d="M197.498 76.6046C197.498 86.6045 185.717 86.1249 184.498 86.1046C183.125 86.0816 177.998 85.6045 174.998 85.2314" stroke="#FF3880" stroke-width="2.8" stroke-linecap="round" stroke-linejoin="round"/>
    <path d="M197.25 56.3798C202.453 57.065 206.469 61.5172 206.469 66.9075C206.469 72.2977 202.453 76.7499 197.25 77.4351L197.25 56.3798Z" fill="#FF3880" stroke="#FF3880" stroke-width="2.8" stroke-linejoin="round"/>
    <path d="M264.266 193.108C287.842 169.07 256.126 134.9 228.209 138.56L164.877 127.003L129.282 140.871C131.902 152.274 145.092 174.895 176.896 174.155C216.652 173.231 230.982 156.126 248.087 183.863C248.087 188.023 242.109 192.091 229.596 186.637C211.567 178.778 189.378 191.259 191.689 200.505C193.987 195.909 208.037 185.115 228.209 196.35C244.346 205.338 259.074 198.045 264.266 193.108Z" fill="#CACCFF"/>
    <path fill-rule="evenodd" clip-rule="evenodd" d="M173.66 97.8123C173.484 97.3968 173.381 97.0931 173.283 96.8069C172.998 95.9661 172.763 95.2751 170.874 92.3391C168.831 89.1645 165.512 90.4344 164.746 92.9741V128.741C167.748 130.516 170.725 132.049 173.66 133.369V97.8123ZM230.982 138.284C231.412 138.197 231.804 138.119 232.155 138.053C240.07 136.572 248.241 127.048 232.155 104.614C231.777 104.087 231.385 103.58 230.982 103.092V138.284Z" fill="#CACCFF"/>
    <path d="M228.209 138.56C256.126 134.9 287.842 169.07 264.266 193.108C259.074 198.045 244.346 205.338 228.209 196.35C208.037 185.115 193.987 195.329 191.689 199.925" stroke="black" stroke-width="2.8" stroke-linecap="round" stroke-linejoin="round"/>
    <path d="M128.819 139.947C131.593 155.202 148.933 171.179 169.962 173.231C207.868 176.929 236.067 155.664 249.473 186.174" stroke="black" stroke-width="2.8" stroke-linecap="round" stroke-linejoin="round"/>
    <path d="M109.13 138.954C102.638 137.459 95.9371 127.854 109.13 105.226C115.535 94.2406 127.188 91.9819 137.01 93.4857L156.345 98.4338C157.483 95.6362 156.965 97.4781 159.389 92.8452C161.064 89.6433 163.787 90.924 164.415 93.4857V129.561C138.867 148.133 115.622 140.448 109.13 138.954Z" fill="#CACCFF"/>
    <path d="M151.738 98.9C140.738 93.3268 115.849 86.6672 104.299 104.614C89.8604 127.048 97.1941 136.572 104.299 138.053C111.403 139.535 136.842 147.154 164.802 128.741V92.9741C164.114 90.4344 161.135 89.1645 159.301 92.3391C156.649 96.9324 152.655 120.699 145.551 120.276" stroke="black" stroke-width="2.8" stroke-linecap="round" stroke-linejoin="round"/>
    <path d="M159.531 113.926L162.052 102.71C162.51 101.44 163.656 100.805 164.573 102.075" stroke="black" stroke-width="2.8" stroke-linecap="round" stroke-linejoin="round"/>
    <path d="M150.134 116.254L116.216 101.44" stroke="black" stroke-width="2.8" stroke-linecap="round" stroke-linejoin="round"/>
    <path d="M164.802 94.6671C163.197 93.8206 161.781 93.1257 160.447 98.0534C159.072 103.133 157.468 109.341 156.551 112.233" stroke="black" stroke-width="2.8" stroke-linecap="round" stroke-linejoin="round"/>
    <path d="M186.194 120.276C178.279 120.699 173.829 96.9324 170.874 92.3391C168.831 89.1645 165.512 90.4344 164.746 92.9741V128.741C195.897 147.154 224.239 139.535 232.155 138.053C240.07 136.572 248.241 127.048 232.155 104.614C224.345 93.7225 211.062 91.8936 199.085 93.3845" stroke="black" stroke-width="2.8" stroke-linecap="round" stroke-linejoin="round"/>
    <path d="M170.619 113.926L167.81 102.71C167.299 101.44 166.023 100.805 165.001 102.075" stroke="black" stroke-width="2.8" stroke-linecap="round" stroke-linejoin="round"/>
    <path d="M181.087 116.254L218.877 101.44" stroke="black" stroke-width="2.8" stroke-linecap="round" stroke-linejoin="round"/>
    <path d="M164.746 94.6671C166.533 93.8206 168.111 93.1257 169.597 98.0534C171.129 103.133 172.917 109.341 173.938 112.233" stroke="black" stroke-width="2.8" stroke-linecap="round" stroke-linejoin="round"/>
    <path d="M64.225 53.9042L39.3983 58.4937L38.8488 55.5212C35.8751 39.4347 46.8024 28.1322 70.6476 23.7241C94.9546 19.2307 108.62 25.324 111.655 42.0623C114.574 57.8573 108.162 67.421 93.6126 70.1107C91.2454 70.5483 90.2877 72.4733 90.7186 74.8047L91.5159 79.1177L67.844 83.4938L65.8615 72.7695C63.9544 62.4531 68.0655 56.2683 79.9015 54.0803C85.7329 53.0023 87.5498 50.5568 86.7848 46.4186C85.9982 42.1639 82.3771 40.6633 74.0631 42.2003C66.3264 43.6305 62.8674 46.5604 63.6755 50.9317L64.225 53.9042ZM75.497 108.42C72.8574 106.738 71.1639 104.037 70.4636 100.248C69.774 96.5183 70.39 93.3906 72.2539 90.8761C74.1177 88.3616 76.9261 86.7575 80.6789 86.0637C84.4318 85.37 87.6858 85.8534 90.3254 87.5354C92.965 89.2174 94.6007 91.9288 95.2903 95.659C95.9906 99.4474 95.4323 102.564 93.5685 105.079C91.7046 107.593 88.8386 109.208 85.0857 109.902C81.3328 110.596 78.1366 110.102 75.497 108.42Z" fill="white"/>
    <path d="M33.2585 116.81L19.372 113.647L19.7506 111.984C21.7999 102.987 29.9835 99.5695 43.321 102.607C56.9168 105.704 62.6369 111.91 60.4736 121.259C58.4615 130.094 53.0051 133.618 44.867 131.764C43.5429 131.463 42.6171 132.246 42.3201 133.55L41.7707 135.963L28.53 132.947L29.8962 126.949C31.2104 121.178 34.7206 118.892 41.3409 120.399C44.6026 121.142 46.0896 120.281 46.6168 117.966C47.1588 115.586 45.6177 114.001 40.9673 112.942C36.6399 111.956 34.194 112.702 33.6371 115.147L33.2585 116.81ZM26.9324 147.569C25.9402 146.108 25.6655 144.331 26.1482 142.212C26.6234 140.126 27.6405 138.643 29.1673 137.756C30.694 136.869 32.507 136.665 34.6061 137.143C36.7052 137.621 38.2832 138.598 39.2753 140.058C40.2675 141.519 40.5099 143.288 40.0347 145.375C39.552 147.494 38.5672 148.984 37.0404 149.871C35.5137 150.758 33.6684 150.955 31.5693 150.477C29.4702 149.998 27.9245 149.029 26.9324 147.569Z" fill="white"/>
    <path d="M276.897 62.0639L260.079 55.7314L260.837 53.7177C264.94 42.8201 275.756 39.9499 291.91 46.0321C308.377 52.232 314.464 60.9709 310.159 72.2881C306.13 82.9884 298.705 86.4591 288.848 82.748C287.245 82.1442 285.953 82.9653 285.358 84.5446L284.258 87.4665L268.222 81.4285L270.957 74.1634C273.589 67.1747 278.369 64.917 286.387 67.936C290.337 69.4234 292.344 68.6011 293.399 65.7977C294.485 62.9154 292.83 60.6692 287.197 58.5486C281.956 56.5752 278.771 57.0889 277.656 60.0502L276.897 62.0639ZM263.72 99.4342C262.73 97.4384 262.691 95.1697 263.657 92.6032C264.609 90.0762 266.134 88.3965 268.195 87.5494C270.256 86.7023 272.557 86.7574 275.099 87.7146C277.642 88.6719 279.447 90.1631 280.437 92.1589C281.428 94.1547 281.427 96.4087 280.476 98.9357C279.51 101.502 278.023 103.197 275.963 104.044C273.902 104.891 271.561 104.821 269.019 103.864C266.477 102.906 264.71 101.43 263.72 99.4342Z" fill="white"/>
    <path d="M80.0411 169.051L70.8106 172.421L70.4072 171.315C68.224 165.334 71.6855 160.289 80.5511 157.053C89.5884 153.754 95.2275 155.208 97.4762 161.435C99.6198 167.307 97.7784 171.393 92.3689 173.367C91.4887 173.689 91.2459 174.489 91.5623 175.356L92.1476 176.96L83.3464 180.172L81.891 176.185C80.4909 172.35 81.6681 169.71 86.0687 168.103C88.2368 167.312 88.7756 166.256 88.214 164.717C87.6366 163.135 86.1497 162.794 83.0586 163.922C80.1821 164.972 79.0444 166.321 79.6377 167.946L80.0411 169.051ZM87.8979 189.243C86.7759 188.768 85.9511 187.841 85.437 186.433C84.9307 185.046 84.9645 183.806 85.517 182.72C86.0694 181.634 87.0433 180.837 88.4386 180.327C89.8339 179.818 91.114 179.793 92.2359 180.267C93.3579 180.742 94.1612 181.677 94.6675 183.063C95.1816 184.472 95.1693 185.704 94.6168 186.79C94.0644 187.876 93.0691 188.681 91.6738 189.19C90.2785 189.7 89.0198 189.717 87.8979 189.243Z" fill="white"/>
</svg>
