<svg width="328" height="200" viewBox="0 0 328 200" fill="none" xmlns="http://www.w3.org/2000/svg">
    <rect x="16" y="16" width="296" height="160" rx="8" fill="#F7EFF6"/>
    <rect width="130" height="135" rx="8" transform="matrix(-1 0 0 1 213 32)" fill="white"/>
    <rect x="93.6333" y="158.032" width="35" height="3" rx="1.5" transform="rotate(-90 93.6333 158.032)" fill="#007AFF"/>
    <rect x="108.633" y="158.032" width="51" height="3" rx="1.5" transform="rotate(-90 108.633 158.032)" fill="#007AFF"/>
    <rect x="123.633" y="158.032" width="62" height="3" rx="1.5" transform="rotate(-90 123.633 158.032)" fill="#007AFF"/>
    <rect x="138.633" y="158.032" width="62" height="3" rx="1.5" transform="rotate(-90 138.633 158.032)" fill="#007AFF"/>
    <rect x="153.633" y="158.032" width="54" height="3" rx="1.5" transform="rotate(-90 153.633 158.032)" fill="#007AFF"/>
    <rect x="168.633" y="158.032" width="54" height="3" rx="1.5" transform="rotate(-90 168.633 158.032)" fill="#007AFF"/>
    <rect x="183.633" y="158.032" width="62" height="3" rx="1.5" transform="rotate(-90 183.633 158.032)" fill="#007AFF"/>
    <rect x="198.633" y="158.032" width="70" height="3" rx="1.5" transform="rotate(-90 198.633 158.032)" fill="#007AFF"/>
    <path d="M92.2534 109.795C92.1228 110.557 92.6347 111.281 93.3968 111.411C94.1588 111.542 94.8825 111.03 95.0132 110.268L92.2534 109.795ZM200.033 61.9798C200.022 61.2067 199.386 60.589 198.613 60.6001L186.014 60.782C185.241 60.7932 184.624 61.429 184.635 62.2021C184.646 62.9752 185.282 63.5929 186.055 63.5817L197.254 63.4201L197.415 74.6189C197.426 75.392 198.062 76.0097 198.835 75.9985C199.609 75.9874 200.226 75.3516 200.215 74.5785L200.033 61.9798ZM95.0132 110.268C96.4221 102.049 103.822 92.5973 113.775 86.8087C123.679 81.0486 135.745 79.1223 146.426 85.3703L147.84 82.9535C136.021 76.0396 122.838 78.2982 112.367 84.3883C101.945 90.4501 93.8445 100.514 92.2534 109.795L95.0132 110.268ZM146.426 85.3703C152.233 88.7671 157.525 90.1527 162.475 89.9667C167.42 89.7809 171.893 88.0313 176.072 85.3738C180.238 82.7245 184.154 79.1454 187.998 75.244C189.923 73.2901 191.843 71.2412 193.772 69.1763C195.706 67.1073 197.649 65.0224 199.637 62.9756L197.629 61.0244C195.618 63.0948 193.654 65.2017 191.727 67.2646C189.795 69.3316 187.899 71.3549 186.003 73.2789C182.206 77.1333 178.466 80.5333 174.57 83.0111C170.686 85.4807 166.69 87.0063 162.37 87.1687C158.054 87.3309 153.283 86.1377 147.84 82.9535L146.426 85.3703Z" fill="black"/>
    <path d="M289.252 80.3833C286.685 80.3833 284.605 78.1757 284.605 75.4524C284.605 72.729 286.685 70.5214 289.252 70.5214C291.818 70.5214 293.898 72.729 293.898 75.4524C293.898 78.1757 291.818 80.3833 289.252 80.3833Z" fill="#FFDBA0"/>
    <path d="M259.501 57.884C275 52.8841 280 54.0617 286.555 63.3841C288.047 65.5056 288.36 66.884 289 70.884C289.23 72.3175 286.555 73.8469 286.555 75.395C286.555 86.2317 276.048 97 267.5 97C258.952 97 255.576 86.2317 255.576 75.395C255.576 72.0121 251.296 59.6936 252.501 56.884C254.501 55.8841 257.001 55.3841 259.501 57.884Z" fill="#FFDBA0"/>
    <path d="M264.197 99.6398C261.388 91.3133 263.379 83.1242 268.645 81.3489C273.912 79.5737 280.459 84.8845 283.269 93.2111C286.079 101.538 284.088 109.727 278.821 111.502C273.555 113.277 267.007 107.966 264.197 99.6398Z" fill="#FFDBA0"/>
    <path d="M261.5 103.5L257 109.5L271.5 121L276.5 113L284.5 121C287.667 118 293.6 110.3 292 103.5" stroke="black" stroke-width="2.8" stroke-linecap="round" stroke-linejoin="round"/>
    <path d="M277 114C279 125.667 282.8 154.5 282 176.5" stroke="black" stroke-width="2.8" stroke-linecap="round" stroke-linejoin="round"/>
    <path d="M243.871 190.5V130.381C243.871 130.381 243.355 127.916 246.338 127.916C249.321 127.916 249.264 130.381 249.264 130.381C249.264 130.381 246.223 139.211 241.806 154.463C237.388 169.657 231.192 169.772 225.168 169.772C205.548 169.772 204.515 105.44 204.515 105.44H222.185C222.185 105.44 228.266 138.924 229.07 141.275C230.045 144.199 230.561 146.665 227.119 146.665C221.726 146.665 227.119 137.835 227.119 137.835C227.119 137.835 228.094 135.369 232.512 120.175C236.929 104.981 243.699 103.834 249.723 103.49C252.763 103.318 262 103.49 262 103.49L276.5 113C281.491 110.133 284.546 103.49 284.546 103.49L281.62 91.736" stroke="black" stroke-width="2.8" stroke-miterlimit="10" stroke-linecap="round" stroke-linejoin="round"/>
    <path d="M287.358 71.8975C287.358 71.8975 293.726 67.9986 294.243 75.3377C294.644 81.1861 286.613 80.9567 286.613 80.9567C279.5 90.384 274.81 97.8588 265 96.884C260.098 96.397 256.815 80.2721 254.658 70.6361C252.5 61 251.5 58.0483 251.5 58.0483M251.5 58.0483L244.5 52.8844C244.5 45.3844 248.5 40.8839 260 42.8841C266.333 36.5508 287.358 28.884 298.5 58.0484M251.5 58.0483C251.5 58.0483 258 53.7794 260 58.0483C266.5 53.9683 282.558 51.7236 287.358 65.3844" stroke="black" stroke-width="2.8" stroke-miterlimit="10" stroke-linejoin="round"/>
    <path d="M260 57.8841C261.667 52.2174 262.7 41.1841 253.5 42.3841" stroke="black" stroke-width="2.8" stroke-linecap="round" stroke-linejoin="round"/>
    <path d="M248.5 66.5C248.5 66.5 258.108 63.9053 259.37 70.499C260.69 77.0355 261 85.499 261 85.499L266.5 83.499" stroke="black" stroke-width="2.8" stroke-miterlimit="10" stroke-linejoin="round"/>
    <path d="M266.859 72.0065C266.859 72.0065 272.768 68.5662 277.185 72.0065" stroke="black" stroke-width="2.8" stroke-miterlimit="10"/>
    <path d="M318.453 144.142C318.453 144.142 315.412 135.312 310.995 120.06C306.577 104.809 299.808 103.719 293.784 103.375C290.743 103.203 273.704 103.375 273.704 103.375" stroke="black" stroke-width="2.8" stroke-miterlimit="10" stroke-linecap="round" stroke-linejoin="round"/>
    <path d="M296.135 182.89C296.135 182.89 267.622 192.294 243.814 181.572" stroke="black" stroke-width="2.8" stroke-miterlimit="10" stroke-linejoin="round"/>
    <path d="M214.978 104.472C206.324 104.472 206.164 92.7498 206.965 87.2885L218.984 84.8909V75.6999C218.984 69.9455 223.124 70.1054 224.593 70.9046V90.885C229.4 89.2866 233.139 91.551 232.605 93.2826C231.269 93.549 226.195 95.0409 224.593 98.8771C222.256 104.472 217.916 104.605 214.978 104.472Z" fill="#FFDBA0" stroke="black" stroke-width="2.8" stroke-linecap="round" stroke-linejoin="round"/>
    <path d="M219 84.884V93.884L211.5 94.884" stroke="black" stroke-width="2.8" stroke-linecap="round" stroke-linejoin="round"/>
    <rect width="40" height="40" rx="20" transform="matrix(-1 0 0 1 67.3569 32)" fill="#D88D59"/>
    <path d="M56.6426 49.8572C58.2965 47.7011 62.7548 44.6826 67.3569 49.8572" stroke="black" stroke-width="2.8" stroke-linecap="round" stroke-linejoin="round"/>
    <path d="M35.2139 49.8572C36.8678 47.7011 41.326 44.6826 45.9282 49.8572" stroke="black" stroke-width="2.8" stroke-linecap="round" stroke-linejoin="round"/>
    <path d="M47.0605 32.7142C50.0218 39.2134 56.2101 54.8593 54.0526 55.9603C51.8951 57.0613 46.4471 55.549 44.1997 54.8608C43.5652 56.1607 43.3185 61.1238 46.0471 62.7142" stroke="black" stroke-width="2.8" stroke-linecap="round" stroke-linejoin="round"/>
    <path d="M47 32.3571C35.9543 32.3571 27 41.1515 27 52C27 62.8484 35.9543 71.6428 47 71.6428" stroke="black" stroke-width="2.8" stroke-linecap="round"/>
    <rect width="40" height="40" rx="20" transform="matrix(-1 0 0 1 67.3569 80)" fill="#FFE2D6"/>
    <path d="M47.0605 80.7142C50.0218 87.2134 56.2101 102.859 54.0526 103.96C51.8951 105.061 46.4471 103.549 44.1997 102.861C43.5652 104.161 43.3185 109.124 46.0471 110.714" stroke="black" stroke-width="2.8" stroke-linecap="round" stroke-linejoin="round"/>
    <path d="M47 80.3571C35.9543 80.3571 27 89.1515 27 100C27 110.848 35.9543 119.643 47 119.643" stroke="black" stroke-width="2.8" stroke-linecap="round"/>
    <path d="M55.2139 94.2857C54.313 93.4199 53.026 92.8572 51.6103 92.8572C50.1946 92.8572 48.9719 93.3767 48.071 94.2425" stroke="black" stroke-width="2.8" stroke-miterlimit="10" stroke-linecap="round" stroke-linejoin="round"/>
    <path d="M60.4522 98.8525C57.8224 98.8525 55.6906 96.7926 55.6906 94.2515C55.6906 91.7105 57.8224 89.6505 60.4522 89.6505C63.082 89.6505 65.2139 91.7105 65.2139 94.2515C65.2139 96.7926 63.082 98.8525 60.4522 98.8525Z" stroke="black" stroke-width="2.8" stroke-miterlimit="10" stroke-linecap="round" stroke-linejoin="round"/>
    <path d="M42.8897 98.8525C40.2599 98.8525 38.1281 96.7926 38.1281 94.2515C38.1281 91.7105 40.2599 89.6505 42.8897 89.6505C45.5195 89.6505 47.6514 91.7105 47.6514 94.2515C47.6514 96.7926 45.5195 98.8525 42.8897 98.8525Z" stroke="black" stroke-width="2.8" stroke-miterlimit="10" stroke-linecap="round" stroke-linejoin="round"/>
    <rect width="40" height="40" rx="20" transform="matrix(-1 0 0 1 67.3569 128)" fill="#FFE6A5"/>
    <path d="M56.6426 143.857C58.2965 141.701 62.7548 138.683 67.3569 143.857" stroke="black" stroke-width="2.8" stroke-linecap="round" stroke-linejoin="round"/>
    <path d="M35.2139 143.857C36.8678 141.701 41.326 138.683 45.9282 143.857" stroke="black" stroke-width="2.8" stroke-linecap="round" stroke-linejoin="round"/>
    <path d="M47.0605 128.714C50.0218 135.213 56.2101 150.859 54.0526 151.96C51.8951 153.061 46.4471 151.549 44.1997 150.861C43.5652 152.161 43.3185 157.124 46.0471 158.714" stroke="black" stroke-width="2.8" stroke-linecap="round" stroke-linejoin="round"/>
    <path d="M47 128.357C35.9543 128.357 27 137.152 27 148C27 158.848 35.9543 167.643 47 167.643" stroke="black" stroke-width="2.8" stroke-linecap="round"/>
</svg>
