<svg width="328" height="200" viewBox="0 0 328 200" fill="none" xmlns="http://www.w3.org/2000/svg">
    <rect x="16" y="16" width="296" height="160" rx="8" fill="#F7EFF6"/>
    <path d="M204.293 117.33L199.906 122.193L192.981 122.827L186.585 114.105L191.554 108.661H185.264L182.991 105.489H195.201L204.293 117.33Z" fill="#D88D59"/>
    <path d="M266.031 75.2011C262.701 75.2011 259.741 72.8224 258.261 69.2808C255.671 71.8181 251.918 73.4038 247.689 73.4038C243.302 73.4038 239.443 71.7124 236.853 69.0165C234.845 71.9238 233.682 75.4653 233.682 79.2712C233.682 89.2616 241.769 97.349 251.759 97.349C261.75 97.349 269.837 89.2616 269.837 79.2712C269.837 77.5797 269.626 75.9939 269.203 74.4082C268.251 74.8839 267.141 75.2011 266.031 75.2011Z" fill="#D88D59"/>
    <path d="M266.708 112.993C271.891 110.001 272.045 100.566 267.053 91.9195C262.061 83.2733 253.813 78.6899 248.63 81.6822C243.447 84.6745 243.293 94.1094 248.285 102.756C253.277 111.402 261.525 115.985 266.708 112.993Z" fill="#D88D59"/>
    <path d="M191.133 144.499L195.15 133.187C201.44 122.404 209.052 123.356 209.052 123.356L217.404 134.456L224.064 112.414L228.24 105.754L233.684 101.895L248.273 101.842L250.176 103.322L254.617 110.511L260.378 114.74L266.404 114.317L270.316 109.612V101.948L280.94 102.106L287.706 104.802L292.305 110.987L303.035 144.288L277.557 144.922L267.62 138.579L257.682 137.205L247.111 138.79L238.917 143.971L238.23 144.869L195.309 144.975" fill="#D1BBFF" fill-opacity="0.72"/>
    <path d="M186.215 135.355H176.7C175.22 135.355 173.634 134.139 173.264 132.659L167.344 110.458C166.921 108.978 167.82 107.762 169.353 107.762H178.868C180.348 107.762 181.933 108.978 182.303 110.458L188.224 132.659C188.594 134.139 187.748 135.355 186.215 135.355Z" fill="#FF3880"/>
    <path d="M267.142 90.53C269.127 90.53 270.736 88.9207 270.736 86.9356C270.736 84.9505 269.127 83.3412 267.142 83.3412C265.157 83.3412 263.547 84.9505 263.547 86.9356C263.547 88.9207 265.157 90.53 267.142 90.53Z" fill="white" stroke="black" stroke-width="2.8" stroke-miterlimit="10"/>
    <path d="M267.142 90.5831L269.838 101.419C269.838 101.419 271.741 110.564 267.142 113.207C263.971 115.004 256.306 117.753 249.065 101.419C249.065 101.419 240.554 101.261 237.753 101.419C232.255 101.736 225.965 102.794 221.895 116.801C217.825 130.809 216.926 133.082 216.926 133.082C216.926 133.082 212.38 140.324 216.926 140.324C220.098 140.324 220.521 138.949 218.723 136.253C217.455 134.35 195.201 105.489 195.201 105.489H182.991C182.991 105.489 183.466 109.084 186.585 109.084H191.554L186.585 114.053L192.452 122.669C192.452 122.669 199.218 124.942 201.967 119.973" stroke="black" stroke-width="2.8" stroke-miterlimit="10" stroke-linejoin="round"/>
    <path d="M259.899 101.419C259.899 101.419 275.545 101.261 278.4 101.419C283.897 101.737 290.187 102.794 294.257 116.801C298.327 130.809 301.129 139.002 301.129 139.002" stroke="black" stroke-width="2.8" stroke-miterlimit="10"/>
    <path d="M230.088 144.447C233.259 132.448 244.201 123.567 257.205 123.567C270.208 123.567 281.15 132.395 284.321 144.394" stroke="black" stroke-width="2.8" stroke-miterlimit="10"/>
    <path d="M284.8 61.1409C284.8 61.1409 299.759 81.4917 312.868 113.63C325.977 145.768 296.112 144.394 296.112 144.394H276.977C271.902 139.372 264.925 136.254 257.207 136.254C249.437 136.254 242.46 139.372 237.385 144.447H165.338C165.338 144.447 168.51 126.739 179.346 124.466" stroke="black" stroke-width="2.8" stroke-miterlimit="10"/>
    <path d="M246.631 96.3974C247.213 96.556 247.794 96.6617 248.376 96.7145C257.415 97.6131 262.383 92.6444 264.233 83.6055C264.233 83.6055 271.634 83.8169 271.264 78.4253C270.788 71.6593 264.921 75.2538 264.921 75.2538C256.305 74.3552 255.882 63.9419 259.053 64.4176C262.489 64.8934 261.326 71.1836 249.116 72.5579C236.905 73.9323 231.038 64.4176 230.086 60.3475C229.135 56.2774 229.346 41.794 246.367 41.3182C262.648 40.8425 266.612 58.1274 261.749 57.176C257.203 56.2774 264.392 44.2255 274.858 49.9343C285.694 55.8016 276.232 68.9635 274.858 65.3163C273.537 61.8276 288.866 67.1135 284.373 79.7996C280.303 91.1115 270.788 87.0413 270.788 87.0413" stroke="black" stroke-width="2.8" stroke-miterlimit="10" stroke-linejoin="round"/>
    <path d="M214.653 100.52H204.081H184.946C184.946 100.52 155.081 101.895 168.19 69.7563C169.564 66.3734 170.991 63.519 172.419 60.4003L244.836 60.0831C240.818 61.8803 235.479 65.8448 234.792 74.0379C234.792 74.2494 234.739 74.4608 234.739 74.6194" stroke="black" stroke-width="2.8" stroke-miterlimit="10" stroke-linejoin="round"/>
    <path d="M229.771 68.0654C227.287 70.3383 224.538 74.2499 226.441 79.7472C229.401 88.1518 236.378 87.8875 236.378 87.8875C236.378 87.8875 238.651 92.4334 242.246 94.2306C242.246 94.2306 233.735 94.072 230.934 94.2306C225.437 94.5478 219.146 95.6049 215.076 109.613C211.006 123.62 210.107 125.893 210.107 125.893" stroke="black" stroke-width="2.8" stroke-miterlimit="10" stroke-linejoin="round"/>
    <path d="M231.41 76.5229C231.41 76.5229 238.176 71.977 241.823 76.9986C245.418 81.9674 241.823 86.5133 241.823 86.5133L248.589 87.8876" stroke="black" stroke-width="2.8" stroke-miterlimit="10" stroke-linejoin="round"/>
    <path d="M241.925 78.1084C242.665 77.0512 243.722 76.364 244.885 76.364C246.048 76.364 247.052 76.9983 247.792 78.0555" stroke="black" stroke-width="2.8" stroke-miterlimit="10" stroke-linecap="round" stroke-linejoin="round"/>
    <path d="M237.592 83.3936C239.869 83.3936 241.715 81.4057 241.715 78.9535C241.715 76.5012 239.869 74.5133 237.592 74.5133C235.315 74.5133 233.469 76.5012 233.469 78.9535C233.469 81.4057 235.315 83.3936 237.592 83.3936Z" fill="#D88D59" stroke="black" stroke-width="2.8" stroke-miterlimit="10" stroke-linecap="round" stroke-linejoin="round"/>
    <path d="M252.181 83.3936C254.458 83.3936 256.304 81.4057 256.304 78.9535C256.304 76.5012 254.458 74.5133 252.181 74.5133C249.904 74.5133 248.058 76.5012 248.058 78.9535C248.058 81.4057 249.904 83.3936 252.181 83.3936Z" fill="#D88D59" stroke="black" stroke-width="2.8" stroke-miterlimit="10" stroke-linecap="round" stroke-linejoin="round"/>
    <path d="M204.718 124.042C193.882 126.315 190.71 144.023 190.71 144.023" stroke="black" stroke-width="2.8" stroke-miterlimit="10"/>
    <path d="M271.688 131.76L278.031 140.799C278.031 140.799 284.797 140.799 286.647 138.526C286.647 138.526 284.374 126.316 275.811 124.941L271.688 131.76Z" fill="#D88D59" stroke="black" stroke-width="2.8" stroke-miterlimit="10" stroke-linejoin="round"/>
    <path d="M87.5304 88.3658C87.5304 88.3658 72.1222 88.2097 69.3112 88.3658C63.8975 88.678 57.7029 89.7185 53.6947 103.505C49.6865 117.292 46.9276 125.356 46.9276 125.356C46.9276 125.356 46.9276 127.593 49.5824 127.593C52.2372 127.593 51.8207 125.356 51.8207 125.356V95.0251H36.7248L29.1248 123.535C29.1248 123.535 24.2316 137.79 34.4864 141.328L54.5276 145.802L54.9961 163.595L87.0619 168.485L114.703 164.479V112.766C114.703 112.766 115.172 110.529 112.465 110.529C109.758 110.529 109.81 112.766 109.81 112.766C109.81 112.766 112.569 120.778 116.577 134.616C120.585 148.403 126.207 148.507 131.673 148.507C149.476 148.507 150.413 90.1347 150.413 90.1347H134.38C134.38 90.1347 128.862 120.518 128.133 122.651C127.248 125.304 126.78 127.541 129.903 127.541C134.796 127.541 129.903 119.529 129.903 119.529C129.903 119.529 129.018 117.292 125.01 103.505C121.002 89.7185 114.859 88.678 109.393 88.3658C106.635 88.2097 98.2537 88.3658 98.2537 88.3658H87.5304Z" fill="#BBBEFF" fill-opacity="0.72"/>
    <path d="M73.0052 67.93C75.4311 67.93 77.3977 65.7449 77.3977 63.0495C77.3977 60.3541 75.4311 58.169 73.0052 58.169C70.5794 58.169 68.6128 60.3541 68.6128 63.0495C68.6128 65.7449 70.5794 67.93 73.0052 67.93Z" fill="#D88D59"/>
    <path d="M92.1475 56.1512C88.3515 56.1512 84.881 55.2329 82.1153 53.7206C80.7054 55.7191 78.4821 57.2855 75.8249 57.9876C75.608 59.338 75.4453 60.6883 75.4453 62.1467C75.4453 72.3552 82.0069 80.6193 90.0868 80.6193C98.1668 80.6193 104.728 72.3552 104.728 62.1467C104.728 58.9599 104.078 55.9351 102.939 53.2885C100.011 55.1249 96.2688 56.1512 92.1475 56.1512Z" fill="#D88D59"/>
    <path d="M97.6366 89.089C100.779 79.7773 98.799 70.7026 93.2143 68.8201C87.6295 66.9376 80.5548 72.9601 77.4124 82.2718C74.2701 91.5836 76.25 100.658 81.8347 102.541C87.4195 104.423 94.4942 98.4008 97.6366 89.089Z" fill="#D88D59"/>
    <path d="M61.0005 90.69H51.6306C50.1731 90.69 48.6114 89.4935 48.247 88.0367L42.4169 66.1861C42.0004 64.7294 42.8854 63.5328 44.395 63.5328H53.7648C55.2224 63.5328 56.784 64.7294 57.1484 66.1861L62.9786 88.0367C63.343 89.4935 62.458 90.69 61.0005 90.69Z" fill="#FF3880"/>
    <path d="M76.392 137.998C75.3509 140.963 74.1536 144.501 72.8002 148.507C68.2193 162.294 61.244 163.334 55.0494 163.646C55.0494 163.646 36.7261 163.75 33.5507 163.594C27.3562 163.282 20.3808 162.242 15.8 148.455C14.3945 144.137 13.0932 140.391 12 137.269H59.8385L70.0933 137.373V130.246C70.0933 130.246 69.2084 126.24 65.6166 126.24V116.459H60.359V126.24C60.359 126.24 55.8823 126.708 55.8823 129.778C55.8823 132.847 55.8823 160.057 55.8823 160.057H64.3673V144.917H26.6274V160.057H49.1672" stroke="black" stroke-width="2.8" stroke-miterlimit="10" stroke-linecap="round" stroke-linejoin="round"/>
    <path d="M32.9263 163.543C37.455 173.688 43.6496 174.572 49.1674 174.832H54.0606H114.236V112.818C114.236 112.818 114.705 110.581 111.998 110.581C109.291 110.581 109.343 112.818 109.343 112.818C109.343 112.818 112.102 120.83 116.11 134.668C120.118 148.455 125.74 148.559 131.206 148.559C149.009 148.559 149.946 90.1868 149.946 90.1868H133.913C133.913 90.1868 128.395 120.57 127.666 122.703C126.781 125.356 126.313 127.593 129.436 127.593C134.329 127.593 129.436 119.581 129.436 119.581C129.436 119.581 128.551 117.344 124.543 103.557C120.535 89.7706 114.392 88.73 108.926 88.4179C106.168 88.2618 97.7867 88.4179 97.7867 88.4179C90.6552 104.442 83.0552 101.788 79.9839 100.02C75.4551 97.4183 77.3291 88.4179 77.3291 88.4179L79.9839 77.7527" stroke="black" stroke-width="2.8" stroke-miterlimit="10" stroke-linecap="round" stroke-linejoin="round"/>
    <path d="M94.5573 44.8727C98.5135 46.6416 103.771 50.5435 104.448 58.6075C105.645 72.8624 97.9929 80.198 91.0696 80.8743C82.1682 81.7588 77.275 76.8684 75.4531 67.972C75.4531 67.972 68.1654 68.1801 68.5298 62.8735C68.9983 56.2143 74.7764 59.752 74.7764 59.752C83.2614 58.8676 83.6778 48.6186 80.5545 49.0868C77.1709 49.555 78.3162 55.7461 90.3408 57.0987C102.366 58.4514 108.144 49.0868 109.081 45.0808" stroke="black" stroke-width="2.8" stroke-miterlimit="10" stroke-linejoin="round"/>
    <path d="M103.511 54.4973C103.511 54.4973 95.5467 53.2486 94.4015 59.2316C93.2042 65.1625 98.3577 67.7117 98.3577 67.7117L92.8398 71.7177" stroke="black" stroke-width="2.8" stroke-miterlimit="10" stroke-linejoin="round"/>
    <path d="M71.0821 58.8677C71.0821 58.8677 64.367 42.9479 76.8602 39.8264C76.8602 39.8264 79.0986 31.8145 88.8849 31.8145C96.9013 31.8145 103.616 36.7048 103.616 43.8323" stroke="black" stroke-width="2.8" stroke-miterlimit="10" stroke-linejoin="round"/>
    <path d="M81.2861 62.0933C81.2861 62.0933 86.6478 65.2148 90.656 62.0933" stroke="black" stroke-width="2.8" stroke-miterlimit="10"/>
    <path d="M149.478 74.9956C152.133 61.6251 157.079 64.3304 157.079 64.3304L153.539 80.3543L146.928 87.1696C146.928 87.1696 143.44 89.5107 138.963 87.4817C134.487 85.4527 133.914 81.2907 133.914 81.2907L136.465 79.9901C136.465 79.9901 142.607 82.9555 144.585 78.9496C148.125 71.8221 139.692 70.9377 139.692 70.9377L138.339 67.8161C138.339 67.8161 141.67 65.1628 146.355 67.8161C149.478 69.585 149.895 72.7065 149.895 72.7065" fill="#D88D59"/>
    <path d="M149.478 74.9956C152.133 61.6251 157.079 64.3304 157.079 64.3304L153.539 80.3543L146.928 87.1696C146.928 87.1696 143.44 89.5107 138.963 87.4817C134.487 85.4527 133.914 81.2907 133.914 81.2907L136.465 79.9901C136.465 79.9901 142.607 82.9555 144.585 78.9496C148.125 71.8221 139.692 70.9377 139.692 70.9377L138.339 67.8161C138.339 67.8161 141.67 65.1628 146.355 67.8161C149.478 69.585 149.895 72.7065 149.895 72.7065" stroke="black" stroke-width="2.8" stroke-miterlimit="10" stroke-linejoin="round"/>
    <path d="M34.0709 141.38C23.8161 137.842 28.7092 123.587 28.7092 123.587L36.3093 95.025H51.4572V125.304C51.4572 125.304 51.9257 127.541 49.2189 127.541C46.512 127.541 46.5641 125.304 46.5641 125.304C46.5641 125.304 49.323 117.292 53.3312 103.453C57.3395 89.6143 63.4819 88.6258 68.9477 88.3137C71.7066 88.1576 87.1669 88.3137 87.1669 88.3137" stroke="black" stroke-width="2.8" stroke-miterlimit="10" stroke-linecap="round" stroke-linejoin="round"/>
    <path d="M37.9604 160.353C41.945 159.23 41.222 144.308 36.3454 127.023C31.4688 109.739 24.2854 96.6371 20.3008 97.76C16.3161 98.8829 17.0392 113.805 21.9158 131.09C26.7923 148.374 33.9758 161.476 37.9604 160.353Z" stroke="black" stroke-width="2.8" stroke-miterlimit="10" stroke-linejoin="round"/>
    <path d="M66.8145 164.999C66.8145 164.999 92.6858 173.531 114.289 163.803" stroke="black" stroke-width="2.8" stroke-miterlimit="10" stroke-linejoin="round"/>
    <path d="M132.561 80.3534C136.759 80.3534 140.161 76.9527 140.161 72.7577C140.161 68.5627 136.759 65.162 132.561 65.162C128.364 65.162 124.961 68.5627 124.961 72.7577C124.961 76.9527 128.364 80.3534 132.561 80.3534Z" stroke="black" stroke-width="2.8" stroke-miterlimit="10" stroke-linecap="round" stroke-linejoin="round"/>
    <path d="M56.1416 163.491V174.832" stroke="black" stroke-width="2.8" stroke-miterlimit="10" stroke-linejoin="round"/>
    <path d="M21.4194 136.905C22.5126 133.784 23.814 130.038 25.2194 125.72C29.8003 111.933 36.7756 110.893 42.9702 110.58H43.2825C49.477 110.893 56.4524 111.933 61.0332 125.72C62.4387 130.038 63.7401 133.784 64.8332 136.905" stroke="black" stroke-width="2.8" stroke-miterlimit="10" stroke-linecap="round" stroke-linejoin="round"/>
    <path d="M41.2017 75.4113H53.6949L57.7031 90.1345H44.325C44.325 90.1345 38.0784 86.1286 41.2017 75.4113Z" fill="#D88D59" stroke="black" stroke-width="2.8" stroke-miterlimit="10" stroke-linecap="round" stroke-linejoin="round"/>
    <path d="M40.3198 95.0258L42.5061 88.2625" stroke="black" stroke-width="2.8" stroke-miterlimit="10" stroke-linecap="round" stroke-linejoin="round"/>
    <path d="M41.2007 75.4112C41.2007 75.4112 42.5541 70.0526 41.2007 67.3993C41.2007 67.3993 45.6774 66.5149 45.2089 71.8735" stroke="black" stroke-width="2.8" stroke-miterlimit="10" stroke-linecap="round" stroke-linejoin="round"/>
</svg>
