<svg width="328" height="200" viewBox="0 0 328 200" fill="none" xmlns="http://www.w3.org/2000/svg">
    <rect x="16" y="16" width="296" height="160" rx="8" fill="#F7EFF6"/>
    <path d="M270.671 48.8855L265.989 54.7002L260.864 49.5261L256.675 48.8855L259.09 45.6331L265.004 41.5924L270.671 48.8855Z" fill="#FFE2D6" stroke="black" stroke-width="2.8" stroke-miterlimit="10" stroke-linecap="round" stroke-linejoin="round"/>
    <path d="M265.003 40.0153C265.003 40.0153 263.13 45.3372 255.59 48.0475L265.003 40.0153Z" fill="#FFE2D6"/>
    <path d="M265.003 40.0153C265.003 40.0153 263.13 45.3372 255.59 48.0475" stroke="black" stroke-width="2.8" stroke-miterlimit="10" stroke-linecap="round" stroke-linejoin="round"/>
    <path d="M265.939 55.1434C265.939 55.1434 268.699 50.2157 270.67 49.2794L265.939 55.1434Z" fill="#FFE2D6"/>
    <path d="M265.939 55.1434C265.939 55.1434 268.699 50.2157 270.67 49.2794" stroke="black" stroke-width="2.8" stroke-miterlimit="10" stroke-linecap="round" stroke-linejoin="round"/>
    <path d="M41.0186 93.235L21.2074 96.8323L8 75.8894" stroke="#FF3880" stroke-width="2.8" stroke-miterlimit="10" stroke-linecap="round" stroke-linejoin="round"/>
    <path d="M237.209 163.11C244.258 163.11 249.973 157.396 249.973 150.348C249.973 143.299 244.258 137.585 237.209 137.585C230.159 137.585 224.445 143.299 224.445 150.348C224.445 157.396 230.159 163.11 237.209 163.11Z" stroke="black" stroke-width="2.8" stroke-miterlimit="10" stroke-linecap="round" stroke-linejoin="round"/>
    <path d="M133.569 163.11C140.618 163.11 146.332 157.396 146.332 150.348C146.332 143.299 140.618 137.585 133.569 137.585C126.519 137.585 120.805 143.299 120.805 150.348C120.805 157.396 126.519 163.11 133.569 163.11Z" stroke="black" stroke-width="2.8" stroke-miterlimit="10" stroke-linecap="round" stroke-linejoin="round"/>
    <path d="M287.031 183.708C305.239 183.708 320 168.948 320 150.741C320 132.534 305.239 117.775 287.031 117.775C268.822 117.775 254.062 132.534 254.062 150.741C254.062 168.948 268.822 183.708 287.031 183.708Z" stroke="black" stroke-width="2.8" stroke-miterlimit="10" stroke-linecap="round" stroke-linejoin="round"/>
    <path d="M84.9268 183.708C103.135 183.708 117.896 168.948 117.896 150.741C117.896 132.534 103.135 117.775 84.9268 117.775C66.7184 117.775 51.9575 132.534 51.9575 150.741C51.9575 168.948 66.7184 183.708 84.9268 183.708Z" stroke="black" stroke-width="2.8" stroke-miterlimit="10" stroke-linecap="round" stroke-linejoin="round"/>
    <path d="M269.93 104.273H219.515L185.757 150.741H236.172L269.93 104.273Z" stroke="black" stroke-width="2.8" stroke-miterlimit="10" stroke-linecap="round" stroke-linejoin="round"/>
    <path d="M218.725 104.618H168.261L134.553 151.037H184.968L218.725 104.618Z" stroke="black" stroke-width="2.8" stroke-miterlimit="10" stroke-linecap="round" stroke-linejoin="round"/>
    <path d="M279.59 88.9473C284.025 88.9473 287.672 92.5445 287.672 97.0288C287.672 101.513 284.074 105.11 279.59 105.11" stroke="black" stroke-width="2.8" stroke-miterlimit="10" stroke-linecap="round" stroke-linejoin="round"/>
    <path d="M287.031 150.741L264.854 88.9471H280.378" stroke="black" stroke-width="2.8" stroke-miterlimit="10" stroke-linecap="round" stroke-linejoin="round"/>
    <path d="M176.887 88.9473C181.322 88.9473 184.969 92.5445 184.969 97.0288C184.969 101.513 181.371 105.11 176.887 105.11" stroke="black" stroke-width="2.8" stroke-miterlimit="10" stroke-linecap="round" stroke-linejoin="round"/>
    <path d="M184.329 150.741L162.152 88.9473H177.676" stroke="black" stroke-width="2.8" stroke-miterlimit="10" stroke-linecap="round" stroke-linejoin="round"/>
    <path d="M240.805 163.602L213.996 88.9471" stroke="black" stroke-width="2.8" stroke-miterlimit="10" stroke-linecap="round" stroke-linejoin="round"/>
    <path d="M168.065 104.618H117.65L83.8921 151.037H134.307L168.065 104.618Z" stroke="black" stroke-width="2.8" stroke-miterlimit="10" stroke-linecap="round" stroke-linejoin="round"/>
    <path d="M139.038 163.603L112.229 88.9476" stroke="black" stroke-width="2.8" stroke-miterlimit="10" stroke-linecap="round" stroke-linejoin="round"/>
    <path d="M112.23 112.502H54.6694" stroke="black" stroke-width="2.8" stroke-miterlimit="10" stroke-linecap="round" stroke-linejoin="round"/>
    <path d="M269.389 85.794H289.496L303.344 63.3235" stroke="#FF3880" stroke-width="2.8" stroke-miterlimit="10" stroke-linecap="round" stroke-linejoin="round"/>
    <path d="M212.322 58.5439C220.109 59.5787 234.104 57.0163 240.807 52.1871C255.591 41.5925 266.729 50.0682 266.729 54.306C266.729 62.3875 267.222 75.1011 255.591 76.2344C241.743 77.5649 212.618 74.017 234.647 88.8987C245.981 96.586 207.985 82.9362 207.985 82.9362C207.985 82.9362 199.657 75.2489 207.985 66.5761C207.985 66.5761 210.597 76.4808 218.729 73.672" fill="white"/>
    <path d="M212.322 58.5439C220.109 59.5787 234.104 57.0163 240.807 52.1871C255.591 41.5925 266.729 50.0682 266.729 54.306C266.729 62.3875 267.222 75.1011 255.591 76.2344C241.743 77.5649 212.618 74.017 234.647 88.8987C245.981 96.586 207.985 82.9362 207.985 82.9362C207.985 82.9362 199.657 75.2489 207.985 66.5761C207.985 66.5761 210.597 76.4808 218.729 73.672" stroke="black" stroke-width="2.8" stroke-miterlimit="10" stroke-linecap="round" stroke-linejoin="round"/>
    <path d="M202.761 88.948L241.89 116.987C241.89 116.987 235.336 124.822 234.547 128.271C233.02 134.776 234.991 148.82 234.843 158.183L232.28 167.25L254.063 166.116L242.63 158.626L255.886 113.784L229.669 79.191C229.669 79.191 215.82 59.0859 202.712 69.0892C191.475 77.6634 202.761 88.948 202.761 88.948Z" fill="#FFE2D6" stroke="black" stroke-width="2.8" stroke-miterlimit="10" stroke-linecap="round" stroke-linejoin="round"/>
    <path d="M249.725 54.7002C245.093 54.0103 243.072 59.4308 243.072 59.4308L252.83 90.1799L283.384 99.8383C286.391 103.436 290.629 102.45 290.629 102.45C294.571 97.3251 291.812 92.9887 291.812 92.9887H285.454L261.356 82.2463C261.405 82.197 259.631 56.2278 249.725 54.7002Z" fill="#FFE2D6" stroke="black" stroke-width="2.8" stroke-miterlimit="10" stroke-linecap="round" stroke-linejoin="round"/>
    <path d="M249.922 31.454C249.922 31.454 230.308 30.8627 230.555 37.663C230.801 44.4632 241.002 52.2983 248.986 48.0112C256.969 43.7241 264.46 42.9356 264.46 42.9356L265.643 38.0572C265.643 38.0079 261.996 32.8338 249.922 31.454Z" stroke="black" stroke-width="2.8" stroke-miterlimit="10" stroke-linecap="round" stroke-linejoin="round"/>
    <path d="M255.097 46.52C255.097 46.52 256.034 50.7086 254.506 52.8768L257.216 53.7638C257.956 55.932 258.448 57.4103 259.73 58.1987C262.342 59.7756 266.383 58.3959 270.276 55.045C274.416 51.4478 276.338 44.7953 274.021 39.1284C272.099 34.4963 266.777 31.4411 260.37 34.7427C256.231 36.9109 254.161 40.9517 255.097 46.52Z" fill="#FFE2D6" stroke="black" stroke-width="2.8" stroke-miterlimit="10" stroke-linecap="round" stroke-linejoin="round"/>
    <path d="M277.964 36.9603C277.964 36.9603 266.087 23.0641 256.674 37.5023C254.9 40.2619 264.116 38.2415 267.368 41.1981C271.508 44.9432 274.761 48.1955 274.761 48.1955C274.761 48.1955 280.034 45.3374 277.964 36.9603Z" fill="#FBEAEB" stroke="black" stroke-width="2.8" stroke-miterlimit="10" stroke-linecap="round" stroke-linejoin="round"/>
    <path d="M271.457 50.9551C273.675 50.9551 275.449 49.1812 275.449 47.013C275.449 44.8447 273.675 43.0215 271.506 43.0215" fill="#FFE2D6"/>
    <path d="M271.457 50.9551C273.675 50.9551 275.449 49.1812 275.449 47.013C275.449 44.8447 273.675 43.0215 271.506 43.0215" stroke="black" stroke-width="2.8" stroke-miterlimit="10" stroke-linecap="round" stroke-linejoin="round"/>
    <path d="M264.608 47.6042C263.475 47.9492 261.75 48.1955 260.419 47.4071L264.608 47.6042Z" fill="white"/>
    <path d="M264.608 47.6042C263.475 47.9492 261.75 48.1955 260.419 47.4071" stroke="black" stroke-width="2.8" stroke-miterlimit="10" stroke-linecap="round" stroke-linejoin="round"/>
    <path d="M162.201 85.7942H182.308L196.156 63.3237" stroke="#FF3880" stroke-width="2.8" stroke-miterlimit="10" stroke-linecap="round" stroke-linejoin="round"/>
    <path d="M166.538 49.4768L162.152 54.9466L157.274 50.0682L153.331 49.4768L155.598 46.4216L161.216 42.578L166.538 49.4768Z" fill="#FFD1A6"/>
    <path d="M161.659 40.2622C161.659 40.2622 159.786 45.5842 152.246 48.2944L161.659 40.2622Z" fill="#FFD1A6"/>
    <path d="M161.659 40.2622C161.659 40.2622 159.786 45.5842 152.246 48.2944" stroke="black" stroke-width="2.8" stroke-miterlimit="10" stroke-linecap="round" stroke-linejoin="round"/>
    <path d="M162.595 55.3904C162.595 55.3904 165.355 50.4626 167.326 49.5264L162.595 55.3904Z" fill="#FFD1A6"/>
    <path d="M162.595 55.3904C162.595 55.3904 165.355 50.4626 167.326 49.5264" stroke="black" stroke-width="2.8" stroke-miterlimit="10" stroke-linecap="round" stroke-linejoin="round"/>
    <path d="M110.653 62.5351C119.326 58.1987 129.971 53.0246 134.505 51.2999C144.558 47.5055 155.844 45.3866 161.659 54.3058C164.616 58.8393 164.173 72.0949 152.246 76.5792C142.292 80.275 125.191 73.4254 119.474 84.5621" fill="#BBBEFF"/>
    <path d="M110.653 62.5351C119.326 58.1987 129.971 53.0246 134.505 51.2999C144.558 47.5055 155.844 45.3866 161.659 54.3058C164.616 58.8393 164.173 72.0949 152.246 76.5792C142.292 80.275 125.191 73.4254 119.474 84.5621" stroke="black" stroke-width="2.8" stroke-miterlimit="10" stroke-linecap="round" stroke-linejoin="round"/>
    <path d="M178.267 99.8383L145.544 94.7135C145.544 94.7135 143.08 83.1333 143.08 70.7154C143.08 64.0629 144.016 60.0715 144.016 60.0715C144.016 60.0715 145.396 52.2856 150.867 52.2856C156.337 52.2856 157.47 56.8192 158.062 59.2338C158.702 61.6976 158.752 82.5912 158.752 82.5912L180.189 91.4119L181.273 89.6872H187.088C187.088 89.6872 191.277 97.7687 185.462 102.598C185.511 102.45 181.322 103.386 178.267 99.8383Z" fill="#FFD1A6" stroke="black" stroke-width="2.8" stroke-miterlimit="10" stroke-linecap="round" stroke-linejoin="round"/>
    <path d="M123.761 130.439L126.964 116.79L97.7404 88.9479C97.7404 88.9479 86.4549 77.6634 97.7404 69.0891L109.568 63.1266L124.697 79.191L126.373 81.4085L150.915 113.784L139.088 153.698H127.654H118.34L120.804 143.252" fill="#CCCCCC"/>
    <path d="M136.919 73.2284C142.685 74.7068 155.449 74.0169 158.8 73.327C158.948 71.9965 158.751 61.599 158.011 59.1351C157.272 56.7205 155.991 52.0392 149.781 52.187C138.989 52.4827 141.699 69.1384 141.699 69.1384" fill="#BBBEFF"/>
    <path d="M136.919 73.2284C142.685 74.7068 155.449 74.0169 158.8 73.327C158.948 71.9965 158.751 61.599 158.011 59.1351C157.272 56.7205 155.991 52.0392 149.781 52.187C138.989 52.4827 141.699 69.1384 141.699 69.1384" stroke="black" stroke-width="2.8" stroke-miterlimit="10" stroke-linecap="round" stroke-linejoin="round"/>
    <path d="M127.655 153.649H139.039" stroke="black" stroke-width="2.8" stroke-miterlimit="10" stroke-linecap="round" stroke-linejoin="round"/>
    <path d="M137.61 158.626L139.088 153.649H127.655L126.275 157.641L122.382 163.603L122.973 171.192H157.766V167.25L137.61 158.626Z" fill="#FAE9EB" stroke="black" stroke-width="2.8" stroke-miterlimit="10" stroke-linecap="round" stroke-linejoin="round"/>
    <path d="M123.761 130.439L126.964 116.789L97.7404 88.9477C97.7404 88.9477 86.4549 77.6632 97.7404 69.0889L104.393 65.738" stroke="black" stroke-width="2.8" stroke-miterlimit="10" stroke-linecap="round" stroke-linejoin="round"/>
    <path d="M126.126 157.641C126.126 157.641 127.309 160.252 131.202 160.252C135.095 160.252 137.904 158.429 137.904 158.429L139.087 153.649H127.654C127.654 153.649 126.126 157.887 126.126 157.641Z" fill="#FFD1A6" stroke="black" stroke-width="2.8" stroke-miterlimit="10" stroke-linecap="round" stroke-linejoin="round"/>
    <path d="M105.478 58.3469L150.916 113.784L139.088 153.649H127.655H118.34L120.805 143.203" stroke="black" stroke-width="2.8" stroke-miterlimit="10" stroke-linecap="round" stroke-linejoin="round"/>
    <path d="M88.6253 89.5887L87.4918 87.2727H63.2453C25.1015 94.4672 22.8838 110.778 22.8838 110.778L37.4218 151.038L60.387 143.301L46.1939 116.445L76.6006 113.488C76.6006 113.488 96.5103 112.503 88.6253 89.5887Z" fill="#BBBEFF" stroke="black" stroke-width="2.8" stroke-miterlimit="10" stroke-linecap="round" stroke-linejoin="round"/>
    <path d="M79.6548 45.7811L90.4967 43.2186C90.4967 43.2186 95.9177 50.1175 94.0943 57.7555C92.2708 65.3934 88.5747 65.6891 88.5747 65.6891L79.6548 45.7811Z" fill="#CCCCCC" stroke="black" stroke-width="2.8" stroke-miterlimit="10" stroke-linecap="round" stroke-linejoin="round"/>
    <path d="M90.4474 94.3683C91.2359 85.9418 87.0962 75.4458 86.9977 70.0745C86.8498 59.3321 86.5541 45.2387 76.1065 45.7808C62.6526 46.52 50.5294 68.2513 51.17 81.0141C51.3672 84.7592 52.1064 88.3564 53.092 92.0522C53.1413 92.2986 50.1844 93.5798 51.17 95.3538C53.1906 98.9511 63.6875 101.858 69.0592 102.548C73.2481 103.09 78.9155 103.189 83.8929 100.774C89.0675 98.3105 90.3488 95.7973 90.4474 94.3683Z" fill="#CCCCCC" stroke="black" stroke-width="2.8" stroke-miterlimit="10" stroke-linecap="round" stroke-linejoin="round"/>
    <path d="M215.622 98.1627L235.187 86.3854" stroke="black" stroke-width="2.8" stroke-miterlimit="10" stroke-linecap="round" stroke-linejoin="round"/>
    <path d="M30.9642 83.3795C30.9642 83.3795 25.6418 86.5333 26.381 92.9886C26.381 92.9886 35.6952 92.2494 40.1305 90.7711L38.0607 84.8578L30.9642 83.3795Z" fill="#D89C7D" stroke="black" stroke-width="2.8" stroke-miterlimit="10" stroke-linecap="round" stroke-linejoin="round"/>
    <path d="M183.835 40.5571C183.835 40.5571 184.427 47.2588 184.427 49.1806L180.09 49.2299C177.725 50.4125 176.936 57.952 175.359 57.7549C165.848 56.6708 162.004 47.5052 161.905 41.8876C161.856 36.4178 166.306 41.3672 170.742 37.1294C174.339 33.6307 167.595 25.8902 182.258 30.3074C185.265 31.8843 185.412 36.9598 183.835 40.5571Z" fill="#FFDFAD" stroke="black" stroke-width="2.8" stroke-miterlimit="10" stroke-linecap="round" stroke-linejoin="round"/>
    <path d="M175.901 41.0007C176.986 41.5921 178.563 42.1834 180.041 41.6413L175.901 41.0007Z" fill="#FFDFAD"/>
    <path d="M175.901 41.0007C176.986 41.5921 178.563 42.1834 180.041 41.6413" stroke="black" stroke-width="2.8" stroke-miterlimit="10" stroke-linecap="round" stroke-linejoin="round"/>
    <path d="M160.526 25.4407C160.526 25.4407 166.697 19.5962 175.688 20.4955C184.68 21.3946 188.567 26.2217 184.23 32.1843M160.92 38.8324L160.526 36.3192L159.392 29.0262" stroke="black" stroke-width="2.8" stroke-miterlimit="10" stroke-linecap="round" stroke-linejoin="round"/>
    <path d="M166.514 44.5979C164.346 44.253 162.868 42.2326 163.213 40.0644C163.558 37.8962 165.578 36.4179 167.746 36.7628" fill="#FFDFAD"/>
    <path d="M166.514 44.5979C164.346 44.253 162.868 42.2326 163.213 40.0644C163.558 37.8962 165.578 36.4179 167.746 36.7628" stroke="black" stroke-width="2.8" stroke-miterlimit="10" stroke-linecap="round" stroke-linejoin="round"/>
    <path d="M151.556 84.71C151.556 84.71 153.527 82.4432 156.977 82.4432L151.556 84.71Z" fill="white"/>
    <path d="M151.556 84.71C151.556 84.71 153.527 82.4432 156.977 82.4432" stroke="black" stroke-width="2.8" stroke-miterlimit="10" stroke-linecap="round" stroke-linejoin="round"/>
    <path d="M66.3993 49.8708L71.1796 46.7664L75.9106 45.7808H77.8326L74.4814 38.9313L69.504 42.9227L63.4424 44.6474L65.4136 50.068L66.5471 50.1172" fill="#D89C7D"/>
    <path d="M55.0645 31.1455L53.6846 37.0587L56.8386 37.6501C58.9577 39.2269 57.7749 44.4996 59.3519 44.5982C68.9125 45.1895 72.5594 41.4937 75.5163 36.7138C78.4731 31.8353 79.3602 24.3945 75.812 19.4667C72.8551 15.3767 67.8776 15.2289 61.0275 17.3478C57.7749 18.3333 52.6004 22.719 55.0645 31.1455Z" fill="#D89C7D" stroke="black" stroke-width="2.8" stroke-miterlimit="10" stroke-linecap="round" stroke-linejoin="round"/>
    <path d="M63.7885 31.6877C62.6551 32.0819 60.9302 32.3775 59.5996 31.5891L63.7885 31.6877Z" fill="#D89C7D"/>
    <path d="M63.7885 31.6877C62.6551 32.0819 60.9302 32.3775 59.5996 31.5891" stroke="black" stroke-width="2.8" stroke-miterlimit="10" stroke-linecap="round" stroke-linejoin="round"/>
    <path d="M58.1193 20.748L67.3842 22.4727L68.222 26.8584L71.8195 27.3019L73.8401 29.8643L74.3822 30.8991L76.8462 31.1455L77.8319 28.1889V22.7191L73.8401 17.4957L67.9756 16.2637L60.2384 17.6435L56.2466 20.0088L58.1193 20.748Z" fill="#666666"/>
    <path d="M75.5149 36.7142C75.5149 36.7142 74.7757 43.7609 78.7675 45.7813L75.5149 36.7142Z" fill="white"/>
    <path d="M75.5149 36.7142C75.5149 36.7142 74.7757 43.7609 78.7675 45.7813" stroke="black" stroke-width="2.8" stroke-miterlimit="10" stroke-linecap="round" stroke-linejoin="round"/>
    <path d="M64.0825 44.4995L65.9059 50.265" stroke="black" stroke-width="2.8" stroke-miterlimit="10" stroke-linecap="round" stroke-linejoin="round"/>
    <path d="M56.2466 20.8958C56.2466 20.8958 65.4622 19.9102 66.9899 22.0784L68.0249 29.8643L77.5855 31.4904" stroke="black" stroke-width="2.8" stroke-miterlimit="10" stroke-linecap="round" stroke-linejoin="round"/>
    <path d="M69.6509 33.9543C71.8193 33.7572 73.4949 31.9832 73.2977 29.9136C73.1499 27.8932 71.2279 26.3656 69.0103 26.5627" fill="#D89C7D"/>
    <path d="M69.6509 33.9543C71.8193 33.7572 73.4949 31.9832 73.2977 29.9136C73.1499 27.8932 71.2279 26.3656 69.0103 26.5627" stroke="black" stroke-width="2.8" stroke-miterlimit="10" stroke-linecap="round" stroke-linejoin="round"/>
    <path d="M55.0645 31.1455L53.6846 37.0587L56.8386 37.6501C58.9577 39.2269 57.7749 44.4996 59.3519 44.5982C68.9125 45.1895 72.5594 41.4937 75.5163 36.7138C78.4731 31.8353 79.3602 24.3945 75.812 19.4667C72.8551 15.3767 67.8776 15.2289 61.0275 17.3478C57.7749 18.3333 52.6004 22.719 55.0645 31.1455Z" stroke="black" stroke-width="2.8" stroke-miterlimit="10" stroke-linecap="round" stroke-linejoin="round"/>
    <path d="M39.1948 85.7943L43.5316 94.3686" stroke="black" stroke-width="2.8" stroke-miterlimit="10" stroke-linecap="round" stroke-linejoin="round"/>
    <path d="M79.212 46.7663C74.5303 43.9575 68.173 47.7518 66.4974 50.0679C62.5549 55.5377 58.8095 74.2138 58.8095 74.2138L41.1667 83.2808L38.1606 84.8084H38.062L40.1318 90.7217L43.5323 94.3682L71.1792 86.336L82.0211 54.5521C82.0211 54.6014 83.8938 49.5751 79.212 46.7663Z" fill="#CCCCCC" stroke="black" stroke-width="2.8" stroke-miterlimit="10" stroke-linecap="round" stroke-linejoin="round"/>
    <path d="M43.9761 148.869L47.5736 157.64L58.0706 153.747L55.2122 145.075L43.9761 148.869Z" fill="#D89C7D" stroke="black" stroke-width="2.8" stroke-miterlimit="10" stroke-linecap="round" stroke-linejoin="round"/>
    <path d="M45.7497 154.29L46.1933 155.029L34.3657 169.763L37.3719 174.149L65.6102 160.104L61.0763 152.91L57.0352 151.432C53.0927 156.901 48.066 155.423 45.7497 154.29Z" fill="#232323" stroke="black" stroke-width="2.8" stroke-miterlimit="10" stroke-linecap="round" stroke-linejoin="round"/>
    <path d="M214.884 96.1424L234.153 85.7941L229.718 79.1417L222.474 71.4052L214.884 67.0195L207.985 66.6252L200.297 71.4052L197.784 78.9939L200.297 85.7941L204.289 90.032L214.884 96.1424Z" fill="#BBBEFF"/>
    <path d="M202.76 88.9479L241.89 116.987C241.89 116.987 235.335 124.822 234.547 128.271C233.019 134.776 234.99 148.82 234.843 158.183L232.28 167.25H257.315L242.629 158.577L255.886 113.734L229.668 79.1417C229.668 79.1417 215.82 59.0366 202.711 69.0399C191.475 77.6634 202.76 88.9479 202.76 88.9479Z" stroke="black" stroke-width="2.8" stroke-miterlimit="10" stroke-linecap="round" stroke-linejoin="round"/>
    <path d="M233.61 157.641L230.357 162.568L230.85 168.925H259.877V165.673L243.023 158.429C243.023 158.429 242.579 159.562 239.869 160.351C239.918 160.351 236.123 161.583 233.61 157.641Z" fill="#232323" stroke="black" stroke-width="2.8" stroke-miterlimit="10" stroke-linecap="round" stroke-linejoin="round"/>
</svg>
