<svg width="328" height="200" viewBox="0 0 328 200" fill="none" xmlns="http://www.w3.org/2000/svg">
    <rect x="16" y="16" width="296" height="160" rx="8" fill="#F7EFF6"/>
    <path d="M166.346 146.087C191.095 146.087 211.158 126.024 211.158 101.275C211.158 76.5255 191.095 56.4625 166.346 56.4625C141.597 56.4625 121.534 76.5255 121.534 101.275C121.534 126.024 141.597 146.087 166.346 146.087Z" fill="#BBBEFF"/>
    <path d="M198.853 92.7858C202.196 92.7858 204.907 89.6334 204.907 85.7448C204.907 81.8562 202.196 78.7039 198.853 78.7039C195.509 78.7039 192.799 81.8562 192.799 85.7448C192.799 89.6334 195.509 92.7858 198.853 92.7858Z" fill="#D89C7D"/>
    <path d="M172.4 76.7956C177.598 76.7956 182.336 75.5453 186.153 73.4396C188.127 76.2034 191.154 78.3091 194.773 79.3619C195.102 81.2044 195.299 83.1127 195.299 85.0868C195.299 99.1687 186.284 110.553 175.229 110.553C164.174 110.553 155.225 99.1687 155.225 85.0868C155.225 80.678 156.081 76.5324 157.66 72.9132C161.608 75.3479 166.806 76.7956 172.4 76.7956Z" fill="#D89C7D"/>
    <path d="M186.271 141.734C194.261 139.039 197.094 126.051 192.599 112.723C188.104 99.3959 177.983 90.7763 169.993 93.471C162.004 96.1656 159.171 109.154 163.666 122.482C168.161 135.809 178.281 144.429 186.271 141.734Z" fill="#D89C7D"/>
    <path d="M202.734 101.143L192.864 105.42H189.902L195.167 95.5499L198.128 92.5887L202.734 90.2856L206.682 83.0472L202.734 78.441L195.825 81.4022L183.651 78.441L180.69 75.8089L170.49 76.4669H162.594L155.685 72.8477L153.711 81.4022L154.698 96.2079L152.394 93.2468L144.498 76.4669L148.117 57.713L160.291 54.4228L184.638 55.4098L206.682 62.3192L212.605 74.8218V89.6276L202.734 101.143Z" fill="#F0F0FF"/>
    <path d="M121.993 124.503L126.533 130.162L131.797 131.413L136.798 127.399L148.511 115.883L124.23 115.62L121.4 121.805L121.993 124.503Z" fill="#007AFF"/>
    <path d="M147.59 121.476C151.539 121.279 163.515 121.476 163.515 121.476C173.714 144.376 184.506 140.559 188.981 138.059C195.429 134.374 192.797 121.476 192.797 121.476L188.981 106.21" stroke="black" stroke-width="2.8" stroke-miterlimit="10" stroke-linecap="round" stroke-linejoin="round"/>
    <path d="M168.057 59.2925C162.464 61.8588 154.633 67.3205 153.975 78.9677C152.725 99.8273 166.215 113.646 166.215 113.646C166.215 113.646 194.576 110.882 195.431 92.3258C195.431 92.3258 201.88 95.0237 205.302 85.0216C206.355 81.9946 204.841 79.0335 202.604 78.3096C198.129 76.7962 196.353 80.547 196.353 80.547" stroke="black" stroke-width="2.8" stroke-miterlimit="10" stroke-linejoin="round"/>
    <path d="M149.235 72.9132C149.235 72.9132 164.304 71.6629 164.37 80.4806C164.436 87.8506 164.107 94.2335 164.107 94.2335L170.029 93.4438" stroke="black" stroke-width="2.8" stroke-miterlimit="10" stroke-linejoin="round"/>
    <path d="M187.071 83.837C187.071 83.837 179.438 88.3117 173.713 83.837" stroke="black" stroke-width="2.8" stroke-miterlimit="10"/>
    <path d="M178.784 121.411C178.784 121.411 200.828 121.213 204.776 121.411C204.776 121.411 221.095 119.174 223.135 146.35" stroke="black" stroke-width="2.8" stroke-miterlimit="10" stroke-linecap="round" stroke-linejoin="round"/>
    <path d="M151.343 113.251L136.142 129.044" stroke="black" stroke-width="2.8" stroke-miterlimit="10" stroke-linejoin="round"/>
    <path d="M122.717 119.963L131.535 100.288" stroke="black" stroke-width="2.8" stroke-miterlimit="10" stroke-linejoin="round"/>
    <path d="M154.042 96.5366C147.593 90.2195 143.645 81.6651 143.645 72.1236C143.645 57.9759 158.319 42.8411 180.232 37.182C200.17 32.0493 204.316 56.3308 204.316 56.3308C204.316 56.3308 216.818 53.567 216.818 72.1236C216.818 88.377 210.96 97.8527 196.154 105.091" stroke="black" stroke-width="2.8" stroke-miterlimit="10" stroke-linejoin="round"/>
    <path d="M128.903 124.174L153.448 98.5765L167.661 102.525" stroke="white" stroke-width="2.8" stroke-miterlimit="10" stroke-linecap="round" stroke-linejoin="round"/>
    <path d="M167.661 75.0851C167.661 75.0851 182.335 79.0333 187.007 69.8866" stroke="black" stroke-width="2.8" stroke-miterlimit="10" stroke-linejoin="round"/>
    <path d="M180.361 75.2169C180.361 75.2169 196.877 91.7993 208.196 71.1371" stroke="black" stroke-width="2.8" stroke-miterlimit="10" stroke-linejoin="round"/>
    <path d="M198.722 85.0869L190.299 92.7859" stroke="#FF008A" stroke-width="2.8" stroke-miterlimit="10" stroke-linecap="round" stroke-linejoin="round"/>
    <path d="M136.078 129.069C138.037 126.182 136.626 121.807 132.927 119.297C129.228 116.788 124.641 117.094 122.683 119.981C120.724 122.868 122.135 127.243 125.834 129.752C129.533 132.262 134.119 131.956 136.078 129.069Z" stroke="black" stroke-width="2.8" stroke-miterlimit="10" stroke-linejoin="round"/>
    <path d="M131.535 100.288L131.667 99.9586C134.891 95.2207 141.932 94.2995 147.328 97.9845C152.724 101.669 154.501 108.513 151.276 113.251" stroke="black" stroke-width="2.8" stroke-miterlimit="10" stroke-linejoin="round"/>
    <path d="M122.717 114.567L135.615 109.237L140.221 95.7474L131.272 91.7334C131.206 91.7334 117.19 101.406 122.717 114.567Z" fill="#D89C7D" stroke="black" stroke-width="2.8" stroke-miterlimit="10" stroke-linejoin="round"/>
    <path d="M151.868 118.515C154.23 118.515 156.145 116.601 156.145 114.238C156.145 111.876 154.23 109.961 151.868 109.961C149.505 109.961 147.59 111.876 147.59 114.238C147.59 116.601 149.505 118.515 151.868 118.515Z" fill="#D89C7D" stroke="black" stroke-width="2.8" stroke-miterlimit="10" stroke-linejoin="round"/>
    <path d="M122.718 114.567L92.5797 142.731C92.5797 142.731 83.2356 153.128 92.5797 162.472C101.924 171.816 114.097 159.643 114.097 159.643L131.601 140.56" stroke="black" stroke-width="2.8" stroke-miterlimit="10" stroke-linecap="round" stroke-linejoin="round"/>
    <path d="M71.1577 137.367C90.8218 137.367 106.763 121.427 106.763 101.762C106.763 82.0984 90.8218 66.1575 71.1577 66.1575C51.4936 66.1575 35.5527 82.0984 35.5527 101.762C35.5527 121.427 51.4936 137.367 71.1577 137.367Z" fill="#BBBEFF"/>
    <path d="M69.4342 110.128C65.0424 99.1483 56.1542 92.4037 49.5665 95.0179C49.2528 95.1224 48.9914 95.2793 48.73 95.4361V125.708C53.4878 132.976 60.2323 136.897 65.4606 134.805C72.0484 132.139 73.826 121.107 69.4342 110.128Z" fill="#FFE2D6"/>
    <path d="M78.6357 105.632H85.0143C85.0143 105.632 93.5365 104.952 97.6669 117.291L102.268 130.205" stroke="black" stroke-width="2.8" stroke-miterlimit="10" stroke-linecap="round" stroke-linejoin="round"/>
    <path d="M40.939 119.016V150.229L83.759 141.393V110.18" stroke="black" stroke-width="2.8" stroke-miterlimit="10" stroke-linecap="round" stroke-linejoin="round"/>
    <path d="M95.2093 91.2012L97.9281 101.187C98.3463 102.756 97.5098 104.743 96.0459 105.579L74.4529 118.075C72.9889 118.911 71.4727 118.336 71.0544 116.768L68.3357 106.782C67.9174 105.213 68.754 103.226 70.2179 102.39L91.8109 89.8941C93.2226 89.0576 94.7911 89.6327 95.2093 91.2012Z" fill="#FF3880"/>
    <path d="M67.4991 106.102L70.6884 118.964C70.6884 118.964 72.9366 129.786 67.4991 132.871C63.7347 135.015 54.6374 138.204 46.1152 118.964C46.1152 118.964 27.8683 118.911 24.5222 119.068C24.5222 119.068 17.098 119.8 16 127.852V138.047" stroke="black" stroke-width="2.8" stroke-miterlimit="10" stroke-linecap="round" stroke-linejoin="round"/>
    <path d="M51.5517 83.0974C49.9832 89.1623 48.5193 92.0901 45.9051 90.9922C43.3432 89.8942 42.2976 82.4177 43.4478 79.699C44.598 76.9802 47.6305 75.6732 50.1924 76.7188C52.8065 77.8691 52.2837 80.2741 51.5517 83.0974Z" fill="#FFE2D6"/>
    <path d="M76.2827 71.5951C72.2569 69.922 63.787 69.8174 59.8658 70.8631C58.245 71.8565 54.8988 82.47 54.1669 84.2476C53.5918 85.6593 52.0233 83.7248 51.0299 83.568C50.1933 84.875 51.5527 81.2675 50.9253 82.836C46.3244 93.7109 49.5137 105.579 58.1404 109.082C76.1259 116.506 78.1649 107.775 82.7659 96.9002C84.2298 93.5018 87.7851 81.9995 88.0988 78.967C88.3079 75.9869 80.6222 73.425 76.2827 71.5951Z" fill="#FFE2D6"/>
    <path d="M54.4283 84.8749L51.2913 83.8292V79.6465L47.6314 77.2938L46.8472 65.2686L51.2913 60.0403L58.3495 58.2104L64.8849 55.3348L76.1258 56.6419L84.4912 62.6544L88.6738 71.804L88.151 77.2938L86.3211 75.7253L80.5699 72.8497L67.7605 70.4969H59.1338L54.4283 84.8749Z" fill="white"/>
    <path d="M51.4994 83.3587L48.7284 92.5606L47.5781 102.233L53.4339 107.618L60.283 111.226L69.1189 112.69L75.5497 111.33L83.1308 99.096L83.5491 96.4295L76.8045 96.2727L75.5497 99.5665L68.3346 97.6321L65.7204 92.6129L54.6887 87.8551L54.4795 84.4044L51.4994 83.3587Z" fill="#BBBEFF"/>
    <path d="M50.3494 84.1429L51.6042 78.9146C51.6042 78.9146 46.6373 74.0522 43.0297 81.2673C40.1541 87.0185 48.7286 92.5605 48.7286 92.5605C46.5327 103.226 51.6042 108.35 59.499 111.226C75.9682 117.238 79.1575 113.788 84.9087 91.5671L86.4249 86.8094" stroke="black" stroke-width="2.8" stroke-miterlimit="10" stroke-linejoin="round"/>
    <path d="M61.6436 83.3587C63.944 85.2932 67.9176 87.8551 72.4662 88.1688" stroke="black" stroke-width="2.8" stroke-miterlimit="10"/>
    <path d="M47.527 76.1437L47.3701 64.9028C47.3701 64.9028 52.1279 56.3806 57.5131 57.7923C66.2967 60.0928 63.2643 69.922 63.2643 69.922" stroke="black" stroke-width="2.8" stroke-miterlimit="10" stroke-linejoin="round"/>
    <path d="M48.1016 97.2661V123.042" stroke="black" stroke-width="2.8" stroke-miterlimit="10" stroke-linecap="round" stroke-linejoin="round"/>
    <path d="M90.4515 74.1569C86.3734 69.8696 87.2099 64.9027 83.4455 61.5566C69.4859 49.1132 59.1338 58.315 59.1338 58.315" stroke="black" stroke-width="2.8" stroke-miterlimit="10" stroke-linejoin="round"/>
    <path d="M87.42 81.9992C87.42 81.9992 88.0474 79.8033 88.1519 77.8689C81.0414 67.9873 59.0824 70.0786 59.0824 70.0786L54.4814 86.0773C54.4814 86.0773 55.9977 94.7041 82.6622 96.9" stroke="black" stroke-width="2.8" stroke-miterlimit="10" stroke-linejoin="round"/>
    <path d="M69.6937 114.886L63.7856 118.075" stroke="black" stroke-width="2.8" stroke-miterlimit="10" stroke-linecap="round" stroke-linejoin="round"/>
    <path d="M67.6045 92.2991L68.3365 97.632L75.5516 98.6777V88.2733L67.6045 92.2991Z" fill="#FFE2D6"/>
    <path d="M91.7065 87.6459C91.7065 87.6459 80.4656 83.5678 76.3875 89.5804L76.0738 99.7234L67.4994 97.266L66.3491 93.2925" stroke="black" stroke-width="2.8" stroke-miterlimit="10" stroke-linejoin="round"/>
    <path d="M58.8721 98.73C59.9177 100.298 62.5319 101.606 64.6232 101.867" stroke="black" stroke-width="2.8" stroke-miterlimit="10" stroke-linecap="round" stroke-linejoin="round"/>
    <path d="M261.49 136.783C241.826 136.783 225.885 120.842 225.885 101.178C225.885 81.5139 241.826 65.5731 261.49 65.5731C281.154 65.5731 297.095 81.5139 297.095 101.178C297.095 120.842 281.154 136.783 261.49 136.783Z" fill="#BBBEFF"/>
    <path d="M276.496 113.308L268.862 114.929L254.746 111.269L245.596 107.557L235.244 100.446L232.734 89.728L228.604 87.5843L227.192 81.7286L231.061 77.3891L234.512 77.9642L236.708 67.5075L253.386 65.5731L269.594 67.769L279.319 71.8993L281.097 82.2514L284.704 85.2839V89.728L281.149 93.0741L279.267 96.3679L280.992 109.596L276.496 113.308Z" fill="#FFDFAD"/>
    <path d="M248.591 131.495C242.243 129.354 239.992 119.034 243.564 108.445C247.135 97.8561 255.176 91.0075 261.524 93.1485C267.872 95.2896 270.123 105.609 266.552 116.199C262.98 126.788 254.939 133.636 248.591 131.495Z" fill="#FFDFAD"/>
    <path d="M272.888 104.263L273.411 94.5903L267.398 95.3745L255.373 94.5903L242.563 90.4076L241.779 95.3745L246.485 101.387L255.373 104.263L265.307 105.308L272.888 104.263Z" fill="white"/>
    <path d="M244.55 108.602L242.249 117.804C242.249 117.804 240.158 127.999 245.282 130.979C248.837 133.018 257.412 136.051 265.516 117.804C265.516 117.804 275.031 117.647 278.168 117.804C278.168 117.804 285.958 118.431 289.618 127.372" stroke="black" stroke-width="2.8" stroke-miterlimit="10" stroke-linecap="round" stroke-linejoin="round"/>
    <path d="M266.771 77.2323C272.627 72.6837 278.587 76.3958 278.587 76.3958L277.437 70.3309C277.437 70.3309 272.365 64.5797 258.196 67.1939C252.602 68.2396 244.603 62.4884 236.708 67.5076C233.205 69.7035 234.146 78.3826 234.146 78.3826C234.146 78.3826 228.343 74.6182 227.192 81.7287C226.251 87.8981 232.734 89.728 232.734 89.728C232.734 89.728 231.898 95.9498 235.767 101.178C241.57 109.073 271.738 122.51 280.992 109.543C283.24 106.354 279.005 94.0676 279.005 94.0676C279.005 94.0676 284.704 92.2376 284.704 87.6367C284.704 85.7545 282.77 83.0358 280.26 81.7287C272.365 77.546 265.83 81.9378 265.83 81.9378L265.516 85.5454L269.071 88.421L266.248 91.4534L259.974 89.5712L256.157 90.0417" stroke="black" stroke-width="2.8" stroke-miterlimit="10" stroke-linejoin="round"/>
    <path d="M253.386 117.752C253.386 117.752 235.871 117.595 232.734 117.752" stroke="black" stroke-width="2.8" stroke-miterlimit="10" stroke-linecap="round" stroke-linejoin="round"/>
    <path d="M274.717 93.4924C274.717 93.4924 266.927 95.636 260.287 94.9041C246.746 93.3879 241.831 89.728 241.831 89.728C241.831 89.728 238.328 106.459 265.254 105.622C268.339 105.57 272.887 104.733 272.887 104.733L272.417 98.7208C272.417 98.7208 260.601 103.374 242.302 95.4792" stroke="black" stroke-width="2.8" stroke-miterlimit="10" stroke-linejoin="round"/>
    <path d="M237.595 90.303C237.229 84.6041 243.399 85.3884 243.399 85.3884C243.399 85.3884 248 88.264 251.921 84.9178" stroke="black" stroke-width="2.8" stroke-miterlimit="10" stroke-linejoin="round"/>
    <path d="M279.946 89.728C279.946 89.728 278.377 84.7611 272.992 86.591" stroke="black" stroke-width="2.8" stroke-miterlimit="10" stroke-linejoin="round"/>
    <path d="M252.341 147.449L263.477 132.443L269.647 125.699L301.331 127.842L306.193 124.444H310.951L310.01 126.588L295.109 135.528H277.123L270.222 147.449H252.341Z" fill="#FFDFAD"/>
    <path d="M272.522 135.424L293.174 135.58C297.356 135.58 311.734 125.385 311.734 125.385C311.734 125.385 310.114 121.83 305.565 124.81L301.696 126.954" stroke="black" stroke-width="2.8" stroke-miterlimit="10" stroke-linecap="round" stroke-linejoin="round"/>
    <path d="M271.477 125.385C269.019 125.385 267.346 126.692 266.614 128.731" stroke="black" stroke-width="2.8" stroke-miterlimit="10" stroke-linecap="round" stroke-linejoin="round"/>
    <path d="M303.735 127.477L300.755 117.595C300.284 116.026 298.559 114.824 296.834 114.876L271.895 115.608C270.222 115.66 269.228 116.968 269.699 118.536L272.679 128.418C273.149 129.986 274.875 131.189 276.6 131.136L301.539 130.404C303.212 130.352 304.206 129.045 303.735 127.477Z" fill="#FF3880"/>
    <path d="M281.828 131.136C281.828 131.136 283.24 128.784 286.324 126.169C288.939 123.974 292.128 124.967 292.128 124.967L288.416 131.136" fill="#FFDFAD"/>
    <path d="M281.828 131.136C281.828 131.136 283.24 128.784 286.324 126.169C288.939 123.974 292.128 124.967 292.128 124.967L288.416 131.136" stroke="black" stroke-width="2.8" stroke-miterlimit="10" stroke-linecap="round" stroke-linejoin="round"/>
    <path d="M266.667 128.627L253.387 144.573" stroke="black" stroke-width="2.8" stroke-miterlimit="10" stroke-linecap="round" stroke-linejoin="round"/>
    <path d="M276.496 136.051L271.32 144.573" stroke="black" stroke-width="2.8" stroke-miterlimit="10" stroke-linecap="round" stroke-linejoin="round"/>
    <path d="M257.464 80.5261C257.464 80.5261 249.674 75.9774 243.818 80.5261" stroke="black" stroke-width="2.8" stroke-miterlimit="10" stroke-linejoin="round"/>
</svg>
