<svg width="168" height="160" viewBox="0 0 168 160" fill="none" xmlns="http://www.w3.org/2000/svg">
<g clip-path="url(#clip0_4515_153902)">
<path d="M98.7992 139.2C136.41 139.2 166.899 108.711 166.899 71.1C166.899 33.4894 136.41 3 98.7992 3C61.1886 3 30.6992 33.4894 30.6992 71.1C30.6992 108.711 61.1886 139.2 98.7992 139.2Z" fill="#BBBEFF"/>
<path d="M70.0984 94.3L84.6984 97.4L111.698 90.4L129.198 83.3L148.998 69.7L153.798 49.2L161.698 45.1L164.398 33.9L156.998 25.6L150.398 26.7L146.198 6.7L114.298 3L83.2984 7.2L64.6984 15.1L61.2984 34.9L54.3984 40.7V49.2L61.1984 55.6L64.7984 61.9L61.4984 87.2L70.0984 94.3Z" fill="#FFDFAD"/>
<path d="M123.471 129.087C135.613 124.992 139.918 105.254 133.087 85.0004C126.256 64.7469 110.876 51.648 98.7343 55.743C86.5927 59.838 82.2876 79.5764 89.1185 99.8298C95.9495 120.083 111.33 133.182 123.471 129.087Z" fill="#FFDFAD"/>
<path d="M131.2 85.2998L135.6 102.9C135.6 102.9 139.6 122.4 129.8 128.1C123 132 106.6 137.8 91.1 102.9C91.1 102.9 72.9 102.6 66.9 102.9C66.9 102.9 52 104.1 45 121.2" stroke="black" stroke-width="5.486" stroke-miterlimit="10" stroke-linecap="round" stroke-linejoin="round"/>
<path d="M88.6984 25.3002C77.4984 16.6002 66.0984 23.7002 66.0984 23.7002L68.2984 12.1002C68.2984 12.1002 77.9984 1.1002 105.098 6.1002C115.798 8.1002 131.098 -2.8998 146.198 6.7002C152.898 10.9002 151.098 27.5002 151.098 27.5002C151.098 27.5002 162.198 20.3002 164.398 33.9002C166.198 45.7002 153.798 49.2002 153.798 49.2002C153.798 49.2002 155.398 61.1002 147.998 71.1002C136.898 86.2002 79.1984 111.9 61.4984 87.1002C57.1984 81.0002 65.2984 57.5002 65.2984 57.5002C65.2984 57.5002 54.3984 54.0002 54.3984 45.2002C54.3984 41.6002 58.0984 36.4002 62.8984 33.9002C77.9984 25.9002 90.4984 34.3002 90.4984 34.3002L91.0984 41.2002L84.2984 46.7002L89.6984 52.5002L101.698 48.9002L108.998 49.8002" stroke="black" stroke-width="5.486" stroke-miterlimit="10" stroke-linejoin="round"/>
<path d="M114.301 102.8C114.301 102.8 147.801 102.5 153.801 102.8" stroke="black" stroke-width="5.486" stroke-miterlimit="10" stroke-linecap="round" stroke-linejoin="round"/>
<path d="M73.5 56.4002C73.5 56.4002 88.4 60.5002 101.1 59.1002C127 56.2002 136.4 49.2002 136.4 49.2002C136.4 49.2002 143.1 81.2002 91.6 79.6002C85.7 79.5002 77 77.9002 77 77.9002L77.9 66.4002C77.9 66.4002 100.5 75.3002 135.5 60.2002" stroke="black" stroke-width="5.486" stroke-miterlimit="10" stroke-linejoin="round"/>
<path d="M144.502 50.3C145.202 39.4 133.402 40.9 133.402 40.9C133.402 40.9 124.602 46.4 117.102 40" stroke="black" stroke-width="5.486" stroke-miterlimit="10" stroke-linejoin="round"/>
<path d="M63.5 49.2001C63.5 49.2001 66.5 39.7001 76.8 43.2001" stroke="black" stroke-width="5.486" stroke-miterlimit="10" stroke-linejoin="round"/>
<path d="M116.299 159.6L94.9992 130.9L83.1992 118L22.5992 122.1L13.2992 115.6H4.19922L5.99922 119.7L34.4992 136.8H68.8992L82.0992 159.6H116.299Z" fill="#FFDFAD"/>
<path d="M77.6992 136.6L38.1992 136.9C30.1992 136.9 2.69922 117.4 2.69922 117.4C2.69922 117.4 5.79922 110.6 14.4992 116.3L21.8992 120.4" stroke="black" stroke-width="5.486" stroke-miterlimit="10" stroke-linecap="round" stroke-linejoin="round"/>
<path d="M79.6992 117.4C84.3992 117.4 87.5992 119.9 88.9992 123.8" stroke="black" stroke-width="5.486" stroke-miterlimit="10" stroke-linecap="round" stroke-linejoin="round"/>
<path d="M18.001 121.4L23.701 102.5C24.601 99.5 27.901 97.2 31.201 97.3L78.901 98.7C82.101 98.8 84.001 101.3 83.101 104.3L77.401 123.2C76.501 126.2 73.201 128.5 69.901 128.4L22.201 127C19.001 126.9 17.101 124.4 18.001 121.4Z" fill="#FF3880"/>
<path d="M59.8992 128.4C59.8992 128.4 57.1992 123.9 51.2992 118.9C46.2992 114.7 40.1992 116.6 40.1992 116.6L47.2992 128.4" fill="#FFDFAD"/>
<path d="M59.8992 128.4C59.8992 128.4 57.1992 123.9 51.2992 118.9C46.2992 114.7 40.1992 116.6 40.1992 116.6L47.2992 128.4" stroke="black" stroke-width="5.486" stroke-miterlimit="10" stroke-linecap="round" stroke-linejoin="round"/>
<path d="M88.8984 123.6L114.298 154.1" stroke="black" stroke-width="5.486" stroke-miterlimit="10" stroke-linecap="round" stroke-linejoin="round"/>
<path d="M70.0977 137.8L79.9977 154.1" stroke="black" stroke-width="5.486" stroke-miterlimit="10" stroke-linecap="round" stroke-linejoin="round"/>
<path d="M106.5 31.6001C106.5 31.6001 121.4 22.9001 132.6 31.6001" stroke="black" stroke-width="5.486" stroke-miterlimit="10" stroke-linejoin="round"/>
</g>
<defs>
<clipPath id="clip0_4515_153902">
<rect width="167.3" height="159.6" fill="white"/>
</clipPath>
</defs>
</svg>
