<svg width="177" height="204" viewBox="0 0 177 204" fill="none" xmlns="http://www.w3.org/2000/svg">
<g clip-path="url(#clip0_4515_153946)">
<path d="M108.498 176.4C146.109 176.4 176.598 145.911 176.598 108.3C176.598 70.6896 146.109 40.2002 108.498 40.2002C70.8878 40.2002 40.3984 70.6896 40.3984 108.3C40.3984 145.911 70.8878 176.4 108.498 176.4Z" fill="#BBBEFF"/>
<path d="M105.202 124.4C96.8016 103.4 79.8016 90.5002 67.2016 95.5002C66.6016 95.7002 66.1016 96.0002 65.6016 96.3002V154.2C74.7016 168.1 87.6016 175.6 97.6016 171.6C110.202 166.4 113.602 145.3 105.202 124.4Z" fill="#FFE2D6"/>
<path d="M122.801 115.8H135.001C135.001 115.8 151.301 114.5 159.201 138.1L168.001 162.8" stroke="black" stroke-width="5.8005" stroke-miterlimit="10" stroke-linecap="round" stroke-linejoin="round"/>
<path d="M50.6992 141.3V201.1L132.599 184.2V124.4" stroke="black" stroke-width="5.8005" stroke-miterlimit="10" stroke-linecap="round" stroke-linejoin="round"/>
<path d="M154.5 88.2001L159.7 107.3C160.5 110.3 158.9 114.1 156.1 115.7L114.8 139.6C112 141.2 109.1 140.1 108.3 137.1L103.1 118C102.3 115 103.9 111.2 106.7 109.6L148 85.6001C150.7 84.0001 153.7 85.1001 154.5 88.2001Z" fill="#FF3880"/>
<path d="M101.5 116.6L107.6 141.2C107.6 141.2 111.9 161.9 101.5 167.8C94.3 171.9 76.9 178 60.6 141.2C60.6 141.2 25.7 141.1 19.3 141.4C19.3 141.4 5.1 142.8 3 158.2V177.7" stroke="black" stroke-width="5.8005" stroke-miterlimit="10" stroke-linecap="round" stroke-linejoin="round"/>
<path d="M140 45.5V57.5L120 49H103.5H85L74 77.5L69 73L70.5 64.5L62.5 60V51.5L70.5 43.5L106 34.5L140 45.5Z" fill="white"/>
<path d="M71.0009 72.6999C68.0009 84.2999 65.4009 81.4999 60.5009 79.3999C55.6009 77.2999 53.3009 71.3999 55.5009 66.1999C57.7009 60.9999 63.5009 58.4999 68.4009 60.4999C73.4009 62.5999 72.4009 67.1999 71.0009 72.6999Z" fill="#FFE2D6"/>
<path d="M118.301 50.5998C110.601 47.3998 94.4013 47.1998 86.9013 49.1998C83.8013 51.0998 77.4013 71.3998 76.0013 74.7998C74.9013 77.4998 71.9013 73.7998 70.0013 73.4998C68.4013 75.9998 71.0013 69.0998 69.8013 72.0998C61.0013 92.8998 66.8013 116.5 83.6013 122.3C117.401 134 121.901 119.8 130.701 98.9998C133.501 92.4998 140.301 70.4998 140.901 64.6998C141.301 58.9998 126.601 54.0998 118.301 50.5998Z" fill="#FFE2D6"/>
<path d="M69 85.5L65 87.5V100L70.5 115L91 124.5L89.5 114L75.5 107L71.5 91L69 85.5Z" fill="white"/>
<path d="M147.799 79.6999C147.799 79.6999 126.299 71.8999 118.499 83.3999L111.299 101.8L99.6992 92.4999" stroke="black" stroke-width="5.8005" stroke-miterlimit="10" stroke-linejoin="round"/>
<path d="M68.6987 74.7002L71.0987 64.7002C71.0987 64.7002 61.9987 52.0002 55.0987 65.7002C49.5987 76.7002 65.0987 82.7002 65.0987 82.7002C60.8987 103.1 67.3987 116.5 86.5987 124C114.899 135 124.599 120 134.799 88.8002L137.699 79.7002" stroke="black" stroke-width="5.8005" stroke-miterlimit="10" stroke-linejoin="round"/>
<path d="M140.998 62.6C129.598 43.5 85.3984 47.7 85.3984 47.7L73.8984 77.9" stroke="black" stroke-width="5.8005" stroke-miterlimit="10" stroke-linejoin="round"/>
<path d="M90.3008 69.2002C94.7008 72.9002 102.301 77.8002 111.001 78.4002" stroke="black" stroke-width="5.6265" stroke-miterlimit="10"/>
<path d="M63.3 59.3998L63 37.7998C63 37.7998 72.1 21.4998 82.4 24.1998C99.2 28.5998 93.4 47.3998 93.4 47.3998" stroke="black" stroke-width="5.8005" stroke-miterlimit="10" stroke-linejoin="round"/>
<path d="M64 84L64 144" stroke="black" stroke-width="5.8005" stroke-miterlimit="10" stroke-linecap="round" stroke-linejoin="round"/>
<path d="M65 84L73.4299 86.434C73.4299 86.434 67.1341 107.833 90.3963 114.222C90.3963 114.222 89.2226 126.29 100 127" stroke="black" stroke-width="5.8005" stroke-miterlimit="10" stroke-linecap="round" stroke-linejoin="round"/>
<path d="M103 125L106 113" stroke="black" stroke-width="5.8005" stroke-miterlimit="10" stroke-linecap="round" stroke-linejoin="round"/>
<path d="M139.599 70.5002C139.599 70.5002 146.899 44.2002 132.099 31.4002C107.299 10.2002 78.6992 24.0002 78.6992 24.0002" stroke="black" stroke-width="5.8005" stroke-miterlimit="10" stroke-linejoin="round"/>
<path d="M85.5512 2.71866L64.4766 11.1562L70.9813 27.4032L92.056 18.9657L85.5512 2.71866Z" stroke="black" stroke-width="5.3466" stroke-miterlimit="10" stroke-linejoin="round"/>
<path d="M105.698 133.5L94.3984 139.6" stroke="black" stroke-width="5.8005" stroke-miterlimit="10" stroke-linecap="round" stroke-linejoin="round"/>
</g>
<defs>
<clipPath id="clip0_4515_153946">
<rect width="176.6" height="204" fill="white"/>
</clipPath>
</defs>
</svg>
