<svg width="211" height="204" viewBox="0 0 211 204" fill="none" xmlns="http://www.w3.org/2000/svg">
<g clip-path="url(#clip0_4515_153922)">
<path d="M121.202 170.3C158.812 170.3 189.302 139.811 189.302 102.2C189.302 64.5895 158.812 34.1001 121.202 34.1001C83.591 34.1001 53.1016 64.5895 53.1016 102.2C53.1016 139.811 83.591 170.3 121.202 170.3Z" fill="#BBBEFF"/>
<path d="M170.602 89.2999C175.683 89.2999 179.802 84.5093 179.802 78.5999C179.802 72.6905 175.683 67.8999 170.602 67.8999C165.521 67.8999 161.402 72.6905 161.402 78.5999C161.402 84.5093 165.521 89.2999 170.602 89.2999Z" fill="#D89C7D"/>
<path d="M130.401 65.0001C138.301 65.0001 145.501 63.1001 151.301 59.9001C154.301 64.1001 158.901 67.3001 164.401 68.9001C164.901 71.7001 165.201 74.6001 165.201 77.6001C165.201 99.0001 151.501 116.3 134.701 116.3C117.901 116.3 104.301 99.0001 104.301 77.6001C104.301 70.9001 105.601 64.6001 108.001 59.1001C114.001 62.8001 121.901 65.0001 130.401 65.0001Z" fill="#D89C7D"/>
<path d="M151.479 163.685C163.621 159.59 167.926 139.852 161.095 119.599C154.264 99.3451 138.884 86.2461 126.742 90.3411C114.601 94.4362 110.295 114.175 117.126 134.428C123.957 154.681 139.338 167.78 151.479 163.685Z" fill="#D89C7D"/>
<path d="M176.5 102L161.5 108.5H157L165 93.5L169.5 89L176.5 85.5L182.5 74.5L176.5 67.5L166 72L147.5 67.5L143 63.5L127.5 64.5H115.5L105 59L102 72L103.5 94.5L100 90L88 64.5L93.5 36L112 31L149 32.5L182.5 43L191.5 62V84.5L176.5 102Z" fill="white"/>
<path d="M53.7984 137.5L60.6984 146.1L68.6984 148L76.2984 141.9L94.0984 124.4L57.1984 124L52.8984 133.4L53.7984 137.5Z" fill="#2970FF"/>
<path d="M92.6992 132.9C98.6992 132.6 116.899 132.9 116.899 132.9C132.399 167.7 148.799 161.9 155.599 158.1C165.399 152.5 161.399 132.9 161.399 132.9L155.599 109.7" stroke="black" stroke-width="5.4875" stroke-miterlimit="10" stroke-linecap="round" stroke-linejoin="round"/>
<path d="M123.802 38.3999C115.302 42.2999 103.402 50.5999 102.402 68.2999C100.502 99.9999 121.002 121 121.002 121C121.002 121 164.102 116.8 165.402 88.5999C165.402 88.5999 175.202 92.6999 180.402 77.4999C182.002 72.8999 179.702 68.3999 176.302 67.2999C169.502 64.9999 166.802 70.6999 166.802 70.6999" stroke="black" stroke-width="5.4875" stroke-miterlimit="10" stroke-linejoin="round"/>
<path d="M95.1992 59.1001C95.1992 59.1001 118.099 57.2001 118.199 70.6001C118.299 81.8001 117.799 91.5001 117.799 91.5001L126.799 90.3001" stroke="black" stroke-width="5.4875" stroke-miterlimit="10" stroke-linejoin="round"/>
<path d="M152.698 75.7002C152.698 75.7002 141.098 82.5002 132.398 75.7002" stroke="black" stroke-width="5.4875" stroke-miterlimit="10"/>
<path d="M140.102 132.8C140.102 132.8 173.602 132.5 179.602 132.8C179.602 132.8 204.402 129.4 207.502 170.7" stroke="black" stroke-width="5.4875" stroke-miterlimit="10" stroke-linecap="round" stroke-linejoin="round"/>
<path d="M98.4008 120.4L75.3008 144.4" stroke="black" stroke-width="5.4875" stroke-miterlimit="10" stroke-linejoin="round"/>
<path d="M54.8984 130.6L68.2984 100.7" stroke="black" stroke-width="5.4875" stroke-miterlimit="10" stroke-linejoin="round"/>
<path d="M102.503 95C92.7031 85.4 86.7031 72.4 86.7031 57.9C86.7031 36.4 109.003 13.4 142.303 4.80003C172.603 -2.99997 178.903 33.9 178.903 33.9C178.903 33.9 197.903 29.7 197.903 57.9C197.903 82.6 180.303 103.3 156.403 109.3" stroke="black" stroke-width="6.0424" stroke-miterlimit="10" stroke-linejoin="round"/>
<path d="M64.3008 137L101.601 98.1001L123.201 104.1" stroke="#FF3880" stroke-width="5.8005" stroke-miterlimit="10" stroke-linecap="round" stroke-linejoin="round"/>
<path d="M123.199 62.4C123.199 62.4 145.499 68.4 152.599 54.5" stroke="black" stroke-width="5.4875" stroke-miterlimit="10" stroke-linejoin="round"/>
<path d="M142.5 62.5999C142.5 62.5999 167.6 87.7999 184.8 56.3999" stroke="black" stroke-width="5.4875" stroke-miterlimit="10" stroke-linejoin="round"/>
<path d="M170.402 77.6001L157.602 89.3001" stroke="white" stroke-width="5.486" stroke-miterlimit="10" stroke-linecap="round" stroke-linejoin="round"/>
<path d="M75.203 144.437C78.1795 140.05 76.0355 133.402 70.4142 129.588C64.7929 125.774 57.823 126.239 54.8465 130.627C51.87 135.014 54.014 141.662 59.6353 145.476C65.2566 149.29 72.2265 148.825 75.203 144.437Z" stroke="black" stroke-width="5.4875" stroke-miterlimit="10" stroke-linejoin="round"/>
<path d="M68.3008 100.7L68.5008 100.2C73.4008 92.9998 84.1008 91.5998 92.3008 97.1998C100.501 102.8 103.201 113.2 98.3008 120.4" stroke="black" stroke-width="5.4875" stroke-miterlimit="10" stroke-linejoin="round"/>
<path d="M54.8984 122.4L74.4984 114.3L81.4984 93.8002L67.8984 87.7002C67.7984 87.7002 46.4984 102.4 54.8984 122.4Z" fill="#D89C7D" stroke="black" stroke-width="5.4875" stroke-miterlimit="10" stroke-linejoin="round"/>
<path d="M99.1992 128.4C102.789 128.4 105.699 125.49 105.699 121.9C105.699 118.31 102.789 115.4 99.1992 115.4C95.6094 115.4 92.6992 118.31 92.6992 121.9C92.6992 125.49 95.6094 128.4 99.1992 128.4Z" fill="#D89C7D" stroke="black" stroke-width="5.4875" stroke-miterlimit="10" stroke-linejoin="round"/>
<path d="M54.9002 122.4L9.10017 165.2C9.10017 165.2 -5.09983 181 9.10017 195.2C23.3002 209.4 41.8002 190.9 41.8002 190.9L68.4002 161.9" stroke="black" stroke-width="5.4875" stroke-miterlimit="10" stroke-linecap="round" stroke-linejoin="round"/>
</g>
<defs>
<clipPath id="clip0_4515_153922">
<rect width="210.3" height="203.3" fill="white"/>
</clipPath>
</defs>
</svg>
