<svg width="41" height="40" viewBox="0 0 41 40" fill="none" xmlns="http://www.w3.org/2000/svg">
<path d="M40.5 20C40.5 8.94815 31.5519 0 20.5 0C9.44815 0 0.5 8.94815 0.5 20C0.5 29.9852 7.81852 38.2519 17.3889 39.763V25.7778H12.2926V20H17.3889V15.5852C17.3889 10.5778 20.3519 7.82222 24.9148 7.82222C27.1074 7.82222 29.3889 8.20741 29.3889 8.20741V13.1259H26.8704C24.3815 13.1259 23.6111 14.6667 23.6111 16.237V20H29.1519L28.263 25.7778H23.6111V39.763C33.1815 38.2519 40.5 29.9852 40.5 20Z" fill="#626262"/>
<path d="M28.293 25.7778L29.1819 20H23.6115V16.237C23.6115 14.6667 24.3819 13.1259 26.8707 13.1259H29.3893V8.20741C29.3893 8.20741 27.1078 7.82222 24.9152 7.82222C20.3522 7.82222 17.3893 10.5778 17.3893 15.5852V20H12.293V25.7778H17.3893V39.763C18.3967 39.9111 19.4633 40 20.5004 40C21.567 40 22.6041 39.9111 23.6115 39.763V25.7778H28.293Z" fill="white"/>
</svg>
