<svg width="41" height="40" viewBox="0 0 41 40" fill="none" xmlns="http://www.w3.org/2000/svg">
<g clip-path="url(#clip0_4487_152762)">
<path fill-rule="evenodd" clip-rule="evenodd" d="M20.4404 0.625C9.41388 0.625 0.5 9.50521 0.5 20.4912C0.5 29.273 6.21143 36.7065 14.1347 39.3375C15.1253 39.5352 15.4882 38.91 15.4882 38.384C15.4882 37.9235 15.4555 36.3448 15.4555 34.7C9.90857 35.8843 8.75347 32.3318 8.75347 32.3318C7.86204 30.0294 6.54122 29.4376 6.54122 29.4376C4.72571 28.2206 6.67347 28.2206 6.67347 28.2206C8.68735 28.3522 9.74408 30.2599 9.74408 30.2599C11.5265 33.2856 14.3988 32.4307 15.5543 31.9043C15.7192 30.6215 16.2478 29.7335 16.809 29.2403C12.3849 28.7797 7.7302 27.0695 7.7302 19.4385C7.7302 17.2677 8.52204 15.4917 9.77673 14.1104C9.57878 13.6171 8.88531 11.5775 9.9751 8.84767C9.9751 8.84767 11.6588 8.32132 15.4551 10.8869C17.0804 10.452 18.7566 10.2308 20.4404 10.2289C22.1241 10.2289 23.8404 10.4594 25.4253 10.8869C29.222 8.32132 30.9057 8.84767 30.9057 8.84767C31.9955 11.5775 31.3016 13.6171 31.1037 14.1104C32.3914 15.4917 33.1506 17.2677 33.1506 19.4385C33.1506 27.0695 28.4959 28.7466 24.0388 29.2403C24.7653 29.8651 25.3922 31.049 25.3922 32.9239C25.3922 35.588 25.3596 37.7261 25.3596 38.3836C25.3596 38.91 25.7229 39.5352 26.7131 39.3379C34.6363 36.7061 40.3478 29.273 40.3478 20.4912C40.3804 9.50521 31.4339 0.625 20.4404 0.625Z" fill="#626262"/>
</g>
<defs>
<clipPath id="clip0_4487_152762">
<rect width="40" height="38.75" fill="white" transform="translate(0.5 0.625)"/>
</clipPath>
</defs>
</svg>
