<svg width="20" height="20" viewBox="0 0 20 20" fill="none" xmlns="http://www.w3.org/2000/svg">
<circle cx="10" cy="10" r="10" fill="white"/>
<g clip-path="url(#clip0_8137_294289)">
<path d="M6.13372 10.0011C6.13372 9.52379 6.20058 9.04652 6.36773 8.60334L3.8939 6.66016C3.39244 7.68288 3.125 8.80788 3.125 10.0011C3.125 11.1942 3.39244 12.3192 3.8939 13.3079L6.36773 11.3647C6.20058 10.9556 6.13372 10.4783 6.13372 10.0011Z" fill="#FBBC05"/>
<path d="M10.4793 5.56818C11.5156 5.56818 12.4517 5.94318 13.1872 6.55682L15.3267 4.375C14.0229 3.21591 12.3514 2.5 10.4793 2.5C7.57088 2.5 5.06361 4.20455 3.89355 6.69318L6.36739 8.63636C6.93571 6.82955 8.54036 5.56818 10.4793 5.56818Z" fill="#EA4335"/>
<path d="M10.4793 14.4325C8.54036 14.4325 6.93571 13.1712 6.36739 11.3984L3.89355 13.3416C5.06361 15.7962 7.57088 17.5007 10.4793 17.5007C12.2845 17.5007 13.9895 16.853 15.2598 15.6257L12.9197 13.7848C12.2511 14.1939 11.4154 14.4325 10.4793 14.4325Z" fill="#34A853"/>
<path d="M6.36739 11.3984L3.89355 13.3416L6.36739 11.3984Z" fill="#34A853"/>
<path d="M17.3327 8.63672H10.4795V11.5344H14.4243C14.2237 12.5231 13.6888 13.2731 12.9199 13.7844L15.26 15.6254C16.5972 14.3299 17.4998 12.4549 17.4998 10.0004C17.4998 9.55717 17.433 9.0799 17.3327 8.63672Z" fill="#4285F4"/>
</g>
<defs>
<clipPath id="clip0_8137_294289">
<rect width="14.375" height="15" fill="white" transform="translate(3.125 2.5)"/>
</clipPath>
</defs>
</svg>
