<svg width="33" height="32" viewBox="0 0 33 32" fill="none" xmlns="http://www.w3.org/2000/svg">
<rect x="0.601562" width="32" height="32" rx="16" fill="white"/>
<circle cx="16.6016" cy="16" r="16" fill="#F5F5F5"/>
<g clip-path="url(#clip0_4327_181578)">
<path d="M10.4155 16C10.4155 15.2364 10.5225 14.4727 10.7899 13.7636L6.8318 10.6545C6.02947 12.2909 5.60156 14.0909 5.60156 16C5.60156 17.9091 6.02947 19.7091 6.8318 21.2909L10.7899 18.1818C10.5225 17.5273 10.4155 16.7636 10.4155 16Z" fill="#FBBC05"/>
<path d="M17.3692 8.90909C19.0274 8.90909 20.5251 9.50909 21.7018 10.4909L25.1251 7C23.039 5.14545 20.3646 4 17.3692 4C12.7158 4 8.70412 6.72727 6.83203 10.7091L10.7902 13.8182C11.6995 10.9273 14.2669 8.90909 17.3692 8.90909Z" fill="#EA4335"/>
<path d="M17.3692 23.0909C14.2669 23.0909 11.6995 21.0727 10.7902 18.2364L6.83203 21.3454C8.70412 25.2727 12.7158 28 17.3692 28C20.2576 28 22.9855 26.9636 25.0181 25L21.2739 22.0545C20.2041 22.7091 18.8669 23.0909 17.3692 23.0909Z" fill="#34A853"/>
<path d="M10.7902 18.2364L6.83203 21.3454L10.7902 18.2364Z" fill="#34A853"/>
<path d="M28.3323 13.8182H17.3672V18.4545H23.6788C23.3579 20.0364 22.5021 21.2364 21.2718 22.0545L25.016 25C27.1556 22.9273 28.5997 19.9273 28.5997 16C28.5997 15.2909 28.4928 14.5273 28.3323 13.8182Z" fill="#4285F4"/>
</g>
<defs>
<clipPath id="clip0_4327_181578">
<rect width="23" height="24" fill="white" transform="translate(5.60156 4)"/>
</clipPath>
</defs>
</svg>
