<svg width="135" height="40" viewBox="0 0 135 40" fill="none" xmlns="http://www.w3.org/2000/svg">
    <g clip-path="url(#clip0_8688_345428)">
        <path d="M130 40.0002H5.00381C2.25385 40.0002 0.00390625 37.7503 0.00390625 35.0003V5.00088C0.00390625 2.25092 2.25385 0.000976562 5.00381 0.000976562H130C132.75 0.000976562 134.999 2.25092 134.999 5.00088V35.0003C134.999 37.7503 132.75 40.0002 130 40.0002Z" fill="#100F0D"/>
        <path d="M130 0.000976562H5.00381C2.25385 0.000976562 0.00390625 2.25092 0.00390625 5.00088V35.0003C0.00390625 37.7503 2.25385 40.0002 5.00381 40.0002H130C132.75 40.0002 134.999 37.7503 134.999 35.0003V5.00088C134.999 2.25092 132.75 0.000976562 130 0.000976562ZM130 0.800557C132.316 0.800557 134.2 2.68494 134.2 5.00088V35.0003C134.2 37.3163 132.316 39.2006 130 39.2006H5.00381C2.68787 39.2006 0.804311 37.3163 0.804311 35.0003V5.00088C0.804311 2.68494 2.68787 0.800557 5.00381 0.800557H130Z" fill="#A2A2A1"/>
        <path d="M106.936 30.0007H108.802V17.4988H106.936V30.0007ZM123.743 22.0026L121.604 27.4224H121.54L119.32 22.0026H117.31L120.64 29.5777L118.741 33.7916H120.687L125.818 22.003L123.743 22.0026ZM113.16 28.5806C112.55 28.5806 111.697 28.2747 111.697 27.5189C111.697 26.554 112.759 26.1841 113.675 26.1841C114.495 26.1841 114.882 26.3607 115.38 26.6021C115.235 27.7603 114.238 28.5806 113.16 28.5806ZM113.386 21.7292C112.035 21.7292 110.636 22.3244 110.057 23.6432L111.713 24.3346C112.067 23.6432 112.726 23.4183 113.418 23.4183C114.383 23.4183 115.364 23.9968 115.38 25.0264V25.1549C115.042 24.9619 114.318 24.6725 113.434 24.6725C111.648 24.6725 109.831 25.6533 109.831 27.4869C109.831 29.1595 111.295 30.2372 112.935 30.2372C114.189 30.2372 114.882 29.6743 115.315 29.0146H115.38V29.9802H117.182V25.1869C117.182 22.9674 115.524 21.7292 113.386 21.7292ZM101.854 23.5244H99.2001V19.2394H101.854C103.249 19.2394 104.041 20.3941 104.041 21.3819C104.041 22.3507 103.249 23.5244 101.854 23.5244ZM101.806 17.4991H97.3349V30.001H99.2001V25.2648H101.806C103.874 25.2648 105.907 23.7679 105.907 21.3824C105.907 18.9973 103.874 17.4991 101.806 17.4991ZM77.4256 28.5827C76.1365 28.5827 75.0576 27.503 75.0576 26.0214C75.0576 24.5226 76.1365 23.4277 77.4256 23.4277C78.6983 23.4277 79.6971 24.5227 79.6971 26.0214C79.6971 27.503 78.6983 28.5827 77.4256 28.5827ZM79.5682 22.7024H79.5037C79.085 22.2031 78.2791 21.752 77.2647 21.752C75.1377 21.752 73.1885 23.6211 73.1885 26.0214C73.1885 28.4054 75.1377 30.2581 77.2647 30.2581C78.2791 30.2581 79.0849 29.8069 79.5037 29.2917H79.5682V29.9034C79.5682 31.5311 78.6983 32.4006 77.2967 32.4006C76.1533 32.4006 75.4444 31.5791 75.1542 30.8865L73.5273 31.563C73.9941 32.6903 75.2343 34.0763 77.2968 34.0763C79.4881 34.0763 81.3408 32.7872 81.3408 29.6455V22.0097H79.5682L79.5682 22.7024ZM82.6298 30.0003H84.4978V17.4985H82.6298V30.0003ZM87.2529 25.8762C87.2048 24.2328 88.5262 23.3953 89.4762 23.3953C90.2176 23.3953 90.8453 23.766 91.0555 24.2972L87.2529 25.8762ZM93.0523 24.4582C92.6981 23.5082 91.6188 21.752 89.4118 21.752C87.2204 21.752 85.4001 23.4758 85.4001 26.0051C85.4001 28.3894 87.2048 30.2581 89.6208 30.2581C91.57 30.2581 92.6981 29.0664 93.1656 28.3734L91.7156 27.4066C91.2321 28.1156 90.5719 28.5828 89.6208 28.5828C88.6708 28.5828 87.9939 28.1477 87.5595 27.2938L93.2457 24.9419L93.0523 24.4582ZM47.7453 23.057V24.8613H52.0627C51.9338 25.8762 51.5955 26.6172 51.0799 27.1328C50.4514 27.7609 49.4687 28.4538 47.7452 28.4538C45.087 28.4538 43.009 26.3113 43.009 23.6531C43.009 20.995 45.087 18.8521 47.7452 18.8521C49.1791 18.8521 50.226 19.4161 50.9994 20.1411L52.2724 18.8681C51.1927 17.8372 49.7591 17.0479 47.7452 17.0479C44.1038 17.0479 41.043 20.0122 41.043 23.6531C41.043 27.2937 44.1038 30.2581 47.7452 30.2581C49.7104 30.2581 51.1928 29.6136 52.3525 28.4055C53.5447 27.2133 53.9154 25.5379 53.9154 24.1844C53.9154 23.7661 53.8829 23.3794 53.8185 23.057H47.7453ZM58.8244 28.5827C57.5353 28.5827 56.4236 27.5194 56.4236 26.0051C56.4236 24.4746 57.5353 23.4278 58.8244 23.4278C60.113 23.4278 61.2246 24.4746 61.2246 26.0051C61.2246 27.5194 60.113 28.5827 58.8244 28.5827ZM58.8244 21.752C56.4716 21.752 54.5548 23.5402 54.5548 26.0051C54.5548 28.4538 56.4716 30.2581 58.8244 30.2581C61.1762 30.2581 63.0934 28.4538 63.0934 26.0051C63.0934 23.5402 61.1762 21.752 58.8244 21.752ZM68.1372 28.5827C66.849 28.5827 65.7369 27.5194 65.7369 26.0051C65.7369 24.4746 66.8491 23.4278 68.1372 23.4278C69.4263 23.4278 70.5376 24.4746 70.5376 26.0051C70.5376 27.5194 69.4263 28.5827 68.1372 28.5827ZM68.1372 21.752C65.7853 21.752 63.8685 23.5402 63.8685 26.0051C63.8685 28.4538 65.7853 30.2581 68.1372 30.2581C70.49 30.2581 72.4067 28.4538 72.4067 26.0051C72.4067 23.5402 70.49 21.752 68.1372 21.752Z" fill="white"/>
        <path d="M20.7159 19.424L10.0703 30.7235C10.0707 30.7259 10.0715 30.7278 10.0719 30.7302C10.3984 31.9572 11.5191 32.8607 12.8492 32.8607C13.3808 32.8607 13.88 32.7169 14.3081 32.4646L14.3421 32.4447L26.3257 25.5296L20.7159 19.424Z" fill="#EB3131"/>
        <path d="M31.4893 17.5004L31.4791 17.4934L26.3054 14.4941L20.4766 19.6809L26.3256 25.5292L31.472 22.5598C32.3743 22.0727 32.9868 21.1215 32.9868 20.0246C32.9868 18.9356 32.3826 17.9891 31.4893 17.5004Z" fill="#F6B60B"/>
        <path d="M10.0703 9.27734C10.0063 9.51334 9.97266 9.76053 9.97266 10.0172V29.9846C9.97266 30.2408 10.0059 30.4889 10.0707 30.724L21.0838 19.7132L10.0703 9.27734Z" fill="#5778C5"/>
        <path d="M20.7954 20.0015L26.3059 14.4927L14.3358 7.5526C13.9007 7.292 13.3929 7.1416 12.8496 7.1416C11.5195 7.1416 10.3973 8.04671 10.0707 9.27514C10.0703 9.27634 10.0703 9.27716 10.0703 9.27821L20.7954 20.0015Z" fill="#3BAD49"/>
        <path d="M47.3952 9.78187H44.4781V10.5038H46.6641C46.6047 11.0928 46.3703 11.5553 45.975 11.8913C45.5797 12.2273 45.075 12.396 44.4781 12.396C43.8234 12.396 43.2687 12.1679 42.8142 11.7148C42.3688 11.2523 42.1423 10.6804 42.1423 9.99134C42.1423 9.30235 42.3688 8.73043 42.8142 8.26798C43.2687 7.81488 43.8234 7.58829 44.4781 7.58829C44.8141 7.58829 45.1344 7.6461 45.4281 7.77269C45.7219 7.89919 45.9578 8.07578 46.1422 8.30238L46.6968 7.74769C46.4452 7.4617 46.1266 7.243 45.7311 7.08361C45.3358 6.92421 44.9234 6.84771 44.478 6.84771C43.6047 6.84771 42.8641 7.1508 42.2594 7.75551C41.6547 8.36171 41.3516 9.1086 41.3516 9.99135C41.3516 10.8741 41.6547 11.6226 42.2594 12.2273C42.8641 12.8319 43.6047 13.1351 44.478 13.1351C45.3952 13.1351 46.1265 12.8414 46.689 12.2444C47.1843 11.7477 47.4374 11.0758 47.4374 10.2352C47.4374 10.093 47.4202 9.94127 47.3952 9.78187ZM48.5253 6.98195V13.0007H52.0393V12.2616H49.2988V10.3523H51.7706V9.63041H49.2988V7.72262H52.0393V6.98193L48.5253 6.98195ZM56.9667 7.72264V6.98195H52.8308V7.72264H54.512V13.0006H55.2854V7.72264H56.9667ZM60.7111 6.98195H59.9376V13.0007H60.7111V6.98195ZM65.816 7.72264V6.98195H61.6802V7.72264H63.3613V13.0006H64.1347V7.72264H65.816ZM73.6206 7.76484C73.0237 7.15076 72.2925 6.84766 71.419 6.84766C70.5441 6.84766 69.8129 7.15075 69.216 7.75546C68.6191 8.35235 68.3254 9.10075 68.3254 9.9913C68.3254 10.8819 68.6191 11.6304 69.216 12.2273C69.8128 12.8319 70.5441 13.1351 71.419 13.1351C72.2846 13.1351 73.0236 12.8319 73.6206 12.2273C74.2175 11.6304 74.5111 10.8819 74.5111 9.9913C74.5111 9.10855 74.2174 8.36162 73.6206 7.76484ZM69.7707 8.26793C70.216 7.81483 70.7628 7.58824 71.419 7.58824C72.0737 7.58824 72.6206 7.81484 73.0581 8.26793C73.5034 8.71322 73.7221 9.29438 73.7221 9.99129C73.7221 10.6898 73.5034 11.2694 73.0581 11.7147C72.6206 12.1678 72.0737 12.3959 71.419 12.3959C70.7628 12.3959 70.2159 12.1678 69.7707 11.7147C69.3347 11.26 69.116 10.6898 69.116 9.99129C69.116 9.2944 69.3347 8.72258 69.7707 8.26793ZM76.3486 9.25231L76.3159 8.0913H76.3486L79.408 13.0006H80.2157V6.98189H79.4423V10.5037L79.4751 11.6647H79.4423L76.5174 6.98189H75.5752V13.0006H76.3486V9.25231Z" fill="white" stroke="white" stroke-width="0.26666" stroke-miterlimit="10"/>
    </g>
    <defs>
        <clipPath id="clip0_8688_345428">
            <rect width="135.001" height="40" fill="white"/>
        </clipPath>
    </defs>
</svg>
