<?xml version="1.0" standalone="no"?>
<svg xmlns="http://www.w3.org/2000/svg" version="1.1" width="259" height="259">
	<!-- Created with https://api.qrserver.com (QR Code API, see goQR.me/api for information) -->
	<title>QR Code</title>
	<desc>https://play.google.com/store/apps/details?id=chat.actual.app&amp;pli=1</desc>
	<rect style="fill:rgb(255, 255, 255);fill-opacity:1" x="0" y="0" width="259" height="259" />
	<g id="elements">
		<path style="fill:rgb(0, 0, 0)" d="M 14,14 l 7,0 0,7 -7,0 z M 21,14 l 7,0 0,7 -7,0 z M 28,14 l 7,0 0,7 -7,0 z M 35,14 l 7,0 0,7 -7,0 z M 42,14 l 7,0 0,7 -7,0 z M 49,14 l 7,0 0,7 -7,0 z M 56,14 l 7,0 0,7 -7,0 z M 84,14 l 7,0 0,7 -7,0 z M 98,14 l 7,0 0,7 -7,0 z M 112,14 l 7,0 0,7 -7,0 z M 126,14 l 7,0 0,7 -7,0 z M 133,14 l 7,0 0,7 -7,0 z M 140,14 l 7,0 0,7 -7,0 z M 147,14 l 7,0 0,7 -7,0 z M 154,14 l 7,0 0,7 -7,0 z M 161,14 l 7,0 0,7 -7,0 z M 168,14 l 7,0 0,7 -7,0 z M 175,14 l 7,0 0,7 -7,0 z M 196,14 l 7,0 0,7 -7,0 z M 203,14 l 7,0 0,7 -7,0 z M 210,14 l 7,0 0,7 -7,0 z M 217,14 l 7,0 0,7 -7,0 z M 224,14 l 7,0 0,7 -7,0 z M 231,14 l 7,0 0,7 -7,0 z M 238,14 l 7,0 0,7 -7,0 z M 14,21 l 7,0 0,7 -7,0 z M 56,21 l 7,0 0,7 -7,0 z M 70,21 l 7,0 0,7 -7,0 z M 84,21 l 7,0 0,7 -7,0 z M 119,21 l 7,0 0,7 -7,0 z M 126,21 l 7,0 0,7 -7,0 z M 140,21 l 7,0 0,7 -7,0 z M 154,21 l 7,0 0,7 -7,0 z M 196,21 l 7,0 0,7 -7,0 z M 238,21 l 7,0 0,7 -7,0 z M 14,28 l 7,0 0,7 -7,0 z M 28,28 l 7,0 0,7 -7,0 z M 35,28 l 7,0 0,7 -7,0 z M 42,28 l 7,0 0,7 -7,0 z M 56,28 l 7,0 0,7 -7,0 z M 98,28 l 7,0 0,7 -7,0 z M 119,28 l 7,0 0,7 -7,0 z M 147,28 l 7,0 0,7 -7,0 z M 154,28 l 7,0 0,7 -7,0 z M 161,28 l 7,0 0,7 -7,0 z M 175,28 l 7,0 0,7 -7,0 z M 196,28 l 7,0 0,7 -7,0 z M 210,28 l 7,0 0,7 -7,0 z M 217,28 l 7,0 0,7 -7,0 z M 224,28 l 7,0 0,7 -7,0 z M 238,28 l 7,0 0,7 -7,0 z M 14,35 l 7,0 0,7 -7,0 z M 28,35 l 7,0 0,7 -7,0 z M 35,35 l 7,0 0,7 -7,0 z M 42,35 l 7,0 0,7 -7,0 z M 56,35 l 7,0 0,7 -7,0 z M 70,35 l 7,0 0,7 -7,0 z M 77,35 l 7,0 0,7 -7,0 z M 84,35 l 7,0 0,7 -7,0 z M 98,35 l 7,0 0,7 -7,0 z M 105,35 l 7,0 0,7 -7,0 z M 112,35 l 7,0 0,7 -7,0 z M 119,35 l 7,0 0,7 -7,0 z M 133,35 l 7,0 0,7 -7,0 z M 147,35 l 7,0 0,7 -7,0 z M 154,35 l 7,0 0,7 -7,0 z M 168,35 l 7,0 0,7 -7,0 z M 175,35 l 7,0 0,7 -7,0 z M 182,35 l 7,0 0,7 -7,0 z M 196,35 l 7,0 0,7 -7,0 z M 210,35 l 7,0 0,7 -7,0 z M 217,35 l 7,0 0,7 -7,0 z M 224,35 l 7,0 0,7 -7,0 z M 238,35 l 7,0 0,7 -7,0 z M 14,42 l 7,0 0,7 -7,0 z M 28,42 l 7,0 0,7 -7,0 z M 35,42 l 7,0 0,7 -7,0 z M 42,42 l 7,0 0,7 -7,0 z M 56,42 l 7,0 0,7 -7,0 z M 77,42 l 7,0 0,7 -7,0 z M 112,42 l 7,0 0,7 -7,0 z M 126,42 l 7,0 0,7 -7,0 z M 140,42 l 7,0 0,7 -7,0 z M 147,42 l 7,0 0,7 -7,0 z M 161,42 l 7,0 0,7 -7,0 z M 175,42 l 7,0 0,7 -7,0 z M 196,42 l 7,0 0,7 -7,0 z M 210,42 l 7,0 0,7 -7,0 z M 217,42 l 7,0 0,7 -7,0 z M 224,42 l 7,0 0,7 -7,0 z M 238,42 l 7,0 0,7 -7,0 z M 14,49 l 7,0 0,7 -7,0 z M 56,49 l 7,0 0,7 -7,0 z M 70,49 l 7,0 0,7 -7,0 z M 77,49 l 7,0 0,7 -7,0 z M 91,49 l 7,0 0,7 -7,0 z M 98,49 l 7,0 0,7 -7,0 z M 119,49 l 7,0 0,7 -7,0 z M 154,49 l 7,0 0,7 -7,0 z M 161,49 l 7,0 0,7 -7,0 z M 168,49 l 7,0 0,7 -7,0 z M 182,49 l 7,0 0,7 -7,0 z M 196,49 l 7,0 0,7 -7,0 z M 238,49 l 7,0 0,7 -7,0 z M 14,56 l 7,0 0,7 -7,0 z M 21,56 l 7,0 0,7 -7,0 z M 28,56 l 7,0 0,7 -7,0 z M 35,56 l 7,0 0,7 -7,0 z M 42,56 l 7,0 0,7 -7,0 z M 49,56 l 7,0 0,7 -7,0 z M 56,56 l 7,0 0,7 -7,0 z M 70,56 l 7,0 0,7 -7,0 z M 84,56 l 7,0 0,7 -7,0 z M 98,56 l 7,0 0,7 -7,0 z M 112,56 l 7,0 0,7 -7,0 z M 126,56 l 7,0 0,7 -7,0 z M 140,56 l 7,0 0,7 -7,0 z M 154,56 l 7,0 0,7 -7,0 z M 168,56 l 7,0 0,7 -7,0 z M 182,56 l 7,0 0,7 -7,0 z M 196,56 l 7,0 0,7 -7,0 z M 203,56 l 7,0 0,7 -7,0 z M 210,56 l 7,0 0,7 -7,0 z M 217,56 l 7,0 0,7 -7,0 z M 224,56 l 7,0 0,7 -7,0 z M 231,56 l 7,0 0,7 -7,0 z M 238,56 l 7,0 0,7 -7,0 z M 77,63 l 7,0 0,7 -7,0 z M 84,63 l 7,0 0,7 -7,0 z M 91,63 l 7,0 0,7 -7,0 z M 126,63 l 7,0 0,7 -7,0 z M 140,63 l 7,0 0,7 -7,0 z M 147,63 l 7,0 0,7 -7,0 z M 161,63 l 7,0 0,7 -7,0 z M 168,63 l 7,0 0,7 -7,0 z M 14,70 l 7,0 0,7 -7,0 z M 21,70 l 7,0 0,7 -7,0 z M 28,70 l 7,0 0,7 -7,0 z M 35,70 l 7,0 0,7 -7,0 z M 42,70 l 7,0 0,7 -7,0 z M 56,70 l 7,0 0,7 -7,0 z M 63,70 l 7,0 0,7 -7,0 z M 70,70 l 7,0 0,7 -7,0 z M 77,70 l 7,0 0,7 -7,0 z M 91,70 l 7,0 0,7 -7,0 z M 105,70 l 7,0 0,7 -7,0 z M 133,70 l 7,0 0,7 -7,0 z M 140,70 l 7,0 0,7 -7,0 z M 154,70 l 7,0 0,7 -7,0 z M 189,70 l 7,0 0,7 -7,0 z M 203,70 l 7,0 0,7 -7,0 z M 217,70 l 7,0 0,7 -7,0 z M 231,70 l 7,0 0,7 -7,0 z M 42,77 l 7,0 0,7 -7,0 z M 70,77 l 7,0 0,7 -7,0 z M 84,77 l 7,0 0,7 -7,0 z M 98,77 l 7,0 0,7 -7,0 z M 133,77 l 7,0 0,7 -7,0 z M 147,77 l 7,0 0,7 -7,0 z M 154,77 l 7,0 0,7 -7,0 z M 175,77 l 7,0 0,7 -7,0 z M 196,77 l 7,0 0,7 -7,0 z M 224,77 l 7,0 0,7 -7,0 z M 231,77 l 7,0 0,7 -7,0 z M 238,77 l 7,0 0,7 -7,0 z M 21,84 l 7,0 0,7 -7,0 z M 28,84 l 7,0 0,7 -7,0 z M 49,84 l 7,0 0,7 -7,0 z M 56,84 l 7,0 0,7 -7,0 z M 70,84 l 7,0 0,7 -7,0 z M 84,84 l 7,0 0,7 -7,0 z M 105,84 l 7,0 0,7 -7,0 z M 112,84 l 7,0 0,7 -7,0 z M 119,84 l 7,0 0,7 -7,0 z M 168,84 l 7,0 0,7 -7,0 z M 189,84 l 7,0 0,7 -7,0 z M 196,84 l 7,0 0,7 -7,0 z M 210,84 l 7,0 0,7 -7,0 z M 217,84 l 7,0 0,7 -7,0 z M 231,84 l 7,0 0,7 -7,0 z M 14,91 l 7,0 0,7 -7,0 z M 21,91 l 7,0 0,7 -7,0 z M 28,91 l 7,0 0,7 -7,0 z M 42,91 l 7,0 0,7 -7,0 z M 63,91 l 7,0 0,7 -7,0 z M 70,91 l 7,0 0,7 -7,0 z M 98,91 l 7,0 0,7 -7,0 z M 119,91 l 7,0 0,7 -7,0 z M 126,91 l 7,0 0,7 -7,0 z M 154,91 l 7,0 0,7 -7,0 z M 161,91 l 7,0 0,7 -7,0 z M 168,91 l 7,0 0,7 -7,0 z M 175,91 l 7,0 0,7 -7,0 z M 182,91 l 7,0 0,7 -7,0 z M 189,91 l 7,0 0,7 -7,0 z M 196,91 l 7,0 0,7 -7,0 z M 210,91 l 7,0 0,7 -7,0 z M 224,91 l 7,0 0,7 -7,0 z M 14,98 l 7,0 0,7 -7,0 z M 28,98 l 7,0 0,7 -7,0 z M 35,98 l 7,0 0,7 -7,0 z M 56,98 l 7,0 0,7 -7,0 z M 70,98 l 7,0 0,7 -7,0 z M 77,98 l 7,0 0,7 -7,0 z M 84,98 l 7,0 0,7 -7,0 z M 98,98 l 7,0 0,7 -7,0 z M 105,98 l 7,0 0,7 -7,0 z M 112,98 l 7,0 0,7 -7,0 z M 133,98 l 7,0 0,7 -7,0 z M 147,98 l 7,0 0,7 -7,0 z M 168,98 l 7,0 0,7 -7,0 z M 189,98 l 7,0 0,7 -7,0 z M 203,98 l 7,0 0,7 -7,0 z M 210,98 l 7,0 0,7 -7,0 z M 217,98 l 7,0 0,7 -7,0 z M 28,105 l 7,0 0,7 -7,0 z M 49,105 l 7,0 0,7 -7,0 z M 63,105 l 7,0 0,7 -7,0 z M 70,105 l 7,0 0,7 -7,0 z M 77,105 l 7,0 0,7 -7,0 z M 112,105 l 7,0 0,7 -7,0 z M 126,105 l 7,0 0,7 -7,0 z M 140,105 l 7,0 0,7 -7,0 z M 147,105 l 7,0 0,7 -7,0 z M 154,105 l 7,0 0,7 -7,0 z M 161,105 l 7,0 0,7 -7,0 z M 175,105 l 7,0 0,7 -7,0 z M 196,105 l 7,0 0,7 -7,0 z M 231,105 l 7,0 0,7 -7,0 z M 238,105 l 7,0 0,7 -7,0 z M 14,112 l 7,0 0,7 -7,0 z M 21,112 l 7,0 0,7 -7,0 z M 42,112 l 7,0 0,7 -7,0 z M 56,112 l 7,0 0,7 -7,0 z M 63,112 l 7,0 0,7 -7,0 z M 70,112 l 7,0 0,7 -7,0 z M 77,112 l 7,0 0,7 -7,0 z M 91,112 l 7,0 0,7 -7,0 z M 98,112 l 7,0 0,7 -7,0 z M 119,112 l 7,0 0,7 -7,0 z M 126,112 l 7,0 0,7 -7,0 z M 133,112 l 7,0 0,7 -7,0 z M 140,112 l 7,0 0,7 -7,0 z M 154,112 l 7,0 0,7 -7,0 z M 161,112 l 7,0 0,7 -7,0 z M 189,112 l 7,0 0,7 -7,0 z M 210,112 l 7,0 0,7 -7,0 z M 231,112 l 7,0 0,7 -7,0 z M 21,119 l 7,0 0,7 -7,0 z M 28,119 l 7,0 0,7 -7,0 z M 35,119 l 7,0 0,7 -7,0 z M 70,119 l 7,0 0,7 -7,0 z M 77,119 l 7,0 0,7 -7,0 z M 91,119 l 7,0 0,7 -7,0 z M 119,119 l 7,0 0,7 -7,0 z M 161,119 l 7,0 0,7 -7,0 z M 168,119 l 7,0 0,7 -7,0 z M 175,119 l 7,0 0,7 -7,0 z M 189,119 l 7,0 0,7 -7,0 z M 196,119 l 7,0 0,7 -7,0 z M 224,119 l 7,0 0,7 -7,0 z M 14,126 l 7,0 0,7 -7,0 z M 42,126 l 7,0 0,7 -7,0 z M 56,126 l 7,0 0,7 -7,0 z M 77,126 l 7,0 0,7 -7,0 z M 84,126 l 7,0 0,7 -7,0 z M 91,126 l 7,0 0,7 -7,0 z M 105,126 l 7,0 0,7 -7,0 z M 112,126 l 7,0 0,7 -7,0 z M 119,126 l 7,0 0,7 -7,0 z M 133,126 l 7,0 0,7 -7,0 z M 147,126 l 7,0 0,7 -7,0 z M 168,126 l 7,0 0,7 -7,0 z M 175,126 l 7,0 0,7 -7,0 z M 182,126 l 7,0 0,7 -7,0 z M 189,126 l 7,0 0,7 -7,0 z M 203,126 l 7,0 0,7 -7,0 z M 210,126 l 7,0 0,7 -7,0 z M 231,126 l 7,0 0,7 -7,0 z M 21,133 l 7,0 0,7 -7,0 z M 42,133 l 7,0 0,7 -7,0 z M 63,133 l 7,0 0,7 -7,0 z M 84,133 l 7,0 0,7 -7,0 z M 98,133 l 7,0 0,7 -7,0 z M 105,133 l 7,0 0,7 -7,0 z M 126,133 l 7,0 0,7 -7,0 z M 133,133 l 7,0 0,7 -7,0 z M 140,133 l 7,0 0,7 -7,0 z M 147,133 l 7,0 0,7 -7,0 z M 154,133 l 7,0 0,7 -7,0 z M 161,133 l 7,0 0,7 -7,0 z M 168,133 l 7,0 0,7 -7,0 z M 175,133 l 7,0 0,7 -7,0 z M 182,133 l 7,0 0,7 -7,0 z M 196,133 l 7,0 0,7 -7,0 z M 217,133 l 7,0 0,7 -7,0 z M 231,133 l 7,0 0,7 -7,0 z M 238,133 l 7,0 0,7 -7,0 z M 21,140 l 7,0 0,7 -7,0 z M 35,140 l 7,0 0,7 -7,0 z M 49,140 l 7,0 0,7 -7,0 z M 56,140 l 7,0 0,7 -7,0 z M 63,140 l 7,0 0,7 -7,0 z M 84,140 l 7,0 0,7 -7,0 z M 112,140 l 7,0 0,7 -7,0 z M 119,140 l 7,0 0,7 -7,0 z M 126,140 l 7,0 0,7 -7,0 z M 140,140 l 7,0 0,7 -7,0 z M 154,140 l 7,0 0,7 -7,0 z M 161,140 l 7,0 0,7 -7,0 z M 189,140 l 7,0 0,7 -7,0 z M 196,140 l 7,0 0,7 -7,0 z M 203,140 l 7,0 0,7 -7,0 z M 210,140 l 7,0 0,7 -7,0 z M 217,140 l 7,0 0,7 -7,0 z M 231,140 l 7,0 0,7 -7,0 z M 14,147 l 7,0 0,7 -7,0 z M 21,147 l 7,0 0,7 -7,0 z M 28,147 l 7,0 0,7 -7,0 z M 35,147 l 7,0 0,7 -7,0 z M 42,147 l 7,0 0,7 -7,0 z M 77,147 l 7,0 0,7 -7,0 z M 98,147 l 7,0 0,7 -7,0 z M 119,147 l 7,0 0,7 -7,0 z M 126,147 l 7,0 0,7 -7,0 z M 140,147 l 7,0 0,7 -7,0 z M 161,147 l 7,0 0,7 -7,0 z M 210,147 l 7,0 0,7 -7,0 z M 224,147 l 7,0 0,7 -7,0 z M 14,154 l 7,0 0,7 -7,0 z M 28,154 l 7,0 0,7 -7,0 z M 49,154 l 7,0 0,7 -7,0 z M 56,154 l 7,0 0,7 -7,0 z M 63,154 l 7,0 0,7 -7,0 z M 98,154 l 7,0 0,7 -7,0 z M 105,154 l 7,0 0,7 -7,0 z M 112,154 l 7,0 0,7 -7,0 z M 119,154 l 7,0 0,7 -7,0 z M 126,154 l 7,0 0,7 -7,0 z M 133,154 l 7,0 0,7 -7,0 z M 168,154 l 7,0 0,7 -7,0 z M 175,154 l 7,0 0,7 -7,0 z M 182,154 l 7,0 0,7 -7,0 z M 189,154 l 7,0 0,7 -7,0 z M 203,154 l 7,0 0,7 -7,0 z M 210,154 l 7,0 0,7 -7,0 z M 231,154 l 7,0 0,7 -7,0 z M 14,161 l 7,0 0,7 -7,0 z M 28,161 l 7,0 0,7 -7,0 z M 35,161 l 7,0 0,7 -7,0 z M 70,161 l 7,0 0,7 -7,0 z M 77,161 l 7,0 0,7 -7,0 z M 84,161 l 7,0 0,7 -7,0 z M 105,161 l 7,0 0,7 -7,0 z M 126,161 l 7,0 0,7 -7,0 z M 140,161 l 7,0 0,7 -7,0 z M 147,161 l 7,0 0,7 -7,0 z M 154,161 l 7,0 0,7 -7,0 z M 161,161 l 7,0 0,7 -7,0 z M 168,161 l 7,0 0,7 -7,0 z M 175,161 l 7,0 0,7 -7,0 z M 196,161 l 7,0 0,7 -7,0 z M 203,161 l 7,0 0,7 -7,0 z M 217,161 l 7,0 0,7 -7,0 z M 231,161 l 7,0 0,7 -7,0 z M 238,161 l 7,0 0,7 -7,0 z M 14,168 l 7,0 0,7 -7,0 z M 28,168 l 7,0 0,7 -7,0 z M 35,168 l 7,0 0,7 -7,0 z M 42,168 l 7,0 0,7 -7,0 z M 56,168 l 7,0 0,7 -7,0 z M 84,168 l 7,0 0,7 -7,0 z M 91,168 l 7,0 0,7 -7,0 z M 98,168 l 7,0 0,7 -7,0 z M 119,168 l 7,0 0,7 -7,0 z M 140,168 l 7,0 0,7 -7,0 z M 161,168 l 7,0 0,7 -7,0 z M 189,168 l 7,0 0,7 -7,0 z M 217,168 l 7,0 0,7 -7,0 z M 231,168 l 7,0 0,7 -7,0 z M 14,175 l 7,0 0,7 -7,0 z M 63,175 l 7,0 0,7 -7,0 z M 84,175 l 7,0 0,7 -7,0 z M 91,175 l 7,0 0,7 -7,0 z M 112,175 l 7,0 0,7 -7,0 z M 119,175 l 7,0 0,7 -7,0 z M 126,175 l 7,0 0,7 -7,0 z M 154,175 l 7,0 0,7 -7,0 z M 161,175 l 7,0 0,7 -7,0 z M 175,175 l 7,0 0,7 -7,0 z M 189,175 l 7,0 0,7 -7,0 z M 203,175 l 7,0 0,7 -7,0 z M 210,175 l 7,0 0,7 -7,0 z M 217,175 l 7,0 0,7 -7,0 z M 224,175 l 7,0 0,7 -7,0 z M 14,182 l 7,0 0,7 -7,0 z M 35,182 l 7,0 0,7 -7,0 z M 42,182 l 7,0 0,7 -7,0 z M 56,182 l 7,0 0,7 -7,0 z M 77,182 l 7,0 0,7 -7,0 z M 84,182 l 7,0 0,7 -7,0 z M 91,182 l 7,0 0,7 -7,0 z M 105,182 l 7,0 0,7 -7,0 z M 119,182 l 7,0 0,7 -7,0 z M 126,182 l 7,0 0,7 -7,0 z M 133,182 l 7,0 0,7 -7,0 z M 154,182 l 7,0 0,7 -7,0 z M 168,182 l 7,0 0,7 -7,0 z M 175,182 l 7,0 0,7 -7,0 z M 182,182 l 7,0 0,7 -7,0 z M 189,182 l 7,0 0,7 -7,0 z M 196,182 l 7,0 0,7 -7,0 z M 203,182 l 7,0 0,7 -7,0 z M 210,182 l 7,0 0,7 -7,0 z M 217,182 l 7,0 0,7 -7,0 z M 238,182 l 7,0 0,7 -7,0 z M 70,189 l 7,0 0,7 -7,0 z M 77,189 l 7,0 0,7 -7,0 z M 84,189 l 7,0 0,7 -7,0 z M 98,189 l 7,0 0,7 -7,0 z M 105,189 l 7,0 0,7 -7,0 z M 112,189 l 7,0 0,7 -7,0 z M 126,189 l 7,0 0,7 -7,0 z M 147,189 l 7,0 0,7 -7,0 z M 154,189 l 7,0 0,7 -7,0 z M 161,189 l 7,0 0,7 -7,0 z M 168,189 l 7,0 0,7 -7,0 z M 182,189 l 7,0 0,7 -7,0 z M 210,189 l 7,0 0,7 -7,0 z M 224,189 l 7,0 0,7 -7,0 z M 238,189 l 7,0 0,7 -7,0 z M 14,196 l 7,0 0,7 -7,0 z M 21,196 l 7,0 0,7 -7,0 z M 28,196 l 7,0 0,7 -7,0 z M 35,196 l 7,0 0,7 -7,0 z M 42,196 l 7,0 0,7 -7,0 z M 49,196 l 7,0 0,7 -7,0 z M 56,196 l 7,0 0,7 -7,0 z M 70,196 l 7,0 0,7 -7,0 z M 77,196 l 7,0 0,7 -7,0 z M 84,196 l 7,0 0,7 -7,0 z M 112,196 l 7,0 0,7 -7,0 z M 119,196 l 7,0 0,7 -7,0 z M 126,196 l 7,0 0,7 -7,0 z M 154,196 l 7,0 0,7 -7,0 z M 175,196 l 7,0 0,7 -7,0 z M 182,196 l 7,0 0,7 -7,0 z M 196,196 l 7,0 0,7 -7,0 z M 210,196 l 7,0 0,7 -7,0 z M 224,196 l 7,0 0,7 -7,0 z M 231,196 l 7,0 0,7 -7,0 z M 14,203 l 7,0 0,7 -7,0 z M 56,203 l 7,0 0,7 -7,0 z M 77,203 l 7,0 0,7 -7,0 z M 98,203 l 7,0 0,7 -7,0 z M 112,203 l 7,0 0,7 -7,0 z M 140,203 l 7,0 0,7 -7,0 z M 154,203 l 7,0 0,7 -7,0 z M 161,203 l 7,0 0,7 -7,0 z M 168,203 l 7,0 0,7 -7,0 z M 175,203 l 7,0 0,7 -7,0 z M 182,203 l 7,0 0,7 -7,0 z M 210,203 l 7,0 0,7 -7,0 z M 217,203 l 7,0 0,7 -7,0 z M 224,203 l 7,0 0,7 -7,0 z M 231,203 l 7,0 0,7 -7,0 z M 238,203 l 7,0 0,7 -7,0 z M 14,210 l 7,0 0,7 -7,0 z M 28,210 l 7,0 0,7 -7,0 z M 35,210 l 7,0 0,7 -7,0 z M 42,210 l 7,0 0,7 -7,0 z M 56,210 l 7,0 0,7 -7,0 z M 70,210 l 7,0 0,7 -7,0 z M 98,210 l 7,0 0,7 -7,0 z M 105,210 l 7,0 0,7 -7,0 z M 119,210 l 7,0 0,7 -7,0 z M 133,210 l 7,0 0,7 -7,0 z M 140,210 l 7,0 0,7 -7,0 z M 182,210 l 7,0 0,7 -7,0 z M 189,210 l 7,0 0,7 -7,0 z M 196,210 l 7,0 0,7 -7,0 z M 203,210 l 7,0 0,7 -7,0 z M 210,210 l 7,0 0,7 -7,0 z M 14,217 l 7,0 0,7 -7,0 z M 28,217 l 7,0 0,7 -7,0 z M 35,217 l 7,0 0,7 -7,0 z M 42,217 l 7,0 0,7 -7,0 z M 56,217 l 7,0 0,7 -7,0 z M 70,217 l 7,0 0,7 -7,0 z M 77,217 l 7,0 0,7 -7,0 z M 112,217 l 7,0 0,7 -7,0 z M 126,217 l 7,0 0,7 -7,0 z M 133,217 l 7,0 0,7 -7,0 z M 140,217 l 7,0 0,7 -7,0 z M 147,217 l 7,0 0,7 -7,0 z M 154,217 l 7,0 0,7 -7,0 z M 175,217 l 7,0 0,7 -7,0 z M 210,217 l 7,0 0,7 -7,0 z M 217,217 l 7,0 0,7 -7,0 z M 14,224 l 7,0 0,7 -7,0 z M 28,224 l 7,0 0,7 -7,0 z M 35,224 l 7,0 0,7 -7,0 z M 42,224 l 7,0 0,7 -7,0 z M 56,224 l 7,0 0,7 -7,0 z M 70,224 l 7,0 0,7 -7,0 z M 77,224 l 7,0 0,7 -7,0 z M 91,224 l 7,0 0,7 -7,0 z M 98,224 l 7,0 0,7 -7,0 z M 119,224 l 7,0 0,7 -7,0 z M 126,224 l 7,0 0,7 -7,0 z M 133,224 l 7,0 0,7 -7,0 z M 168,224 l 7,0 0,7 -7,0 z M 182,224 l 7,0 0,7 -7,0 z M 196,224 l 7,0 0,7 -7,0 z M 224,224 l 7,0 0,7 -7,0 z M 231,224 l 7,0 0,7 -7,0 z M 14,231 l 7,0 0,7 -7,0 z M 56,231 l 7,0 0,7 -7,0 z M 70,231 l 7,0 0,7 -7,0 z M 77,231 l 7,0 0,7 -7,0 z M 91,231 l 7,0 0,7 -7,0 z M 112,231 l 7,0 0,7 -7,0 z M 119,231 l 7,0 0,7 -7,0 z M 140,231 l 7,0 0,7 -7,0 z M 154,231 l 7,0 0,7 -7,0 z M 161,231 l 7,0 0,7 -7,0 z M 168,231 l 7,0 0,7 -7,0 z M 189,231 l 7,0 0,7 -7,0 z M 196,231 l 7,0 0,7 -7,0 z M 217,231 l 7,0 0,7 -7,0 z M 224,231 l 7,0 0,7 -7,0 z M 14,238 l 7,0 0,7 -7,0 z M 21,238 l 7,0 0,7 -7,0 z M 28,238 l 7,0 0,7 -7,0 z M 35,238 l 7,0 0,7 -7,0 z M 42,238 l 7,0 0,7 -7,0 z M 49,238 l 7,0 0,7 -7,0 z M 56,238 l 7,0 0,7 -7,0 z M 70,238 l 7,0 0,7 -7,0 z M 91,238 l 7,0 0,7 -7,0 z M 98,238 l 7,0 0,7 -7,0 z M 119,238 l 7,0 0,7 -7,0 z M 133,238 l 7,0 0,7 -7,0 z M 168,238 l 7,0 0,7 -7,0 z M 175,238 l 7,0 0,7 -7,0 z M 182,238 l 7,0 0,7 -7,0 z M 196,238 l 7,0 0,7 -7,0 z M 203,238 l 7,0 0,7 -7,0 z M 231,238 l 7,0 0,7 -7,0 z " />
	</g>
</svg>
