<svg width="41" height="40" viewBox="0 0 41 40" fill="none" xmlns="http://www.w3.org/2000/svg">
<g clip-path="url(#clip0_4487_152764)">
<path d="M20.5 40C31.5457 40 40.5 31.0457 40.5 20C40.5 8.95432 31.5457 0 20.5 0C9.45432 0 0.5 8.95432 0.5 20C0.5 31.0457 9.45432 40 20.5 40Z" fill="#626262"/>
<g clip-path="url(#clip1_4487_152764)">
<path d="M13.961 11.25C18.634 11.25 22.4218 15.1514 22.4218 19.9636C22.4218 24.7759 18.6337 28.6769 13.961 28.6769C9.28841 28.6769 5.5 24.7759 5.5 19.9636C5.5 15.1514 9.28812 11.25 13.961 11.25ZM27.4727 11.7604C29.8092 11.7604 31.7033 15.4327 31.7033 19.9636H31.7035C31.7035 24.4933 29.8095 28.1668 27.473 28.1668C25.1366 28.1668 23.2425 24.4933 23.2425 19.9636C23.2425 15.4339 25.1363 11.7604 27.4727 11.7604ZM34.0121 12.6148C34.8337 12.6148 35.5 15.9049 35.5 19.9636C35.5 24.0211 34.834 27.3124 34.0121 27.3124C33.1903 27.3124 32.5245 24.022 32.5245 19.9636C32.5245 15.9052 33.1906 12.6148 34.0121 12.6148Z" fill="white"/>
</g>
</g>
<defs>
<clipPath id="clip0_4487_152764">
<rect width="40" height="40" fill="white" transform="translate(0.5)"/>
</clipPath>
<clipPath id="clip1_4487_152764">
<rect width="30" height="17.5" fill="white" transform="translate(5.5 11.25)"/>
</clipPath>
</defs>
</svg>
