<svg width="111" height="40" viewBox="0 0 111 40" fill="none" xmlns="http://www.w3.org/2000/svg">
    <g clip-path="url(#clip0_8688_344478)">
        <path d="M110.485 0.294922H0.292969V39.718H110.485V0.294922Z" fill="black"/>
        <path d="M0.576923 0.576923H110.192V39.4231H0.576923V0.576923ZM0 40H110.769V0H0V40Z" fill="#D2D2D2"/>
        <path d="M19.7827 8.79492H9.03906V19.5385H19.7827V8.79492Z" fill="#F25022"/>
        <path d="M31.642 8.79492H20.8984V19.5385H31.642V8.79492Z" fill="#7FBA00"/>
        <path d="M19.7827 20.6406H9.03906V31.3842H19.7827V20.6406Z" fill="#00A4EF"/>
        <path d="M31.642 20.6406H20.8984V31.3842H31.642V20.6406Z" fill="#FFB900"/>
        <path d="M52.3477 20.8976C52.3477 20.5771 52.463 20.3207 52.6938 20.1027C52.9246 19.8848 53.1938 19.7822 53.5143 19.7822C53.8477 19.7822 54.1297 19.8976 54.3477 20.1156C54.5656 20.3335 54.681 20.6027 54.681 20.8976C54.681 21.2053 54.5656 21.4745 54.3348 21.6797C54.1041 21.8976 53.8348 22.0002 53.5015 22.0002C53.1682 22.0002 52.8989 21.8976 52.6682 21.6797C52.463 21.4617 52.3477 21.2053 52.3477 20.8976ZM54.463 31.3848H52.5528V23.2438H54.463V31.3848Z" fill="white"/>
        <path d="M60.283 29.9877C60.565 29.9877 60.8855 29.9236 61.2317 29.7953C61.5778 29.6671 61.8855 29.4877 62.1804 29.2697V31.0518C61.8727 31.2312 61.5265 31.3595 61.1419 31.4492C60.7573 31.5389 60.3214 31.5902 59.8599 31.5902C58.6676 31.5902 57.6932 31.2056 56.9368 30.4492C56.1804 29.6928 55.8086 28.7184 55.8086 27.5518C55.8086 26.2441 56.1932 25.1671 56.9624 24.321C57.7317 23.4748 58.8086 23.0518 60.2189 23.0518C60.5778 23.0518 60.9368 23.103 61.3086 23.1928C61.6804 23.2825 61.9624 23.3979 62.1804 23.5133V25.3466C61.8855 25.1287 61.5778 24.962 61.2701 24.8466C60.9624 24.7312 60.6419 24.6671 60.3214 24.6671C59.565 24.6671 58.9624 24.9107 58.4881 25.3979C58.0265 25.8851 57.7958 26.5518 57.7958 27.3851C57.7958 28.2056 58.0137 28.8466 58.4624 29.3082C58.9112 29.7697 59.5137 29.9877 60.283 29.9877Z" fill="white"/>
        <path d="M67.63 23.1152C67.7839 23.1152 67.9249 23.1281 68.0403 23.1409C68.1556 23.1665 68.271 23.1922 68.348 23.2178V25.1537C68.2454 25.0768 68.1044 25.0127 67.9121 24.9486C67.7198 24.8845 67.489 24.846 67.2069 24.846C66.7326 24.846 66.3351 25.0383 66.0146 25.4357C65.6941 25.8332 65.5274 26.4357 65.5274 27.2691V31.3845H63.6172V23.2434H65.5274V24.5255H65.5531C65.7326 24.0768 65.989 23.7306 66.348 23.487C66.7069 23.2434 67.13 23.1152 67.63 23.1152Z" fill="white"/>
        <path d="M68.4492 27.4364C68.4492 26.0902 68.8338 25.0261 69.5902 24.2312C70.3467 23.4492 71.4108 23.0518 72.7569 23.0518C74.0261 23.0518 75.0261 23.4364 75.7441 24.1928C76.462 24.9492 76.821 25.9748 76.821 27.2569C76.821 28.5774 76.4364 29.6287 75.68 30.4107C74.9236 31.1928 73.8851 31.5774 72.5774 31.5774C71.321 31.5774 70.3082 31.2056 69.5774 30.462C68.821 29.7312 68.4492 28.7184 68.4492 27.4364ZM70.4492 27.3723C70.4492 28.2184 70.6415 28.8723 71.0261 29.321C71.4108 29.7697 71.962 29.9877 72.68 29.9877C73.3723 29.9877 73.9108 29.7697 74.2697 29.321C74.6287 28.8723 74.821 28.2056 74.821 27.321C74.821 26.4492 74.6287 25.7825 74.2569 25.3338C73.8851 24.8851 73.3467 24.6671 72.6672 24.6671C71.962 24.6671 71.4236 24.8979 71.0261 25.3723C70.6415 25.8466 70.4492 26.5005 70.4492 27.3723Z" fill="white"/>
        <path d="M79.6664 25.3842C79.6664 25.6535 79.7561 25.8714 79.9228 26.0253C80.1023 26.1791 80.4869 26.3714 81.0766 26.615C81.8459 26.9227 82.3843 27.2689 82.692 27.6535C82.9997 28.0381 83.1535 28.4996 83.1535 29.0381C83.1535 29.8073 82.8587 30.4227 82.2689 30.8842C81.6792 31.3458 80.8843 31.5765 79.8843 31.5765C79.551 31.5765 79.1792 31.5381 78.7689 31.4483C78.3587 31.3714 78.0125 31.256 77.7305 31.1406V29.256C78.0766 29.4996 78.4484 29.6919 78.8587 29.833C79.2561 29.974 79.6279 30.0509 79.9484 30.0509C80.3843 30.0509 80.7048 29.9868 80.91 29.8714C81.1151 29.756 81.2176 29.5509 81.2176 29.256C81.2176 28.9868 81.1151 28.7689 80.8971 28.5894C80.6792 28.4099 80.2818 28.1919 79.6792 27.9612C78.9741 27.6663 78.4741 27.333 78.1792 26.9612C77.8843 26.5894 77.7305 26.115 77.7305 25.5509C77.7305 24.8201 78.0253 24.2176 78.6023 23.7432C79.1792 23.2689 79.9356 23.0381 80.8715 23.0381C81.1535 23.0381 81.4741 23.0637 81.833 23.1278C82.192 23.1919 82.4869 23.2689 82.7177 23.3714V25.1919C82.4612 25.0253 82.1664 24.8842 81.833 24.756C81.4997 24.6407 81.1535 24.5765 80.833 24.5765C80.4741 24.5765 80.1792 24.6535 79.9869 24.7945C79.7689 24.9355 79.6664 25.1407 79.6664 25.3842Z" fill="white"/>
        <path d="M84 27.4364C84 26.0902 84.3846 25.0261 85.141 24.2312C85.8974 23.4492 86.9615 23.0518 88.3077 23.0518C89.5769 23.0518 90.5769 23.4364 91.2949 24.1928C92.0128 24.9492 92.3718 25.9748 92.3718 27.2569C92.3718 28.5774 91.9872 29.6287 91.2308 30.4107C90.4744 31.1928 89.4359 31.5774 88.1282 31.5774C86.8718 31.5774 85.859 31.2056 85.1282 30.462C84.3718 29.7312 84 28.7184 84 27.4364ZM85.9872 27.3723C85.9872 28.2184 86.1795 28.8723 86.5641 29.321C86.9487 29.7697 87.5 29.9877 88.2179 29.9877C88.9103 29.9877 89.4487 29.7697 89.8077 29.321C90.1667 28.8723 90.359 28.2056 90.359 27.321C90.359 26.4492 90.1667 25.7825 89.7949 25.3338C89.4231 24.8851 88.8846 24.6671 88.2051 24.6671C87.5 24.6671 86.9615 24.8979 86.5641 25.3723C86.1795 25.8466 85.9872 26.5005 85.9872 27.3723Z" fill="white"/>
        <path d="M98.6918 24.8205V28.9999C98.6918 29.8717 98.8969 30.5128 99.2944 30.9487C99.6918 31.3846 100.307 31.5897 101.115 31.5897C101.384 31.5897 101.666 31.5641 101.948 31.4999C102.23 31.4358 102.435 31.3846 102.551 31.3076V29.7179C102.435 29.7948 102.294 29.8589 102.141 29.9102C101.987 29.9615 101.846 29.9871 101.743 29.9871C101.358 29.9871 101.064 29.8846 100.884 29.6794C100.705 29.4743 100.615 29.1153 100.615 28.6153V24.8076H102.564V23.2435H100.628V20.8333L98.7046 21.423V23.2564H95.8456V22.2692C95.8456 21.782 95.9482 21.4102 96.1662 21.1538C96.3841 20.8974 96.6918 20.782 97.0892 20.782C97.2944 20.782 97.4739 20.8076 97.6405 20.8589C97.7944 20.9102 97.9098 20.9615 97.9739 20.9999V19.3461C97.8328 19.2948 97.679 19.2692 97.4995 19.2435C97.32 19.2179 97.1149 19.2051 96.8841 19.2051C96.0123 19.2051 95.2944 19.4743 94.7431 20.0256C94.1918 20.5769 93.9098 21.2692 93.9098 22.1282V23.2564H92.5508V24.8205H93.9098V31.3974H95.8456V24.8205H98.6918Z" fill="white"/>
        <path d="M50.705 20.0254V31.3844H48.7307V22.4869H48.705L45.1794 31.3844H43.8717L40.2563 22.4869H40.2307V31.3844H38.4102V20.0254H41.2307L44.4999 28.4485H44.5512L47.9999 20.0254H50.705Z" fill="white"/>
        <path d="M43.5891 15.1157C42.9097 15.5003 42.1404 15.6926 41.2814 15.6926C40.6276 15.6926 40.0507 15.5516 39.5379 15.2567C39.0379 14.9747 38.6404 14.5644 38.3712 14.0388C38.102 13.5131 37.9609 12.9234 37.9609 12.2696C37.9609 11.5772 38.1148 10.949 38.4097 10.4106C38.7045 9.87212 39.1276 9.43622 39.6789 9.12853C40.2302 8.82084 40.8456 8.66699 41.5379 8.66699C41.884 8.66699 42.2302 8.70545 42.5763 8.76956C42.9225 8.83366 43.2045 8.9234 43.4225 9.02597V10.0516C42.9097 9.70545 42.2558 9.53879 41.4609 9.53879C40.9866 9.53879 40.5635 9.65417 40.1789 9.88494C39.7943 10.1157 39.4994 10.4362 39.2943 10.8337C39.0891 11.2439 38.9866 11.7055 38.9866 12.2183C38.9866 13.026 39.2045 13.667 39.6276 14.1414C40.0507 14.6157 40.6404 14.8465 41.384 14.8465C41.8584 14.8465 42.2815 14.7567 42.6404 14.5644V12.808H41.1917V11.9619H43.5891V15.1157Z" fill="white"/>
        <path d="M49.1174 13.4101H45.7584C45.7712 13.8973 45.9251 14.2691 46.1815 14.5383C46.4507 14.7947 46.7969 14.9357 47.2328 14.9357C47.8097 14.9357 48.3097 14.7691 48.7456 14.4357V15.2563C48.5533 15.3845 48.3097 15.4998 48.0148 15.5768C47.72 15.6537 47.4123 15.6922 47.1046 15.6922C46.3738 15.6922 45.7969 15.4742 45.3994 15.0383C45.002 14.6024 44.7969 13.987 44.7969 13.1922C44.7969 12.705 44.8994 12.2563 45.0917 11.8716C45.2841 11.4742 45.5661 11.1665 45.9123 10.9486C46.2584 10.7306 46.6559 10.6152 47.0789 10.6152C47.7071 10.6152 48.2071 10.8204 48.5661 11.2306C48.9251 11.6409 49.1046 12.205 49.1046 12.9357V13.4101H49.1174ZM48.1815 12.6793C48.1815 12.2563 48.0789 11.9357 47.8866 11.7178C47.6943 11.4998 47.4251 11.3845 47.0661 11.3845C46.7456 11.3845 46.4635 11.4998 46.22 11.7306C45.9764 11.9614 45.8353 12.2819 45.7584 12.6793H48.1815Z" fill="white"/>
        <path d="M52.7584 15.5258C52.6687 15.5771 52.5533 15.6156 52.3866 15.6412C52.2328 15.6668 52.0917 15.6797 51.9635 15.6797C51.0661 15.6797 50.6174 15.1797 50.6174 14.1925V11.5002H49.7969V10.7309H50.6174V9.5771L51.5533 9.28223V10.7181H52.7456V11.4874H51.5533V14.0258C51.5533 14.3463 51.6046 14.5771 51.7071 14.7053C51.8097 14.8335 51.9892 14.8976 52.2584 14.8976C52.4379 14.8976 52.6046 14.8463 52.7456 14.7438V15.5258H52.7584Z" fill="white"/>
        <path d="M57.3982 9.0126C57.3982 9.16644 57.347 9.29465 57.2316 9.41003C57.1162 9.52542 56.9752 9.5767 56.8085 9.5767C56.6418 9.5767 56.5008 9.52542 56.3854 9.41003C56.27 9.30747 56.2188 9.16644 56.2188 8.99977C56.2188 8.83311 56.2829 8.69208 56.3982 8.58952C56.5136 8.48695 56.6546 8.42285 56.8085 8.42285C56.9623 8.42285 57.1034 8.47413 57.2187 8.58952C57.347 8.71772 57.3982 8.84593 57.3982 9.0126ZM57.27 15.5767H56.3341V10.7305H57.27V15.5767Z" fill="white"/>
        <path d="M61.3326 15.5258C61.2429 15.5771 61.1275 15.6156 60.9608 15.6412C60.807 15.6668 60.666 15.6797 60.5378 15.6797C59.6403 15.6797 59.1916 15.1797 59.1916 14.1925V11.5002H58.3711V10.7309H59.1916V9.5771L60.1275 9.28223V10.7181H61.3198V11.4874H60.1275V14.0258C60.1275 14.3463 60.1788 14.5771 60.2814 14.7053C60.3839 14.8335 60.5634 14.8976 60.8326 14.8976C61.0121 14.8976 61.1788 14.8463 61.3198 14.7438V15.5258H61.3326Z" fill="white"/>
        <path d="M67.4614 9.19236C67.3076 9.11543 67.1409 9.06415 66.9486 9.06415C66.423 9.06415 66.1666 9.38467 66.1666 10.0257V10.718H67.2691V11.4872H66.1666V15.5642H65.2307V11.5H64.4102V10.7308H65.2307V9.98723C65.2307 9.47441 65.3717 9.06415 65.6666 8.75646C65.9614 8.44877 66.3589 8.29492 66.8717 8.29492C67.1281 8.29492 67.3204 8.32056 67.4743 8.38467V9.19236H67.4614Z" fill="white"/>
        <path d="M70.9128 11.6663C70.8615 11.6278 70.7589 11.5893 70.6307 11.5509C70.5025 11.5252 70.3871 11.4996 70.2974 11.4996C69.964 11.4996 69.6948 11.6534 69.4897 11.9483C69.2846 12.2432 69.182 12.6278 69.182 13.1022V15.5765H68.2461V10.7304H69.182V11.7047H69.2076C69.3102 11.3714 69.4769 11.115 69.6948 10.9227C69.9128 10.7304 70.1692 10.6406 70.4512 10.6406C70.6435 10.6406 70.7974 10.6663 70.8999 10.7047V11.6663H70.9128Z" fill="white"/>
        <path d="M76.2557 13.1281C76.2557 13.9101 76.0249 14.5383 75.5762 14.9998C75.1275 15.4614 74.5249 15.6922 73.7813 15.6922C73.0506 15.6922 72.4608 15.4614 72.0249 15.0127C71.589 14.564 71.3711 13.9614 71.3711 13.205C71.3711 12.3973 71.6019 11.7691 72.0506 11.3075C72.4993 10.846 73.1147 10.6152 73.8967 10.6152C74.6275 10.6152 75.2044 10.8332 75.6147 11.2819C76.0506 11.7306 76.2557 12.346 76.2557 13.1281ZM75.2942 13.1537C75.2942 12.5768 75.166 12.1409 74.9224 11.846C74.666 11.5511 74.3198 11.3973 73.8583 11.3973C73.3967 11.3973 73.0249 11.5511 72.7557 11.8716C72.4865 12.1793 72.3583 12.6281 72.3583 13.1922C72.3583 13.7434 72.4865 14.1665 72.7557 14.4742C73.0249 14.7819 73.3839 14.9357 73.8583 14.9357C74.3326 14.9357 74.6916 14.7819 74.9352 14.487C75.166 14.1665 75.2942 13.7306 75.2942 13.1537Z" fill="white"/>
        <path d="M84.6305 15.5769H83.6946V12.8205C83.6946 12.3205 83.6177 11.9615 83.4638 11.7307C83.31 11.5 83.0408 11.3974 82.669 11.3974C82.3613 11.3974 82.092 11.5384 81.8869 11.8205C81.669 12.1025 81.5664 12.4487 81.5664 12.8333V15.5769H80.6305V12.7307C80.6305 11.8461 80.2844 11.3974 79.6049 11.3974C79.2844 11.3974 79.0151 11.5384 78.81 11.8077C78.6049 12.0769 78.5023 12.4231 78.5023 12.8461V15.5897H77.5664V10.7307H78.5023V11.4872H78.5151C78.8613 10.8974 79.3741 10.6154 80.0279 10.6154C80.3356 10.6154 80.6177 10.7051 80.8741 10.8718C81.1177 11.0384 81.2972 11.282 81.4126 11.5897C81.6049 11.2564 81.8228 11.0128 82.092 10.8461C82.3613 10.6923 82.669 10.6025 83.0279 10.6025C84.092 10.6025 84.6177 11.2564 84.6177 12.5769V15.5769H84.6305Z" fill="white"/>
    </g>
    <defs>
        <clipPath id="clip0_8688_344478">
            <rect width="110.769" height="40" fill="white"/>
        </clipPath>
    </defs>
</svg>
