<svg width="283" height="239" viewBox="0 0 283 239" fill="none" xmlns="http://www.w3.org/2000/svg">
<g clip-path="url(#clip0_3193_103504)">
<path d="M207.302 203.251L192.501 139.614L227.093 139.529L239.019 142.572L250.606 151.952L256.949 165.305V172.573L262.024 174.686L270.736 177.221L279.447 174.348L283 165.643L280.885 145.36L274.119 132.092L265.154 123.134L252.044 115.95L236.651 111.387L169.326 110.711H136.763L137.186 123.218L133.126 134.205L123.738 141.642L112.828 144.684L103.778 140.29L96.8422 130.486L93.6282 115.781L91.3446 110.542L62.165 110.711L50.324 113.668L41.1895 120.767L36.9605 135.98L28.7564 161.925L15.4776 203.251L11.1641 211.702L18.607 218.886L22.6668 221.252L24.7812 223.534L33.0699 218.801L41.8661 214.491L63.6028 205.449L83.1405 200.378L99.1258 197.504L117.226 196.321L159.177 194.631L178.968 197.842L207.302 203.251Z" fill="#BBBEFF"/>
<path d="M145.477 136.741C145.477 136.741 151.229 121.867 145.477 116.965L140.995 125.163L138.965 139.614L145.477 136.741Z" fill="#FFBD7B"/>
<path d="M267.778 230.887L278.012 197.505L271.077 176.715L255.599 172.574L253.738 195.307L254.922 206.21L259.151 214.914H262.619L260.082 224.971L267.778 230.887Z" fill="#FFBD7B"/>
<path d="M145.106 166.404H163.544C166.42 166.404 169.465 164.038 170.226 161.165L181.729 118.148C182.49 115.275 180.798 112.908 177.838 112.908H159.4C156.524 112.908 153.479 115.275 152.718 118.148L141.216 161.165C140.454 164.038 142.23 166.404 145.106 166.404Z" fill="#FF3880"/>
<path d="M131.945 94.8227C125.601 96.2594 111.477 98.7102 103.019 95.3298C97.0139 92.9634 93.4616 87.2166 91.4317 82.3994C88.8943 89.2449 87.8794 97.8651 88.9789 107.077C91.4317 127.444 103.357 142.741 115.537 141.304C127.8 139.868 135.666 122.12 133.214 101.753C132.875 99.3018 132.452 97.02 131.945 94.8227Z" fill="#FFBD7B"/>
<path d="M110.715 75.8917C126.69 75.8917 139.641 62.9513 139.641 46.9886C139.641 31.0258 126.69 18.0854 110.715 18.0854C94.7396 18.0854 81.7891 31.0258 81.7891 46.9886C81.7891 62.9513 94.7396 75.8917 110.715 75.8917Z" fill="#FFBD7B"/>
<path d="M170.766 147.558L166.368 155.502L164.254 164.207L158.587 173.841L116.467 177.982L104.203 161.334L141.079 133.867L166.453 134.121L171.105 137.417L168.652 143.924" fill="#FFBD7B"/>
<path d="M88.9786 55.6931L82.4661 56.4538L79.5058 49.1857C79.5058 49.1857 70.1176 48.4251 72.2321 59.3272C73.9236 67.8629 82.3815 68.708 82.3815 68.708L92.5309 123.725C92.5309 123.725 95.4066 141.811 112.069 141.811C112.069 141.811 137.442 142.572 134.482 108.513H216.354C270.653 108.513 280.042 141.05 280.042 157.023V163.53C280.042 175.447 265.579 175.109 253.991 172.235" stroke="black" stroke-width="4.8543" stroke-miterlimit="10" stroke-linejoin="round"/>
<path d="M178.379 109.189V102.006C178.379 81.0468 161.21 63.8064 140.15 63.8064L141.757 93.9772L106.995 96.8506C106.995 96.8506 89.6564 93.9772 86.0195 62.1161C86.0195 62.1161 106.995 70.4828 127.294 64.9896L122.98 57.0454C122.98 57.0454 118.413 48.5942 122.98 43.27C131.692 33.1285 141.841 42.5094 141.841 42.5094" stroke="black" stroke-width="4.8543" stroke-miterlimit="10" stroke-linejoin="round"/>
<path d="M95.2383 51.8904C95.2383 51.8904 106.233 55.4399 112.408 48.1719" stroke="black" stroke-width="4.8543" stroke-miterlimit="10" stroke-linejoin="round"/>
<path d="M30.1956 145.783C22.2452 171.644 9.30469 211.28 9.30469 211.28" stroke="black" stroke-width="4.8543" stroke-miterlimit="10" stroke-linecap="round" stroke-linejoin="round"/>
<path d="M241.473 216.013C247.224 211.787 251.453 205.618 253.229 198.434C253.822 196.068 254.16 193.532 254.16 190.997V168.601C254.16 151.445 240.12 137.501 223.035 137.501H189.711L202.736 193.194" stroke="black" stroke-width="4.8543" stroke-miterlimit="10" stroke-linejoin="round"/>
<path d="M23.9371 220.746C11.2503 216.773 2.03125 204.942 2.03125 190.997V168.602C2.03125 151.446 16.0713 137.501 33.1562 137.501L34.7632 130.571C41.2757 110.626 50.8331 109.021 59.291 108.598C63.7736 108.344 91.0079 108.598 91.0079 108.598" stroke="black" stroke-width="4.8543" stroke-miterlimit="10" stroke-linecap="round" stroke-linejoin="round"/>
<path d="M38.9922 206.209C46.9426 190.997 100.565 157.023 100.565 157.023L125.178 189.561L118.665 193.871" stroke="black" stroke-width="4.8543" stroke-miterlimit="10" stroke-linejoin="round"/>
<path d="M120.779 175.109H156.302C156.302 175.109 166.452 172.236 166.452 153.389C166.452 153.389 170.765 152.629 170.765 148.319C170.765 144.685 168.566 144.009 168.566 144.009C168.566 144.009 171.442 144.347 171.442 139.698C171.442 136.064 168.482 133.952 163.491 133.952H141.755L104.117 161.418" stroke="black" stroke-width="4.8543" stroke-miterlimit="10" stroke-linejoin="round"/>
<path d="M149.789 153.389H167.889" stroke="black" stroke-width="4.8543" stroke-miterlimit="10" stroke-linejoin="round"/>
<path d="M148.352 163.108H166.451" stroke="black" stroke-width="4.8543" stroke-miterlimit="10" stroke-linejoin="round"/>
<path d="M114.266 75.2155L125.853 73.7788L123.738 82.4835" stroke="black" stroke-width="4.8543" stroke-miterlimit="10" stroke-linejoin="round"/>
<path d="M78.0664 13.6909L86.0168 32.5371L101.241 28.227C101.241 28.227 99.6339 16.6488 112.067 16.6488C120.017 16.6488 120.017 26.0297 120.017 26.0297H134.48C134.48 26.0297 135.918 13.0148 126.53 6.50739C126.615 6.50739 107.077 -7.26807 78.0664 13.6909Z" fill="#BBBEFF" stroke="black" stroke-width="4.8543" stroke-miterlimit="10" stroke-linejoin="round"/>
<path d="M86.1005 32.5371C86.1005 32.5371 78.1501 37.6078 79.588 48.4254" stroke="black" stroke-width="4.8543" stroke-miterlimit="10" stroke-linecap="round" stroke-linejoin="round"/>
<path d="M78.0667 13.6909C78.0667 13.6909 66.1412 28.565 74.6836 50.4537" stroke="black" stroke-width="4.8543" stroke-miterlimit="10" stroke-linecap="round" stroke-linejoin="round"/>
<path d="M18.3539 139.952L18.0156 104.71C18.0156 83.7512 35.1851 66.5107 56.2452 66.5107H68.0016" stroke="black" stroke-width="4.8543" stroke-miterlimit="10" stroke-linecap="round" stroke-linejoin="round"/>
<path d="M137.102 137.332L143.952 115.697C143.952 115.697 150.465 117.133 146.828 130.148" stroke="black" stroke-width="4.8543" stroke-miterlimit="10" stroke-linejoin="round"/>
<path d="M2.03125 237.056C26.9819 211.026 78.5749 193.194 138.203 193.194C198.254 193.194 250.1 211.28 274.882 237.648" stroke="black" stroke-width="4.8543" stroke-miterlimit="10" stroke-linejoin="round"/>
<path d="M269.47 172.235L278.012 196.068L269.301 224.971" stroke="black" stroke-width="4.8543" stroke-miterlimit="10" stroke-linejoin="round"/>
<path d="M252.637 200.378L258.388 214.83H265.662C265.662 214.83 257.711 195.307 265.662 193.871" stroke="black" stroke-width="4.8543" stroke-miterlimit="10" stroke-linejoin="round"/>
<path d="M169.327 143.924H150.551" stroke="black" stroke-width="4.8543" stroke-miterlimit="10" stroke-linejoin="round"/>
</g>
<defs>
<clipPath id="clip0_3193_103504">
<rect width="283" height="239" fill="white"/>
</clipPath>
</defs>
</svg>
