<svg width="292" height="201" viewBox="0 0 292 201" fill="none" xmlns="http://www.w3.org/2000/svg">
<g clip-path="url(#clip0_3193_103425)">
<path d="M76.9992 146.4L68.6992 155.6L55.5992 156.8L43.4992 140.3L52.8992 130H40.9992L36.6992 124H59.7992L76.9992 146.4Z" fill="#D88D59"/>
<path d="M193.798 66.7C187.498 66.7 181.898 62.2 179.098 55.5C174.198 60.3 167.098 63.3 159.098 63.3C150.798 63.3 143.498 60.1 138.598 55C134.798 60.5 132.598 67.2 132.598 74.4C132.598 93.3 147.898 108.6 166.798 108.6C185.698 108.6 200.998 93.3 200.998 74.4C200.998 71.2 200.598 68.2 199.798 65.2C197.998 66.1 195.898 66.7 193.798 66.7Z" fill="#D88D59"/>
<path d="M195.078 138.194C204.883 132.533 205.175 114.684 195.731 98.3272C186.287 81.97 170.683 73.299 160.878 78.96C151.073 84.6209 150.781 102.47 160.225 118.827C169.669 135.184 185.273 143.855 195.078 138.194Z" fill="#D88D59"/>
<path d="M52.0977 197.8L59.6977 176.4C71.5977 156 85.9977 157.8 85.9977 157.8L101.798 178.8L114.398 137.1L122.298 124.5L132.598 117.2L160.198 117.1L163.798 119.9L172.198 133.5L183.098 141.5L194.498 140.7L201.898 131.8V117.3L221.998 117.6L234.798 122.7L243.498 134.4L263.798 197.4L215.598 198.6L196.798 186.6L177.998 184L157.998 187L142.498 196.8L141.198 198.5L59.9977 198.7" fill="#BBBEFF"/>
<path d="M42.8 180.5H24.8C22 180.5 19 178.2 18.3 175.4L7.10003 133.4C6.30003 130.6 8.00003 128.3 10.9 128.3H28.9C31.7 128.3 34.7 130.6 35.4 133.4L46.6 175.4C47.3 178.2 45.7 180.5 42.8 180.5Z" fill="#FF3880"/>
<path d="M195.898 95.6996C199.653 95.6996 202.698 92.6551 202.698 88.8996C202.698 85.1441 199.653 82.0996 195.898 82.0996C192.142 82.0996 189.098 85.1441 189.098 88.8996C189.098 92.6551 192.142 95.6996 195.898 95.6996Z" fill="white" stroke="black" stroke-width="4.8543" stroke-miterlimit="10"/>
<path d="M195.899 95.7998L200.999 116.3C200.999 116.3 204.599 133.6 195.899 138.6C189.899 142 175.399 147.2 161.699 116.3C161.699 116.3 145.599 116 140.299 116.3C129.899 116.9 117.999 118.9 110.299 145.4C102.599 171.9 100.899 176.2 100.899 176.2C100.899 176.2 92.2992 189.9 100.899 189.9C106.899 189.9 107.699 187.3 104.299 182.2C101.899 178.6 59.7992 124 59.7992 124H36.6992C36.6992 124 37.5992 130.8 43.4992 130.8H52.8992L43.4992 140.2L54.5992 156.5C54.5992 156.5 67.3992 160.8 72.5992 151.4" stroke="black" stroke-width="4.8543" stroke-miterlimit="10" stroke-linejoin="round"/>
<path d="M182.199 116.3C182.199 116.3 211.799 116 217.199 116.3C227.599 116.9 239.499 118.9 247.199 145.4C254.899 171.9 260.199 187.4 260.199 187.4" stroke="black" stroke-width="4.8543" stroke-miterlimit="10"/>
<path d="M125.801 197.7C131.801 175 152.501 158.2 177.101 158.2C201.701 158.2 222.401 174.9 228.401 197.6" stroke="black" stroke-width="4.8543" stroke-miterlimit="10"/>
<path d="M229.301 40.0996C229.301 40.0996 257.601 78.5996 282.401 139.4C307.201 200.2 250.701 197.6 250.701 197.6H214.501C204.901 188.1 191.701 182.2 177.101 182.2C162.401 182.2 149.201 188.1 139.601 197.7H3.30078C3.30078 197.7 9.30078 164.2 29.8008 159.9" stroke="black" stroke-width="4.8543" stroke-miterlimit="10"/>
<path d="M157.101 106.8C158.201 107.1 159.301 107.3 160.401 107.4C177.501 109.1 186.901 99.6998 190.401 82.5998C190.401 82.5998 204.401 82.9998 203.701 72.7998C202.801 59.9998 191.701 66.7998 191.701 66.7998C175.401 65.0998 174.601 45.3998 180.601 46.2998C187.101 47.1998 184.901 59.0998 161.801 61.6998C138.701 64.2998 127.601 46.2998 125.801 38.5998C124.001 30.8998 124.401 3.49979 156.601 2.59979C187.401 1.69979 194.901 34.3998 185.701 32.5998C177.101 30.8998 190.701 8.09979 210.501 18.8998C231.001 29.9998 213.101 54.8998 210.501 47.9998C208.001 41.3998 237.001 51.3998 228.501 75.3998C220.801 96.7998 202.801 89.0998 202.801 89.0998" stroke="black" stroke-width="4.8543" stroke-miterlimit="10" stroke-linejoin="round"/>
<path d="M96.5995 114.6H76.5995H40.3995C40.3995 114.6 -16.1005 117.2 8.69954 56.3996C11.2995 49.9996 13.9995 44.5996 16.6995 38.6996L153.7 38.0996C146.1 41.4996 136 48.9996 134.7 64.4996C134.7 64.8996 134.6 65.2996 134.6 65.5996" stroke="black" stroke-width="4.8543" stroke-miterlimit="10" stroke-linejoin="round"/>
<path d="M125.2 53.1997C120.5 57.4997 115.3 64.8997 118.9 75.2997C124.5 91.1997 137.7 90.6997 137.7 90.6997C137.7 90.6997 142 99.2997 148.8 102.7C148.8 102.7 132.7 102.4 127.4 102.7C117 103.3 105.1 105.3 97.4 131.8C89.7 158.3 88 162.6 88 162.6" stroke="black" stroke-width="4.8543" stroke-miterlimit="10" stroke-linejoin="round"/>
<path d="M128.301 69.1997C128.301 69.1997 141.101 60.5997 148.001 70.0997C154.801 79.4997 148.001 88.0997 148.001 88.0997L160.801 90.6997" stroke="black" stroke-width="4.8543" stroke-miterlimit="10" stroke-linejoin="round"/>
<path d="M148.199 72.1999C149.599 70.1999 151.599 68.8999 153.799 68.8999C155.999 68.8999 157.899 70.0999 159.299 72.0999" stroke="black" stroke-width="4.8543" stroke-miterlimit="10" stroke-linecap="round" stroke-linejoin="round"/>
<path d="M139.999 82.1999C144.307 82.1999 147.799 78.4391 147.799 73.7999C147.799 69.1607 144.307 65.3999 139.999 65.3999C135.691 65.3999 132.199 69.1607 132.199 73.7999C132.199 78.4391 135.691 82.1999 139.999 82.1999Z" fill="#D88D59" stroke="black" stroke-width="4.8543" stroke-miterlimit="10" stroke-linecap="round" stroke-linejoin="round"/>
<path d="M167.601 82.1999C171.909 82.1999 175.401 78.4391 175.401 73.7999C175.401 69.1607 171.909 65.3999 167.601 65.3999C163.293 65.3999 159.801 69.1607 159.801 73.7999C159.801 78.4391 163.293 82.1999 167.601 82.1999Z" fill="#D88D59" stroke="black" stroke-width="4.8543" stroke-miterlimit="10" stroke-linecap="round" stroke-linejoin="round"/>
<path d="M77.8008 159.1C57.3008 163.4 51.3008 196.9 51.3008 196.9" stroke="black" stroke-width="4.8543" stroke-miterlimit="10"/>
<path d="M204.5 173.7L216.5 190.8C216.5 190.8 229.3 190.8 232.8 186.5C232.8 186.5 228.5 163.4 212.3 160.8L204.5 173.7Z" fill="#D88D59" stroke="black" stroke-width="4.8543" stroke-miterlimit="10" stroke-linejoin="round"/>
</g>
<defs>
<clipPath id="clip0_3193_103425">
<rect width="291.1" height="200.2" fill="white"/>
</clipPath>
</defs>
</svg>
