<svg width="328" height="206" viewBox="0 0 328 206" fill="none" xmlns="http://www.w3.org/2000/svg">
    <rect y="18" width="328" height="159" rx="8" fill="#F7EFF6"/>
    <path d="M132.187 56.0924C130.074 53.4096 131.553 50.4444 129.158 48.6088C129.722 47.5498 126.41 46.985 126.763 45.8554L122.536 38.9366L127.467 33.5004C126.833 30.2528 125.495 27.1464 123.592 24.5342C121.268 27.0758 118.309 28.6996 114.927 28.6996C111.827 28.6996 109.009 27.3582 106.825 25.099C102.598 29.335 98.3712 31.7354 90.8331 33.5004C87.2401 34.3476 83.7176 32.512 80.8291 30.8176C80.0542 33.1474 79.6315 35.689 79.6315 38.3012C79.6315 51.4328 90.1286 62.164 103.162 62.4464C104.359 66.1882 106.332 70.0712 109.15 73.7424C117.252 84.3324 129.017 88.9213 135.358 84.05C141.769 79.1786 140.289 66.6824 132.187 56.0924Z" fill="#FFD0B0"/>
    <path d="M224.97 119.351L211.444 112.291L190.802 109.608L168.962 112.079L146.629 116.315L132.751 119.281L113.518 127.4L105.627 138.625L112.884 148.297L148.813 173.854L153.04 177.314H181.291L164.665 153.945L147.404 150.909L164.101 153.169L164.665 153.945L174.034 155.569L197.776 154.228L210.95 150.909L223.843 141.802L227.506 132.624L224.97 119.351Z" fill="#BBBEFF"/>
    <path d="M222.645 197.294L241.314 196.093L255.193 184.586L244.414 179.22L231.169 164.888L223.561 148.156L221.659 143.143L226.097 135.095V123.94L221.659 115.256L206.512 110.879L197.706 109.608L188.265 112.715L180.023 119.563L175.021 132.624L178.12 149.992L185.095 165.524L195.803 179.22L210.95 190.375L222.645 197.294Z" fill="#BBBEFF"/>
    <path d="M111.475 73.2486C126.904 91.3928 135.71 84.9682 139.092 81.4382C143.953 76.355 138.105 65.3414 138.105 65.3414L122.536 38.3017C122.536 38.3017 129.792 35.7601 127.115 28.9825C123.804 20.5105 117.816 27.4999 117.816 27.4999C106.544 29.8297 101.753 16.7687 105.91 16.0627C110.418 15.2861 111.546 23.7581 96.6102 30.4651C81.6747 37.1721 77.0955 28.5589 74.2775 23.7581C74.2775 23.7581 76.6728 1.37788 99.0055 2.01328C105.416 2.15448 113.448 3.21348 123.099 10.4853C132.751 17.7571 157.479 20.1575 162.904 4.41368C162.904 4.41368 191.859 14.7213 185.237 41.9023" stroke="black" stroke-width="2.8" stroke-miterlimit="10" stroke-linejoin="round"/>
    <path d="M86.1833 16.4863C81.8154 20.4399 76.6725 27.5705 79.1383 38.3017C83.4357 57.2225 96.3986 63.5765 105.557 61.5291C110.982 60.3289 114.786 57.9991 117.252 54.6103" stroke="black" stroke-width="2.8" stroke-miterlimit="10" stroke-linejoin="round"/>
    <path d="M75.3336 38.2304C75.3336 38.2304 84.4217 32.2294 89.2123 38.9364C94.0029 45.6434 89.1419 51.6443 89.1419 51.6443L98.1595 53.5506" stroke="black" stroke-width="2.8" stroke-miterlimit="10" stroke-linejoin="round"/>
    <path d="M98.9349 39.714C98.9349 39.714 106.896 42.3262 111.334 37.0312" stroke="black" stroke-width="2.8" stroke-miterlimit="10"/>
    <path d="M129.228 103.606H116.547C114.575 103.606 112.461 101.982 111.968 100.006L104.078 70.3535C103.514 68.3767 104.712 66.7529 106.755 66.7529H119.436C121.408 66.7529 123.522 68.3767 124.015 70.3535L131.905 100.006C132.469 101.982 131.271 103.606 129.228 103.606Z" fill="#FF3880"/>
    <path d="M74.2771 23.8291C74.2771 23.8291 57.2986 56.4463 91.1147 71.5547C91.1147 71.5547 87.6626 118.715 133.455 118.715" stroke="black" stroke-width="2.8" stroke-miterlimit="10" stroke-linejoin="round"/>
    <path d="M191.295 191.221C191.295 191.221 153.886 131.988 139.443 139.259C125.001 146.531 160.578 159.239 188.336 155.568C188.336 155.568 225.111 156.203 228.14 133.188C231.169 110.243 205.807 109.043 182.277 110.243C145.502 112.078 108.656 122.951 103.866 141.095L155.154 178.584C155.154 178.584 129.792 180.984 131.623 203.999L191.295 191.221Z" stroke="black" stroke-width="2.8" stroke-miterlimit="10" stroke-linejoin="round"/>
    <path d="M95.3417 171.312C95.3417 185.574 107.036 197.293 121.267 197.293H131.553" stroke="black" stroke-width="2.8" stroke-miterlimit="10" stroke-linejoin="round"/>
    <path d="M244.766 129.446C253.15 133.753 258.856 142.507 258.856 152.532V171.241C258.856 185.503 247.161 197.222 232.931 197.222H221.447H162.058" stroke="black" stroke-width="2.8" stroke-miterlimit="10" stroke-linejoin="round"/>
    <path d="M227.647 124.434C227.647 124.434 206.935 73.3193 165.933 73.3193" stroke="black" stroke-width="2.8" stroke-miterlimit="10" stroke-linejoin="round"/>
    <path d="M155.083 57.0807C153.886 67.3883 165.933 73.3893 165.933 73.3893C165.933 73.3893 172.555 72.1891 193.69 69.1533C214.825 66.1175 219.616 107.207 219.616 107.207L238.285 104.806L231.663 73.3893C217.221 35.9007 153.252 54.6803 153.252 54.6803C153.252 54.6803 109.22 64.5643 105.627 65.5527C99.005 67.3883 87.0285 68.5885 81.6038 87.2975C76.1792 106.006 72.4453 116.949 72.4453 116.949L67.0206 136.011C66.5979 155.497 72.7271 158.25 79.7017 160.439C102.739 167.711 124.367 103.606 124.367 103.606L106.825 96.0519L103.232 94.4987C103.232 94.4987 88.3671 122.597 86.7467 125.139C83.9287 129.516 84.4923 132.764 87.5217 133.752C91.1146 134.952 95.3416 118.644 99.5686 102.9" stroke="black" stroke-width="2.8" stroke-miterlimit="10" stroke-linecap="round" stroke-linejoin="round"/>
    <path d="M107.459 95.1348L106.191 79.391C106.191 79.391 120.633 79.744 126.128 78.332C126.128 78.332 128.524 79.9558 127.96 82.9916C127.96 82.9916 130.989 86.5922 129.158 88.4278C129.158 88.4278 130.708 92.0284 130.355 93.864C130.355 93.9346 120.704 106.007 107.459 95.1348Z" fill="#FFD0B0" stroke="black" stroke-width="2.8" stroke-miterlimit="10" stroke-linecap="round" stroke-linejoin="round"/>
    <path d="M218.277 107.207L220.25 126.551L237.158 128.387C237.158 128.387 249.205 117.515 238.356 104.807L218.277 107.207Z" stroke="black" stroke-width="2.8" stroke-miterlimit="10" stroke-linecap="round" stroke-linejoin="round"/>
    <path d="M227.506 119.914C229.841 119.914 231.733 118.018 231.733 115.678C231.733 113.339 229.841 111.442 227.506 111.442C225.172 111.442 223.279 113.339 223.279 115.678C223.279 118.018 225.172 119.914 227.506 119.914Z" stroke="black" stroke-width="2.8" stroke-miterlimit="10" stroke-linecap="round" stroke-linejoin="round"/>
    <path d="M200.383 110.172C200.383 110.172 175.021 111.443 175.373 136.294C175.584 150.273 184.039 178.018 221.448 197.363" stroke="black" stroke-width="2.8" stroke-miterlimit="10" stroke-linecap="round" stroke-linejoin="round"/>
    <path d="M223.279 143.849C223.279 143.849 229.338 173.148 261.252 188.256" stroke="black" stroke-width="2.8" stroke-miterlimit="10" stroke-linecap="round" stroke-linejoin="round"/>
</svg>
