<svg width="520" height="390" viewBox="0 0 520 390" fill="none" xmlns="http://www.w3.org/2000/svg">
    <rect width="520" height="320" rx="24" fill="#9294E1"/>
    <g clip-path="url(#clip0_5683_196010)">
        <path d="M90.501 298.5C90.301 298.5 90.101 298.4 90.001 298.3C89.501 298 78.001 290.3 79.201 274.9C80.401 259.5 88.101 255.2 88.401 255.1C88.901 254.8 89.501 255 89.801 255.5C90.101 256 89.901 256.6 89.401 256.9C89.301 256.9 82.401 261 81.301 275.1C80.201 289.3 91.101 296.6 91.201 296.7C91.701 297 91.801 297.6 91.501 298.1C91.201 298.3 90.801 298.5 90.501 298.5Z" fill="white"/>
        <path d="M132 298.5C131.7 298.5 131.4 298.3 131.2 298C130.9 297.5 131 296.9 131.5 296.6C131.6 296.5 142.5 289.2 141.4 275C140.3 260.8 133.3 256.8 133.3 256.8C132.8 256.5 132.6 255.9 132.9 255.4C133.2 254.9 133.8 254.7 134.2 255C134.5 255.2 142.2 259.5 143.4 274.8C144.6 290.2 133.1 297.9 132.6 298.2C132.4 298.4 132.2 298.5 132 298.5Z" fill="white"/>
        <path d="M169.802 298.5C169.602 298.5 169.402 298.4 169.302 298.3C168.802 298 157.302 290.3 158.502 274.9C159.702 259.5 167.402 255.2 167.702 255.1C168.202 254.8 168.802 255 169.102 255.5C169.402 256 169.202 256.6 168.702 256.9C168.602 256.9 161.702 261 160.602 275.1C159.502 289.3 170.402 296.6 170.502 296.7C171.002 297 171.102 297.6 170.802 298.1C170.402 298.3 170.102 298.5 169.802 298.5Z" fill="white"/>
        <path d="M208.902 298.5C208.602 298.5 208.302 298.3 208.102 298C207.802 297.5 207.902 296.9 208.402 296.6C208.502 296.5 219.402 289.2 218.302 275C217.202 260.8 210.202 256.8 210.202 256.8C209.702 256.5 209.502 255.9 209.802 255.4C210.102 254.9 210.702 254.7 211.102 255C211.402 255.2 219.102 259.5 220.302 274.8C221.502 290.2 210.002 297.9 209.502 298.2C209.302 298.4 209.102 298.5 208.902 298.5Z" fill="white"/>
        <path d="M104.6 282.9H102L98.7 276.4L95.4 282.9H93L97.4 274.4L93.3 266.2H95.8L98.8 272.4L101.8 266.2H104.2L100.1 274.4L104.6 282.9Z" fill="white"/>
        <path d="M111.201 278.3V272.2H106.801V269.6H111.201V263.5H113.301V269.6H117.701V272.2H113.301V278.3H111.201Z" fill="white"/>
        <path d="M129.601 266.2H131.801L126.401 284.2C125.201 288.1 124.101 289 122.701 289C122.201 289 121.801 288.8 121.501 288.7V286.1C121.801 286.2 122.001 286.3 122.301 286.3C123.201 286.3 123.801 285.8 124.301 284.1L124.801 282.4L119.801 266.1H122.101L125.901 278.9L129.601 266.2Z" fill="white"/>
        <path d="M147 275.3V272.6H155V275.3H147Z" fill="white"/>
        <path d="M181.5 282.9H179L175.7 276.4L172.4 282.9H170L174.4 274.4L170.3 266.2H172.8L175.8 272.4L178.8 266.2H181.2L177.1 274.4L181.5 282.9Z" fill="white"/>
        <path d="M183 275.3V272.6H191V275.3H183Z" fill="white"/>
        <path d="M202.198 266.2H204.398L198.998 284.2C197.798 288.1 196.698 289 195.298 289C194.798 289 194.398 288.8 194.098 288.7V286.1C194.398 286.2 194.598 286.3 194.898 286.3C195.798 286.3 196.398 285.8 196.898 284.1L197.398 282.4L192.398 266.1H194.698L198.498 278.9L202.198 266.2Z" fill="white"/>
        <path d="M143.699 254.9H148.199V256.5H141.899V255.1L145.499 250.2C146.299 249.1 146.899 248.3 146.899 247C146.899 245.7 146.199 244.8 144.999 244.8C143.799 244.8 143.099 245.8 142.999 247.2H141.699C141.699 245 143.099 243.2 144.999 243.2C146.899 243.2 148.199 244.9 148.199 246.9C148.199 248.6 147.399 249.9 146.399 251.2L143.699 254.9Z" fill="white"/>
        <path d="M254.501 187.1H43.3008C42.7008 187.1 42.3008 186.7 42.3008 186.1C42.3008 185.5 42.7008 185.1 43.3008 185.1H254.501C255.101 185.1 255.501 185.5 255.501 186.1C255.501 186.7 255.001 187.1 254.501 187.1Z" fill="white"/>
        <path d="M113.202 232.7C94.0016 232.7 91.7016 207.8 89.6016 185.8C88.2016 170.9 86.9016 156.8 80.2016 156.1C78.7016 156 77.6016 156.3 76.6016 157.2C72.6016 160.8 72.3016 172.4 72.0016 183.7C71.6016 200.1 71.2016 217.1 60.1016 217.1C59.5016 217.1 59.1016 216.7 59.1016 216.1C59.1016 215.5 59.5016 215.1 60.1016 215.1C69.3016 215.1 69.6016 199.1 70.0016 183.7C70.3016 171.4 70.6016 159.9 75.3016 155.7C76.7016 154.5 78.4016 153.9 80.5016 154.1C88.9016 155 90.2016 169.2 91.7016 185.6C93.7016 206.7 95.9016 230.6 113.302 230.6C128.002 230.6 128.702 203.2 129.502 176.8C130.302 147.8 131.102 117.8 149.702 117.8C171.402 117.8 172.202 153.8 172.802 182.7C173.102 197.4 173.402 211.3 176.802 214C177.302 214.4 177.802 214.5 178.402 214.4C185.802 212.9 188.802 197.3 191.402 183.6C193.902 170.5 196.002 159.1 201.902 159.1C202.002 159.1 202.102 159.1 202.202 159.1C213.902 159.7 214.502 197.7 214.502 202C214.502 202.6 214.102 203 213.502 203C213.002 203 212.502 202.6 212.502 202C212.502 201.9 212.402 191.6 211.002 181.4C209.202 168.5 206.002 161.3 202.102 161.1H202.002C197.802 161.1 195.602 172.7 193.402 183.9C190.602 199 187.602 214.6 178.902 216.3C177.702 216.5 176.602 216.3 175.602 215.5C171.502 212.2 171.202 199.2 170.802 182.7C170.202 154.6 169.402 119.7 149.702 119.7C133.102 119.7 132.302 148.7 131.502 176.7C130.502 205.6 129.802 232.7 113.202 232.7Z" fill="white"/>
        <path d="M148.898 256.5C148.298 256.5 147.898 256.1 147.898 255.5V81.8003C147.898 81.2003 148.298 80.8003 148.898 80.8003C149.498 80.8003 149.898 81.2003 149.898 81.8003V255.5C149.898 256.1 149.398 256.5 148.898 256.5Z" fill="white"/>
        <path d="M40.1 192.6H37.4L34 185.7L30.6 192.6H28L32.6 183.6L28.3 175H30.9L34.1 181.5L37.3 175H39.8L35.5 183.6L40.1 192.6Z" fill="white"/>
        <path d="M150.598 55.3002H152.998L147.298 74.2002C146.098 78.3002 144.898 79.3002 143.398 79.3002C142.898 79.3002 142.498 79.1002 142.198 79.0002V76.3002C142.498 76.4002 142.798 76.5002 143.098 76.5002C143.998 76.5002 144.698 75.9002 145.198 74.2002L145.698 72.4002L140.398 55.2002H142.898L146.898 68.6002L150.598 55.3002Z" fill="white"/>
        <path d="M394.301 24.8999V111.4" stroke="white" stroke-width="2" stroke-miterlimit="10" stroke-linecap="round" stroke-linejoin="round"/>
        <path d="M471.5 102.7H385" stroke="white" stroke-width="2" stroke-miterlimit="10" stroke-linecap="round" stroke-linejoin="round"/>
        <path d="M393.801 86.6999L403.801 86.3999L404.501 102.2" stroke="white" stroke-width="2" stroke-miterlimit="10" stroke-linecap="round" stroke-linejoin="round"/>
        <path d="M414.097 67.1152C410.662 67.1152 408.029 69.748 408.029 73.133C408.029 76.6183 410.637 79.2009 413.972 79.2009C414.473 79.2009 414.9 79.1257 415.226 79.0254L411.189 84.9429H413.671L418.485 77.7717C419.162 76.7938 420.165 75.2141 420.165 73.133C420.165 69.748 417.532 67.1152 414.097 67.1152ZM414.097 77.0947C411.991 77.0947 410.336 75.5401 410.336 73.1831C410.336 70.8262 411.991 69.2465 414.097 69.2465C416.229 69.2465 417.858 70.8262 417.858 73.1831C417.858 75.5401 416.229 77.0947 414.097 77.0947ZM428.705 85.2187C432.24 85.2187 435.274 82.1596 435.274 76.1669C435.274 70.1742 432.24 67.1152 428.705 67.1152C425.194 67.1152 422.16 70.1742 422.16 76.1669C422.16 82.1596 425.194 85.2187 428.705 85.2187ZM428.705 83.0372C426.473 83.0372 424.467 81.0062 424.467 76.1669C424.467 71.3276 426.473 69.2966 428.705 69.2966C430.961 69.2966 432.967 71.3276 432.967 76.1669C432.967 81.0062 430.961 83.0372 428.705 83.0372ZM440.802 74.5622C442.808 74.5622 444.488 73.0327 444.488 70.8512C444.488 68.6447 442.808 67.1152 440.802 67.1152C438.796 67.1152 437.116 68.6447 437.116 70.8512C437.116 73.0327 438.796 74.5622 440.802 74.5622ZM440.802 72.9825C439.774 72.9825 438.821 72.2052 438.821 70.8512C438.821 69.4972 439.774 68.6949 440.802 68.6949C441.83 68.6949 442.783 69.4972 442.783 70.8512C442.783 72.2052 441.83 72.9825 440.802 72.9825Z" fill="white"/>
        <path d="M423.203 267.6V265.4H432.603V267.6H423.203ZM423.203 273.7V271.5H432.603V273.7H423.203Z" fill="white"/>
        <path d="M435.004 269.8C435.004 263.9 438.304 259.4 442.204 259.4C445.504 259.4 448.004 262.7 448.704 266.6H446.604C446.004 264.1 444.504 261.9 442.104 261.9C439.304 261.9 436.904 265.1 436.904 269.8C436.904 274.5 439.304 277.7 442.104 277.7C444.504 277.7 446.104 275.5 446.704 273H448.804C448.104 276.9 445.604 280.2 442.204 280.2C438.404 280.2 435.004 275.7 435.004 269.8Z" fill="white"/>
        <path d="M413.601 258.5H411.301L407.401 250.4L403.501 258.5H401.301L406.301 248.3L401.501 238.4H403.801L407.501 246.3L411.101 238.4H413.301L408.501 248.3L413.601 258.5Z" fill="white"/>
        <path d="M413.601 294.5H411.301L407.401 286.4L403.501 294.5H401.301L406.301 284.3L401.501 274.4H403.801L407.501 282.3L411.101 274.4H413.301L408.501 284.3L413.601 294.5Z" fill="white"/>
        <path d="M386.601 312.5C386.201 312.5 385.801 312.2 385.601 311.8L376.001 275.3L375.001 278.8C374.801 279.3 374.301 279.6 373.801 279.5C373.301 279.3 373.001 278.8 373.101 278.3L375.101 271.3C375.201 270.9 375.601 270.6 376.101 270.6C376.601 270.6 376.901 270.9 377.101 271.3L385.801 304.3L387.201 229C387.201 228.5 387.701 228 388.201 228H438.201C438.801 228 439.201 228.4 439.201 229C439.201 229.6 438.801 230 438.201 230H389.201L387.701 311.5C387.701 312 387.301 312.4 386.801 312.5C386.701 312.5 386.701 312.5 386.601 312.5Z" fill="white"/>
        <path d="M418.302 272.9H395.602C395.002 272.9 394.602 272.5 394.602 271.9C394.602 271.3 395.002 270.9 395.602 270.9H418.302C418.902 270.9 419.302 271.3 419.302 271.9C419.302 272.5 418.902 272.9 418.302 272.9Z" fill="white"/>
        <path d="M92.7998 125C92.7998 125 91.0998 117 96.7998 117C102.5 117 121.1 120.7 128.5 116.3" stroke="white" stroke-width="2" stroke-miterlimit="10" stroke-linecap="round" stroke-linejoin="round"/>
        <path d="M104.801 122.6C104.801 122.6 105.301 149.1 100.801 149.6C96.3008 150.1 95.3008 146.1 95.3008 146.1" stroke="white" stroke-width="2" stroke-miterlimit="10" stroke-linecap="round" stroke-linejoin="round"/>
        <path d="M115 123.1C115 123.1 115.2 147.1 119 148.6" stroke="white" stroke-width="2" stroke-miterlimit="10" stroke-linecap="round" stroke-linejoin="round"/>
        <path d="M216.802 102.1V111.3H215.402L215.002 109.5H214.902C214.502 110.3 213.402 111.6 211.602 111.6C209.402 111.6 207.902 109.6 207.902 107.3C207.902 104.5 209.902 102.7 212.802 102.7H214.902V102C214.902 99.9998 214.002 98.7998 212.602 98.7998C211.202 98.7998 210.502 99.8998 210.302 101.2H208.402C208.602 98.7998 210.102 96.5998 212.602 96.5998C215.102 96.4998 216.802 98.7998 216.802 102.1ZM214.902 105.7V104.6H213.002C210.902 104.6 209.802 105.6 209.802 107.1C209.802 108.4 210.502 109.4 211.902 109.4C213.702 109.4 214.902 107.8 214.902 105.7Z" fill="white"/>
        <path d="M221.201 147.9C217.401 147.9 204.901 145.8 197.501 139L197.101 138.7C182.001 124.6 178.701 101.8 189.201 84.4002C193.701 77.0002 199.901 71.4002 207.201 68.1002C219.201 62.7002 233.801 63.7002 245.301 70.7002C257.501 78.1002 266.101 92.2002 266.701 105.9C267.201 117.8 262.001 129.5 252.801 137.2C244.701 144 233.801 147.7 221.301 148C221.301 147.9 221.301 147.9 221.201 147.9ZM198.501 137.2L198.801 137.5C205.501 143.7 217.501 146 221.301 145.9C229.701 145.7 241.801 143.8 251.501 135.6C260.201 128.3 265.101 117.2 264.601 106C264.001 93.0002 255.801 79.5002 244.201 72.4002C233.201 65.7002 219.301 64.8002 207.901 69.9002C201.001 73.0002 195.101 78.4002 190.801 85.4002C180.901 102 184.101 123.8 198.501 137.2Z" fill="white"/>
        <path d="M259.501 159.5C256.401 159.5 246.401 157.8 240.401 152.3L240.101 152C227.801 140.6 225.301 122.1 234.001 108.1C237.601 102.3 242.501 97.9001 248.201 95.3001C257.801 91.0001 269.601 91.8001 278.901 97.4001C288.701 103.3 295.601 114.7 296.101 125.7C296.501 135.2 292.401 144.6 285.001 150.8C278.501 156.2 269.801 159.2 259.701 159.5C259.601 159.5 259.501 159.5 259.501 159.5ZM241.501 150.6L241.801 150.8C247.101 155.7 256.601 157.5 259.701 157.4C266.401 157.2 276.001 155.7 283.701 149.2C290.601 143.4 294.501 134.6 294.101 125.7C293.601 115.3 287.101 104.6 277.901 99.0001C269.101 93.7001 258.101 93.0001 249.101 97.0001C243.701 99.4001 239.101 103.6 235.701 109C227.501 122.4 229.901 139.9 241.501 150.6Z" fill="white"/>
        <path d="M265.101 103.4C259.401 103.4 253.701 101.9 249.201 99C242.201 94.6 237.601 87 236.901 78.7C236.201 71.4 238.401 63.7 243.201 56.5C244.601 54.4 250.801 47.9 257.801 46.4C268.601 44 276.201 46.7 276.501 46.9H276.601C289.201 53.5 296.701 67.4 294.401 80.1C292.701 89.1 286.401 97 277.801 100.8C273.801 102.6 269.401 103.4 265.101 103.4ZM266.501 47.4C264.101 47.4 261.301 47.6 258.201 48.3C252.201 49.7 246.301 55.4 244.801 57.6C241.601 62.4 238.001 69.9 238.801 78.5C239.501 86.2 243.801 93.2 250.201 97.3C257.701 102 268.401 102.7 276.801 98.9C284.801 95.3 290.701 88 292.201 79.6C294.401 67.8 287.401 54.8 275.501 48.6C275.201 48.6 271.701 47.4 266.501 47.4Z" fill="white"/>
        <path d="M271.302 135.7H271.202L270.802 137.5H269.402V117.4H271.302V124.8H271.402C271.702 124.2 273.002 122.7 274.702 122.7C277.502 122.7 279.802 125.8 279.802 130.2C279.802 134.6 277.502 137.8 274.702 137.8C272.902 137.8 271.702 136.3 271.302 135.7ZM277.902 130.3C277.902 127.2 276.402 125.1 274.602 125.1C272.802 125.1 271.302 127.2 271.302 130.3C271.302 133.4 272.802 135.5 274.602 135.5C276.402 135.5 277.902 133.4 277.902 130.3Z" fill="white"/>
        <path d="M267.102 71.6001C267.102 67.3001 269.502 64.1001 272.402 64.1001C275.002 64.1001 276.902 66.8001 277.302 69.7001H275.402C275.002 68.0001 274.002 66.5001 272.402 66.5001C270.502 66.5001 269.002 68.6001 269.002 71.7001C269.002 74.8001 270.602 76.9001 272.402 76.9001C274.102 76.9001 275.102 75.4001 275.402 73.7001H277.302C276.902 76.5001 275.002 79.3001 272.402 79.3001C269.502 79.2001 267.102 75.9001 267.102 71.6001Z" fill="white"/>
        <path d="M311.5 173L348 65.5L343.5 186.5L311.5 173Z" stroke="white" stroke-width="2" stroke-miterlimit="10" stroke-linecap="round" stroke-linejoin="round"/>
        <path d="M348 65.5L387 176L343.5 186.5" stroke="white" stroke-width="2" stroke-miterlimit="10" stroke-linecap="round" stroke-linejoin="round"/>
        <path d="M311.5 173L312.9 172.8" stroke="white" stroke-width="2" stroke-linecap="round" stroke-linejoin="round"/>
        <path d="M317.102 172L358.402 164.7" stroke="white" stroke-width="2" stroke-linecap="round" stroke-linejoin="round" stroke-dasharray="3.15 3.15"/>
        <path d="M360.5 164.3L362 164L361.7 162.5" stroke="white" stroke-width="2" stroke-linecap="round" stroke-linejoin="round"/>
        <path d="M361.2 158.5L348.5 69" stroke="white" stroke-width="2" stroke-linecap="round" stroke-linejoin="round" stroke-dasharray="3.05 3.05"/>
        <path d="M348.2 67L348 65.5" stroke="white" stroke-width="2" stroke-linecap="round" stroke-linejoin="round"/>
        <path d="M387.002 176L385.602 175.4" stroke="white" stroke-width="2" stroke-linecap="round" stroke-linejoin="round"/>
        <path d="M382.002 173.7L365.102 165.5" stroke="white" stroke-width="2" stroke-linecap="round" stroke-linejoin="round" stroke-dasharray="2.97 2.97"/>
        <path d="M363.3 164.7L362 164" stroke="white" stroke-width="2" stroke-linecap="round" stroke-linejoin="round"/>
        <path d="M389.698 213.1L388.398 208.3H381.798L380.498 213.1H378.398L384.198 193H386.098L391.898 213.1H389.698ZM384.998 196.5L382.398 205.8H387.598L384.998 196.5Z" fill="white"/>
        <path d="M393.398 200.8V198.6H402.798V200.8H393.398ZM393.398 206.9V204.7H402.798V206.9H393.398Z" fill="white"/>
        <path d="M478.098 205.7H406.398C405.798 205.7 405.398 205.3 405.398 204.7C405.398 204.1 405.798 203.7 406.398 203.7H478.098C478.698 203.7 479.098 204.1 479.098 204.7C479.098 205.3 478.698 205.7 478.098 205.7Z" fill="white"/>
        <path d="M423.9 190.7V199.9H422.5L422.1 198.1H422C421.6 198.9 420.5 200.2 418.7 200.2C416.5 200.2 415 198.2 415 195.9C415 193.1 417 191.3 419.9 191.3H422V190.6C422 188.6 421.1 187.4 419.7 187.4C418.3 187.4 417.6 188.5 417.4 189.8H415.5C415.7 187.4 417.2 185.2 419.7 185.2C422.2 185.1 423.9 187.4 423.9 190.7ZM422 194.3V193.2H420.1C418 193.2 416.9 194.1 416.9 195.7C416.9 197 417.6 198 419 198C420.9 198 422 196.4 422 194.3Z" fill="white"/>
        <path d="M428.798 198.1H428.698L428.298 199.9H426.898V179.8H428.798V187.2H428.898C429.198 186.6 430.498 185.1 432.198 185.1C434.998 185.1 437.298 188.2 437.298 192.6C437.298 197 434.998 200.2 432.198 200.2C430.398 200.2 429.098 198.6 428.798 198.1ZM435.398 192.6C435.398 189.5 433.898 187.4 432.098 187.4C430.298 187.4 428.798 189.5 428.798 192.6C428.798 195.7 430.298 197.8 432.098 197.8C433.898 197.9 435.398 195.8 435.398 192.6Z" fill="white"/>
        <path d="M444.3 195.9V190.6H440.5V188.4H444.3V183.1H446.1V188.4H449.9V190.6H446.1V195.9H444.3Z" fill="white"/>
        <path d="M453.199 192.6C453.199 188.3 455.599 185.1 458.499 185.1C461.099 185.1 462.999 187.8 463.399 190.7H461.499C461.099 189 460.099 187.5 458.499 187.5C456.599 187.5 455.099 189.6 455.099 192.7C455.099 195.8 456.699 197.9 458.499 197.9C460.199 197.9 461.199 196.4 461.499 194.7H463.399C462.999 197.5 461.099 200.3 458.499 200.3C455.599 200.2 453.199 196.9 453.199 192.6Z" fill="white"/>
        <path d="M437.898 218C437.898 213.6 440.198 210.5 442.998 210.5C444.698 210.5 445.998 212 446.298 212.6H446.398V205.2H448.298V225.3H446.898L446.498 223.5H446.398C446.098 224.1 444.798 225.6 442.998 225.6C440.198 225.5 437.898 222.4 437.898 218ZM446.398 218C446.398 214.9 444.898 212.8 443.098 212.8C441.298 212.8 439.798 214.9 439.798 218C439.798 221.1 441.298 223.2 443.098 223.2C444.898 223.2 446.398 221.1 446.398 218Z" fill="white"/>
        <path d="M331.1 364.3H209.6C191.1 364.3 176 349.2 176 330.7V64.9999C176 46.4999 191.1 31.3999 209.6 31.3999H331.1C349.6 31.3999 364.7 46.4999 364.7 64.9999V330.8C364.6 349.2 349.5 364.3 331.1 364.3Z" stroke="#FF3880" stroke-width="5" stroke-miterlimit="10" stroke-linecap="round" stroke-linejoin="round"/>
        <rect x="246.5" y="49.5" width="49" height="13" rx="6.5" stroke="#FF3880" stroke-width="5"/>
        <path d="M234.799 223.9H242.199H250.799L257.199 221.1L260.099 216.2L261.799 210.4L265.399 207.5H272.799L279.099 210.2L280.799 216.2L284.099 221.3L288.299 223.5L298.599 223.9H309.399L308.799 210.3V190H297.399L288.699 180.9H251.499L242.299 190H231.699V223.9H234.799Z" fill="#FCA56B"/>
        <path d="M254.499 272.3L247.699 266L249.299 250.8V245.9L244.199 235L235.199 231.1L231.999 227.2L231.699 223.9H247.699L254.899 237.3H288.799L294.599 223.9H309.399V230.6L304.299 233.3L298.899 234.3L295.699 243.6L293.399 251L295.899 266.9L288.899 272.3L277.399 275.3L264.099 274.8L254.499 272.3Z" fill="#FCA56B"/>
        <path d="M333.5 387.2V299.4" stroke="black" stroke-width="5" stroke-miterlimit="10" stroke-linecap="round" stroke-linejoin="round"/>
        <path d="M207.598 299.4V387.2" stroke="black" stroke-width="5" stroke-miterlimit="10" stroke-linecap="round" stroke-linejoin="round"/>
        <path d="M207.598 301.1V387.2H333.498V301.1" fill="#BBBEFF"/>
        <path d="M207.298 301.4L182.998 256.5L172.398 231.7L171.898 216.2L181.498 200.1L197.298 192.5L218.298 190L231.698 189.4L231.998 208.5L231.698 223.9L218.298 228L212.698 231.3V237.8L223.498 249.9L235.798 263.5L239.898 266.2H245.198L250.798 270.9L260.098 274.5L270.398 275.3L280.798 274.6L289.898 271.9L294.598 268.5L299.998 265.3L302.998 266L311.498 257.3L322.498 245L328.598 237.8V231.3L322.998 228H316.898H309.198L309.398 190L329.698 190.2L345.098 192.6L355.198 196.8L364.298 204.7L368.298 213.1L369.098 228L366.298 239.3L360.498 252.5L343.498 282.1L332.098 302.4L207.298 301.4Z" fill="#BBBEFF"/>
        <path d="M333.5 387.2V299.4" stroke="black" stroke-width="5" stroke-miterlimit="10" stroke-linecap="round" stroke-linejoin="round"/>
        <path d="M207.598 299.4V387.2" stroke="black" stroke-width="5" stroke-miterlimit="10" stroke-linecap="round" stroke-linejoin="round"/>
        <path d="M293.402 248.7C295.902 244.8 297.702 240 298.902 234.3C298.902 234.3 305.402 234.6 308.902 229.9" stroke="black" stroke-width="5" stroke-miterlimit="10" stroke-linecap="round" stroke-linejoin="round"/>
        <path d="M233.602 229.2C236.902 234.6 244.002 234.2 244.002 234.2C245.402 240.1 247.802 244.9 250.802 248.7" stroke="black" stroke-width="5" stroke-miterlimit="10" stroke-linecap="round" stroke-linejoin="round"/>
        <path d="M306.5 184.4C304.5 179.9 300.7 176.1 293.7 174.3C293.7 174.3 289.4 158.9 270.6 158.9C255.2 158.9 242.6 165.1 242.6 178.8C242.6 178.8 231.7 177.2 229 190" stroke="black" stroke-width="5" stroke-miterlimit="10" stroke-linecap="round" stroke-linejoin="round"/>
        <path d="M207.601 299.1L181.401 253.8C158.101 213.3 176.701 190 218.201 190H242.201L251.301 180.9H288.501L297.301 190H323.001C372.101 190 378.701 219.5 359.801 253.8L333.601 299.1" stroke="black" stroke-width="5" stroke-miterlimit="10" stroke-linecap="round" stroke-linejoin="round"/>
        <path d="M309.201 228H323.001C325.501 228 327.401 229.1 328.701 231.3C330.001 233.5 330.001 235.7 328.701 237.8L304.301 266" stroke="black" stroke-width="5" stroke-miterlimit="10" stroke-linecap="round" stroke-linejoin="round"/>
        <path d="M238.102 266L212.702 237.8C211.402 235.6 211.402 233.4 212.702 231.3C214.002 229.1 215.902 228 218.402 228H232.502" stroke="black" stroke-width="5" stroke-miterlimit="10" stroke-linecap="round" stroke-linejoin="round"/>
        <path d="M238.102 266H247.702" stroke="black" stroke-width="5" stroke-miterlimit="10" stroke-linecap="round" stroke-linejoin="round"/>
        <path d="M295.699 266H304.299" stroke="black" stroke-width="5" stroke-miterlimit="10" stroke-linecap="round" stroke-linejoin="round"/>
        <path d="M293.101 226L288.801 237.3H254.901L249.301 226" stroke="black" stroke-width="5" stroke-miterlimit="10" stroke-linecap="round" stroke-linejoin="round"/>
        <path d="M293.5 248.6L295.7 266" stroke="black" stroke-width="5" stroke-miterlimit="10" stroke-linecap="round" stroke-linejoin="round"/>
        <path d="M249.799 248.6L247.699 266" stroke="black" stroke-width="5" stroke-miterlimit="10" stroke-linecap="round" stroke-linejoin="round"/>
        <path d="M232 196.8V226" stroke="black" stroke-width="5" stroke-miterlimit="10" stroke-linecap="round" stroke-linejoin="round"/>
        <path d="M309.398 226V198.1" stroke="black" stroke-width="5" stroke-miterlimit="10" stroke-linecap="round" stroke-linejoin="round"/>
        <path d="M308.801 198.1V226" stroke="black" stroke-width="5" stroke-miterlimit="10" stroke-linecap="round" stroke-linejoin="round"/>
        <path d="M233.5 223.9H249.6C256.1 223.9 261.4 218.6 261.4 212.1C261.4 210.1 263 208.5 265 208.5H276.1C278.1 208.5 279.7 210.1 279.7 212.1C279.7 218.6 285 223.9 291.5 223.9H307.5" stroke="black" stroke-width="5" stroke-miterlimit="10" stroke-linecap="round" stroke-linejoin="round"/>
        <path d="M276.902 201.6C279.002 201.6 280.802 203.2 280.802 205.1C280.802 207 279.102 208.6 276.902 208.6" stroke="black" stroke-width="5" stroke-miterlimit="10" stroke-linecap="round" stroke-linejoin="round"/>
        <path d="M276.902 187.7C279.002 187.7 280.802 189.3 280.802 191.2C280.802 193.1 279.102 194.7 276.902 194.7" stroke="black" stroke-width="5" stroke-miterlimit="10" stroke-linecap="round" stroke-linejoin="round"/>
        <path d="M264.002 187.8C261.902 187.8 260.102 186.2 260.102 184.3C260.102 182.4 261.802 180.8 264.002 180.8" stroke="black" stroke-width="5" stroke-miterlimit="10" stroke-linecap="round" stroke-linejoin="round"/>
        <path d="M264 187.7H277.1" stroke="black" stroke-width="5" stroke-miterlimit="10" stroke-linecap="round" stroke-linejoin="round"/>
        <path d="M264 194.7H277.1" stroke="black" stroke-width="5" stroke-miterlimit="10" stroke-linecap="round" stroke-linejoin="round"/>
        <path d="M264.002 201.6C261.902 201.6 260.102 200 260.102 198.1C260.102 196.2 261.802 194.6 264.002 194.6" stroke="black" stroke-width="5" stroke-miterlimit="10" stroke-linecap="round" stroke-linejoin="round"/>
        <path d="M264 201.6H277.1" stroke="black" stroke-width="5" stroke-miterlimit="10" stroke-linecap="round" stroke-linejoin="round"/>
        <path d="M295.9 265.2C295.9 270.8 285.1 275.3 271.7 275.3C258.4 275.3 247.5 270.8 247.5 265.2" stroke="black" stroke-width="5" stroke-miterlimit="10" stroke-linecap="round" stroke-linejoin="round"/>
        <rect width="137" height="31" transform="translate(356.5 133)" fill="#FFDD52"/>
        <path d="M381.049 145.338H377.864L378.867 140.448H376.862L375.859 145.338H371.872L372.875 140.448H370.869L369.866 145.338H366.656L366.205 147.218H369.465L368.662 151.23H365.528L365.052 153.111H368.261L367.258 158H369.264L370.267 153.111H374.254L373.251 158H375.257L376.26 153.111H379.444L379.921 151.23H376.661L377.463 147.218H380.598L381.049 145.338ZM370.668 151.23L371.471 147.218H375.457L374.655 151.23H370.668ZM385.453 158V150.729C385.453 148.522 386.832 147.143 388.788 147.143C390.643 147.143 391.997 148.522 391.997 150.729V158H394.179V150.653C394.179 147.293 392.022 145.112 389.114 145.112C387.258 145.112 385.979 146.24 385.503 146.967H385.378L384.901 145.388H383.297V158H385.453ZM408.582 151.38C408.582 147.845 406.075 145.112 402.765 145.112C399.455 145.112 396.697 147.945 396.697 151.681C396.697 155.518 399.38 158.276 402.79 158.276C405.398 158.276 407.404 156.521 408.156 154.615H405.924C405.297 155.618 404.319 156.295 402.815 156.295C400.734 156.295 399.229 154.916 398.903 152.634H408.482C408.557 152.333 408.582 151.907 408.582 151.38ZM402.765 147.093C404.746 147.093 406.225 148.647 406.476 150.854H398.878C399.204 148.572 400.859 147.093 402.765 147.093ZM421.893 154.54L419.034 145.388H417.605L414.772 154.49L411.913 145.388H409.631L413.819 158H415.524L418.282 149.124L421.065 158H422.77L426.958 145.388H424.776L421.893 154.54ZM429.871 143.507C430.648 143.507 431.25 142.905 431.25 142.128C431.25 141.326 430.648 140.774 429.871 140.774C429.118 140.774 428.517 141.326 428.517 142.128C428.517 142.905 429.118 143.507 429.871 143.507ZM430.949 158V145.388H428.792V158H430.949ZM439.415 158.276C441.471 158.276 442.925 156.922 443.302 156.42H443.427L443.903 158H445.508V140.448H443.352V146.917H443.226C442.875 146.416 441.421 145.112 439.415 145.112C436.256 145.112 433.598 147.82 433.598 151.681C433.598 155.543 436.256 158.276 439.415 158.276ZM439.54 156.245C437.509 156.245 435.754 154.414 435.754 151.681C435.754 148.973 437.509 147.143 439.54 147.143C441.597 147.143 443.352 148.973 443.352 151.681C443.352 154.414 441.597 156.245 439.54 156.245ZM460.15 151.38C460.15 147.845 457.643 145.112 454.333 145.112C451.023 145.112 448.265 147.945 448.265 151.681C448.265 155.518 450.948 158.276 454.358 158.276C456.966 158.276 458.972 156.521 459.724 154.615H457.493C456.866 155.618 455.888 156.295 454.383 156.295C452.302 156.295 450.798 154.916 450.472 152.634H460.05C460.125 152.333 460.15 151.907 460.15 151.38ZM454.333 147.093C456.314 147.093 457.793 148.647 458.044 150.854H450.447C450.773 148.572 452.428 147.093 454.333 147.093ZM467.318 145.112C464.535 145.112 462.754 147.043 462.529 149.149H464.71C464.911 148.046 465.713 147.093 467.318 147.093C468.923 147.093 470.001 148.171 470.001 149.901V150.478H467.644C464.284 150.478 461.977 152.083 461.977 154.49C461.977 156.571 463.632 158.276 466.19 158.276C468.246 158.276 469.474 157.147 469.976 156.42H470.101L470.552 158H472.182V150.001C472.182 147.118 470.201 145.112 467.318 145.112ZM466.541 156.37C464.961 156.37 464.133 155.543 464.133 154.389C464.133 153.035 465.412 152.208 467.794 152.208H470.001V153.161C470.001 154.941 468.672 156.37 466.541 156.37ZM479.475 158.276C482.359 158.276 483.989 156.646 483.989 154.54C483.989 150.102 477.118 151.33 477.118 148.647C477.118 147.745 477.871 147.018 479.3 147.018C480.754 147.018 481.531 147.77 481.682 149.023H483.813C483.688 146.867 481.933 145.112 479.3 145.112C476.617 145.112 474.962 146.742 474.962 148.723C474.962 153.111 481.832 151.807 481.832 154.615C481.832 155.593 481.03 156.37 479.475 156.37C477.871 156.37 476.918 155.493 476.792 154.239H474.636C474.786 156.395 476.642 158.276 479.475 158.276Z" fill="black"/>
        <rect width="127" height="31" transform="translate(45 207)" fill="#FFDD52"/>
        <path d="M69.5489 219.338H66.3645L67.3675 214.448H65.3615L64.3586 219.338H60.3718L61.3747 214.448H59.3688L58.3659 219.338H55.1564L54.705 221.218H57.9647L57.1623 225.23H54.028L53.5516 227.111H56.7611L55.7582 232H57.7641L58.767 227.111H62.7538L61.7509 232H63.7568L64.7597 227.111H67.9442L68.4206 225.23H65.1609L65.9633 221.218H69.0976L69.5489 219.338ZM59.1682 225.23L59.9706 221.218H63.9574L63.155 225.23H59.1682ZM76.6609 216.203C76.9869 216.203 77.2627 216.253 77.5385 216.354V214.398C77.2376 214.298 76.8365 214.172 76.2347 214.172C74.1034 214.172 72.5237 215.702 72.5237 218.36V219.388H70.7685V221.369H72.5237V232H74.6801V221.369H77.5385V219.388H74.655V218.46C74.655 216.905 75.4323 216.203 76.6609 216.203ZM83.8278 219.112C81.0446 219.112 79.2643 221.043 79.0387 223.149H81.2201C81.4207 222.046 82.2231 221.093 83.8278 221.093C85.4326 221.093 86.5107 222.171 86.5107 223.901V224.478H84.1538C80.7938 224.478 78.487 226.083 78.487 228.49C78.487 230.571 80.1419 232.276 82.6995 232.276C84.7556 232.276 85.9842 231.147 86.4857 230.42H86.611L87.0624 232H88.6922V224.001C88.6922 221.118 86.7113 219.112 83.8278 219.112ZM83.0505 230.37C81.4708 230.37 80.6434 229.543 80.6434 228.389C80.6434 227.035 81.9222 226.208 84.3042 226.208H86.5107V227.161C86.5107 228.941 85.1818 230.37 83.0505 230.37ZM96.2168 229.242L92.4557 219.388H90.1488L95.1637 232H97.1947L102.184 219.388H99.9528L96.2168 229.242ZM109.092 232.276C112.401 232.276 115.185 229.442 115.185 225.681C115.185 221.945 112.401 219.112 109.092 219.112C105.757 219.112 102.999 221.945 102.999 225.681C102.999 229.442 105.757 232.276 109.092 232.276ZM109.092 230.245C106.96 230.245 105.155 228.414 105.155 225.681C105.155 222.973 106.96 221.143 109.092 221.143C111.223 221.143 113.003 222.973 113.003 225.681C113.003 228.414 111.223 230.245 109.092 230.245ZM119.938 232V224.904C119.938 222.622 121.318 221.268 123.248 221.268C123.599 221.268 123.9 221.293 124.226 221.394V219.212C123.95 219.137 123.624 219.112 123.248 219.112C121.669 219.112 120.44 220.29 119.989 220.967H119.863L119.387 219.388H117.782V232H119.938ZM127.235 217.507C128.012 217.507 128.614 216.905 128.614 216.128C128.614 215.326 128.012 214.774 127.235 214.774C126.482 214.774 125.881 215.326 125.881 216.128C125.881 216.905 126.482 217.507 127.235 217.507ZM128.313 232V219.388H126.156V232H128.313ZM136.278 232.276C136.879 232.276 137.281 232.15 137.582 232.05V230.069C137.306 230.195 137.03 230.245 136.704 230.245C135.525 230.245 134.723 229.543 134.723 227.988V221.369H137.582V219.388H134.723V216.078H132.893V217.959C132.893 218.936 132.341 219.463 131.363 219.463H130.41V221.369H132.567V228.063C132.567 230.746 134.171 232.276 136.278 232.276ZM151.001 225.38C151.001 221.845 148.494 219.112 145.184 219.112C141.874 219.112 139.116 221.945 139.116 225.681C139.116 229.518 141.799 232.276 145.209 232.276C147.817 232.276 149.823 230.521 150.575 228.615H148.343C147.716 229.618 146.739 230.295 145.234 230.295C143.153 230.295 141.648 228.916 141.323 226.634H150.901C150.976 226.333 151.001 225.907 151.001 225.38ZM145.184 221.093C147.165 221.093 148.644 222.647 148.895 224.854H141.297C141.623 222.572 143.278 221.093 145.184 221.093ZM157.642 232.276C160.526 232.276 162.155 230.646 162.155 228.54C162.155 224.102 155.285 225.33 155.285 222.647C155.285 221.745 156.037 221.018 157.467 221.018C158.921 221.018 159.698 221.77 159.849 223.023H161.98C161.854 220.867 160.099 219.112 157.467 219.112C154.784 219.112 153.129 220.742 153.129 222.723C153.129 227.111 159.999 225.807 159.999 228.615C159.999 229.593 159.197 230.37 157.642 230.37C156.037 230.37 155.084 229.493 154.959 228.239H152.803C152.953 230.395 154.809 232.276 157.642 232.276Z" fill="black"/>
        <rect width="140" height="31" transform="translate(103.5 80)" fill="#FFDD52"/>
        <path d="M128.049 92.3376H124.864L125.867 87.4481H123.862L122.859 92.3376H118.872L119.875 87.4481H117.869L116.866 92.3376H113.656L113.205 94.2181H116.465L115.662 98.23H112.528L112.052 100.111H115.261L114.258 105H116.264L117.267 100.111H121.254L120.251 105H122.257L123.26 100.111H126.444L126.921 98.23H123.661L124.463 94.2181H127.598L128.049 92.3376ZM117.668 98.23L118.471 94.2181H122.457L121.655 98.23H117.668ZM141.429 109.513V92.3877H139.825L139.348 93.9674H139.223C138.847 93.4659 137.393 92.1119 135.336 92.1119C132.177 92.1119 129.519 94.8199 129.519 98.6813C129.519 102.543 132.177 105.276 135.336 105.276C137.342 105.276 138.797 103.972 139.148 103.47H139.273V109.513H141.429ZM135.462 103.245C133.431 103.245 131.676 101.414 131.676 98.6813C131.676 95.9733 133.431 94.1429 135.462 94.1429C137.518 94.1429 139.273 95.9733 139.273 98.6813C139.273 101.414 137.518 103.245 135.462 103.245ZM149.756 105.276C151.611 105.276 152.915 104.147 153.392 103.42H153.517L153.968 105H155.598V92.3877H153.417V99.6592C153.417 101.866 152.063 103.245 150.107 103.245C148.252 103.245 146.872 101.866 146.872 99.6592V92.3877H144.716V99.7344C144.716 103.094 146.847 105.276 149.756 105.276ZM170.127 98.3804C170.127 94.845 167.62 92.1119 164.31 92.1119C161 92.1119 158.242 94.9453 158.242 98.6813C158.242 102.518 160.925 105.276 164.335 105.276C166.943 105.276 168.948 103.521 169.701 101.615H167.469C166.842 102.618 165.864 103.295 164.36 103.295C162.279 103.295 160.774 101.916 160.448 99.6341H170.027C170.102 99.3333 170.127 98.907 170.127 98.3804ZM164.31 94.0928C166.291 94.0928 167.77 95.6474 168.021 97.8539H160.423C160.749 95.5721 162.404 94.0928 164.31 94.0928ZM176.768 105.276C179.651 105.276 181.281 103.646 181.281 101.54C181.281 97.1017 174.411 98.3303 174.411 95.6474C174.411 94.7447 175.163 94.0175 176.592 94.0175C178.047 94.0175 178.824 94.7698 178.974 96.0235H181.106C180.98 93.8671 179.225 92.1119 176.592 92.1119C173.909 92.1119 172.255 93.7417 172.255 95.7226C172.255 100.111 179.125 98.8067 179.125 101.615C179.125 102.593 178.322 103.37 176.768 103.37C175.163 103.37 174.21 102.493 174.085 101.239H171.929C172.079 103.395 173.934 105.276 176.768 105.276ZM188.24 105.276C188.842 105.276 189.243 105.15 189.544 105.05V103.069C189.268 103.195 188.992 103.245 188.666 103.245C187.488 103.245 186.685 102.543 186.685 100.988V94.3686H189.544V92.3877H186.685V89.0779H184.855V90.9585C184.855 91.9364 184.303 92.463 183.325 92.463H182.373V94.3686H184.529V101.063C184.529 103.746 186.134 105.276 188.24 105.276ZM193.178 90.5072C193.956 90.5072 194.558 89.9054 194.558 89.1281C194.558 88.3257 193.956 87.7741 193.178 87.7741C192.426 87.7741 191.824 88.3257 191.824 89.1281C191.824 89.9054 192.426 90.5072 193.178 90.5072ZM194.257 105V92.3877H192.1V105H194.257ZM202.999 105.276C206.309 105.276 209.092 102.442 209.092 98.6813C209.092 94.9453 206.309 92.1119 202.999 92.1119C199.664 92.1119 196.906 94.9453 196.906 98.6813C196.906 102.442 199.664 105.276 202.999 105.276ZM202.999 103.245C200.868 103.245 199.062 101.414 199.062 98.6813C199.062 95.9733 200.868 94.1429 202.999 94.1429C205.13 94.1429 206.91 95.9733 206.91 98.6813C206.91 101.414 205.13 103.245 202.999 103.245ZM213.846 105V97.7285C213.846 95.522 215.225 94.1429 217.181 94.1429C219.036 94.1429 220.39 95.522 220.39 97.7285V105H222.572V97.6533C222.572 94.2934 220.415 92.1119 217.507 92.1119C215.651 92.1119 214.372 93.2403 213.896 93.9674H213.771L213.294 92.3877H211.689V105H213.846ZM229.879 105.276C232.762 105.276 234.392 103.646 234.392 101.54C234.392 97.1017 227.522 98.3303 227.522 95.6474C227.522 94.7447 228.274 94.0175 229.703 94.0175C231.158 94.0175 231.935 94.7698 232.085 96.0235H234.217C234.091 93.8671 232.336 92.1119 229.703 92.1119C227.02 92.1119 225.366 93.7417 225.366 95.7226C225.366 100.111 232.236 98.8067 232.236 101.615C232.236 102.593 231.433 103.37 229.879 103.37C228.274 103.37 227.321 102.493 227.196 101.239H225.04C225.19 103.395 227.046 105.276 229.879 105.276Z" fill="black"/>
    </g>
    <defs>
        <clipPath id="clip0_5683_196010">
            <rect width="464.5" height="360.6" fill="white" transform="translate(28 29)"/>
        </clipPath>
    </defs>
</svg>
