<svg width="410" height="476" viewBox="0 0 410 476" fill="none" xmlns="http://www.w3.org/2000/svg">
<g clip-path="url(#clip0_4465_147364)">
<path d="M381.001 433.3H30.8008C14.8008 433.3 1.80078 420.2 1.80078 404.3V274.1C1.80078 258.1 14.9008 245.1 30.8008 245.1H381.001C397.001 245.1 410.001 258.2 410.001 274.1V404.3C410.001 420.3 396.901 433.3 381.001 433.3Z" fill="#D6D6D6"/>
<path d="M182.098 450.9L165.498 448.6L163.998 430L156.098 419.2L115.898 417.8L66.5984 413.5L47.7984 399.8L37.3984 381.2L40.1984 359.5L61.6984 328.7L138.498 281.1L173.598 264.3L180.398 268.1L192.498 307.7L118.098 364L183.098 362.6L209.598 373.3L225.498 402.8L182.098 450.9Z" fill="#FF87A4"/>
<path d="M194 302.7L204.2 300.3L212.8 279.4L227.8 267.8L243.6 262.6L257.8 263.1L240.4 245.1L206.2 247.6L183.5 276.1L194 302.7Z" fill="#FFDCBC"/>
<path d="M371.802 454.6C370.602 450.7 369.402 446.6 368.202 442.3C356.002 400.4 337.402 397.3 320.902 396.4C312.502 395.9 265.702 396.4 265.702 396.4L233.302 396.5C233.302 396.5 173.602 400.9 165.102 401.3L165.602 469.7L371.302 470.6L371.802 454.6Z" fill="#FF87A4"/>
<path d="M298.597 333.8C305.666 333.8 311.397 327.756 311.397 320.3C311.397 312.844 305.666 306.8 298.597 306.8C291.528 306.8 285.797 312.844 285.797 320.3C285.797 327.756 291.528 333.8 298.597 333.8Z" fill="#FFDCBC"/>
<path d="M249.598 263.1C260.598 263.5 269.498 266.2 283.498 275C292.298 280.3 291.498 299 289.398 311.4C289.798 315.3 292.398 318.3 292.098 322.4C289.898 352.2 282.798 373.1 245.598 373.1C206.198 373.1 201.198 374.1 203.798 316.3C204.198 307 205.398 292.6 209.198 285.2C217.598 273.9 228.898 262.3 249.598 263.1Z" fill="#FFDCBC"/>
<path d="M223.9 398.6C233.4 426.9 254.3 441.4 271.2 435.7C288.1 430 294.9 406.1 285.3 377.9C275.7 349.7 259.4 327.1 242.4 332.9C225.4 338.7 214.4 370.3 223.9 398.6Z" fill="#FFDCBC"/>
<path d="M223.602 396.4C245.202 445 268.202 436.9 277.702 431.5C291.402 423.7 287.702 396 287.702 396L279.102 365.5" stroke="black" stroke-width="6.7107" stroke-miterlimit="10" stroke-linecap="round" stroke-linejoin="round"/>
<path d="M165.702 469.7C165.702 469.7 165.702 450 165.402 436.9C165.002 419.2 145.902 418.8 145.902 418.8C145.902 418.8 127.002 419.9 82.6016 415.4C55.0016 412.6 44.0016 395.8 38.8016 380.2C21.9016 328.8 179.202 265 179.202 265L195.202 305.8C195.202 305.8 111.602 366.9 106.102 371C99.2016 376.1 93.2016 379.5 90.3016 370.5C85.7016 356.4 113.402 362.9 113.402 362.9C113.402 362.9 120.702 363.4 164.302 361.9C207.902 360.4 216.902 378.7 223.202 396" stroke="black" stroke-width="6.7107" stroke-miterlimit="10" stroke-linecap="round" stroke-linejoin="round"/>
<path d="M206.199 293.6C206.199 293.6 223.899 288.3 229.399 305.8C231.599 312.8 223.199 329.5 223.199 329.5L239.399 335" stroke="black" stroke-width="6.7107" stroke-miterlimit="10" stroke-linejoin="round"/>
<path d="M307.098 306.8C307.098 306.8 327.498 258.4 289.598 249C289.598 249 282.898 224.7 253.098 224.7C231.098 224.7 220.598 234.3 214.398 247" stroke="black" stroke-width="6.7107" stroke-miterlimit="10" stroke-linejoin="round"/>
<path d="M266.2 306.3C266.2 306.3 255.5 314.6 244.5 303.8" stroke="black" stroke-width="6.7107" stroke-miterlimit="10"/>
<path d="M221.801 347.8C221.801 347.8 235.901 342.8 250.001 350.9" stroke="black" stroke-width="6.7107" stroke-miterlimit="10"/>
<path d="M271 396.3C271 396.3 315.4 395.8 323.9 396.3C340.4 397.2 359 400.4 371.2 442.2L374.8 472.2" stroke="black" stroke-width="6.7107" stroke-miterlimit="10" stroke-linecap="round" stroke-linejoin="round"/>
<path d="M287.5 299.5L288.1 281.6C288.1 281.6 269.9 254.6 233.4 264.5C220.8 267.9 205.5 281.6 203.5 306.2C201.7 327.4 197.7 356.6 208.7 368.9C216.7 377.9 237.8 377.6 251.4 376.3C278.4 373.7 285.9 361.5 291.3 334.5C291.3 334.5 313.3 335.2 312.2 319C310.8 298.7 293.3 309.5 293.3 309.5L291.2 319.3" stroke="black" stroke-width="6.7107" stroke-miterlimit="10" stroke-linejoin="round"/>
<path d="M269.202 295.4C269.202 295.4 250.502 296.9 243.602 283.1" stroke="black" stroke-width="6.7107" stroke-miterlimit="10"/>
<path d="M182.5 273L202.998 247.6L237.298 245.1L257.298 264" stroke="black" stroke-width="6.7107" stroke-miterlimit="10" stroke-linejoin="round"/>
<path d="M339.699 470.5V450.9" stroke="black" stroke-width="6.7107" stroke-miterlimit="10" stroke-linecap="round" stroke-linejoin="round"/>
<path d="M381.001 201.5H30.8008C14.8008 201.5 1.80078 188.4 1.80078 172.5V42.3C1.80078 26.3 14.9008 13.3 30.8008 13.3H381.001C397.001 13.3 410.001 26.4 410.001 42.3V172.5C410.001 188.5 396.901 201.5 381.001 201.5Z" fill="#D6D6D6"/>
<path d="M273.801 13.3H29.8008C14.4008 13.3 1.80078 26.0001 1.80078 41.4001V173.4C1.80078 188.9 14.4008 201.5 29.9008 201.5H340.101V110.2L273.801 13.3Z" fill="#BBBEFF"/>
<path d="M70.5984 176.5L3.39844 86L93.3984 50.3L168.398 151.2L78.3984 186.9" stroke="black" stroke-width="6.7107" stroke-miterlimit="10" stroke-linecap="round" stroke-linejoin="round"/>
<path d="M62.298 135.3C49.698 121.2 50.198 100.3 63.298 88.5999C76.3981 76.8999 97.2981 78.7999 109.798 92.8999C112.798 96.2999 115.098 100.1 116.598 104" stroke="black" stroke-width="6.4789" stroke-miterlimit="10" stroke-linecap="round"/>
<path d="M116.298 129.4C114.598 133.2 112.098 136.7 108.798 139.7C98.9977 148.4 84.8977 149.6 73.0977 143.7" stroke="black" stroke-width="6.4789" stroke-miterlimit="10" stroke-linecap="round"/>
<path d="M182.501 89.7001C169.901 75.6001 170.401 54.7001 183.501 43.0001C196.601 31.3001 217.501 33.2001 230.001 47.3001C233.001 50.7001 235.301 54.5001 236.801 58.4001" stroke="black" stroke-width="6.4789" stroke-miterlimit="10" stroke-linecap="round"/>
<path d="M236.501 83.8C234.801 87.6 232.301 91.1 229.001 94.1C219.201 102.8 205.101 104 193.301 98.1" stroke="black" stroke-width="6.4789" stroke-miterlimit="10" stroke-linecap="round"/>
<path d="M133.901 33.6999L210.401 3.3999L285.401 104.3L195.401 140L120.301 39.0999" stroke="black" stroke-width="6.7107" stroke-miterlimit="10" stroke-linecap="round" stroke-linejoin="round"/>
<path d="M96.899 137.9C86.099 137.9 75.599 133.1 68.199 124.7C61.599 117.2 58.199 107.8 58.399 98.2C58.699 88.5 62.699 79.7 69.799 73.5C75.899 68.1 83.899 65.2 92.199 65.2C102.999 65.2 113.499 70 120.899 78.4C134.499 93.9 133.799 116.9 119.299 129.7C113.199 135 105.199 137.9 96.899 137.9Z" fill="#3EB758"/>
<path d="M92.2996 68.3001C101.8 68.3001 111.5 72.4001 118.5 80.4001C131 94.6001 130.4 115.5 117.2 127.1C111.4 132.2 104.2 134.6 96.8996 134.6C87.3996 134.6 77.6996 130.5 70.6996 122.5C58.1996 108.4 58.7996 87.5001 71.9996 75.8001C77.6996 70.8001 84.8996 68.3001 92.2996 68.3001ZM92.2996 61.8C83.1996 61.8 74.3996 65 67.6996 71C51.7996 85 50.9996 110 65.7996 126.9C73.7996 136 85.1996 141.2 96.8996 141.2C106 141.2 114.8 138 121.5 132C137.4 118 138.2 93 123.4 76.1C115.3 67.1 104 61.8 92.2996 61.8Z" fill="black"/>
<path d="M109.9 111.9C97.4996 116.9 83.3996 111 78.3996 98.6001C77.3996 96.2001 78.5996 93.5001 80.9996 92.5001C81.1996 92.4001 81.3996 92.4001 81.5996 92.3001L86.4996 99.3001C86.2996 99.5001 86.0996 99.7001 85.9996 99.9001L85.7996 100.1C84.6996 101.4 83.7996 102.5 84.8996 103.6C89.0996 108.4 95.4996 111.1 101.8 110.8C103.4 110.8 103.6 109.5 103.7 107.8C103.7 107.6 103.7 107.4 103.8 107.2C103.8 107 103.8 106.9 103.8 106.7L112.2 105.3C112.3 105.5 112.4 105.6 112.5 105.8C113.4 108.2 112.3 111 109.9 111.9ZM114.3 102.1C113.9 101.6 113.3 101.4 112.7 101.5L101.8 103.3C101.2 103.4 100.7 103.8 100.4 104.3C100.3 104.6 100.3 104.6 99.9996 107.2C95.7996 107 91.6996 105.3 88.4996 102.4C90.0996 100.5 90.0996 100.5 90.2996 100.1C90.4996 99.5001 90.3996 98.9001 90.0996 98.4001L83.6996 89.4001C83.2996 88.9001 82.6996 88.6001 82.0996 88.6001C81.5996 88.6001 81.1996 88.7001 80.7996 88.8001C80.3996 88.9001 79.8996 89.0001 79.4996 89.2001C75.2996 90.9001 73.1996 95.8001 74.8996 100C80.6996 114.2 96.8996 121 111.1 115.3C115.3 113.6 117.4 108.7 115.7 104.5C115.5 104.1 115.3 103.7 115.1 103.3C114.9 102.8 114.6 102.5 114.3 102.1ZM94.2996 94.9001C97.0996 93.8001 100.2 95.1001 101.4 97.9001C101.8 98.8001 102.8 99.3001 103.8 98.9001C104.7 98.5001 105.2 97.5001 104.8 96.5001C102.9 91.9001 97.5996 89.7001 92.9996 91.5001C92.0996 91.9001 91.5996 92.9001 91.9996 93.9001C92.2996 94.8001 93.3996 95.3001 94.2996 94.9001ZM108.1 95.1001C105.5 88.6001 98.0996 85.5001 91.5996 88.2001C90.6996 88.6001 89.5996 88.1001 89.1996 87.2001C88.7996 86.3001 89.2996 85.2001 90.1996 84.8001C98.4996 81.4001 108 85.4001 111.4 93.7001C111.8 94.6001 111.3 95.7001 110.4 96.1001C109.5 96.5001 108.4 96.0001 108.1 95.1001Z" fill="white"/>
<path d="M87.6992 202.5L338.499 107.3L271.199 9.5" stroke="black" stroke-width="6.7107" stroke-miterlimit="10" stroke-linecap="round" stroke-linejoin="round"/>
<path d="M356.399 218.6L344.899 181.3L332.599 156.7L291.199 150.5L275.699 130.9L240.499 115.7L236.699 121.3L239.799 128.1L244.799 136.8L262.299 143.3L273.799 176.1L274.399 187L269.599 192.4L257.199 188.8L244.799 186.6L240.199 188.5L242.599 195.2L254.999 208.1L281.699 217.7L296.499 222.7L356.399 218.6Z" fill="white"/>
<path d="M293.898 163.8L275.698 130.9L240.498 115.7C240.498 115.7 231.698 125.5 247.198 134.9C251.398 137.4 262.698 145.7 262.698 145.7L273.798 176.2C273.798 176.2 279.598 195.7 263.298 192.5C263.298 192.5 247.698 180.3 237.898 190.4L254.898 208.2L290.398 220.9" stroke="black" stroke-width="6.7107" stroke-miterlimit="10" stroke-linecap="round" stroke-linejoin="round"/>
<path d="M338.5 107.3V161.4" stroke="black" stroke-width="6.7107" stroke-miterlimit="10" stroke-linecap="round" stroke-linejoin="round"/>
<path d="M353.999 218.8C353.999 218.8 353.999 202.8 348.299 185.1C345.199 175.6 339.999 165.1 332.599 156.7L287.699 150.5" stroke="black" stroke-width="6.7107" stroke-miterlimit="10" stroke-linecap="round" stroke-linejoin="round"/>
<path d="M303.602 152.7L310.202 164.3" stroke="black" stroke-width="6.7107" stroke-miterlimit="10" stroke-linecap="round" stroke-linejoin="round"/>
<path d="M319.199 154.8L325.899 166.3" stroke="black" stroke-width="6.7107" stroke-miterlimit="10" stroke-linecap="round" stroke-linejoin="round"/>
<path d="M233.805 85.8502C248.665 75.3933 251.899 54.3943 241.028 38.9475C230.158 23.5008 209.3 19.4558 194.441 29.9127C179.581 40.3697 176.347 61.3687 187.217 76.8154C198.087 92.2622 218.945 96.3072 233.805 85.8502Z" fill="#FF3880" stroke="black" stroke-width="6.5831" stroke-miterlimit="10"/>
<path d="M233.702 56.0001C234.702 53.6 233.502 50.9001 231.102 49.9001C218.802 44.8001 204.602 50.7 199.502 63.1C198.502 65.5 199.702 68.2 202.102 69.2C202.302 69.3 202.502 69.3001 202.702 69.4001L207.602 62.4001C207.402 62.1001 207.102 61.8 206.902 61.5C205.802 60.1 204.902 59.2001 206.102 58.0001C210.302 53.3001 216.702 50.6001 223.102 51.0001C224.702 50.9001 224.802 52.3 224.902 54.1C224.902 54.5 225.002 54.8001 225.002 55.2001L233.402 56.6C233.602 56.3 233.702 56.1001 233.702 56.0001ZM196.302 61.6C202.102 47.4 218.402 40.6001 232.602 46.5001C236.802 48.2001 238.902 53.1 237.102 57.3C236.902 57.7 236.702 58.1001 236.502 58.5001C236.302 58.9001 236.002 59.2 235.702 59.6C235.302 60.1 234.702 60.3001 234.002 60.2001L223.102 58.4001C222.502 58.3001 222.002 57.9001 221.702 57.3C221.602 57 221.602 57.0001 221.302 54.5001C217.002 54.7001 212.902 56.4 209.802 59.3C211.402 61.2001 211.402 61.2 211.602 61.6C211.802 62.2 211.702 62.8 211.402 63.3L205.002 72.3001C204.602 72.8001 204.002 73.1 203.402 73.1C202.902 73.1 202.502 73.0001 202.102 72.9001C201.702 72.8001 201.202 72.7001 200.802 72.5C196.502 70.7001 194.502 65.8 196.302 61.6Z" fill="white"/>
<path d="M190.102 292.8L209.202 285.3C209.202 285.3 218.802 272 214.502 263" stroke="black" stroke-width="6.7107" stroke-miterlimit="10"/>
</g>
<defs>
<clipPath id="clip0_4465_147364">
<rect width="410" height="475.6" fill="white"/>
</clipPath>
</defs>
</svg>
