<svg width="437" height="406" viewBox="0 0 437 406" fill="none" xmlns="http://www.w3.org/2000/svg">
    <path d="M412.202 370.419H119.749C106.388 370.419 95.5312 359.475 95.5312 346.192V237.42C95.5312 224.053 106.471 213.192 119.749 213.192H412.202C425.563 213.192 436.42 224.136 436.42 237.42V346.192C436.42 359.558 425.48 370.419 412.202 370.419Z" fill="#9294E1"/>
    <path d="M318.67 370.419H26.2179C12.8563 370.419 2 359.475 2 346.192V237.42C2 224.053 12.9398 213.192 26.2179 213.192H318.67C332.032 213.192 342.888 224.136 342.888 237.42V346.192C342.888 359.558 331.948 370.419 318.67 370.419Z" fill="#9294E1"/>
    <path d="M362.07 168.497H69.5046C56.1378 168.497 45.2773 157.553 45.2773 144.27V35.498C45.2773 22.1312 56.2214 11.2708 69.5046 11.2708H362.07C375.436 11.2708 386.297 22.2148 386.297 35.498V144.27C386.297 157.637 375.353 168.497 362.07 168.497Z" fill="#D6D6D6"/>
    <path d="M412.195 168.497H119.63C106.263 168.497 95.4023 157.553 95.4023 144.27V35.498C95.4023 22.1312 106.346 11.2708 119.63 11.2708H412.195C425.561 11.2708 436.422 22.2148 436.422 35.498V144.27C436.422 157.637 425.478 168.497 412.195 168.497Z" fill="#9294E1"/>
    <path d="M262.737 385.206L248.869 383.285L247.616 367.746L241.016 358.723L207.432 357.554L166.246 353.961L150.54 342.516L141.852 326.977L144.191 308.848L162.152 283.117L226.313 243.351L255.636 229.316L261.317 232.491L271.426 265.574L209.27 312.608L263.573 311.438L285.711 320.377L298.995 345.022L262.737 385.206Z" fill="#FF7394"/>
    <path d="M272.678 261.396L281.199 259.391L288.384 241.931L300.915 232.24L314.115 227.896L325.978 228.314L311.442 213.276L282.87 215.365L263.906 239.174L272.678 261.396Z" fill="#FFDBA0"/>
    <path d="M421.225 388.297C420.222 385.039 419.22 381.613 418.217 378.021C408.025 343.017 392.486 340.427 378.702 339.675C371.684 339.257 332.586 339.675 332.586 339.675L305.519 339.759C305.519 339.759 255.644 343.435 248.543 343.769L248.961 400.912L420.807 401.664L421.225 388.297Z" fill="#FF7394"/>
    <path d="M360.068 287.377C365.974 287.377 370.762 282.328 370.762 276.099C370.762 269.87 365.974 264.821 360.068 264.821C354.163 264.821 349.375 269.87 349.375 276.099C349.375 282.328 354.163 287.377 360.068 287.377Z" fill="#FFDBA0"/>
    <path d="M319.135 228.313C328.324 228.647 335.759 230.903 347.455 238.255C354.807 242.682 354.139 258.305 352.384 268.664C352.719 271.922 354.891 274.429 354.64 277.854C352.802 302.749 346.871 320.21 315.793 320.21C282.877 320.21 278.7 321.045 280.872 272.758C281.206 264.988 282.209 252.958 285.383 246.776C292.401 237.336 301.841 227.645 319.135 228.313Z" fill="#FFDBA0"/>
    <path d="M297.67 341.513C305.606 365.155 323.067 377.269 337.185 372.507C351.304 367.745 356.985 347.778 348.965 324.219C340.945 300.66 327.327 281.78 313.125 286.625C298.923 291.471 289.733 317.87 297.67 341.513Z" fill="#FFDBA0"/>
    <path d="M297.41 339.675C315.455 380.277 334.67 373.51 342.607 368.998C354.052 362.482 350.961 339.341 350.961 339.341L343.776 313.861" stroke="black" stroke-width="5" stroke-miterlimit="10" stroke-linecap="round" stroke-linejoin="round"/>
    <path d="M249.037 400.912C249.037 400.912 249.037 384.454 248.787 373.51C248.453 358.723 232.496 358.389 232.496 358.389C232.496 358.389 216.707 359.308 179.614 355.548C156.556 353.209 147.366 339.174 143.022 326.142C128.904 283.201 260.316 229.901 260.316 229.901L273.682 263.986C273.682 263.986 203.841 315.03 199.246 318.456C193.482 322.716 188.469 325.557 186.047 318.038C182.204 306.258 205.345 311.689 205.345 311.689C205.345 311.689 211.443 312.106 247.868 310.853C284.292 309.6 291.811 324.888 297.074 339.341" stroke="black" stroke-width="5" stroke-miterlimit="10" stroke-linecap="round" stroke-linejoin="round"/>
    <path d="M282.871 253.794C282.871 253.794 297.658 249.366 302.253 263.986C304.091 269.834 297.073 283.785 297.073 283.785L310.607 288.38" stroke="black" stroke-width="5" stroke-miterlimit="10" stroke-linejoin="round"/>
    <path d="M367.166 264.821C367.166 264.821 384.209 224.387 352.546 216.534C352.546 216.534 346.949 196.233 322.054 196.233C303.674 196.233 294.902 204.253 289.723 214.863" stroke="black" stroke-width="5" stroke-miterlimit="10" stroke-linejoin="round"/>
    <path d="M333 264.404C333 264.404 324.061 271.338 314.871 262.315" stroke="black" stroke-width="5" stroke-miterlimit="10"/>
    <path d="M295.906 299.074C295.906 299.074 307.686 294.897 319.465 301.664" stroke="black" stroke-width="5" stroke-miterlimit="10"/>
    <path d="M337.012 339.591C337.012 339.591 374.104 339.174 381.206 339.591C394.99 340.343 410.529 343.017 420.721 377.937L423.729 403" stroke="black" stroke-width="5" stroke-miterlimit="10" stroke-linecap="round" stroke-linejoin="round"/>
    <path d="M350.792 258.723L351.293 243.769C351.293 243.769 336.089 221.212 305.596 229.483C295.069 232.323 282.287 243.769 280.616 264.32C279.113 282.031 275.771 306.425 284.961 316.701C291.644 324.22 309.271 323.969 320.633 322.883C343.19 320.711 349.455 310.519 353.967 287.963C353.967 287.963 372.346 288.547 371.427 275.013C370.257 258.054 355.637 267.077 355.637 267.077L353.883 275.264" stroke="black" stroke-width="5" stroke-miterlimit="10" stroke-linejoin="round"/>
    <path d="M335.508 255.298C335.508 255.298 319.886 256.551 314.121 245.022" stroke="black" stroke-width="5" stroke-miterlimit="10"/>
    <path d="M263.074 236.584L280.199 215.365L308.854 213.276L325.563 229.066" stroke="black" stroke-width="5" stroke-miterlimit="10" stroke-linejoin="round"/>
    <path d="M394.402 401.58V385.206" stroke="black" stroke-width="5" stroke-miterlimit="10" stroke-linecap="round" stroke-linejoin="round"/>
    <path d="M269.426 253.126L285.382 246.86C285.382 246.86 293.402 235.749 289.81 228.23" stroke="black" stroke-width="5" stroke-miterlimit="10"/>
    <path d="M229.235 11.2708H25.3918C12.5263 11.2708 2 21.8806 2 34.7461V145.022C2 157.971 12.5263 168.497 25.4754 168.497H284.623V92.2232L229.235 11.2708Z" fill="#BBBEFF"/>
    <path d="M59.4724 147.612L3.33203 72.0062L78.52 42.1816L141.177 126.476L65.9887 156.3" stroke="black" stroke-width="5" stroke-miterlimit="10" stroke-linecap="round" stroke-linejoin="round"/>
    <path d="M52.5312 113.192C42.0048 101.413 42.4225 83.9526 53.3666 74.1781C64.3106 64.4037 81.7709 65.991 92.2137 77.7705C94.72 80.6109 96.6415 83.7855 97.8946 87.0436" stroke="black" stroke-width="5" stroke-miterlimit="10" stroke-linecap="round"/>
    <path d="M97.641 108.263C96.2208 111.438 94.1323 114.362 91.3754 116.868C83.1882 124.136 71.4088 125.139 61.5508 120.21" stroke="black" stroke-width="5" stroke-miterlimit="10" stroke-linecap="round"/>
    <path d="M152.961 75.0972C142.435 63.3177 142.852 45.8574 153.796 36.0829C164.74 26.3085 182.201 27.8958 192.643 39.6752C195.15 42.5157 197.071 45.6903 198.324 48.9484" stroke="black" stroke-width="5" stroke-miterlimit="10" stroke-linecap="round"/>
    <path d="M198.071 70.168C196.65 73.3426 194.562 76.2665 191.805 78.7728C183.618 86.041 171.838 87.0435 161.98 82.1145" stroke="black" stroke-width="5" stroke-miterlimit="10" stroke-linecap="round"/>
    <path d="M112.362 28.3133L176.272 3L238.928 87.2941L163.74 117.119L101 32.8246" stroke="black" stroke-width="5" stroke-miterlimit="10" stroke-linecap="round" stroke-linejoin="round"/>
    <path d="M81.4481 115.364C72.4255 115.364 63.6536 111.354 57.4714 104.337C51.9577 98.0711 49.1172 90.2181 49.2843 82.1981C49.5349 74.0945 52.8766 66.7428 58.8081 61.5632C63.9042 57.0519 70.5876 54.6292 77.5216 54.6292C86.5441 54.6292 95.3161 58.6392 101.498 65.6567C112.86 78.6058 112.275 97.8205 100.162 108.514C95.0655 112.942 88.3821 115.364 81.4481 115.364Z" fill="#3EB758"/>
    <path d="M77.6064 57.2191C85.543 57.2191 93.6465 60.6443 99.4945 67.3277C109.937 79.1907 109.436 96.651 98.4085 106.342C93.563 110.603 87.548 112.608 81.4494 112.608C73.5129 112.608 65.4093 109.182 59.5613 102.499C49.1185 90.7195 49.6198 73.2592 60.6474 63.4847C65.4093 59.3076 71.4243 57.2191 77.6064 57.2191ZM77.6064 51.7888C70.0041 51.7888 62.6524 54.4622 57.055 59.4747C43.7718 71.1706 43.1035 92.0562 55.4677 106.175C62.1511 113.777 71.6749 118.121 81.4494 118.121C89.0517 118.121 96.4034 115.448 102.001 110.435C115.284 98.7396 115.952 77.854 103.588 63.7354C96.8212 56.2166 87.3809 51.7888 77.6064 51.7888Z" fill="black"/>
    <path d="M92.3117 93.6434C81.9524 97.8205 70.173 92.8915 65.9958 82.5323C65.1604 80.5272 66.1629 78.2716 68.1679 77.4362C68.335 77.3526 68.5021 77.3526 68.6692 77.2691L72.7628 83.1171C72.5957 83.2841 72.4286 83.4512 72.3451 83.6183L72.178 83.7854C71.259 84.8714 70.5071 85.7904 71.4261 86.7094C74.9349 90.7194 80.2816 92.975 85.5447 92.7244C86.8814 92.7244 87.0485 91.6384 87.132 90.2182C87.132 90.0511 87.132 89.884 87.2156 89.7169C87.2156 89.5498 87.2156 89.4663 87.2156 89.2992L94.2331 88.1296C94.3167 88.2967 94.4002 88.3802 94.4838 88.5473C95.2356 90.5523 94.3167 92.8915 92.3117 93.6434ZM95.9875 85.4562C95.6533 85.0385 95.1521 84.8714 94.6508 84.955L85.5447 86.4588C85.0435 86.5423 84.6258 86.8765 84.3751 87.2942C84.2916 87.5448 84.2916 87.5448 84.041 89.7169C80.5322 89.5498 77.107 88.1296 74.4336 85.7069C75.7703 84.1196 75.7703 84.1196 75.9374 83.7854C76.1045 83.2841 76.0209 82.7829 75.7703 82.3652L70.4236 74.8464C70.0894 74.4287 69.5882 74.178 69.0869 74.178C68.6692 74.178 68.335 74.2616 68.0009 74.3451C67.6667 74.4287 67.249 74.5122 66.9148 74.6793C63.406 76.0995 61.6517 80.1931 63.0719 83.7019C67.9173 95.5649 81.4512 101.246 93.3142 96.4838C96.8229 95.0636 98.5773 90.97 97.1571 87.4613C96.99 87.1271 96.8229 86.7929 96.6558 86.4588C96.4888 86.041 96.2381 85.7904 95.9875 85.4562ZM79.2791 79.4412C81.6182 78.5222 84.2081 79.6083 85.2106 81.9475C85.5447 82.6993 86.3802 83.1171 87.2156 82.7829C87.9675 82.4487 88.3852 81.6133 88.051 80.7779C86.4637 76.9349 82.036 75.097 78.193 76.6008C77.4411 76.9349 77.0234 77.7704 77.3576 78.6058C77.6082 79.3577 78.5272 79.7754 79.2791 79.4412ZM90.8079 79.6083C88.6358 74.178 82.4537 71.5882 77.0234 73.8439C76.2715 74.178 75.3526 73.7603 75.0184 73.0084C74.6842 72.2566 75.1019 71.3376 75.8538 71.0034C82.7878 68.163 90.7244 71.5047 93.5648 78.4387C93.899 79.1906 93.4812 80.1095 92.7294 80.4437C91.9775 80.7779 91.0585 80.3602 90.8079 79.6083Z" fill="white"/>
    <path d="M73.7617 169.332L283.286 89.8003L227.062 8.09595" stroke="black" stroke-width="5" stroke-miterlimit="10" stroke-linecap="round" stroke-linejoin="round"/>
    <path d="M298.242 182.783L288.635 151.622L278.359 131.07L243.773 125.891L230.824 109.517L201.417 96.8181L198.242 101.496L200.832 107.177L205.009 114.446L219.629 119.876L229.236 147.278L229.738 156.384L225.728 160.895L215.368 157.887L205.009 156.05L201.166 157.637L203.171 163.234L213.53 174.011L235.836 182.031L248.2 186.208L298.242 182.783Z" fill="white"/>
    <path d="M246.022 137.002L230.817 109.517L201.41 96.8181C201.41 96.8181 194.059 105.005 207.008 112.858C210.516 114.947 219.957 121.881 219.957 121.881L229.23 147.361C229.23 147.361 234.075 163.652 220.458 160.979C220.458 160.979 207.425 150.786 199.238 159.224L213.44 174.095L243.098 184.705" stroke="black" stroke-width="5" stroke-miterlimit="10" stroke-linecap="round" stroke-linejoin="round"/>
    <path d="M283.289 89.8003V134.997" stroke="black" stroke-width="5" stroke-miterlimit="10" stroke-linecap="round" stroke-linejoin="round"/>
    <path d="M296.232 182.95C296.232 182.95 296.232 169.583 291.47 154.796C288.881 146.86 284.536 138.088 278.354 131.07L240.844 125.891" stroke="black" stroke-width="5" stroke-miterlimit="10" stroke-linecap="round" stroke-linejoin="round"/>
    <path d="M254.133 127.729L259.647 137.42" stroke="black" stroke-width="5" stroke-miterlimit="10" stroke-linecap="round" stroke-linejoin="round"/>
    <path d="M267.164 129.483L272.761 139.09" stroke="black" stroke-width="5" stroke-miterlimit="10" stroke-linecap="round" stroke-linejoin="round"/>
    <path d="M195.82 71.8809C208.234 63.1449 210.936 45.6019 201.855 32.6973C192.774 19.7928 175.349 16.4135 162.935 25.1494C150.521 33.8854 147.819 51.4285 156.9 64.333C165.981 77.2376 183.406 80.6168 195.82 71.8809Z" fill="#FF3880" stroke="black" stroke-width="5" stroke-miterlimit="10"/>
    <path d="M195.734 46.9434C196.57 44.9383 195.567 42.6827 193.562 41.8473C183.287 37.5866 171.424 42.5156 167.163 52.8749C166.328 54.8799 167.33 57.1355 169.335 57.9709C169.502 58.0545 169.669 58.0545 169.836 58.138L173.93 52.2901C173.763 52.0394 173.512 51.7888 173.345 51.5382C172.426 50.3686 171.674 49.6167 172.677 48.6142C176.186 44.6877 181.532 42.4321 186.879 42.7662C188.216 42.6827 188.299 43.8523 188.383 45.3561C188.383 45.6902 188.466 45.9409 188.466 46.275L195.484 47.4446C195.651 47.194 195.734 47.0269 195.734 46.9434ZM164.49 51.6217C169.335 39.7587 182.953 34.0779 194.816 39.0068C198.324 40.4271 200.079 44.5206 198.575 48.0294C198.408 48.3636 198.241 48.6977 198.074 49.0319C197.907 49.3661 197.656 49.6167 197.405 49.9509C197.071 50.3686 196.57 50.5357 195.985 50.4521L186.879 48.9484C186.378 48.8648 185.96 48.5307 185.709 48.0294C185.626 47.7788 185.626 47.7788 185.375 45.6902C181.783 45.8573 178.358 47.2775 175.768 49.7003C177.105 51.2876 177.105 51.2876 177.272 51.6217C177.439 52.123 177.355 52.6242 177.105 53.0419L171.758 60.5607C171.424 60.9785 170.922 61.2291 170.421 61.2291C170.003 61.2291 169.669 61.1455 169.335 61.062C169.001 60.9785 168.583 60.8949 168.249 60.7278C164.657 59.2241 162.986 55.1305 164.49 51.6217Z" fill="white"/>
</svg>
