<svg width="41" height="40" viewBox="0 0 41 40" fill="none" xmlns="http://www.w3.org/2000/svg">
<g clip-path="url(#clip0_4487_152759)">
<path d="M20.5 40C31.5457 40 40.5 31.0457 40.5 20C40.5 8.95432 31.5457 0 20.5 0C9.45432 0 0.5 8.95432 0.5 20C0.5 31.0457 9.45432 40 20.5 40Z" fill="#626262"/>
<path d="M8.8237 19.8266C8.8237 19.8266 18.8237 15.7226 22.2919 14.2775C23.6214 13.6995 28.13 11.8497 28.13 11.8497C28.13 11.8497 30.211 11.0405 30.0376 13.0058C29.9797 13.8151 29.5173 16.6474 29.0549 19.711C28.3612 24.0463 27.6098 28.7861 27.6098 28.7861C27.6098 28.7861 27.4942 30.1156 26.5116 30.3468C25.5289 30.578 23.9104 29.5376 23.6214 29.3063C23.3901 29.133 19.2861 26.5318 17.7832 25.2601C17.3786 24.9133 16.9162 24.2197 17.841 23.4104C19.9219 21.5029 22.4075 19.133 23.9104 17.6301C24.604 16.9364 25.2976 15.3179 22.4075 17.2832C18.3035 20.1156 14.2572 22.7746 14.2572 22.7746C14.2572 22.7746 13.3323 23.3526 11.5983 22.8323C9.8641 22.3122 7.84098 21.6185 7.84098 21.6185C7.84098 21.6185 6.45378 20.7515 8.8237 19.8266Z" fill="white"/>
</g>
<defs>
<clipPath id="clip0_4487_152759">
<rect width="40" height="40" fill="white" transform="translate(0.5)"/>
</clipPath>
</defs>
</svg>
