<svg width="85" height="79" viewBox="0 0 85 79" fill="none" xmlns="http://www.w3.org/2000/svg">
<circle cx="45" cy="37" r="37" fill="#C6D2FF"/>
<g clip-path="url(#clip0_3532_116793)">
<path d="M33.5992 40.7C32.7992 40.7 32.1992 40.1 32.1992 39.3V13C32.1992 12.2 32.7992 11.6 33.5992 11.6C34.3992 11.6 34.9992 12.2 34.9992 13V39.3C34.9992 40.1 34.2992 40.7 33.5992 40.7Z" fill="#FF008A"/>
<path d="M39.5015 31.5C39.3015 31.5 39.0015 31.4 38.8015 31.3L15.3015 17.5C14.6015 17.1 14.4015 16.2 14.8015 15.6C15.2015 14.9 16.1015 14.7 16.7015 15.1L40.2015 28.8C40.9015 29.2 41.1015 30.1 40.7015 30.7C40.5015 31.2 40.0015 31.5 39.5015 31.5Z" fill="#FF008A"/>
<path d="M39.8 43.5C39.6 43.5 39.3 43.4 39.1 43.3L14.2 29C13.8 28.7 13.5 28.3 13.5 27.8V1.39998C13.5 0.899976 13.8 0.399976 14.2 0.199976C14.6 -0.100024 15.2 -0.100024 15.6 0.199976L40.5 14.6C40.9 14.9 41.2 15.3 41.2 15.8V42.1C41.2 42.6 40.9 43.1 40.5 43.3C40.3 43.5 40.1 43.5 39.8 43.5ZM16.4 26.9L38.5 39.6V16.6L16.4 3.89998V26.9Z" fill="#FF008A"/>
<path d="M21.0992 32.6C20.2992 32.6 19.6992 32 19.6992 31.2V4.80002C19.6992 4.00002 20.2992 3.40002 21.0992 3.40002C21.8992 3.40002 22.4992 4.00002 22.4992 4.80002V31.1C22.4992 32 21.7992 32.6 21.0992 32.6Z" fill="#FF008A"/>
<path d="M27.4 36.4C26.6 36.4 26 35.7999 26 35V8.59995C26 7.79995 26.6 7.19995 27.4 7.19995C28.2 7.19995 28.8 7.79995 28.8 8.59995V34.9C28.8 35.7 28.2 36.4 27.4 36.4Z" fill="#FF008A"/>
<path d="M74.2984 25.3C71.6984 20.3 66.7984 17.7 63.4984 19.4C63.2984 19.5 62.9984 19.7 62.7984 19.9L49.8984 28.3L59.7984 46.2001L72.8984 37.6C76.2984 35.8 76.8984 30.3 74.2984 25.3Z" fill="white"/>
<path d="M59.6984 47.5C59.5984 47.5 59.4984 47.5 59.3984 47.5C58.9984 47.4 58.6984 47.2 58.4984 46.8L48.5984 28.9C48.1984 28.2 48.3984 27.4 49.0984 27L61.8984 18.6C62.1984 18.4 62.4984 18.2 62.7984 18.1C64.8984 17 67.3984 17.2 69.7984 18.5C72.0984 19.7 74.0984 21.9 75.4984 24.6C76.8984 27.3 77.4984 30.2 77.1984 32.8C76.8984 35.6 75.5984 37.7 73.5984 38.8L60.4984 47.4C60.2984 47.5 59.9984 47.5 59.6984 47.5ZM51.6984 28.7L60.1984 44.1L72.0984 36.3C72.0984 36.3 72.1984 36.3 72.1984 36.2C73.3984 35.6 74.1984 34.2 74.3984 32.4C74.5984 30.4 74.0984 28 72.9984 25.9C71.8984 23.7 70.1984 22 68.3984 21C66.7984 20.1 65.1984 20 63.9984 20.6C63.8984 20.7 63.6984 20.8 63.4984 20.9C63.4984 20.9 63.3984 20.9 63.3984 21L51.6984 28.7Z" fill="black"/>
<path d="M59.702 46.0522C63.0798 44.2878 63.7038 38.8095 61.0955 33.8162C58.4873 28.8228 53.6346 26.2052 50.2568 27.9696C46.8789 29.734 46.255 35.2122 48.8632 40.2056C51.4714 45.1989 56.3241 47.8166 59.702 46.0522Z" fill="white"/>
<path d="M57.3986 48.1C53.7986 48.1 49.9986 45.4 47.5986 40.9C44.5986 35.1 45.3986 28.9 49.5986 26.7C53.7986 24.5 59.2986 27.4 62.3986 33.2C65.3986 39 64.5986 45.2 60.3986 47.4C59.4986 47.9 58.4986 48.1 57.3986 48.1ZM52.5986 28.8C51.9986 28.8 51.4986 28.9 50.9986 29.2C48.3986 30.6 47.9986 35.3 50.1986 39.5C52.3986 43.7 56.4986 46.2 59.0986 44.8C61.6986 43.4 62.0986 38.7 59.8986 34.5C58.0986 31.1 54.9986 28.8 52.5986 28.8Z" fill="black"/>
<path d="M55.6977 35.9999C52.1977 29.2999 45.6977 25.7999 41.1977 28.1999C40.8977 28.3999 40.5977 28.5999 40.2977 28.7999L23.0977 39.9999L36.2977 63.7999L53.7977 52.2999C58.2977 49.9999 59.0977 42.6999 55.6977 35.9999Z" fill="white"/>
<path d="M36.2992 65.3C36.1992 65.3 36.0992 65.3 35.9992 65.3C35.5992 65.2 35.2992 65 35.0992 64.6L21.8992 40.7C21.4992 40 21.6992 39.2 22.3992 38.8L39.4992 27.6C39.8992 27.3 40.1992 27.1 40.5992 26.9C45.7992 24.2 53.0992 28 56.9992 35.3C60.7992 42.6 59.7992 50.8 54.5992 53.5L37.0992 65C36.8992 65.2 36.5992 65.3 36.2992 65.3ZM24.9992 40.5L36.7992 61.9L52.9992 51.3C52.9992 51.3 53.0992 51.3 53.0992 51.2C56.7992 49.3 57.3992 42.6 54.2992 36.8C51.1992 30.9 45.4992 27.6 41.7992 29.6C41.5992 29.7 41.2992 29.9 41.0992 30.1C41.0992 30.1 40.9992 30.1 40.9992 30.2L24.9992 40.5Z" fill="black"/>
<path d="M36.3149 63.8535C40.8187 61.501 41.6506 54.1967 38.173 47.5389C34.6953 40.8811 28.2251 37.3909 23.7213 39.7435C19.2175 42.096 18.3856 49.4003 21.8632 56.0581C25.3408 62.7159 31.8111 66.206 36.3149 63.8535Z" fill="white"/>
<path d="M33.2994 66.0001C31.5994 66.0001 29.8994 65.5001 28.0994 64.6001C25.0994 63.0001 22.4994 60.2001 20.6994 56.7001C18.8994 53.2001 18.0994 49.5001 18.4994 46.1001C18.8994 42.5001 20.5994 39.8001 23.1994 38.5001C28.3994 35.8001 35.6994 39.6001 39.5994 46.9001C41.3994 50.4001 42.1994 54.1001 41.7994 57.5001C41.3994 61.1001 39.6994 63.8001 37.0994 65.1001C35.7994 65.7001 34.5994 66.0001 33.2994 66.0001ZM26.6994 40.4001C25.8994 40.4001 25.0994 40.6001 24.2994 41.0001C22.5994 41.9001 21.3994 43.8001 21.0994 46.4001C20.7994 49.2001 21.4994 52.4001 22.9994 55.4001C24.5994 58.4001 26.7994 60.8001 29.2994 62.1001C31.5994 63.3001 33.7994 63.5001 35.5994 62.6001C37.2994 61.7001 38.4994 59.8001 38.7994 57.2001C39.0994 54.4001 38.3994 51.2001 36.8994 48.2001C34.3994 43.4001 30.1994 40.4001 26.6994 40.4001Z" fill="black"/>
<path d="M32.1168 76.5678C37.3674 72.9946 36.2084 62.1402 29.528 52.3239C22.8476 42.5075 13.1756 37.4465 7.92502 41.0197C2.67442 44.593 3.83349 55.4473 10.5139 65.2637C17.1943 75.08 26.8662 80.1411 32.1168 76.5678Z" fill="white"/>
<path d="M28.0981 78.9C22.2981 78.9 14.9981 74 9.39807 65.9C2.19807 55.3 1.19807 43.9 7.09807 39.9C12.9981 35.9 23.1981 41 30.3981 51.6C37.5981 62.2 38.5981 73.6 32.6981 77.6C31.4981 78.5 29.8981 78.9 28.0981 78.9ZM11.7981 41.1C10.5981 41.1 9.49807 41.4 8.59807 42C3.99807 45.1 5.39807 55.4 11.5981 64.5C17.7981 73.6 26.8981 78.6 31.3981 75.5C35.9981 72.4 34.5981 62.1 28.3981 53C23.4981 45.8 16.6981 41.1 11.7981 41.1Z" fill="black"/>
<path d="M58.5977 26.4V52.7L83.4977 67.1V40.8L58.5977 26.4Z" fill="white"/>
<path d="M83.4992 68.5C83.2992 68.5 82.9992 68.4 82.7992 68.3L57.8992 54C57.4992 53.7 57.1992 53.3 57.1992 52.8V26.4C57.1992 25.9 57.4992 25.4 57.8992 25.2C58.2992 24.9 58.8992 24.9 59.2992 25.2L84.1992 39.6C84.5992 39.9 84.8992 40.3 84.8992 40.8V67.1C84.8992 67.6 84.5992 68.1 84.1992 68.3C83.9992 68.5 83.7992 68.5 83.4992 68.5ZM60.0992 51.9L82.1992 64.6V41.6L60.0992 28.9V51.9Z" fill="#FF008A"/>
<path d="M83.2007 56.4C83.0007 56.4 82.7007 56.3 82.5007 56.2L59.0007 42.5C58.3007 42.1 58.1007 41.2 58.5007 40.6C58.9007 39.9 59.8007 39.7 60.4007 40.1L83.9007 53.8C84.6007 54.2 84.8007 55.1 84.4007 55.7C84.2007 56.2 83.7007 56.4 83.2007 56.4Z" fill="#FF008A"/>
<path d="M64.7984 57.6C63.9984 57.6 63.3984 57 63.3984 56.2V29.8C63.3984 29 63.9984 28.4 64.7984 28.4C65.5984 28.4 66.1984 29 66.1984 29.8V56.1C66.1984 56.9 65.4984 57.6 64.7984 57.6Z" fill="#FF008A"/>
<path d="M71.0992 61.2999C70.2992 61.2999 69.6992 60.7 69.6992 59.9V33.5999C69.6992 32.7999 70.2992 32.2 71.0992 32.2C71.8992 32.2 72.4992 32.7999 72.4992 33.5999V59.9C72.4992 60.7 71.8992 61.2999 71.0992 61.2999Z" fill="#FF008A"/>
<path d="M77.2984 65.3C76.4984 65.3 75.8984 64.7 75.8984 63.9V38.3C75.8984 37.5 76.4984 36.9 77.2984 36.9C78.0984 36.9 78.6984 37.5 78.6984 38.3V63.9C78.6984 64.6 78.0984 65.3 77.2984 65.3Z" fill="#FF008A"/>
<path d="M1.40029 72.3001C0.900291 72.3001 0.500291 72.1 0.200291 71.7C-0.199709 71 0.000291169 70.2 0.600291 69.7L3.60029 67.7C4.30029 67.3 5.10029 67.5 5.60029 68.1C6.00029 68.8 5.80029 69.6 5.20029 70.1L2.20029 72.1C2.00029 72.2 1.70029 72.3001 1.40029 72.3001Z" fill="black"/>
<path d="M5.49992 67C5.39992 67 5.19992 67 5.09992 66.9C4.39992 66.7 3.99992 65.9 4.19992 65.1L11.3999 43.2C11.5999 42.5 12.3999 42.1 13.1999 42.3C13.8999 42.5 14.2999 43.3 14.0999 44.1L6.89992 66C6.69992 66.6 6.09992 67 5.49992 67Z" fill="black"/>
<path d="M31.3007 72.3001H31.2007L7.90075 70.2001C7.10075 70.1001 6.50075 69.4001 6.60075 68.7001C6.70075 67.9001 7.40075 67.3001 8.10075 67.4001L31.4007 69.5001C32.2007 69.6001 32.8007 70.3001 32.7007 71.0001C32.7007 71.8001 32.0007 72.3001 31.3007 72.3001Z" fill="black"/>
<path d="M9.70074 66.5C9.20074 66.5 8.80074 66.3 8.50074 65.8C8.10074 65.1 8.30074 64.3 9.00074 63.9L25.1007 54.2C25.8007 53.8 26.6007 54 27.0007 54.7C27.4007 55.4 27.2007 56.2 26.5007 56.6L10.4007 66.3C10.2007 66.5 9.90074 66.5 9.70074 66.5Z" fill="black"/>
</g>
<defs>
<clipPath id="clip0_3532_116793">
<rect width="84.9" height="78.9" fill="white"/>
</clipPath>
</defs>
</svg>
