<svg width="85" height="74" viewBox="0 0 85 74" fill="none" xmlns="http://www.w3.org/2000/svg">
<circle cx="42" cy="37" r="37" fill="#C6D2FF"/>
<g clip-path="url(#clip0_3532_116505)">
<path d="M15.2023 22.6H12.4023V41.4H15.2023V22.6Z" fill="black"/>
<path d="M18 22.6H9.6C8.7 22.6 8 21.9 8 21V19C8 18.1 8.7 17.4 9.6 17.4H18C18.9 17.4 19.6 18.1 19.6 19V21C19.6 21.9 18.9 22.6 18 22.6Z" fill="white"/>
<path d="M18.0016 24H9.60156C7.90156 24 6.60156 22.6 6.60156 21V19C6.60156 17.3 8.00156 16 9.60156 16H18.0016C19.7016 16 21.0016 17.4 21.0016 19V21C21.0016 22.7 19.7016 24 18.0016 24ZM9.60156 18.8C9.50156 18.8 9.40156 18.9 9.40156 19V21C9.40156 21.1 9.50156 21.2 9.60156 21.2H18.0016C18.1016 21.2 18.2016 21.1 18.2016 21V19C18.2016 18.9 18.1016 18.8 18.0016 18.8H9.60156Z" fill="black"/>
<path d="M36.2992 41.1C37.1829 41.1 37.8992 40.3837 37.8992 39.5C37.8992 38.6164 37.1829 37.9 36.2992 37.9C35.4156 37.9 34.6992 38.6164 34.6992 39.5C34.6992 40.3837 35.4156 41.1 36.2992 41.1Z" fill="black"/>
<path d="M17 54.6H10.5C9.1 54.6 8 53.4 8 52V44C8 42.6 9.2 41.4 10.6 41.4H17C18.4 41.4 19.6 42.6 19.6 44V52C19.6 53.4 18.4 54.6 17 54.6Z" fill="white"/>
<path d="M17 56H10.5C8.3 56 6.5 54.2 6.5 52V44C6.5 41.8 8.3 40 10.5 40H17C19.2 40 21 41.8 21 44V52C21 54.2 19.2 56 17 56ZM10.5 42.8C9.9 42.8 9.4 43.3 9.4 43.9V52C9.4 52.6 9.9 53.1 10.5 53.1H17C17.6 53.1 18.1 52.6 18.1 52V44C18.1 43.4 17.6 42.9 17 42.9H10.5V42.8Z" fill="black"/>
<path d="M37.6008 22.6H34.8008V29.2H37.6008V22.6Z" fill="black"/>
<path d="M40.5 22.6H32.1C31.2 22.6 30.5 21.9 30.5 21V19C30.5 18.1 31.2 17.4 32.1 17.4H40.5C41.4 17.4 42.1 18.1 42.1 19V21C42.1 21.9 41.3 22.6 40.5 22.6Z" fill="white"/>
<path d="M40.5016 24H32.1016C30.4016 24 29.1016 22.6 29.1016 21V19C29.1016 17.3 30.5016 16 32.1016 16H40.5016C42.2016 16 43.5016 17.4 43.5016 19V21C43.5016 22.7 42.1016 24 40.5016 24ZM32.1016 18.8C32.0016 18.8 31.9016 18.9 31.9016 19V21C31.9016 21.1 32.0016 21.2 32.1016 21.2H40.5016C40.6016 21.2 40.7016 21.1 40.7016 21V19C40.7016 18.9 40.6016 18.8 40.5016 18.8H32.1016Z" fill="black"/>
<path d="M39.4984 54.6H32.9984C31.5984 54.6 30.3984 53.4 30.3984 52V44C30.3984 42.6 31.5984 41.4 32.9984 41.4H39.4984C40.8984 41.4 42.0984 42.6 42.0984 44V52C42.0984 53.4 40.8984 54.6 39.4984 54.6Z" fill="white"/>
<path d="M39.5 56H33C30.8 56 29 54.2 29 52V44C29 41.8 30.8 40 33 40H39.5C41.7 40 43.5 41.8 43.5 44V52C43.5 54.2 41.7 56 39.5 56ZM33 42.8C32.4 42.8 31.9 43.3 31.9 43.9V52C31.9 52.6 32.4 53.1 33 53.1H39.5C40.1 53.1 40.6 52.6 40.6 52V44C40.6 43.4 40.1 42.9 39.5 42.9H33V42.8Z" fill="black"/>
<path d="M19.0977 49.1001V40.0001C19.0977 36.7001 21.7977 34.1001 24.9977 34.1001C28.2977 34.1001 30.8977 36.8001 30.8977 40.0001V49.1001C30.8977 52.4001 28.1977 55.0001 24.9977 55.0001C21.7977 55.1001 19.0977 52.4001 19.0977 49.1001Z" fill="white"/>
<path d="M24.9992 56.5C20.8992 56.5 17.6992 53.2001 17.6992 49.2001V40.1C17.6992 36.0001 20.9992 32.8 24.9992 32.8C29.0992 32.8 32.2992 36.1 32.2992 40.1V49.2001C32.3992 53.2001 29.0992 56.5 24.9992 56.5ZM24.9992 35.5C22.4992 35.5 20.4992 37.5 20.4992 40V49.1C20.4992 51.6 22.4992 53.6 24.9992 53.6C27.4992 53.6 29.4992 51.6 29.4992 49.1V40C29.4992 37.6 27.4992 35.5 24.9992 35.5Z" fill="black"/>
<path d="M40.2984 63.4H9.79844C7.09844 63.4 4.89844 61.2 4.89844 58.5V53.5C4.89844 50.8 7.09844 48.6 9.79844 48.6H40.2984C42.9984 48.6 45.1984 50.8 45.1984 53.5V58.5C45.0984 61.2 42.8984 63.4 40.2984 63.4Z" fill="white"/>
<path d="M40.3 64.7999H9.8C6.3 64.7999 3.5 62 3.5 58.5V53.5C3.5 50 6.3 47.2 9.8 47.2H40.3C43.8 47.2 46.6 50 46.6 53.5V58.5C46.6 62 43.7 64.7999 40.3 64.7999ZM9.8 50.0999C7.9 50.0999 6.3 51.6999 6.3 53.5999V58.5999C6.3 60.4999 7.9 62.0999 9.8 62.0999H40.3C42.2 62.0999 43.8 60.4999 43.8 58.5999V53.5999C43.8 51.6999 42.2 50.0999 40.3 50.0999H9.8Z" fill="black"/>
<path d="M80.3984 67.7001H3.89844C2.49844 67.7001 1.39844 66.6001 1.39844 65.2001V59.7001C1.39844 58.3001 2.49844 57.2001 3.89844 57.2001H80.3984C81.7984 57.2001 82.8984 58.3001 82.8984 59.7001V65.2001C82.7984 66.6001 81.6984 67.7001 80.3984 67.7001Z" fill="white"/>
<path d="M80.4 69.1H3.9C1.8 69.1 0 67.4001 0 65.2001V59.7001C0 57.6001 1.7 55.8 3.9 55.8H80.4C82.5 55.8 84.3 57.5001 84.3 59.7001V65.2001C84.3 67.3001 82.5 69.1 80.4 69.1ZM3.9 58.6C3.3 58.6 2.8 59.1001 2.8 59.7001V65.2001C2.8 65.8001 3.3 66.3 3.9 66.3H80.4C81 66.3 81.5 65.8001 81.5 65.2001V59.7001C81.5 59.1001 81 58.6 80.4 58.6H3.9Z" fill="black"/>
<path d="M80.4008 58.6C52.9008 58.6 47.4008 36.3 46.4008 30.6H7.20078C6.40078 30.6 5.80078 30 5.80078 29.2C5.80078 28.4 6.40078 27.8 7.20078 27.8H47.6008C48.3008 27.8 49.0008 28.4 49.0008 29.1C49.1008 30.2 51.6008 55.8 80.3008 55.8C81.1008 55.8 81.7008 56.4001 81.7008 57.2001C81.7008 58 81.1008 58.6 80.4008 58.6Z" fill="black"/>
<path d="M24.9984 41.1C25.8821 41.1 26.5984 40.3837 26.5984 39.5C26.5984 38.6164 25.8821 37.9 24.9984 37.9C24.1148 37.9 23.3984 38.6164 23.3984 39.5C23.3984 40.3837 24.1148 41.1 24.9984 41.1Z" fill="black"/>
<path d="M47.5984 30.6C47.1984 30.6 46.8984 30.5 46.5984 30.2C45.9984 29.6 45.9984 28.7 46.5984 28.2L53.9984 20.9C54.2984 20.6 54.5984 20.5 54.9984 20.5H80.3984C81.1984 20.5 81.7984 21.1 81.7984 21.9C81.7984 22.7 81.1984 23.3 80.3984 23.3H55.5984L48.6984 30.2C48.3984 30.5 47.9984 30.6 47.5984 30.6Z" fill="black"/>
<path d="M80.0977 27H71.6977C70.7977 27 70.0977 26.3 70.0977 25.4V23.4C70.0977 22.5 70.7977 21.8 71.6977 21.8H80.0977C80.9977 21.8 81.6977 22.5 81.6977 23.4V25.4C81.6977 26.3 80.9977 27 80.0977 27Z" fill="white"/>
<path d="M80.0992 28.5H71.6992C69.9992 28.5 68.6992 27.1 68.6992 25.5V23.5C68.6992 21.8 70.0992 20.5 71.6992 20.5H80.0992C81.7992 20.5 83.0992 21.9 83.0992 23.5V25.5C83.0992 27.1 81.7992 28.5 80.0992 28.5ZM71.6992 23.3C71.5992 23.3 71.4992 23.4 71.4992 23.5V25.5C71.4992 25.6 71.5992 25.7 71.6992 25.7H80.0992C80.1992 25.7 80.2992 25.6 80.2992 25.5V23.5C80.2992 23.4 80.1992 23.3 80.0992 23.3H71.6992Z" fill="#FF008A"/>
<path d="M80.0977 56.7H71.6977C70.7977 56.7 70.0977 56 70.0977 55.1V53.1C70.0977 52.2 70.7977 51.5 71.6977 51.5H80.0977C80.9977 51.5 81.6977 52.2 81.6977 53.1V55.1C81.6977 56 80.9977 56.7 80.0977 56.7Z" fill="white"/>
<path d="M80.0992 58.2H71.6992C69.9992 58.2 68.6992 56.8 68.6992 55.2V53.2C68.6992 51.5 70.0992 50.2 71.6992 50.2H80.0992C81.7992 50.2 83.0992 51.6 83.0992 53.2V55.2C83.0992 56.8 81.7992 58.2 80.0992 58.2ZM71.6992 53C71.5992 53 71.4992 53.1 71.4992 53.2V55.2C71.4992 55.3 71.5992 55.4 71.6992 55.4H80.0992C80.1992 55.4 80.2992 55.3 80.2992 55.2V53.2C80.2992 53.1 80.1992 53 80.0992 53H71.6992Z" fill="#FF008A"/>
</g>
<defs>
<clipPath id="clip0_3532_116505">
<rect width="84.3" height="53.1" fill="white" transform="translate(0 16)"/>
</clipPath>
</defs>
</svg>
