<svg width="74" height="74" viewBox="0 0 74 74" fill="none" xmlns="http://www.w3.org/2000/svg">
<circle cx="37" cy="37" r="37" fill="#C6D2FF"/>
<g clip-path="url(#clip0_3532_116449)">
<path d="M40.8984 73.8C27.6984 73.8 16.8984 59.3 16.8984 41.4C16.8984 23.5 27.5984 9 40.8984 9C54.0984 9 64.8984 23.5 64.8984 41.4C64.8984 59.3 54.0984 73.8 40.8984 73.8ZM40.8984 11.8C29.1984 11.8 19.6984 25.1 19.6984 41.4C19.6984 57.7 29.1984 71 40.8984 71C52.4984 71 61.9984 57.7 61.9984 41.4C61.9984 25.1 52.4984 11.8 40.8984 11.8Z" fill="black"/>
<path d="M32.9984 72.4C45.4801 72.4 55.5984 58.5209 55.5984 41.4C55.5984 24.2792 45.4801 10.4 32.9984 10.4C20.5168 10.4 10.3984 24.2792 10.3984 41.4C10.3984 58.5209 20.5168 72.4 32.9984 72.4Z" fill="white"/>
<path d="M33 73.8C19.8 73.8 9 59.3 9 41.4C9 23.5 19.8 9 33 9C46.2 9 57 23.5 57 41.4C57 59.3 46.3 73.8 33 73.8ZM33 11.8C21.3 11.8 11.8 25.1 11.8 41.4C11.8 57.7 21.3 71 33 71C44.7 71 54.2 57.7 54.2 41.4C54.2 25.1 44.7 11.8 33 11.8Z" fill="black"/>
<path d="M33.0016 67.8C32.2016 67.8 31.6016 67.2 31.6016 66.4V16.4C31.6016 15.6 32.2016 15 33.0016 15C33.8016 15 34.4016 15.6 34.4016 16.4V66.4C34.4016 67.2 33.8016 67.8 33.0016 67.8Z" fill="black"/>
<path d="M48.5 32.5C47.5 28.7 45.9 25.3 43.9 22.7L33 41.4L48.5 32.5Z" fill="white"/>
<path d="M32.9985 42.7999C32.5985 42.7999 32.2985 42.7 31.9985 42.4C31.4985 41.9 31.4985 41.2 31.7985 40.7L42.5985 21.9C42.7985 21.5 43.2985 21.2 43.6985 21.2C44.1985 21.2 44.5985 21.4 44.8985 21.8C47.0985 24.6 48.6985 28.2 49.7985 32.1C49.9985 32.7 49.6985 33.4 49.0985 33.7L33.5985 42.5999C33.4985 42.7999 33.2985 42.7999 32.9985 42.7999ZM43.8985 25.3L36.7985 37.5L46.6985 31.8C46.0985 29.4 45.0985 27.2 43.8985 25.3Z" fill="#FF3880"/>
<path d="M48.5 50.3C49.2 47.5 49.6 44.5 49.6 41.4H33L48.5 50.3Z" fill="white"/>
<path d="M48.4988 51.7C48.2988 51.7 47.9988 51.6 47.7988 51.5L32.2988 42.6C31.6988 42.3 31.4988 41.6 31.5988 41C31.6988 40.4 32.3988 40 32.9988 40H49.5988C50.3988 40 50.9988 40.6 50.9988 41.4C50.9988 44.6 50.5988 47.7 49.7988 50.7C49.6988 51.1 49.3988 51.5 48.9988 51.6C48.7988 51.7 48.5988 51.7 48.4988 51.7ZM38.2988 42.8L47.4988 48.1C47.8988 46.4 48.0988 44.6 48.0988 42.8H38.2988Z" fill="#FF3880"/>
<path d="M33.0031 16.4C28.9031 16.4 25.1031 18.8 22.2031 22.6L33.0031 41.4V16.4Z" fill="white"/>
<path d="M33.0015 42.8C32.5015 42.8 32.0015 42.5 31.8015 42.1L21.0015 23.4C20.7015 22.9 20.8015 22.3 21.1015 21.8C24.4015 17.4 28.6015 15 33.0015 15C33.8015 15 34.4015 15.6 34.4015 16.4V41.4C34.4015 42 34.0015 42.6 33.4015 42.8C33.3015 42.8 33.1015 42.8 33.0015 42.8ZM23.9015 22.8L31.6015 36.1V17.9C28.8015 18.4 26.2015 20.1 23.9015 22.8Z" fill="#FF3880"/>
<path d="M43.8 22.7C40.9 18.8 37.1 16.4 33 16.4V41.4L43.8 22.7Z" fill="white"/>
<path d="M33.0016 42.8C32.9016 42.8 32.8016 42.8 32.6016 42.8C32.0016 42.6 31.6016 42.1 31.6016 41.4V16.4C31.6016 15.6 32.2016 15 33.0016 15C37.4016 15 41.6016 17.4 45.0016 21.8C45.3016 22.3 45.4016 22.9 45.1016 23.4L34.2016 42.1C34.0016 42.6 33.5016 42.8 33.0016 42.8ZM34.4016 17.9V36.1L42.1016 22.8C39.8016 20.1 37.2016 18.4 34.4016 17.9Z" fill="#FF008A"/>
<path d="M49.6 41.4C49.6 38.3 49.2 35.3 48.5 32.5L33 41.4H49.6Z" fill="white"/>
<path d="M49.6008 42.8H33.0008C32.4008 42.8 31.8008 42.4 31.6008 41.7C31.4008 41 31.7008 40.4 32.3008 40.1L47.8008 31.2C48.2008 31 48.6008 30.9 49.1008 31.1C49.5008 31.3 49.8008 31.6 49.9008 32C50.7008 35 51.1008 38.1 51.1008 41.3C51.0008 42.2 50.4008 42.8 49.6008 42.8ZM38.3008 40H48.2008C48.1008 38.2 47.9008 36.4 47.6008 34.7L38.3008 40Z" fill="#FF008A"/>
<path d="M22.1977 22.7C20.1977 25.4 18.5977 28.7 17.5977 32.5L32.9977 41.4L22.1977 22.7Z" fill="white"/>
<path d="M32.9988 42.7999C32.7988 42.7999 32.4988 42.6999 32.2988 42.5999L16.7988 33.7C16.1988 33.4 15.9988 32.7 16.0988 32.1C17.0988 28.2 18.7988 24.6 20.9988 21.8C21.2988 21.4 21.6988 21.2 22.1988 21.2C22.6988 21.2 23.0988 21.5 23.2988 21.9L34.0988 40.7C34.3988 41.3 34.2988 42 33.8988 42.4C33.6988 42.7 33.3988 42.7999 32.9988 42.7999ZM19.1988 31.8L29.0988 37.5L21.9988 25.3C20.8988 27.2 19.8988 29.4 19.1988 31.8Z" fill="#FF008A"/>
<path d="M22.1992 60.2C25.0992 64.1 28.8992 66.4 32.9992 66.4V41.4L22.1992 60.2Z" fill="white"/>
<path d="M32.9999 67.8C28.5999 67.8 24.3999 65.4 20.9999 61C20.6999 60.5 20.5999 59.9 20.8999 59.4L31.6999 40.6C31.9999 40 32.6999 39.8 33.2999 39.9C33.8999 40.1 34.2999 40.6 34.2999 41.3V66.3C34.3999 67.2 33.7999 67.8 32.9999 67.8ZM23.8999 60C26.1999 62.7 28.8999 64.4 31.5999 64.8V46.7L23.8999 60Z" fill="#FF3880"/>
<path d="M33 41.3999L43.8 60.1999C45.8 57.4999 47.4 54.1999 48.4 50.3999L33 41.3999Z" fill="white"/>
<path d="M43.7994 61.5999C43.1994 61.5999 42.7994 61.2999 42.5994 60.8999L31.7994 42.0999C31.4994 41.4999 31.5994 40.7999 31.9994 40.3999C32.3994 39.9999 33.1994 39.8999 33.6994 40.1999L49.1994 49.0999C49.7994 49.3999 49.9994 50.0999 49.8994 50.6999C48.8994 54.5999 47.1994 58.1999 44.9994 60.9999C44.6994 61.3999 44.2994 61.5999 43.7994 61.5999ZM36.8994 45.2999L43.9994 57.4999C45.1994 55.5999 46.1994 53.3999 46.8994 50.9999L36.8994 45.2999Z" fill="#FF008A"/>
<path d="M33 66.4C37.1 66.4 40.9 64 43.8 60.2L33 41.4V66.4Z" fill="white"/>
<path d="M33.0016 67.8001C32.2016 67.8001 31.6016 67.2001 31.6016 66.4001V41.4001C31.6016 40.8001 32.0016 40.2001 32.6016 40.0001C33.2016 39.8001 33.9016 40.1001 34.2016 40.7001L45.0016 59.5001C45.3016 60.0001 45.2016 60.6001 44.9016 61.1001C41.6016 65.4001 37.4016 67.8001 33.0016 67.8001ZM34.4016 46.7001V64.9001C37.1016 64.5001 39.8016 62.8001 42.1016 60.1001L34.4016 46.7001Z" fill="#FF008A"/>
<path d="M16.4023 41.4C16.4023 44.5 16.8023 47.5 17.5023 50.3L33.0023 41.4H16.4023Z" fill="white"/>
<path d="M17.6007 51.7C17.4007 51.7 17.2007 51.7 17.1007 51.6C16.7007 51.4 16.4007 51.1 16.3007 50.7C15.5007 47.7 15.1007 44.6 15.1007 41.4C15.0007 40.6 15.6007 40 16.4007 40H33.0007C33.6007 40 34.2007 40.4 34.4007 41.1C34.6007 41.8 34.3007 42.4 33.7007 42.7L18.3007 51.6C18.0007 51.7 17.8007 51.7 17.6007 51.7ZM17.9007 42.8C18.0007 44.6 18.2007 46.4 18.5007 48.1L27.7007 42.8H17.9007Z" fill="#FF3880"/>
<path d="M17.5977 50.2999C18.5977 54.0999 20.1977 57.4999 22.1977 60.0999L32.9977 41.3999L17.5977 50.2999Z" fill="white"/>
<path d="M22.1984 61.5999C21.7984 61.5999 21.2984 61.3999 21.0984 60.9999C18.8984 58.1999 17.2984 54.5999 16.1984 50.6999C15.9984 50.0999 16.2984 49.3999 16.8984 49.0999L32.3984 40.1999C32.9984 39.8999 33.6984 39.9999 34.0984 40.3999C34.5984 40.8999 34.5984 41.5999 34.2984 42.0999L23.3984 60.8999C23.1984 61.2999 22.6984 61.4999 22.1984 61.5999ZM19.1984 50.9999C19.8984 53.3999 20.8984 55.5999 22.0984 57.4999L29.1984 45.2999L19.1984 50.9999Z" fill="#FF008A"/>
<path d="M17.6 32.5C16.9 35.3 16.5 38.3 16.5 41.4H33L17.6 32.5Z" fill="white"/>
<path d="M33 42.8001H16.4C15.6 42.8001 15 42.2001 15 41.4001C15 38.2001 15.4 35.1001 16.2 32.1001C16.3 31.7001 16.6 31.3001 17 31.2001C17.4 31.0001 17.9 31.0001 18.3 31.3001L33.8 40.2001C34.4 40.5001 34.6 41.2001 34.5 41.8001C34.4 42.4001 33.7 42.8001 33 42.8001ZM17.9 40.0001H27.8L18.6 34.7001C18.2 36.4001 17.9 38.2001 17.9 40.0001Z" fill="#FF008A"/>
<path d="M32.9969 47.8C35.5926 47.8 37.6969 44.9346 37.6969 41.4C37.6969 37.8654 35.5926 35 32.9969 35C30.4011 35 28.2969 37.8654 28.2969 41.4C28.2969 44.9346 30.4011 47.8 32.9969 47.8Z" fill="white"/>
<path d="M32.9984 49.2C29.5984 49.2 26.8984 45.8 26.8984 41.4C26.8984 37 29.5984 33.6 32.9984 33.6C36.3984 33.6 39.0984 37.1 39.0984 41.4C39.0984 45.7 36.3984 49.2 32.9984 49.2ZM32.9984 36.4C31.1984 36.4 29.6984 38.7 29.6984 41.4C29.6984 44.1 31.1984 46.4 32.9984 46.4C34.7984 46.4 36.2984 44.1 36.2984 41.4C36.2984 38.7 34.7984 36.4 32.9984 36.4Z" fill="black"/>
<path d="M65.7016 73.8H12.0016C11.2016 73.8 10.6016 73.2 10.6016 72.4C10.6016 71.6 11.2016 71 12.0016 71H65.7016C66.5016 71 67.1016 71.6 67.1016 72.4C67.1016 73.2 66.5016 73.8 65.7016 73.8Z" fill="black"/>
<path d="M33 67.8C23.2 67.8 15 55.7 15 41.4C15 27.1 23.2 15 33 15C42.8 15 51 27.1 51 41.4C51 55.7 42.8 67.8 33 67.8ZM33 17.8C24.8 17.8 17.8 28.6 17.8 41.4C17.8 54.2 24.8 65 33 65C41.2 65 48.2 54.2 48.2 41.4C48.2 28.6 41.2 17.8 33 17.8Z" fill="black"/>
</g>
<defs>
<clipPath id="clip0_3532_116449">
<rect width="58.1" height="64.8" fill="white" transform="translate(9 9)"/>
</clipPath>
</defs>
</svg>
