<svg width="83" height="74" viewBox="0 0 83 74" fill="none" xmlns="http://www.w3.org/2000/svg">
<circle cx="45" cy="37" r="37" fill="#C6D2FF"/>
<g clip-path="url(#clip0_3534_116898)">
<path d="M54.4984 67.1H1.39844V72.5H54.4984V67.1Z" fill="white"/>
<path d="M54.5 73.9H1.4C0.6 73.9 0 73.3 0 72.5V67.0999C0 66.2999 0.6 65.7 1.4 65.7H54.5C55.3 65.7 55.9 66.2999 55.9 67.0999V72.5C56 73.2 55.3 73.9 54.5 73.9ZM2.8 71H53.1V68.5H2.8V71Z" fill="black"/>
<path d="M54.4984 51.6H1.39844V67.1H54.4984V51.6Z" fill="white"/>
<path d="M54.5 68.5H1.4C0.6 68.5 0 67.8999 0 67.0999V51.5999C0 50.7999 0.6 50.2 1.4 50.2H54.5C55.3 50.2 55.9 50.7999 55.9 51.5999V67.0999C56 67.8999 55.3 68.5 54.5 68.5ZM2.8 65.7H53.1V53H2.8V65.7Z" fill="black"/>
<path d="M81.1 57H54.5V72.5H81.1V57Z" fill="white"/>
<path d="M81.1016 73.9H54.5016C53.7016 73.9 53.1016 73.3 53.1016 72.5V57C53.1016 56.2 53.7016 55.6 54.5016 55.6H81.1016C81.9016 55.6 82.5016 56.2 82.5016 57V72.5C82.5016 73.2 81.9016 73.9 81.1016 73.9ZM56.0016 71H79.7016V58.4H56.0016V71Z" fill="black"/>
<path d="M81.1 41.5H54.5V57H81.1V41.5Z" fill="white"/>
<path d="M81.1016 58.4H54.5016C53.7016 58.4 53.1016 57.8 53.1016 57V41.5C53.1016 40.7 53.7016 40.1 54.5016 40.1H81.1016C81.9016 40.1 82.5016 40.7 82.5016 41.5V57C82.5016 57.8 81.9016 58.4 81.1016 58.4ZM56.0016 55.6H79.7016V42.9H56.0016V55.6Z" fill="black"/>
<path d="M54.4984 11.4H1.39844V51.7H54.4984V11.4Z" fill="white"/>
<path d="M54.5 53.1H1.4C0.6 53.1 0 52.5 0 51.7V11.4C0 10.6 0.6 10 1.4 10H54.5C55.3 10 56 10.6 56 11.4V51.7C56 52.5 55.3 53.1 54.5 53.1ZM2.8 50.3H53.1V12.8H2.8V50.3Z" fill="black"/>
<path d="M43.4992 45.4001H12.3992C10.8992 45.4001 9.69922 44.2001 9.69922 42.7001V20.4001C9.69922 18.9001 10.8992 17.7001 12.3992 17.7001H43.4992C44.9992 17.7001 46.1992 18.9001 46.1992 20.4001V42.7001C46.1992 44.2001 44.9992 45.4001 43.4992 45.4001Z" fill="white"/>
<path d="M43.5008 46.8H12.4008C10.1008 46.8 8.30078 45 8.30078 42.7001V20.4C8.30078 18.1 10.1008 16.3 12.4008 16.3H43.5008C45.8008 16.3 47.6008 18.1 47.6008 20.4V42.7001C47.6008 45 45.8008 46.8 43.5008 46.8ZM12.4008 19.1C11.7008 19.1 11.1008 19.7 11.1008 20.4V42.7001C11.1008 43.4001 11.7008 44 12.4008 44H43.5008C44.2008 44 44.8008 43.4001 44.8008 42.7001V20.4C44.8008 19.7 44.2008 19.1 43.5008 19.1H12.4008Z" fill="black"/>
<path d="M45.1992 58.4H43.0992V55.6H45.1992V58.4ZM40.9992 58.4H38.8992V55.6H40.9992V58.4ZM36.7992 58.4H34.6992V55.6H36.7992V58.4ZM32.6992 58.4H30.5992V55.6H32.6992V58.4ZM28.4992 58.4H26.3992V55.6H28.4992V58.4ZM24.2992 58.4H22.1992V55.6H24.2992V58.4ZM20.0992 58.4H17.9992V55.6H20.0992V58.4ZM15.9992 58.4H13.8992V55.6H15.9992V58.4ZM11.7992 58.4H9.69922V55.6H11.7992V58.4Z" fill="black"/>
<path d="M17.4016 32.4H14.6016V30.3H17.4016V32.4ZM17.4016 28.2H14.6016V26.1H17.4016V28.2ZM17.4016 24H14.6016V21.9H17.4016V24Z" fill="#FF008A"/>
<path d="M23.4016 40.7H20.6016V38.6H23.4016V40.7ZM23.4016 36.5H20.6016V34.4H23.4016V36.5ZM23.4016 32.4H20.6016V30.3H23.4016V32.4ZM23.4016 28.2H20.6016V26.1H23.4016V28.2ZM23.4016 24H20.6016V21.9H23.4016V24Z" fill="#FF008A"/>
<path d="M29.4016 40.7H26.6016V38.6H29.4016V40.7ZM29.4016 36.5H26.6016V34.4H29.4016V36.5ZM29.4016 32.4H26.6016V30.3H29.4016V32.4ZM29.4016 28.2H26.6016V26.1H29.4016V28.2ZM29.4016 24H26.6016V21.9H29.4016V24Z" fill="#FF008A"/>
<path d="M35.4992 36.5H32.6992V34.4H35.4992V36.5ZM35.4992 32.4H32.6992V30.3H35.4992V32.4ZM35.4992 28.2H32.6992V26.1H35.4992V28.2ZM35.4992 24H32.6992V21.9H35.4992V24Z" fill="#FF008A"/>
<path d="M41.4992 28.2H38.6992V26.1H41.4992V28.2ZM41.4992 24H38.6992V21.9H41.4992V24Z" fill="#FF008A"/>
<path d="M45.1992 63.1H43.0992V60.3H45.1992V63.1ZM40.9992 63.1H38.8992V60.3H40.9992V63.1ZM36.7992 63.1H34.6992V60.3H36.7992V63.1ZM32.6992 63.1H30.5992V60.3H32.6992V63.1ZM28.4992 63.1H26.3992V60.3H28.4992V63.1ZM24.2992 63.1H22.1992V60.3H24.2992V63.1ZM20.0992 63.1H17.9992V60.3H20.0992V63.1ZM15.9992 63.1H13.8992V60.3H15.9992V63.1ZM11.7992 63.1H9.69922V60.3H11.7992V63.1Z" fill="black"/>
<path d="M65.5031 47.8H58.2031V50.6H65.5031V47.8Z" fill="black"/>
<path d="M65.4016 63.3H58.1016V66.1H65.4016V63.3Z" fill="black"/>
<path d="M77.5031 47.9H70.2031V50.7H77.5031V47.9Z" fill="black"/>
<path d="M77.4016 63.3H70.1016V66.1H77.4016V63.3Z" fill="black"/>
</g>
<defs>
<clipPath id="clip0_3534_116898">
<rect width="82.5" height="63.9" fill="white" transform="translate(0 10)"/>
</clipPath>
</defs>
</svg>
