<svg width="74" height="80" viewBox="0 0 74 80" fill="none" xmlns="http://www.w3.org/2000/svg">
<circle cx="37" cy="42" r="37" fill="#C6D2FF"/>
<g clip-path="url(#clip0_3532_116261)">
<path d="M37.3971 1.40002C17.8971 29.7 20.1971 36 20.1971 38.1C20.1971 46 37.3971 54.6 37.3971 54.6C37.3971 54.6 54.5971 46 54.5971 38.1C54.5971 36 56.8971 29.7 37.3971 1.40002Z" fill="white"/>
<path d="M37.3984 56C37.1984 56 36.9984 56 36.7984 55.9C36.5984 55.8 32.2984 53.7 27.9984 50.5C21.8984 46.1 18.7984 41.9 18.7984 38.2C18.7984 38.1 18.7984 37.9 18.7984 37.7C18.5984 34.7 17.9984 27.1 36.1984 0.6C36.4984 0.2 36.8984 0 37.3984 0C37.8984 0 38.2984 0.2 38.5984 0.6C56.7984 27.1 56.2984 34.7 56.0984 37.6C56.0984 37.8 56.0984 37.9 56.0984 38.1C56.0984 41.9 52.9984 46 46.8984 50.4C42.5984 53.6 38.2984 55.7 38.0984 55.8C37.7984 55.9 37.5984 56 37.3984 56ZM37.3984 3.9C20.8984 28.2 21.3984 35.1 21.5984 37.4C21.5984 37.7 21.5984 37.9 21.5984 38.1C21.5984 43.6 32.3984 50.4 37.3984 53C42.2984 50.4 53.1984 43.6 53.1984 38.1C53.1984 37.9 53.1984 37.7 53.1984 37.4C53.3984 35.1 53.8984 28.2 37.3984 3.9Z" fill="black"/>
<path d="M61.7988 54.6C63.4988 54.8 65.0988 56.4 65.6988 58.8C66.2988 61.2 65.6988 63.4 64.3988 64.4C64.2988 64.4 64.2988 64.5 64.1988 64.5C64.1988 64.5 64.0988 64.5 64.0988 64.6C63.8988 64.7 63.7988 64.8 63.5988 64.9L16.1988 77.6C15.0988 77.9 13.9988 77.3 13.6988 76.2L11.9988 69.9C11.6988 68.8 12.2988 67.7 13.3988 67.4L60.7988 54.5C60.9988 54.4 61.1988 54.4 61.3988 54.4H61.4988C61.5988 54.6 61.6988 54.6 61.7988 54.6Z" fill="white"/>
<path d="M15.699 79.1C15.099 79.1 14.499 78.9 13.999 78.6C13.199 78.1 12.599 77.4 12.399 76.5L10.699 70.2C10.199 68.4 11.299 66.5 13.099 66L60.499 53.1C60.799 53 61.199 53 61.499 53H61.599C61.699 53 61.799 53 61.899 53C64.199 53.3 66.199 55.4 66.999 58.2C67.799 61 67.099 63.8 65.199 65.2C65.099 65.3 65.099 65.3 64.999 65.4L64.799 65.5C64.499 65.7 64.199 65.8 63.899 65.9L16.599 79C16.299 79.1 15.999 79.1 15.699 79.1ZM61.399 56C61.299 56 61.299 56 61.199 56L13.799 68.9C13.599 69 13.499 69.1 13.399 69.2C13.299 69.3 13.299 69.4 13.299 69.6L14.999 75.9C15.099 76.1 15.199 76.2 15.299 76.3C15.399 76.3 15.499 76.4 15.699 76.4L63.099 63.5C63.099 63.5 63.199 63.5 63.299 63.4C63.299 63.4 63.399 63.3 63.499 63.3C64.299 62.7 64.799 61.1 64.299 59.2C63.799 57.3 62.499 56.2 61.599 56.1H61.499L61.399 56Z" fill="black"/>
<path d="M15.5832 77.8237C17.5553 77.2889 18.5331 74.5653 17.767 71.7403C17.001 68.9154 14.7813 67.0588 12.8092 67.5936C10.837 68.1284 9.85927 70.852 10.6253 73.6769C11.3913 76.5019 13.611 78.3584 15.5832 77.8237Z" fill="white"/>
<path d="M14.9003 79.3C12.5003 79.3 10.2003 77.2 9.30026 74.1C8.90026 72.5 8.90026 70.8 9.40026 69.4C10.0003 67.8 11.1003 66.7 12.5003 66.3C15.3003 65.6 18.2003 67.8 19.2003 71.4C19.6003 73 19.6003 74.7 19.1003 76.1C18.5003 77.7 17.4003 78.8 16.0003 79.2C15.6003 79.2 15.3003 79.3 14.9003 79.3ZM13.6003 69C13.5003 69 13.4003 69 13.3003 69C12.6003 69.2 12.3003 69.9 12.1003 70.3C11.8003 71.2 11.8003 72.3 12.1003 73.3C12.7003 75.5 14.3003 76.7 15.3003 76.4C16.0003 76.2 16.3003 75.5 16.5003 75.1C16.8003 74.2 16.8003 73.1 16.5003 72.1C15.9003 70.1 14.6003 69 13.6003 69Z" fill="black"/>
<path d="M61.7988 54.6C63.4988 54.8 65.0988 56.4 65.6988 58.8C66.2988 61.1 65.6988 63.4 64.3988 64.4C64.2988 64.4 64.2988 64.5 64.1988 64.5C64.1988 64.5 64.0988 64.5 64.0988 64.6C63.8988 64.7 63.7988 64.8 63.5988 64.9L16.1988 77.6C15.0988 77.9 13.9988 77.3 13.6988 76.2L11.9988 69.9C11.6988 68.8 12.2988 67.7 13.3988 67.4L60.7988 54.5C60.9988 54.4 61.1988 54.4 61.3988 54.4H61.4988C61.5988 54.6 61.6988 54.6 61.7988 54.6Z" fill="white"/>
<path d="M15.699 79.1C15.099 79.1 14.499 78.9 13.999 78.6C13.199 78.1 12.599 77.4 12.399 76.5L10.699 70.2C10.199 68.4 11.299 66.5 13.099 66L60.499 53.1C60.799 53 61.199 53 61.499 53H61.599C61.699 53 61.799 53 61.899 53C64.199 53.3 66.199 55.4 66.999 58.2C67.799 61 67.099 63.8 65.199 65.2C65.099 65.3 65.099 65.3 64.999 65.4L64.799 65.5C64.499 65.7 64.199 65.8 63.899 65.9L16.599 79C16.299 79.1 15.999 79.1 15.699 79.1ZM61.399 56C61.299 56 61.299 56 61.199 56L13.799 68.9C13.599 69 13.499 69.1 13.399 69.2C13.299 69.3 13.299 69.4 13.299 69.6L14.999 75.9C15.099 76.1 15.199 76.2 15.299 76.3C15.399 76.3 15.499 76.4 15.699 76.4L63.099 63.5C63.099 63.5 63.199 63.5 63.299 63.4C63.299 63.4 63.399 63.3 63.499 63.3C64.299 62.7 64.799 61.1 64.299 59.2C63.799 57.3 62.499 56.2 61.599 56.1H61.499L61.399 56Z" fill="black"/>
<path d="M15.5832 77.8222C17.5553 77.2874 18.5331 74.5638 17.767 71.7389C17.001 68.9139 14.7813 67.0574 12.8092 67.5921C10.837 68.1269 9.85927 70.8505 10.6253 73.6755C11.3913 76.5004 13.611 78.357 15.5832 77.8222Z" fill="white"/>
<path d="M14.9003 79.3C12.5003 79.3 10.2003 77.2 9.30026 74.1C8.90026 72.5 8.90026 70.8 9.40026 69.4C10.0003 67.8 11.1003 66.7 12.5003 66.3C15.3003 65.6 18.2003 67.8 19.2003 71.4C19.6003 73 19.6003 74.7 19.1003 76.1C18.5003 77.7 17.4003 78.8 16.0003 79.2C15.6003 79.2 15.3003 79.3 14.9003 79.3ZM13.5003 69C13.4003 69 13.3003 69 13.2003 69C12.5003 69.2 12.2003 69.9 12.0003 70.3C11.7003 71.2 11.7003 72.3 12.0003 73.3C12.6003 75.5 14.2003 76.7 15.2003 76.4C15.9003 76.2 16.2003 75.5 16.4003 75.1C16.7003 74.2 16.7003 73.1 16.4003 72.1C15.9003 70.1 14.6003 69 13.5003 69Z" fill="black"/>
<path d="M14.5983 54.6C12.8983 54.8 11.2983 56.4 10.6983 58.8C10.0983 61.2 10.6983 63.4 11.9983 64.4C12.0983 64.4 12.0983 64.5 12.1983 64.5C12.1983 64.5 12.2983 64.5 12.2983 64.6C12.4983 64.7 12.5983 64.8 12.7983 64.9L60.1983 77.8C61.2983 78.1 62.3983 77.5 62.6983 76.4L64.3983 70.1C64.6983 69 64.0983 67.9 62.9983 67.6L15.4983 54.6C15.2983 54.5 15.0983 54.5 14.8983 54.5H14.7983C14.6983 54.6 14.6983 54.6 14.5983 54.6Z" fill="white"/>
<path d="M60.6986 79.1C60.3986 79.1 60.0986 79.1 59.7986 79L12.3986 66.1C12.0986 66 11.7986 65.9 11.4986 65.7C11.4986 65.7 11.3986 65.6 11.2986 65.6C11.1986 65.5 11.0986 65.5 11.0986 65.4C9.29864 64 8.59864 61.2 9.29864 58.4C10.0986 55.6 12.0986 53.5 14.3986 53.2C14.4986 53.2 14.5986 53.2 14.6986 53.2H14.8986C15.1986 53.2 15.4986 53.2 15.8986 53.3L63.2986 66.2C65.0986 66.7 66.1986 68.6 65.6986 70.4L63.9986 76.6C63.5986 78.1 62.1986 79.1 60.6986 79.1ZM14.9986 56C14.8986 56 14.7986 56 14.6986 56C13.6986 56.1 12.4986 57.2 11.9986 59.1C11.4986 61 11.9986 62.6 12.7986 63.2C12.7986 63.2 12.8986 63.2 12.8986 63.3C13.0986 63.4 13.0986 63.4 13.0986 63.4L60.4986 76.3C60.7986 76.4 61.0986 76.2 61.1986 75.9L62.8986 69.6C62.9986 69.4 62.8986 69.2 62.7986 69.2C62.6986 69.2 62.5986 69 62.3986 68.9L15.0986 56C15.0986 56 15.0986 56 14.9986 56Z" fill="black"/>
<path d="M65.6655 73.6945C66.4315 70.8695 65.4537 68.1459 63.4816 67.6112C61.5095 67.0764 59.2898 68.9329 58.5237 71.7579C57.7577 74.5828 58.7354 77.3064 60.7076 77.8412C62.6797 78.376 64.8994 76.5194 65.6655 73.6945Z" fill="white"/>
<path d="M61.4987 79.3C61.0987 79.3 60.7987 79.3 60.3987 79.2C58.9987 78.8 57.8987 77.7 57.2987 76.1C56.7987 74.7 56.7987 73 57.1987 71.4C58.1987 67.8 61.0987 65.6 63.8987 66.3C65.2987 66.7 66.3987 67.8 66.9987 69.4C67.4987 70.8 67.4987 72.5 67.0987 74.1C66.1987 77.2 63.8987 79.3 61.4987 79.3ZM59.8987 72.1C59.5987 73.2 59.5987 74.3 59.8987 75.1C59.9987 75.5 60.3987 76.2 61.0987 76.4C62.0987 76.7 63.6987 75.5 64.2987 73.3C64.5987 72.2 64.5987 71.1 64.2987 70.3C64.1987 69.9 63.7987 69.2 63.0987 69C62.0987 68.7 60.4987 69.9 59.8987 72.1Z" fill="black"/>
<path d="M37.3998 14.3C22.6998 35.7 24.3998 40.5 24.3998 42.1C24.3998 48.1 37.3998 54.6 37.3998 54.6C37.3998 54.6 50.3998 48.1 50.3998 42.1C50.3998 40.5 52.0998 35.7 37.3998 14.3Z" fill="white"/>
<path d="M37.4016 56C37.2016 56 37.0016 56 36.8016 55.9C35.4016 55.1 23.0016 48.7 23.0016 42.1C23.0016 42 23.0016 41.9 23.0016 41.8C22.8016 39.6 22.4016 33.7 36.3016 13.6C36.6016 13.2 37.0016 13 37.5016 13C38.0016 13 38.4016 13.2 38.7016 13.6C52.5016 33.8 52.1016 39.6 51.9016 41.8C51.9016 41.9 51.9016 42 51.9016 42.1C51.9016 48.8 39.5016 55.1 38.1016 55.8C37.8016 55.9 37.6016 56 37.4016 56ZM37.4016 16.8C25.3016 34.7 25.7016 39.8 25.8016 41.5C25.8016 41.7 25.8016 41.9 25.8016 42C25.8016 45.5 32.6016 50.4 37.4016 52.9C42.1016 50.5 49.0016 45.6 49.0016 42.1C49.0016 41.9 49.0016 41.8 49.0016 41.6C49.1016 39.8 49.5016 34.8 37.4016 16.8Z" fill="#FF008A"/>
<path d="M37.4005 28.5C26.6005 42.4 27.9005 45.5 27.9005 46.5C27.9005 50.4 37.4005 54.6 37.4005 54.6C37.4005 54.6 46.9005 50.4 46.9005 46.5C46.9005 45.4 48.2005 42.3 37.4005 28.5Z" fill="white"/>
<path d="M37.4012 56C37.2012 56 37.0012 56 36.8012 55.9C35.1012 55.1 26.4012 51.1 26.4012 46.5C26.4012 46.5 26.4012 46.4 26.4012 46.3C26.3012 44.7 25.9012 40.8 36.2012 27.6C36.5012 27.3 36.9012 27.1 37.3012 27.1C37.7012 27.1 38.2012 27.3 38.4012 27.6C48.7012 40.8 48.4012 44.7 48.2012 46.3C48.2012 46.4 48.2012 46.4 48.2012 46.5C48.2012 51.1 39.6012 55.1 37.8012 55.9C37.8012 55.9 37.6012 56 37.4012 56ZM37.4012 30.8C31.8012 38.2 29.0012 43.4 29.3012 46.1C29.3012 46.3 29.3012 46.4 29.3012 46.5C29.3012 48.4 33.9012 51.4 37.4012 53C40.9012 51.4 45.5012 48.4 45.5012 46.5C45.5012 46.4 45.5012 46.3 45.5012 46.1C45.8012 43.3 43.0012 38.2 37.4012 30.8Z" fill="#FF008A"/>
<path d="M37.398 38.5C30.798 47.1 31.498 49 31.498 49.6C31.498 52 37.398 54.6 37.398 54.6C37.398 54.6 43.298 52 43.298 49.6C43.298 48.9 44.098 47 37.398 38.5Z" fill="white"/>
<path d="M37.3996 56C37.1996 56 36.9996 56 36.7996 55.9C35.1996 55.2 30.0996 52.7 30.0996 49.6C29.9996 48.5 29.7996 46 36.2996 37.6C36.5996 37.3 36.9996 37.1 37.3996 37.1C37.7996 37.1 38.2996 37.3 38.4996 37.6C44.9996 45.9 44.7996 48.4 44.6996 49.5C44.6996 52.6 39.5996 55.1 37.9996 55.8C37.7996 55.9 37.5996 56 37.3996 56ZM37.3996 40.8C35.0996 43.9 32.7996 47.5 32.8996 49.3C32.8996 49.4 32.8996 49.5 32.8996 49.6C32.8996 50.2 34.7996 51.8 37.3996 53C39.8996 51.8 41.8996 50.2 41.8996 49.6C41.8996 49.5 41.8996 49.4 41.8996 49.3C41.9996 47.5 39.6996 43.9 37.3996 40.8Z" fill="#FF008A"/>
<path d="M37.3984 56C37.1984 56 36.9984 56 36.7984 55.9C36.5984 55.8 32.2984 53.7 27.9984 50.5C21.8984 46.1 18.7984 41.9 18.7984 38.2C18.7984 38.1 18.7984 37.9 18.7984 37.7C18.5984 34.7 17.9984 27.1 36.1984 0.6C36.4984 0.2 36.8984 0 37.3984 0C37.8984 0 38.2984 0.2 38.5984 0.6C56.7984 27.1 56.2984 34.7 56.0984 37.6C56.0984 37.8 56.0984 37.9 56.0984 38.1C56.0984 41.9 52.9984 46 46.8984 50.4C42.5984 53.6 38.2984 55.7 38.0984 55.8C37.7984 55.9 37.5984 56 37.3984 56ZM37.3984 3.9C20.8984 28.2 21.3984 35.1 21.5984 37.4C21.5984 37.7 21.5984 37.9 21.5984 38.1C21.5984 43.6 32.3984 50.4 37.3984 53C42.2984 50.4 53.1984 43.6 53.1984 38.1C53.1984 37.9 53.1984 37.7 53.1984 37.4C53.3984 35.1 53.8984 28.2 37.3984 3.9Z" fill="#FF008A"/>
</g>
<defs>
<clipPath id="clip0_3532_116261">
<rect width="58.4" height="79.3" fill="white" transform="translate(9)"/>
</clipPath>
</defs>
</svg>
