<svg width="74" height="117" viewBox="0 0 74 117" fill="none" xmlns="http://www.w3.org/2000/svg">
<circle cx="37" cy="75" r="37" fill="#C6D2FF"/>
<g clip-path="url(#clip0_3532_116762)">
<path d="M39.9 42.8C39.1 42.8 38.5 42.2 38.5 41.4V1.4C38.5 0.6 39.1 0 39.9 0C40.7 0 41.3 0.6 41.3 1.4V41.4C41.3 42.2 40.7 42.8 39.9 42.8Z" fill="#FF008A"/>
<path d="M19.1992 114.9H51.6992V41.4H19.1992V58L22.9992 65.5V99.5L19.3992 107.3L19.1992 114.9Z" fill="white"/>
<path d="M29.6984 58C25.6984 58 22.3984 54.7 22.3984 50.7C22.3984 46.7 25.6984 43.4 29.6984 43.4C33.6984 43.4 36.9984 46.7 36.9984 50.7C36.9984 54.7 33.6984 58 29.6984 58ZM29.6984 46.2C27.1984 46.2 25.1984 48.2 25.1984 50.7C25.1984 53.2 27.1984 55.2 29.6984 55.2C32.1984 55.2 34.1984 53.2 34.1984 50.7C34.0984 48.2 32.0984 46.2 29.6984 46.2Z" fill="black"/>
<path d="M29.2008 90H26.3008V87.9H29.1008V90H29.2008ZM29.2008 85.9H26.3008V83.8H29.1008V85.9H29.2008ZM29.2008 81.7H26.3008V79.6H29.1008V81.7H29.2008ZM29.2008 77.5H26.3008V75.4H29.1008V77.5H29.2008ZM29.2008 73.4H26.3008V71.3H29.1008V73.4H29.2008Z" fill="#FF008A"/>
<path d="M34.6984 90H31.8984V87.9H34.6984V90ZM34.6984 85.9H31.8984V83.8H34.6984V85.9ZM34.6984 81.7H31.8984V79.6H34.6984V81.7ZM34.6984 77.5H31.8984V75.4H34.6984V77.5ZM34.6984 73.4H31.8984V71.3H34.6984V73.4Z" fill="#FF008A"/>
<path d="M40.1984 90H37.3984V87.9H40.1984V90ZM40.1984 85.9H37.3984V83.8H40.1984V85.9ZM40.1984 81.7H37.3984V79.6H40.1984V81.7ZM40.1984 77.5H37.3984V75.4H40.1984V77.5ZM40.1984 73.4H37.3984V71.3H40.1984V73.4Z" fill="#FF008A"/>
<path d="M52.6 116.7H25.4C24.6 116.7 24 116.1 24 115.3C24 114.5 24.6 113.9 25.4 113.9H51.2V42.8H20.8V59.9L24.2 66.3C24.3 66.5 24.4 66.7 24.4 67V98C24.4 98.2 24.4 98.4 24.3 98.6L20.8 106.3V115.4C20.8 116.2 20.2 116.8 19.4 116.8C18.6 116.8 18 116.1 18 115.3V105.9C18 105.7 18 105.5 18.1 105.3L21.6 97.6V67.3L18.2 60.9C18.1 60.7 18 60.5 18 60.3V41.4C18 40.6 18.6 40 19.4 40H52.6C53.4 40 54 40.6 54 41.4V115.3C54 116.1 53.4 116.7 52.6 116.7Z" fill="black"/>
<path d="M39.9 116.7C39.1 116.7 38.5 116.1 38.5 115.3V105.9C38.5 105.7 38.5 105.5 38.6 105.3L42.1 97.9001V67.3001L38.7 60.9001C38.6 60.7001 38.5 60.5001 38.5 60.2001V46.7001C38.5 45.9001 39.1 45.3 39.9 45.3C40.7 45.3 41.3 45.9001 41.3 46.7001V59.9001L44.7 66.3001C44.8 66.5001 44.9 66.7001 44.9 67V98.3001C44.9 98.5001 44.9 98.7001 44.8 98.9001L41.3 106.3V115.4C41.3 116.1 40.7 116.7 39.9 116.7Z" fill="black"/>
<path d="M43.5016 68.4H23.0016C22.2016 68.4 21.6016 67.8 21.6016 67C21.6016 66.2 22.2016 65.6 23.0016 65.6H43.5016C44.3016 65.6 44.9016 66.2 44.9016 67C44.9016 67.8 44.3016 68.4 43.5016 68.4Z" fill="black"/>
<path d="M43.5016 99.5H23.0016C22.2016 99.5 21.6016 98.9 21.6016 98.1C21.6016 97.3 22.2016 96.7 23.0016 96.7H43.5016C44.3016 96.7 44.9016 97.3 44.9016 98.1C44.9016 98.9 44.3016 99.5 43.5016 99.5Z" fill="black"/>
<path d="M39.9 107.3H19.4C18.6 107.3 18 106.7 18 105.9C18 105.1 18.6 104.5 19.4 104.5H39.9C40.7 104.5 41.3 105.1 41.3 105.9C41.3 106.7 40.7 107.3 39.9 107.3Z" fill="black"/>
<path d="M39.9 61.7H19.4C18.6 61.7 18 61 18 60.3C18 59.6 18.6 58.9 19.4 58.9H39.9C40.7 58.9 41.3 59.5 41.3 60.3C41.3 61.1 40.7 61.7 39.9 61.7Z" fill="black"/>
</g>
<defs>
<clipPath id="clip0_3532_116762">
<rect width="36" height="116.7" fill="white" transform="translate(18)"/>
</clipPath>
</defs>
</svg>
