<svg width="74" height="74" viewBox="0 0 74 74" fill="none" xmlns="http://www.w3.org/2000/svg">
<circle cx="37" cy="37" r="37" fill="#C6D2FF"/>
<g clip-path="url(#clip0_3532_116300)">
<path d="M9.40078 40.5L15.1008 39.3L18.5008 37.4H26.6008L35.8008 33.2L39.3008 26.3L35.8008 17.1L28.1008 13.1H19.3008L11.7008 16.7L7.80078 23.1V28.2L9.20078 31.4L12.0008 34.8L8.50078 39.4L9.40078 40.5Z" fill="white"/>
<path d="M18.5 23.2C18.6 21.8 19 20.7 19.9 19.9C20.8 19.1 21.9 18.7 23.5 18.7C24.8 18.7 25.9 19 26.8 19.7C27.7 20.4 28.2 21.3 28.2 22.5C28.2 23.2 28 23.7 27.7 24.1C27.4 24.5 26.9 24.9 26.2 25.2C26.2 25.2 26.1 25.3 25.9 25.3C25.8 25.4 25.7 25.4 25.6 25.5C25.6 25.5 25.5 25.6 25.4 25.6C25.3 25.7 25.2 25.7 25.2 25.8C25.2 25.8 25.1 25.9 25 26C24.9 26.1 24.9 26.2 24.9 26.2C24.9 26.3 24.9 26.4 24.8 26.5C24.8 26.6 24.8 26.7 24.8 26.8V27H21.5V26.8C21.5 25.9 21.6 25.2 21.8 24.8C22 24.4 22.5 24 23.2 23.6C23.2 23.6 23.3 23.6 23.4 23.5C23.5 23.5 23.6 23.4 23.6 23.4C23.6 23.4 23.7 23.4 23.8 23.3C23.9 23.3 23.9 23.2 24 23.2L24.1 23.1C24.2 23.1 24.2 23 24.2 23L24.3 22.9C24.3 22.8 24.4 22.8 24.4 22.7C24.4 22.6 24.4 22.6 24.4 22.5C24.4 22.4 24.4 22.4 24.4 22.3C24.4 22 24.3 21.8 24.1 21.7C23.9 21.5 23.7 21.5 23.4 21.5C22.6 21.5 22.2 22 22.2 23H18.5V23.2ZM24.9 28V31.6H21.3V28H24.9Z" fill="#FF008A"/>
<path d="M11.6 41.6C10.2 41.6 9.3 41.4 9.2 41.4C8.7 41.3 8.2 40.9 8 40.4C7.8 39.9 7.9 39.3 8.1 38.9C9.6 36.6 9.9 35.1 10 34.4C7.5 31.9 6 28.5 6 25.2C6 20 9.5 15.2 15.1 12.7C17.6 11.6 20.4 11 23.3 11C32.8 11 40.6 17.4 40.6 25.3C40.6 33.2 32.9 39.6 23.3 39.6C22.1 39.6 20 39.2 18.7 39C16.6 41.2 13.6 41.6 11.6 41.6ZM23.3 14.2C20.9 14.2 18.5 14.7 16.5 15.6C12 17.6 9.3 21.2 9.3 25.2C9.3 27.9 10.5 30.6 12.7 32.5C12.8 32.8 13 33 13.1 33.3C13.2 33.7 13.5 35.4 12.1 38.4C13.7 38.3 15.7 37.9 16.8 36.3C17.2 35.8 17.8 35.5 18.4 35.7C19.4 35.9 22.2 36.5 23.3 36.5C31.1 36.5 37.4 31.5 37.4 25.4C37.4 19.3 31 14.2 23.3 14.2Z" fill="black"/>
<path d="M65.8023 61.3L60.1023 60L56.7023 58.2001H48.6023L39.4023 54L35.9023 47.1L39.4023 37.9L47.0023 33.8H55.9023L63.5023 37.5L67.4023 43.8V49L66.0023 52.1L63.2023 55.5L66.7023 60.2001L65.8023 61.3Z" fill="white"/>
<path d="M53.5008 39.3V42.2001L52.5008 47.4001H50.8008L49.8008 42.2001V39.3H53.5008ZM53.5008 48.3V52H49.9008V48.4001H53.5008V48.3Z" fill="#FF008A"/>
<path d="M56.2008 59.4C54.9008 59.6 52.8008 60 51.6008 60C42.1008 60 34.3008 53.6 34.3008 45.7C34.3008 37.8 42.0008 31.4 51.6008 31.4C54.4008 31.4 57.2008 32 59.7008 33.1C65.3008 35.6 68.8008 40.4 68.8008 45.7C68.8008 49.1 67.4008 52.4 64.8008 54.9C64.8008 55.6 65.1008 57.1 66.7008 59.4C67.0008 59.8 67.1008 60.4 66.8008 60.9C66.5008 61.4 66.2008 61.8 65.6008 61.9C65.5008 61.9 64.5008 62.1 63.2008 62.1C61.2008 62 58.2008 61.5 56.2008 59.4ZM37.5008 45.7C37.5008 51.8 43.8008 56.8 51.6008 56.8C52.7008 56.8 55.5008 56.3 56.5008 56C57.1008 55.9 57.8008 56.1 58.1008 56.6C59.2008 58.2 61.2008 58.6 62.8008 58.7C61.4008 55.8 61.7008 54 61.8008 53.6C61.9008 53.3 62.0008 53 62.3008 52.8C64.5008 50.8 65.7008 48.1 65.7008 45.5C65.7008 41.5 63.0008 37.9 58.5008 35.9C56.4008 35 54.1008 34.5 51.7008 34.5C43.8008 34.6 37.5008 39.6 37.5008 45.7Z" fill="black"/>
</g>
<defs>
<clipPath id="clip0_3532_116300">
<rect width="62.9" height="51" fill="white" transform="translate(6 11)"/>
</clipPath>
</defs>
</svg>
