<svg width="293" height="175" viewBox="0 0 293 175" fill="none" xmlns="http://www.w3.org/2000/svg">
<g clip-path="url(#clip0_4510_153207)">
<path d="M247.198 97.8L240.298 100.9L228.598 92.5L206.198 95.9L191.098 89.9L189.498 86.2C175.498 93.9 165.898 108.9 165.898 126.1C165.898 151.2 186.298 171.6 211.398 171.6C236.498 171.6 256.898 151.2 256.898 126.1C257.098 115.3 253.398 105.5 247.198 97.8Z" fill="#BBBEFF"/>
<path d="M48.7008 31.1C41.7008 31.1 35.0008 32.7 29.0008 35.6L31.2008 61.7L24.1008 64.6L18.9008 62L12.4008 56.9L12.0008 49.8C6.50078 57.3 3.30078 66.6 3.30078 76.6C3.30078 101.7 23.7008 122.1 48.8008 122.1C73.9008 122.1 94.3008 101.7 94.3008 76.6C94.2008 51.5 73.8008 31.1 48.7008 31.1Z" fill="#BBBEFF"/>
<path d="M20.9008 56.9001C22.2008 65.8001 19.6008 64.6001 15.6008 64.6001C11.6008 64.6001 8.30078 61.2001 8.30078 56.9001C8.30078 52.6001 11.6008 49.2001 15.6008 49.2001C19.6008 49.2001 20.3008 52.7001 20.9008 56.9001Z" fill="#F2B073"/>
<path d="M47.0992 27.9C40.8992 27.9 31.8992 31.2 27.1992 34.8C25.5992 37 29.0992 52.1 26.4992 55.8C25.1992 57.6 21.7992 57.4 20.2992 57.8C19.8992 60 19.6992 54.5 19.6992 56.9C19.6992 73.8 30.4992 88.4 43.7992 87.5C70.4992 85.7 69.4992 74.6 69.4992 57.7C69.4992 52.4 69.2992 47.3 68.8992 43.3C67.8992 31.5 53.7992 27.9 47.0992 27.9Z" fill="#F2B073"/>
<path d="M57.9639 101.824C63.3652 85.8097 59.9374 70.1946 50.3079 66.9468C40.6783 63.6991 28.4935 74.0484 23.0923 90.0628C17.691 106.077 21.1188 121.692 30.7483 124.94C40.3779 128.188 52.5627 117.838 57.9639 101.824Z" fill="#F2B073"/>
<path d="M77.2 100.6C72.4 100.3 58.1 100.6 58.1 100.6C45.8 128.2 32.8 123.6 27.5 120.5C19.7 116.1 22.9 100.6 22.9 100.6L27.5 82.2" stroke="black" stroke-width="4.3421" stroke-miterlimit="10" stroke-linecap="round" stroke-linejoin="round"/>
<path d="M61.1998 31.7C47.7998 21.9 26.2998 34.4 26.2998 34.4L27.1998 58.6L19.7998 59L18.5998 51.4C18.5998 51.4 8.59984 45.3 7.89984 56.8C7.29984 66 19.7998 65.6 19.7998 65.6C22.8998 80.9 31.1998 88.2 46.5998 87.8C69.2998 87.2 71.6998 74 69.5998 49.5L68.9998 42.4C68.9998 42.4 58.7998 40.3 56.7998 50.5C54.7998 60.7 60.8998 71.4 60.8998 71.4L50.5998 66.6" stroke="black" stroke-width="4.3421" stroke-miterlimit="10" stroke-linejoin="round"/>
<path d="M36 47.6C39.2 48.6 44.4 49.5 49.2 47.8" stroke="black" stroke-width="4.3421" stroke-miterlimit="10" stroke-linejoin="round"/>
<path d="M8.39844 100.6C13.1984 100.3 39.6984 100.6 39.6984 100.6" stroke="black" stroke-width="4.3421" stroke-miterlimit="10" stroke-linecap="round" stroke-linejoin="round"/>
<path fill-rule="evenodd" clip-rule="evenodd" d="M152.998 38.9289C154.197 38.9289 155.169 39.9009 155.169 41.1C155.169 41.4796 155.19 41.8694 155.215 42.3295L155.217 42.3541C155.241 42.7884 155.269 43.2893 155.269 43.8V46.0278C155.269 47.6889 155.269 49.3229 155.169 51.0625C155.169 51.4535 155.167 51.9751 155.004 52.6265C154.713 53.7898 153.534 54.497 152.371 54.2062C151.208 53.9154 150.501 52.7367 150.791 51.5734C150.808 51.507 150.815 51.4573 150.82 51.3953C150.826 51.3112 150.827 51.2155 150.827 51C150.827 50.9575 150.828 50.9149 150.83 50.8725C150.926 49.2461 150.927 47.7086 150.927 46V43.8C150.927 43.4203 150.905 43.0305 150.88 42.5704L150.879 42.5458C150.854 42.1116 150.827 41.6106 150.827 41.1C150.827 39.9009 151.799 38.9289 152.998 38.9289Z" fill="url(#paint0_linear_4510_153207)"/>
<path fill-rule="evenodd" clip-rule="evenodd" d="M142.505 28.1647C143.685 27.9481 144.816 28.7285 145.033 29.9078C145.953 34.9179 146.569 40.5502 146.569 46.3C146.569 53.0512 145.853 59.4169 144.512 65.191C144.241 66.359 143.075 67.086 141.907 66.8149C140.739 66.5437 140.012 65.3771 140.283 64.2091C141.542 58.7832 142.227 52.7489 142.227 46.3C142.227 40.8499 141.642 35.4822 140.762 30.6923C140.546 29.5129 141.326 28.3813 142.505 28.1647Z" fill="url(#paint1_linear_4510_153207)"/>
<path fill-rule="evenodd" clip-rule="evenodd" d="M117.402 19.8804C118.517 19.4405 119.778 19.9881 120.218 21.1035C123.134 28.4982 124.769 37.6753 124.769 47.5C124.769 57.3247 123.134 66.5018 120.218 73.8965C119.778 75.0119 118.517 75.5596 117.402 75.1197C116.286 74.6798 115.739 73.419 116.179 72.3035C118.862 65.4982 120.427 56.8753 120.427 47.5C120.427 38.1247 118.862 29.5018 116.179 22.6965C115.739 21.5811 116.286 20.3202 117.402 19.8804Z" fill="url(#paint2_linear_4510_153207)"/>
<path fill-rule="evenodd" clip-rule="evenodd" d="M107.298 88.3289C108.497 88.3289 109.469 89.301 109.469 90.5C109.469 91.0107 109.442 91.5116 109.417 91.9459L109.416 91.9704C109.391 92.4306 109.369 92.8203 109.369 93.2V95.4C109.369 97.1086 109.37 98.6461 109.466 100.273C109.468 100.315 109.469 100.357 109.469 100.4C109.469 100.616 109.47 100.711 109.476 100.795C109.481 100.857 109.488 100.907 109.505 100.973C109.795 102.137 109.088 103.315 107.925 103.606C106.762 103.897 105.583 103.19 105.292 102.027C105.129 101.375 105.127 100.854 105.127 100.463C105.027 98.723 105.027 97.0889 105.027 95.4278V93.2C105.027 92.6893 105.055 92.1884 105.079 91.7541L105.081 91.7296C105.106 91.2694 105.127 90.8797 105.127 90.5C105.127 89.301 106.099 88.3289 107.298 88.3289Z" fill="url(#paint3_linear_4510_153207)"/>
<path fill-rule="evenodd" clip-rule="evenodd" d="M130.604 24.0125C131.756 23.6831 132.958 24.3506 133.287 25.5035C135.15 32.0216 136.171 39.625 136.171 47.7C136.171 56.8582 134.237 64.6287 132.347 72.2249C132.317 72.3455 132.287 72.4661 132.257 72.5866C130.33 80.3306 128.471 87.9459 128.471 97.1C128.471 104.639 129.353 111.642 130.994 117.626C131.311 118.782 130.63 119.977 129.474 120.294C128.318 120.611 127.123 119.93 126.806 118.774C125.047 112.358 124.129 104.961 124.129 97.1C124.129 87.354 126.12 79.2693 128.043 71.5383L128.092 71.3413C130.006 63.6498 131.829 56.3227 131.829 47.7C131.829 39.975 130.85 32.7783 129.112 26.6964C128.783 25.5435 129.451 24.3419 130.604 24.0125Z" fill="url(#paint4_linear_4510_153207)"/>
<path fill-rule="evenodd" clip-rule="evenodd" d="M117.79 77.5646C118.969 77.7812 119.75 78.9128 119.533 80.0922C118.653 84.8821 118.069 90.2498 118.069 95.7C118.069 102.149 118.753 108.183 120.012 113.609C120.284 114.777 119.557 115.944 118.389 116.215C117.221 116.486 116.054 115.759 115.783 114.591C114.442 108.817 113.727 102.451 113.727 95.7C113.727 89.9501 114.342 84.3178 115.262 79.3077C115.479 78.1284 116.611 77.348 117.79 77.5646Z" fill="url(#paint5_linear_4510_153207)"/>
<path fill-rule="evenodd" clip-rule="evenodd" d="M142.797 69.2804C143.913 69.7203 144.46 70.9811 144.02 72.0965C141.337 78.9018 139.772 87.5247 139.772 96.9C139.772 106.275 141.337 114.898 144.02 121.704C144.46 122.819 143.913 124.08 142.797 124.52C141.682 124.96 140.421 124.412 139.981 123.297C137.065 115.902 135.43 106.725 135.43 96.9C135.43 87.0753 137.065 77.8983 139.981 70.5036C140.421 69.3881 141.682 68.8405 142.797 69.2804Z" fill="url(#paint6_linear_4510_153207)"/>
<path d="M244.601 115.3C248.632 115.3 251.901 111.539 251.901 106.9C251.901 102.261 248.632 98.5 244.601 98.5C240.569 98.5 237.301 102.261 237.301 106.9C237.301 111.539 240.569 115.3 244.601 115.3Z" fill="#FFDBA0"/>
<path d="M212.799 96.1C218.999 96.1 224.799 94.6 229.399 92.1C231.799 95.4 235.399 98 239.799 99.2C240.199 101.4 240.399 103.7 240.399 106.1C240.399 123 229.599 136.7 216.299 136.7C202.999 136.7 192.199 123 192.199 106.1C192.199 100.8 193.299 95.8 195.099 91.5C199.799 94.4 205.999 96.1 212.799 96.1Z" fill="#FFDBA0"/>
<path d="M229.503 174.2C239.133 170.953 242.56 155.338 237.159 139.323C231.758 123.309 219.573 112.959 209.944 116.207C200.314 119.455 196.886 135.07 202.288 151.084C207.689 167.099 219.874 177.448 229.503 174.2Z" fill="#FFDBA0"/>
<path d="M182.898 149.8C187.698 149.5 201.998 149.8 201.998 149.8C214.298 177.4 227.298 172.8 232.598 169.7C240.398 165.3 237.198 149.8 237.198 149.8L232.598 131.4" stroke="black" stroke-width="4.3421" stroke-miterlimit="10" stroke-linecap="round" stroke-linejoin="round"/>
<path d="M207.602 75C200.802 78.1 191.502 84.7 190.602 98.6C189.102 123.7 204.302 137.2 209.702 137.2C219.602 137.2 237.402 130 240.402 114.7C240.402 114.7 248.102 117.9 252.302 105.9C253.502 102.3 251.802 98.7 249.102 97.8C243.702 96 241.602 100.5 241.602 100.5C227.002 99 226.302 81.4 231.602 82.1C237.402 82.9 235.402 93.6 214.802 95.9C194.202 98.2 184.202 82.1 182.602 75.2" stroke="black" stroke-width="4.3421" stroke-miterlimit="10" stroke-linejoin="round"/>
<path d="M192.199 91.5C192.199 91.5 204.099 90.3 206.099 100.5C208.099 110.7 201.099 114.2 201.099 114.2L208.799 120.2" stroke="black" stroke-width="4.3421" stroke-miterlimit="10" stroke-linejoin="round"/>
<path d="M230.401 104.6C230.401 104.6 221.201 110 214.301 104.6" stroke="black" stroke-width="4.3421" stroke-miterlimit="10"/>
<path d="M251.698 149.7C246.898 149.4 220.398 149.7 220.398 149.7" stroke="black" stroke-width="4.3421" stroke-miterlimit="10" stroke-linecap="round" stroke-linejoin="round"/>
<path d="M189.199 87C190.399 69.6 204.899 55.8 222.699 55.8C241.199 55.8 256.199 70.8001 256.199 89.3001C256.199 94.8001 254.899 99.9 252.599 104.5" stroke="black" stroke-width="4.7891" stroke-miterlimit="10" stroke-linejoin="round"/>
<path d="M237.301 59.1999C237.301 59.1999 244.501 40.9999 266.001 44.1999C290.201 47.7999 296.401 82.6999 282.101 114C282.101 114 268.701 146.2 284.801 148" stroke="black" stroke-width="4.7891" stroke-miterlimit="10" stroke-linejoin="round"/>
<path d="M11.6992 50L2.19922 28.1C2.19922 28.1 10.2992 9.3 22.7992 12.9C35.2992 16.5 35.5992 30.3 35.5992 30.3" stroke="black" stroke-width="4.3421" stroke-miterlimit="10" stroke-linejoin="round"/>
<path d="M26.5 14.4C26.5 14.4 40.6 -7.69998 69.2 7.50002C69.2 7.50002 74.6 20.9 84.4 20.9" stroke="black" stroke-width="4.3421" stroke-miterlimit="10" stroke-linejoin="round"/>
<path d="M105.399 22.8L93.0992 25.7001L82.5992 33.2001L77.1992 43.7001V54L82.1992 61.5L84.6992 66.5L81.3992 75L82.7992 76.6L89.7992 76.1L95.8992 73.1L98.6992 71.3001L105.499 73.1H106.899C106.899 73.1 113.299 68.8 113.299 47.5C113.299 26.2001 105.399 22.8 105.399 22.8Z" fill="white"/>
<path d="M107.8 22.7C102.5 22.7 97.5 23.8 93.1 25.7C83.5 30 77 38.0999 77 47.5999C77 53.8999 79.9 59.9 84.7 64.3C84.7 64.3 85.8 68.5 80.6 76.3C80.6 76.3 92.4 78.5999 97.5 71.1999C97.5 71.1999 104.7 72.8 107.8 72.8" stroke="black" stroke-width="4.3421" stroke-miterlimit="10" stroke-linecap="round" stroke-linejoin="round"/>
<path d="M154.201 71.8L166.501 74.7L177.001 82.2L182.401 92.7V103L177.401 110.5L174.901 115.5L178.201 123.8L176.801 125.4L169.801 124.9L163.701 121.9L160.901 120.1L154.101 121.9H152.701C152.701 121.9 146.301 117.6 146.301 96.3C146.301 75 154.201 71.8 154.201 71.8Z" fill="white"/>
<path d="M152.5 72.2C157.8 72.2 162.8 73.3 167.2 75.2C176.8 79.4 183.3 87.5 183.3 97C183.3 103.3 180.4 109.3 175.6 113.7C175.6 113.7 174.5 117.9 179.7 125.7C179.7 125.7 167.9 128 162.8 120.6C162.8 120.6 155.6 122.2 152.5 122.2" stroke="black" stroke-width="4.3421" stroke-miterlimit="10" stroke-linecap="round" stroke-linejoin="round"/>
</g>
<defs>
<linearGradient id="paint0_linear_4510_153207" x1="155.269" y1="-10.6614" x2="53.7187" y2="-9.71908" gradientUnits="userSpaceOnUse">
<stop stop-color="#2970FF"/>
<stop offset="0.510417" stop-color="#C60077"/>
</linearGradient>
<linearGradient id="paint1_linear_4510_153207" x1="155.269" y1="-10.6614" x2="53.7187" y2="-9.71908" gradientUnits="userSpaceOnUse">
<stop stop-color="#2970FF"/>
<stop offset="0.510417" stop-color="#C60077"/>
</linearGradient>
<linearGradient id="paint2_linear_4510_153207" x1="155.269" y1="-10.6614" x2="53.7187" y2="-9.71908" gradientUnits="userSpaceOnUse">
<stop stop-color="#2970FF"/>
<stop offset="0.510417" stop-color="#C60077"/>
</linearGradient>
<linearGradient id="paint3_linear_4510_153207" x1="155.269" y1="-10.6614" x2="53.7187" y2="-9.71908" gradientUnits="userSpaceOnUse">
<stop stop-color="#2970FF"/>
<stop offset="0.510417" stop-color="#C60077"/>
</linearGradient>
<linearGradient id="paint4_linear_4510_153207" x1="155.269" y1="-10.6614" x2="53.7187" y2="-9.71908" gradientUnits="userSpaceOnUse">
<stop stop-color="#2970FF"/>
<stop offset="0.510417" stop-color="#C60077"/>
</linearGradient>
<linearGradient id="paint5_linear_4510_153207" x1="155.269" y1="-10.6614" x2="53.7187" y2="-9.71908" gradientUnits="userSpaceOnUse">
<stop stop-color="#2970FF"/>
<stop offset="0.510417" stop-color="#C60077"/>
</linearGradient>
<linearGradient id="paint6_linear_4510_153207" x1="155.269" y1="-10.6614" x2="53.7187" y2="-9.71908" gradientUnits="userSpaceOnUse">
<stop stop-color="#2970FF"/>
<stop offset="0.510417" stop-color="#C60077"/>
</linearGradient>
<clipPath id="clip0_4510_153207">
<rect width="292.1" height="174.8" fill="white"/>
</clipPath>
</defs>
</svg>
