<?xml version="1.0" standalone="no"?>
<!DOCTYPE svg PUBLIC "-//W3C//DTD SVG 1.1//EN" "http://www.w3.org/Graphics/SVG/1.1/DTD/svg11.dtd" >
<svg xmlns="http://www.w3.org/2000/svg">
<defs>
  <font id="icon" horiz-adv-x="1041.6666666666665">
    <font-face font-family="icon"
      units-per-em="1000" ascent="1000"
      descent="0" />
    <missing-glyph horiz-adv-x="0" />
    <glyph glyph-name="add-reaction"
      unicode="&#xEA01;"
      horiz-adv-x="1000" d="M500 916.6666666666666C269.875 916.6666666666666 83.3333333333333 730.125 83.3333333333333 500C83.3333333333333 269.875 269.875 83.3333333333334 500 83.3333333333334C730.0833333333333 83.3333333333334 916.6666666666666 269.875 916.6666666666666 500C916.6666666666666 528.5375000000001 913.7958333333333 556.4083333333333 908.3291666666667 583.3333333333334H822.7874999999999C829.6708333333332 556.6875 833.3333333333333 528.7625 833.3333333333333 500C833.3333333333333 316.2083333333334 683.7916666666666 166.6666666666668 500 166.6666666666668C316.2083333333333 166.6666666666668 166.6666666666667 316.2083333333334 166.6666666666667 500C166.6666666666667 683.7916666666667 316.2083333333333 833.3333333333334 500 833.3333333333334V916.6666666666666zM291.6666666666667 608.3333333333333C291.6666666666667 640.5333333333333 317.8 666.6666666666667 350 666.6666666666667C382.2 666.6666666666667 408.3333333333333 640.5333333333333 408.3333333333333 608.3333333333333C408.3333333333333 576.1333333333333 382.2 550 350 550C317.8 550 291.6666666666667 576.1333333333333 291.6666666666667 608.3333333333333zM291.6645833333334 491.6666666666667C273.255 491.6666666666667 258.33125 476.7458333333334 258.33125 458.3333333333334C258.33125 324.8666666666668 366.5291666666667 216.6666666666666 500 216.6666666666666C633.4666666666667 216.6666666666666 741.6666666666666 324.8666666666668 741.6666666666666 458.3333333333334C741.6666666666666 476.7458333333334 726.7416666666667 491.6666666666667 708.3333333333333 491.6666666666667H291.6645833333334zM328.16875 425C343.7329166666667 344.2958333333334 414.7466666666667 283.3333333333334 500 283.3333333333334C585.2499999999999 283.3333333333334 656.2624999999999 344.2958333333334 671.8291666666665 425H328.16875zM655.5541666666667 666.6666666666667C623.3541666666666 666.6666666666667 597.2208333333333 640.5333333333333 597.2208333333333 608.3333333333333C597.2208333333333 576.1333333333333 623.3541666666666 550 655.5541666666667 550C687.7541666666666 550 713.8874999999999 576.1333333333333 713.8874999999999 608.3333333333333C713.8874999999999 640.5333333333333 687.7541666666666 666.6666666666667 655.5541666666667 666.6666666666667zM625 875H875A41.6666666666667 41.6666666666667 0 0 0 916.6666666666666 833.3333333333334V833.3333333333334A41.6666666666667 41.6666666666667 0 0 0 875 791.6666666666667H625A41.6666666666667 41.6666666666667 0 0 0 583.3333333333333 833.3333333333334V833.3333333333334A41.6666666666667 41.6666666666667 0 0 0 625 875zM791.6666666666666 958.3333333333334L791.6666666666666 708.3333333333334A41.6666666666667 41.6666666666667 0 0 0 750 666.6666666666667L750 666.6666666666667A41.6666666666667 41.6666666666667 0 0 0 708.3333333333333 708.3333333333334L708.3333333333333 958.3333333333334A41.6666666666667 41.6666666666667 0 0 0 750 1000L750 1000A41.6666666666667 41.6666666666667 0 0 0 791.6666666666666 958.3333333333334z" />
    <glyph glyph-name="adminx-1"
      unicode="&#xEA02;"
      horiz-adv-x="1000" d="M500 541.6666666666667C591.6666666666666 541.6666666666667 666.6666666666666 616.6666666666667 666.6666666666666 708.3333333333334C666.6666666666666 800 591.6666666666666 875 500 875C408.3333333333333 875 333.3333333333333 800 333.3333333333333 708.3333333333334C333.3333333333333 616.6666666666667 408.3333333333333 541.6666666666667 500 541.6666666666667zM500 791.6666666666667C545.8333333333333 791.6666666666667 583.3333333333333 754.1666666666666 583.3333333333333 708.3333333333334C583.3333333333333 662.5 545.8333333333333 625 500 625C454.1666666666666 625 416.6666666666667 662.5 416.6666666666667 708.3333333333334C416.6666666666667 754.1666666666666 454.1666666666666 791.6666666666667 500 791.6666666666667zM608.3333333333333 437.5C575 450.0000000000001 537.5 458.3333333333334 500 458.3333333333334C337.5 458.3333333333334 208.3333333333333 329.1666666666667 208.3333333333333 166.6666666666668C208.3333333333333 141.6666666666666 225 125 250 125C275 125 291.6666666666667 141.6666666666666 291.6666666666667 166.6666666666668C291.6666666666667 279.1666666666667 383.3333333333333 375 500 375L608.3333333333333 437.5zM674.9999999999999 362.5041666666667L770.8333333333333 308.3375V195.8375L674.9999999999999 141.6708333333334L579.1666666666666 195.8375V308.3375L674.9999999999999 362.5041666666667zM674.9999999999999 441.6708333333334L508.3333333333333 345.8375000000001V154.1708333333334L674.9999999999999 58.3375L841.6666666666666 154.1708333333334V345.8375000000001L674.9999999999999 441.6708333333334zM674.9999999999999 362.5041666666667L770.8333333333333 308.3375V195.8375L674.9999999999999 141.6708333333334L579.1666666666666 195.8375V308.3375L674.9999999999999 362.5041666666667zM674.9999999999999 441.6708333333334L508.3333333333333 345.8375000000001V154.1708333333334L674.9999999999999 58.3375L841.6666666666666 154.1708333333334V345.8375000000001L674.9999999999999 441.6708333333334zM674.9999999999999 208.3333333333334C698.0083333333332 208.3333333333334 716.6666666666666 226.9875000000001 716.6666666666666 250C716.6666666666666 273.0125000000001 698.0083333333332 291.6666666666668 674.9999999999999 291.6666666666668C651.9875 291.6666666666668 633.3333333333333 273.0125000000001 633.3333333333333 250C633.3333333333333 226.9875000000001 651.9875 208.3333333333334 674.9999999999999 208.3333333333334zM674.9999999999999 208.3333333333334C698.0083333333332 208.3333333333334 716.6666666666666 226.9875000000001 716.6666666666666 250C716.6666666666666 273.0125000000001 698.0083333333332 291.6666666666668 674.9999999999999 291.6666666666668C651.9875 291.6666666666668 633.3333333333333 273.0125000000001 633.3333333333333 250C633.3333333333333 226.9875000000001 651.9875 208.3333333333334 674.9999999999999 208.3333333333334z" />
    <glyph glyph-name="alert-circle"
      unicode="&#xEA03;"
      horiz-adv-x="1000" d="M458.3333333333333 666.6666666666667C458.3333333333333 689.6666666666667 477 708.3333333333334 500 708.3333333333334C523 708.3333333333334 541.6666666666666 689.6666666666667 541.6666666666666 666.6666666666667V458.3333333333334C541.6666666666666 435.3333333333334 523 416.6666666666668 500 416.6666666666668C477 416.6666666666668 458.3333333333333 435.3333333333334 458.3333333333333 458.3333333333334V666.6666666666667zM458.3333333333333 333.3333333333334C458.3333333333333 356.3333333333334 477 375 500 375C523 375 541.6666666666666 356.3333333333334 541.6666666666666 333.3333333333334C541.6666666666666 310.3333333333334 523 291.6666666666668 500 291.6666666666668C477 291.6666666666668 458.3333333333333 310.3333333333334 458.3333333333333 333.3333333333334zM500 166.6666666666668C316.2083333333333 166.6666666666668 166.6666666666667 316.2083333333334 166.6666666666667 500C166.6666666666667 683.7916666666667 316.2083333333333 833.3333333333334 500 833.3333333333334C683.7916666666666 833.3333333333334 833.3333333333333 683.7916666666667 833.3333333333333 500C833.3333333333333 316.2083333333334 683.7916666666666 166.6666666666668 500 166.6666666666668zM500 916.6666666666666C269.875 916.6666666666666 83.3333333333333 730.125 83.3333333333333 500C83.3333333333333 269.875 269.875 83.3333333333334 500 83.3333333333334C730.125 83.3333333333334 916.6666666666666 269.875 916.6666666666666 500C916.6666666666666 730.125 730.125 916.6666666666666 500 916.6666666666666z" />
    <glyph glyph-name="alert-triangle"
      unicode="&#xEA04;"
      horiz-adv-x="1000" d="M458.3333333333333 625C458.3333333333333 648 477 666.6666666666667 500 666.6666666666667C523 666.6666666666667 541.6666666666666 648 541.6666666666666 625V458.3333333333334C541.6666666666666 435.3333333333334 523 416.6666666666668 500 416.6666666666668C477 416.6666666666668 458.3333333333333 435.3333333333334 458.3333333333333 458.3333333333334V625zM458.3333333333333 333.3333333333334C458.3333333333333 356.3333333333334 477 375 500 375C523 375 541.6666666666666 356.3333333333334 541.6666666666666 333.3333333333334C541.6666666666666 310.3333333333334 523 291.6666666666668 500 291.6666666666668C477 291.6666666666668 458.3333333333333 310.3333333333334 458.3333333333333 333.3333333333334zM869.3625 235.2916666666667C859.8208333333333 218.4166666666668 841.2374999999998 208.3333333333334 819.6541666666667 208.3333333333334H180.3208333333333C158.7375 208.3333333333334 140.1541666666667 218.4166666666668 130.6541666666667 235.2916666666667C126.1541666666667 243.2083333333334 120.2375 259.3333333333334 131.3625 277.6666666666668L450.9875 807.5833333333334C470.4458333333333 839.8333333333334 529.5291666666667 839.8333333333334 548.9875 807.5833333333334L868.6541666666666 277.6666666666668C879.7375 259.3333333333334 873.8625 243.2083333333334 869.3625 235.2916666666667zM940.0291666666666 320.7083333333334L620.3625 850.6666666666667C595.4041666666666 892 550.4041666666666 916.6666666666666 499.9875 916.6666666666666C449.5708333333334 916.6666666666666 404.5708333333334 892 379.6541666666667 850.6666666666667L59.9875 320.7083333333334C36.279125 281.4166666666668 35.5707916666667 234.1666666666668 58.0708333333333 194.3333333333335C82.1958333333333 151.5416666666668 129.0708333333333 125 180.3208333333333 125H819.6541666666667C870.9458333333332 125 917.7791666666666 151.5416666666668 941.9458333333334 194.3333333333335C964.4458333333332 234.1666666666668 963.7375 281.4166666666668 940.0291666666666 320.7083333333334z" />
    <glyph glyph-name="anonym"
      unicode="&#xEA05;"
      horiz-adv-x="1000" d="M656.1624999999999 874.3362500000001C677.4083333333333 878.0541666666667 698.2208333333333 865.8466666666667 705.3458333333333 845.4891666666667L814.0708333333333 534.8458333333333C855.3333333333333 527.7375 897.4333333333333 518.9749999999999 940.1375 508.3C963.7458333333332 502.3958333333333 978.1 478.475 972.1958333333332 454.8666666666667C966.2958333333332 431.2583333333334 942.3708333333332 416.9041666666667 918.7625 422.8041666666667C692.3291666666667 479.4125 483.0375 479.475 330.1579166666667 465.2708333333334C253.7979166666667 458.1750000000001 191.7566666666666 447.5416666666667 149.0083333333333 438.7416666666667C127.6420833333333 434.3416666666667 111.1183333333333 430.4041666666667 100.06125 427.6041666666667C94.53375 426.2041666666667 90.3741666666667 425.0916666666667 87.6616666666667 424.3458333333334L84.68875 423.5125000000001L84.0345833333333 423.3250000000001L83.9258333333333 423.2916666666668C60.5958333333333 416.4041666666667 36.0954166666667 429.725 29.19525 453.0541666666667C22.293125 476.3916666666668 35.6152083333333 500.9041666666666 58.9508333333333 507.8041666666667L58.9508333333333 507.8041666666667C58.94375 507.8041666666667 58.9633333333333 507.7375000000001 60.5066666666667 502.5250000000001L71.4483333333333 465.5541666666667L58.9508333333333 507.8041666666667L59.12125 507.8541666666667L59.4354166666667 507.9458333333333L60.49125 508.2500000000001C61.3841666666667 508.5041666666667 62.65375 508.8625 64.2895833333333 509.3125C67.56125 510.2125 72.3 511.4833333333334 78.4270833333333 513.0333333333333C90.6795833333333 516.1375 108.4933333333333 520.375 131.2379166666667 525.0583333333334C176.7116666666667 534.4208333333333 241.9866666666667 545.5833333333333 322.0045833333333 553.0166666666667C430.1208333333334 563.0625 565.5958333333333 566.3458333333333 715.7583333333333 548.975L634.5208333333333 781.0845833333333L449.9333333333334 748.7816666666668C442.5166666666667 747.48375 434.8875 748.1083333333333 427.7791666666667 750.5958333333333L360.0895833333334 774.2879166666667L318.3291666666667 640.6545833333333C311.0708333333334 617.4270833333334 286.3570833333333 604.4816666666667 263.1295833333333 611.7404166666668C239.9025 618.99875 226.9570833333334 643.7125 234.2154166666667 666.94L289.5704166666667 844.0758333333333C293.1333333333334 855.4766666666667 301.1716666666666 864.9420833333334 311.8445833333334 870.3050000000001C322.5170833333333 875.6675 334.9095833333333 876.4679166666667 346.1833333333334 872.5220833333333L446.0541666666666 837.5670833333334L656.1624999999999 874.3362500000001zM326.1029166666667 166.6833333333334C387.24625 166.6833333333334 436.8125 216.2500000000001 436.8125 277.3916666666667C436.8125 287.725 435.3958333333333 297.7291666666667 432.75 307.2166666666667C474.6583333333333 308.5458333333335 520.0333333333333 308.2583333333334 567.9291666666667 306.3208333333335C565.4416666666666 297.1000000000002 564.1125 287.4000000000001 564.1125 277.3916666666667C564.1125 216.2458333333334 613.6791666666667 166.6791666666667 674.8208333333332 166.6791666666667C735.9666666666666 166.6791666666667 785.5333333333332 216.2458333333334 785.5333333333332 277.3916666666667C785.5333333333332 338.5333333333334 735.9666666666666 388.1 674.8208333333332 388.1C674.4541666666667 388.1 674.0833333333334 388.1 673.7166666666666 388.0958333333333C543 398.7541666666667 421.7333333333334 398.9375 325.6841666666667 388.1C264.7333333333334 387.875 215.3929166666667 338.3958333333334 215.3929166666667 277.3916666666667C215.3929166666667 216.2500000000001 264.9595833333333 166.6833333333334 326.1029166666667 166.6833333333334z" />
    <glyph glyph-name="archive"
      unicode="&#xEA06;"
      horiz-adv-x="1000" d="M411.0916666666666 416.6666666666668H588.925C608.7583333333333 416.6666666666668 625.0083333333333 432.9166666666668 625.0083333333333 452.75V463.9166666666667C625.0083333333333 483.75 608.7583333333333 500 588.925 500H411.0916666666666C391.2166666666667 500 375.0083333333333 483.75 375.0083333333333 463.9166666666667V452.75C375.0083333333333 432.9166666666668 391.2166666666667 416.6666666666668 411.0916666666666 416.6666666666668zM750 250C750 227.0416666666668 731.3333333333333 208.3333333333334 708.3333333333333 208.3333333333334H291.6666666666667C268.7083333333333 208.3333333333334 250 227.0416666666668 250 250V625H750V250zM250 791.6666666666667H750C772.9999999999999 791.6666666666667 791.6666666666666 772.9583333333334 791.6666666666666 750C791.6666666666666 727.0416666666667 772.9999999999999 708.3333333333334 750 708.3333333333334H250C227.0416666666667 708.3333333333334 208.3333333333333 727.0416666666667 208.3333333333333 750C208.3333333333333 772.9583333333334 227.0416666666667 791.6666666666667 250 791.6666666666667zM875 750C875 818.9166666666667 818.9166666666666 875 750 875H250C181.0833333333333 875 125 818.9166666666667 125 750C125 713.2083333333334 141.2916666666667 680.4166666666667 166.6666666666667 657.5V250C166.6666666666667 181.0833333333334 222.75 125 291.6666666666667 125H708.3333333333333C777.25 125 833.3333333333333 181.0833333333334 833.3333333333333 250V657.5C858.7083333333334 680.4166666666667 875 713.2083333333334 875 750z" />
    <glyph glyph-name="arrow-down-1"
      unicode="&#xEA07;"
      horiz-adv-x="1000" d="M541.6708333333333 791.6666666666667L541.6708333333333 297.2916666666668L723.3375 448.6666666666668C741.0041666666666 463.4166666666667 767.2958333333332 461 782.0041666666666 443.3333333333334C796.7541666666666 425.625 794.3375 399.3750000000001 776.6708333333333 384.6666666666667L526.6708333333333 176.3333333333334C524.7125 174.7083333333335 522.4208333333333 173.875 520.2541666666666 172.6666666666666C518.5041666666666 171.6666666666668 517.0041666666666 170.4583333333334 515.0875 169.7083333333334C510.2958333333333 167.8333333333334 505.2541666666666 166.7083333333335 500.1708333333333 166.7083333333335C500.1291666666666 166.7083333333335 500.0458333333333 166.6666666666668 500.0041666666666 166.6666666666668C499.9625 166.6666666666668 499.8791666666666 166.7083333333335 499.8375 166.7083333333335C494.7541666666667 166.7083333333335 489.7125 167.8333333333334 484.9208333333333 169.7083333333334C483.0041666666667 170.4583333333334 481.5041666666667 171.6666666666668 479.7541666666666 172.6666666666666C477.5875 173.875 475.2958333333333 174.7083333333335 473.3374999999999 176.3333333333334L223.3370833333333 384.6666666666667C213.4620833333334 392.9166666666668 208.3370833333334 404.75 208.3370833333334 416.6666666666668C208.3370833333334 426.0833333333334 211.50375 435.5416666666667 218.00375 443.3333333333334C232.7120833333333 461 259.0037500000001 463.4166666666667 276.6704166666667 448.6666666666668L458.3375 297.2916666666668L458.3375 791.6666666666667C458.3375 814.6666666666666 477.0041666666667 833.3333333333334 500.0041666666666 833.3333333333334C523.0041666666666 833.3333333333334 541.6708333333333 814.6666666666666 541.6708333333333 791.6666666666667z" />
    <glyph glyph-name="arrow-down"
      unicode="&#xEA08;"
      horiz-adv-x="1000" d="M541.6708333333333 791.6666666666667L541.6708333333333 297.2916666666668L723.3375 448.6666666666668C741.0041666666666 463.4166666666667 767.2958333333332 461 782.0041666666666 443.3333333333334C796.7541666666666 425.625 794.3375 399.3750000000001 776.6708333333333 384.6666666666667L526.6708333333333 176.3333333333334C524.7125 174.7083333333335 522.4208333333333 173.875 520.2541666666666 172.6666666666666C518.5041666666666 171.6666666666668 517.0041666666666 170.4583333333334 515.0875 169.7083333333334C510.2958333333333 167.8333333333334 505.2541666666666 166.7083333333335 500.1708333333333 166.7083333333335C500.1291666666666 166.7083333333335 500.0458333333333 166.6666666666668 500.0041666666666 166.6666666666668C499.9625 166.6666666666668 499.8791666666666 166.7083333333335 499.8375 166.7083333333335C494.7541666666667 166.7083333333335 489.7125 167.8333333333334 484.9208333333333 169.7083333333334C483.0041666666667 170.4583333333334 481.5041666666667 171.6666666666668 479.7541666666666 172.6666666666666C477.5875 173.875 475.2958333333333 174.7083333333335 473.3374999999999 176.3333333333334L223.3370833333333 384.6666666666667C213.4620833333334 392.9166666666668 208.3370833333334 404.75 208.3370833333334 416.6666666666668C208.3370833333334 426.0833333333334 211.50375 435.5416666666667 218.00375 443.3333333333334C232.7120833333333 461 259.0037500000001 463.4166666666667 276.6704166666667 448.6666666666668L458.3375 297.2916666666668L458.3375 791.6666666666667C458.3375 814.6666666666666 477.0041666666667 833.3333333333334 500.0041666666666 833.3333333333334C523.0041666666666 833.3333333333334 541.6708333333333 814.6666666666666 541.6708333333333 791.6666666666667z" />
    <glyph glyph-name="arrow-left-fill"
      unicode="&#xEA09;"
      horiz-adv-x="1000" d="M791.6666666666666 541.6708333333333H297.2916666666667L448.6666666666667 723.3370833333333C463.4166666666666 741.0037500000001 461 767.2954166666667 443.3333333333333 782.00375C425.625 796.7537500000001 399.375 794.3370833333333 384.6666666666667 776.6704166666667L176.3333333333334 526.6708333333333C174.7083333333333 524.7125000000001 173.875 522.4208333333333 172.6666666666667 520.2541666666667C171.6666666666667 518.5041666666667 170.4583333333334 517.0041666666666 169.7083333333334 515.0875000000001C167.8333333333333 510.2958333333333 166.7083333333334 505.2541666666667 166.7083333333334 500.1708333333333C166.7083333333334 500.1291666666667 166.6666666666667 500.0458333333333 166.6666666666667 500.0041666666667C166.6666666666667 499.9625 166.7083333333334 499.8791666666667 166.7083333333334 499.8375C166.7083333333334 494.7541666666667 167.8333333333333 489.7125 169.7083333333334 484.9208333333333C170.4583333333334 483.0041666666667 171.6666666666667 481.5041666666667 172.6666666666667 479.7541666666666C173.875 477.5875 174.7083333333333 475.2958333333333 176.3333333333334 473.3375L384.6666666666667 223.3375C392.9166666666667 213.4625000000001 404.75 208.3375000000001 416.6666666666667 208.3375000000001C426.0833333333334 208.3375000000001 435.5416666666667 211.5041666666667 443.3333333333333 218.0041666666667C461 232.7125000000001 463.4166666666666 259.0041666666667 448.6666666666667 276.6708333333334L297.2916666666667 458.3375H791.6666666666666C814.6666666666666 458.3375 833.3333333333333 477.0041666666667 833.3333333333333 500.0041666666667C833.3333333333333 523.0041666666666 814.6666666666666 541.6708333333333 791.6666666666666 541.6708333333333z" />
    <glyph glyph-name="arrow-left"
      unicode="&#xEA0A;"
      horiz-adv-x="1000" d="M791.6666666666666 541.6708333333333H297.2916666666667L448.6666666666667 723.3370833333333C463.4166666666666 741.0037500000001 461 767.2954166666667 443.3333333333333 782.00375C425.625 796.7537500000001 399.375 794.3370833333333 384.6666666666667 776.6704166666667L176.3333333333334 526.6708333333333C174.7083333333333 524.7125000000001 173.875 522.4208333333333 172.6666666666667 520.2541666666667C171.6666666666667 518.5041666666667 170.4583333333334 517.0041666666666 169.7083333333334 515.0875000000001C167.8333333333333 510.2958333333333 166.7083333333334 505.2541666666667 166.7083333333334 500.1708333333333C166.7083333333334 500.1291666666667 166.6666666666667 500.0458333333333 166.6666666666667 500.0041666666667C166.6666666666667 499.9625 166.7083333333334 499.8791666666667 166.7083333333334 499.8375C166.7083333333334 494.7541666666667 167.8333333333333 489.7125 169.7083333333334 484.9208333333333C170.4583333333334 483.0041666666667 171.6666666666667 481.5041666666667 172.6666666666667 479.7541666666666C173.875 477.5875 174.7083333333333 475.2958333333333 176.3333333333334 473.3375L384.6666666666667 223.3375C392.9166666666667 213.4625000000001 404.75 208.3375000000001 416.6666666666667 208.3375000000001C426.0833333333334 208.3375000000001 435.5416666666667 211.5041666666667 443.3333333333333 218.0041666666667C461 232.7125000000001 463.4166666666666 259.0041666666667 448.6666666666667 276.6708333333334L297.2916666666667 458.3375H791.6666666666666C814.6666666666666 458.3375 833.3333333333333 477.0041666666667 833.3333333333333 500.0041666666667C833.3333333333333 523.0041666666666 814.6666666666666 541.6708333333333 791.6666666666666 541.6708333333333z" />
    <glyph glyph-name="arrow-right-1"
      unicode="&#xEA0B;"
      horiz-adv-x="1000" d="M208.3333333333333 541.6708333333333H702.7083333333333L551.3333333333333 723.3370833333333C536.5833333333333 741.0037500000001 539 767.2954166666667 556.6666666666666 782.00375C574.375 796.7537500000001 600.6249999999999 794.3370833333333 615.3333333333334 776.6704166666667L823.6666666666666 526.6708333333333C825.2916666666665 524.7125000000001 826.125 522.4208333333333 827.3333333333334 520.2541666666667C828.3333333333333 518.5041666666667 829.5416666666666 517.0041666666666 830.2916666666666 515.0875000000001C832.1666666666666 510.2958333333333 833.2916666666665 505.2541666666667 833.2916666666665 500.1708333333333C833.2916666666665 500.1291666666667 833.3333333333333 500.0458333333333 833.3333333333333 500.0041666666667C833.3333333333333 499.9625 833.2916666666665 499.8791666666667 833.2916666666665 499.8375C833.2916666666665 494.7541666666667 832.1666666666666 489.7125 830.2916666666666 484.9208333333333C829.5416666666666 483.0041666666667 828.3333333333333 481.5041666666667 827.3333333333334 479.7541666666666C826.125 477.5875 825.2916666666665 475.2958333333333 823.6666666666666 473.3375L615.3333333333334 223.3375C607.0833333333333 213.4625000000001 595.25 208.3375000000001 583.3333333333333 208.3375000000001C573.9166666666666 208.3375000000001 564.4583333333334 211.5041666666667 556.6666666666666 218.0041666666667C539 232.7125000000001 536.5833333333333 259.0041666666667 551.3333333333333 276.6708333333334L702.7083333333333 458.3375H208.3333333333333C185.3333333333334 458.3375 166.6666666666667 477.0041666666667 166.6666666666667 500.0041666666667C166.6666666666667 523.0041666666666 185.3333333333334 541.6708333333333 208.3333333333333 541.6708333333333z" />
    <glyph glyph-name="arrow-right-2"
      unicode="&#xEA0C;"
      horiz-adv-x="1000" d="M208.3333333333333 541.6708333333333H702.7083333333333L551.3333333333333 723.3370833333333C536.5833333333333 741.0037500000001 539 767.2954166666667 556.6666666666666 782.00375C574.375 796.7537500000001 600.6249999999999 794.3370833333333 615.3333333333334 776.6704166666667L823.6666666666666 526.6708333333333C825.2916666666665 524.7125000000001 826.125 522.4208333333333 827.3333333333334 520.2541666666667C828.3333333333333 518.5041666666667 829.5416666666666 517.0041666666666 830.2916666666666 515.0875000000001C832.1666666666666 510.2958333333333 833.2916666666665 505.2541666666667 833.2916666666665 500.1708333333333C833.2916666666665 500.1291666666667 833.3333333333333 500.0458333333333 833.3333333333333 500.0041666666667C833.3333333333333 499.9625 833.2916666666665 499.8791666666667 833.2916666666665 499.8375C833.2916666666665 494.7541666666667 832.1666666666666 489.7125 830.2916666666666 484.9208333333333C829.5416666666666 483.0041666666667 828.3333333333333 481.5041666666667 827.3333333333334 479.7541666666666C826.125 477.5875 825.2916666666665 475.2958333333333 823.6666666666666 473.3375L615.3333333333334 223.3375C607.0833333333333 213.4625000000001 595.25 208.3375000000001 583.3333333333333 208.3375000000001C573.9166666666666 208.3375000000001 564.4583333333334 211.5041666666667 556.6666666666666 218.0041666666667C539 232.7125000000001 536.5833333333333 259.0041666666667 551.3333333333333 276.6708333333334L702.7083333333333 458.3375H208.3333333333333C185.3333333333334 458.3375 166.6666666666667 477.0041666666667 166.6666666666667 500.0041666666667C166.6666666666667 523.0041666666666 185.3333333333334 541.6708333333333 208.3333333333333 541.6708333333333z" />
    <glyph glyph-name="arrow-right"
      unicode="&#xEA0D;"
      horiz-adv-x="1000" d="M208.3333333333333 541.6708333333333H702.7083333333333L551.3333333333333 723.3370833333333C536.5833333333333 741.0037500000001 539 767.2954166666667 556.6666666666666 782.00375C574.375 796.7537500000001 600.6249999999999 794.3370833333333 615.3333333333334 776.6704166666667L823.6666666666666 526.6708333333333C825.2916666666665 524.7125000000001 826.125 522.4208333333333 827.3333333333334 520.2541666666667C828.3333333333333 518.5041666666667 829.5416666666666 517.0041666666666 830.2916666666666 515.0875000000001C832.1666666666666 510.2958333333333 833.2916666666665 505.2541666666667 833.2916666666665 500.1708333333333C833.2916666666665 500.1291666666667 833.3333333333333 500.0458333333333 833.3333333333333 500.0041666666667C833.3333333333333 499.9625 833.2916666666665 499.8791666666667 833.2916666666665 499.8375C833.2916666666665 494.7541666666667 832.1666666666666 489.7125 830.2916666666666 484.9208333333333C829.5416666666666 483.0041666666667 828.3333333333333 481.5041666666667 827.3333333333334 479.7541666666666C826.125 477.5875 825.2916666666665 475.2958333333333 823.6666666666666 473.3375L615.3333333333334 223.3375C607.0833333333333 213.4625000000001 595.25 208.3375000000001 583.3333333333333 208.3375000000001C573.9166666666666 208.3375000000001 564.4583333333334 211.5041666666667 556.6666666666666 218.0041666666667C539 232.7125000000001 536.5833333333333 259.0041666666667 551.3333333333333 276.6708333333334L702.7083333333333 458.3375H208.3333333333333C185.3333333333334 458.3375 166.6666666666667 477.0041666666667 166.6666666666667 500.0041666666667C166.6666666666667 523.0041666666666 185.3333333333334 541.6708333333333 208.3333333333333 541.6708333333333z" />
    <glyph glyph-name="at"
      unicode="&#xEA0E;"
      horiz-adv-x="1000" d="M465.9041666666666 371.2208333333334C394.905 371.2208333333334 337.1133333333333 429.0125000000001 337.1133333333333 500.0125C337.1133333333333 571.0125 394.905 628.8041666666668 465.9041666666666 628.8041666666668C536.9041666666666 628.8041666666668 594.6958333333333 571.0125 594.6958333333333 500.0125C594.6958333333333 429.0125000000001 536.9041666666666 371.2208333333334 465.9041666666666 371.2208333333334zM539.7791666666667 914.8458333333334C414.7383333333334 926.5958333333334 292.4466666666667 882.3041666666667 204.405 793.6375C116.3216666666667 705.0125 72.9466666666667 582.3875 85.4466666666667 457.2625C100.3633333333333 308.4291666666667 194.155 178.8458333333334 330.28 119.1375000000001C384.7383333333333 95.2625000000001 442.4875 83.5541666666667 499.8208333333333 83.5541666666667C590.1541666666667 83.5541666666667 679.5291666666667 112.6791666666667 753.3208333333332 169.1791666666668C771.6125 183.1791666666667 775.0708333333333 209.3458333333334 761.0708333333332 227.6375000000001C747.0708333333333 245.8458333333334 720.9458333333333 249.3041666666667 702.6541666666667 235.3458333333333C606.0708333333333 161.3875000000001 476.2375 146.2208333333334 363.7383333333334 195.4708333333333C256.7383333333333 242.3875000000001 180.1133333333334 348.3875000000001 168.3633333333334 465.5958333333334C158.3633333333333 565.8041666666667 193.03 663.9708333333333 263.53 734.9291666666667C333.9466666666667 805.8458333333333 431.9458333333334 841.3458333333333 532.0708333333333 831.8458333333333C701.0291666666666 816.1375 833.3208333333333 666.2625 833.3208333333333 490.6375V462.5125C833.3208333333333 443.0125000000001 825.5708333333333 424.8458333333334 811.4458333333332 411.3458333333333C797.3625 397.8458333333333 778.6958333333333 390.9291666666668 759.2374999999998 391.7625000000001C721.9875 393.3875000000001 691.6541666666666 428.4291666666667 691.6541666666666 469.8458333333334V650.0125C691.6541666666666 673.0541666666667 673.0291666666666 691.6791666666667 649.9875 691.6791666666667C628.7791666666666 691.6791666666667 612.0291666666667 675.7208333333333 609.3625 655.2208333333333C571.5291666666666 690.2208333333333 521.3625 712.1375 465.9041666666666 712.1375C348.9466666666667 712.1375 253.78 616.9291666666667 253.78 500.0125C253.78 383.0541666666667 348.9466666666667 287.8875000000002 465.9041666666666 287.8875000000002C536.7375 287.8875000000002 599.1958333333332 323.1375 637.7375 376.6375000000001C664.6125 337.4708333333333 707.2375 310.6375000000001 755.5708333333333 308.5125000000001C797.7791666666666 306.2625000000001 838.3625 321.7625000000001 869.0708333333333 351.1375000000001C899.7791666666666 380.5125000000001 916.6541666666666 420.0541666666667 916.6541666666666 462.5125V490.6375C916.6541666666666 708.8458333333333 751.1541666666666 895.1375 539.7791666666667 914.8458333333334z" />
    <glyph glyph-name="attach-2"
      unicode="&#xEA0F;"
      horiz-adv-x="1000" d="M387.2308333333333 125C318.2308333333334 125 252.6475 152.7500000000001 202.5641666666666 203.125C103.0641666666667 303.25 98.9808333333333 462 193.4391666666667 557.0416666666667L501.1874999999999 866.625C533.2291666666666 898.875 576.4791666666666 916.6666666666666 622.9375 916.6666666666666C672.6458333333333 916.6666666666666 719.8958333333333 896.7083333333334 755.9374999999999 860.4583333333334C827.6458333333333 788.3333333333334 830.3958333333334 673.7083333333333 762.0208333333333 604.9583333333334L453.8958333333333 295.4166666666668C433.9375 275.2916666666667 407.0641666666666 264.25 378.2308333333334 264.25C347.7724999999999 264.25 318.8975 276.4166666666668 296.9808333333333 298.4583333333334C253.1058333333333 342.6666666666668 251.7308333333333 413.125 293.9391666666667 455.625L578.3125 741.25C594.5625 757.5833333333334 620.8958333333334 757.6666666666667 637.2291666666666 741.4166666666667C653.5208333333333 725.1666666666667 653.6041666666666 698.7916666666667 637.3541666666666 682.5L353.0225 396.8333333333334C343.0225 386.75 344.3975 368.9583333333334 356.1058333333334 357.2083333333334C362.1891666666666 351.0833333333334 370.2725 347.5833333333334 378.2308333333334 347.5833333333334C382.8141666666667 347.5833333333334 389.3975 348.7083333333334 394.8141666666667 354.1666666666668L702.9375 663.7083333333334C739.0625 700.0833333333333 736.3541666666666 761.9583333333334 696.8541666666666 801.7083333333334C659.0625 839.7083333333334 594.9374999999999 842.7083333333334 560.2708333333334 807.875L252.5225 498.2916666666667C190.2725 435.6666666666667 194.3558333333333 329.5833333333334 261.6891666666667 261.875C295.9808333333333 227.3333333333334 340.5641666666666 208.3333333333334 387.2308333333333 208.3333333333334C428.9375 208.3333333333334 467.6041666666666 224.0833333333334 496.0208333333333 252.6666666666668L803.8124999999999 562.25C820.0208333333333 578.5416666666667 846.3958333333334 578.6666666666667 862.7291666666666 562.4166666666667C879.0208333333333 546.1666666666667 879.1041666666666 519.8333333333334 862.8958333333333 503.5L555.1041666666666 193.9166666666668C510.9374999999999 149.5000000000001 451.3125 125 387.2308333333333 125z" />
    <glyph glyph-name="bell-fill"
      unicode="&#xEA10;"
      horiz-adv-x="1000" d="M583.3375 235.7791666666667C583.3375 198.3208333333333 545.1708333333332 166.6541666666667 500.0041666666666 166.6541666666667C454.8375 166.6541666666667 416.6708333333333 198.3208333333333 416.6708333333333 235.7791666666667V249.9875000000001H583.3375V235.7791666666667zM855.0458333333333 366.3625000000001L780.0041666666666 441.4875000000001V627.6558333333332C780.0041666666666 772.6975 675.7541666666666 895.8641666666667 537.4625 914.1975C457.4208333333333 924.8225 376.5870833333334 900.4058333333334 315.9620833333334 847.2391666666667C254.9620833333333 793.8225 220.00375 716.9475 220.00375 636.3641666666667L219.9620833333333 441.4875000000001L144.9620833333333 366.3208333333335C125.4204166666667 346.7791666666667 119.62875 317.6125 130.2120833333334 292.0708333333334C140.8370833333334 266.5291666666667 165.5454166666667 249.9875000000001 193.2120833333333 249.9875000000001H333.3370833333334V235.7791666666667C333.3370833333334 151.6958333333333 408.0870833333334 83.3208333333334 500.0041666666666 83.3208333333334C591.9208333333332 83.3208333333334 666.6708333333332 151.6958333333333 666.6708333333332 235.7791666666667V249.9875000000001H806.7541666666667C834.4208333333332 249.9875000000001 859.1291666666666 266.4875000000001 869.7125 292.0708333333334C880.3375 317.6125 874.5458333333333 346.7791666666667 855.0458333333333 366.3625000000001z" />
    <glyph glyph-name="bell-off-fill"
      unicode="&#xEA11;"
      horiz-adv-x="1000" d="M296.9620833333334 820.8820833333334L358.0454166666667 759.8404166666667L755.0458333333332 362.8000000000001L838.0875 279.7583333333335L850.8375 267.05C858.7125 273.8416666666667 865.5458333333332 281.9666666666667 869.7125 292.0500000000001C880.3375 317.5916666666667 874.5458333333333 346.8000000000001 855.0458333333333 366.3416666666667L780.0041666666666 441.5083333333334V627.6320833333334C780.0041666666666 772.67375 675.7541666666666 895.8820833333333 537.4625 914.17375C457.4208333333333 924.8404166666666 376.5870833333334 900.3820833333333 315.9620833333334 847.2154166666667C307.8787500000001 840.1320833333334 300.2954166666667 832.5904166666667 293.12875 824.7154166666667L296.9620833333334 820.8820833333334zM583.3375 235.7791666666667C583.3375 198.3208333333333 545.1708333333332 166.6541666666667 500.0041666666666 166.6541666666667C454.8375 166.6541666666667 416.6708333333333 198.3208333333333 416.6708333333333 235.7791666666667V249.9875000000001H583.3375V235.7791666666667zM661.6291666666666 220.5291666666667L637.2125 244.9458333333334L581.1708333333333 300.9458333333334L578.2958333333332 303.8625000000001L274.00375 608.1529166666667L221.3370833333334 660.8195833333334C220.62875 652.6945833333333 220.00375 644.5695833333334 220.00375 636.3612499999999L219.9620833333333 441.4875000000001L144.9620833333333 366.3208333333335C125.4204166666667 346.7791666666667 119.62875 317.6125 130.2120833333334 292.0708333333334C140.8370833333334 266.5291666666667 165.5454166666667 249.9875000000001 193.2120833333333 249.9875000000001H333.3370833333334V235.7791666666667C333.3370833333334 151.6958333333333 408.0870833333334 83.3208333333334 500.0041666666666 83.3208333333334C585.0875 83.3208333333334 654.6708333333332 142.1125 664.6291666666666 217.5291666666667L661.6291666666666 220.5291666666667zM808.6291666666666 250.2916666666668L862.7958333333333 196.1250000000001C879.0874999999999 179.8333333333334 879.0874999999999 153.5000000000001 862.7958333333333 137.2083333333334C854.6708333333333 129.0833333333334 844.0041666666666 125 833.3375 125C822.6708333333332 125 812.0041666666666 129.0833333333334 803.8791666666666 137.2083333333334L691.0874999999999 250L666.6708333333332 274.4166666666667L610.6291666666666 330.4583333333334L607.7541666666666 333.3333333333334L303.4620833333333 637.62375L230.4620833333333 710.5820833333333L137.2120833333333 803.87375C120.9204166666667 820.1654166666667 120.9204166666667 846.49875 137.2120833333333 862.7904166666667C153.50375 879.0820833333333 179.8370833333333 879.0820833333333 196.12875 862.7904166666667L267.50375 791.4154166666667L328.5870833333334 730.37375L725.5875 333.3333333333334L808.6291666666666 250.2916666666668z" />
    <glyph glyph-name="bell"
      unicode="&#xEA12;"
      horiz-adv-x="1000" d="M229.775 333.3291666666668L278.9416666666667 382.5791666666668C294.6916666666667 398.3291666666668 303.3583333333333 419.2458333333334 303.3583333333333 441.4958333333334V636.3716666666667C303.3583333333333 692.9133333333334 327.9416666666666 746.955 370.8583333333334 784.5383333333334C414.1083333333333 822.455 469.1916666666667 839.1216666666667 526.5666666666667 831.5799999999999C623.525 818.705 696.65 731.0383333333334 696.65 627.6216666666667V441.4958333333334C696.65 419.2458333333334 705.3166666666667 398.3291666666668 721.025 382.6208333333334L770.2333333333333 333.3291666666668H229.775zM583.3166666666666 235.7875C583.3166666666666 198.3291666666667 545.15 166.6625 499.9833333333333 166.6625C454.8166666666666 166.6625 416.6499999999999 198.3291666666667 416.6499999999999 235.7875V249.9958333333334H583.3166666666666V235.7875zM855.025 366.3291666666667L779.9833333333332 441.4958333333334V627.6216666666667C779.9833333333332 772.6633333333334 675.7333333333333 895.8716666666667 537.4833333333332 914.1633333333332C457.4 924.83 376.5666666666666 900.3716666666667 315.9416666666667 847.205C254.9416666666667 793.7883333333333 220.025 716.955 220.025 636.3716666666667L219.9833333333333 441.4958333333334L144.9416666666667 366.3291666666667C125.4 346.7458333333334 119.6083333333333 317.6208333333334 130.1916666666667 292.0791666666667C140.8166666666667 266.4958333333334 165.525 249.9958333333334 193.1916666666666 249.9958333333334H333.3166666666667V235.7875C333.3166666666667 151.7041666666667 408.0666666666666 83.3291666666668 499.9833333333333 83.3291666666668C591.9 83.3291666666668 666.65 151.7041666666667 666.65 235.7875V249.9958333333334H806.775C834.4416666666666 249.9958333333334 859.1083333333333 266.4958333333334 869.6916666666666 292.0375C880.3166666666666 317.6208333333334 874.5666666666666 346.7875 855.025 366.3291666666667z" />
    <glyph glyph-name="bookmark-fill"
      unicode="&#xEA13;"
      horiz-adv-x="1000" d="M250 125C242.9166666666667 125 235.8333333333333 126.7916666666666 229.4583333333333 130.4166666666666C216.4166666666667 137.7916666666666 208.3333333333333 151.6666666666668 208.3333333333333 166.6666666666668V777.7916666666667C208.3333333333333 831.375 249.4583333333333 875 300 875H700C750.5416666666667 875 791.6666666666666 831.375 791.6666666666666 777.7916666666667V166.6666666666668C791.6666666666666 151.875 783.7916666666666 138.1250000000001 771 130.6666666666666C758.2083333333333 123.1666666666668 742.4166666666666 123.0833333333334 729.4999999999999 130.3750000000001L493.1666666666666 264.0416666666668L271.4583333333333 130.9583333333334C264.8333333333333 127 257.4166666666667 125 250 125z" />
    <glyph glyph-name="bookmark"
      unicode="&#xEA14;"
      horiz-adv-x="1000" d="M492.55 353.9166666666668C499.5916666666666 353.9166666666668 506.675 352.1250000000001 513.05 348.5416666666668L708.3416666666666 238.0833333333334V777.75C708.3416666666666 786.125 703.3 791.6666666666667 700.0083333333333 791.6666666666667H300.01C296.6766666666666 791.6666666666667 291.6766666666666 786.125 291.6766666666666 777.75V240.25L471.0916666666666 347.9583333333334C477.7166666666666 351.9166666666668 485.1333333333333 353.9166666666668 492.55 353.9166666666668zM250.01 125C242.9266666666667 125 235.8433333333333 126.7916666666666 229.4683333333334 130.4166666666666C216.4266666666667 137.7916666666666 208.3433333333333 151.6666666666668 208.3433333333333 166.6666666666668V777.75C208.3433333333333 831.375 249.4683333333333 875 300.01 875H700.0083333333333C750.55 875 791.675 831.375 791.675 777.75V166.6666666666668C791.675 151.8333333333333 783.8 138.1250000000001 771.0083333333333 130.6666666666666C758.175 123.1666666666668 742.425 123.0416666666668 729.5083333333332 130.3750000000001L493.175 264.0416666666668L271.4266666666667 130.9166666666668C264.8433333333333 127 257.4266666666666 125 250.01 125z" />
    <glyph glyph-name="chat-add-two"
      unicode="&#xEA15;"
      horiz-adv-x="1000" d="M218.5991666666667 125C184.7825 125 163.0433333333333 129.9 160.6279166666667 129.9C148.5508333333333 132.3541666666668 136.4733333333333 142.1583333333334 131.6425 154.4125C126.8116666666667 166.6666666666668 129.2270833333333 181.3708333333335 134.0579166666667 191.1750000000001C170.29 247.55 177.53625 284.3125 179.9516666666667 301.4708333333333C119.5654166666667 362.7458333333334 83.3333333333333 446.0791666666667 83.3333333333333 526.9625000000001C83.3333333333333 654.4116666666666 167.8745833333333 772.05875 303.14 833.3333333333334C363.5266666666667 860.2941666666667 431.1583333333333 875 501.2083333333333 875C730.675 875 919.0833333333331 718.1370833333333 919.0833333333331 524.5083333333334C919.0833333333331 330.8833333333334 733.0916666666667 174.0208333333334 501.2083333333333 174.0208333333334C472.2208333333333 174.0208333333334 421.4958333333333 183.8250000000001 390.0966666666667 188.725C339.3720833333333 134.8041666666667 266.9083333333333 125 218.5991666666667 125zM501.2083333333333 796.56875C443.2375 796.56875 385.2658333333333 784.31375 336.9566666666667 762.255C228.2608333333333 713.2354166666667 163.0433333333333 625 163.0433333333333 526.9625000000001C163.0433333333333 460.7833333333333 192.0291666666667 394.6083333333334 245.1691666666667 348.0375C247.5845833333333 340.6875000000001 252.4154166666667 335.7833333333334 254.8308333333333 328.4333333333334C257.24625 318.6291666666666 264.4929166666667 276.9625 230.67625 203.4333333333334C269.32375 205.8833333333333 317.6329166666667 215.6875000000001 344.2029166666667 254.9C353.8645833333333 267.1583333333333 368.3575 274.5083333333335 382.8504166666666 269.6083333333335C407.005 264.7041666666668 474.6374999999999 250 501.2083333333333 250C689.6125 250 841.7874999999999 372.5500000000001 841.7874999999999 522.0583333333334C841.7874999999999 671.56875 687.1999999999999 796.56875 501.2083333333333 796.56875zM375 583.3333333333334H625A41.6666666666667 41.6666666666667 0 0 0 666.6666666666666 541.6666666666667V541.6666666666667A41.6666666666667 41.6666666666667 0 0 0 625 500H375A41.6666666666667 41.6666666666667 0 0 0 333.3333333333333 541.6666666666667V541.6666666666667A41.6666666666667 41.6666666666667 0 0 0 375 583.3333333333334zM541.6666666666666 666.6666666666667L541.6666666666666 416.6666666666668A41.6666666666667 41.6666666666667 0 0 0 500 375L500 375A41.6666666666667 41.6666666666667 0 0 0 458.3333333333333 416.6666666666668L458.3333333333333 666.6666666666667A41.6666666666667 41.6666666666667 0 0 0 500 708.3333333333334L500 708.3333333333334A41.6666666666667 41.6666666666667 0 0 0 541.6666666666666 666.6666666666667z" />
    <glyph glyph-name="checkmark-circle"
      unicode="&#xEA16;"
      horiz-adv-x="1000" d="M949.85 551.3H950C977.55 551.3 999.95 529 1000 501.45C1000.4 367.9 948.7500000000002 242.15 854.5500000000001 147.4500000000001C760.4 52.75 635 0.4 501.45 0H500C366.9525 0 241.8025 51.6 147.4525 145.4499999999999C52.7525 239.6 0.402306 365 0.002306015 498.55C-0.397694 632.15 51.2525 757.85 145.4525 852.55C239.6025 947.25 365.0025 999.6 498.5525 1000C538.3 999.4 578.8000000000001 995.4 617.6 986.1C644.4 979.6 660.9499999999999 952.6 654.45 925.75C648 898.95 620.85 882.45 594.15 888.85C563.1 896.35 530.15 899.5 498.8525 900C392.0025 899.7 291.6525000000001 857.8 216.3525 782.05C141.0025 706.3 99.7025 605.7 100.0025 498.85C100.3025 392 142.2025 291.7 217.9525 216.35C293.4525 141.3000000000001 393.5525 100 500 100H501.15C608 100.3 708.35 142.2000000000001 783.65 217.9500000000001C859 293.75 900.3 394.3 900 501.15C899.9499999999999 528.75 922.25 551.25 949.85 551.3zM314.6525 535.355C334.2025 554.905 365.8025 554.905 385.3525 535.355L497.5525 423.1550000000001L812.4000000000001 782.9549999999999C830.5999999999999 803.605 862.15 805.8050000000001 882.9499999999999 787.605C903.7 769.455 905.8 737.855 887.5999999999999 717.0550000000001L537.6 317.0550000000001C528.5 306.6550000000001 515.5 300.505 501.65 300.005H500C486.7524999999999 300.005 474.0525 305.255 464.6525 314.6550000000001L314.6525 464.6550000000001C295.1025 484.205 295.1025 515.8050000000001 314.6525 535.355z" />
    <glyph glyph-name="chevron-left"
      unicode="&#xEA17;"
      horiz-adv-x="1000" d="M556.7624999999999 291.6666666666668C545.8458333333333 291.6666666666668 534.9708333333333 295.9166666666668 526.8041666666667 304.375L365.845 471.0416666666666C350.095 487.4166666666667 350.3033333333334 513.375 366.3866666666666 529.4583333333334L533.0541666666667 696.1245833333334C549.3041666666666 712.41625 575.6791666666667 712.41625 591.9708333333333 696.1245833333334C608.2208333333333 679.8329166666667 608.2208333333333 653.4995833333334 591.9708333333333 637.2079166666667L454.2625 499.5L586.7208333333333 362.2916666666668C602.7208333333333 345.7083333333334 602.2624999999999 319.3333333333335 585.7208333333333 303.375C577.5958333333333 295.5416666666668 567.1791666666666 291.6666666666668 556.7624999999999 291.6666666666668z" />
    <glyph glyph-name="chevron-right-fill"
      unicode="&#xEA18;"
      horiz-adv-x="1000" d="M456.4999999999999 249.8833333333334C443.7083333333333 249.8833333333334 430.7916666666667 252.6333333333334 418.75 258.3000000000001C391.75 271.05 375 296.3416666666668 375 324.3833333333334V675.4675C375 703.5091666666667 391.75 728.8008333333333 418.75 741.5508333333333C449.25 755.9258333333333 485.4166666666666 751.7175 510.7916666666666 730.7591666666667L723.25 555.175C740.2916666666666 541.1750000000001 750 521.0083333333334 750 499.9250000000001C750 478.8416666666667 740.2916666666666 458.6750000000001 723.25 444.6750000000001L510.7916666666666 269.1333333333334C495.4583333333333 256.4250000000001 476.1249999999999 249.8833333333334 456.4999999999999 249.8833333333334z" />
    <glyph glyph-name="chevron-right"
      unicode="&#xEA19;"
      horiz-adv-x="1000" d="M437.5 291.6666666666668C426.8333333333333 291.6666666666668 416.1670833333333 295.75 408.0420833333333 303.875C391.7504166666667 320.1666666666668 391.7504166666667 346.5000000000001 408.0420833333333 362.7916666666668L545.75 500.5000000000001L413.2504166666667 637.7083333333333C397.2920833333333 654.2916666666667 397.7504166666667 680.6666666666667 414.2920833333333 696.625C430.875 712.5833333333334 457.25 712.125 473.2083333333333 695.625L634.1249999999999 528.9583333333334C649.9166666666666 512.5833333333334 649.7083333333333 486.625 633.625 470.5416666666666L466.9583333333333 303.875C458.8333333333333 295.75 448.1666666666667 291.6666666666668 437.5 291.6666666666668z" />
    <glyph glyph-name="chevron-up"
      unicode="&#xEA1A;"
      horiz-adv-x="1000" d="M666.6666666666666 395.8375C656 395.8375 645.3333333333333 399.9208333333334 637.2083333333333 408.0458333333334L499.4999999999999 545.7541666666667L362.2925 413.2541666666667C345.7091666666667 397.2541666666667 319.3758333333334 397.6708333333334 303.3758333333334 414.2958333333334C287.3758333333334 430.8375 287.8341666666667 457.2541666666667 304.3758333333334 473.2125000000001L471.0416666666666 634.1287500000001C487.4166666666666 649.9204166666666 513.4166666666666 649.7120833333333 529.4583333333334 633.6287500000001L696.125 466.9625000000001C712.4166666666666 450.6708333333333 712.4166666666666 424.3375000000001 696.125 408.0458333333334C688 399.9208333333334 677.3333333333333 395.8375 666.6666666666666 395.8375z" />
    <glyph glyph-name="close-fill"
      unicode="&#xEA1B;"
      horiz-adv-x="1000" d="M558.9166666666666 500L737.7916666666666 678.8745833333334C754.0833333333333 695.16625 754.0833333333333 721.4995833333334 737.7916666666666 737.79125C721.4999999999999 754.0829166666667 695.1666666666666 754.0829166666667 678.8749999999999 737.79125L500 558.9166666666667L321.1254166666667 737.79125C304.83375 754.0829166666667 278.5004166666667 754.0829166666667 262.20875 737.79125C245.9170833333333 721.4995833333334 245.9170833333333 695.16625 262.20875 678.8745833333334L441.0833333333333 500L262.20875 321.1250000000001C245.9170833333333 304.8333333333334 245.9170833333333 278.5000000000001 262.20875 262.2083333333334C270.33375 254.0833333333334 281.0004166666667 250 291.6670833333333 250C302.33375 250 313.0004166666667 254.0833333333334 321.1254166666667 262.2083333333334L500 441.0833333333334L678.8749999999999 262.2083333333334C686.9999999999999 254.0833333333334 697.6666666666666 250 708.3333333333333 250C719 250 729.6666666666666 254.0833333333334 737.7916666666666 262.2083333333334C754.0833333333333 278.5000000000001 754.0833333333333 304.8333333333334 737.7916666666666 321.1250000000001L558.9166666666666 500z" />
    <glyph glyph-name="close"
      unicode="&#xEA1C;"
      horiz-adv-x="1000" d="M558.9166666666666 500L737.7916666666666 678.8745833333334C754.0833333333333 695.16625 754.0833333333333 721.4995833333334 737.7916666666666 737.79125C721.4999999999999 754.0829166666667 695.1666666666666 754.0829166666667 678.8749999999999 737.79125L500 558.9166666666667L321.1254166666667 737.79125C304.83375 754.0829166666667 278.5004166666667 754.0829166666667 262.20875 737.79125C245.9170833333333 721.4995833333334 245.9170833333333 695.16625 262.20875 678.8745833333334L441.0833333333333 500L262.20875 321.1250000000001C245.9170833333333 304.8333333333334 245.9170833333333 278.5000000000001 262.20875 262.2083333333334C270.33375 254.0833333333334 281.0004166666667 250 291.6670833333333 250C302.33375 250 313.0004166666667 254.0833333333334 321.1254166666667 262.2083333333334L500 441.0833333333334L678.8749999999999 262.2083333333334C686.9999999999999 254.0833333333334 697.6666666666666 250 708.3333333333333 250C719 250 729.6666666666666 254.0833333333334 737.7916666666666 262.2083333333334C754.0833333333333 278.5000000000001 754.0833333333333 304.8333333333334 737.7916666666666 321.1250000000001L558.9166666666666 500z" />
    <glyph glyph-name="cloud-disconnected"
      unicode="&#xEA1D;"
      horiz-adv-x="1000" d="M137.20875 821.1245833333334C153.5004166666667 837.41625 179.83375 837.41625 196.1254166666667 821.1245833333334L322.47125 694.77875L382.68 634.5704166666667L754.4333333333333 262.8166666666667L822.5458333333332 194.7041666666667L862.7916666666666 154.4583333333334C879.0833333333333 138.1666666666666 879.0833333333333 111.8333333333334 862.7916666666666 95.5416666666667C854.6666666666666 87.4166666666666 844 83.3333333333334 833.3333333333333 83.3333333333334C822.6666666666666 83.3333333333334 811.9999999999999 87.4166666666666 803.8749999999999 95.5416666666667L720.25 179.1666666666668L636.9166666666666 262.5000000000001L333.3408333333333 566.075L256.0891666666667 643.3275L137.20875 762.2079166666667C120.9170833333334 778.4995833333334 120.9170833333334 804.8329166666667 137.20875 821.1245833333334zM83.3333333333333 416.6666666666668C83.3333333333333 507.3083333333333 137.25875 588.5708333333334 213.4520833333333 627.03875L278.6183333333334 561.8708333333334C213.9341666666667 545.1875 166.6666666666667 486.8375000000001 166.6666666666667 416.6666666666668C166.6666666666667 333.3333333333334 233.3333333333333 262.5000000000001 320.8333333333333 262.5000000000001H577.9916666666667L661.3249999999999 179.1666666666668H320.8333333333333C187.5 179.1666666666668 83.3333333333333 283.3333333333334 83.3333333333333 416.6666666666668zM862.4999999999999 379.1666666666668C862.4999999999999 333.1833333333334 836.7291666666665 295.1291666666669 800.2333333333333 275.9458333333334L860.2375000000001 215.9375000000001C909.5916666666666 251.4583333333334 941.6666666666666 309.4083333333333 941.6666666666666 375C941.6666666666666 483.3333333333334 854.1666666666666 575 745.8333333333333 575C737.4999999999999 695.8333333333334 637.5 791.6666666666667 512.5 791.6666666666667C452.3625 791.6666666666667 394.0216666666666 766.5616666666667 350.4125 725.7629166666667L409.03375 667.1420833333334C436.7458333333333 692.98875 473.925 708.3333333333334 512.5 708.3333333333334C600 708.3333333333334 666.6666666666666 637.5 666.6666666666666 554.1666666666667V537.5C662.5 525 670.8333333333334 508.3333333333333 679.1666666666666 500C687.5 491.6666666666667 704.1666666666665 487.5 716.6666666666666 491.6666666666667C729.1666666666666 495.8333333333334 737.4999999999999 495.8333333333334 745.8333333333333 495.8333333333334C812.5 495.8333333333334 862.4999999999999 445.8333333333334 862.4999999999999 379.1666666666668z" />
    <glyph glyph-name="cloud"
      unicode="&#xEA1E;"
      horiz-adv-x="1000" d="M745.8333333333333 179.1666666666668H320.8333333333333C187.5 179.1666666666668 83.3333333333333 283.3333333333334 83.3333333333333 416.6666666666668C83.3333333333333 537.5 179.1666666666667 641.6666666666667 295.8333333333333 650C333.3333333333333 733.3333333333333 420.8333333333333 791.6666666666667 512.5 791.6666666666667C637.5 791.6666666666667 737.4999999999999 695.8333333333334 745.8333333333333 575C854.1666666666666 575 941.6666666666666 483.3333333333334 941.6666666666666 375C941.6666666666666 266.6666666666667 854.1666666666666 179.1666666666668 745.8333333333333 179.1666666666668zM316.6666666666667 566.6666666666667C233.3333333333333 566.6666666666667 166.6666666666667 500 166.6666666666667 416.6666666666668C166.6666666666667 333.3333333333334 233.3333333333333 262.5000000000001 320.8333333333333 262.5000000000001H745.8333333333333C808.3333333333333 262.5000000000001 862.4999999999999 312.5 862.4999999999999 379.1666666666668C862.4999999999999 445.8333333333334 812.5 495.8333333333334 745.8333333333333 495.8333333333334C737.4999999999999 495.8333333333334 729.1666666666666 495.8333333333334 716.6666666666666 491.6666666666667C704.1666666666665 487.5 687.5 491.6666666666667 679.1666666666666 500C670.8333333333334 508.3333333333333 662.5 525 666.6666666666666 537.5C666.6666666666666 541.6666666666667 666.6666666666666 550 666.6666666666666 554.1666666666667C666.6666666666666 637.5 600 708.3333333333334 512.5 708.3333333333334C445.8333333333333 708.3333333333334 383.3333333333333 662.5 366.6666666666667 595.8333333333334C362.5 579.1666666666667 345.8333333333334 562.5 325 566.6666666666667C325 566.6666666666667 320.8333333333333 566.6666666666667 316.6666666666667 566.6666666666667z" />
    <glyph glyph-name="conversation"
      unicode="&#xEA1F;"
      horiz-adv-x="1000" d="M803.4 119.7416666666667C762.9458333333333 119.7416666666667 706.3124999999999 127.8291666666668 661.8125 168.2833333333333C637.5416666666666 164.2375000000001 601.1333333333332 156.15 580.9083333333333 156.15C487.8666666666666 156.15 402.91375 184.4666666666667 338.18875 241.1C322.0075 257.2791666666668 317.9620833333334 281.5541666666668 334.1433333333333 301.7791666666667C350.3245833333334 317.9625000000001 378.6416666666667 322.0041666666667 394.8229166666667 305.8250000000001C443.3666666666667 265.3708333333334 512.1374999999999 241.1 584.9541666666667 241.1C601.1333333333332 241.1 645.6333333333333 249.1916666666667 673.95 257.2791666666668C690.1291666666666 261.3250000000001 710.3583333333333 253.2375000000001 718.4499999999999 241.1C730.5833333333333 224.9166666666668 750.8125 212.7833333333334 775.0833333333333 212.7833333333334C758.9 257.2791666666668 762.9458333333333 285.6 762.9458333333333 289.6416666666667C762.9458333333333 297.7333333333335 771.0374999999999 305.8250000000001 775.0833333333333 313.9166666666667C811.4916666666666 346.2791666666667 835.7624999999999 394.8208333333334 835.7624999999999 439.3208333333334C835.7624999999999 508.0916666666667 787.2208333333333 572.8166666666667 706.3124999999999 605.1783333333333C686.0875 613.2691666666667 673.95 641.5862500000001 682.0416666666666 661.8129166666666C690.1291666666666 682.0395833333333 718.4499999999999 694.1754166666667 738.675 686.0845833333333C847.8999999999999 637.5408333333332 916.6708333333332 544.5 916.6708333333332 439.3208333333334C916.6708333333332 374.5958333333333 892.3958333333333 313.9166666666667 843.8541666666666 265.3708333333334C847.8999999999999 253.2375000000001 851.9458333333333 228.9625000000001 876.2166666666666 192.5541666666668C884.3083333333334 180.4208333333335 884.3083333333334 164.2375000000001 880.2624999999999 152.1041666666668C876.2166666666666 139.9666666666668 864.0791666666667 127.8291666666668 847.8999999999999 127.8291666666668C843.8541666666666 123.7875 827.6708333333333 119.7416666666667 803.4 119.7416666666667zM196.6020833333333 322.0041666666667C172.3304166666667 322.0041666666667 156.1491666666667 326.05 152.10375 326.05C135.9225 330.0958333333334 123.7866666666667 338.1875 119.74125 350.3208333333334C115.6958333333333 362.4583333333334 115.6958333333333 378.6375000000001 123.7866666666667 390.7750000000001C148.0583333333333 427.1833333333334 156.1491666666667 451.4541666666667 156.1491666666667 463.5916666666667C107.6054166666667 512.1333333333334 83.3333333333333 576.8583333333333 83.3333333333333 637.54C83.3333333333333 742.7179166666667 152.10375 835.7604166666667 261.3270833333333 884.3041666666667C305.8258333333333 904.5308333333334 358.415 916.6666666666666 423.1416666666667 916.6666666666666C540.4541666666667 916.6666666666666 649.6791666666667 868.1229166666667 710.3583333333333 783.17125C726.5375 762.9445833333334 722.4916666666667 738.6729166666667 702.2666666666665 722.49125C682.0416666666666 706.31 657.7666666666667 710.3554166666668 641.5875 730.5820833333333C597.0875 791.2616666666667 512.1374999999999 827.6695833333333 423.1416666666667 827.6695833333333C374.59625 827.6695833333333 334.1429166666666 819.5791666666667 301.7804166666667 803.3979166666667C220.8741666666667 766.99 172.3304166666667 706.31 172.3304166666667 637.54C168.285 593.04125 192.5570833333333 548.5416666666666 228.9645833333333 512.1333333333334C237.0554166666667 504.0458333333333 241.1008333333333 495.9541666666667 241.1008333333333 487.8625000000001C241.1008333333333 479.7708333333334 245.1458333333333 455.5 228.9645833333333 411.0000000000001C249.19125 415.0458333333334 273.4633333333333 423.1375000000001 285.5991666666667 439.3208333333334C297.735 455.5 313.91625 459.5458333333333 330.0975 455.5C358.415 447.4083333333334 402.9133333333333 439.3208333333334 419.0958333333333 439.3208333333334C556.6374999999999 439.3208333333334 673.95 524.2708333333333 673.95 633.4945833333334C673.95 657.7662500000001 694.175 673.9475 718.4499999999999 673.9475C742.7208333333332 673.9475 758.9 653.72125 758.9 629.4491666666668C754.8541666666665 475.7291666666667 601.1333333333332 354.3666666666667 415.0491666666667 354.3666666666667C394.8229166666667 354.3666666666667 358.415 362.4583333333334 334.1429166666666 366.5041666666667C293.69 330.0958333333334 237.0554166666667 322.0041666666667 196.6020833333333 322.0041666666667z" />
    <glyph glyph-name="copy"
      unicode="&#xEA20;"
      horiz-adv-x="1000" d="M833.3333333333334 666.6666666666666H666.6666666666667V850C666.6666666666667 933.3333333333334 600 1000 516.6666666666667 1000H150C66.6666666666667 1000 0 933.3333333333334 0 850V477.7777777777777C0 400 66.6666666666667 333.3333333333333 150 333.3333333333333H333.3333333333334V166.6666666666666C333.3333333333334 72.2222222222223 405.5555555555556 0 500 0H833.3333333333334C927.7777777777778 0 1000 72.2222222222223 1000 166.6666666666666V500C1000 594.4444444444445 927.7777777777778 666.6666666666666 833.3333333333334 666.6666666666666zM333.3333333333334 500V444.4444444444445H150C127.7777777777778 444.4444444444445 111.1111111111111 461.1111111111111 111.1111111111111 483.3333333333333V850C111.1111111111111 872.2222222222222 127.7777777777778 888.8888888888889 150 888.8888888888889H522.2222222222223C538.8888888888889 888.8888888888889 555.5555555555555 872.2222222222222 555.5555555555555 850V666.6666666666666H500C405.5555555555556 666.6666666666666 333.3333333333334 594.4444444444445 333.3333333333334 500zM888.8888888888889 166.6666666666666C888.8888888888889 133.3333333333334 866.6666666666666 111.1111111111111 833.3333333333334 111.1111111111111H500C466.6666666666667 111.1111111111111 444.4444444444445 133.3333333333334 444.4444444444445 166.6666666666666V500C444.4444444444445 533.3333333333333 466.6666666666667 555.5555555555555 500 555.5555555555555H833.3333333333334C866.6666666666666 555.5555555555555 888.8888888888889 533.3333333333333 888.8888888888889 500V166.6666666666666z" />
    <glyph glyph-name="download"
      unicode="&#xEA21;"
      horiz-adv-x="1000" d="M458.45 496.8375C458.3749999999999 497.8833333333333 458.3333333333333 498.9375000000001 458.3333333333333 500V833.3333333333334C458.3333333333333 856.3333333333334 476.9583333333333 875 500 875C523.0416666666666 875 541.6666666666666 856.3333333333334 541.6666666666666 833.3333333333334V500.0083333333333L641.6666666666666 575C660.0833333333334 588.875 686.2083333333334 585.0833333333334 700 566.6666666666667C713.8333333333334 548.25 710.0833333333334 522.125 691.6666666666667 508.3333333333333L525 383.3333333333334C517.625 377.7916666666668 508.7916666666666 375 500 375C491.6249999999999 375 483.25 377.5416666666668 476.0416666666667 382.5833333333334L309.375 499.8333333333334C290.5416666666667 513.0833333333334 286 539.0833333333334 299.25 557.875C312.5 576.7083333333333 338.4583333333333 581.25 357.2916666666667 568L458.45 496.8375zM250 291.6666666666668V250H750V291.6666666666668C750 314.5833333333334 768.7499999999999 333.3333333333334 791.6666666666666 333.3333333333334C814.5833333333334 333.3333333333334 833.3333333333333 314.5833333333334 833.3333333333333 291.6666666666668V208.3333333333334C833.3333333333333 185.4166666666666 814.5833333333334 166.6666666666668 791.6666666666666 166.6666666666668H208.3333333333333C185.4166666666667 166.6666666666668 166.6666666666667 185.4166666666666 166.6666666666667 208.3333333333334V291.6666666666668C166.6666666666667 314.5833333333334 185.4166666666667 333.3333333333334 208.3333333333333 333.3333333333334C231.25 333.3333333333334 250 314.5833333333334 250 291.6666666666668z" />
    <glyph glyph-name="edit-2"
      unicode="&#xEA22;"
      horiz-adv-x="1000" d="M499.2958333333333 694.8829166666667L265.2558333333334 460.8416666666667L254.2558333333334 337.6750000000001L378.2975 348.9666666666667L611.6291666666666 582.55L499.2958333333333 694.8829166666667zM748.5875 719.6329166666667L636.2958333333333 831.8829166666667L555.1291666666666 750.7162500000001L667.4208333333333 638.3829166666667L748.5875 719.6329166666667zM212.1308333333333 250.1750000000001C210.8391666666667 250.0500000000001 209.5891666666667 250.0083333333334 208.3391666666667 250.0083333333334C197.3391666666667 250.0083333333334 186.7141666666667 254.3416666666667 178.8808333333333 262.2166666666667C170.1308333333333 270.9666666666667 165.7141666666667 283.1333333333335 166.8391666666667 295.4250000000001L182.6308333333333 469.2166666666667C184.3808333333333 488.2583333333333 192.7975 506.2166666666667 206.3391666666667 519.7583333333333L581.1708333333333 894.6329166666667C610.4208333333333 923.96625 663.5041666666666 922.5079166666666 694.3375 891.7162500000001L808.4208333333333 777.6329166666667H808.4624999999999C840.3791666666666 745.6745833333333 841.6291666666667 694.96625 811.2958333333332 664.5495833333333L436.4208333333333 289.6750000000001C422.8791666666667 276.0916666666667 404.9641666666667 267.7166666666667 385.8808333333333 265.9666666666667L212.1308333333333 250.1750000000001zM208.3333333333333 166.6708333333334H791.6666666666666C814.5833333333334 166.6708333333334 833.3333333333333 147.9208333333334 833.3333333333333 125.0041666666667C833.3333333333333 102.0875 814.5833333333334 83.3375000000001 791.6666666666666 83.3375000000001H208.3333333333333C185.4166666666667 83.3375000000001 166.6666666666667 102.0875 166.6666666666667 125.0041666666667C166.6666666666667 147.9208333333334 185.4166666666667 166.6708333333334 208.3333333333333 166.6708333333334z" />
    <glyph glyph-name="edit-fill"
      unicode="&#xEA23;"
      horiz-adv-x="1000" d="M667.4458333333332 555.0541666666668L555.1541666666667 667.3470833333333L636.3208333333332 748.5554166666667L748.5708333333332 636.3054166666667L667.4458333333332 555.0541666666668zM808.4875 694.2637500000001L808.4458333333332 694.3054166666667L694.3625 808.38875C663.4875 839.1804166666667 610.4458333333333 840.6387500000001 581.1958333333333 811.26375L206.3604166666667 436.4291666666667C192.7770833333333 422.8875000000001 184.3604166666667 404.8875000000001 182.6104166666667 385.8458333333334L166.81875 212.0958333333333C165.7354166666667 199.8041666666668 170.1104166666667 187.6375000000001 178.8604166666667 178.8874999999999C186.7354166666667 171.0124999999999 197.3604166666667 166.6791666666667 208.31875 166.6791666666667C209.6104166666667 166.6791666666667 210.8604166666667 166.7208333333334 212.1104166666667 166.8458333333334L385.8604166666667 182.6374999999999C404.94375 184.3875000000001 422.9041666666667 192.7625000000001 436.4458333333334 206.3041666666667L811.3208333333332 581.1791666666667C841.6541666666666 611.5970833333333 840.3625 662.3470833333333 808.4875 694.2637500000001z" />
    <glyph glyph-name="edit"
      unicode="&#xEA24;"
      horiz-adv-x="1000" d="M667.4458333333332 555.0541666666668L555.1541666666667 667.3470833333333L636.3208333333332 748.5554166666667L748.5708333333332 636.3054166666667L667.4458333333332 555.0541666666668zM378.31875 265.6375000000001L254.2770833333333 254.3458333333333L265.2770833333334 377.5125000000001L499.3208333333333 611.5554166666666L611.6541666666667 499.2208333333333L378.31875 265.6375000000001zM808.4875 694.2637500000001L808.4458333333332 694.3054166666667L694.3625 808.38875C663.4875 839.1804166666667 610.4458333333333 840.6387500000001 581.1958333333333 811.26375L206.3604166666667 436.4291666666667C192.7770833333333 422.8875000000001 184.3604166666667 404.8875000000001 182.6104166666667 385.8458333333334L166.81875 212.0958333333333C165.7354166666667 199.8041666666668 170.1104166666667 187.6375000000001 178.8604166666667 178.8874999999999C186.7354166666667 171.0124999999999 197.3604166666667 166.6791666666667 208.31875 166.6791666666667C209.6104166666667 166.6791666666667 210.8604166666667 166.7208333333334 212.1104166666667 166.8458333333334L385.8604166666667 182.6374999999999C404.94375 184.3875000000001 422.9041666666667 192.7625000000001 436.4458333333334 206.3041666666667L811.3208333333332 581.1791666666667C841.6541666666666 611.5970833333333 840.3625 662.3470833333333 808.4875 694.2637500000001z" />
    <glyph glyph-name="external-link"
      unicode="&#xEA25;"
      horiz-adv-x="1000" d="M791.6666666666666 250V500C791.6666666666666 523 810.2916666666666 541.6666666666667 833.3333333333333 541.6666666666667C856.375 541.6666666666667 875 523 875 500V250C875 181.0833333333334 818.9166666666666 125 750 125H250C181.0833333333333 125 125 181.0833333333334 125 250V750C125 818.9166666666667 181.0833333333333 875 250 875H500C523.0416666666666 875 541.6666666666666 856.3333333333334 541.6666666666666 833.3333333333334C541.6666666666666 810.3333333333334 523.0416666666666 791.6666666666667 500 791.6666666666667H250C227 791.6666666666667 208.3333333333333 772.9583333333334 208.3333333333333 750V250C208.3333333333333 227.0416666666668 227 208.3333333333334 250 208.3333333333334H750C772.9999999999999 208.3333333333334 791.6666666666666 227.0416666666668 791.6666666666666 250zM732.4208333333332 791.3333333333334L666.4625 791.6666666666667C643.4208333333333 791.7916666666667 624.8791666666666 810.5416666666667 625.0041666666666 833.5416666666667C625.1291666666666 856.5 643.7541666666667 875 666.6708333333332 875H666.8791666666666L833.4208333333332 874.1666666666666C856.3375 874.0416666666666 874.8791666666666 855.4583333333334 874.8791666666666 832.5416666666666L875.0041666666666 666.7083333333334C875.0041666666666 643.6666666666667 856.3791666666666 625 833.3791666666666 625H833.3375C810.3375 625 791.6708333333332 643.625 791.6708333333332 666.625L791.6291666666666 732.7083333333334L529.4625 470.5416666666666C521.3375 462.4166666666667 510.6708333333333 458.3333333333334 500.0041666666666 458.3333333333334C489.3375 458.3333333333334 478.6708333333333 462.4166666666667 470.5458333333333 470.5416666666666C454.2541666666667 486.8333333333334 454.2541666666667 513.1666666666667 470.5458333333333 529.4583333333334L732.4208333333332 791.3333333333334z" />
    <glyph glyph-name="eye-off"
      unicode="&#xEA26;"
      horiz-adv-x="1000" d="M210.0795833333333 672.0779166666666C146.6266666666667 614.2075 106.145 550.8541666666667 88.8645833333333 520.7250000000001C81.4895833333333 507.8916666666667 81.4895833333333 492.1 88.8645833333333 479.2666666666667C115.0729166666667 433.5583333333334 256.7395833333333 208.35 501.0291666666666 208.35C504.4458333333333 208.35 507.8666666666667 208.3916666666668 511.2833333333333 208.475C560.6458333333334 209.7333333333334 605.5833333333334 220.0458333333334 646.0791666666667 236.0791666666668L580.1875 301.9708333333333C557.85 296.0333333333334 534.1666666666666 292.4041666666668 509.1541666666666 291.7666666666668C329.7395833333333 287.6 212.6979166666667 441.0583333333334 173.8645833333333 500.1833333333334C192.8866666666666 529.9375 224.7616666666667 573.5625 268.9608333333333 613.1970833333334L210.0795833333333 672.0779166666666zM356.4391666666666 525.7166666666667C354.9475 517.3666666666668 354.16875 508.7708333333334 354.16875 500C354.16875 419.5833333333334 419.5875 354.1666666666668 500 354.1666666666668C508.7749999999999 354.1666666666668 517.3708333333333 354.9458333333335 525.7208333333333 356.4375000000001L356.4391666666666 525.7166666666667zM623.9791666666666 317.1041666666667L686.4666666666667 254.6166666666668C712.4499999999999 268.225 736.2916666666666 284.0375 757.975 300.9416666666667L698.6083333333333 360.3083333333334C676.1833333333333 343.725 651.2916666666666 328.7833333333333 623.9791666666666 317.1041666666667zM628.2666666666667 430.65C614.7625 405.7708333333334 594.2291666666666 385.2375 569.35 371.7333333333334L503.4875 437.5958333333334C535.175 439.3458333333333 560.6541666666667 464.8208333333333 562.4041666666666 496.5125L628.2666666666667 430.65zM731.0458333333333 386.7958333333334L789.9208333333333 327.9208333333334C853.3833333333333 385.7875 893.8749999999999 449.1333333333334 911.1583333333332 479.2666666666667C918.4916666666666 492.1 918.4916666666666 507.8916666666667 911.1583333333332 520.7250000000001C884.5708333333333 567.0583333333334 737.7375 799.3075 488.7375 791.5158333333334C439.3625 790.2654166666666 394.4170833333333 779.9583333333334 353.9183333333333 763.92375L419.8208333333333 698.0204166666667C442.1625 703.9558333333334 465.85 707.5858333333333 490.8625 708.2241666666666C669.5708333333333 712.7658333333334 787.2833333333333 558.9333333333334 826.1125 499.8083333333333C807.1125 470.0500000000001 775.2416666666666 426.4291666666667 731.0458333333333 386.7958333333334zM474.2791666666666 643.5616666666667C482.6333333333333 645.05375 491.2291666666666 645.8325 500 645.8325C580.4166666666666 645.8325 645.8333333333333 580.4166666666667 645.8333333333333 500C645.8333333333333 491.2250000000001 645.0583333333333 482.6291666666667 643.5624999999999 474.2791666666667L474.2791666666666 643.5616666666667zM430.6541666666666 628.2645833333333C405.7729166666666 614.7595833333334 385.2404166666667 594.2266666666667 371.7358333333333 569.3458333333334L437.6 503.4833333333334C439.35 535.1750000000001 464.8249999999999 560.6500000000001 496.5124999999999 562.4041666666667L430.6541666666666 628.2645833333333zM376.0295833333334 682.8870833333333C348.7141666666667 671.21 323.8204166666667 656.2675 301.3970833333334 639.68625L242.0233333333333 699.0600000000001C263.7058333333333 715.96625 287.5433333333333 731.7804166666667 313.5291666666667 745.3875L376.0295833333334 682.8870833333333zM862.8041666666667 196.1166666666668L196.1354166666667 862.78125C179.84375 879.0729166666666 153.5104166666667 879.0729166666666 137.21875 862.78125C120.9270833333333 846.4895833333334 120.9270833333333 820.15625 137.21875 803.8645833333334L803.8833333333332 137.1958333333333C812.0083333333332 129.0708333333333 822.675 124.9916666666668 833.3416666666666 124.9916666666668C844.0124999999999 124.9916666666668 854.6791666666666 129.0708333333333 862.8041666666667 137.1958333333333C879.0958333333332 153.4916666666668 879.0958333333332 179.8250000000001 862.8041666666667 196.1166666666668z" />
    <glyph glyph-name="eye"
      unicode="&#xEA27;"
      horiz-adv-x="1000" d="M500 437.5C465.5416666666666 437.5 437.5 465.5416666666667 437.5 500C437.5 534.4583333333334 465.5416666666666 562.5 500 562.5C534.4583333333333 562.5 562.5 534.4583333333334 562.5 500C562.5 465.5416666666667 534.4583333333333 437.5 500 437.5zM500 645.8325C419.5875 645.8325 354.16875 580.4166666666667 354.16875 500C354.16875 419.5833333333334 419.5875 354.1666666666668 500 354.1666666666668C580.4166666666666 354.1666666666668 645.8333333333333 419.5833333333334 645.8333333333333 500C645.8333333333333 580.4166666666667 580.4166666666666 645.8325 500 645.8325zM509.1541666666666 291.7666666666668C329.7395833333333 287.6 212.6979166666667 441.0583333333334 173.8645833333333 500.1833333333334C216.6145833333334 567.0583333333334 324.28125 703.9741666666666 490.8625 708.2241666666666C669.5708333333333 712.7658333333334 787.2833333333333 558.9333333333334 826.1125 499.8083333333333C783.4083333333333 432.9333333333334 675.6999999999999 296.0166666666667 509.1541666666666 291.7666666666668zM911.1583333333332 520.7250000000001C884.5708333333333 567.0583333333334 737.7375 799.3075 488.7375 791.5158333333334C258.40625 785.6825 124.4479166666667 582.7666666666667 88.8645833333333 520.7250000000001C81.4895833333333 507.8916666666667 81.4895833333333 492.1 88.8645833333333 479.2666666666667C115.0729166666667 433.5583333333334 256.7395833333333 208.35 501.0291666666666 208.35C504.4458333333333 208.35 507.8666666666667 208.3916666666668 511.2833333333333 208.475C741.5708333333332 214.3500000000001 875.5749999999999 417.225 911.1583333333332 479.2666666666667C918.4916666666666 492.1 918.4916666666666 507.8916666666667 911.1583333333332 520.7250000000001z" />
    <glyph glyph-name="file-text"
      unicode="&#xEA28;"
      horiz-adv-x="1000" d="M499.9958333333333 416.6666666666668H374.9975C351.9975 416.6666666666668 333.3308333333333 435.3333333333334 333.3308333333333 458.3333333333334C333.3308333333333 481.3333333333334 351.9975 500 374.9975 500H499.9958333333333C522.9958333333333 500 541.6625 481.3333333333334 541.6625 458.3333333333334C541.6625 435.3333333333334 522.9958333333333 416.6666666666668 499.9958333333333 416.6666666666668zM333.3308333333333 291.6666666666668C333.3308333333333 314.6666666666668 351.9975 333.3333333333334 374.9975 333.3333333333334H624.9958333333333C648.0374999999999 333.3333333333334 666.6625 314.6666666666668 666.6625 291.6666666666668C666.6625 268.6666666666668 648.0374999999999 250 624.9958333333333 250H374.9975C351.9975 250 333.3308333333333 268.6666666666668 333.3308333333333 291.6666666666668zM726.8416666666666 166.6666666666668H273.135C260.385 166.6666666666668 250.01 176 250.01 187.5V812.5C250.01 824 260.385 833.3333333333334 273.135 833.3333333333334H500.0083333333333V702.0833333333333C500.0083333333333 636.5833333333334 550.7166666666666 583.3333333333334 613.0916666666666 583.3333333333334H750.0083333333333V187.5C750.0083333333333 176 739.6333333333333 166.6666666666668 726.8416666666666 166.6666666666668zM583.3416666666666 792.5833333333334L697.5916666666667 666.6666666666667H613.0916666666666C596.675 666.6666666666667 583.3416666666666 682.5416666666667 583.3416666666666 702.0833333333333V792.5833333333334zM822.5083333333333 653L595.675 903C587.7583333333333 911.7083333333334 576.5916666666667 916.6666666666666 564.8 916.6666666666666H273.135C214.4266666666667 916.6666666666666 166.6766666666667 869.9166666666667 166.6766666666667 812.5V187.5C166.6766666666667 130.0833333333334 214.4266666666667 83.3333333333334 273.135 83.3333333333334H726.8416666666666C785.55 83.3333333333334 833.3416666666666 130.0833333333334 833.3416666666666 187.5V625C833.3416666666666 635.375 829.4666666666666 645.3333333333333 822.5083333333333 653z" />
    <glyph glyph-name="file"
      unicode="&#xEA29;"
      horiz-adv-x="1000" d="M726.8416666666666 166.6666666666668H273.135C260.385 166.6666666666668 250.01 176 250.01 187.5V812.5C250.01 824 260.385 833.3333333333334 273.135 833.3333333333334H458.3416666666666V660.4166666666667C458.3416666666666 594.9166666666667 509.05 541.6666666666667 571.425 541.6666666666667H750.0083333333333V187.5C750.0083333333333 176 739.5916666666666 166.6666666666668 726.8416666666666 166.6666666666668zM735.3833333333333 625H571.425C555.0083333333333 625 541.675 640.875 541.675 660.4166666666667V833.3333333333334H546.3416666666666L735.3833333333333 625zM822.5083333333333 653L595.675 903C587.8 911.7083333333334 576.5916666666667 916.6666666666666 564.8 916.6666666666666H273.135C214.4266666666667 916.6666666666666 166.6766666666667 869.9166666666667 166.6766666666667 812.5V187.5C166.6766666666667 130.0833333333334 214.4266666666667 83.3333333333334 273.135 83.3333333333334H726.8416666666666C785.55 83.3333333333334 833.3416666666666 130.0833333333334 833.3416666666666 187.5V625C833.3416666666666 635.375 829.4666666666666 645.3333333333333 822.5083333333333 653z" />
    <glyph glyph-name="folder"
      unicode="&#xEA2A;"
      horiz-adv-x="1000" d="M166.6666666666667 426.8541666666668V247.1458333333334C166.6666666666667 237.2291666666668 176 229.1458333333334 187.5 229.1458333333334H812.5C824 229.1458333333334 833.3333333333333 237.2291666666668 833.3333333333333 247.1458333333334V605.0629166666666C833.3333333333333 615.02125 824 623.0629166666668 812.5 623.0629166666668H500C487.4999999999999 623.0629166666668 475.6666666666666 628.6879166666666 467.75 638.39625L359.4166666666667 770.8129166666666H187.5C176 770.8129166666666 166.6666666666667 762.77125 166.6666666666667 752.8545833333334V426.8541666666668zM812.5 145.8125000000001H187.5C130.0833333333333 145.8125000000001 83.3333333333333 191.2708333333334 83.3333333333333 247.1458333333334V752.8545833333334C83.3333333333333 808.7295833333334 130.0833333333333 854.14625 187.5 854.14625H379.2083333333334C391.6666666666667 854.14625 403.5416666666667 848.5629166666666 411.4583333333333 838.8545833333334L519.75 706.39625H812.5C869.9166666666666 706.39625 916.6666666666666 660.9795833333333 916.6666666666666 605.0629166666666V247.1458333333334C916.6666666666666 191.2708333333334 869.9166666666666 145.8125000000001 812.5 145.8125000000001z" />
    <glyph glyph-name="guest"
      unicode="&#xEA2B;"
      horiz-adv-x="1000" d="M583.3333333333333 708.3333333333334C583.3333333333333 754.2916666666666 545.9583333333333 791.6666666666667 500 791.6666666666667C454.0416666666666 791.6666666666667 416.66625 754.2916666666666 416.66625 708.3333333333334C416.66625 662.375 454.0416666666666 625 500 625C545.9583333333333 625 583.3333333333333 662.375 583.3333333333333 708.3333333333334zM666.6666666666666 708.3333333333334C666.6666666666666 616.4166666666667 591.9166666666666 541.6666666666667 500 541.6666666666667C408.0829166666667 541.6666666666667 333.3329166666667 616.4166666666667 333.3329166666667 708.3333333333334C333.3329166666667 800.25 408.0829166666667 875 500 875C591.9166666666666 875 666.6666666666666 800.25 666.6666666666666 708.3333333333334zM416.6254166666667 375H296.0804166666666H183.9166666666667L237.7916666666667 428.875C254.0833333333333 445.125 254.0833333333333 471.5000000000001 237.7916666666667 487.7916666666667C229.6666666666667 495.9166666666667 219 500 208.3333333333333 500C197.6666666666667 500 187 495.9166666666667 178.875 487.7916666666667L53.875 362.7916666666668C50.0833333333333 359 47 354.4166666666668 44.9166666666667 349.375C42.7916666666667 344.3333333333334 41.75 338.9583333333334 41.7083333333333 333.5416666666668C41.7083333333333 333.5 41.6979166666667 333.4708333333333 41.6875 333.4375C41.6770833333333 333.4083333333333 41.6666666666667 333.375 41.6666666666667 333.3333333333334C41.6666666666667 332.5750000000001 41.8691666666667 331.8958333333334 42.0716666666667 331.2125000000001C42.2370833333333 330.6541666666667 42.4020833333333 330.1 42.4583333333333 329.5000000000001C42.7916666666667 325.5000000000001 43.2916666666667 321.5000000000001 44.8333333333333 317.7500000000001C45.6854166666667 315.6041666666668 46.99125 313.7916666666667 48.3166666666667 311.9541666666667C48.7416666666667 311.3666666666667 49.16875 310.7750000000001 49.5833333333333 310.1666666666667C50.0966666666667 309.4375000000001 50.5183333333333 308.6625000000002 50.9391666666667 307.8875C51.5766666666667 306.7166666666667 52.2129166666667 305.5458333333335 53.1666666666667 304.5416666666668L172.4583333333334 179.5416666666668C182.0866666666667 169.4583333333334 195.5270833333333 165.2625000000001 208.3333333333333 167.0333333333334C216.6970833333333 168.1916666666667 224.7904166666667 171.8958333333334 231.3745833333334 178.1666666666668C231.375 178.1666666666668 231.3754166666667 178.1666666666668 231.3754166666667 178.1666666666668C239.94875 186.3541666666668 244.2666666666667 197.3333333333334 244.26125 208.3333333333334C244.2566666666667 217.3708333333333 241.3329166666667 226.4250000000001 235.4516666666667 233.9541666666667C234.61125 235.0291666666667 233.7108333333334 236.0750000000001 232.7495833333333 237.0833333333335L220.4529166666667 249.9708333333334L180.6666666666667 291.6666666666668H236.50125H333.4316666666666H416.6666666666667C439.6666666666667 291.6666666666668 458.3333333333333 310.2916666666667 458.3333333333333 333.3333333333334C458.3333333333333 356.3333333333334 439.6666666666667 375 416.6666666666667 375H416.6254166666667zM535.5833333333333 371.9583333333334C522.6374999999999 411.8208333333334 490.2083333333333 442.9041666666667 449.5416666666667 453.9625C465.9333333333333 456.8375000000001 482.7958333333333 458.3333333333334 500 458.3333333333334C660.7916666666666 458.3333333333334 791.6666666666666 327.5 791.6666666666666 166.6666666666668C791.6666666666666 143.6666666666668 773.0416666666666 125 750 125C726.9583333333333 125 708.3333333333333 143.6666666666668 708.3333333333333 166.6666666666668C708.3333333333333 269.4125000000002 633.5666666666666 355.0291666666667 535.5833333333333 371.9583333333334z" />
    <glyph glyph-name="hand"
      unicode="&#xEA2C;"
      horiz-adv-x="1000" d="M536.4291666666667 576.3041666666668C544.7624999999999 563.8 557.2624999999999 555.4708333333333 573.9291666666667 555.4708333333333C582.2624999999999 555.4708333333333 590.5958333333333 559.6333333333334 598.9291666666667 563.8C619.7624999999999 576.3041666666668 623.9291666666666 605.46875 611.4291666666667 626.3020833333334L423.9291666666667 897.1354166666666C411.43 917.96875 382.2633333333333 922.1354166666666 361.43 909.6354166666666C340.5966666666667 897.1354166666666 336.43 867.96875 348.93 847.1354166666666L536.4291666666667 576.3041666666668zM453.1041666666666 513.8000000000001C436.4375 513.8000000000001 423.9375 522.1333333333334 415.6045833333333 534.6333333333334L232.27125 801.2979166666667C219.77125 822.13125 223.9379166666667 851.2979166666667 244.77125 863.7979166666667C265.6045833333333 876.2979166666667 290.6045833333333 872.13125 307.27125 851.2979166666667L490.6041666666666 584.63125C503.1041666666666 563.8 498.9375 534.6333333333334 478.1041666666667 522.1333333333334C469.7708333333333 517.9666666666667 461.4375 513.8000000000001 453.1041666666666 513.8000000000001zM828.1 530.4708333333333C828.1 530.4708333333333 828.1 526.3041666666667 832.2666666666665 526.3041666666667C869.7666666666667 476.3041666666667 890.6 413.8041666666667 890.6 351.3041666666667C890.6 188.8041666666668 757.2666666666665 55.4708333333333 594.7666666666667 55.4708333333333C498.9333333333333 55.4708333333333 407.2679166666667 101.3041666666667 353.10125 180.4708333333333L132.2679166666667 501.3041666666667C119.7679166666667 522.1375 123.9345833333333 547.1375 140.60125 563.8041666666667C161.4345833333333 576.3041666666668 190.60125 572.1375 203.10125 551.3041666666667L419.7666666666667 226.3041666666667C461.4333333333333 172.1375000000001 523.9333333333333 138.8041666666667 590.6 138.8041666666667C707.2666666666667 138.8041666666667 798.9333333333333 234.6375000000001 798.9333333333333 347.1375000000001C798.9333333333333 392.9708333333334 782.2666666666667 434.6375000000001 757.2666666666665 472.1375C753.1 476.3041666666667 749.975 481.5125 746.8499999999999 486.7208333333334C743.7249999999999 491.9291666666667 740.5999999999999 497.1375 736.4333333333333 501.3041666666667C686.4333333333333 463.8041666666667 653.1 401.3041666666667 653.1 334.6375000000001C653.1 322.1375000000001 653.1 305.4708333333333 657.2666666666667 292.9708333333334C661.4333333333333 267.9708333333334 648.9333333333333 242.9708333333333 623.9333333333333 238.8041666666668H615.5999999999999C594.7666666666667 238.8041666666668 578.0999999999999 255.4708333333333 573.9333333333333 276.3041666666667C569.7666666666667 292.9708333333334 569.7666666666667 313.8041666666668 569.7666666666667 334.6375000000001C569.7666666666667 434.6375000000001 615.5999999999999 526.3041666666667 698.9333333333333 580.4708333333333C698.9333333333333 584.6395833333333 703.1 584.6395833333333 703.1 584.6395833333333C669.7666666666667 676.3062500000001 661.4333333333333 776.3062500000001 661.4333333333333 792.9729166666666C661.4333333333333 813.80625 678.0999999999999 838.80625 703.1 838.80625C723.9333333333334 838.80625 748.9333333333333 822.1395833333333 748.9333333333333 797.1395833333333C753.1 742.9729166666666 773.9333333333333 588.80625 828.1 530.4708333333333zM369.7629166666667 413.8000000000001C353.09625 413.8000000000001 340.59625 422.1333333333334 332.2629166666667 434.6333333333335L157.2629166666667 688.8C140.59625 709.6333333333334 148.9295833333334 738.8 169.7629166666667 751.3C186.4295833333333 763.8 215.59625 759.6333333333333 228.09625 738.8L407.2629166666667 484.6333333333333C419.7625 463.8000000000001 415.59625 434.6333333333335 394.7629166666667 422.1333333333334C386.4295833333333 417.9666666666667 378.09625 413.8000000000001 369.7629166666667 413.8000000000001z" />
    <glyph glyph-name="hash-fill"
      unicode="&#xEA2D;"
      horiz-adv-x="1000" d="M404.0933333333333 416.6708333333334L434.4666666666666 583.3358333333333H595.925L565.55 416.6708333333334H404.0933333333333zM833.3416666666666 416.6708333333334H654.0916666666666L684.4666666666666 583.3358333333333H833.3416666666666C856.2583333333333 583.3358333333333 875.0083333333332 602.0858333333333 875.0083333333332 625.0025C875.0083333333332 647.9191666666667 856.2583333333333 666.6691666666667 833.3416666666666 666.6691666666667H699.5916666666666L728.5083333333333 825.4608333333333C732.675 848.2941666666667 716.7583333333333 870.3358333333333 693.1333333333333 874.3358333333333C669.5083333333333 878.3775 646.8 862.9608333333333 642.6333333333333 840.0858333333333L611.05 666.6691666666667H449.5916666666667L478.5083333333333 825.4608333333333C482.675 848.2941666666667 466.7583333333333 870.3358333333333 443.1333333333333 874.3358333333333C419.5083333333333 878.3775 396.8016666666666 862.9608333333333 392.635 840.0858333333333L361.0516666666667 666.6691666666667H166.6766666666667C143.76 666.6691666666667 125.01 647.9191666666667 125.01 625.0025C125.01 602.0858333333333 143.76 583.3358333333333 166.6766666666667 583.3358333333333H345.9266666666666L315.5516666666667 416.6708333333334H166.6766666666667C143.76 416.6708333333334 125.01 397.9208333333334 125.01 375.0041666666667C125.01 352.0875000000001 143.76 333.3375 166.6766666666667 333.3375H300.385L271.4683333333333 174.5458333333334C267.3433333333333 151.7125000000001 283.26 129.6708333333335 306.885 125.6708333333335C330.4683333333333 121.6291666666667 353.2183333333333 137.0458333333335 357.3433333333333 159.9208333333335L388.9266666666666 333.3375H550.3833333333332L521.4666666666667 174.5458333333334C517.3416666666666 151.7125000000001 533.2583333333333 129.6708333333335 556.8833333333333 125.6708333333335C580.4666666666667 121.6291666666667 603.2166666666666 137.0458333333335 607.3416666666666 159.9208333333335L638.925 333.3375H833.3416666666666C856.2583333333333 333.3375 875.0083333333332 352.0875000000001 875.0083333333332 375.0041666666667C875.0083333333332 397.9208333333334 856.2583333333333 416.6708333333334 833.3416666666666 416.6708333333334z" />
    <glyph glyph-name="headphones-fill"
      unicode="&#xEA2E;"
      horiz-adv-x="1000" d="M500 916.6666666666666C270.25 916.6666666666666 83.3333333333333 722.9166666666667 83.3333333333333 484.75V291.6666666666668C83.3333333333333 199.7500000000001 158.0833333333333 125 250 125C341.9166666666667 125 416.6666666666667 199.7500000000001 416.6666666666667 291.6666666666668C416.6666666666667 383.5833333333334 341.9166666666667 458.3333333333334 250 458.3333333333334C219.5 458.3333333333334 191.2916666666667 449.5 166.6666666666667 435.125V484.75C166.6666666666667 676.9583333333334 316.2083333333333 833.3333333333334 500 833.3333333333334C683.7916666666666 833.3333333333334 833.3333333333333 676.9583333333334 833.3333333333333 484.75V435.125C808.7083333333333 449.5 780.4999999999999 458.3333333333334 750 458.3333333333334C658.0833333333334 458.3333333333334 583.3333333333333 383.5833333333334 583.3333333333333 291.6666666666668C583.3333333333333 199.7500000000001 658.0833333333334 125 750 125C841.9166666666666 125 916.6666666666666 199.7500000000001 916.6666666666666 291.6666666666668V484.75C916.6666666666666 722.9166666666667 729.7499999999999 916.6666666666666 500 916.6666666666666z" />
    <glyph glyph-name="heart-fill"
      unicode="&#xEA2F;"
      horiz-adv-x="1000" d="M500 125C488.9166666666666 125 478.3333333333333 129.3750000000001 470.4999999999999 137.2500000000001L146.8770833333333 461.4166666666667C62.04375 546.4166666666667 62.04375 684.7083333333334 146.8770833333333 769.7083333333334C187.8354166666667 810.7083333333334 242.54375 833.3333333333334 300.8354166666666 833.3333333333334C359.1270833333333 833.3333333333334 413.8354166666667 810.7083333333334 454.7916666666666 769.7083333333334L500 724.4166666666667L545.1666666666666 769.6666666666667C586.1666666666666 810.7083333333334 640.875 833.3333333333334 699.1666666666666 833.3333333333334C757.4583333333333 833.3333333333334 812.1666666666666 810.7083333333334 853.125 769.7083333333334C937.9583333333331 684.7083333333334 937.9583333333331 546.4166666666667 853.1666666666666 461.4166666666667L529.5 137.2083333333334C521.6666666666666 129.3750000000001 511.0833333333333 125 500 125z" />
    <glyph glyph-name="image"
      unicode="&#xEA30;"
      horiz-adv-x="1000" d="M583.3333333333333 875H250C181.0833333333333 875 125 818.9166666666667 125 750V250C125 181.0833333333334 181.0833333333333 125 250 125H750C818.9166666666666 125 875 181.0833333333334 875 250V583.3333333333334H791.6666666666666V401.5L658.2083333333334 515.3333333333334C616.9583333333333 550.4166666666667 552.4166666666666 550.4166666666667 511.5416666666666 515.5833333333334L208.3333333333333 262.5833333333334V750C208.3333333333333 773 227 791.6666666666667 250 791.6666666666667H583.3333333333333V875zM395.8333333333333 645.8333333333334C395.8333333333333 611.3333333333334 367.8333333333333 583.3333333333334 333.3333333333333 583.3333333333334C298.8333333333333 583.3333333333334 270.8333333333333 611.3333333333334 270.8333333333333 645.8333333333334C270.8333333333333 680.3333333333334 298.8333333333333 708.3333333333334 333.3333333333333 708.3333333333334C367.8333333333333 708.3333333333334 395.8333333333333 680.3333333333334 395.8333333333333 645.8333333333334zM273.375 208.3333333333334H750C772.9999999999999 208.3333333333334 791.6666666666666 227.0000000000001 791.6666666666666 250V291.9166666666668L604.125 451.9166666666667C594.0833333333333 460.5416666666667 575.4999999999999 460.5833333333334 565.25 451.8750000000001L273.375 208.3333333333334zM708.3333333333333 875H958.3333333333331A41.6666666666667 41.6666666666667 0 0 0 1000 833.3333333333334V833.3333333333334A41.6666666666667 41.6666666666667 0 0 0 958.3333333333331 791.6666666666667H708.3333333333333A41.6666666666667 41.6666666666667 0 0 0 666.6666666666666 833.3333333333334V833.3333333333334A41.6666666666667 41.6666666666667 0 0 0 708.3333333333333 875zM875 958.3333333333334L875 708.3333333333334A41.6666666666667 41.6666666666667 0 0 0 833.3333333333333 666.6666666666667L833.3333333333333 666.6666666666667A41.6666666666667 41.6666666666667 0 0 0 791.6666666666666 708.3333333333334L791.6666666666666 958.3333333333334A41.6666666666667 41.6666666666667 0 0 0 833.3333333333333 1000L833.3333333333333 1000A41.6666666666667 41.6666666666667 0 0 0 875 958.3333333333334z" />
    <glyph glyph-name="info"
      unicode="&#xEA31;"
      horiz-adv-x="1000" d="M458.3333333333333 666.6666666666667C458.3333333333333 689.6666666666667 477 708.3333333333334 500 708.3333333333334C523 708.3333333333334 541.6666666666666 689.6666666666667 541.6666666666666 666.6666666666667C541.6666666666666 643.6666666666667 523 625 500 625C477 625 458.3333333333333 643.6666666666667 458.3333333333333 666.6666666666667zM458.3333333333333 541.6666666666667C458.3333333333333 564.6666666666667 477 583.3333333333334 500 583.3333333333334C523 583.3333333333334 541.6666666666666 564.6666666666667 541.6666666666666 541.6666666666667V333.3333333333334C541.6666666666666 310.3333333333334 523 291.6666666666668 500 291.6666666666668C477 291.6666666666668 458.3333333333333 310.3333333333334 458.3333333333333 333.3333333333334V541.6666666666667zM500 166.6666666666668C316.2083333333333 166.6666666666668 166.6666666666667 316.2083333333334 166.6666666666667 500C166.6666666666667 683.7916666666667 316.2083333333333 833.3333333333334 500 833.3333333333334C683.7916666666666 833.3333333333334 833.3333333333333 683.7916666666667 833.3333333333333 500C833.3333333333333 316.2083333333334 683.7916666666666 166.6666666666668 500 166.6666666666668zM500 916.6666666666666C269.875 916.6666666666666 83.3333333333333 730.125 83.3333333333333 500C83.3333333333333 269.875 269.875 83.3333333333334 500 83.3333333333334C730.0833333333333 83.3333333333334 916.6666666666666 269.875 916.6666666666666 500C916.6666666666666 730.125 730.0833333333333 916.6666666666666 500 916.6666666666666z" />
    <glyph glyph-name="language-1"
      unicode="&#xEA32;"
      horiz-adv-x="1000" d="M609.0416666666666 185.3333333333334C652.75 247.7500000000001 698.2083333333334 339.5416666666667 707.2916666666667 458.3333333333334H830.4166666666666C814.4583333333333 331.1666666666668 726.7083333333333 226.25 609.0416666666666 185.3333333333334zM169.5416666666667 458.3333333333334H294.2083333333333C302.7916666666667 339.0833333333334 347.6666666666667 247.6666666666667 391.9583333333333 184.9583333333334C273.75 225.6666666666668 185.5833333333333 330.7916666666668 169.5416666666667 458.3333333333334zM393.25 815.4583333333334C349.4166666666667 753.0416666666667 303.5416666666667 660.9583333333333 294.375 541.6666666666667H169.5416666666667C185.625 669.6666666666667 274.4166666666667 775.125 393.25 815.4583333333334zM378.2916666666667 541.6666666666667C391.0416666666667 678 460.7916666666666 772.9166666666667 501.0833333333333 816.7916666666666C542.75 772.1666666666667 611.4166666666666 678.125 623.2916666666666 541.6666666666667H378.2916666666667zM378.3333333333333 458.3333333333334H623.4166666666666C610.6666666666666 321.7916666666667 540.75 226.875 500.5 183C456.8749999999999 229.25 389.9583333333333 322.0000000000001 378.3333333333333 458.3333333333334zM830.4166666666666 541.6666666666667H707.4166666666667C698.875 660.375 654.5 751.5 610.4166666666666 814.125C727.4166666666665 772.875 814.5416666666666 668.3333333333334 830.4166666666666 541.6666666666667zM916.6666666666666 500C916.6666666666666 729.3333333333333 730.375 915.9166666666669 501.1666666666667 916.5833333333334C500.9999999999999 916.5833333333334 500.8333333333333 916.625 500.625 916.625C500.4583333333333 916.625 500.2083333333333 916.6666666666666 500 916.6666666666666C270.25 916.6666666666666 83.3333333333333 729.7083333333334 83.3333333333333 500C83.3333333333333 270.2500000000001 270.25 83.3333333333334 500 83.3333333333334C500.25 83.3333333333334 500.4583333333333 83.3750000000001 500.625 83.3750000000001C500.7083333333333 83.3750000000001 500.75 83.3333333333334 500.8333333333333 83.3333333333334C500.9583333333333 83.3333333333334 501.0833333333333 83.4166666666666 501.1666666666667 83.4166666666666C730.375 84.0416666666667 916.6666666666666 270.6666666666667 916.6666666666666 500z" />
    <glyph glyph-name="language"
      unicode="&#xEA33;"
      horiz-adv-x="1000" d="M609.0416666666666 185.3333333333334C652.75 247.7500000000001 698.2083333333334 339.5416666666667 707.2916666666667 458.3333333333334H830.4166666666666C814.4583333333333 331.1666666666668 726.7083333333333 226.25 609.0416666666666 185.3333333333334zM169.5416666666667 458.3333333333334H294.2083333333333C302.7916666666667 339.0833333333334 347.6666666666667 247.6666666666667 391.9583333333333 184.9583333333334C273.75 225.6666666666668 185.5833333333333 330.7916666666668 169.5416666666667 458.3333333333334zM393.25 815.4583333333334C349.4166666666667 753.0416666666667 303.5416666666667 660.9583333333333 294.375 541.6666666666667H169.5416666666667C185.625 669.6666666666667 274.4166666666667 775.125 393.25 815.4583333333334zM378.2916666666667 541.6666666666667C391.0416666666667 678 460.7916666666666 772.9166666666667 501.0833333333333 816.7916666666666C542.75 772.1666666666667 611.4166666666666 678.125 623.2916666666666 541.6666666666667H378.2916666666667zM378.3333333333333 458.3333333333334H623.4166666666666C610.6666666666666 321.7916666666667 540.75 226.875 500.5 183C456.8749999999999 229.25 389.9583333333333 322.0000000000001 378.3333333333333 458.3333333333334zM830.4166666666666 541.6666666666667H707.4166666666667C698.875 660.375 654.5 751.5 610.4166666666666 814.125C727.4166666666665 772.875 814.5416666666666 668.3333333333334 830.4166666666666 541.6666666666667zM916.6666666666666 500C916.6666666666666 729.3333333333333 730.375 915.9166666666669 501.1666666666667 916.5833333333334C500.9999999999999 916.5833333333334 500.8333333333333 916.625 500.625 916.625C500.4583333333333 916.625 500.2083333333333 916.6666666666666 500 916.6666666666666C270.25 916.6666666666666 83.3333333333333 729.7083333333334 83.3333333333333 500C83.3333333333333 270.2500000000001 270.25 83.3333333333334 500 83.3333333333334C500.25 83.3333333333334 500.4583333333333 83.3750000000001 500.625 83.3750000000001C500.7083333333333 83.3750000000001 500.75 83.3333333333334 500.8333333333333 83.3333333333334C500.9583333333333 83.3333333333334 501.0833333333333 83.4166666666666 501.1666666666667 83.4166666666666C730.375 84.0416666666667 916.6666666666666 270.6666666666667 916.6666666666666 500z" />
    </font>
</defs>
</svg>
