<svg width="40" height="40" viewBox="0 0 40 40" fill="none" xmlns="http://www.w3.org/2000/svg">
    <path d="M20 40C31.0457 40 40 31.0457 40 20C40 8.9543 31.0457 0 20 0C8.9543 0 0 8.9543 0 20C0 31.0457 8.9543 40 20 40Z" fill="#C0E5FF"/>
    <mask id="mask0_11671_301909" style="mask-type:alpha" maskUnits="userSpaceOnUse" x="0" y="0" width="40" height="40">
        <path d="M20 40C31.0457 40 40 31.0457 40 20C40 8.9543 31.0457 0 20 0C8.9543 0 0 8.9543 0 20C0 31.0457 8.9543 40 20 40Z" fill="#BBFFD6"/>
    </mask>
    <g mask="url(#mask0_11671_301909)">
        <circle cx="11" cy="23" r="8" fill="#BBBEFF"/>
        <path d="M12.5767 21.6705C11.4188 21.5327 9.10295 21.2573 6.03085 22.5245" stroke="#5A5D9A" stroke-width="1.6"/>
        <path d="M3.5 17.5L5.5 19L4.5 22H2.5L1 20.5V18L3.5 17.5Z" fill="#BBBEFF"/>
        <path d="M7.32955 20.0096C5.59784 17.0292 2.95883 17.278 0.227031 17.8242C0.227031 17.8242 0.227356 21.1024 2.12311 21.9568" stroke="#5A5D9A" stroke-width="1.6" stroke-miterlimit="10" stroke-linecap="square" stroke-linejoin="round"/>
        <ellipse cx="12.7999" cy="27.2289" rx="4.5" ry="3" transform="rotate(-17.7465 12.7999 27.2289)" fill="white"/>
        <path d="M4.93036 17.8244C5.50686 17.177 6.19751 16.6113 6.9936 16.1593C9.64541 14.6538 12.2468 14.5463 14.4321 15.639M3.50559 20.556C3.05409 21.5013 2.95004 21.6959 2.88521 22.7413C2.79071 24.265 3.12423 25.8309 3.93621 27.2518C6.15977 31.143 11.1375 32.5328 15.0287 30.3092C15.6857 29.9302 16.2416 29.5006 16.7469 29.0206C19.299 26.4938 19.9559 22.4762 18.0861 19.2167C17.7468 18.619 17.7101 18.3706 17.1637 17.8243" stroke="#5A5D9A" stroke-width="1.6" stroke-miterlimit="10" stroke-linecap="round" stroke-linejoin="round"/>
        <path d="M13.796 26.0192C13.2496 24.1981 13.3589 20.5559 18.1666 20.5559" stroke="#5A5D9A" stroke-width="1.6"/>
        <path d="M3.60136 32.9354C3.71497 30.8551 5.20836 27.1615 10.2731 29.03" stroke="#5A5D9A" stroke-width="1.6"/>
        <path d="M37 17.5L35 19L36 22H38L39.5 20.5V18L37 17.5Z" fill="#FFC582"/>
        <circle cx="30" cy="23" r="8" fill="#FFC582"/>
        <path d="M33.3087 20.0096C35.0404 17.0292 37.6794 17.278 40.4112 17.8242C40.4112 17.8242 40.4108 21.1024 38.5151 21.9568" stroke="#5A5D9A" stroke-width="1.6" stroke-miterlimit="10" stroke-linecap="square" stroke-linejoin="round"/>
        <ellipse cx="4.5" cy="3" rx="4.5" ry="3" transform="matrix(-0.952414 -0.304807 -0.304807 0.952414 33.0386 25.7433)" fill="white"/>
        <path d="M27.0059 29.1223C25.9519 29.0251 23.9765 29.4864 24.5068 32.1098" stroke="#5A5D9A" stroke-width="1.6"/>
        <path d="M35.7078 17.8244C35.1313 17.1771 34.4407 16.6113 33.6446 16.1593C30.9928 14.6538 28.3914 14.5464 26.2061 15.6391M37.1326 20.556C37.5841 21.5013 37.6881 21.6959 37.753 22.7413C37.8475 24.265 37.514 25.8309 36.702 27.2518C34.4784 31.143 29.5007 32.5328 25.6095 30.3092C24.9525 29.9302 24.3966 29.5006 23.8913 29.0206C21.3392 26.4938 20.6823 22.4762 22.5521 19.2167C22.8914 18.619 22.9281 18.3706 23.4744 17.8243" stroke="#5A5D9A" stroke-width="1.6" stroke-miterlimit="10" stroke-linecap="round" stroke-linejoin="round"/>
        <path d="M30.9912 26.9087C32.0794 27.0471 33.0713 26.2957 33.2068 25.2304C33.3423 24.1651 32.5701 23.1893 31.482 23.0509C30.3938 22.9124 29.4019 23.6638 29.2664 24.7291C29.1308 25.7944 29.9031 26.7702 30.9912 26.9087Z" stroke="#5A5D9A" stroke-width="1.6" stroke-miterlimit="10" stroke-linecap="round" stroke-linejoin="round"/>
        <path d="M33.251 25.1004C34.9176 25.1004 40.5317 27.8002 35.5317 37.3002" stroke="#5A5D9A" stroke-width="2"/>
        <path d="M26.8422 26.0192C27.3886 24.1982 27.2793 20.556 22.4716 20.556" stroke="#5A5D9A" stroke-width="1.6"/>
        <path d="M11.612 25.5673C10.8694 24.8131 9.06236 23.8913 7.77525 26.238" stroke="#5A5D9A" stroke-width="1.6"/>
        <ellipse cx="10.2095" cy="16.989" rx="6.88235" ry="4" transform="rotate(-6.00788 10.2095 16.989)" fill="#A9C1FF"/>
        <ellipse cx="10.2095" cy="16.989" rx="6.88235" ry="4" transform="rotate(-6.00788 10.2095 16.989)" fill="#A9C1FF"/>
        <ellipse cx="10.2095" cy="16.989" rx="6.88235" ry="4" transform="rotate(-6.00788 10.2095 16.989)" fill="#A9C1FF"/>
        <ellipse cx="10.2095" cy="16.989" rx="6.88235" ry="4" transform="rotate(-6.00788 10.2095 16.989)" stroke="#5A5D9A" stroke-width="2"/>
        <path d="M0.340496 13.0867C-0.00184975 13.2841 -0.195822 13.6646 -0.15446 14.0576C-0.113097 14.4507 0.155841 14.7824 0.531785 14.9043L9.90101 17.9403C10.1702 18.0275 10.4637 17.9966 10.7088 17.8553L19.2407 12.9353C19.5831 12.7379 19.7771 12.3573 19.7357 11.9643C19.6943 11.5713 19.4254 11.2395 19.0494 11.1177L9.68022 8.08165C9.41104 7.99442 9.11752 8.02532 8.8724 8.16667L0.340496 13.0867Z" fill="#A9C1FF"/>
        <path d="M0.340496 13.0867C-0.00184975 13.2841 -0.195822 13.6646 -0.15446 14.0576C-0.113097 14.4507 0.155841 14.7824 0.531785 14.9043L9.90101 17.9403C10.1702 18.0275 10.4637 17.9966 10.7088 17.8553L19.2407 12.9353C19.5831 12.7379 19.7771 12.3573 19.7357 11.9643C19.6943 11.5713 19.4254 11.2395 19.0494 11.1177L9.68022 8.08165C9.41104 7.99442 9.11752 8.02532 8.8724 8.16667L0.340496 13.0867Z" fill="#A9C1FF"/>
        <path d="M0.340496 13.0867C-0.00184975 13.2841 -0.195822 13.6646 -0.15446 14.0576C-0.113097 14.4507 0.155841 14.7824 0.531785 14.9043L9.90101 17.9403C10.1702 18.0275 10.4637 17.9966 10.7088 17.8553L19.2407 12.9353C19.5831 12.7379 19.7771 12.3573 19.7357 11.9643C19.6943 11.5713 19.4254 11.2395 19.0494 11.1177L9.68022 8.08165C9.41104 7.99442 9.11752 8.02532 8.8724 8.16667L0.340496 13.0867Z" fill="#A9C1FF"/>
        <path d="M0.340496 13.0867C-0.00184975 13.2841 -0.195822 13.6646 -0.15446 14.0576C-0.113097 14.4507 0.155841 14.7824 0.531785 14.9043L9.90101 17.9403C10.1702 18.0275 10.4637 17.9966 10.7088 17.8553L19.2407 12.9353C19.5831 12.7379 19.7771 12.3573 19.7357 11.9643C19.6943 11.5713 19.4254 11.2395 19.0494 11.1177L9.68022 8.08165C9.41104 7.99442 9.11752 8.02532 8.8724 8.16667L0.340496 13.0867Z" stroke="#5A5D9A" stroke-width="2" stroke-linejoin="round"/>
        <ellipse cx="6.88235" cy="4" rx="6.88235" ry="4" transform="matrix(-0.994507 -0.104665 -0.104665 0.994507 38.0537 13.7313)" fill="#A9C1FF"/>
        <ellipse cx="6.88235" cy="4" rx="6.88235" ry="4" transform="matrix(-0.994507 -0.104665 -0.104665 0.994507 38.0537 13.7313)" fill="#A9C1FF"/>
        <ellipse cx="6.88235" cy="4" rx="6.88235" ry="4" transform="matrix(-0.994507 -0.104665 -0.104665 0.994507 38.0537 13.7313)" fill="#A9C1FF"/>
        <ellipse cx="6.88235" cy="4" rx="6.88235" ry="4" transform="matrix(-0.994507 -0.104665 -0.104665 0.994507 38.0537 13.7313)" stroke="#5A5D9A" stroke-width="2"/>
        <path d="M40.6595 13.0867C41.0018 13.2841 41.1958 13.6646 41.1545 14.0576C41.1131 14.4507 40.8442 14.7824 40.4682 14.9043L31.099 17.9403C30.8298 18.0275 30.5363 17.9966 30.2912 17.8553L21.7593 12.9353C21.4169 12.7379 21.2229 12.3573 21.2643 11.9643C21.3057 11.5713 21.5746 11.2395 21.9506 11.1177L31.3198 8.08165C31.589 7.99442 31.8825 8.02532 32.1276 8.16667L40.6595 13.0867Z" fill="#A9C1FF"/>
        <path d="M40.6595 13.0867C41.0018 13.2841 41.1958 13.6646 41.1545 14.0576C41.1131 14.4507 40.8442 14.7824 40.4682 14.9043L31.099 17.9403C30.8298 18.0275 30.5363 17.9966 30.2912 17.8553L21.7593 12.9353C21.4169 12.7379 21.2229 12.3573 21.2643 11.9643C21.3057 11.5713 21.5746 11.2395 21.9506 11.1177L31.3198 8.08165C31.589 7.99442 31.8825 8.02532 32.1276 8.16667L40.6595 13.0867Z" fill="#A9C1FF"/>
        <path d="M40.6595 13.0867C41.0018 13.2841 41.1958 13.6646 41.1545 14.0576C41.1131 14.4507 40.8442 14.7824 40.4682 14.9043L31.099 17.9403C30.8298 18.0275 30.5363 17.9966 30.2912 17.8553L21.7593 12.9353C21.4169 12.7379 21.2229 12.3573 21.2643 11.9643C21.3057 11.5713 21.5746 11.2395 21.9506 11.1177L31.3198 8.08165C31.589 7.99442 31.8825 8.02532 32.1276 8.16667L40.6595 13.0867Z" fill="#A9C1FF"/>
        <path d="M40.6595 13.0867C41.0018 13.2841 41.1958 13.6646 41.1545 14.0576C41.1131 14.4507 40.8442 14.7824 40.4682 14.9043L31.099 17.9403C30.8298 18.0275 30.5363 17.9966 30.2912 17.8553L21.7593 12.9353C21.4169 12.7379 21.2229 12.3573 21.2643 11.9643C21.3057 11.5713 21.5746 11.2395 21.9506 11.1177L31.3198 8.08165C31.589 7.99442 31.8825 8.02532 32.1276 8.16667L40.6595 13.0867Z" stroke="#5A5D9A" stroke-width="2" stroke-linejoin="round"/>
    </g>
</svg>
