<svg width="40" height="40" viewBox="0 0 40 40" fill="none" xmlns="http://www.w3.org/2000/svg">
    <rect width="40" height="40" rx="20" fill="white"/>
    <path fill-rule="evenodd" clip-rule="evenodd" d="M13.5144 24L14.6944 22.818C15.0724 22.44 15.2804 21.938 15.2804 21.404V16.727C15.2804 15.37 15.8704 14.073 16.9004 13.171C17.9384 12.261 19.2604 11.861 20.6374 12.042C22.9644 12.351 24.7194 14.455 24.7194 16.937V21.404C24.7194 21.938 24.9274 22.44 25.3044 22.817L26.4854 24H13.5144ZM21.9994 26.341C21.9994 27.24 21.0834 28 19.9994 28C18.9154 28 17.9994 27.24 17.9994 26.341V26H21.9994V26.341ZM28.5204 23.208L26.7194 21.404V16.937C26.7194 13.456 24.2174 10.499 20.8994 10.06C18.9774 9.804 17.0374 10.391 15.5824 11.667C14.1184 12.949 13.2804 14.793 13.2804 16.727L13.2794 21.404L11.4784 23.208C11.0094 23.678 10.8704 24.377 11.1244 24.99C11.3794 25.604 11.9724 26 12.6364 26H15.9994V26.341C15.9994 28.359 17.7934 30 19.9994 30C22.2054 30 23.9994 28.359 23.9994 26.341V26H27.3624C28.0264 26 28.6184 25.604 28.8724 24.991C29.1274 24.377 28.9894 23.677 28.5204 23.208Z" fill="#007AFF"/>
</svg>
