<svg width="40" height="40" viewBox="0 0 40 40" fill="none" xmlns="http://www.w3.org/2000/svg">
    <rect width="40" height="40" rx="20" fill="white"/>
    <path fill-rule="evenodd" clip-rule="evenodd" d="M26 18C26 17.449 25.552 17 25 17C24.448 17 24 17.449 24 18C24 18.551 24.448 19 25 19C25.552 19 26 18.551 26 18ZM28 18C28 19.654 26.654 21 25 21C23.346 21 22 19.654 22 18C22 16.346 23.346 15 25 15C26.654 15 28 16.346 28 18ZM19 15C19 13.897 18.103 13 17 13C15.897 13 15 13.897 15 15C15 16.103 15.897 17 17 17C18.103 17 19 16.103 19 15ZM21 15C21 17.206 19.206 19 17 19C14.794 19 13 17.206 13 15C13 12.794 14.794 11 17 11C19.206 11 21 12.794 21 15ZM21.94 23.046C22.809 22.374 23.879 22 25 22C27.757 22 30 24.243 30 27C30 27.552 29.553 28 29 28C28.447 28 28 27.552 28 27C28 25.346 26.654 24 25 24C24.317 24 23.668 24.234 23.144 24.649C23.688 25.645 24 26.787 24 28C24 28.552 23.553 29 23 29C22.447 29 22 28.552 22 28C22 25.243 19.757 23 17 23C14.243 23 12 25.243 12 28C12 28.552 11.553 29 11 29C10.447 29 10 28.552 10 28C10 24.14 13.141 21 17 21C18.927 21 20.673 21.783 21.94 23.046Z" fill="#007AFF"/>
</svg>
