<svg width="40" height="40" viewBox="0 0 40 40" fill="none" xmlns="http://www.w3.org/2000/svg">
    <rect width="40" height="40" rx="20" fill="white"/>
    <path d="M27.7 20.6C27.7 20 27.2 19.6 26.7 19.6C26.2 19.6 25.7 20.1 25.7 20.6C25.7 23.7 23.2 26.2 20 26.2H19.7C16.6 26.2 14 23.7 14 20.6C14 20 13.5 19.6 13 19.6C12.5 19.6 12 20 12 20.6C12 24.5 15 27.8 18.8 28.2V29.9C18.8 30.5 19.3 30.9 19.8 30.9C20.3 30.9 20.8 30.4 20.8 29.9V28.2C24.7 27.7 27.7 24.5 27.7 20.6Z" fill="#007AFF"/>
    <path d="M19.7001 25.1H20.0001C22.5001 25.1 24.6001 23.1 24.6001 20.5V15.5C24.6001 13 22.5001 11 20.0001 11H19.7001C17.2001 11 15.1001 13 15.1001 15.6V20.6C15.1001 23.1 17.2001 25.1 19.7001 25.1ZM17.2001 15.6C17.2001 14.2 18.3001 13.1 19.7001 13.1H20.0001C21.4001 13.1 22.5001 14.2 22.5001 15.6V20.6C22.5001 22 21.4001 23.1 20.0001 23.1H19.7001C18.3001 23.1 17.2001 22 17.2001 20.6V15.6Z" fill="#007AFF"/>
</svg>
