<svg width="360" height="800" viewBox="0 0 360 800" fill="none" xmlns="http://www.w3.org/2000/svg">
<rect width="360" height="800" fill="#0036A3"/>
<g clip-path="url(#clip0_3048_100443)">
<g clip-path="url(#clip1_3048_100443)">
<g clip-path="url(#clip2_3048_100443)">
<path d="M227.284 312.107H227.038C224.826 311.861 223.352 310.141 223.352 307.929V306.7C223.352 304.734 223.597 302.768 223.597 300.802V298.099C223.597 297.116 223.597 295.887 223.352 294.904C223.352 292.693 224.826 290.972 227.038 290.727C229.25 290.481 230.97 292.201 231.216 294.413C231.216 295.642 231.216 296.625 231.461 297.853V299.082C231.461 299.574 231.461 300.311 231.461 300.802C231.461 303.014 231.461 304.98 231.216 307.192V308.666C230.97 310.632 229.25 312.107 227.284 312.107Z" fill="url(#paint0_linear_3048_100443)"/>
<path d="M178.625 359.537C168.795 359.537 160.193 350.69 155.033 334.962C154.295 332.996 155.524 330.784 157.49 330.047C159.456 329.309 161.668 330.538 162.405 332.504C166.337 344.3 172.481 351.673 178.625 351.673C188.455 351.673 199.268 331.521 199.268 302.768C199.268 274.016 188.455 253.864 178.625 253.864C172.481 253.864 166.337 261.237 162.405 273.278C161.668 275.244 159.456 276.473 157.49 275.736C155.524 274.999 154.295 272.787 155.033 270.821C160.193 255.093 168.795 246 178.625 246C194.598 246 207.132 270.821 207.132 302.768C207.132 334.716 194.598 359.537 178.625 359.537Z" fill="url(#paint1_linear_3048_100443)"/>
<path d="M213.766 328.081C213.52 328.081 213.275 328.081 212.783 328.081C210.571 327.589 209.343 325.623 209.834 323.411C211.309 316.53 212.292 308.912 212.292 301.294C212.292 294.659 211.8 288.023 210.571 281.88C210.08 279.668 211.554 277.702 213.766 277.21C215.978 276.719 217.944 278.193 218.435 280.405C219.664 287.04 220.401 293.921 220.401 301.294C220.401 309.649 219.664 317.759 217.944 325.132C217.207 326.852 215.486 328.081 213.766 328.081Z" fill="url(#paint2_linear_3048_100443)"/>
<path d="M183.54 338.648C183.049 338.648 182.557 338.648 182.066 338.402C180.1 337.665 179.117 335.453 179.854 333.241C183.295 324.394 185.015 313.827 185.015 302.523C185.015 291.218 183.295 280.651 179.854 271.804C179.117 269.838 180.1 267.626 182.066 266.643C184.032 265.906 186.244 266.889 187.227 268.855C190.913 278.685 192.879 290.235 192.879 302.277C192.879 314.564 190.913 326.115 187.227 335.699C186.489 337.665 185.015 338.648 183.54 338.648Z" fill="url(#paint3_linear_3048_100443)"/>
<path d="M141.762 342.826C138.322 342.826 136.11 342.334 135.864 342.334C134.635 342.088 133.407 341.105 132.915 339.877C132.424 338.648 132.669 337.173 133.161 336.19C136.847 330.784 137.584 327.097 137.83 325.377C131.686 319.233 128 310.878 128 302.768C128 289.743 136.601 277.947 150.363 271.804C156.507 269.1 163.388 267.626 170.269 267.626C172.481 267.626 174.201 269.346 174.201 271.558C174.201 273.77 172.481 275.49 170.515 275.49C164.617 275.49 158.719 276.719 153.804 278.93C142.745 283.845 136.11 292.692 136.11 302.522C136.11 309.158 139.059 315.793 144.465 320.462C144.957 320.954 145.448 321.691 145.694 322.428C145.94 323.411 146.677 327.589 143.237 334.962C147.169 334.716 152.084 333.733 154.787 329.801C155.77 328.572 157.244 327.835 158.719 328.326C161.176 328.818 168.057 330.292 170.761 330.292C172.972 330.292 174.693 332.013 174.693 334.224C174.693 336.436 172.972 338.156 170.761 338.156C167.812 338.156 162.651 337.173 159.456 336.682C154.05 341.843 146.677 342.826 141.762 342.826Z" fill="white"/>
</g>
</g>
</g>
<path d="M198.918 382.543C197.777 391.84 197.953 410.872 198.655 420.432H190.498C191.2 411.223 191.2 392.805 190.498 384.122C193.305 384.034 196.111 383.596 198.918 382.543Z" fill="white"/>
<path d="M203.391 407.451C203.391 399.032 209.355 394.033 220.493 394.033C225.404 394.033 230.053 394.997 234.087 397.015C233.473 398.769 233.473 402.628 234.087 404.382C231.105 401.488 226.72 399.383 221.721 399.383C214.704 399.383 210.845 402.189 210.845 407.451C210.845 412.714 214.704 415.52 221.721 415.52C226.72 415.52 231.017 413.942 234.087 411.31C233.473 413.152 233.473 416.222 234.087 417.976C230.053 419.993 225.404 421.046 220.493 421.046C209.355 420.958 203.391 415.871 203.391 407.451ZM238.209 420.432C239.262 412.889 239.262 394.033 238.209 384.21C241.367 384.034 245.05 383.42 247.067 382.543C246.19 386.227 245.752 400.523 245.576 404.119H246.19C248.12 398.33 252.768 394.033 258.82 394.033C266.187 394.033 268.73 399.032 268.73 404.996C268.73 409.819 268.467 416.046 269.432 420.519H261.275V409.206C261.275 404.119 259.346 399.909 254.347 399.909C248.909 399.909 246.541 404.733 246.541 410.083V420.344H238.209V420.432ZM296.796 420.432C296.094 418.414 295.831 416.485 295.743 414.555C293.112 418.502 289.692 421.133 283.114 421.133C276.185 421.133 272.852 418.064 272.852 414.029C272.852 409.381 277.588 406.399 287.324 406.399H295.568C295.305 402.101 293.901 399.295 287.06 399.295C281.535 399.295 276.448 401.312 273.642 403.943C273.992 402.101 273.992 398.769 273.642 397.19C277.238 395.524 281.886 394.033 288.113 394.033C297.409 394.033 302.847 397.102 302.847 405.697C302.935 411.749 303.198 416.222 304.426 420.344H296.796V420.432ZM295.655 413.415C295.568 411.924 295.655 410.521 295.655 409.206V408.416H291.621C284.605 408.416 280.921 409.556 280.921 412.451C280.921 414.731 282.938 416.046 286.885 416.046C290.305 416.046 293.287 414.994 295.655 413.415ZM317.757 408.153C317.669 413.766 320.388 415.345 323.808 415.345C326.176 415.433 328.808 414.643 331 414.029C330.649 415.783 330.562 417.625 330.912 419.379C328.369 420.169 325.036 420.87 321.704 420.87C316.178 420.782 311.004 418.765 311.004 411.486C311.004 409.732 311.004 404.733 310.828 399.383C308.372 399.47 306.092 399.646 303.9 399.821C304.075 398.418 304.075 396.05 303.9 394.734C306.004 394.91 308.285 395.085 310.653 395.173C310.477 392.279 310.39 389.56 310.127 387.455C313.284 387.104 315.915 386.666 318.283 385.525C318.195 388.683 318.108 392.016 318.02 395.261C322.493 395.261 326.966 395.085 330.912 394.734C330.737 396.664 330.737 397.892 330.912 399.821C326.966 399.47 322.405 399.295 317.932 399.295C317.932 402.54 317.845 405.61 317.757 408.153Z" fill="white"/>
<path d="M48.9432 420.432C48.2416 418.414 47.9785 416.485 47.8908 414.555C45.172 418.502 41.7515 421.133 35.2614 421.133C28.3328 421.133 25 418.064 25 414.029C25 409.381 29.736 406.399 39.4712 406.399H47.7154C47.4523 402.101 46.049 399.295 39.2081 399.295C33.6827 399.295 28.5959 401.312 25.7893 403.943C26.1402 402.101 26.1402 398.769 25.7893 397.19C29.3852 395.524 34.0335 394.033 40.2605 394.033C49.5572 394.033 54.9948 397.102 54.9948 405.697C55.0825 411.749 55.3456 416.222 56.5735 420.344H48.9432V420.432ZM47.8031 413.415C47.7154 411.924 47.8031 410.521 47.8031 409.206V408.416H43.7687C36.7524 408.416 33.0688 409.556 33.0688 412.451C33.0688 414.731 35.086 416.046 39.0327 416.046C42.3654 416.046 45.3474 414.994 47.8031 413.415Z" fill="white"/>
<path d="M177.869 420.432C177.167 418.414 176.904 416.485 176.817 414.555C174.185 418.502 170.765 421.133 164.187 421.133C157.259 421.133 153.926 418.064 153.926 414.029C153.926 409.381 158.662 406.399 168.397 406.399H176.641C176.378 402.101 174.975 399.295 168.134 399.295C162.608 399.295 157.522 401.312 154.715 403.943C155.066 402.101 155.066 398.769 154.715 397.19C158.311 395.524 162.959 394.033 169.186 394.033C178.483 394.033 183.921 397.102 183.921 405.697C184.008 411.749 184.271 416.222 185.499 420.344H177.869V420.432ZM176.729 413.415C176.641 411.924 176.729 410.521 176.729 409.206V408.416H172.694C165.678 408.416 161.995 409.556 161.995 412.451C161.995 414.731 164.012 416.046 167.958 416.046C171.291 416.046 174.273 414.994 176.729 413.415Z" fill="white"/>
<path d="M58.9414 407.451C58.9414 399.032 64.9053 394.033 76.0437 394.033C80.9552 394.033 85.6035 394.997 89.6379 397.015C89.0239 398.769 89.0239 402.628 89.6379 404.382C86.6559 401.488 82.2707 399.383 77.2716 399.383C70.2552 399.383 66.3963 402.189 66.3963 407.451C66.3963 412.714 70.2552 415.52 77.2716 415.52C82.2707 415.52 86.5682 413.942 89.6379 411.31C89.0239 413.152 89.0239 416.222 89.6379 417.976C85.6035 419.993 80.9552 421.046 76.0437 421.046C64.8176 420.958 58.9414 415.871 58.9414 407.451Z" fill="white"/>
<path d="M104.285 408.153C104.197 413.766 106.916 415.345 110.337 415.345C112.705 415.433 115.336 414.643 117.528 414.029C117.178 415.783 117.09 417.625 117.441 419.379C114.897 420.169 111.564 420.87 108.232 420.87C102.706 420.782 97.5318 418.765 97.5318 411.486C97.5318 409.732 97.5318 404.733 97.3564 399.383C94.9006 399.47 92.6203 399.646 90.4277 399.821C90.6031 398.418 90.6031 396.05 90.4277 394.734C92.5326 394.91 94.8129 395.085 97.181 395.173C97.0056 392.279 96.9178 389.56 96.6547 387.455C99.8121 387.104 102.443 386.666 104.811 385.525C104.724 388.683 104.636 392.015 104.548 395.261C109.021 395.261 113.494 395.085 117.441 394.734C117.265 396.664 117.265 397.892 117.441 399.821C113.494 399.47 108.933 399.295 104.46 399.295C104.46 402.54 104.373 405.61 104.285 408.153Z" fill="white"/>
<path d="M149.978 420.432H141.208C141.997 417.187 142.524 413.942 142.611 411.574H141.997C140.156 417.45 135.77 420.958 129.631 420.958C122.527 420.958 120.334 415.959 120.334 409.995C120.334 405.084 120.51 399.558 119.633 395.348C122.264 395.436 124.72 395.085 127.351 394.296V406.487C127.351 411.574 129.28 414.906 133.753 414.906C139.629 414.906 141.734 410.96 141.734 405.522V395.348C144.453 395.436 147.26 395.085 149.978 394.296C148.838 401.751 148.838 410.609 149.978 420.432Z" fill="white"/>
<path d="M29.977 450.301C30.355 450.301 30.586 450.238 30.817 450.154V449.188C30.586 449.251 30.376 449.293 30.124 449.293C29.053 449.293 28.318 448.6 28.318 447.235V440.725H30.817V439.717H28.318V436.882H27.394V438.541C27.394 439.318 26.995 439.717 26.218 439.717H25.294V440.725H27.268V447.214C27.268 449.146 28.423 450.301 29.977 450.301ZM34.2305 450.133V444.043C34.2305 441.901 35.6585 440.557 37.5275 440.557C39.3545 440.557 40.6985 441.901 40.6985 444.043V450.133H41.7485V444.043C41.7485 441.334 39.9635 439.549 37.6115 439.549C35.9525 439.549 34.8395 440.536 34.3355 441.418H34.2305V435.433H33.1805V450.133H34.2305ZM53.5644 444.568C53.5644 441.733 51.5274 439.549 48.9444 439.549C46.2774 439.549 44.0934 441.796 44.0934 444.925C44.0934 448.117 46.2354 450.301 48.9444 450.301C51.0234 450.301 52.5354 448.957 53.1654 447.487H52.0944C51.3804 448.642 50.3514 449.293 48.9654 449.293C46.9284 449.293 45.3744 447.781 45.1644 445.471H53.4804C53.5434 445.219 53.5644 444.925 53.5644 444.568ZM48.9444 440.557C50.8764 440.557 52.4304 442.174 52.5144 444.484H45.1644C45.3534 442.153 47.0334 440.557 48.9444 440.557ZM63.6918 436.273C63.9438 436.273 64.1538 436.315 64.3848 436.378V435.412C64.1538 435.328 63.9228 435.265 63.5448 435.265C61.9908 435.265 60.8358 436.42 60.8358 438.352V439.717H59.2608V440.725H60.8358V450.133H61.8858V440.725H64.3848V439.717H61.8858V438.331C61.8858 436.945 62.6208 436.273 63.6918 436.273ZM70.2071 450.301C72.1181 450.301 73.1471 449.02 73.4831 448.432H73.5881L73.8401 450.133H74.6381V439.717H73.5881V445.807C73.5881 447.949 72.1811 449.293 70.2911 449.293C68.4641 449.293 67.1201 447.949 67.1201 445.807V439.717H66.0701V445.807C66.0701 448.516 67.8551 450.301 70.2071 450.301ZM81.1645 450.301C81.5425 450.301 81.7735 450.238 82.0045 450.154V449.188C81.7735 449.251 81.5635 449.293 81.3115 449.293C80.2405 449.293 79.5055 448.6 79.5055 447.235V440.725H82.0045V439.717H79.5055V436.882H78.5815V438.541C78.5815 439.318 78.1825 439.717 77.4055 439.717H76.4815V440.725H78.4555V447.214C78.4555 449.146 79.6105 450.301 81.1645 450.301ZM88.0899 450.301C90.0009 450.301 91.0299 449.02 91.3659 448.432H91.4709L91.7229 450.133H92.5209V439.717H91.4709V445.807C91.4709 447.949 90.0639 449.293 88.1739 449.293C86.3469 449.293 85.0029 447.949 85.0029 445.807V439.717H83.9529V445.807C83.9529 448.516 85.7379 450.301 88.0899 450.301ZM96.6743 450.133V444.085C96.6743 441.943 98.1023 440.599 99.8243 440.599C100.055 440.599 100.307 440.62 100.538 440.683V439.633C100.328 439.57 100.055 439.549 99.8033 439.549C98.4173 439.549 97.3043 440.515 96.7793 441.418H96.6743L96.4223 439.717H95.6243V450.133H96.6743ZM110.679 444.568C110.679 441.733 108.642 439.549 106.059 439.549C103.392 439.549 101.208 441.796 101.208 444.925C101.208 448.117 103.35 450.301 106.059 450.301C108.138 450.301 109.65 448.957 110.28 447.487H109.209C108.495 448.642 107.466 449.293 106.08 449.293C104.043 449.293 102.489 447.781 102.279 445.471H110.595C110.658 445.219 110.679 444.925 110.679 444.568ZM106.059 440.557C107.991 440.557 109.545 442.174 109.629 444.484H102.279C102.468 442.153 104.148 440.557 106.059 440.557ZM122.219 450.301C124.886 450.301 127.07 448.054 127.07 444.925C127.07 441.796 124.886 439.549 122.219 439.549C119.552 439.549 117.368 441.796 117.368 444.925C117.368 448.054 119.552 450.301 122.219 450.301ZM122.219 449.293C120.182 449.293 118.418 447.508 118.418 444.925C118.418 442.342 120.182 440.557 122.219 440.557C124.256 440.557 126.02 442.342 126.02 444.925C126.02 447.508 124.256 449.293 122.219 449.293ZM132.742 436.273C132.994 436.273 133.204 436.315 133.435 436.378V435.412C133.204 435.328 132.973 435.265 132.595 435.265C131.041 435.265 129.886 436.42 129.886 438.352V439.717H128.311V440.725H129.886V450.133H130.936V440.725H133.435V439.717H130.936V438.331C130.936 436.945 131.671 436.273 132.742 436.273ZM143.607 450.301C145.392 450.301 146.736 449.104 147.24 448.201H147.345L147.618 450.133H148.395V435.433H147.345V441.649H147.24C146.736 440.725 145.392 439.549 143.607 439.549C141.024 439.549 138.819 441.775 138.819 444.925C138.819 448.075 141.024 450.301 143.607 450.301ZM143.607 449.293C141.612 449.293 139.869 447.508 139.869 444.925C139.869 442.342 141.612 440.557 143.607 440.557C145.623 440.557 147.345 442.342 147.345 444.925C147.345 447.508 145.623 449.293 143.607 449.293ZM152.156 437.953C152.597 437.953 152.954 437.617 152.954 437.176C152.954 436.714 152.597 436.378 152.156 436.378C151.736 436.378 151.379 436.714 151.379 437.176C151.379 437.617 151.736 437.953 152.156 437.953ZM152.681 450.133V439.717H151.631V450.133H152.681ZM160.036 454.123C162.703 454.123 164.467 452.401 164.467 449.839V439.717H163.669L163.417 441.565H163.312C162.892 440.746 161.59 439.549 159.826 439.549C157.285 439.549 155.164 441.691 155.164 444.673C155.164 447.634 157.285 449.776 159.826 449.776C161.653 449.776 162.892 448.474 163.312 447.76H163.417V449.839C163.417 451.834 162.094 453.115 160.036 453.115C158.314 453.115 157.138 452.296 156.676 450.994H155.626C156.088 452.842 157.768 454.123 160.036 454.123ZM159.826 448.789C157.894 448.789 156.214 447.067 156.214 444.673C156.214 442.279 157.894 440.557 159.826 440.557C161.737 440.557 163.417 442.3 163.417 444.673C163.417 447.046 161.737 448.789 159.826 448.789ZM168.091 437.953C168.532 437.953 168.889 437.617 168.889 437.176C168.889 436.714 168.532 436.378 168.091 436.378C167.671 436.378 167.314 436.714 167.314 437.176C167.314 437.617 167.671 437.953 168.091 437.953ZM168.616 450.133V439.717H167.566V450.133H168.616ZM175.172 450.301C175.55 450.301 175.781 450.238 176.012 450.154V449.188C175.781 449.251 175.571 449.293 175.319 449.293C174.248 449.293 173.513 448.6 173.513 447.235V440.725H176.012V439.717H173.513V436.882H172.589V438.541C172.589 439.318 172.19 439.717 171.413 439.717H170.489V440.725H172.463V447.214C172.463 449.146 173.618 450.301 175.172 450.301ZM181.615 439.549C179.515 439.549 178.108 440.977 177.835 442.636H178.885C179.179 441.439 180.04 440.557 181.615 440.557C183.253 440.557 184.366 441.67 184.366 443.392V444.022H182.14C179.074 444.022 177.394 445.408 177.394 447.256C177.394 448.936 178.675 450.301 180.796 450.301C182.602 450.301 183.757 449.356 184.261 448.432H184.366L184.618 450.133H185.416V443.392C185.416 441.103 183.841 439.549 181.615 439.549ZM180.88 449.293C179.305 449.293 178.444 448.432 178.444 447.256C178.444 445.912 179.683 445.009 182.266 445.009H184.366V446.017C184.366 447.928 182.98 449.293 180.88 449.293ZM189.598 450.133V435.433H188.548V450.133H189.598ZM201.912 450.301C204.222 450.301 205.923 448.516 206.364 446.542H205.314C204.852 448.096 203.676 449.293 201.912 449.293C199.875 449.293 198.111 447.508 198.111 444.925C198.111 442.342 199.875 440.557 201.912 440.557C203.676 440.557 204.852 441.754 205.314 443.308H206.364C205.986 441.355 204.243 439.549 201.912 439.549C199.245 439.549 197.061 441.796 197.061 444.925C197.061 448.054 199.245 450.301 201.912 450.301ZM212.925 450.301C215.592 450.301 217.776 448.054 217.776 444.925C217.776 441.796 215.592 439.549 212.925 439.549C210.258 439.549 208.074 441.796 208.074 444.925C208.074 448.054 210.258 450.301 212.925 450.301ZM212.925 449.293C210.888 449.293 209.124 447.508 209.124 444.925C209.124 442.342 210.888 440.557 212.925 440.557C214.962 440.557 216.726 442.342 216.726 444.925C216.726 447.508 214.962 449.293 212.925 449.293ZM230.394 439.549C228.567 439.549 227.58 440.893 227.202 441.796C226.866 440.977 225.9 439.549 224.115 439.549C222.582 439.549 221.721 440.662 221.385 441.334H221.28L221.028 439.717H220.23V450.133H221.28V443.749C221.28 441.796 222.519 440.557 223.926 440.557C225.417 440.557 226.509 441.712 226.509 443.749V450.133H227.559V443.749C227.559 441.775 228.777 440.557 230.205 440.557C231.696 440.557 232.788 441.712 232.788 443.749V450.133H233.838V443.749C233.838 441.166 232.263 439.549 230.394 439.549ZM247.026 439.549C245.199 439.549 244.212 440.893 243.834 441.796C243.498 440.977 242.532 439.549 240.747 439.549C239.214 439.549 238.353 440.662 238.017 441.334H237.912L237.66 439.717H236.862V450.133H237.912V443.749C237.912 441.796 239.151 440.557 240.558 440.557C242.049 440.557 243.141 441.712 243.141 443.749V450.133H244.191V443.749C244.191 441.775 245.409 440.557 246.837 440.557C248.328 440.557 249.42 441.712 249.42 443.749V450.133H250.47V443.749C250.47 441.166 248.895 439.549 247.026 439.549ZM257.525 450.301C259.436 450.301 260.465 449.02 260.801 448.432H260.906L261.158 450.133H261.956V439.717H260.906V445.807C260.906 447.949 259.499 449.293 257.609 449.293C255.782 449.293 254.438 447.949 254.438 445.807V439.717H253.388V445.807C253.388 448.516 255.173 450.301 257.525 450.301ZM266.11 450.133V444.043C266.11 441.901 267.538 440.557 269.407 440.557C271.234 440.557 272.578 441.901 272.578 444.043V450.133H273.628V444.043C273.628 441.334 271.843 439.549 269.491 439.549C267.832 439.549 266.719 440.536 266.215 441.418H266.11L265.858 439.717H265.06V450.133H266.11ZM277.151 437.953C277.592 437.953 277.949 437.617 277.949 437.176C277.949 436.714 277.592 436.378 277.151 436.378C276.731 436.378 276.374 436.714 276.374 437.176C276.374 437.617 276.731 437.953 277.151 437.953ZM277.676 450.133V439.717H276.626V450.133H277.676ZM285.01 450.301C287.32 450.301 289.021 448.516 289.462 446.542H288.412C287.95 448.096 286.774 449.293 285.01 449.293C282.973 449.293 281.209 447.508 281.209 444.925C281.209 442.342 282.973 440.557 285.01 440.557C286.774 440.557 287.95 441.754 288.412 443.308H289.462C289.084 441.355 287.341 439.549 285.01 439.549C282.343 439.549 280.159 441.796 280.159 444.925C280.159 448.054 282.343 450.301 285.01 450.301ZM295.372 439.549C293.272 439.549 291.865 440.977 291.592 442.636H292.642C292.936 441.439 293.797 440.557 295.372 440.557C297.01 440.557 298.123 441.67 298.123 443.392V444.022H295.897C292.831 444.022 291.151 445.408 291.151 447.256C291.151 448.936 292.432 450.301 294.553 450.301C296.359 450.301 297.514 449.356 298.018 448.432H298.123L298.375 450.133H299.173V443.392C299.173 441.103 297.598 439.549 295.372 439.549ZM294.637 449.293C293.062 449.293 292.201 448.432 292.201 447.256C292.201 445.912 293.44 445.009 296.023 445.009H298.123V446.017C298.123 447.928 296.737 449.293 294.637 449.293ZM305.417 450.301C305.795 450.301 306.026 450.238 306.257 450.154V449.188C306.026 449.251 305.816 449.293 305.564 449.293C304.493 449.293 303.758 448.6 303.758 447.235V440.725H306.257V439.717H303.758V436.882H302.834V438.541C302.834 439.318 302.435 439.717 301.658 439.717H300.734V440.725H302.708V447.214C302.708 449.146 303.863 450.301 305.417 450.301ZM309.041 437.953C309.482 437.953 309.839 437.617 309.839 437.176C309.839 436.714 309.482 436.378 309.041 436.378C308.621 436.378 308.264 436.714 308.264 437.176C308.264 437.617 308.621 437.953 309.041 437.953ZM309.566 450.133V439.717H308.516V450.133H309.566ZM316.9 450.301C319.567 450.301 321.751 448.054 321.751 444.925C321.751 441.796 319.567 439.549 316.9 439.549C314.233 439.549 312.049 441.796 312.049 444.925C312.049 448.054 314.233 450.301 316.9 450.301ZM316.9 449.293C314.863 449.293 313.099 447.508 313.099 444.925C313.099 442.342 314.863 440.557 316.9 440.557C318.937 440.557 320.701 442.342 320.701 444.925C320.701 447.508 318.937 449.293 316.9 449.293ZM325.254 450.133V444.043C325.254 441.901 326.682 440.557 328.551 440.557C330.378 440.557 331.722 441.901 331.722 444.043V450.133H332.772V444.043C332.772 441.334 330.987 439.549 328.635 439.549C326.976 439.549 325.863 440.536 325.359 441.418H325.254L325.002 439.717H324.204V450.133H325.254Z" fill="white"/>
<defs>
<linearGradient id="paint0_linear_3048_100443" x1="227.406" y1="290.703" x2="227.406" y2="312.107" gradientUnits="userSpaceOnUse">
<stop stop-color="#29B2FF"/>
<stop offset="1" stop-color="#FF0099"/>
</linearGradient>
<linearGradient id="paint1_linear_3048_100443" x1="180.974" y1="246" x2="180.974" y2="359.537" gradientUnits="userSpaceOnUse">
<stop stop-color="#29B2FF"/>
<stop offset="1" stop-color="#FF0099"/>
</linearGradient>
<linearGradient id="paint2_linear_3048_100443" x1="215.064" y1="277.116" x2="215.064" y2="328.081" gradientUnits="userSpaceOnUse">
<stop stop-color="#29B2FF"/>
<stop offset="1" stop-color="#FF0099"/>
</linearGradient>
<linearGradient id="paint3_linear_3048_100443" x1="186.244" y1="266.398" x2="186.244" y2="338.648" gradientUnits="userSpaceOnUse">
<stop stop-color="#29B2FF"/>
<stop offset="1" stop-color="#FF0099"/>
</linearGradient>
<clipPath id="clip0_3048_100443">
<rect width="103.467" height="113.543" fill="white" transform="translate(128.266 246)"/>
</clipPath>
<clipPath id="clip1_3048_100443">
<rect width="103.464" height="113.54" fill="white" transform="translate(128 246)"/>
</clipPath>
<clipPath id="clip2_3048_100443">
<rect width="103.461" height="113.537" fill="white" transform="translate(128 246)"/>
</clipPath>
</defs>
</svg>
