<?xml version="1.0" encoding="UTF-8" standalone="no"?>
<svg
   width="288"
   height="288"
   viewBox="0 0 288 288"
   fill="none"
   version="1.1"
   id="svg136"
   xmlns="http://www.w3.org/2000/svg"
   xmlns:svg="http://www.w3.org/2000/svg">
  <rect
     width="288"
     height="288"
     fill="#0036a3"
     id="rect71"
     x="0"
     y="0"
     style="stroke-width:0.536657" />
  <g
     clip-path="url(#clip0_3048_100443)"
     id="g87"
     transform="matrix(1.5984868,0,0,1.6910787,-142.06127,-368.72164)">
    <path
       d="m 227.284,312.107 h -0.246 c -2.212,-0.246 -3.686,-1.966 -3.686,-4.178 V 306.7 c 0,-1.966 0.245,-3.932 0.245,-5.898 v -2.703 c 0,-0.983 0,-2.212 -0.245,-3.195 0,-2.211 1.474,-3.932 3.686,-4.177 2.212,-0.246 3.932,1.474 4.178,3.686 0,1.229 0,2.212 0.245,3.44 v 1.229 c 0,0.492 0,1.229 0,1.72 0,2.212 0,4.178 -0.245,6.39 v 1.474 c -0.246,1.966 -1.966,3.441 -3.932,3.441 z"
       fill="url(#paint0_linear_3048_100443)"
       id="path73"
       style="fill:url(#paint0_linear_3048_100443)" />
    <path
       d="m 178.625,359.537 c -9.83,0 -18.432,-8.847 -23.592,-24.575 -0.738,-1.966 0.491,-4.178 2.457,-4.915 1.966,-0.738 4.178,0.491 4.915,2.457 3.932,11.796 10.076,19.169 16.22,19.169 9.83,0 20.643,-20.152 20.643,-48.905 0,-28.752 -10.813,-48.904 -20.643,-48.904 -6.144,0 -12.288,7.373 -16.22,19.414 -0.737,1.966 -2.949,3.195 -4.915,2.458 -1.966,-0.737 -3.195,-2.949 -2.457,-4.915 5.16,-15.728 13.762,-24.821 23.592,-24.821 15.973,0 28.507,24.821 28.507,56.768 0,31.948 -12.534,56.769 -28.507,56.769 z"
       fill="url(#paint1_linear_3048_100443)"
       id="path75"
       style="fill:url(#paint1_linear_3048_100443)" />
    <path
       d="m 213.766,328.081 c -0.246,0 -0.491,0 -0.983,0 -2.212,-0.492 -3.44,-2.458 -2.949,-4.67 1.475,-6.881 2.458,-14.499 2.458,-22.117 0,-6.635 -0.492,-13.271 -1.721,-19.414 -0.491,-2.212 0.983,-4.178 3.195,-4.67 2.212,-0.491 4.178,0.983 4.669,3.195 1.229,6.635 1.966,13.516 1.966,20.889 0,8.355 -0.737,16.465 -2.457,23.838 -0.737,1.72 -2.458,2.949 -4.178,2.949 z"
       fill="url(#paint2_linear_3048_100443)"
       id="path77"
       style="fill:url(#paint2_linear_3048_100443)" />
    <path
       d="m 183.54,338.648 c -0.491,0 -0.983,0 -1.474,-0.246 -1.966,-0.737 -2.949,-2.949 -2.212,-5.161 3.441,-8.847 5.161,-19.414 5.161,-30.718 0,-11.305 -1.72,-21.872 -5.161,-30.719 -0.737,-1.966 0.246,-4.178 2.212,-5.161 1.966,-0.737 4.178,0.246 5.161,2.212 3.686,9.83 5.652,21.38 5.652,33.422 0,12.287 -1.966,23.838 -5.652,33.422 -0.738,1.966 -2.212,2.949 -3.687,2.949 z"
       fill="url(#paint3_linear_3048_100443)"
       id="path79"
       style="fill:url(#paint3_linear_3048_100443)" />
    <path
       d="m 141.762,342.826 c -3.44,0 -5.652,-0.492 -5.898,-0.492 -1.229,-0.246 -2.457,-1.229 -2.949,-2.457 -0.491,-1.229 -0.246,-2.704 0.246,-3.687 3.686,-5.406 4.423,-9.093 4.669,-10.813 -6.144,-6.144 -9.83,-14.499 -9.83,-22.609 0,-13.025 8.601,-24.821 22.363,-30.964 6.144,-2.704 13.025,-4.178 19.906,-4.178 2.212,0 3.932,1.72 3.932,3.932 0,2.212 -1.72,3.932 -3.686,3.932 -5.898,0 -11.796,1.229 -16.711,3.44 -11.059,4.915 -17.694,13.762 -17.694,23.592 0,6.636 2.949,13.271 8.355,17.94 0.492,0.492 0.983,1.229 1.229,1.966 0.246,0.983 0.983,5.161 -2.457,12.534 3.932,-0.246 8.847,-1.229 11.55,-5.161 0.983,-1.229 2.457,-1.966 3.932,-1.475 2.457,0.492 9.338,1.966 12.042,1.966 2.211,0 3.932,1.721 3.932,3.932 0,2.212 -1.721,3.932 -3.932,3.932 -2.949,0 -8.11,-0.983 -11.305,-1.474 -5.406,5.161 -12.779,6.144 -17.694,6.144 z"
       fill="#ffffff"
       id="path81" />
  </g>
  <defs
     id="defs134">
    <linearGradient
       id="paint0_linear_3048_100443"
       x1="227.40601"
       y1="290.703"
       x2="227.40601"
       y2="312.10699"
       gradientUnits="userSpaceOnUse">
      <stop
         stop-color="#29B2FF"
         id="stop105" />
      <stop
         offset="1"
         stop-color="#FF0099"
         id="stop107" />
    </linearGradient>
    <linearGradient
       id="paint1_linear_3048_100443"
       x1="180.974"
       y1="246"
       x2="180.974"
       y2="359.53699"
       gradientUnits="userSpaceOnUse">
      <stop
         stop-color="#29B2FF"
         id="stop110" />
      <stop
         offset="1"
         stop-color="#FF0099"
         id="stop112" />
    </linearGradient>
    <linearGradient
       id="paint2_linear_3048_100443"
       x1="215.064"
       y1="277.116"
       x2="215.064"
       y2="328.08099"
       gradientUnits="userSpaceOnUse">
      <stop
         stop-color="#29B2FF"
         id="stop115" />
      <stop
         offset="1"
         stop-color="#FF0099"
         id="stop117" />
    </linearGradient>
    <linearGradient
       id="paint3_linear_3048_100443"
       x1="186.244"
       y1="266.39801"
       x2="186.244"
       y2="338.64801"
       gradientUnits="userSpaceOnUse">
      <stop
         stop-color="#29B2FF"
         id="stop120" />
      <stop
         offset="1"
         stop-color="#FF0099"
         id="stop122" />
    </linearGradient>
    <clipPath
       id="clip0_3048_100443">
      <rect
         width="103.467"
         height="113.543"
         fill="#ffffff"
         transform="translate(128.266,246)"
         id="rect125"
         x="0"
         y="0" />
    </clipPath>
    <clipPath
       id="clip1_3048_100443">
      <rect
         width="103.464"
         height="113.54"
         fill="#ffffff"
         transform="translate(128,246)"
         id="rect128"
         x="0"
         y="0" />
    </clipPath>
    <clipPath
       id="clip2_3048_100443">
      <rect
         width="103.461"
         height="113.537"
         fill="#ffffff"
         transform="translate(128,246)"
         id="rect131"
         x="0"
         y="0" />
    </clipPath>
  </defs>
</svg>
