<?xml version="1.0" encoding="UTF-8" standalone="no"?>
<svg
   width="288"
   height="288"
   viewBox="0 0 288 288"
   fill="none"
   version="1.1"
   id="svg136"
   xmlns="http://www.w3.org/2000/svg"
   xmlns:svg="http://www.w3.org/2000/svg">
  <rect
     width="288"
     height="288"
     fill="#0036a3"
     id="rect71"
     x="0"
     y="0"
     style="stroke-width:0.536657" />
  <g
     clip-path="url(#clip0_3048_100443)"
     id="g87"
     transform="matrix(1.9405536,0,0,1.9405536,-203.93681,-476.09247)">
        <path
           d="m 227.284,312.107 h -0.246 c -2.212,-0.246 -3.686,-1.966 -3.686,-4.178 V 306.7 c 0,-1.966 0.245,-3.932 0.245,-5.898 v -2.703 c 0,-0.983 0,-2.212 -0.245,-3.195 0,-2.211 1.474,-3.932 3.686,-4.177 2.212,-0.246 3.932,1.474 4.178,3.686 0,1.229 0,2.212 0.245,3.44 v 1.229 c 0,0.492 0,1.229 0,1.72 0,2.212 0,4.178 -0.245,6.39 v 1.474 c -0.246,1.966 -1.966,3.441 -3.932,3.441 z"
           fill="url(#paint0_linear_3048_100443)"
           id="path73"
           style="fill:url(#paint0_linear_3048_100443)" />
        <path
           d="m 178.625,359.537 c -9.83,0 -18.432,-8.847 -23.592,-24.575 -0.738,-1.966 0.491,-4.178 2.457,-4.915 1.966,-0.738 4.178,0.491 4.915,2.457 3.932,11.796 10.076,19.169 16.22,19.169 9.83,0 20.643,-20.152 20.643,-48.905 0,-28.752 -10.813,-48.904 -20.643,-48.904 -6.144,0 -12.288,7.373 -16.22,19.414 -0.737,1.966 -2.949,3.195 -4.915,2.458 -1.966,-0.737 -3.195,-2.949 -2.457,-4.915 5.16,-15.728 13.762,-24.821 23.592,-24.821 15.973,0 28.507,24.821 28.507,56.768 0,31.948 -12.534,56.769 -28.507,56.769 z"
           fill="url(#paint1_linear_3048_100443)"
           id="path75"
           style="fill:url(#paint1_linear_3048_100443)" />
        <path
           d="m 213.766,328.081 c -0.246,0 -0.491,0 -0.983,0 -2.212,-0.492 -3.44,-2.458 -2.949,-4.67 1.475,-6.881 2.458,-14.499 2.458,-22.117 0,-6.635 -0.492,-13.271 -1.721,-19.414 -0.491,-2.212 0.983,-4.178 3.195,-4.67 2.212,-0.491 4.178,0.983 4.669,3.195 1.229,6.635 1.966,13.516 1.966,20.889 0,8.355 -0.737,16.465 -2.457,23.838 -0.737,1.72 -2.458,2.949 -4.178,2.949 z"
           fill="url(#paint2_linear_3048_100443)"
           id="path77"
           style="fill:url(#paint2_linear_3048_100443)" />
        <path
           d="m 183.54,338.648 c -0.491,0 -0.983,0 -1.474,-0.246 -1.966,-0.737 -2.949,-2.949 -2.212,-5.161 3.441,-8.847 5.161,-19.414 5.161,-30.718 0,-11.305 -1.72,-21.872 -5.161,-30.719 -0.737,-1.966 0.246,-4.178 2.212,-5.161 1.966,-0.737 4.178,0.246 5.161,2.212 3.686,9.83 5.652,21.38 5.652,33.422 0,12.287 -1.966,23.838 -5.652,33.422 -0.738,1.966 -2.212,2.949 -3.687,2.949 z"
           fill="url(#paint3_linear_3048_100443)"
           id="path79"
           style="fill:url(#paint3_linear_3048_100443)" />
        <path
           d="m 141.762,342.826 c -3.44,0 -5.652,-0.492 -5.898,-0.492 -1.229,-0.246 -2.457,-1.229 -2.949,-2.457 -0.491,-1.229 -0.246,-2.704 0.246,-3.687 3.686,-5.406 4.423,-9.093 4.669,-10.813 -6.144,-6.144 -9.83,-14.499 -9.83,-22.609 0,-13.025 8.601,-24.821 22.363,-30.964 6.144,-2.704 13.025,-4.178 19.906,-4.178 2.212,0 3.932,1.72 3.932,3.932 0,2.212 -1.72,3.932 -3.686,3.932 -5.898,0 -11.796,1.229 -16.711,3.44 -11.059,4.915 -17.694,13.762 -17.694,23.592 0,6.636 2.949,13.271 8.355,17.94 0.492,0.492 0.983,1.229 1.229,1.966 0.246,0.983 0.983,5.161 -2.457,12.534 3.932,-0.246 8.847,-1.229 11.55,-5.161 0.983,-1.229 2.457,-1.966 3.932,-1.475 2.457,0.492 9.338,1.966 12.042,1.966 2.211,0 3.932,1.721 3.932,3.932 0,2.212 -1.721,3.932 -3.932,3.932 -2.949,0 -8.11,-0.983 -11.305,-1.474 -5.406,5.161 -12.779,6.144 -17.694,6.144 z"
           fill="#ffffff"
           id="path81" />
  </g>
  <path
     d="m 160.97252,237.68991 c -0.89899,7.32509 -0.76034,22.32036 -0.20722,29.85267 h -6.42689 c 0.55312,-7.25576 0.55312,-21.76726 0,-28.60858 2.21162,-0.0692 4.42247,-0.41443 6.63411,-1.24409 z"
     fill="#ffffff"
     id="path89"
     style="stroke-width:0.787899" />
  <path
     d="m 164.49678,257.31487 c 0,-6.63331 4.69902,-10.57202 13.47463,-10.57202 3.86937,0 7.53232,0.75954 10.71069,2.34952 -0.48376,1.38198 -0.48376,4.42247 0,5.80445 -2.34952,-2.28019 -5.80445,-3.93871 -9.74314,-3.93871 -5.52869,0 -8.56918,2.21084 -8.56918,6.35676 0,4.14671 3.04049,6.35755 8.56918,6.35755 3.93869,0 7.32429,-1.24331 9.74314,-3.31705 -0.48376,1.45131 -0.48376,3.87015 0,5.25212 -3.17837,1.5892 -6.84132,2.41885 -10.71069,2.41885 -8.77561,-0.0692 -13.47463,-4.07737 -13.47463,-10.71147 z m 27.43302,10.22771 c 0.82966,-5.94313 0.82966,-20.79973 0,-28.53923 2.4882,-0.13873 5.39004,-0.62246 6.97922,-1.31344 -0.69099,2.90261 -1.03608,14.1664 -1.17476,16.99969 h 0.48377 c 1.52065,-4.56115 5.18279,-7.94675 9.95116,-7.94675 5.80444,0 7.80806,3.93871 7.80806,8.63773 0,3.80003 -0.20722,8.70628 0.5531,12.23055 h -6.42688 v -8.91349 c 0,-4.00804 -1.51986,-7.32509 -5.45855,-7.32509 -4.28459,0 -6.15033,3.80083 -6.15033,8.01607 v 8.08462 h -6.56479 z m 46.1606,0 c -0.55311,-1.58998 -0.76033,-3.10984 -0.82966,-4.63048 -2.07296,3.10982 -4.76758,5.18279 -9.95036,5.18279 -5.45935,0 -8.0854,-2.41806 -8.0854,-5.59723 0,-3.66215 3.73146,-6.01165 11.40245,-6.01165 h 6.49542 c -0.20721,-3.3864 -1.31343,-5.59723 -6.70342,-5.59723 -4.35315,0 -8.36118,1.58919 -10.57202,3.66214 0.27576,-1.45131 0.27576,-4.07657 0,-5.32067 2.83328,-1.31264 6.49543,-2.4874 11.40166,-2.4874 7.32432,0 11.6089,2.41806 11.6089,9.19005 0.0692,4.76835 0.27655,8.29262 1.24409,11.54034 h -6.01166 z m -0.899,-5.52867 c -0.0686,-1.17477 0,-2.2802 0,-3.31627 v -0.62245 h -3.17838 c -5.5279,0 -8.4305,0.89821 -8.4305,3.17917 0,1.79641 1.58919,2.8325 4.69902,2.8325 2.69462,0 5.04413,-0.82887 6.90986,-2.07295 z m 17.41412,-4.14593 c -0.0695,4.42248 2.07295,5.66656 4.76758,5.66656 1.86575,0.0692 3.93949,-0.5531 5.66656,-1.03688 -0.27657,1.38198 -0.34509,2.83328 -0.0695,4.21527 -2.00361,0.62243 -4.6297,1.17475 -7.25496,1.17475 -4.35392,-0.0692 -8.43051,-1.65853 -8.43051,-7.39363 0,-1.38198 0,-5.32067 -0.13873,-9.53594 -1.93507,0.0686 -3.73149,0.20723 -5.45857,0.34509 0.13785,-1.1054 0.13785,-2.97116 0,-4.00802 1.65776,0.13872 3.45495,0.27655 5.32068,0.34587 -0.13871,-2.28017 -0.2072,-4.42246 -0.41443,-6.08099 2.48739,-0.27655 4.56035,-0.62165 6.4261,-1.52063 -0.0695,2.48818 -0.13783,5.11424 -0.20722,7.67097 3.52427,0 7.04853,-0.13872 10.15758,-0.41522 -0.13784,1.52064 -0.13784,2.48817 0,4.00802 -3.10905,-0.27655 -6.70266,-0.41442 -10.22691,-0.41442 0,2.55673 -0.0686,4.97557 -0.13783,6.9792 z"
     fill="#ffffff"
     id="path91"
     style="stroke-width:0.787899" />
  <path
     d="m 42.807676,267.54258 c -0.552794,-1.58998 -0.76009,-3.10984 -0.829184,-4.63048 -2.142142,3.10982 -4.837137,5.18279 -9.950679,5.18279 -5.459025,0 -8.08494,-2.41806 -8.08494,-5.59723 0,-3.66215 3.731489,-6.01165 11.401838,-6.01165 h 6.49558 c -0.207297,-3.3864 -1.312945,-5.59723 -6.702876,-5.59723 -4.353451,0 -8.36133,1.58919 -10.572655,3.66214 0.276478,-1.45131 0.276478,-4.07657 0,-5.32067 2.833213,-1.31264 6.495594,-2.4874 11.401839,-2.4874 7.324852,0 11.60912,2.41806 11.60912,9.19005 0.06914,4.76835 0.27639,8.29262 1.24385,11.54034 h -6.011893 z m -0.898278,-5.52867 c -0.06913,-1.17477 0,-2.2802 0,-3.31627 v -0.62245 h -3.178696 c -5.528133,0 -8.430439,0.89821 -8.430439,3.17917 0,1.79641 1.589348,2.8325 4.69895,2.8325 2.625828,0 4.97534,-0.82887 6.910185,-2.07295 z"
     fill="#ffffff"
     id="path93"
     style="stroke-width:0.787899" />
  <path
     d="m 144.38805,267.54258 c -0.55311,-1.58998 -0.76032,-3.10984 -0.82886,-4.63048 -2.07375,3.10982 -4.76837,5.18279 -9.95116,5.18279 -5.45855,0 -8.08462,-2.41806 -8.08462,-5.59723 0,-3.66215 3.7315,-6.01165 11.40168,-6.01165 h 6.49543 c -0.20723,-3.3864 -1.31264,-5.59723 -6.70266,-5.59723 -4.35392,0 -8.36116,1.58919 -10.5728,3.66214 0.27655,-1.45131 0.27655,-4.07657 0,-5.32067 2.83327,-1.31264 6.49543,-2.4874 11.40168,-2.4874 7.32509,0 11.60967,2.41806 11.60967,9.19005 0.0686,4.76835 0.27577,8.29262 1.24329,11.54034 h -6.01165 z m -0.8982,-5.52867 c -0.0695,-1.17477 0,-2.2802 0,-3.31627 v -0.62245 h -3.17917 c -5.5279,0 -8.42971,0.89821 -8.42971,3.17917 0,1.79641 1.58918,2.8325 4.69823,2.8325 2.62605,0 4.97557,-0.82887 6.91065,-2.07295 z"
     fill="#ffffff"
     id="path95"
     style="stroke-width:0.787899" />
  <path
     d="m 50.685233,257.31487 c 0,-6.63331 4.698949,-10.57202 13.474872,-10.57202 3.869767,0 7.532143,0.75954 10.710838,2.34952 -0.483756,1.38198 -0.483756,4.42247 0,5.80445 -2.349505,-2.28019 -5.804592,-3.93871 -9.743377,-3.93871 -5.528209,0 -8.568628,2.21084 -8.568628,6.35676 0,4.14671 3.040419,6.35755 8.568628,6.35755 3.938785,0 7.324778,-1.24331 9.743377,-3.31705 -0.483756,1.45131 -0.483756,3.87015 0,5.25212 -3.178695,1.5892 -6.841071,2.41885 -10.710838,2.41885 -8.845017,-0.0692 -13.474872,-4.07737 -13.474872,-10.71147 z"
     fill="#ffffff"
     id="path97"
     style="stroke-width:0.787899" />
  <path
     d="m 86.411378,257.86798 c -0.06948,4.42248 2.072963,5.66656 4.768347,5.66656 1.865761,0.0692 3.938714,-0.5531 5.665769,-1.03688 -0.275745,1.38198 -0.345084,2.83328 -0.06859,4.21527 -2.004399,0.62243 -4.630468,1.17475 -7.255733,1.17475 -4.353932,-0.0692 -8.430677,-1.65853 -8.430677,-7.39363 0,-1.38198 0,-5.32067 -0.138265,-9.53594 -1.934921,0.0686 -3.731577,0.20723 -5.459129,0.34509 0.138132,-1.1054 0.138132,-2.97116 0,-4.00802 1.658458,0.13872 3.455114,0.27655 5.320919,0.34587 -0.138275,-2.28017 -0.20737,-4.42246 -0.414661,-6.08099 2.487714,-0.27655 4.560578,-0.62165 6.426338,-1.52063 -0.06859,2.48818 -0.137842,5.11344 -0.207225,7.67097 3.524263,0 7.048537,-0.13872 10.158366,-0.41522 -0.138722,1.52064 -0.138722,2.48817 0,4.00802 -3.109829,-0.27655 -6.70343,-0.41442 -10.227693,-0.41442 0,2.55673 -0.06859,4.97557 -0.137842,6.9792 z"
     fill="#ffffff"
     id="path99"
     style="stroke-width:0.787899" />
  <path
     d="m 122.4128,267.54258 h -6.90987 c 0.62166,-2.55674 1.03686,-5.11347 1.10542,-6.97921 h -0.48376 c -1.45053,4.6297 -4.90625,7.39364 -9.74316,7.39364 -5.59724,0 -7.325098,-3.9387 -7.325098,-8.63772 0,-3.86936 0.138722,-8.22329 -0.552302,-11.54035 2.07296,0.0692 4.00804,-0.20721 6.08098,-0.82886 v 9.60525 c 0,4.00804 1.51987,6.63332 5.04414,6.63332 4.62969,0 6.28821,-3.10906 6.28821,-7.39363 v -8.01608 c 2.14229,0.0692 4.35392,-0.20721 6.49544,-0.82886 -0.89821,5.87378 -0.89821,12.85296 0,20.5925 z"
     fill="#ffffff"
     id="path101"
     style="stroke-width:0.787899" />
  <defs
     id="defs134">
    <linearGradient
       id="paint0_linear_3048_100443"
       x1="227.40601"
       y1="290.703"
       x2="227.40601"
       y2="312.10699"
       gradientUnits="userSpaceOnUse">
      <stop
         stop-color="#29B2FF"
         id="stop105" />
      <stop
         offset="1"
         stop-color="#FF0099"
         id="stop107" />
    </linearGradient>
    <linearGradient
       id="paint1_linear_3048_100443"
       x1="180.974"
       y1="246"
       x2="180.974"
       y2="359.53699"
       gradientUnits="userSpaceOnUse">
      <stop
         stop-color="#29B2FF"
         id="stop110" />
      <stop
         offset="1"
         stop-color="#FF0099"
         id="stop112" />
    </linearGradient>
    <linearGradient
       id="paint2_linear_3048_100443"
       x1="215.064"
       y1="277.116"
       x2="215.064"
       y2="328.08099"
       gradientUnits="userSpaceOnUse">
      <stop
         stop-color="#29B2FF"
         id="stop115" />
      <stop
         offset="1"
         stop-color="#FF0099"
         id="stop117" />
    </linearGradient>
    <linearGradient
       id="paint3_linear_3048_100443"
       x1="186.244"
       y1="266.39801"
       x2="186.244"
       y2="338.64801"
       gradientUnits="userSpaceOnUse">
      <stop
         stop-color="#29B2FF"
         id="stop120" />
      <stop
         offset="1"
         stop-color="#FF0099"
         id="stop122" />
    </linearGradient>
    <clipPath
       id="clip0_3048_100443">
      <rect
         width="103.467"
         height="113.543"
         fill="#ffffff"
         transform="translate(128.266,246)"
         id="rect125"
         x="0"
         y="0" />
    </clipPath>
    <clipPath
       id="clip1_3048_100443">
      <rect
         width="103.464"
         height="113.54"
         fill="#ffffff"
         transform="translate(128,246)"
         id="rect128"
         x="0"
         y="0" />
    </clipPath>
    <clipPath
       id="clip2_3048_100443">
      <rect
         width="103.461"
         height="113.537"
         fill="#ffffff"
         transform="translate(128,246)"
         id="rect131"
         x="0"
         y="0" />
    </clipPath>
  </defs>
</svg>
