<svg width="360" height="800" viewBox="0 0 360 800" fill="none" xmlns="http://www.w3.org/2000/svg">
<g clip-path="url(#clip0_3016_104753)">
<rect width="360" height="800" fill="url(#paint0_radial_3016_104753)"/>
<g filter="url(#filter0_f_3016_104753)">
<path d="M158 755C223.024 755 277.034 705.033 313.605 635.173C350.673 564.363 373 467.926 373 362.5C373 257.074 350.673 160.637 313.605 89.827C277.034 19.9675 223.024 -30 158 -30C92.9765 -30 38.966 19.9675 2.39523 89.827C-34.6731 160.637 -57 257.074 -57 362.5C-57 467.926 -34.6731 564.363 2.39522 635.173C38.966 705.033 92.9765 755 158 755Z" stroke="#FF3880" stroke-opacity="0.4" stroke-width="40"/>
</g>
<g filter="url(#filter1_f_3016_104753)">
<path d="M161.5 44C105.511 44 57.2563 87.2077 23.5915 151.586C-10.3232 216.442 -31 305.346 -31 403C-31 500.653 -10.3233 589.558 23.5914 654.414C57.2562 718.792 105.51 762 161.5 762C217.489 762 265.744 718.792 299.409 654.414C333.323 589.558 354 500.653 354 403C354 305.347 333.323 216.442 299.409 151.586C265.744 87.2077 217.49 44 161.5 44Z" stroke="url(#paint1_linear_3016_104753)" stroke-opacity="0.4" stroke-width="20"/>
</g>
<g filter="url(#filter2_f_3016_104753)">
<path d="M61.5002 -359C-89.9085 -359 -225.253 -274.789 -322.002 -142.097C-418.764 -9.38667 -478 172.969 -478 373.5C-478 574.031 -418.764 756.387 -322.002 889.097C-225.253 1021.79 -89.9087 1106 61.5001 1106C212.909 1106 348.253 1021.79 445.003 889.097C541.764 756.387 601 574.031 601 373.5C601 172.969 541.764 -9.3866 445.003 -142.097C348.253 -274.789 212.909 -359 61.5002 -359Z" stroke="#FF3880" stroke-opacity="0.6" stroke-width="40"/>
</g>
<g filter="url(#filter3_f_3016_104753)">
<path d="M219 156C174.445 156 137.501 185.926 112.766 227.053C87.7955 268.571 73 324.638 73 385.5C73 446.362 87.7955 502.429 112.765 543.947C137.5 585.074 174.444 615 219 615C263.555 615 300.499 585.074 325.234 543.947C350.204 502.429 365 446.362 365 385.5C365 324.638 350.205 268.571 325.235 227.053C300.5 185.926 263.556 156 219 156Z" stroke="#FF3880" stroke-opacity="0.4" stroke-width="40"/>
</g>
<g filter="url(#filter4_f_3016_104753)">
<path d="M214.5 604C252.977 604 286.963 578.092 311.062 538.019C335.22 497.848 350 442.675 350 382C350 321.325 335.22 266.152 311.062 225.981C286.963 185.908 252.977 160 214.5 160C176.023 160 142.037 185.908 117.938 225.981C93.7798 266.152 79 321.325 79 382C79 442.675 93.7798 497.848 117.938 538.019C142.037 578.092 176.023 604 214.5 604Z" stroke="url(#paint2_linear_3016_104753)" stroke-opacity="0.4" stroke-width="10"/>
</g>
<g clip-path="url(#clip1_3016_104753)">
<g clip-path="url(#clip2_3016_104753)">
<g clip-path="url(#clip3_3016_104753)">
<path d="M227.284 322.107H227.038C224.826 321.861 223.352 320.141 223.352 317.929V316.7C223.352 314.734 223.597 312.768 223.597 310.802V308.099C223.597 307.116 223.597 305.887 223.352 304.904C223.352 302.693 224.826 300.972 227.038 300.727C229.25 300.481 230.97 302.201 231.216 304.413C231.216 305.642 231.216 306.625 231.461 307.853V309.082C231.461 309.574 231.461 310.311 231.461 310.802C231.461 313.014 231.461 314.98 231.216 317.192V318.666C230.97 320.632 229.25 322.107 227.284 322.107Z" fill="url(#paint3_linear_3016_104753)"/>
<path d="M178.625 369.537C168.795 369.537 160.193 360.69 155.033 344.962C154.295 342.996 155.524 340.784 157.49 340.047C159.456 339.309 161.668 340.538 162.405 342.504C166.337 354.3 172.481 361.673 178.625 361.673C188.455 361.673 199.268 341.521 199.268 312.768C199.268 284.016 188.455 263.864 178.625 263.864C172.481 263.864 166.337 271.237 162.405 283.278C161.668 285.244 159.456 286.473 157.49 285.736C155.524 284.999 154.295 282.787 155.033 280.821C160.193 265.093 168.795 256 178.625 256C194.598 256 207.132 280.821 207.132 312.768C207.132 344.716 194.598 369.537 178.625 369.537Z" fill="url(#paint4_linear_3016_104753)"/>
<path d="M213.766 338.081C213.52 338.081 213.275 338.081 212.783 338.081C210.571 337.589 209.343 335.623 209.834 333.411C211.309 326.53 212.292 318.912 212.292 311.294C212.292 304.659 211.8 298.023 210.571 291.88C210.08 289.668 211.554 287.702 213.766 287.21C215.978 286.719 217.944 288.193 218.435 290.405C219.664 297.04 220.401 303.921 220.401 311.294C220.401 319.649 219.664 327.759 217.944 335.132C217.207 336.852 215.486 338.081 213.766 338.081Z" fill="url(#paint5_linear_3016_104753)"/>
<path d="M183.54 348.648C183.049 348.648 182.557 348.648 182.066 348.402C180.1 347.665 179.117 345.453 179.854 343.241C183.295 334.394 185.015 323.827 185.015 312.522C185.015 301.218 183.295 290.651 179.854 281.804C179.117 279.838 180.1 277.626 182.066 276.643C184.032 275.906 186.244 276.889 187.227 278.855C190.913 288.685 192.879 300.235 192.879 312.277C192.879 324.564 190.913 336.114 187.227 345.699C186.489 347.665 185.015 348.648 183.54 348.648Z" fill="url(#paint6_linear_3016_104753)"/>
<path d="M141.762 352.826C138.322 352.826 136.11 352.334 135.864 352.334C134.635 352.088 133.407 351.105 132.915 349.877C132.424 348.648 132.669 347.173 133.161 346.19C136.847 340.784 137.584 337.097 137.83 335.377C131.686 329.233 128 320.878 128 312.768C128 299.743 136.601 287.947 150.363 281.804C156.507 279.1 163.388 277.626 170.269 277.626C172.481 277.626 174.201 279.346 174.201 281.558C174.201 283.77 172.481 285.49 170.515 285.49C164.617 285.49 158.719 286.719 153.804 288.93C142.745 293.845 136.11 302.692 136.11 312.522C136.11 319.158 139.059 325.793 144.465 330.462C144.957 330.954 145.448 331.691 145.694 332.428C145.94 333.411 146.677 337.589 143.237 344.962C147.169 344.716 152.084 343.733 154.787 339.801C155.77 338.572 157.244 337.835 158.719 338.326C161.176 338.818 168.057 340.292 170.761 340.292C172.972 340.292 174.693 342.013 174.693 344.224C174.693 346.436 172.972 348.156 170.761 348.156C167.812 348.156 162.651 347.173 159.456 346.682C154.05 351.843 146.677 352.826 141.762 352.826Z" fill="white"/>
</g>
</g>
</g>
<path d="M198.918 392.543C197.777 401.84 197.953 420.872 198.655 430.432H190.498C191.2 421.223 191.2 402.805 190.498 394.122C193.305 394.034 196.111 393.596 198.918 392.543Z" fill="white"/>
<path d="M203.391 417.451C203.391 409.032 209.355 404.033 220.493 404.033C225.404 404.033 230.053 404.997 234.087 407.015C233.473 408.769 233.473 412.628 234.087 414.382C231.105 411.488 226.72 409.383 221.721 409.383C214.704 409.383 210.845 412.189 210.845 417.451C210.845 422.714 214.704 425.52 221.721 425.52C226.72 425.52 231.017 423.942 234.087 421.31C233.473 423.152 233.473 426.222 234.087 427.976C230.053 429.993 225.404 431.046 220.493 431.046C209.355 430.958 203.391 425.871 203.391 417.451ZM238.209 430.432C239.262 422.889 239.262 404.033 238.209 394.21C241.367 394.034 245.05 393.42 247.067 392.543C246.19 396.227 245.752 410.523 245.576 414.119H246.19C248.12 408.33 252.768 404.033 258.82 404.033C266.187 404.033 268.73 409.032 268.73 414.996C268.73 419.819 268.467 426.046 269.432 430.519H261.275V419.206C261.275 414.119 259.346 409.909 254.347 409.909C248.909 409.909 246.541 414.733 246.541 420.083V430.344H238.209V430.432ZM296.796 430.432C296.094 428.414 295.831 426.485 295.743 424.555C293.112 428.502 289.692 431.133 283.114 431.133C276.185 431.133 272.852 428.064 272.852 424.029C272.852 419.381 277.588 416.399 287.324 416.399H295.568C295.305 412.101 293.901 409.295 287.06 409.295C281.535 409.295 276.448 411.312 273.642 413.943C273.992 412.101 273.992 408.769 273.642 407.19C277.238 405.524 281.886 404.033 288.113 404.033C297.409 404.033 302.847 407.102 302.847 415.697C302.935 421.749 303.198 426.222 304.426 430.344H296.796V430.432ZM295.655 423.415C295.568 421.924 295.655 420.521 295.655 419.206V418.416H291.621C284.605 418.416 280.921 419.556 280.921 422.451C280.921 424.731 282.938 426.046 286.885 426.046C290.305 426.046 293.287 424.994 295.655 423.415ZM317.757 418.153C317.669 423.766 320.388 425.345 323.808 425.345C326.176 425.433 328.808 424.643 331 424.029C330.649 425.783 330.562 427.625 330.912 429.379C328.369 430.169 325.036 430.87 321.704 430.87C316.178 430.782 311.004 428.765 311.004 421.486C311.004 419.732 311.004 414.733 310.828 409.383C308.372 409.47 306.092 409.646 303.9 409.821C304.075 408.418 304.075 406.05 303.9 404.734C306.004 404.91 308.285 405.085 310.653 405.173C310.477 402.279 310.39 399.56 310.127 397.455C313.284 397.104 315.915 396.666 318.283 395.525C318.195 398.683 318.108 402.016 318.02 405.261C322.493 405.261 326.966 405.085 330.912 404.734C330.737 406.664 330.737 407.892 330.912 409.821C326.966 409.47 322.405 409.295 317.932 409.295C317.932 412.54 317.845 415.61 317.757 418.153Z" fill="white"/>
<path d="M48.9432 430.432C48.2416 428.414 47.9785 426.485 47.8908 424.555C45.172 428.502 41.7515 431.133 35.2614 431.133C28.3328 431.133 25 428.064 25 424.029C25 419.381 29.736 416.399 39.4712 416.399H47.7154C47.4523 412.101 46.049 409.295 39.2081 409.295C33.6827 409.295 28.5959 411.312 25.7893 413.943C26.1402 412.101 26.1402 408.769 25.7893 407.19C29.3852 405.524 34.0335 404.033 40.2605 404.033C49.5572 404.033 54.9948 407.102 54.9948 415.697C55.0825 421.749 55.3456 426.222 56.5735 430.344H48.9432V430.432ZM47.8031 423.415C47.7154 421.924 47.8031 420.521 47.8031 419.206V418.416H43.7687C36.7524 418.416 33.0688 419.556 33.0688 422.451C33.0688 424.731 35.086 426.046 39.0327 426.046C42.3654 426.046 45.3474 424.994 47.8031 423.415Z" fill="white"/>
<path d="M177.869 430.432C177.167 428.414 176.904 426.485 176.817 424.555C174.185 428.502 170.765 431.133 164.187 431.133C157.259 431.133 153.926 428.064 153.926 424.029C153.926 419.381 158.662 416.399 168.397 416.399H176.641C176.378 412.101 174.975 409.295 168.134 409.295C162.608 409.295 157.522 411.312 154.715 413.943C155.066 412.101 155.066 408.769 154.715 407.19C158.311 405.524 162.959 404.033 169.186 404.033C178.483 404.033 183.921 407.102 183.921 415.697C184.008 421.749 184.271 426.222 185.499 430.344H177.869V430.432ZM176.729 423.415C176.641 421.924 176.729 420.521 176.729 419.206V418.416H172.694C165.678 418.416 161.995 419.556 161.995 422.451C161.995 424.731 164.012 426.046 167.958 426.046C171.291 426.046 174.273 424.994 176.729 423.415Z" fill="white"/>
<path d="M58.9414 417.451C58.9414 409.032 64.9053 404.033 76.0437 404.033C80.9552 404.033 85.6035 404.997 89.6379 407.015C89.0239 408.769 89.0239 412.628 89.6379 414.382C86.6559 411.488 82.2707 409.383 77.2716 409.383C70.2552 409.383 66.3963 412.189 66.3963 417.451C66.3963 422.714 70.2552 425.52 77.2716 425.52C82.2707 425.52 86.5682 423.942 89.6379 421.31C89.0239 423.152 89.0239 426.222 89.6379 427.976C85.6035 429.993 80.9552 431.046 76.0437 431.046C64.8176 430.958 58.9414 425.871 58.9414 417.451Z" fill="white"/>
<path d="M104.285 418.153C104.197 423.766 106.916 425.345 110.337 425.345C112.705 425.433 115.336 424.643 117.528 424.029C117.178 425.783 117.09 427.625 117.441 429.379C114.897 430.169 111.564 430.87 108.232 430.87C102.706 430.782 97.5318 428.765 97.5318 421.486C97.5318 419.732 97.5318 414.733 97.3564 409.383C94.9006 409.47 92.6203 409.646 90.4277 409.821C90.6031 408.418 90.6031 406.05 90.4277 404.734C92.5326 404.91 94.8129 405.085 97.181 405.173C97.0056 402.279 96.9178 399.56 96.6547 397.455C99.8121 397.104 102.443 396.666 104.811 395.525C104.724 398.683 104.636 402.015 104.548 405.261C109.021 405.261 113.494 405.085 117.441 404.734C117.265 406.664 117.265 407.892 117.441 409.821C113.494 409.47 108.933 409.295 104.46 409.295C104.46 412.54 104.373 415.61 104.285 418.153Z" fill="white"/>
<path d="M149.978 430.432H141.208C141.997 427.187 142.524 423.942 142.611 421.574H141.997C140.156 427.45 135.77 430.958 129.631 430.958C122.527 430.958 120.334 425.959 120.334 419.995C120.334 415.084 120.51 409.558 119.633 405.348C122.264 405.436 124.72 405.085 127.351 404.296V416.487C127.351 421.574 129.28 424.906 133.753 424.906C139.629 424.906 141.734 420.96 141.734 415.522V405.348C144.453 405.436 147.26 405.085 149.978 404.296C148.838 411.751 148.838 420.609 149.978 430.432Z" fill="white"/>
<path d="M29.977 460.301C30.355 460.301 30.586 460.238 30.817 460.154V459.188C30.586 459.251 30.376 459.293 30.124 459.293C29.053 459.293 28.318 458.6 28.318 457.235V450.725H30.817V449.717H28.318V446.882H27.394V448.541C27.394 449.318 26.995 449.717 26.218 449.717H25.294V450.725H27.268V457.214C27.268 459.146 28.423 460.301 29.977 460.301ZM34.2305 460.133V454.043C34.2305 451.901 35.6585 450.557 37.5275 450.557C39.3545 450.557 40.6985 451.901 40.6985 454.043V460.133H41.7485V454.043C41.7485 451.334 39.9635 449.549 37.6115 449.549C35.9525 449.549 34.8395 450.536 34.3355 451.418H34.2305V445.433H33.1805V460.133H34.2305ZM53.5644 454.568C53.5644 451.733 51.5274 449.549 48.9444 449.549C46.2774 449.549 44.0934 451.796 44.0934 454.925C44.0934 458.117 46.2354 460.301 48.9444 460.301C51.0234 460.301 52.5354 458.957 53.1654 457.487H52.0944C51.3804 458.642 50.3514 459.293 48.9654 459.293C46.9284 459.293 45.3744 457.781 45.1644 455.471H53.4804C53.5434 455.219 53.5644 454.925 53.5644 454.568ZM48.9444 450.557C50.8764 450.557 52.4304 452.174 52.5144 454.484H45.1644C45.3534 452.153 47.0334 450.557 48.9444 450.557ZM63.6918 446.273C63.9438 446.273 64.1538 446.315 64.3848 446.378V445.412C64.1538 445.328 63.9228 445.265 63.5448 445.265C61.9908 445.265 60.8358 446.42 60.8358 448.352V449.717H59.2608V450.725H60.8358V460.133H61.8858V450.725H64.3848V449.717H61.8858V448.331C61.8858 446.945 62.6208 446.273 63.6918 446.273ZM70.2071 460.301C72.1181 460.301 73.1471 459.02 73.4831 458.432H73.5881L73.8401 460.133H74.6381V449.717H73.5881V455.807C73.5881 457.949 72.1811 459.293 70.2911 459.293C68.4641 459.293 67.1201 457.949 67.1201 455.807V449.717H66.0701V455.807C66.0701 458.516 67.8551 460.301 70.2071 460.301ZM81.1645 460.301C81.5425 460.301 81.7735 460.238 82.0045 460.154V459.188C81.7735 459.251 81.5635 459.293 81.3115 459.293C80.2405 459.293 79.5055 458.6 79.5055 457.235V450.725H82.0045V449.717H79.5055V446.882H78.5815V448.541C78.5815 449.318 78.1825 449.717 77.4055 449.717H76.4815V450.725H78.4555V457.214C78.4555 459.146 79.6105 460.301 81.1645 460.301ZM88.0899 460.301C90.0009 460.301 91.0299 459.02 91.3659 458.432H91.4709L91.7229 460.133H92.5209V449.717H91.4709V455.807C91.4709 457.949 90.0639 459.293 88.1739 459.293C86.3469 459.293 85.0029 457.949 85.0029 455.807V449.717H83.9529V455.807C83.9529 458.516 85.7379 460.301 88.0899 460.301ZM96.6743 460.133V454.085C96.6743 451.943 98.1023 450.599 99.8243 450.599C100.055 450.599 100.307 450.62 100.538 450.683V449.633C100.328 449.57 100.055 449.549 99.8033 449.549C98.4173 449.549 97.3043 450.515 96.7793 451.418H96.6743L96.4223 449.717H95.6243V460.133H96.6743ZM110.679 454.568C110.679 451.733 108.642 449.549 106.059 449.549C103.392 449.549 101.208 451.796 101.208 454.925C101.208 458.117 103.35 460.301 106.059 460.301C108.138 460.301 109.65 458.957 110.28 457.487H109.209C108.495 458.642 107.466 459.293 106.08 459.293C104.043 459.293 102.489 457.781 102.279 455.471H110.595C110.658 455.219 110.679 454.925 110.679 454.568ZM106.059 450.557C107.991 450.557 109.545 452.174 109.629 454.484H102.279C102.468 452.153 104.148 450.557 106.059 450.557ZM122.219 460.301C124.886 460.301 127.07 458.054 127.07 454.925C127.07 451.796 124.886 449.549 122.219 449.549C119.552 449.549 117.368 451.796 117.368 454.925C117.368 458.054 119.552 460.301 122.219 460.301ZM122.219 459.293C120.182 459.293 118.418 457.508 118.418 454.925C118.418 452.342 120.182 450.557 122.219 450.557C124.256 450.557 126.02 452.342 126.02 454.925C126.02 457.508 124.256 459.293 122.219 459.293ZM132.742 446.273C132.994 446.273 133.204 446.315 133.435 446.378V445.412C133.204 445.328 132.973 445.265 132.595 445.265C131.041 445.265 129.886 446.42 129.886 448.352V449.717H128.311V450.725H129.886V460.133H130.936V450.725H133.435V449.717H130.936V448.331C130.936 446.945 131.671 446.273 132.742 446.273ZM143.607 460.301C145.392 460.301 146.736 459.104 147.24 458.201H147.345L147.618 460.133H148.395V445.433H147.345V451.649H147.24C146.736 450.725 145.392 449.549 143.607 449.549C141.024 449.549 138.819 451.775 138.819 454.925C138.819 458.075 141.024 460.301 143.607 460.301ZM143.607 459.293C141.612 459.293 139.869 457.508 139.869 454.925C139.869 452.342 141.612 450.557 143.607 450.557C145.623 450.557 147.345 452.342 147.345 454.925C147.345 457.508 145.623 459.293 143.607 459.293ZM152.156 447.953C152.597 447.953 152.954 447.617 152.954 447.176C152.954 446.714 152.597 446.378 152.156 446.378C151.736 446.378 151.379 446.714 151.379 447.176C151.379 447.617 151.736 447.953 152.156 447.953ZM152.681 460.133V449.717H151.631V460.133H152.681ZM160.036 464.123C162.703 464.123 164.467 462.401 164.467 459.839V449.717H163.669L163.417 451.565H163.312C162.892 450.746 161.59 449.549 159.826 449.549C157.285 449.549 155.164 451.691 155.164 454.673C155.164 457.634 157.285 459.776 159.826 459.776C161.653 459.776 162.892 458.474 163.312 457.76H163.417V459.839C163.417 461.834 162.094 463.115 160.036 463.115C158.314 463.115 157.138 462.296 156.676 460.994H155.626C156.088 462.842 157.768 464.123 160.036 464.123ZM159.826 458.789C157.894 458.789 156.214 457.067 156.214 454.673C156.214 452.279 157.894 450.557 159.826 450.557C161.737 450.557 163.417 452.3 163.417 454.673C163.417 457.046 161.737 458.789 159.826 458.789ZM168.091 447.953C168.532 447.953 168.889 447.617 168.889 447.176C168.889 446.714 168.532 446.378 168.091 446.378C167.671 446.378 167.314 446.714 167.314 447.176C167.314 447.617 167.671 447.953 168.091 447.953ZM168.616 460.133V449.717H167.566V460.133H168.616ZM175.172 460.301C175.55 460.301 175.781 460.238 176.012 460.154V459.188C175.781 459.251 175.571 459.293 175.319 459.293C174.248 459.293 173.513 458.6 173.513 457.235V450.725H176.012V449.717H173.513V446.882H172.589V448.541C172.589 449.318 172.19 449.717 171.413 449.717H170.489V450.725H172.463V457.214C172.463 459.146 173.618 460.301 175.172 460.301ZM181.615 449.549C179.515 449.549 178.108 450.977 177.835 452.636H178.885C179.179 451.439 180.04 450.557 181.615 450.557C183.253 450.557 184.366 451.67 184.366 453.392V454.022H182.14C179.074 454.022 177.394 455.408 177.394 457.256C177.394 458.936 178.675 460.301 180.796 460.301C182.602 460.301 183.757 459.356 184.261 458.432H184.366L184.618 460.133H185.416V453.392C185.416 451.103 183.841 449.549 181.615 449.549ZM180.88 459.293C179.305 459.293 178.444 458.432 178.444 457.256C178.444 455.912 179.683 455.009 182.266 455.009H184.366V456.017C184.366 457.928 182.98 459.293 180.88 459.293ZM189.598 460.133V445.433H188.548V460.133H189.598ZM201.912 460.301C204.222 460.301 205.923 458.516 206.364 456.542H205.314C204.852 458.096 203.676 459.293 201.912 459.293C199.875 459.293 198.111 457.508 198.111 454.925C198.111 452.342 199.875 450.557 201.912 450.557C203.676 450.557 204.852 451.754 205.314 453.308H206.364C205.986 451.355 204.243 449.549 201.912 449.549C199.245 449.549 197.061 451.796 197.061 454.925C197.061 458.054 199.245 460.301 201.912 460.301ZM212.925 460.301C215.592 460.301 217.776 458.054 217.776 454.925C217.776 451.796 215.592 449.549 212.925 449.549C210.258 449.549 208.074 451.796 208.074 454.925C208.074 458.054 210.258 460.301 212.925 460.301ZM212.925 459.293C210.888 459.293 209.124 457.508 209.124 454.925C209.124 452.342 210.888 450.557 212.925 450.557C214.962 450.557 216.726 452.342 216.726 454.925C216.726 457.508 214.962 459.293 212.925 459.293ZM230.394 449.549C228.567 449.549 227.58 450.893 227.202 451.796C226.866 450.977 225.9 449.549 224.115 449.549C222.582 449.549 221.721 450.662 221.385 451.334H221.28L221.028 449.717H220.23V460.133H221.28V453.749C221.28 451.796 222.519 450.557 223.926 450.557C225.417 450.557 226.509 451.712 226.509 453.749V460.133H227.559V453.749C227.559 451.775 228.777 450.557 230.205 450.557C231.696 450.557 232.788 451.712 232.788 453.749V460.133H233.838V453.749C233.838 451.166 232.263 449.549 230.394 449.549ZM247.026 449.549C245.199 449.549 244.212 450.893 243.834 451.796C243.498 450.977 242.532 449.549 240.747 449.549C239.214 449.549 238.353 450.662 238.017 451.334H237.912L237.66 449.717H236.862V460.133H237.912V453.749C237.912 451.796 239.151 450.557 240.558 450.557C242.049 450.557 243.141 451.712 243.141 453.749V460.133H244.191V453.749C244.191 451.775 245.409 450.557 246.837 450.557C248.328 450.557 249.42 451.712 249.42 453.749V460.133H250.47V453.749C250.47 451.166 248.895 449.549 247.026 449.549ZM257.525 460.301C259.436 460.301 260.465 459.02 260.801 458.432H260.906L261.158 460.133H261.956V449.717H260.906V455.807C260.906 457.949 259.499 459.293 257.609 459.293C255.782 459.293 254.438 457.949 254.438 455.807V449.717H253.388V455.807C253.388 458.516 255.173 460.301 257.525 460.301ZM266.11 460.133V454.043C266.11 451.901 267.538 450.557 269.407 450.557C271.234 450.557 272.578 451.901 272.578 454.043V460.133H273.628V454.043C273.628 451.334 271.843 449.549 269.491 449.549C267.832 449.549 266.719 450.536 266.215 451.418H266.11L265.858 449.717H265.06V460.133H266.11ZM277.151 447.953C277.592 447.953 277.949 447.617 277.949 447.176C277.949 446.714 277.592 446.378 277.151 446.378C276.731 446.378 276.374 446.714 276.374 447.176C276.374 447.617 276.731 447.953 277.151 447.953ZM277.676 460.133V449.717H276.626V460.133H277.676ZM285.01 460.301C287.32 460.301 289.021 458.516 289.462 456.542H288.412C287.95 458.096 286.774 459.293 285.01 459.293C282.973 459.293 281.209 457.508 281.209 454.925C281.209 452.342 282.973 450.557 285.01 450.557C286.774 450.557 287.95 451.754 288.412 453.308H289.462C289.084 451.355 287.341 449.549 285.01 449.549C282.343 449.549 280.159 451.796 280.159 454.925C280.159 458.054 282.343 460.301 285.01 460.301ZM295.372 449.549C293.272 449.549 291.865 450.977 291.592 452.636H292.642C292.936 451.439 293.797 450.557 295.372 450.557C297.01 450.557 298.123 451.67 298.123 453.392V454.022H295.897C292.831 454.022 291.151 455.408 291.151 457.256C291.151 458.936 292.432 460.301 294.553 460.301C296.359 460.301 297.514 459.356 298.018 458.432H298.123L298.375 460.133H299.173V453.392C299.173 451.103 297.598 449.549 295.372 449.549ZM294.637 459.293C293.062 459.293 292.201 458.432 292.201 457.256C292.201 455.912 293.44 455.009 296.023 455.009H298.123V456.017C298.123 457.928 296.737 459.293 294.637 459.293ZM305.417 460.301C305.795 460.301 306.026 460.238 306.257 460.154V459.188C306.026 459.251 305.816 459.293 305.564 459.293C304.493 459.293 303.758 458.6 303.758 457.235V450.725H306.257V449.717H303.758V446.882H302.834V448.541C302.834 449.318 302.435 449.717 301.658 449.717H300.734V450.725H302.708V457.214C302.708 459.146 303.863 460.301 305.417 460.301ZM309.041 447.953C309.482 447.953 309.839 447.617 309.839 447.176C309.839 446.714 309.482 446.378 309.041 446.378C308.621 446.378 308.264 446.714 308.264 447.176C308.264 447.617 308.621 447.953 309.041 447.953ZM309.566 460.133V449.717H308.516V460.133H309.566ZM316.9 460.301C319.567 460.301 321.751 458.054 321.751 454.925C321.751 451.796 319.567 449.549 316.9 449.549C314.233 449.549 312.049 451.796 312.049 454.925C312.049 458.054 314.233 460.301 316.9 460.301ZM316.9 459.293C314.863 459.293 313.099 457.508 313.099 454.925C313.099 452.342 314.863 450.557 316.9 450.557C318.937 450.557 320.701 452.342 320.701 454.925C320.701 457.508 318.937 459.293 316.9 459.293ZM325.254 460.133V454.043C325.254 451.901 326.682 450.557 328.551 450.557C330.378 450.557 331.722 451.901 331.722 454.043V460.133H332.772V454.043C332.772 451.334 330.987 449.549 328.635 449.549C326.976 449.549 325.863 450.536 325.359 451.418H325.254L325.002 449.717H324.204V460.133H325.254Z" fill="white"/>
</g>
<defs>
<filter id="filter0_f_3016_104753" x="-157" y="-130" width="630" height="985" filterUnits="userSpaceOnUse" color-interpolation-filters="sRGB">
<feFlood flood-opacity="0" result="BackgroundImageFix"/>
<feBlend mode="normal" in="SourceGraphic" in2="BackgroundImageFix" result="shape"/>
<feGaussianBlur stdDeviation="40" result="effect1_foregroundBlur_3016_104753"/>
</filter>
<filter id="filter1_f_3016_104753" x="-61" y="14" width="445" height="778" filterUnits="userSpaceOnUse" color-interpolation-filters="sRGB">
<feFlood flood-opacity="0" result="BackgroundImageFix"/>
<feBlend mode="normal" in="SourceGraphic" in2="BackgroundImageFix" result="shape"/>
<feGaussianBlur stdDeviation="10" result="effect1_foregroundBlur_3016_104753"/>
</filter>
<filter id="filter2_f_3016_104753" x="-578" y="-459" width="1279" height="1665" filterUnits="userSpaceOnUse" color-interpolation-filters="sRGB">
<feFlood flood-opacity="0" result="BackgroundImageFix"/>
<feBlend mode="normal" in="SourceGraphic" in2="BackgroundImageFix" result="shape"/>
<feGaussianBlur stdDeviation="40" result="effect1_foregroundBlur_3016_104753"/>
</filter>
<filter id="filter3_f_3016_104753" x="-7" y="76" width="452" height="619" filterUnits="userSpaceOnUse" color-interpolation-filters="sRGB">
<feFlood flood-opacity="0" result="BackgroundImageFix"/>
<feBlend mode="normal" in="SourceGraphic" in2="BackgroundImageFix" result="shape"/>
<feGaussianBlur stdDeviation="30" result="effect1_foregroundBlur_3016_104753"/>
</filter>
<filter id="filter4_f_3016_104753" x="54" y="135" width="321" height="494" filterUnits="userSpaceOnUse" color-interpolation-filters="sRGB">
<feFlood flood-opacity="0" result="BackgroundImageFix"/>
<feBlend mode="normal" in="SourceGraphic" in2="BackgroundImageFix" result="shape"/>
<feGaussianBlur stdDeviation="10" result="effect1_foregroundBlur_3016_104753"/>
</filter>
<radialGradient id="paint0_radial_3016_104753" cx="0" cy="0" r="1" gradientUnits="userSpaceOnUse" gradientTransform="translate(186.875 946.667) rotate(-90.0702) scale(714.223 321.406)">
<stop stop-color="#FF3880"/>
<stop offset="1" stop-color="#0036A3"/>
</radialGradient>
<linearGradient id="paint1_linear_3016_104753" x1="360.5" y1="365.5" x2="-114.442" y2="425.458" gradientUnits="userSpaceOnUse">
<stop stop-color="#FF3880"/>
<stop offset="1" stop-color="#FF3880" stop-opacity="0"/>
</linearGradient>
<linearGradient id="paint2_linear_3016_104753" x1="324" y1="234.5" x2="166" y2="581.5" gradientUnits="userSpaceOnUse">
<stop stop-color="#FF3880" stop-opacity="0"/>
<stop offset="0.65625" stop-color="#FF3880"/>
</linearGradient>
<linearGradient id="paint3_linear_3016_104753" x1="227.406" y1="300.703" x2="227.406" y2="322.107" gradientUnits="userSpaceOnUse">
<stop stop-color="#29B2FF"/>
<stop offset="1" stop-color="#FF0099"/>
</linearGradient>
<linearGradient id="paint4_linear_3016_104753" x1="180.974" y1="256" x2="180.974" y2="369.537" gradientUnits="userSpaceOnUse">
<stop stop-color="#29B2FF"/>
<stop offset="1" stop-color="#FF0099"/>
</linearGradient>
<linearGradient id="paint5_linear_3016_104753" x1="215.064" y1="287.116" x2="215.064" y2="338.081" gradientUnits="userSpaceOnUse">
<stop stop-color="#29B2FF"/>
<stop offset="1" stop-color="#FF0099"/>
</linearGradient>
<linearGradient id="paint6_linear_3016_104753" x1="186.244" y1="276.398" x2="186.244" y2="348.648" gradientUnits="userSpaceOnUse">
<stop stop-color="#29B2FF"/>
<stop offset="1" stop-color="#FF0099"/>
</linearGradient>
<clipPath id="clip0_3016_104753">
<rect width="360" height="800" fill="white"/>
</clipPath>
<clipPath id="clip1_3016_104753">
<rect width="103.467" height="113.543" fill="white" transform="translate(128.266 256)"/>
</clipPath>
<clipPath id="clip2_3016_104753">
<rect width="103.464" height="113.54" fill="white" transform="translate(128 256)"/>
</clipPath>
<clipPath id="clip3_3016_104753">
<rect width="103.461" height="113.537" fill="white" transform="translate(128 256)"/>
</clipPath>
</defs>
</svg>
