<svg width="40" height="40" viewBox="0 0 40 40" fill="none" xmlns="http://www.w3.org/2000/svg">
    <path d="M20 40C31.0457 40 40 31.0457 40 20C40 8.9543 31.0457 0 20 0C8.9543 0 0 8.9543 0 20C0 31.0457 8.9543 40 20 40Z" fill="#BEB4FF"/>
    <mask id="mask0_11656_293075" style="mask-type:alpha" maskUnits="userSpaceOnUse" x="0" y="0" width="40" height="40">
        <path d="M20 40C31.0457 40 40 31.0457 40 20C40 8.9543 31.0457 0 20 0C8.9543 0 0 8.9543 0 20C0 31.0457 8.9543 40 20 40Z" fill="#BBBEFF"/>
    </mask>
    <g mask="url(#mask0_11656_293075)">
        <circle cx="10" cy="14" r="8" fill="#FFBFBB"/>
        <path d="M2.5 8.5L4.5 10L3.5 13H1.5L0 11.5V9L2.5 8.5Z" fill="#FFBFBB"/>
        <path d="M16 5.5L14 7L15 10H17L18.5 8.5V6L16 5.5Z" fill="#FFBFBB"/>
        <path d="M13.7021 8.33935C14.2587 6.11312 15.3718 5 18.1546 5C18.1546 5 19.3383 7.65722 18.1552 9.45251" stroke="#5A5D9A" stroke-width="1.6" stroke-miterlimit="10" stroke-linecap="square" stroke-linejoin="round"/>
        <path d="M6.46706 11.1221C4.70291 8.08595 2.01449 8.33936 -0.768478 8.89583C-0.768478 8.89583 -0.768146 12.2354 1.16311 13.1059" stroke="#5A5D9A" stroke-width="1.6" stroke-miterlimit="10" stroke-linecap="square" stroke-linejoin="round"/>
        <ellipse cx="12.2003" cy="18.2289" rx="4.5" ry="3" transform="rotate(-17.7465 12.2003 18.2289)" fill="white"/>
        <path d="M4.02266 8.89598C4.60996 8.23654 5.31355 7.66018 6.12455 7.19974C8.82602 5.666 11.4761 5.55656 13.7024 6.66974M2.57121 11.6788C2.11126 12.6418 2.00526 12.84 1.93921 13.905C1.84294 15.4572 2.18271 17.0524 3.0099 18.5C5.2751 22.4641 10.3461 23.8799 14.3102 21.6147C14.9794 21.2285 15.5457 20.7909 16.0605 20.3019C18.6604 17.7278 19.3296 13.635 17.4248 10.3144C17.0791 9.70551 17.0417 9.45246 16.4852 8.89591" stroke="#5A5D9A" stroke-width="1.6" stroke-miterlimit="10" stroke-linecap="round" stroke-linejoin="round"/>
        <path d="M8.13672 6.11311C8.8788 7.04071 10.363 8.8959 10.9195 12.2353" stroke="#5A5D9A" stroke-width="1.6"/>
        <path d="M13.0546 17.2443C12.498 15.3891 12.6093 11.6787 17.507 11.6787" stroke="#5A5D9A" stroke-width="1.6"/>
        <path d="M9.90613 14.3772C9.61197 15.4146 8.44896 17.1228 6.15016 15.6566" stroke="#5A5D9A" stroke-width="1.6"/>
        <path d="M2.60136 22.9354C2.71497 20.8551 4.20836 17.1615 9.27306 19.03" stroke="#5A5D9A" stroke-width="1.6"/>
        <path d="M38.0005 8.5L36.0005 10L37.0005 13H39.0005L40.5005 11.5V9L38.0005 8.5Z" fill="#BBBEFF"/>
        <path d="M24.5005 5.5L26.5005 7L25.5005 10H23.5005L22.0005 8.5V6L24.5005 5.5Z" fill="#BBBEFF"/>
        <circle cx="8" cy="8" r="8" transform="matrix(-1 0 0 1 38.5005 6)" fill="#BBBEFF"/>
        <path d="M26.5684 8.27796C26.022 6.09266 24.9294 5 22.1978 5C22.1978 5 21.0358 7.60837 22.1972 9.37066" stroke="#5A5D9A" stroke-width="1.6" stroke-miterlimit="10" stroke-linecap="square" stroke-linejoin="round"/>
        <path d="M33.6709 11.0096C35.4027 8.02922 38.0417 8.27797 40.7735 8.82421C40.7735 8.82421 40.7731 12.1024 38.8774 12.9568" stroke="#5A5D9A" stroke-width="1.6" stroke-miterlimit="10" stroke-linecap="square" stroke-linejoin="round"/>
        <ellipse cx="4.5" cy="3" rx="4.5" ry="3" transform="matrix(-0.952414 -0.304807 -0.304807 0.952414 33.4009 16.7433)" fill="white"/>
        <path d="M36.0701 8.82435C35.4936 8.17705 34.803 7.61128 34.0069 7.1593C31.3551 5.65376 28.7537 5.54633 26.5684 6.63904M37.4949 11.556C37.9464 12.5013 38.0504 12.6959 38.1153 13.7413C38.2098 15.265 37.8763 16.8309 37.0643 18.2518C34.8407 22.143 29.863 23.5328 25.9718 21.3092C25.3148 20.9302 24.7589 20.5006 24.2536 20.0206C21.7015 17.4938 21.0446 13.4762 22.9144 10.2167C23.2537 9.61901 23.2904 9.37061 23.8367 8.82429" stroke="#5A5D9A" stroke-width="1.6" stroke-miterlimit="10" stroke-linecap="round" stroke-linejoin="round"/>
        <path d="M32.0317 6.09265C31.3033 7.00319 29.8464 8.82428 29.3001 12.1022" stroke="#5A5D9A" stroke-width="1.6"/>
        <path d="M27.2045 17.0192C27.7509 15.1981 27.6416 11.5559 22.8339 11.5559" stroke="#5A5D9A" stroke-width="1.6"/>
        <path d="M33.9474 16.2713C33.5288 15.2991 32.1792 13.7847 30.1286 15.5047" stroke="#5A5D9A" stroke-width="1.6"/>
        <path d="M37.781 22.6057C37.6695 20.5636 36.2035 16.938 31.2319 18.7721" stroke="#5A5D9A" stroke-width="1.6"/>
        <circle cx="11.5757" cy="29.9394" r="6.06061" fill="#BBBEFF"/>
        <path d="M5.89403 25.7727L7.40918 26.9091L6.6516 29.1818H5.13645L4.00009 28.0455V26.1515L5.89403 25.7727Z" fill="#BBBEFF"/>
        <path d="M16.1211 23.5L14.606 24.6364L15.3635 26.9091H16.8787L18.015 25.7727V23.8788L16.1211 23.5Z" fill="#BBBEFF"/>
        <path d="M14.4141 25.5285C14.8355 23.8428 15.6783 23 17.7853 23C17.7853 23 18.5915 25.0544 17.7853 26.8979" stroke="#5A5D9A" stroke-width="1.6" stroke-miterlimit="10" stroke-linecap="square" stroke-linejoin="round"/>
        <ellipse cx="14.0901" cy="32.546" rx="3.53928" ry="2.35952" transform="rotate(-17.7465 14.0901 32.546)" fill="white"/>
        <path d="M8.93603 27.6355C7.60027 25.3366 5.56467 25.5285 3.45749 25.9498C3.45749 25.9498 3.45774 28.4784 4.92003 29.1375" stroke="#5A5D9A" stroke-width="1.6" stroke-miterlimit="10" stroke-linecap="square" stroke-linejoin="round"/>
        <path d="M17.2329 27.0239C18.6752 29.5382 18.1684 32.6371 16.1999 34.5861C15.8101 34.9564 15.3813 35.2878 14.8746 35.5801C11.873 37.2953 8.03346 36.2233 6.31831 33.2218C5.69199 32.1257 5.43473 30.9179 5.50762 29.7426C6.26315 27.8064 5.36449 29.6364 5.71275 28.9072M7.08515 25.9499C7.52984 25.4506 8.06257 25.0142 8.67664 24.6656C10.7221 23.5043 12.7287 23.4214 14.4144 24.2643" stroke="#5A5D9A" stroke-width="1.6" stroke-miterlimit="10" stroke-linecap="round" stroke-linejoin="round"/>
        <path d="M13.9239 32.271C13.5025 30.8663 13.5868 28.0569 17.2952 28.0569" stroke="#5A5D9A" stroke-width="1.6"/>
        <path d="M8.71817 31.6995C9.23508 31.1088 10.3359 30.008 11.9869 30.5586" stroke="#5A5D9A" stroke-width="1.6"/>
        <path d="M6.00893 36.5802C6.09495 35.005 7.2257 32.2083 11.0606 33.6231" stroke="#5A5D9A" stroke-width="1.6"/>
        <circle cx="6.06061" cy="6.06061" r="6.06061" transform="matrix(-1 0 0 1 34.6802 23.8788)" fill="#FFBFBB"/>
        <path d="M34.3013 25.7727L32.7861 26.9091L33.5437 29.1818H35.0589L36.1952 28.0455V26.1515L34.3013 25.7727Z" fill="#FFBFBB"/>
        <path d="M24.0742 23.5L25.5894 24.6364L24.8318 26.9091H23.3166L22.1803 25.7727V23.8788L24.0742 23.5Z" fill="#FFBFBB"/>
        <ellipse cx="3.53928" cy="2.35952" rx="3.53928" ry="2.35952" transform="matrix(-0.952414 -0.304807 -0.304807 0.952414 31.397 31.3776)" fill="white"/>
        <path d="M26.0903 25.5285C25.6689 23.8428 24.8261 23 22.7191 23C22.7191 23 21.9129 25.0544 22.7191 26.8979" stroke="#5A5D9A" stroke-width="1.6" stroke-miterlimit="10" stroke-linecap="square" stroke-linejoin="round"/>
        <path d="M31.5684 27.6355C32.9041 25.3366 34.9397 25.5285 37.0469 25.9498C37.0469 25.9498 37.0467 28.4784 35.5844 29.1375" stroke="#5A5D9A" stroke-width="1.6" stroke-miterlimit="10" stroke-linecap="square" stroke-linejoin="round"/>
        <path d="M23.2715 27.0239C21.8292 29.5382 22.336 32.6371 24.3045 34.5861C24.6943 34.9564 25.1231 35.2878 25.6298 35.5801C28.6313 37.2953 32.4709 36.2233 34.1861 33.2218C34.8124 32.1257 35.0697 30.9179 34.9968 29.7426C34.2412 27.8064 35.1399 29.6364 34.7916 28.9072M33.4192 25.9499C32.9746 25.4506 32.4418 25.0142 31.8278 24.6656C29.7823 23.5043 27.7757 23.4214 26.09 24.2643" stroke="#5A5D9A" stroke-width="1.6" stroke-miterlimit="10" stroke-linecap="round" stroke-linejoin="round"/>
        <path d="M26.5805 32.271C27.0019 30.8663 26.9176 28.0569 23.2092 28.0569" stroke="#5A5D9A" stroke-width="1.6"/>
        <path d="M28.4444 29.8435C29.0539 30.3381 30.3251 31.2367 31.8591 30.4145" stroke="#5A5D9A" stroke-width="1.6"/>
        <path d="M34.4955 36.5802C34.4094 35.005 33.2787 32.2083 29.4438 33.6231" stroke="#5A5D9A" stroke-width="1.6"/>
        <path d="M23.8379 32.1854C22.7893 30.4735 19.8242 28.0438 16.352 32.0204" stroke="#5A5D9A" stroke-width="1.6"/>
        <path d="M16.5126 16.158C16.7629 15.8862 17.045 15.6348 17.3872 15.3996C19.4157 14.0168 22.302 14.2876 23.8164 15.984" stroke="#5A5D9A" stroke-width="1.6" stroke-miterlimit="10" stroke-linecap="square" stroke-linejoin="round"/>
    </g>
</svg>
