<svg width="40" height="40" viewBox="0 0 40 40" fill="none" xmlns="http://www.w3.org/2000/svg">
    <path d="M20 40C31.0457 40 40 31.0457 40 20C40 8.9543 31.0457 0 20 0C8.95431 0 0 8.9543 0 20C0 31.0457 8.95431 40 20 40Z" fill="url(#paint0_linear_11650_289492)"/>
    <path fill-rule="evenodd" clip-rule="evenodd" d="M19.9831 15.3229L14.3661 20.9399L14.1021 23.8959L17.0791 23.6249L22.6791 18.0189L19.9831 15.3229ZM25.9661 14.7289L23.2711 12.0349L21.3231 13.9829L24.0181 16.6789L25.9661 14.7289ZM13.0911 25.9959C13.0601 25.9989 13.0301 25.9999 13.0001 25.9999C12.7361 25.9999 12.4811 25.8959 12.2931 25.7069C12.0831 25.4969 11.9771 25.2049 12.0041 24.9099L12.3831 20.7389C12.4251 20.2819 12.6271 19.8509 12.9521 19.5259L21.9481 10.5289C22.6501 9.82491 23.9241 9.85991 24.6641 10.5989L27.4021 13.3369H27.4031C28.1691 14.1039 28.1991 15.3209 27.4711 16.0509L18.4741 25.0479C18.1491 25.3739 17.7191 25.5749 17.2611 25.6169L13.0911 25.9959ZM13 28H27C27.55 28 28 28.45 28 29C28 29.55 27.55 30 27 30H13C12.45 30 12 29.55 12 29C12 28.45 12.45 28 13 28Z" fill="#FAFAFA"/>
    <defs>
        <linearGradient id="paint0_linear_11650_289492" x1="20" y1="0" x2="20" y2="40" gradientUnits="userSpaceOnUse">
            <stop stop-color="#8388FF"/>
            <stop offset="1" stop-color="#6E73D2"/>
        </linearGradient>
    </defs>
</svg>
