<svg viewBox="3.06 2.25 12 13.2" xmlns="http://www.w3.org/2000/svg">
    <path fill-rule="evenodd" clip-rule="evenodd" d="M9.06327 3.44727C9.06301 3.44727 9.06276 3.44727 9.0625 3.44727C5.7487 3.44727 3.0625 6.13347 3.0625 9.44727C3.0625 12.7611 5.7487 15.4473 9.0625 15.4473C12.3757 15.4473 15.0625 12.7611 15.0625 9.44727C15.0625 9.03688 15.0213 8.63612 14.9428 8.2489H13.7069C13.8057 8.63213 13.8584 9.03375 13.8584 9.44742C13.8584 12.094 11.705 14.2474 9.05836 14.2474C6.41176 14.2474 4.25836 12.094 4.25836 9.44742C4.25836 6.80082 6.41176 4.64742 9.05836 4.64742C9.05999 4.64742 9.06163 4.64742 9.06327 4.64742V3.44727ZM6.06747 7.89113C6.06747 7.42745 6.44379 7.05113 6.90747 7.05113C7.37115 7.05113 7.74747 7.42745 7.74747 7.89113C7.74747 8.35481 7.37115 8.73113 6.90747 8.73113C6.44379 8.73113 6.06747 8.35481 6.06747 7.89113ZM6.05433 9.56856H12.0543C12.3194 9.56856 12.5343 9.78346 12.5343 10.0486C12.5343 11.9705 10.9763 13.5286 9.05433 13.5286C7.13237 13.5286 5.57433 11.9705 5.57433 10.0486C5.57433 9.78346 5.78923 9.56856 6.05433 9.56856ZM6.57998 10.5286C6.80411 11.6907 7.82671 12.5686 9.05433 12.5686C10.2819 12.5686 11.3045 11.6907 11.5287 10.5286H6.57998Z"/>
    <path fill-rule="evenodd" clip-rule="evenodd" d="M11.3029 7.05078C10.8392 7.05078 10.4629 7.4271 10.4629 7.89078C10.4629 8.35446 10.8392 8.73078 11.3029 8.73078C11.7666 8.73078 12.1429 8.35446 12.1429 7.89078C12.1429 7.4271 11.7666 7.05078 11.3029 7.05078Z"/>
    <rect x="10.2598" y="4.04883" width="4.8" height="1.2" rx="0.6"/>
    <rect x="13.2598" y="2.25" width="4.8" height="1.2" rx="0.6" transform="rotate(90 13.2598 2.25)"/>
</svg>
