<svg width="56" height="56" viewBox="0 0 56 56" fill="none" xmlns="http://www.w3.org/2000/svg">
    <rect width="56" height="56" rx="28" fill="#8568D8"/>
    <path fill-rule="evenodd" clip-rule="evenodd" d="M7.00094 29.6867L6.38857 27.6163C5.24512 27.9545 4.59233 29.1556 4.93054 30.2991C5.26864 31.4422 6.46917 32.095 7.61233 31.7574L7.61767 31.7559L7.64971 31.7466L7.7954 31.7059C7.92831 31.6693 8.13211 31.6147 8.40298 31.5461C8.94477 31.4089 9.75443 31.216 10.8014 31.0004C12.896 30.5692 15.9361 30.0482 19.6777 29.7005C27.1688 29.0044 37.4242 29.0075 48.5194 31.7813C49.6762 32.0705 50.8484 31.3672 51.1376 30.2104C51.4269 29.0536 50.7235 27.8813 49.5667 27.5921C37.8778 24.6699 27.1121 24.673 19.2782 25.4009C15.3573 25.7652 12.1588 26.3123 9.93062 26.771C8.81614 27.0005 7.94327 27.2081 7.34289 27.3601C7.04266 27.4361 6.81047 27.4983 6.65016 27.5424C6.57 27.5644 6.5078 27.582 6.46404 27.5945L6.4123 27.6094L6.39691 27.6139L6.38857 27.6163C6.38782 27.6165 6.38857 27.6163 7.00094 29.6867Z" fill="white"/>
    <path d="M19.479 44.334C22.475 44.334 24.9038 41.9052 24.9038 38.9092C24.9038 35.9131 22.475 33.4844 19.479 33.4844C16.483 33.4844 14.0542 35.9131 14.0542 38.9092C14.0542 41.9052 16.483 44.334 19.479 44.334Z" fill="white"/>
    <path d="M36.5664 44.334C39.5624 44.334 41.9912 41.9052 41.9912 38.9092C41.9912 35.9131 39.5624 33.4844 36.5664 33.4844C33.5704 33.4844 31.1416 35.9131 31.1416 38.9092C31.1416 41.9052 33.5704 44.334 36.5664 44.334Z" fill="white"/>
    <path fill-rule="evenodd" clip-rule="evenodd" d="M35.6521 9.65753C36.6932 9.47535 37.7131 10.0735 38.0622 11.071L43.7582 27.3454C44.1521 28.4709 43.5591 29.7026 42.4336 30.0965C41.3081 30.4904 40.0764 29.8974 39.6825 28.7719L34.5917 14.2269L25.5469 15.8097C25.1835 15.8733 24.8098 15.8427 24.4615 15.7208L21.1446 14.5599L19.0984 21.1079C18.7427 22.2461 17.5317 22.8804 16.3936 22.5247C15.2554 22.1691 14.6211 20.9581 14.9768 19.8199L17.6892 11.1403C17.8638 10.5817 18.2576 10.1178 18.7806 9.85506C19.3036 9.59228 19.9108 9.55308 20.4632 9.74643L25.3569 11.4592L35.6521 9.65753Z" fill="white"/>
    <path fill-rule="evenodd" clip-rule="evenodd" d="M36.3864 37.8054C29.9673 37.2705 24.153 37.2777 19.7299 37.7981C18.5456 37.9374 17.4727 37.0903 17.3334 35.9061C17.194 34.7218 18.0411 33.6489 19.2254 33.5095C24.0244 32.945 30.1446 32.9522 36.745 33.5022C37.9333 33.6012 38.8163 34.6448 38.7173 35.8331C38.6183 37.0214 37.5747 37.9044 36.3864 37.8054Z" fill="white"/>
</svg>
