<svg width="308" height="274" viewBox="0 0 308 274" fill="none" xmlns="http://www.w3.org/2000/svg">
    <path d="M18.9001 184.92C38.4001 236.62 88.3001 273.52 146.9 273.52C205.5 273.52 255.4 236.72 274.9 184.92H18.9001Z" fill="white"/>
    <path d="M283.6 136.72C283.6 61.2195 222.4 0.0195312 146.9 0.0195312C71.4001 0.0195312 10.1001 61.2195 10.1001 136.72C10.1001 153.72 13.2001 169.92 18.8001 184.92H274.8C280.5 169.92 283.6 153.72 283.6 136.72Z" fill="#F5F5F5"/>
    <path d="M70.7 176.62C81.1 199.92 108.4 210.32 131.6 199.92C154.9 189.52 165.3 162.22 154.9 139.02C148.1 123.92 134.2 114.22 118.9 112.12C110.7 111.02 102 112.12 93.9 115.72C70.7 126.12 60.3 153.32 70.7 176.62Z" fill="#F5F5F5"/>
    <path d="M145.5 180.62L136.6 188.32L123.8 195.52L109.9 198.02L94.4002 195.72L82.9002 190.02L76.2002 184.12C76.2002 184.12 76.4002 179.42 82.1002 176.12C90.6002 171.12 102.5 167.02 110.9 174.02L129.3 169.12L134.8 167.02L144.3 171.42L145.5 180.62Z" fill="white"/>
    <path d="M105.8 180.12L92.6001 179.82L92.8001 167.62L86.7001 152.02C86.7001 152.02 83.9001 140.42 94.2001 139.22C104.5 137.92 106 151.32 106 151.32L105.2 162.92C105.1 162.92 103.1 175.22 105.8 180.12Z" fill="white"/>
    <path d="M126.4 112.32C139.1 115.92 150.1 124.92 155.9 137.82C166.3 161.22 155.7 188.72 132.1 199.22C108.5 209.72 80.9 199.32 70.5 176.02C69.5 173.82 68.8 171.72 68.1 169.52L67 165.72" stroke="#A3A3A3" stroke-width="5.3942" stroke-miterlimit="10" stroke-linejoin="round"/>
    <path d="M144.5 181.72C147.8 165.32 130.5 166.52 130.5 166.52C130.5 166.52 119.3 167.42 110.6 174.72" stroke="#A3A3A3" stroke-width="5.0933" stroke-miterlimit="10" stroke-linejoin="round"/>
    <path d="M66.1001 166.22C66.9001 164.72 67.6001 163.72 67.6001 163.72C74.0001 157.62 83.0001 159.12 90.3001 164.12C95.7001 167.82 92.2001 179.62 92.2001 179.62C97.2001 181.82 103.2 181.52 108 178.12" stroke="#A3A3A3" stroke-width="5.0933" stroke-miterlimit="10" stroke-linejoin="round"/>
    <path d="M101.2 189.82L100.2 180.82" stroke="#A3A3A3" stroke-width="5.0933" stroke-miterlimit="10" stroke-linejoin="round"/>
    <path d="M94.0001 143.92C94.3001 151.32 96.5001 159.02 98.6001 164.02" stroke="#A3A3A3" stroke-width="5.0933" stroke-miterlimit="10" stroke-linecap="round" stroke-linejoin="round"/>
    <path d="M93.1 167.02C93.1 167.02 86.6001 158.22 86.8001 150.02" stroke="#A3A3A3" stroke-width="5.0933" stroke-miterlimit="10" stroke-linecap="round" stroke-linejoin="round"/>
    <path d="M160 151.92C160 151.92 157 187.02 183.5 187.02" stroke="#A3A3A3" stroke-width="5.0933" stroke-miterlimit="10" stroke-linejoin="round"/>
    <path d="M276.9 159.62C248.3 158.22 234.2 146.72 230.7 132.02C220.7 89.9195 198.1 66.5195 155.5 66.5195C127.7 66.5195 103.3 81.2195 89.7 103.32C89.7 103.32 80.9 117.42 71.8 125.52" stroke="#A3A3A3" stroke-width="5.5687" stroke-miterlimit="10" stroke-linecap="round" stroke-linejoin="round"/>
    <path d="M119 123.52L126.2 108.42L135.1 100.92L143.8 99.2195L149.5 105.92L151.7 122.22L149.1 135.62L119 123.52Z" fill="#F5F5F5"/>
    <path d="M133.1 125.72C133.1 125.72 144.6 125.12 149.6 134.62C149.6 134.62 157.1 112.42 145 101.72C144.9 101.72 133.1 105.22 133.1 125.72Z" fill="white"/>
    <path d="M64.9001 164.82C64.9001 148.32 82.1001 143.22 82.1001 143.22C111.7 143.22 119.5 120.42 119.5 120.42C119.5 120.42 127.4 97.2195 144.9 99.4195C144.9 99.4195 160.3 115.52 149.2 134.62" stroke="#A3A3A3" stroke-width="5.0933" stroke-miterlimit="10" stroke-linejoin="round"/>
    <path d="M45.8 184.92C56.3 184.92 64.9001 181.32 64.9001 164.82" stroke="#A3A3A3" stroke-width="5.0933" stroke-miterlimit="10" stroke-linejoin="round"/>
    <path d="M144.5 100.12C131.7 106.62 131 123.42 131 123.42C131 123.42 139.9 128.82 143.7 122.22" stroke="#A3A3A3" stroke-width="5.0933" stroke-miterlimit="10" stroke-linejoin="round"/>
    <path d="M77.4001 177.52C77.4001 177.52 83.6001 170.32 93.0001 172.72" stroke="#A3A3A3" stroke-width="5.0933" stroke-miterlimit="10" stroke-linejoin="round"/>
    <path d="M207.5 184.92H62.7V209.52H207.5V184.92Z" fill="white"/>
    <path d="M2.80005 184.92H304.6" stroke="#A3A3A3" stroke-width="5.5608" stroke-miterlimit="10" stroke-linecap="round" stroke-linejoin="round"/>
    <path d="M19.7 174.82C31 174.82 42.4999 177.12 49.0999 141.72C55.6999 106.52 76.4999 81.5195 101.1 68.7195" stroke="#A3A3A3" stroke-width="6.3271" stroke-miterlimit="10" stroke-linecap="round" stroke-linejoin="round"/>
    <path d="M60.5 184.92H78.1L66.1 168.22L60.5 184.92Z" fill="#A3A3A3"/>
    <path d="M172.8 184.52H147.5L160.2 166.02L172.8 184.52Z" fill="#A3A3A3"/>
    <path d="M106.7 171.92C109.9 163.12 120 160.42 126.8 162.52" stroke="#A3A3A3" stroke-width="5.0933" stroke-miterlimit="10" stroke-linejoin="round"/>
    <path d="M105.5 169.02C105.5 169.02 102.9 158.02 106.1 150.52" stroke="#A3A3A3" stroke-width="5.0933" stroke-miterlimit="10" stroke-linecap="round" stroke-linejoin="round"/>
    <path d="M156.8 140.62C156.8 140.62 155.1 154.52 140.7 160.32" stroke="#A3A3A3" stroke-width="5.0933" stroke-miterlimit="10" stroke-linecap="round" stroke-linejoin="round"/>
    <path d="M159.4 150.82C159.4 150.82 157.4 160.92 146.5 166.22" stroke="#A3A3A3" stroke-width="5.0933" stroke-miterlimit="10" stroke-linecap="round" stroke-linejoin="round"/>
    <path d="M109.1 142.32C109.1 142.32 116.8 129.22 131 130.62C131 130.62 144.5 130.52 148.7 144.02" stroke="#A3A3A3" stroke-width="5.0933" stroke-miterlimit="10" stroke-linecap="round" stroke-linejoin="round"/>
</svg>
