<svg viewBox="0.5 0.5 15 15" fill="none" xmlns="http://www.w3.org/2000/svg">
	<g clip-path="url(#clip0_3529_116070)">
		<path d="M8.12254 14.956C11.9645 14.956 15.0791 11.8415 15.0791 7.99949C15.0791 4.15751 11.9645 1.04297 8.12254 1.04297C4.28056 1.04297 1.16602 4.15751 1.16602 7.99949C1.16602 11.8415 4.28056 14.956 8.12254 14.956Z" fill="white"/>
		<path d="M15.0795 7.99834C15.0795 7.11297 14.8897 6.29083 14.6368 5.53194C13.372 3.57146 11.2218 2.30664 8.75535 2.30664C4.89764 2.30664 1.79883 5.40546 1.79883 9.26316C1.79883 10.1485 1.98855 10.9707 2.24152 11.7296C3.50634 13.69 5.65654 14.9549 8.12294 14.9549C11.9806 14.9549 15.0795 11.856 15.0795 7.99834Z" fill="#FFDD52"/>
		<path d="M11.5381 10.2136C10.9057 10.2136 10.1468 9.96061 9.45117 9.26495L9.89386 8.82227C11.5381 10.4665 13.1824 8.88551 13.2456 8.82227L13.6883 9.26495C13.3089 9.70764 12.4867 10.2136 11.5381 10.2136Z" fill="#020203"/>
		<path d="M4.5811 10.2136C3.94869 10.2136 3.18979 9.96061 2.49414 9.26495L2.93683 8.82227C4.5811 10.4665 6.22537 8.88551 6.28861 8.82227L6.7313 9.26495C6.35185 9.70764 5.52971 10.2136 4.5811 10.2136Z" fill="#020203"/>
		<path d="M9.89386 7.55649L9.45117 6.98732C9.45117 6.98732 12.0441 4.9636 14.6369 6.98732L14.1943 7.55649C12.1073 5.84898 10.0203 7.49325 9.89386 7.55649Z" fill="#020203"/>
		<path d="M8.12234 15.272C4.13815 15.272 0.849609 11.9835 0.849609 7.99929C0.849609 4.0151 4.13815 0.726562 8.12234 0.726562C12.1065 0.726562 15.3951 4.0151 15.3951 7.99929C15.3951 11.9835 12.1065 15.272 8.12234 15.272ZM8.12234 1.35897C4.45435 1.35897 1.48202 4.33131 1.48202 7.99929C1.48202 11.6673 4.45435 14.6396 8.12234 14.6396C11.7903 14.6396 14.7627 11.6673 14.7627 7.99929C14.7627 4.33131 11.7903 1.35897 8.12234 1.35897Z" fill="#844432"/>
		<path d="M5.84577 13.1853L5.33984 12.7426C5.97225 11.9837 7.11059 11.541 8.24893 11.541C9.38727 11.541 10.4624 11.9837 11.158 12.6794L10.7153 13.122C10.2094 12.5529 9.26079 12.1734 8.31218 12.1734C7.23708 12.2367 6.3517 12.6161 5.84577 13.1853Z" fill="#020203"/>
		<path d="M4.64468 12.2362C4.64468 12.9951 4.01227 13.6275 3.19013 13.6275C2.368 13.6275 1.79883 12.9951 1.79883 12.2362C1.79883 11.4773 3.25337 9.58008 3.25337 9.58008C3.25337 9.58008 4.64468 11.4773 4.64468 12.2362Z" fill="#94B0DD"/>
		<path d="M3.25317 14.007C2.24132 14.007 1.48242 13.1849 1.48242 12.2363C1.48242 11.4141 2.74724 9.70663 3.00021 9.39042L3.25317 9.07422L3.50614 9.39042C3.7591 9.70663 5.02392 11.4141 5.02392 12.2363C4.96068 13.1849 4.20179 14.007 3.25317 14.007ZM3.25317 10.1493C2.74724 10.845 2.11483 11.8568 2.11483 12.2363C2.11483 12.8687 2.62076 13.3746 3.25317 13.3746C3.88558 13.3746 4.39151 12.8687 4.39151 12.2363C4.32827 11.8568 3.69586 10.845 3.25317 10.1493Z" fill="#154294"/>
		<path d="M8.43948 10.5281H7.80707C7.80707 9.19999 7.36439 8.18814 6.60549 7.55572C4.70826 6.10118 1.29324 7.0498 1.23 7.0498L1.10352 6.41738C1.23 6.41738 4.83474 5.40553 6.98494 7.0498C7.93356 7.80869 8.43948 8.94703 8.43948 10.5281Z" fill="#020203"/>
	</g>
	<defs>
		<clipPath id="clip0_3529_116070">
			<rect width="16" height="16" fill="white"/>
		</clipPath>
	</defs>
</svg>
