<svg viewBox="0.4 0.6 14.7 14.7" fill="none" xmlns="http://www.w3.org/2000/svg">
	<g clip-path="url(#clip0_3529_116069)">
		<path d="M7.7573 14.956C11.5993 14.956 14.7138 11.8415 14.7138 7.99949C14.7138 4.15751 11.5993 1.04297 7.7573 1.04297C3.91532 1.04297 0.800781 4.15751 0.800781 7.99949C0.800781 11.8415 3.91532 14.956 7.7573 14.956Z" fill="white"/>
		<path d="M14.7142 7.99834C14.7142 7.11297 14.5245 6.29083 14.2715 5.53194C13.0067 3.57146 10.8565 2.30664 8.39012 2.30664C4.53241 2.30664 1.43359 5.40546 1.43359 9.26316C1.43359 10.1485 1.62332 10.9707 1.87628 11.7296C3.1411 13.69 5.2913 14.9549 7.7577 14.9549C11.6154 14.9549 14.7142 11.856 14.7142 7.99834Z" fill="#FFDD52"/>
		<path d="M7.7571 15.272C3.77291 15.272 0.484375 11.9835 0.484375 7.99929C0.484375 4.0151 3.77291 0.726562 7.7571 0.726562C11.7413 0.726562 15.0298 4.0151 15.0298 7.99929C15.0298 11.9835 11.7413 15.272 7.7571 15.272ZM7.7571 1.35897C4.08912 1.35897 1.11679 4.33131 1.11679 7.99929C1.11679 11.6673 4.08912 14.6396 7.7571 14.6396C11.4251 14.6396 14.3974 11.6673 14.3974 7.99929C14.3974 4.33131 11.4251 1.35897 7.7571 1.35897Z" fill="#844432"/>
		<path d="M8.07425 7.36595H7.44184C7.44184 6.03788 6.99915 5.02603 6.24026 4.39361C4.34302 2.93907 0.928005 3.88769 0.864763 3.88769L0.738281 3.25527C0.864763 3.25527 4.46951 2.24342 6.6197 3.88769C7.56832 4.64658 8.07425 5.78492 8.07425 7.36595Z" fill="#020203"/>
		<path d="M9.52863 4.39438L9.08594 3.82521C9.08594 3.82521 11.6788 1.80149 14.2717 3.82521L13.829 4.39438C11.7421 2.68687 9.65511 4.33114 9.52863 4.39438Z" fill="#020203"/>
		<path d="M7.75755 13.249C8.66565 13.249 9.40182 12.4845 9.40182 11.5415C9.40182 10.5985 8.66565 9.83398 7.75755 9.83398C6.84945 9.83398 6.11328 10.5985 6.11328 11.5415C6.11328 12.4845 6.84945 13.249 7.75755 13.249Z" fill="#3F2020"/>
		<path d="M7.69498 11.6055C7.37877 11.6055 7.06257 11.732 6.8096 11.8584L6.55664 12.6806C6.87285 12.9968 7.25229 13.2497 7.69498 13.2497C8.26415 13.2497 8.77008 12.807 9.02304 12.3644C8.77008 11.9217 8.26415 11.6055 7.69498 11.6055Z" fill="#E93F7F"/>
		<path d="M7.75744 13.6918C7.44124 13.6918 7.12503 13.6285 6.80883 13.4388L7.12503 12.9329C7.31476 13.0594 7.50448 13.1226 7.75744 13.1226C8.51634 13.1226 9.08551 12.4269 9.08551 11.5416C9.08551 10.6562 8.51634 9.96054 7.75744 9.96054C7.378 9.96054 6.93531 10.2135 6.68234 10.5929C6.36614 11.0356 6.36614 11.668 6.6191 12.2372L6.04993 12.4902C5.67049 11.7313 5.73373 10.9092 6.17642 10.2767C6.55586 9.70757 7.12503 9.32812 7.75744 9.32812C8.83254 9.32812 9.71792 10.2767 9.71792 11.4783C9.65468 12.7431 8.7693 13.6918 7.75744 13.6918Z" fill="#020203"/>
		<path d="M6.36523 12.3634C6.42848 12.4898 6.49172 12.5531 6.6182 12.6796L6.87116 11.8574C6.6182 12.0471 6.49172 12.1736 6.36523 12.3634Z" fill="#E93F7F"/>
		<path d="M5.92337 6.60738C4.2791 4.89987 2.69808 6.4809 2.63484 6.60738L2.12891 6.10145C2.8878 5.34256 4.72179 4.39394 6.36606 6.10145L5.92337 6.60738Z" fill="#020203"/>
		<path d="M4.27815 7.68246C4.5925 7.68246 4.84732 7.14449 4.84732 6.48088C4.84732 5.81726 4.5925 5.2793 4.27815 5.2793C3.96381 5.2793 3.70898 5.81726 3.70898 6.48088C3.70898 7.14449 3.96381 7.68246 4.27815 7.68246Z" fill="#020203"/>
		<path d="M12.7535 6.60859C11.1092 4.96433 9.46491 6.54535 9.40167 6.60859L8.95898 6.16591C9.71788 5.40701 11.5519 4.4584 13.1961 6.16591L12.7535 6.60859Z" fill="#020203"/>
		<path d="M11.1082 7.68441C11.4226 7.68441 11.6774 7.14645 11.6774 6.48283C11.6774 5.81922 11.4226 5.28125 11.1082 5.28125C10.7939 5.28125 10.5391 5.81922 10.5391 6.48283C10.5391 7.14645 10.7939 7.68441 11.1082 7.68441Z" fill="#020203"/>
	</g>
	<defs>
		<clipPath id="clip0_3529_116069">
			<rect width="16" height="16" fill="white"/>
		</clipPath>
	</defs>
</svg>
