<svg viewBox="0.6 0 15 15.3" fill="none" xmlns="http://www.w3.org/2000/svg">
	<g clip-path="url(#clip0_3529_116072)">
		<path d="M13.3138 11.069L12.8612 11.3276C13.5077 10.8751 13.7663 10.0347 13.5077 9.25893C13.1845 8.28923 12.1501 7.83671 11.1804 8.15994L10.9865 8.22459C11.6976 7.966 12.0855 7.19024 11.8269 6.47913C11.5683 5.76802 10.7925 5.38014 10.0814 5.63873L8.78851 6.09125L9.62891 5.76802C10.1461 5.57408 10.534 5.05691 10.2754 4.28115C10.0814 3.57004 9.37033 3.31145 8.85315 3.50539L8.78851 3.63469V3.50539H8.85315C9.37033 1.50135 6.39659 1.04883 6.39659 1.04883C6.39659 1.04883 7.23699 1.75994 6.59053 2.34176C5.94406 2.92358 6.138 3.57004 6.138 3.57004C6.2673 3.95792 6.65517 4.2165 7.1077 4.08721L4.97437 4.86297C4.39255 5.05691 4.06932 5.70337 4.19861 6.22054C4.39255 6.93166 5.10366 7.25489 5.62083 7.06095L5.55618 7.19024L3.42285 7.966C2.71174 8.22459 2.32386 9.00034 2.58245 9.71145C2.77639 10.2286 3.16426 10.5519 3.68144 10.6165L2.58245 11.1983C1.6774 11.7155 1.16022 12.5559 1.48346 13.5256C1.80669 14.4953 2.64709 14.8185 3.81073 14.8185H5.94406L13.3784 14.7539C14.4128 14.7539 15.1885 13.9135 15.1885 12.9438C15.1885 11.9094 14.3481 11.069 13.3138 11.069Z" fill="white"/>
		<path d="M14.9301 11.9745C14.7362 11.6513 14.4776 11.3927 14.0897 11.2634C13.8311 11.1341 13.6372 11.0694 13.314 11.0694L12.8614 11.328C13.5079 10.8755 13.7665 10.0351 13.5079 9.25933C13.4433 9.13004 13.4433 9.0654 13.3786 8.9361C13.1847 8.54822 12.7968 8.28964 12.4089 8.16035C12.021 8.03105 11.5685 7.96641 11.1806 8.16035L10.9867 8.22499C11.6978 7.96641 12.0857 7.19065 11.8271 6.47954C11.8271 6.41489 11.7625 6.41489 11.7625 6.35024C11.5685 6.02701 11.3099 5.76843 10.9867 5.63913C10.7281 5.50984 10.4049 5.50984 10.0816 5.63913L9.30589 5.89772L9.62912 5.76843C10.1463 5.57449 10.5342 5.05731 10.2756 4.28156C10.2756 4.28156 10.2756 4.21691 10.2109 4.21691C10.0816 3.89368 9.82306 3.63509 9.49983 3.57045C9.24125 3.5058 9.04731 3.5058 8.78872 3.57045C8.98266 3.05327 8.91801 2.6654 8.72407 2.34216C8.01296 1.88964 7.10791 1.56641 7.10791 1.56641C7.10791 1.56641 7.81902 2.40681 7.17256 2.98863C6.65539 3.37651 6.91397 3.82903 6.91397 4.02297C7.04327 4.02297 6.97862 4.08762 7.10791 4.08762L7.17256 4.15226C7.43114 4.41085 7.94832 4.4755 8.33619 4.4755L7.75438 4.66944L5.62104 5.50984C5.03923 5.70378 4.71599 6.35024 4.84529 6.86742C4.84529 6.93206 4.90993 6.99671 4.90993 6.99671C5.16852 7.126 5.4271 7.19065 5.68569 7.126L5.5564 7.19065L5.10387 7.31994C5.10387 7.31994 5.16852 7.31994 5.16852 7.38459L3.48771 7.90176C2.7766 8.16035 2.51801 9.32398 2.7766 10.0351C2.7766 10.0997 2.84125 10.2937 2.90589 10.2937C3.03518 10.3583 3.29377 10.6169 3.42306 10.6169L3.48771 10.8109C3.7463 11.0048 4.13417 11.1341 4.52205 11.1341C4.52205 11.1341 3.55236 11.5866 3.16448 11.7805C2.25943 12.2331 1.74226 13.1381 2.06549 14.1078C2.13013 14.2371 2.13013 14.3018 2.19478 14.4311C2.58266 14.6896 3.09983 14.7543 3.7463 14.7543H5.87963L13.314 14.6896C14.3483 14.6896 15.1241 13.8492 15.1241 12.8795C15.1887 12.5563 15.0594 12.2331 14.9301 11.9745Z" fill="#935F37"/>
		<path d="M5.1689 10.4234C6.06148 10.4234 6.78506 10.0182 6.78506 9.51833C6.78506 9.01849 6.06148 8.61328 5.1689 8.61328C4.27631 8.61328 3.55273 9.01849 3.55273 9.51833C3.55273 10.0182 4.27631 10.4234 5.1689 10.4234Z" fill="white"/>
		<path d="M6.91394 9.32524C5.23314 7.64444 3.55233 9.2606 3.48768 9.32524L3.03516 8.87272C3.81091 8.09696 5.68566 7.12726 7.36647 8.87272L6.91394 9.32524Z" fill="#020203"/>
		<path d="M5.16776 10.4898C5.48909 10.4898 5.74957 9.93985 5.74957 9.26149C5.74957 8.58312 5.48909 8.0332 5.16776 8.0332C4.84643 8.0332 4.58594 8.58312 4.58594 9.26149C4.58594 9.93985 4.84643 10.4898 5.16776 10.4898Z" fill="#020203"/>
		<path d="M10.9874 8.54919C10.8581 8.54919 10.7288 8.48454 10.6642 8.2906C10.5995 8.09666 10.6642 7.90272 10.8581 7.83808C11.3753 7.64414 11.6985 7.06232 11.5046 6.4805C11.4399 6.22192 11.246 6.02798 10.9874 5.89868C10.7288 5.76939 10.4702 5.76939 10.2116 5.83404L7.43185 6.86838C7.23791 6.93303 7.04397 6.86838 6.97932 6.67444C6.91467 6.4805 6.97932 6.28656 7.17326 6.22192L9.95306 5.25222C10.4056 5.12293 10.8581 5.12293 11.246 5.31687C11.6339 5.5108 11.9571 5.89868 12.151 6.28656C12.4743 7.19161 12.0217 8.16131 11.1167 8.48454C11.1167 8.54919 11.052 8.54919 10.9874 8.54919Z" fill="#351914"/>
		<path d="M3.16478 15.0781C2.84155 15.0781 2.51832 15.0134 2.19508 14.8842C1.67791 14.6256 1.29003 14.173 1.09609 13.6559C0.708215 12.6215 1.22539 11.5225 2.38902 10.9407L2.84155 10.6821C2.58296 10.4882 2.32438 10.165 2.25973 9.84173C2.13044 9.3892 2.13044 8.93668 2.32438 8.5488C2.51832 8.16092 2.9062 7.83769 3.29407 7.64375L5.42741 6.86799C5.62135 6.80335 5.81529 6.86799 5.87993 7.06193C5.94458 7.25587 5.87993 7.44981 5.68599 7.51446L3.55266 8.29021C3.29407 8.35486 3.10013 8.5488 2.97084 8.80739C2.84155 9.06597 2.84155 9.32456 2.9062 9.58314C3.03549 9.97102 3.35872 10.2296 3.7466 10.2943C3.87589 10.2943 4.00519 10.4235 4.06983 10.5528C4.06983 10.6821 4.00519 10.8761 3.87589 10.9407L2.7769 11.5225C2.13044 11.9104 1.54862 12.5569 1.80721 13.3973C1.9365 13.7852 2.19508 14.0437 2.58296 14.2377C2.97084 14.4316 3.35872 14.4316 3.68195 14.3023L9.62943 12.2336C9.82337 12.169 10.0173 12.2336 10.082 12.4276C10.1466 12.6215 10.082 12.8155 9.88801 12.8801L3.87589 14.9488C3.61731 15.0134 3.35872 15.0781 3.16478 15.0781Z" fill="#351914"/>
		<path d="M12.4097 11.9107C12.2804 11.9107 12.1512 11.8461 12.0865 11.6521C12.0219 11.4582 12.0865 11.2643 12.2804 11.1996C13.0562 10.941 13.4441 10.1006 13.1855 9.32487C12.9269 8.54911 12.0865 8.16123 11.3108 8.41981C11.1168 8.48446 10.9229 8.41981 10.8582 8.22588C10.7936 8.03194 10.8582 7.838 11.0522 7.77335C11.5693 7.57941 12.2158 7.64406 12.733 7.838C13.2501 8.09658 13.638 8.54911 13.832 9.06628C14.2198 10.1653 13.638 11.4582 12.4744 11.8461C12.4744 11.9107 12.4744 11.9107 12.4097 11.9107Z" fill="#351914"/>
		<path d="M5.94433 15.1419C5.75039 15.1419 5.62109 15.0126 5.62109 14.8186C5.62109 14.6247 5.75039 14.4954 5.94433 14.4954L13.3787 14.4307C14.2191 14.4307 14.8655 13.7843 14.8655 12.9439C14.8655 12.1035 14.2191 11.457 13.3787 11.457C13.1847 11.457 13.0554 11.3277 13.0554 11.1338C13.0554 10.9398 13.1847 10.8105 13.3787 10.8105C14.607 10.8105 15.5767 11.7802 15.5767 13.0085C15.5767 14.2368 14.607 15.2065 13.3787 15.2065L5.94433 15.1419Z" fill="#351914"/>
		<path d="M5.42757 7.51436C4.84575 7.51436 4.13464 7.12648 3.9407 6.35072C3.68211 5.63961 4.13464 4.79921 4.84575 4.54062L7.30231 3.63557C7.49625 3.57092 7.69019 3.63557 7.75484 3.82951C7.81949 4.02345 7.75484 4.21739 7.5609 4.28204L5.03969 5.18709C4.65181 5.31638 4.39322 5.7689 4.52252 6.09214C4.71646 6.67395 5.23363 6.80325 5.55686 6.7386C5.7508 6.67395 5.94474 6.80325 6.00939 6.99719C6.07403 7.19113 5.94474 7.38506 5.7508 7.44971C5.62151 7.51436 5.49221 7.51436 5.42757 7.51436Z" fill="#351914"/>
		<path d="M7.2381 6.93355C7.10881 6.93355 6.97951 6.8689 6.91487 6.67496C6.85022 6.48102 6.91487 6.28708 7.10881 6.22244L9.56537 5.38203C9.75931 5.31739 10.2765 5.0588 10.0179 4.34769C9.8886 4.02446 9.69467 3.89516 9.56537 3.83052C9.37143 3.76587 9.17749 3.70122 8.98355 3.76587C8.78961 3.83052 8.59568 3.76587 8.53103 3.57193C8.46638 3.37799 8.53103 3.18405 8.72497 3.11941C9.0482 2.99011 9.50073 2.99011 9.82396 3.18405C10.2118 3.37799 10.4704 3.70122 10.5997 4.0891C10.9229 5.0588 10.4058 5.76991 9.75931 5.96385L7.36739 6.93355C7.30275 6.93355 7.2381 6.93355 7.2381 6.93355Z" fill="#351914"/>
		<path d="M6.84941 4.47606C6.65547 4.47606 6.52618 4.41141 6.33224 4.34676C6.07365 4.21747 5.87971 3.95889 5.75042 3.7003C5.75042 3.63565 5.49183 2.79525 6.33224 2.08414C6.46153 1.95485 6.46153 1.8902 6.46153 1.82555C6.46153 1.63161 6.20294 1.37303 6.1383 1.30838C6.07365 1.24373 6.009 1.04979 6.07365 0.920502C6.1383 0.791209 6.33224 0.726562 6.46153 0.726562C6.52618 0.726562 8.27163 0.985148 8.98274 2.08414C9.30597 2.53666 9.37062 3.05384 9.17668 3.57101C9.11203 3.76495 8.91809 3.89424 8.72416 3.82959C8.53022 3.76495 8.40092 3.57101 8.46557 3.37707C8.53022 2.98919 8.53022 2.7306 8.33628 2.40737C8.07769 2.01949 7.56052 1.76091 7.10799 1.56697C7.10799 1.63161 7.10799 1.69626 7.10799 1.76091C7.10799 1.95485 7.04335 2.27808 6.72011 2.53666C6.33224 3.05383 6.46153 3.50636 6.46153 3.50636C6.46153 3.57101 6.59082 3.7003 6.65547 3.76495C6.72011 3.82959 6.84941 3.82959 7.04335 3.76495C7.23729 3.7003 7.43123 3.76495 7.49587 3.95889C7.56052 4.15282 7.49587 4.34676 7.30193 4.41141C7.17264 4.41141 6.9787 4.47606 6.84941 4.47606Z" fill="#351914"/>
		<path d="M10.8583 10.4234C11.7509 10.4234 12.4745 10.0182 12.4745 9.51833C12.4745 9.01849 11.7509 8.61328 10.8583 8.61328C9.96577 8.61328 9.24219 9.01849 9.24219 9.51833C9.24219 10.0182 9.96577 10.4234 10.8583 10.4234Z" fill="white"/>
		<path d="M12.6034 9.32524C10.9226 7.64444 9.24178 9.2606 9.17713 9.32524L8.72461 8.87272C9.50037 8.09696 11.3751 7.12726 13.0559 8.87272L12.6034 9.32524Z" fill="#020203"/>
		<path d="M10.8572 10.4898C11.1785 10.4898 11.439 9.93985 11.439 9.26149C11.439 8.58312 11.1785 8.0332 10.8572 8.0332C10.5359 8.0332 10.2754 8.58312 10.2754 9.26149C10.2754 9.93985 10.5359 10.4898 10.8572 10.4898Z" fill="#020203"/>
		<path d="M10.9225 11.3926C10.3407 12.5562 9.30633 13.3966 8.20734 13.3966C7.10835 13.3966 6.07401 12.6209 5.49219 11.4572L10.9225 11.3926Z" fill="white"/>
		<path d="M8.14351 13.7208C6.91523 13.7208 5.81624 12.9451 5.10513 11.6521C5.04048 11.5228 5.04048 11.3935 5.10513 11.3289C5.16977 11.1996 5.29906 11.135 5.42836 11.135L10.8587 11.0703C10.988 11.0703 11.1172 11.135 11.1819 11.2643C11.2465 11.3935 11.2465 11.5228 11.1819 11.5875C10.5354 12.8804 9.37179 13.7208 8.14351 13.7208ZM6.07482 11.7814C6.59199 12.5572 7.36775 13.0097 8.20816 13.0097C9.04856 13.0097 9.82432 12.5572 10.3415 11.7168L6.07482 11.7814Z" fill="#020203"/>
	</g>
	<defs>
		<clipPath id="clip0_3529_116072">
			<rect width="16" height="16" fill="white"/>
		</clipPath>
	</defs>
</svg>
