 <svg viewBox="1.5 0 18 20" fill="none" xmlns="http://www.w3.org/2000/svg">
	<path d="M18.4832 12.2734C18.4832 11.5654 17.9168 10.999 17.2088 10.999H13.1023H16.7132C17.4212 10.999 17.9876 10.4326 17.9876 9.72461C17.9876 9.0166 17.4212 8.45019 16.7132 8.45019H15.4388L12.4651 7.81298C11.5447 7.60058 11.8987 6.18457 11.8987 6.18457L12.1111 4.41454C12.3235 3.06933 11.6863 1.79491 10.4119 1.44091C9.4207 1.15771 8.35869 1.93652 8.35869 1.93652C9.4207 3.56493 9.1375 5.26415 9.1375 5.26415C8.9959 6.18457 8.14629 7.38818 8.14629 7.38818C6.87187 7.81298 6.44707 8.37939 5.95146 9.51221L2.34062 9.0874L1.84501 10.1494C1.84501 10.1494 0.641398 14.4683 3.54423 17.1587L6.73027 16.5215L6.30546 15.9551H6.44707C7.01347 16.9463 8.00468 17.6543 9.2791 17.6543H12.0403C12.1819 18.0083 12.6067 18.2915 13.4563 18.2915H15.2972C16.8548 18.2915 17.138 17.6543 17.138 17.0879C17.138 16.5923 16.784 16.1675 16.2884 16.0967L16.5716 16.0259C17.2796 16.0259 17.7752 15.4595 17.7752 14.8223V14.7515C17.7752 14.0435 17.2088 13.5479 16.5716 13.5479H17.2796C17.9168 13.5479 18.4832 12.9814 18.4832 12.2734Z" fill="white"/>
	<path d="M2.55225 10.4326L3.68506 10.7158L4.81787 16.8755L3.61426 17.2295L2.26904 15.1055L1.77344 12.6982V11.4238L2.12744 10.291L2.55225 10.4326Z" fill="#FFDD53"/>
	<path d="M16.9959 17.0884C16.9959 16.5928 16.6419 16.168 16.1462 16.0972L16.4295 16.0264C17.1375 16.0264 17.6331 15.46 17.6331 14.8228V14.752C17.6331 14.044 17.0667 13.5483 16.4295 13.5483H17.1375C17.8455 13.5483 18.4119 12.9819 18.4119 12.2739C18.4119 11.5659 17.9163 10.8579 17.1375 10.8579H14.5178H13.031H14.5178H16.6419C17.3499 10.8579 17.9163 10.2915 17.9163 9.5835C17.9163 8.87549 17.3499 8.30909 16.6419 8.30909H15.3674L12.3938 7.67188C11.4734 7.45948 11.8274 6.04346 11.8274 6.04346L12.1106 4.34424C12.323 3.06983 11.7566 1.86621 10.6238 1.44141C10.1282 1.58301 9.56177 1.51221 9.56177 1.51221C11.7566 5.19385 9.20777 7.88428 9.20777 7.88428C8.35816 8.16749 7.72095 8.66309 7.36695 9.4419L5.95093 9.2295C5.95093 9.3003 5.88013 9.3711 5.88013 9.4419L3.96851 9.2295L3.4729 10.3623C3.4729 10.3623 2.19849 14.1856 4.74732 16.876L6.80054 16.522L6.37573 15.9556H6.44654C6.65894 16.3096 6.87134 16.5928 7.15454 16.8052L7.36695 17.0176C7.57935 17.1592 7.79175 17.3008 8.00415 17.3716L8.78296 17.5132C8.78296 17.5132 9.56177 17.6548 10.7654 17.6548H12.0398L13.1726 18.0796L13.6682 18.2212C13.8098 18.5752 14.093 18.292 14.9426 18.292H15.2966C16.7835 18.292 16.9959 17.6548 16.9959 17.0884Z" fill="#FFDD53"/>
	<path d="M12.3223 18.0088H9.34864C7.36621 18.0088 5.80859 16.3804 5.80859 14.4688H6.5166C6.5166 16.0264 7.79102 17.3008 9.34864 17.3008H12.3223V18.0088Z" fill="#844432"/>
	<path d="M6.30518 9.65186L2.26953 9.29785L2.55273 8.58984L6.37598 8.94385L6.30518 9.65186Z" fill="#844432"/>
	<path d="M3.61452 17.5132L3.47292 17.3716C0.428484 14.5396 1.8445 10.3623 1.8445 10.2207L2.48171 10.4331C2.48171 10.5039 1.20729 14.1855 3.75612 16.7344L6.80056 16.168L6.94216 16.876L3.61452 17.5132Z" fill="#844432"/>
	<path d="M17.2793 13.7607H12.9605C12.04 13.7607 11.332 12.9819 11.332 12.1323C11.332 11.7783 11.4736 11.4243 11.6152 11.1411L12.1816 11.5659C12.04 11.7075 11.9692 11.9199 11.9692 12.1323C11.9692 12.6279 12.394 13.0527 12.8897 13.0527H17.2085C17.7041 13.0527 18.1289 12.6279 18.1289 12.1323C18.1289 11.6367 17.7041 11.2119 17.2085 11.2119H12.8897V10.5039H17.2085C18.1289 10.5039 18.8369 11.2827 18.8369 12.1323C18.9077 13.0527 18.1997 13.7607 17.2793 13.7607Z" fill="#844432"/>
	<path d="M16.5708 16.3091H13.2432C12.3936 16.3091 11.6855 15.6011 11.6855 14.7515C11.6855 14.3975 11.7563 14.1851 11.8979 13.9019L12.5352 14.2559C12.4644 14.3975 12.3936 14.5391 12.3936 14.6807C12.3936 15.1763 12.8184 15.6011 13.2432 15.6011H16.5708C17.0664 15.6011 17.4204 15.1763 17.4204 14.7515C17.4204 14.2559 16.9956 13.8311 16.5708 13.8311H13.2432V13.123H16.5708C17.4204 13.123 18.1284 13.8311 18.1284 14.6807C18.1284 15.6011 17.4204 16.3091 16.5708 16.3091Z" fill="#844432"/>
	<path d="M16.2183 18.5029H13.5278C12.5366 18.5029 11.7578 17.8657 11.7578 17.0869V16.9453C11.7578 16.6621 11.8286 16.4497 11.9702 16.2373L12.5366 16.5913C12.4658 16.7329 12.4658 16.8037 12.4658 16.9453V17.0869C12.4658 17.4409 12.9614 17.7949 13.5278 17.7949H16.1475C16.5015 17.7949 16.8555 17.5117 16.8555 17.0869V16.9453C16.8555 16.5913 16.5723 16.2373 16.1475 16.2373H13.103V15.5293H16.1475C16.9263 15.5293 17.5635 16.1665 17.5635 16.9453V17.0869C17.5635 17.8657 16.9971 18.5029 16.2183 18.5029Z" fill="#844432"/>
	<path d="M16.7827 11.1402H12.9595C12.0391 11.1402 11.3311 10.3614 11.3311 9.51181C11.3311 9.0162 11.5435 8.5206 11.9683 8.23739L12.3931 8.8038C12.1807 9.0162 12.0391 9.2286 12.0391 9.51181C12.0391 10.0074 12.4639 10.4322 12.9595 10.4322H16.7827C17.2783 10.4322 17.7031 10.0074 17.7031 9.51181C17.7031 8.8038 17.0659 8.5914 16.7119 8.5914L12.4639 7.95419C12.1099 7.88339 11.8975 7.67098 11.6851 7.45858C11.3311 6.89218 11.5435 6.04257 11.5435 5.90096L11.8267 4.27254C11.9683 3.21053 11.5435 1.93612 10.4106 1.72372C9.91504 1.58211 9.41944 1.79452 9.13623 1.93612C10.7647 4.90975 8.56983 7.52938 8.56983 7.52938L8.49903 7.60018H8.42822C7.29541 8.02499 6.5166 9.087 6.5166 10.2906H5.80859C5.80859 8.8038 6.729 7.45858 8.14502 6.96298C8.42822 6.60897 9.91504 4.41415 8.42822 2.00692L8.21582 1.72372L8.42822 1.51131C8.49903 1.51131 9.41944 0.732504 10.5522 0.944906C11.9683 1.22811 12.8179 2.64413 12.5347 4.34335L12.2515 6.04257C12.1807 6.25497 12.1099 6.75057 12.3223 7.03378C12.3931 7.10458 12.4639 7.17538 12.6055 7.24618L16.8535 7.88339C17.8447 8.02499 18.4819 8.6622 18.4819 9.51181C18.4819 10.4322 17.7031 11.1402 16.7827 11.1402Z" fill="#844432"/>
</svg>
