<svg viewBox="0 0 16.15 16" fill="none" xmlns="http://www.w3.org/2000/svg">
	<g clip-path="url(#clip0_3529_116068)">
		<path d="M8.13621 14.956C11.9782 14.956 15.0927 11.8415 15.0927 7.99949C15.0927 4.15751 11.9782 1.04297 8.13621 1.04297C4.29423 1.04297 1.17969 4.15751 1.17969 7.99949C1.17969 11.8415 4.29423 14.956 8.13621 14.956Z" fill="white"/>
		<path d="M15.0931 7.99834C15.0931 7.11297 14.9034 6.29083 14.6504 5.53194C13.3856 3.57146 11.2354 2.30664 8.76902 2.30664C4.91131 2.30664 1.8125 5.40546 1.8125 9.26316C1.8125 10.1485 2.00222 10.9707 2.25519 11.7296C3.52001 13.69 5.67021 14.9549 8.13661 14.9549C11.9311 14.9549 15.0931 11.856 15.0931 7.99834Z" fill="#FFDD52"/>
		<path d="M6.30228 9.20039C4.65801 7.55612 3.01374 9.13715 2.9505 9.20039L2.50781 8.7577C3.26671 7.99881 5.1007 7.05019 6.74497 8.7577L6.30228 9.20039Z" fill="#020203"/>
		<path d="M13.2593 9.20039C11.615 7.55612 9.97077 9.13715 9.90753 9.20039L9.46484 8.7577C10.2237 7.99881 12.0577 7.05019 13.702 8.7577L13.2593 9.20039Z" fill="#020203"/>
		<path d="M8.13601 15.272C4.08858 15.272 0.863281 11.9835 0.863281 7.99929C0.863281 4.0151 4.08858 0.726562 8.13601 0.726562C12.1834 0.726562 15.4087 4.0151 15.4087 7.99929C15.4087 11.9835 12.1202 15.272 8.13601 15.272ZM8.13601 1.35897C4.46802 1.35897 1.49569 4.33131 1.49569 7.99929C1.49569 11.6673 4.46802 14.6396 8.13601 14.6396C11.804 14.6396 14.7763 11.6673 14.7763 7.99929C14.7763 4.33131 11.804 1.35897 8.13601 1.35897Z" fill="#844432"/>
		<path d="M15.4715 10.2745C15.9142 10.7172 15.9142 11.4761 15.4715 11.9188C15.0288 12.3615 14.2699 12.3615 13.8273 11.9188C13.3846 11.4761 13.0684 9.51562 13.0684 9.51562C13.0684 9.51562 15.0288 9.83183 15.4715 10.2745Z" fill="#93B0DD"/>
		<path d="M14.6499 12.615C14.2705 12.615 13.891 12.4885 13.5748 12.1723C13.0689 11.6664 12.8159 9.95885 12.7527 9.57941L12.6895 9.13672L13.1321 9.19996C13.4483 9.2632 15.2191 9.51617 15.725 10.0221C16.2942 10.5913 16.2942 11.5399 15.725 12.1091C15.4088 12.4253 15.0294 12.615 14.6499 12.615ZM13.4483 9.89561C13.5748 10.5913 13.8278 11.4766 14.0175 11.6664C14.3337 11.9826 14.9029 11.9826 15.2191 11.6664C15.5353 11.3502 15.5353 10.781 15.2191 10.4648C15.0294 10.2751 14.144 10.0221 13.4483 9.89561Z" fill="#154294"/>
		<path d="M0.738266 10.2765C0.295578 10.7192 0.295578 11.4781 0.738266 11.9207C1.18095 12.3634 1.93985 12.3634 2.38253 11.9207C2.82522 11.4781 3.14143 9.51758 3.14143 9.51758C3.14143 9.51758 1.24419 9.83378 0.738266 10.2765Z" fill="#93B0DD"/>
		<path d="M1.62307 12.6162C1.24362 12.6162 0.864177 12.4897 0.547971 12.1735C-0.0211988 11.6043 -0.0211988 10.6557 0.547971 10.0865C1.0539 9.58062 2.76141 9.32765 3.14086 9.26441L3.58354 9.20117L3.45706 9.58062C3.39382 9.89682 3.14086 11.6676 2.63493 12.1735C2.38196 12.4265 2.00252 12.6162 1.62307 12.6162ZM2.76141 9.89682C2.06576 10.0233 1.18038 10.2763 0.990659 10.466C0.674453 10.7822 0.674453 11.3514 0.990659 11.6676C1.30686 11.9838 1.87603 11.9838 2.19224 11.6676C2.4452 11.4779 2.63493 10.6557 2.76141 9.89682Z" fill="#154294"/>
		<path d="M8.4539 9.26438H7.82149C7.82149 7.93632 7.3788 6.92446 6.6199 6.29205C4.72267 4.83751 1.30765 5.78612 1.24441 5.78612L1.05469 5.15371C1.24441 5.15371 4.84915 4.14185 6.93611 5.78612C7.94797 6.54502 8.4539 7.68336 8.4539 9.26438Z" fill="#020203"/>
		<path d="M9.90753 6.29086L9.46484 5.72169C9.46484 5.72169 12.0577 3.69798 14.6506 5.72169L14.2079 6.29086C12.121 4.58335 10.034 6.22762 9.90753 6.29086Z" fill="#020203"/>
		<path d="M10.7922 12.4896L12.1203 10.5923L11.9938 10.4026L9.65385 11.0983L7.81986 11.1615L6.04911 10.7821L4.02539 10.2129L4.40484 10.7821C4.40484 10.7821 4.84753 11.7307 5.60642 12.4263C6.17559 11.9836 7.12421 11.6674 8.1993 11.6674C9.2744 11.6674 10.2863 11.9836 10.7922 12.4896Z" fill="#3F2020"/>
		<path d="M10.73 12.616L10.7932 12.5527C10.73 12.616 10.6668 12.616 10.6035 12.6792L10.73 12.616Z" fill="#3F2020"/>
		<path d="M7.37695 13.2476C8.64178 13.4373 9.40067 13.1843 9.40067 13.1843L9.59039 13.1211C9.1477 13.2476 8.70502 13.3108 8.13585 13.3108C7.81964 13.3108 7.56668 13.3108 7.37695 13.2476Z" fill="#3F2020"/>
		<path d="M10.7918 12.4883L10.7285 12.5515C10.7918 12.5515 10.7918 12.5515 10.7918 12.4883C10.855 12.4883 10.7918 12.4883 10.7918 12.4883Z" fill="#E93F7F"/>
		<path d="M10.6024 12.6777L9.52734 13.1204C9.97003 13.0572 10.2862 12.8675 10.6024 12.6777Z" fill="#E93F7F"/>
		<path d="M8.13585 11.666C6.99751 11.666 6.0489 11.9822 5.54297 12.4249C5.92242 12.7411 6.30186 13.0573 6.80779 13.1838C6.99751 13.247 7.18724 13.247 7.37696 13.3103C7.62993 13.3103 7.88289 13.3735 8.13585 13.3735C8.70502 13.3735 9.14771 13.3103 9.5904 13.1838L10.6655 12.7411C10.7287 12.6779 10.792 12.6779 10.8552 12.6146L10.9185 12.5514C10.2861 11.9822 9.27419 11.666 8.13585 11.666Z" fill="#E93F7F"/>
		<path d="M8.32633 13.6903C7.63067 13.6903 6.87178 13.5638 6.11289 13.3108L6.30261 12.6784C8.01012 13.1844 9.40142 13.1211 10.4133 12.4887C11.2354 11.9828 11.6149 11.2239 11.8046 10.718C8.8955 11.8563 5.79668 11.0974 4.46862 10.6547C4.65834 11.0974 5.03779 11.6666 5.6702 12.1093L5.29075 12.6152C3.89945 11.6666 3.64648 10.2753 3.64648 10.212C3.64648 10.0856 3.64648 9.95907 3.77297 9.89583C3.83621 9.83259 3.96269 9.83259 4.08917 9.83259C4.15241 9.83259 8.51605 11.6666 12.184 9.83259C12.3105 9.76935 12.437 9.76935 12.5002 9.83259C12.6267 9.89583 12.6267 10.0223 12.6267 10.1488C12.6267 10.212 12.3105 11.9828 10.7295 12.9946C10.0338 13.4373 9.2117 13.6903 8.32633 13.6903Z" fill="#020203"/>
	</g>
	<defs>
		<clipPath id="clip0_3529_116068">
			<rect width="16" height="16" fill="white"/>
		</clipPath>
	</defs>
</svg>
