<svg viewBox="0.97 2.54 14.59 12.13" fill="none" xmlns="http://www.w3.org/2000/svg">
	<path d="M4.04657 3.07542C5.48858 2.51116 7.11867 3.20081 8.2472 4.14125C9.37573 3.20081 10.9431 2.44846 12.4478 3.01272C14.6422 3.82777 15.7707 6.21022 14.9557 8.40457C14.1406 10.5989 8.3099 14.3607 8.3099 14.3607C8.3099 14.3607 2.41648 10.5989 1.60143 8.46727C0.72369 6.27291 1.85222 3.82777 4.04657 3.07542Z" fill="white"/>
	<path d="M14.9546 8.40554C15.3935 7.08893 15.2054 5.64692 14.4531 4.58109C14.1396 4.33031 13.7007 4.07952 13.3246 3.95413C11.8199 3.38987 10.2525 4.14222 9.12393 5.08266C7.9954 4.14222 6.428 3.45256 4.9233 4.01683C2.72894 4.76918 1.60042 7.21432 2.41546 9.40868C2.54086 9.72216 2.79164 10.0983 3.04242 10.4118C5.04869 12.3554 8.24618 14.3617 8.24618 14.3617C8.24618 14.3617 14.1396 10.5999 14.9546 8.40554Z" fill="#E93F7F"/>
	<path d="M8.30962 14.6751C7.68266 14.6751 1.97733 10.5372 1.22498 8.59362C0.409933 6.21117 1.60116 3.64064 3.9209 2.7629C5.23752 2.26133 6.80492 2.63751 8.24692 3.76603C9.62623 2.63751 11.2563 2.26133 12.5729 2.7629C13.7015 3.20177 14.6419 4.01682 15.1435 5.08265C15.645 6.14848 15.7077 7.4024 15.2689 8.53092C14.3911 10.788 8.5604 14.6124 8.30962 14.6751ZM5.11213 3.13907C4.79865 3.13907 4.42247 3.20177 4.10899 3.32716C2.10272 4.07951 1.09959 6.33657 1.85194 8.34283C2.4789 10.0356 6.61683 12.9196 8.24692 13.9855C9.18736 13.3585 13.9523 10.161 14.6419 8.28014C15.0181 7.277 14.9554 6.27387 14.5165 5.27073C14.0776 4.3303 13.3253 3.64064 12.3222 3.26446C11.1309 2.82559 9.68893 3.26446 8.43501 4.3303L8.24692 4.51838L7.99614 4.39299C7.1184 3.57794 6.05257 3.13907 5.11213 3.13907Z" fill="#7B1236"/>
	<path d="M8.99923 5.45822C8.87384 5.14474 8.30957 4.64317 7.99609 4.32969L8.37227 3.82812C8.49766 3.89082 9.31271 4.64317 9.56349 5.14474L8.99923 5.45822Z" fill="#7B1236"/>
</svg>
