<svg viewBox="0.35 0.55 14.7 14.8" fill="none" xmlns="http://www.w3.org/2000/svg">
	<g clip-path="url(#clip0_3529_116071)">
		<path d="M7.8784 14.956C11.7204 14.956 14.8349 11.8415 14.8349 7.99949C14.8349 4.15751 11.7204 1.04297 7.8784 1.04297C4.03642 1.04297 0.921875 4.15751 0.921875 7.99949C0.921875 11.8415 4.03642 14.956 7.8784 14.956Z" fill="white"/>
		<path d="M14.8353 7.99834C14.8353 7.11297 14.6456 6.29083 14.3926 5.53194C13.1278 3.57146 10.9776 2.30664 8.51121 2.30664C4.6535 2.30664 1.55469 5.40546 1.55469 9.26316C1.55469 10.1485 1.74441 10.9707 1.99738 11.7296C3.2622 13.69 5.4124 14.9549 7.8788 14.9549C11.7365 14.9549 14.8353 11.856 14.8353 7.99834Z" fill="url(#paint0_linear_3529_116071)"/>
		<path d="M5.60163 12.5525L5.0957 12.1098C5.72811 11.3509 6.86645 10.9082 8.00479 10.9082C9.14313 10.9082 10.2182 11.3509 10.9139 12.0465L10.4712 12.4892C9.96527 11.9201 9.01665 11.5406 8.06804 11.5406C6.99294 11.6039 6.10756 11.9833 5.60163 12.5525Z" fill="#020203"/>
		<path d="M3.2569 5.3332L3.04688 5.92969L7.3416 7.44186L7.55163 6.84537L3.2569 5.3332Z" fill="#020203"/>
		<path d="M12.5217 5.35547L8.22656 6.86719L8.43652 7.46374L12.7317 5.95203L12.5217 5.35547Z" fill="#020203"/>
		<path d="M13.0015 8.44258C11.3572 6.79831 9.71296 8.37934 9.64972 8.44258L9.20703 7.99989C9.96592 7.241 11.7999 6.29238 13.4442 7.99989L13.0015 8.44258Z" fill="#020203"/>
		<path d="M11.3563 9.5809C11.6706 9.5809 11.9254 9.04293 11.9254 8.37932C11.9254 7.7157 11.6706 7.17773 11.3563 7.17773C11.0419 7.17773 10.7871 7.7157 10.7871 8.37932C10.7871 9.04293 11.0419 9.5809 11.3563 9.5809Z" fill="#020203"/>
		<path d="M6.36087 8.44258C4.7166 6.79831 3.07234 8.37934 3.00909 8.44258L2.56641 7.99989C3.3253 7.241 5.15929 6.29238 6.80356 7.99989L6.36087 8.44258Z" fill="#020203"/>
		<path d="M4.71565 9.5809C5.03 9.5809 5.28482 9.04293 5.28482 8.37932C5.28482 7.7157 5.03 7.17773 4.71565 7.17773C4.40131 7.17773 4.14648 7.7157 4.14648 8.37932C4.14648 9.04293 4.40131 9.5809 4.71565 9.5809Z" fill="#020203"/>
		<path d="M8.19505 9.89717H7.56264C7.56264 8.69559 7.24643 7.74697 6.55078 7.11456L6.99347 6.67188C7.8156 7.43077 8.19505 8.50587 8.19505 9.89717Z" fill="#020203"/>
		<path d="M7.8782 15.272C3.89401 15.272 0.605469 11.9835 0.605469 7.99929C0.605469 4.0151 3.89401 0.726562 7.8782 0.726562C11.8624 0.726562 15.1509 4.0151 15.1509 7.99929C15.1509 11.9835 11.8624 15.272 7.8782 15.272ZM7.8782 1.35897C4.21021 1.35897 1.23788 4.33131 1.23788 7.99929C1.23788 11.6673 4.21021 14.6396 7.8782 14.6396C11.5462 14.6396 14.5185 11.6673 14.5185 7.99929C14.5185 4.33131 11.5462 1.35897 7.8782 1.35897Z" fill="#844432"/>
	</g>
	<defs>
		<linearGradient id="paint0_linear_3529_116071" x1="8.18229" y1="-1.09298" x2="8.195" y2="14.9549" gradientUnits="userSpaceOnUse">
			<stop stop-color="#FF008A"/>
			<stop offset="1" stop-color="#FFDD52"/>
		</linearGradient>
		<clipPath id="clip0_3529_116071">
			<rect width="16" height="16" fill="white"/>
		</clipPath>
	</defs>
</svg>
