<svg viewBox="0 0 282 279" fill="none" xmlns="http://www.w3.org/2000/svg">
<path d="M124.616 269.725C193.343 269.725 249.057 214.011 249.057 145.284C249.057 76.5564 193.343 20.842 124.616 20.842C55.8887 20.842 0.174316 76.5564 0.174316 145.284C0.174316 214.011 55.8887 269.725 124.616 269.725Z" fill="#F5F5F5"/>
<path d="M118.425 98.584L129.258 93.3951L124.616 83.2905L123.887 68.0881C123.887 68.0881 121.885 57.4372 112.872 60.2593C103.86 62.9902 107.592 74.6424 107.592 74.6424L112.599 83.9277C112.599 84.0188 118.88 93.4862 118.425 98.584Z" fill="white"/>
<path d="M122.978 152.567L131.899 162.944L136.633 161.852L139.728 140.914L118.426 149.016L122.978 152.567Z" fill="white"/>
<path d="M78.3718 155.298C78.3718 155.298 84.9262 140.277 97.3976 143.008" stroke="#A3A3A3" stroke-width="4.8" stroke-miterlimit="10" stroke-linecap="round" stroke-linejoin="round"/>
<path d="M85.6537 113.695L95.8493 116.79L109.14 117.974L121.612 114.879L133.628 107.232L141.001 98.2198L144.37 90.8462C144.37 90.8462 142.367 87.0228 136.541 86.2946C127.62 85.2932 114.329 89.4807 108.048 95.3978L94.7569 97.9467L89.386 98.2198L83.1047 105.411L85.6537 113.695Z" fill="white"/>
<path d="M110.233 190.163C110.233 190.163 112.6 204.547 125.527 202.908C138.453 201.269 139.273 186.613 139.273 186.613L138.635 180.605C138.635 180.605 136.542 164.037 121.703 168.042C108.686 171.411 110.688 182.608 110.233 190.163Z" fill="white"/>
<path d="M142.095 182.608C142.095 182.608 144.098 194.806 155.932 195.352C169.405 195.899 168.403 179.057 168.403 179.057L166.492 174.779C166.492 174.779 165.763 158.939 150.47 161.397C143.915 162.399 135.449 167.587 142.095 182.608Z" fill="white"/>
<path d="M108.503 54.8886C115.877 60.8057 118.244 74.7337 118.426 82.5625" stroke="#A3A3A3" stroke-width="4.8" stroke-miterlimit="10" stroke-linecap="round" stroke-linejoin="round"/>
<path d="M112.6 85.0208C112.6 85.0208 110.142 75.3713 104.225 70.7286" stroke="#A3A3A3" stroke-width="4.8" stroke-miterlimit="10" stroke-linecap="round" stroke-linejoin="round"/>
<path d="M124.07 82.9268C124.07 82.9268 126.164 73.1863 122.978 66.4499" stroke="#A3A3A3" stroke-width="4.8" stroke-miterlimit="10" stroke-linecap="round" stroke-linejoin="round"/>
<path d="M68.7227 153.295C68.7227 153.295 74.8218 134.36 91.5718 136.454" stroke="#A3A3A3" stroke-width="4.8" stroke-miterlimit="10" stroke-linecap="round" stroke-linejoin="round"/>
<path d="M61.3477 143.008C61.3477 143.008 66.0814 127.078 83.1045 127.988" stroke="#A3A3A3" stroke-width="4.8" stroke-miterlimit="10" stroke-linecap="round" stroke-linejoin="round"/>
<path d="M168.767 136.454C168.767 136.454 159.208 132.175 150.378 134.36" stroke="#A3A3A3" stroke-width="4.8" stroke-miterlimit="10" stroke-linecap="round" stroke-linejoin="round"/>
<path d="M169.313 127.897C169.313 127.897 154.748 121.16 143.46 127.897" stroke="#A3A3A3" stroke-width="4.8" stroke-miterlimit="10" stroke-linecap="round" stroke-linejoin="round"/>
<path d="M168.402 118.248C168.402 118.248 157.205 111.875 145.098 118.248" stroke="#A3A3A3" stroke-width="4.8" stroke-miterlimit="10" stroke-linecap="round" stroke-linejoin="round"/>
<path d="M63.7151 263.809L69.7233 265.083L90.3877 260.167L134.356 244.692L156.295 233.677L160.938 227.76L151.38 214.651L146.009 210.464L118.244 225.393L102.495 230.946L89.7505 231.947L79.6458 234.405L69.7233 239.503L57.4339 249.153L56.1594 256.708L63.7151 263.809Z" fill="white"/>
<path d="M209.276 194.442L216.103 186.431H247.509L263.167 186.886L275.547 191.164L278.734 199.084L274.91 205.366L266.08 208.279H252.789L246.599 202.179L237.314 197.355L228.119 195.443L209.276 194.442Z" fill="white"/>
<path d="M122.067 149.836C133.781 149.836 143.277 140.339 143.277 128.625C143.277 116.911 133.781 107.415 122.067 107.415C110.352 107.415 100.856 116.911 100.856 128.625C100.856 140.339 110.352 149.836 122.067 149.836Z" fill="white"/>
<path d="M152.108 87.2958C164.671 100.222 171.316 117.974 168.858 136.453" stroke="#A3A3A3" stroke-width="4.8" stroke-miterlimit="10" stroke-linecap="round" stroke-linejoin="round"/>
<path d="M39.7734 180.514C39.7734 180.514 54.6117 199.448 83.196 184.246" stroke="#A3A3A3" stroke-width="4.8" stroke-miterlimit="10" stroke-linecap="round" stroke-linejoin="round"/>
<path d="M175.867 162.216C175.867 162.216 190.614 164.583 201.994 150.746" stroke="#A3A3A3" stroke-width="4.8" stroke-miterlimit="10" stroke-linecap="round" stroke-linejoin="round"/>
<path d="M182.604 171.228C182.604 171.228 197.351 173.595 208.73 159.758" stroke="#A3A3A3" stroke-width="4.8" stroke-miterlimit="10" stroke-linecap="round" stroke-linejoin="round"/>
<path d="M186.882 180.332C186.882 180.332 201.629 182.699 213.008 168.862" stroke="#A3A3A3" stroke-width="4.8" stroke-miterlimit="10" stroke-linecap="round" stroke-linejoin="round"/>
<path d="M56.3407 218.657L17.6519 246.786" stroke="#D0D0D0" stroke-width="4.8" stroke-miterlimit="10" stroke-linecap="round" stroke-linejoin="round"/>
<path d="M41.0483 192.894C41.0483 192.894 55.8867 211.828 84.4709 196.626" stroke="#A3A3A3" stroke-width="4.8" stroke-miterlimit="10" stroke-linecap="round" stroke-linejoin="round"/>
<path d="M45.3262 205.002C45.3262 205.002 60.1645 223.936 88.7487 208.734" stroke="#A3A3A3" stroke-width="4.8" stroke-miterlimit="10" stroke-linecap="round" stroke-linejoin="round"/>
<path d="M73.9101 104.957C73.9101 104.957 73.2729 94.1236 83.1954 91.7568" stroke="#A3A3A3" stroke-width="4.8" stroke-miterlimit="10" stroke-linecap="round" stroke-linejoin="round"/>
<path d="M61.3482 143.008C48.2395 151.929 39.7734 166.403 39.7734 182.789C39.7734 209.917 63.1688 231.947 92.0262 231.947C105.226 231.947 117.333 227.304 126.528 219.748" stroke="#A3A3A3" stroke-width="4.8" stroke-miterlimit="10" stroke-linecap="round" stroke-linejoin="round"/>
<path d="M169.04 134.36L167.583 137C163.669 144.829 161.939 153.75 162.941 162.944C163.669 169.863 165.581 172.138 167.856 178.329C169.495 182.789 169.677 195.534 155.658 195.534C152.017 195.534 145.007 191.984 143.005 186.886L141.184 183.335C132.809 168.133 133.719 150.109 142.185 135.452" stroke="#A3A3A3" stroke-width="4.8" stroke-miterlimit="10" stroke-linecap="round" stroke-linejoin="round"/>
<path d="M168.403 135.362C195.167 137.547 216.104 158.666 216.104 184.337V186.522H255.704C255.704 186.522 278.826 185.885 278.826 197.81C278.826 208.734 263.805 208.37 263.805 208.37" stroke="#A3A3A3" stroke-width="4.8" stroke-miterlimit="10" stroke-linecap="round" stroke-linejoin="round"/>
<path d="M157.115 221.843H188.703H209.095H221.657C229.122 221.843 235.13 227.942 235.221 235.406C235.312 242.598 229.395 248.424 221.748 248.879H211.735L205.635 248.97C197.989 249.425 192.072 255.069 192.163 262.261C192.254 269.726 198.262 275.825 205.726 275.825L216.013 275.734C246.873 275.734 261.347 257.527 261.347 235.042C261.347 212.648 248.148 194.351 216.013 194.351H161.576" stroke="#A3A3A3" stroke-width="4.8" stroke-miterlimit="10" stroke-linejoin="round"/>
<path d="M107.411 143.008C125.618 150.291 138.635 166.95 139.272 186.613V188.343C139.272 196.445 132.718 202.908 124.707 202.908C116.605 202.908 110.142 196.354 110.142 188.343C110.142 188.343 108.412 176.599 106.683 172.958C99.1271 157.483 68.7222 153.386 68.7222 153.386C54.248 138.912 51.335 110.783 65.9002 92.0302C65.9002 92.0302 81.1026 72.0941 104.953 79.5587" stroke="#A3A3A3" stroke-width="4.8" stroke-miterlimit="10" stroke-linecap="round" stroke-linejoin="round"/>
<path d="M134.812 201.906C134.812 201.906 161.484 220.022 159.937 229.125C158.48 237.773 115.786 251.519 95.8499 258.255C84.1066 262.261 64.2615 268.633 58.0713 260.258C49.7874 249.152 69.3594 238.319 86.1094 231.674" stroke="#A3A3A3" stroke-width="4.8" stroke-miterlimit="10" stroke-linejoin="round"/>
<path d="M148.284 192.985C148.284 192.985 154.656 190.072 152.107 180.514" stroke="#A3A3A3" stroke-width="4.8" stroke-miterlimit="10" stroke-linejoin="round"/>
<path d="M157.115 195.443C157.115 195.443 163.305 189.161 159.846 178.784" stroke="#A3A3A3" stroke-width="4.8" stroke-miterlimit="10" stroke-linejoin="round"/>
<path d="M118.881 201.633C118.881 201.633 125.8 197.992 122.341 187.614" stroke="#A3A3A3" stroke-width="4.8" stroke-miterlimit="10" stroke-linejoin="round"/>
<path d="M128.075 202.089C128.075 202.089 134.265 195.807 130.806 185.43" stroke="#A3A3A3" stroke-width="4.8" stroke-miterlimit="10" stroke-linejoin="round"/>
<path d="M114.33 41.5978V3" stroke="#D0D0D0" stroke-width="4.8" stroke-miterlimit="10" stroke-linecap="round" stroke-linejoin="round"/>
<path d="M123.342 44.4199C131.353 40.1413 141.549 41.4158 148.285 48.1522C148.285 48.1522 147.193 55.981 139.728 57.8927" fill="#F5F5F5"/>
<path d="M123.342 44.4199C131.353 40.1413 141.549 41.4158 148.285 48.1522C148.285 48.1522 147.193 55.981 139.728 57.8927" stroke="#A3A3A3" stroke-width="4.8" stroke-miterlimit="10" stroke-linejoin="round"/>
<path d="M105.045 118.248C127.87 118.248 146.373 100.885 146.373 79.4678C146.373 58.0502 127.87 40.6879 105.045 40.6879C82.2193 40.6879 63.7158 58.0502 63.7158 79.4678C63.7158 100.885 82.2193 118.248 105.045 118.248Z" stroke="#A3A3A3" stroke-width="4.8" stroke-miterlimit="10" stroke-linejoin="round"/>
<path d="M115.786 111.875C117.97 106.595 123.159 102.863 129.258 102.863C131.898 102.863 134.356 103.591 136.541 104.775" stroke="#A3A3A3" stroke-width="4.8" stroke-miterlimit="10" stroke-linejoin="round"/>
<path d="M109.96 91.6661C105.955 97.0371 98.8542 98.8577 92.846 96.4909C92.846 96.4909 78.0077 101.862 86.8379 114.242" stroke="#A3A3A3" stroke-width="4.8" stroke-miterlimit="10" stroke-linejoin="round"/>
<path d="M146.281 72.2758C145.097 71.2745 144.096 70.7283 144.096 70.7283C136.54 67.9973 129.622 72.6399 125.434 79.4674C122.339 84.4742 129.622 93.1223 129.622 93.1223C126.345 96.8546 121.247 98.7663 115.967 97.7649" stroke="#A3A3A3" stroke-width="4.8" stroke-miterlimit="10" stroke-linejoin="round"/>
<path d="M125.891 104.956L123.342 97.0365" stroke="#A3A3A3" stroke-width="4.8" stroke-miterlimit="10" stroke-linejoin="round"/>
<path d="M73.1829 264.173C73.1829 264.173 71.9085 253.067 84.7441 249.153" stroke="#A3A3A3" stroke-width="4.8" stroke-miterlimit="10" stroke-linecap="round" stroke-linejoin="round"/>
<path d="M61.3477 262.989C61.3477 262.989 61.4387 252.612 69.6316 249.153" stroke="#A3A3A3" stroke-width="4.8" stroke-miterlimit="10" stroke-linecap="round" stroke-linejoin="round"/>
<path d="M269.723 207.641C269.723 207.641 275.276 195.17 251.698 196.99" stroke="#A3A3A3" stroke-width="4.8" stroke-miterlimit="10" stroke-linecap="round" stroke-linejoin="round"/>
<path d="M147.192 211.373C147.192 211.373 197.351 209.735 216.468 210.736C222.476 211.009 237.678 212.557 238.953 226.485" stroke="#A3A3A3" stroke-width="4.8" stroke-miterlimit="10" stroke-linecap="round" stroke-linejoin="round"/>
<path d="M193.073 267.086C193.073 267.086 242.048 272.457 249.968 252.885" stroke="#A3A3A3" stroke-width="4.8" stroke-miterlimit="10" stroke-linecap="round" stroke-linejoin="round"/>
<path d="M75.55 67.6331L84.1981 57.3464C84.1981 57.3464 78.6451 53.7961 69.1777 58.5298C59.7103 63.3545 61.1668 64.1738 61.1668 64.1738C61.1668 64.1738 64.2619 67.9062 68.8136 69.1806C73.3652 70.4551 75.55 67.6331 75.55 67.6331Z" fill="#F5F5F5"/>
<path d="M71.9992 76.5543C71.9992 76.5543 74.3661 75.8261 77.2791 72.7309C80.1011 69.8179 80.2832 65.8125 80.2832 65.8125C80.2832 65.8125 76.3688 61.1698 68.0848 64.0829C58.0712 67.5421 59.4367 68.7255 59.4367 68.7255C59.4367 68.7255 61.2574 75.0068 65.809 76.0992C69.9055 77.0095 71.9992 76.5543 71.9992 76.5543Z" fill="white"/>
<path d="M85.6537 55.7988C74.5477 52.4306 62.8955 58.6208 59.4363 69.7268C59.4363 69.7268 64.0789 76.1901 71.5436 74.3695" stroke="#A3A3A3" stroke-width="4.8" stroke-miterlimit="10" stroke-linejoin="round"/>
<path d="M59.4363 69.7266C59.4363 69.7266 69.9961 59.1668 81.1931 63.8095" stroke="#A3A3A3" stroke-width="4.8" stroke-miterlimit="10" stroke-linejoin="round"/>
</svg>
