<svg width="241" height="169" viewBox="0 0 241 169" fill="none" xmlns="http://www.w3.org/2000/svg">
<path d="M82.5 165C128.063 165 165 128.063 165 82.5C165 36.9365 128.063 0 82.5 0C36.9365 0 0 36.9365 0 82.5C0 128.063 36.9365 165 82.5 165Z" fill="#D0D0D0"/>
<g clip-path="url(#clip0_5096_171245)">
<path d="M54.6 163.1C62.6 163.1 69.2 156.6 69.2 148.5H40C40 156.6 46.5 163.1 54.6 163.1Z" fill="white" stroke="#898989" stroke-width="3.0734" stroke-miterlimit="10" stroke-linecap="round" stroke-linejoin="round"/>
<path d="M57.1992 152.8L61.3992 157" stroke="#898989" stroke-width="3.0734" stroke-miterlimit="10" stroke-linecap="round" stroke-linejoin="round"/>
<path d="M61.3992 152.8L57.1992 157" stroke="#898989" stroke-width="3.0734" stroke-miterlimit="10" stroke-linecap="round" stroke-linejoin="round"/>
<path d="M40 148.5C40 148.5 33.9 161.9 21.7 161.9C9.5 161.9 7.5 157 7.5 157" stroke="#898989" stroke-width="3.0734" stroke-miterlimit="10" stroke-linecap="round" stroke-linejoin="round"/>
</g>
<path d="M91.8992 101.2C91.8992 101.2 83.7992 93.3002 82.4992 83.7002L75.6992 86.9002L67.1992 88.6002L60.3992 88.3002L55.6992 87.2002L57.5992 95.0002L61.5992 102.4L66.7992 108L70.2992 109.3L89.0992 108.9L91.8992 101.2Z" fill="white"/>
<path d="M114.499 149.6L109.099 149L104.699 149.4L97.8992 152.4L97.6992 159.1L99.5992 161.3L104.599 162C111.299 160 114.799 159.3 120.599 155.7L114.499 149.6Z" fill="white"/>
<path d="M36 121.3H52.1L51.7 113.3L44.3 108.2L38 107.4L33.4 108.6L29.5 111.9V116.7L32.6 120.5L36 121.3Z" fill="white"/>
<path d="M118.899 162.699H103.999C99.9988 162.699 96.7988 159.699 96.7988 155.999C96.7988 152.299 100.399 149.999 103.999 149.299C106.799 148.699 114.799 147.999 121.299 156.299" stroke="#898989" stroke-width="3.0734" stroke-miterlimit="10" stroke-linecap="round" stroke-linejoin="round"/>
<path d="M106.082 162C105.78 160.22 107 157.016 109.999 157.017" stroke="#898989" stroke-width="3.07" stroke-linecap="round"/>
<path d="M100.102 161C99.7253 158.509 101 154.5 104.999 154.023" stroke="#898989" stroke-width="3.07" stroke-linecap="round"/>
<path d="M119.698 162.7L123.198 148.1L113.898 122.3" stroke="#898989" stroke-width="3.0734" stroke-miterlimit="10" stroke-linecap="round" stroke-linejoin="round"/>
<path d="M107.999 148.3L96.6992 121.8" stroke="#898989" stroke-width="3.0734" stroke-miterlimit="10" stroke-linecap="round" stroke-linejoin="round"/>
<path d="M50.9008 121.3H36.0008C32.0008 121.3 28.8008 118.3 28.8008 114.6C28.8008 110.9 32.4008 108.6 36.0008 107.9C38.8008 107.3 45.3008 105.9 51.7008 114.2" stroke="#898989" stroke-width="3.0734" stroke-miterlimit="10" stroke-linecap="round" stroke-linejoin="round"/>
<path d="M39.0815 121C38.7801 119.22 39.5 116.016 42.9991 116.017" stroke="#898989" stroke-width="3.07" stroke-linecap="round"/>
<path d="M33.1025 120C32.7258 117.509 33.1029 114 37.9996 113.023" stroke="#898989" stroke-width="3.07" stroke-linecap="round"/>
<path d="M109.999 108.9C109.999 108.9 131.999 116.7 162.399 102.6C162.399 102.6 161.599 108.5 157.799 116L145.999 119.7L130.799 122.3L116.599 122.5L109.399 121.8L105.199 120L107.299 114.1L109.999 108.9Z" fill="white"/>
<path d="M67.1992 121.3H103.499L113.899 101.5" stroke="#898989" stroke-width="3.0734" stroke-miterlimit="10" stroke-linecap="round" stroke-linejoin="round"/>
<path d="M49.0996 121.3H79.2996" stroke="#898989" stroke-width="3.0734" stroke-miterlimit="10" stroke-linecap="round" stroke-linejoin="round"/>
<path d="M67.9008 108.9C62.6008 104.9 58.7008 99.2002 56.8008 92.7002" stroke="#898989" stroke-width="3.0734" stroke-miterlimit="10" stroke-linecap="round" stroke-linejoin="round"/>
<path d="M101.5 56.2002C111.7 61.4002 118.7 72.1002 118.7 84.4002C118.7 90.6002 116.9 96.3002 113.9 101.2" stroke="#898989" stroke-width="3.0734" stroke-miterlimit="10" stroke-linecap="round" stroke-linejoin="round"/>
<path d="M57.5 108.9H89L93.9 95.7998" stroke="#898989" stroke-width="3.0734" stroke-miterlimit="10" stroke-linecap="round" stroke-linejoin="round"/>
<path d="M48.0996 108.9H57.4996" stroke="#898989" stroke-width="3.0734" stroke-miterlimit="10" stroke-linecap="round" stroke-linejoin="round"/>
<path d="M96.9004 42.0002C113.3 32.7002 129 28.3002 143.3 26.7002" stroke="#898989" stroke-width="3.0734" stroke-miterlimit="10" stroke-linecap="round" stroke-linejoin="round"/>
<path d="M131.6 105.4C131.6 105.4 157 68 112.4 35" stroke="#898989" stroke-width="3.0734" stroke-miterlimit="10" stroke-linecap="round" stroke-linejoin="round"/>
<path d="M143.699 103C143.699 103 163.5 66.5 127.199 30.5996" stroke="#898989" stroke-width="3.0734" stroke-miterlimit="10" stroke-linecap="round" stroke-linejoin="round"/>
<path d="M121.6 106.1C121.6 106.1 148.5 64 99.5 42.9004" stroke="#898989" stroke-width="3.0734" stroke-miterlimit="10" stroke-linecap="round" stroke-linejoin="round"/>
<path d="M207 129.1C187.5 129.1 171.6 113.3 171.6 93.6998C171.6 74.0998 187.4 58.2998 207 58.2998" stroke="#D0D0D0" stroke-width="3.0734" stroke-miterlimit="10" stroke-linecap="round" stroke-linejoin="round"/>
<path d="M216.299 99.7002C213.099 108.7 227.399 115.1 227.399 115.1L223.299 152.5L215.799 167.1H200.899C196.899 167.1 193.699 164.1 193.699 160.4C193.699 156.7 197.299 154.4 200.899 153.7C202.999 153.3 208.499 153.1 213.799 156.5" stroke="#D0D0D0" stroke-width="3.0734" stroke-miterlimit="10" stroke-linecap="round" stroke-linejoin="round"/>
<path d="M204.081 167C203.78 165.22 204.5 162.016 207.999 162.017" stroke="#D0D0D0" stroke-width="3.07" stroke-linecap="round"/>
<path d="M198.082 166C197.78 163.509 199 160 201.999 159.023" stroke="#D0D0D0" stroke-width="3.07" stroke-linecap="round"/>
<path d="M157.001 156.8C150.601 148.5 141.801 148.7 139.001 149.3C135.501 150 131.801 152.3 131.801 156C131.801 159.7 135.001 162.7 139.001 162.7H160.201L191.301 146.4C191.301 146.4 189.201 139.4 190.201 131.9" stroke="#D0D0D0" stroke-width="3.0734" stroke-miterlimit="10" stroke-linecap="round" stroke-linejoin="round"/>
<path d="M142.083 162C141.781 160.22 142.084 157.016 146 157.017" stroke="#D0D0D0" stroke-width="3.07" stroke-linecap="round"/>
<path d="M136.069 161C135.69 158.5 136.805 154.478 141 154" stroke="#D0D0D0" stroke-width="3.07" stroke-linecap="round"/>
<path d="M205.801 153.5C205.801 153.5 213.701 139.9 205.801 129" stroke="#D0D0D0" stroke-width="3.0734" stroke-miterlimit="10" stroke-linecap="round" stroke-linejoin="round"/>
<path d="M149.199 150.6L172.399 140.9C172.399 140.9 158.599 131.7 161.299 114.7" stroke="#D0D0D0" stroke-width="3.0734" stroke-miterlimit="10" stroke-linecap="round" stroke-linejoin="round"/>
<path d="M222 111.9C225.1 103.8 225.6 94.8002 223.2 86.2002" stroke="#D0D0D0" stroke-width="3.0734" stroke-miterlimit="10" stroke-linecap="round" stroke-linejoin="round"/>
<path d="M225.8 133C239.7 116.6 243.3 92.8002 232.9 72.3002C230.1 66.7002 222.5 56.7002 213.9 52.2002" stroke="#D0D0D0" stroke-width="3.0734" stroke-miterlimit="10" stroke-linecap="round" stroke-linejoin="round"/>
<path d="M201.8 134C198.3 135.8 196.9 140.1 198.7 143.6C200.5 147.1 204.8 148.5 208.3 146.7C208.5 146.6 208.6 146.5 208.8 146.4" stroke="#D0D0D0" stroke-width="3.0734" stroke-miterlimit="10" stroke-linecap="round" stroke-linejoin="round"/>
<path d="M223.399 86.2002C221.599 91.9002 218.599 97.1002 214.699 101.5" stroke="#D0D0D0" stroke-width="3.0734" stroke-miterlimit="10" stroke-linecap="round" stroke-linejoin="round"/>
<path d="M149.1 26.1997C179.9 22.6997 219.9 45.3997 225.2 74.0997" stroke="#D0D0D0" stroke-width="3.0734" stroke-miterlimit="10" stroke-linecap="round" stroke-linejoin="round"/>
<path d="M161.301 114.5C165.801 112.5 170.201 110.1 174.301 107.3" stroke="#D0D0D0" stroke-width="3.0734" stroke-miterlimit="10" stroke-linecap="round" stroke-linejoin="round"/>
<path d="M104.801 119.7C109.401 123.4 133.101 125 156.001 116.7" stroke="#898989" stroke-width="3.0734" stroke-miterlimit="10" stroke-linecap="round" stroke-linejoin="round"/>
<path d="M42.5996 79.2994C46.4996 83.1994 51.3996 86.0994 56.8996 87.5994C59.5996 88.2994 62.3996 88.6994 65.2996 88.6994C74.1996 88.6994 82.1996 85.0994 87.9996 79.2994C82.1996 73.4994 74.1996 69.8994 65.2996 69.8994C56.3996 69.8994 48.3996 73.4994 42.5996 79.2994Z" fill="white"/>
<path d="M56.8996 87.5998C43.1996 83.8998 33.0996 71.3998 33.0996 56.4998C33.0996 38.6998 47.4996 24.2998 65.2996 24.2998C83.0996 24.2998 97.4996 38.6998 97.4996 56.4998C97.4996 74.2998 83.0996 88.6998 65.2996 88.6998C62.3996 88.6998 59.5996 88.2998 56.8996 87.5998Z" stroke="#898989" stroke-width="3.0734" stroke-miterlimit="10" stroke-linecap="round" stroke-linejoin="round"/>
<path d="M41.8001 41.9992L51.4001 37.5992C51.4001 37.5992 48.7001 33.1992 40.3001 33.3992C32.0001 33.5992 32.7001 34.6992 32.7001 34.6992C32.7001 34.6992 33.7001 38.3992 36.4001 40.8992C39.2001 43.2992 41.8001 41.9992 41.8001 41.9992Z" fill="#D0D0D0"/>
<g clip-path="url(#clip1_5096_171245)">
<path d="M40.9992 43.0998C40.9992 43.0998 42.7992 43.5998 44.2992 43.3998C47.3992 42.9998 47.7992 40.6998 47.7992 40.6998C47.7992 40.6998 45.7992 36.3998 38.8992 36.8998C30.5992 37.6998 30.9992 38.7998 30.9992 38.7998C30.9992 38.7998 31.4992 43.2998 34.6992 45.0998C38.5992 47.2998 40.9992 43.0998 40.9992 43.0998Z" fill="white"/>
</g>
<path d="M52.8996 37.0995C46.1996 30.9995 35.7996 31.3995 29.5996 38.0995C29.5996 38.0995 31.1996 43.2995 36.6996 45.4995" stroke="#898989" stroke-width="3.0734" stroke-miterlimit="10" stroke-linecap="round" stroke-linejoin="round"/>
<path d="M29.5996 38.0999C29.5996 38.0999 40.5996 34.1999 46.9996 41.1999" stroke="#898989" stroke-width="3.0734" stroke-miterlimit="10" stroke-linecap="round" stroke-linejoin="round"/>
<path d="M87.7992 41.9992L78.1992 37.5992C78.1992 37.5992 80.8992 33.1992 89.2992 33.3992C97.5992 33.5992 96.8992 34.6992 96.8992 34.6992C96.8992 34.6992 95.8992 38.3992 93.1992 40.8992C90.3992 43.2992 87.7992 41.9992 87.7992 41.9992Z" fill="#D0D0D0"/>
<g clip-path="url(#clip2_5096_171245)">
<path d="M88.8016 43.2004C88.8016 43.2004 87.0016 43.7004 85.5016 43.5004C82.4016 43.1004 82.0016 40.8004 82.0016 40.8004C82.0016 40.8004 84.0016 36.5004 90.9016 37.0004C99.2016 37.8004 98.8016 38.9004 98.8016 38.9004C98.8016 38.9004 98.3016 43.4004 95.1016 45.2004C91.2016 47.4004 88.8016 43.2004 88.8016 43.2004Z" fill="white"/>
</g>
<path d="M76.6992 37.0995C83.3992 30.9995 93.7992 31.3995 99.9992 38.0995C99.9992 38.0995 98.3992 43.2995 92.8992 45.4995" stroke="#898989" stroke-width="3.0734" stroke-miterlimit="10" stroke-linecap="round" stroke-linejoin="round"/>
<path d="M99.9996 38.0999C99.9996 38.0999 88.9996 34.1999 82.5996 41.1999" stroke="#898989" stroke-width="3.0734" stroke-miterlimit="10" stroke-linecap="round" stroke-linejoin="round"/>
<path d="M65.3 47.0996C61.7 47.0996 58.6 49.3996 57.5 52.9996C60.2 57.7996 61 65.6996 60.6 68.4996C61.8 70.2996 63.5 70.7996 65.2 70.7996C66.9 70.7996 68.6 70.2996 69.8 68.4996C69.4 65.6996 70.2 57.7996 72.8 53.0996C71.9 49.0996 68.8 47.0996 65.3 47.0996Z" fill="white"/>
<path d="M56.4004 80.1994C61.3004 75.2994 69.3004 75.2994 74.3004 80.1994" stroke="#898989" stroke-width="3.0734" stroke-miterlimit="10" stroke-linejoin="round"/>
<path d="M65.3008 77.3V72" stroke="#898989" stroke-width="3.0734" stroke-miterlimit="10" stroke-linejoin="round"/>
<path d="M77.3004 49.7994C66.7004 54.6994 70.3004 70.0994 70.3004 70.0994C68.6004 71.2994 66.7004 71.5994 65.4004 71.5994C63.9004 71.5994 61.7004 71.0994 60.5004 70.0994C60.5004 70.0994 64.1004 54.6994 53.5004 49.7994C53.5004 49.7994 43.5004 44.5994 33.4004 53.6994" stroke="#898989" stroke-width="3.0734" stroke-miterlimit="10" stroke-linecap="round" stroke-linejoin="round"/>
<path d="M56.1004 62.4994C56.1004 59.0994 53.4004 56.3994 50.0004 56.3994C46.6004 56.3994 43.9004 59.0994 43.9004 62.4994C43.9004 65.8994 46.6004 68.5994 50.0004 68.5994C53.3004 68.5994 56.1004 65.8994 56.1004 62.4994Z" fill="white"/>
<path d="M86.2 62.4994C86.2 59.0994 83.5 56.3994 80.1 56.3994C76.7 56.3994 74 59.0994 74 62.4994C74 65.8994 76.7 68.5994 80.1 68.5994C83.5 68.5994 86.2 65.8994 86.2 62.4994Z" fill="white"/>
<path d="M79.6 66.4002C82.1405 66.4002 84.2 64.3407 84.2 61.8002C84.2 59.2597 82.1405 57.2002 79.6 57.2002C77.0595 57.2002 75 59.2597 75 61.8002C75 64.3407 77.0595 66.4002 79.6 66.4002Z" fill="#898989"/>
<path d="M50.6 66.4002C53.1405 66.4002 55.2 64.3407 55.2 61.8002C55.2 59.2597 53.1405 57.2002 50.6 57.2002C48.0595 57.2002 46 59.2597 46 61.8002C46 64.3407 48.0595 66.4002 50.6 66.4002Z" fill="#898989"/>
<path d="M42.5996 79.2998C42.5996 79.2998 44.9996 74.4998 50.9996 72.7998" stroke="#898989" stroke-width="3.0734" stroke-miterlimit="10" stroke-linecap="round" stroke-linejoin="round"/>
<path d="M33.9004 63.8C35.5004 62.6 38.1004 61.2 41.7004 61" stroke="#898989" stroke-width="3.0734" stroke-miterlimit="10" stroke-linecap="round" stroke-linejoin="round"/>
<path d="M55.1992 26.3994C56.4992 27.8994 58.1992 30.3994 58.7992 33.7994" stroke="#898989" stroke-width="3.0734" stroke-miterlimit="10" stroke-linecap="round" stroke-linejoin="round"/>
<path d="M75.0004 26.3994C73.7004 27.8994 72.0004 30.3994 71.4004 33.7994" stroke="#898989" stroke-width="3.0734" stroke-miterlimit="10" stroke-linecap="round" stroke-linejoin="round"/>
<path d="M36.9004 71.5998C38.3004 70.1998 40.5004 68.5998 43.6004 67.7998" stroke="#898989" stroke-width="3.0734" stroke-miterlimit="10" stroke-linecap="round" stroke-linejoin="round"/>
<path d="M87.9988 78.9002C87.9988 78.9002 85.6988 74.5002 79.7988 72.7002" stroke="#898989" stroke-width="3.0734" stroke-miterlimit="10" stroke-linecap="round" stroke-linejoin="round"/>
<path d="M96.7 63.7C95 62.6 92.5 61.2 89 61" stroke="#898989" stroke-width="3.0734" stroke-miterlimit="10" stroke-linecap="round" stroke-linejoin="round"/>
<path d="M93.7996 71.5998C92.3996 70.1998 90.1996 68.5998 87.0996 67.7998" stroke="#898989" stroke-width="3.0734" stroke-miterlimit="10" stroke-linecap="round" stroke-linejoin="round"/>
<path d="M65.3008 43.0996V24.5996" stroke="#898989" stroke-width="3.0734" stroke-miterlimit="10" stroke-linecap="round" stroke-linejoin="round"/>
<path d="M153.999 99.9004C153.999 99.9004 171.299 61.3004 138.199 27.4004" stroke="#898989" stroke-width="3.0734" stroke-miterlimit="10" stroke-linecap="round" stroke-linejoin="round"/>
<path d="M49.0996 109.9C50.6996 111.7 52.8996 115.3 51.5996 121.3" stroke="#898989" stroke-width="3.0734" stroke-miterlimit="10" stroke-linecap="round" stroke-linejoin="round"/>
<path d="M58.8008 109.2C60.4008 111 62.6008 114.6 61.3008 120.6" stroke="#898989" stroke-width="3.0734" stroke-miterlimit="10" stroke-linecap="round" stroke-linejoin="round"/>
<path d="M68.4004 109.2C70.0004 111 72.2004 114.6 70.9004 120.6" stroke="#898989" stroke-width="3.0734" stroke-miterlimit="10" stroke-linecap="round" stroke-linejoin="round"/>
<path d="M78.0996 109.2C79.6996 111 81.8996 114.6 80.5996 120.6" stroke="#898989" stroke-width="3.0734" stroke-miterlimit="10" stroke-linecap="round" stroke-linejoin="round"/>
<path d="M120.3 141.7C118.3 143.1 114.1 145.1 107.6 145" stroke="#898989" stroke-width="3.0734" stroke-miterlimit="10" stroke-linecap="round" stroke-linejoin="round"/>
<path d="M117.399 134.4C115.399 135.8 111.199 137.8 104.699 137.7" stroke="#898989" stroke-width="3.0734" stroke-miterlimit="10" stroke-linecap="round" stroke-linejoin="round"/>
<path d="M114.6 127C112.6 128.4 108.4 130.4 101.9 130.3" stroke="#898989" stroke-width="3.0734" stroke-miterlimit="10" stroke-linecap="round" stroke-linejoin="round"/>
<path d="M108.4 121.3C106.4 122.7 102.3 123 99.0996 123" stroke="#898989" stroke-width="3.0734" stroke-miterlimit="10" stroke-linecap="round" stroke-linejoin="round"/>
<path d="M88.3008 109.2C89.9008 111 92.1008 114.6 90.8008 120.6" stroke="#898989" stroke-width="3.0734" stroke-miterlimit="10" stroke-linecap="round" stroke-linejoin="round"/>
<path d="M89.0996 109.1C91.3996 108.6 95.6996 108.6 100.2 112.8" stroke="#898989" stroke-width="3.0734" stroke-miterlimit="10" stroke-linecap="round" stroke-linejoin="round"/>
<path d="M92.5 101.6C94.8 100.8 99 100.3 104 103.9" stroke="#898989" stroke-width="3.0734" stroke-miterlimit="10" stroke-linecap="round" stroke-linejoin="round"/>
<path d="M93.6992 95.8999C95.2992 94.1999 101.499 89.7999 109.399 94.0999" stroke="#898989" stroke-width="3.0734" stroke-miterlimit="10" stroke-linecap="round" stroke-linejoin="round"/>
<path d="M94.5 87.1997C96.1 85.4997 102.3 81.0997 110.2 85.3997" stroke="#898989" stroke-width="3.0734" stroke-miterlimit="10" stroke-linecap="round" stroke-linejoin="round"/>
<path d="M94.6992 78.1C96.5992 76.3 103.499 71.7 112.099 75.8" stroke="#898989" stroke-width="3.0734" stroke-miterlimit="10" stroke-linecap="round" stroke-linejoin="round"/>
<defs>
<clipPath id="clip0_5096_171245">
<rect width="64.7" height="17.6" fill="white" transform="translate(6 147)"/>
</clipPath>
<clipPath id="clip1_5096_171245">
<rect width="16.8" height="8.7" fill="white" transform="translate(31 37)"/>
</clipPath>
<clipPath id="clip2_5096_171245">
<rect width="16.8" height="8.7" fill="white" transform="matrix(-1 0 0 1 98.8008 37.1006)"/>
</clipPath>
</defs>
</svg>
