<svg width="43" height="72" viewBox="0 0 43 72" fill="none" xmlns="http://www.w3.org/2000/svg">
<path d="M41.2451 70.8521C41.682 71.19 42.31 71.1096 42.6479 70.6727C42.9857 70.2358 42.9054 69.6078 42.4685 69.2699L41.2451 70.8521ZM8.70711 0.292893C8.31658 -0.097631 7.68342 -0.0976311 7.29289 0.292893L0.928932 6.65685C0.538408 7.04738 0.538408 7.68054 0.928932 8.07107C1.31946 8.46159 1.95262 8.46159 2.34315 8.07107L8 2.41421L13.6569 8.07107C14.0474 8.46159 14.6805 8.46159 15.0711 8.07107C15.4616 7.68054 15.4616 7.04738 15.0711 6.65685L8.70711 0.292893ZM42.4685 69.2699C19.9504 51.8583 9 26.7092 9 1H7C7 27.2908 18.2083 53.0394 41.2451 70.8521L42.4685 69.2699Z" fill="white"/>
</svg>
